<svg width="174" height="44" viewBox="0 0 174 44" fill="none" xmlns="http://www.w3.org/2000/svg">
  <rect x="0.5" y="0.5" width="173" height="43" rx="7.5" fill="white" stroke="#21ACE3"/>
  <path d="M11.3858 16.12H13.1298L15.6898 24.952L18.2178 16.12H19.8018L22.3618 24.952L24.9058 16.12H26.6338L23.4018 27H21.4498L19.0178 18.76L16.5698 27H14.6338L11.3858 16.12ZM26.9014 16.12H28.6934L31.7654 21.48L34.8214 16.12H36.6134L32.5334 23.064V27H30.9494V23.032L26.9014 16.12ZM37.9258 16.12H41.9258C42.6405 16.12 43.2698 16.1787 43.8138 16.296C44.3685 16.4027 44.8325 16.5893 45.2058 16.856C45.5898 17.112 45.8778 17.4587 46.0698 17.896C46.2618 18.3227 46.3578 18.8507 46.3578 19.48C46.3578 20.4507 46.1338 21.1973 45.6858 21.72C45.2378 22.2427 44.5871 22.5947 43.7338 22.776C44.1178 23.0107 44.4378 23.3253 44.6938 23.72L46.6618 27H44.8698L43.0938 24.12C42.9338 23.864 42.7578 23.6613 42.5658 23.512C42.3738 23.352 42.1605 23.2347 41.9258 23.16C41.6911 23.0747 41.4298 23.0213 41.1418 23C40.8538 22.9787 40.5338 22.968 40.1818 22.968H39.5098V27H37.9258V16.12ZM41.9258 21.544C42.3631 21.544 42.7525 21.512 43.0938 21.448C43.4351 21.384 43.7231 21.272 43.9578 21.112C44.2031 20.952 44.3898 20.744 44.5178 20.488C44.6458 20.2213 44.7098 19.8907 44.7098 19.496C44.7098 19.1013 44.6458 18.7813 44.5178 18.536C44.3898 18.28 44.2031 18.0827 43.9578 17.944C43.7231 17.7947 43.4351 17.6933 43.0938 17.64C42.7525 17.5867 42.3631 17.56 41.9258 17.56H39.5098V21.544H41.9258ZM48.2227 16.12H55.8867V17.56H49.8067V20.84H54.8467V22.248H49.8067V25.56H55.8867V27H48.2227V16.12ZM61.1002 21.256H64.9722V22.584H61.1002V21.256ZM70.9102 16.12H74.8782C76.1155 16.12 77.0862 16.3547 77.7902 16.824C78.5049 17.2827 78.8622 18.024 78.8622 19.048C78.8622 19.624 78.7342 20.104 78.4782 20.488C78.2329 20.872 77.9022 21.1813 77.4862 21.416C78.0729 21.608 78.5582 21.9067 78.9422 22.312C79.3262 22.7067 79.5182 23.256 79.5182 23.96C79.5182 25.0587 79.1609 25.8427 78.4462 26.312C77.7315 26.7707 76.7235 27 75.4222 27H70.9102V16.12ZM72.4942 25.64H75.4222C75.7742 25.64 76.0995 25.608 76.3982 25.544C76.6969 25.48 76.9529 25.3787 77.1662 25.24C77.3902 25.1013 77.5609 24.9253 77.6782 24.712C77.8062 24.488 77.8702 24.2213 77.8702 23.912C77.8702 23.2827 77.6355 22.8293 77.1662 22.552C76.7075 22.264 76.1209 22.12 75.4062 22.12H72.4942V25.64ZM75.0062 20.936C75.6782 20.936 76.2169 20.792 76.6222 20.504C77.0382 20.216 77.2462 19.768 77.2462 19.16C77.2462 18.8507 77.1822 18.5947 77.0542 18.392C76.9369 18.1787 76.7715 18.0027 76.5582 17.864C76.3449 17.7253 76.0942 17.6293 75.8062 17.576C75.5182 17.512 75.2089 17.48 74.8782 17.48H72.4942V20.936H75.0062ZM82.8692 16.12V22.04C82.8692 22.744 82.9332 23.336 83.0612 23.816C83.1999 24.2853 83.3919 24.6587 83.6372 24.936C83.8825 25.2133 84.1759 25.4107 84.5172 25.528C84.8585 25.6453 85.2425 25.704 85.6692 25.704C86.0959 25.704 86.4799 25.6453 86.8212 25.528C87.1732 25.4107 87.4719 25.2133 87.7172 24.936C87.9625 24.6587 88.1492 24.2853 88.2772 23.816C88.4159 23.336 88.4852 22.744 88.4852 22.04V16.12H90.0532V22.04C90.0532 23.0107 89.9465 23.8267 89.7332 24.488C89.5305 25.1387 89.2372 25.6613 88.8532 26.056C88.4692 26.4507 88.0052 26.7333 87.4612 26.904C86.9279 27.0747 86.3305 27.16 85.6692 27.16C85.0079 27.16 84.4052 27.0747 83.8612 26.904C83.3279 26.7333 82.8692 26.4507 82.4852 26.056C82.1012 25.6613 81.8025 25.1387 81.5892 24.488C81.3865 23.8267 81.2852 23.0107 81.2852 22.04V16.12H82.8692ZM91.3702 16.12H93.1622L96.2342 21.48L99.2902 16.12H101.082L97.0022 23.064V27H95.4182V23.032L91.3702 16.12ZM105.991 21.256H109.863V22.584H105.991V21.256ZM119.001 22.952C118.478 22.952 117.987 22.888 117.529 22.76C117.07 22.6213 116.67 22.4133 116.329 22.136C115.987 21.8587 115.715 21.5067 115.513 21.08C115.321 20.6427 115.225 20.12 115.225 19.512C115.225 18.904 115.321 18.3813 115.513 17.944C115.715 17.496 115.987 17.128 116.329 16.84C116.681 16.5413 117.091 16.3227 117.561 16.184C118.03 16.0347 118.542 15.96 119.097 15.96C119.673 15.96 120.201 16.0453 120.681 16.216C121.171 16.376 121.593 16.6267 121.945 16.968C122.307 17.2987 122.585 17.72 122.777 18.232C122.979 18.744 123.081 19.3413 123.081 20.024V22.152C123.081 22.92 123.017 23.6133 122.889 24.232C122.771 24.8507 122.558 25.3787 122.249 25.816C121.95 26.2427 121.539 26.5733 121.017 26.808C120.505 27.0427 119.854 27.16 119.065 27.16C118.467 27.16 117.95 27.0853 117.513 26.936C117.086 26.7867 116.729 26.584 116.441 26.328C116.153 26.0613 115.929 25.7413 115.769 25.368C115.619 24.9947 115.523 24.584 115.481 24.136H117.129C117.182 24.584 117.358 24.9627 117.657 25.272C117.966 25.5813 118.441 25.736 119.081 25.736C119.614 25.736 120.035 25.656 120.345 25.496C120.665 25.3253 120.905 25.0907 121.065 24.792C121.235 24.4827 121.347 24.1093 121.401 23.672C121.465 23.224 121.497 22.7227 121.497 22.168C121.187 22.4347 120.819 22.632 120.393 22.76C119.977 22.888 119.513 22.952 119.001 22.952ZM119.129 17.416C118.457 17.416 117.902 17.576 117.465 17.896C117.027 18.216 116.809 18.7547 116.809 19.512C116.809 20.2907 117.027 20.8507 117.465 21.192C117.902 21.5333 118.457 21.704 119.129 21.704C119.459 21.704 119.763 21.672 120.041 21.608C120.329 21.5333 120.579 21.4213 120.793 21.272C121.006 21.112 121.177 20.9093 121.305 20.664C121.433 20.408 121.502 20.104 121.513 19.752C121.481 18.8667 121.257 18.2587 120.841 17.928C120.425 17.5867 119.854 17.416 119.129 17.416ZM128.048 22.952C127.525 22.952 127.034 22.888 126.576 22.76C126.117 22.6213 125.717 22.4133 125.376 22.136C125.034 21.8587 124.762 21.5067 124.56 21.08C124.368 20.6427 124.272 20.12 124.272 19.512C124.272 18.904 124.368 18.3813 124.56 17.944C124.762 17.496 125.034 17.128 125.376 16.84C125.728 16.5413 126.138 16.3227 126.608 16.184C127.077 16.0347 127.589 15.96 128.144 15.96C128.72 15.96 129.248 16.0453 129.728 16.216C130.218 16.376 130.64 16.6267 130.992 16.968C131.354 17.2987 131.632 17.72 131.824 18.232C132.026 18.744 132.128 19.3413 132.128 20.024V22.152C132.128 22.92 132.064 23.6133 131.936 24.232C131.818 24.8507 131.605 25.3787 131.296 25.816C130.997 26.2427 130.586 26.5733 130.064 26.808C129.552 27.0427 128.901 27.16 128.112 27.16C127.514 27.16 126.997 27.0853 126.56 26.936C126.133 26.7867 125.776 26.584 125.488 26.328C125.2 26.0613 124.976 25.7413 124.816 25.368C124.666 24.9947 124.57 24.584 124.528 24.136H126.176C126.229 24.584 126.405 24.9627 126.704 25.272C127.013 25.5813 127.488 25.736 128.128 25.736C128.661 25.736 129.082 25.656 129.392 25.496C129.712 25.3253 129.952 25.0907 130.112 24.792C130.282 24.4827 130.394 24.1093 130.448 23.672C130.512 23.224 130.544 22.7227 130.544 22.168C130.234 22.4347 129.866 22.632 129.44 22.76C129.024 22.888 128.56 22.952 128.048 22.952ZM128.176 17.416C127.504 17.416 126.949 17.576 126.512 17.896C126.074 18.216 125.856 18.7547 125.856 19.512C125.856 20.2907 126.074 20.8507 126.512 21.192C126.949 21.5333 127.504 21.704 128.176 21.704C128.506 21.704 128.81 21.672 129.088 21.608C129.376 21.5333 129.626 21.4213 129.84 21.272C130.053 21.112 130.224 20.9093 130.352 20.664C130.48 20.408 130.549 20.104 130.56 19.752C130.528 18.8667 130.304 18.2587 129.888 17.928C129.472 17.5867 128.901 17.416 128.176 17.416ZM137.095 22.952C136.572 22.952 136.081 22.888 135.623 22.76C135.164 22.6213 134.764 22.4133 134.423 22.136C134.081 21.8587 133.809 21.5067 133.607 21.08C133.415 20.6427 133.319 20.12 133.319 19.512C133.319 18.904 133.415 18.3813 133.607 17.944C133.809 17.496 134.081 17.128 134.423 16.84C134.775 16.5413 135.185 16.3227 135.655 16.184C136.124 16.0347 136.636 15.96 137.191 15.96C137.767 15.96 138.295 16.0453 138.775 16.216C139.265 16.376 139.687 16.6267 140.039 16.968C140.401 17.2987 140.679 17.72 140.871 18.232C141.073 18.744 141.175 19.3413 141.175 20.024V22.152C141.175 22.92 141.111 23.6133 140.983 24.232C140.865 24.8507 140.652 25.3787 140.343 25.816C140.044 26.2427 139.633 26.5733 139.111 26.808C138.599 27.0427 137.948 27.16 137.159 27.16C136.561 27.16 136.044 27.0853 135.607 26.936C135.18 26.7867 134.823 26.584 134.535 26.328C134.247 26.0613 134.023 25.7413 133.863 25.368C133.713 24.9947 133.617 24.584 133.575 24.136H135.223C135.276 24.584 135.452 24.9627 135.751 25.272C136.06 25.5813 136.535 25.736 137.175 25.736C137.708 25.736 138.129 25.656 138.439 25.496C138.759 25.3253 138.999 25.0907 139.159 24.792C139.329 24.4827 139.441 24.1093 139.495 23.672C139.559 23.224 139.591 22.7227 139.591 22.168C139.281 22.4347 138.913 22.632 138.487 22.76C138.071 22.888 137.607 22.952 137.095 22.952ZM137.223 17.416C136.551 17.416 135.996 17.576 135.559 17.896C135.121 18.216 134.903 18.7547 134.903 19.512C134.903 20.2907 135.121 20.8507 135.559 21.192C135.996 21.5333 136.551 21.704 137.223 21.704C137.553 21.704 137.857 21.672 138.135 21.608C138.423 21.5333 138.673 21.4213 138.887 21.272C139.1 21.112 139.271 20.9093 139.399 20.664C139.527 20.408 139.596 20.104 139.607 19.752C139.575 18.8667 139.351 18.2587 138.935 17.928C138.519 17.5867 137.948 17.416 137.223 17.416ZM142.365 18.952V17.912C142.717 17.912 143.053 17.8747 143.373 17.8C143.704 17.7147 143.992 17.5973 144.237 17.448C144.493 17.2987 144.691 17.112 144.829 16.888C144.979 16.664 145.053 16.408 145.053 16.12H146.621V27H145.053V18.952H142.365ZM148.381 27C148.381 26.1147 148.53 25.384 148.829 24.808C149.128 24.2213 149.501 23.7307 149.949 23.336C150.397 22.9413 150.882 22.6107 151.405 22.344C151.938 22.0773 152.429 21.8107 152.877 21.544C153.325 21.2667 153.698 20.9627 153.997 20.632C154.296 20.2907 154.445 19.8587 154.445 19.336C154.445 18.632 154.253 18.136 153.869 17.848C153.496 17.56 152.984 17.416 152.333 17.416C151.97 17.416 151.661 17.464 151.405 17.56C151.149 17.656 150.936 17.7947 150.765 17.976C150.605 18.1467 150.482 18.3493 150.397 18.584C150.312 18.808 150.258 19.0587 150.237 19.336H148.573C148.616 18.824 148.712 18.36 148.861 17.944C149.021 17.528 149.25 17.176 149.549 16.888C149.858 16.5893 150.242 16.36 150.701 16.2C151.16 16.04 151.709 15.96 152.349 15.96C152.925 15.96 153.442 16.024 153.901 16.152C154.36 16.2693 154.754 16.4613 155.085 16.728C155.416 16.984 155.666 17.3253 155.837 17.752C156.018 18.168 156.109 18.68 156.109 19.288C156.109 19.928 155.992 20.456 155.757 20.872C155.533 21.288 155.24 21.6453 154.877 21.944C154.514 22.2427 154.109 22.5093 153.661 22.744C153.224 22.968 152.792 23.208 152.365 23.464C151.949 23.7093 151.565 23.9973 151.213 24.328C150.861 24.648 150.594 25.0587 150.413 25.56H156.141V27H148.381ZM157.319 18.952V17.912C157.671 17.912 158.007 17.8747 158.327 17.8C158.657 17.7147 158.945 17.5973 159.191 17.448C159.447 17.2987 159.644 17.112 159.783 16.888C159.932 16.664 160.007 16.408 160.007 16.12H161.575V27H160.007V18.952H157.319Z" fill="#3B5B7B"/>
  <path d="M114.633 29H162.743V29.8H114.633V29Z" fill="#3B5B7B"/>
</svg>
