<svg width="77" height="80" viewBox="0 0 77 80" fill="none" xmlns="http://www.w3.org/2000/svg">
<g filter="url(#filter0_d)">
<path d="M57.8033 20.279L58.1687 15.0249L53.2493 14.679" stroke="#368CFB" stroke-width="2" stroke-miterlimit="10" stroke-linecap="round" stroke-linejoin="round"/>
<path d="M19.1619 36.8786L35.2959 25.8146C36.7024 24.85 38.6087 25.0893 39.7355 26.3718V26.3718C40.9539 27.7586 43.0591 27.9094 44.4602 26.7104L57.8317 15.2673" stroke="#368CFB" stroke-width="2" stroke-miterlimit="10" stroke-linecap="round"/>
</g>
<g filter="url(#filter1_d)">
<path d="M27 47H21C19.8954 47 19 47.8954 19 49V61C19 62.1046 19.8954 63 21 63H27C28.1046 63 29 62.1046 29 61V49C29 47.8954 28.1046 47 27 47Z" fill="#21ACE3"/>
</g>
<g filter="url(#filter2_d)">
<path d="M42 39H35C33.8954 39 33 39.8954 33 41V61C33 62.1046 33.8954 63 35 63H42C43.1046 63 44 62.1046 44 61V41C44 39.8954 43.1046 39 42 39Z" fill="#368CFB"/>
</g>
<g filter="url(#filter3_d)">
<path d="M56 31H50C48.8954 31 48 31.8954 48 33V61C48 62.1046 48.8954 63 50 63H56C57.1046 63 58 62.1046 58 61V33C58 31.8954 57.1046 31 56 31Z" fill="#4AC6F8"/>
</g>
<path d="M3.30463 47.1951V49.8067" stroke="#368CFB" stroke-miterlimit="10" stroke-linecap="round"/>
<path d="M4.60906 48.5011H2" stroke="#368CFB" stroke-miterlimit="10" stroke-linecap="round"/>
<path d="M22.3674 14.9268V17.5384" stroke="#368CFB" stroke-miterlimit="10" stroke-linecap="round"/>
<path d="M23.6718 16.2328H21.0627" stroke="#368CFB" stroke-miterlimit="10" stroke-linecap="round"/>
<path d="M69.6956 37.9756V40.5872" stroke="#368CFB" stroke-miterlimit="10" stroke-linecap="round"/>
<path d="M71 39.2816H68.3909" stroke="#368CFB" stroke-miterlimit="10" stroke-linecap="round"/>
<g filter="url(#filter4_d)">
<rect x="15.8041" y="61.0244" width="45.3562" height="1.97561" rx="0.987806" fill="#368CFB"/>
</g>
<defs>
<filter id="filter0_d" x="3.16199" y="0.678818" width="71.0066" height="54.2001" filterUnits="userSpaceOnUse" color-interpolation-filters="sRGB">
<feFlood flood-opacity="0" result="BackgroundImageFix"/>
<feColorMatrix in="SourceAlpha" type="matrix" values="0 0 0 0 0 0 0 0 0 0 0 0 0 0 0 0 0 0 127 0"/>
<feOffset dy="2"/>
<feGaussianBlur stdDeviation="7.5"/>
<feColorMatrix type="matrix" values="0 0 0 0 0.368627 0 0 0 0 0.584314 0 0 0 0 0.784314 0 0 0 0.2 0"/>
<feBlend mode="normal" in2="BackgroundImageFix" result="effect1_dropShadow"/>
<feBlend mode="normal" in="SourceGraphic" in2="effect1_dropShadow" result="shape"/>
</filter>
<filter id="filter1_d" x="4" y="34" width="40" height="46" filterUnits="userSpaceOnUse" color-interpolation-filters="sRGB">
<feFlood flood-opacity="0" result="BackgroundImageFix"/>
<feColorMatrix in="SourceAlpha" type="matrix" values="0 0 0 0 0 0 0 0 0 0 0 0 0 0 0 0 0 0 127 0"/>
<feOffset dy="2"/>
<feGaussianBlur stdDeviation="7.5"/>
<feColorMatrix type="matrix" values="0 0 0 0 0.368627 0 0 0 0 0.584314 0 0 0 0 0.784314 0 0 0 0.2 0"/>
<feBlend mode="normal" in2="BackgroundImageFix" result="effect1_dropShadow"/>
<feBlend mode="normal" in="SourceGraphic" in2="effect1_dropShadow" result="shape"/>
</filter>
<filter id="filter2_d" x="18" y="26" width="41" height="54" filterUnits="userSpaceOnUse" color-interpolation-filters="sRGB">
<feFlood flood-opacity="0" result="BackgroundImageFix"/>
<feColorMatrix in="SourceAlpha" type="matrix" values="0 0 0 0 0 0 0 0 0 0 0 0 0 0 0 0 0 0 127 0"/>
<feOffset dy="2"/>
<feGaussianBlur stdDeviation="7.5"/>
<feColorMatrix type="matrix" values="0 0 0 0 0.368627 0 0 0 0 0.584314 0 0 0 0 0.784314 0 0 0 0.2 0"/>
<feBlend mode="normal" in2="BackgroundImageFix" result="effect1_dropShadow"/>
<feBlend mode="normal" in="SourceGraphic" in2="effect1_dropShadow" result="shape"/>
</filter>
<filter id="filter3_d" x="33" y="18" width="40" height="62" filterUnits="userSpaceOnUse" color-interpolation-filters="sRGB">
<feFlood flood-opacity="0" result="BackgroundImageFix"/>
<feColorMatrix in="SourceAlpha" type="matrix" values="0 0 0 0 0 0 0 0 0 0 0 0 0 0 0 0 0 0 127 0"/>
<feOffset dy="2"/>
<feGaussianBlur stdDeviation="7.5"/>
<feColorMatrix type="matrix" values="0 0 0 0 0.368627 0 0 0 0 0.584314 0 0 0 0 0.784314 0 0 0 0.2 0"/>
<feBlend mode="normal" in2="BackgroundImageFix" result="effect1_dropShadow"/>
<feBlend mode="normal" in="SourceGraphic" in2="effect1_dropShadow" result="shape"/>
</filter>
<filter id="filter4_d" x="0.804077" y="48.0244" width="75.3562" height="31.9756" filterUnits="userSpaceOnUse" color-interpolation-filters="sRGB">
<feFlood flood-opacity="0" result="BackgroundImageFix"/>
<feColorMatrix in="SourceAlpha" type="matrix" values="0 0 0 0 0 0 0 0 0 0 0 0 0 0 0 0 0 0 127 0"/>
<feOffset dy="2"/>
<feGaussianBlur stdDeviation="7.5"/>
<feColorMatrix type="matrix" values="0 0 0 0 0.368627 0 0 0 0 0.584314 0 0 0 0 0.784314 0 0 0 0.2 0"/>
<feBlend mode="normal" in2="BackgroundImageFix" result="effect1_dropShadow"/>
<feBlend mode="normal" in="SourceGraphic" in2="effect1_dropShadow" result="shape"/>
</filter>
</defs>
</svg>
