<svg width="23" height="23" viewBox="0 0 23 23" fill="none" xmlns="http://www.w3.org/2000/svg">
<path d="M0.657143 20.2893H22.3429C22.6714 20.2893 23 20.6179 23 20.9464V22.3429C23 22.6714 22.6714 23 22.3429 23H0.657143C0.328571 23 0 22.7536 0 22.3429V20.9464C0 20.6179 0.328571 20.2893 0.657143 20.2893Z" fill="#3B5B7B"/>
<path d="M0.657143 5.91431H22.3429C22.7536 5.91431 23 6.16074 23 6.57145V7.96788C23 8.29645 22.6714 8.62502 22.3429 8.62502H0.657143C0.328571 8.62502 0 8.29645 0 7.96788V6.57145C0 6.16074 0.328571 5.91431 0.657143 5.91431Z" fill="#3B5B7B"/>
<path d="M11.5 0L0.821411 4.43571C0.821411 4.43571 0.821411 4.51786 0.903554 4.51786H22.1786C22.2607 4.51786 22.2607 4.43571 22.1786 4.35357L11.5 0Z" fill="#3B5B7B"/>
<path d="M2.71073 9.93921H4.10716C4.43573 9.93921 4.7643 10.2678 4.7643 10.5964V18.3178C4.7643 18.6464 4.43573 18.9749 4.10716 18.9749H2.71073C2.38216 18.9749 2.05359 18.6464 2.05359 18.3178V10.5964C2.05359 10.2678 2.30002 9.93921 2.71073 9.93921Z" fill="#3B5B7B"/>
<path d="M10.1857 9.93921H7.47498V18.9749H10.1857V9.93921Z" fill="#3B5B7B"/>
<path d="M13.5536 9.93921H14.9501C15.2786 9.93921 15.6072 10.2678 15.6072 10.5964V18.3178C15.6072 18.6464 15.2786 18.9749 14.9501 18.9749H13.5536C13.2251 18.9749 12.8965 18.6464 12.8965 18.3178V10.5964C12.8965 10.2678 13.1429 9.93921 13.5536 9.93921Z" fill="#3B5B7B"/>
<path d="M18.975 9.93921H20.3714C20.7 9.93921 21.0286 10.2678 21.0286 10.5964V18.3178C21.0286 18.6464 20.7 18.9749 20.3714 18.9749H18.975C18.6464 18.9749 18.3179 18.6464 18.3179 18.3178V10.5964C18.3179 10.2678 18.5643 9.93921 18.975 9.93921Z" fill="#3B5B7B"/>
</svg>
