<svg width="191" height="185" fill="none" xmlns="http://www.w3.org/2000/svg"><g filter="url(#filter0_d)"><path d="M166 63.5a53.1 53.1 0 01-2 44.1 49.6 49.6 0 01-25.4 23.6 38.3 38.3 0 01-27.4 1.1c-11-4.1-18.5-12.6-31.1-12-11 .6-19 9.5-29.4 11.5-25.6 5-43.7-29.5-31-50.3 4.2-7 11.8-13.4 20.2-13.9 6-.3 12 1.9 18.1 1.7 8.8-.4 18-4 23.5-11 4.2-5.3 5.3-12.2 10.1-17 9.7-9.7 24.5-10.6 37.3-8.2A50 50 0 01166 63.5z" fill="#E4F8FF"/></g><path fill="#368CFB" stroke="#368CFB" d="M58.9 78.6h8.8v41.1h-8.8z"/><path fill="#fff" d="M122.6 119.2h14.8v4.4h-14.8z"/><path fill="#368CFB" stroke="#368CFB" d="M82.2 78.6H91v41.1h-8.8zM104.5 78.6h8.8v41.1h-8.8z"/><path fill="#A1DFF6" d="M53.8 119.2h17.8v4.5H53.8zM77.2 119.2H95v4.5H77.2zM99.4 119.2h17.8v4.5H99.4zM53.8 74.1h17.8v4.5H53.8z"/><path fill="#368CFB" stroke="#368CFB" d="M126.7 78.6h8.8v41.1h-8.8z"/><path fill="#A1DFF6" d="M77.2 74.1H95v4.5H77.2z"/><g filter="url(#filter1_d)"><rect x="147.9" y="123.6" width="13.3" height="103" rx="3" transform="rotate(90 147.9 123.6)" fill="#368CFB"/></g><path fill="#A1DFF6" d="M99.4 74.1h17.8v4.5H99.4z"/><g filter="url(#filter2_d)"><path d="M150 68H43.4a3 3 0 01-1.8-5.4l52.6-39.3a3 3 0 013.6 0l54 39.2A3 3 0 01150 68z" fill="#368CFB"/></g><path fill="#A1DFF6" d="M121.6 74.1h17.8v4.5h-17.8z"/><ellipse cx="96" cy="49" rx="6.6" ry="6.7" fill="#fff"/><ellipse cx="95.9" cy="49" rx="6.5" ry="6.6" fill="#fff"/><rect x="44.9" y="68" width="103" height="6.2" rx="3.1" fill="#21ACE3"/><g filter="url(#filter3_d)"><path d="M141.5 141a19.6 19.6 0 01-18.3-12.3 20.3 20.3 0 014.3-21.9 19.7 19.7 0 0133.8 14.2c0 5.3-2.1 10.4-5.8 14.2a19.7 19.7 0 01-14 5.8zm0-35a14.7 14.7 0 00-13.7 9.3 15.2 15.2 0 003.2 16.3 14.8 14.8 0 0025.3-10.6 14.8 14.8 0 00-14.8-15z" fill="#4AC6F8"/><path d="M141.5 136.7c8.6 0 15.5-7 15.5-15.7s-7-15.7-15.5-15.7c-8.6 0-15.6 7-15.6 15.7s7 15.7 15.6 15.7z" fill="#fff"/><path d="M134.4 121H149M141.7 128.4v-14.7" stroke="#4AC6F8" stroke-width="3" stroke-linecap="round" stroke-linejoin="round"/></g><path d="M34 104.8v4.4M36.3 107h-4.4M163.5 78v4.4M165.7 80.2h-4.4M118.2 12.3v4.4M120.4 14.5H116" stroke="#21ACE3" stroke-width="2" stroke-miterlimit="10" stroke-linecap="round"/><defs><filter id="filter0_d" x=".5" y="19" width="184.4" height="132.4" filterUnits="userSpaceOnUse" color-interpolation-filters="sRGB"><feFlood flood-opacity="0" result="BackgroundImageFix"/><feColorMatrix in="SourceAlpha" values="0 0 0 0 0 0 0 0 0 0 0 0 0 0 0 0 0 0 127 0" result="hardAlpha"/><feOffset dy="2"/><feGaussianBlur stdDeviation="7.5"/><feColorMatrix values="0 0 0 0 0.368627 0 0 0 0 0.584314 0 0 0 0 0.784314 0 0 0 0.2 0"/><feBlend in2="BackgroundImageFix" result="effect1_dropShadow"/><feBlend in="SourceGraphic" in2="effect1_dropShadow" result="shape"/></filter><filter id="filter1_d" x="29.9" y="110.6" width="133" height="43.3" filterUnits="userSpaceOnUse" color-interpolation-filters="sRGB"><feFlood flood-opacity="0" result="BackgroundImageFix"/><feColorMatrix in="SourceAlpha" values="0 0 0 0 0 0 0 0 0 0 0 0 0 0 0 0 0 0 127 0" result="hardAlpha"/><feOffset dy="2"/><feGaussianBlur stdDeviation="7.5"/><feColorMatrix values="0 0 0 0 0.368627 0 0 0 0 0.584314 0 0 0 0 0.784314 0 0 0 0.2 0"/><feBlend in2="BackgroundImageFix" result="effect1_dropShadow"/><feBlend in="SourceGraphic" in2="effect1_dropShadow" result="shape"/></filter><filter id="filter2_d" x="25.4" y="9.7" width="142.6" height="75.2" filterUnits="userSpaceOnUse" color-interpolation-filters="sRGB"><feFlood flood-opacity="0" result="BackgroundImageFix"/><feColorMatrix in="SourceAlpha" values="0 0 0 0 0 0 0 0 0 0 0 0 0 0 0 0 0 0 127 0" result="hardAlpha"/><feOffset dy="2"/><feGaussianBlur stdDeviation="7.5"/><feColorMatrix values="0 0 0 0 0.368627 0 0 0 0 0.584314 0 0 0 0 0.784314 0 0 0 0.2 0"/><feBlend in2="BackgroundImageFix" result="effect1_dropShadow"/><feBlend in="SourceGraphic" in2="effect1_dropShadow" result="shape"/></filter><filter id="filter3_d" x="106.7" y="88" width="69.6" height="70.1" filterUnits="userSpaceOnUse" color-interpolation-filters="sRGB"><feFlood flood-opacity="0" result="BackgroundImageFix"/><feColorMatrix in="SourceAlpha" values="0 0 0 0 0 0 0 0 0 0 0 0 0 0 0 0 0 0 127 0" result="hardAlpha"/><feOffset dy="2"/><feGaussianBlur stdDeviation="7.5"/><feColorMatrix values="0 0 0 0 0.368627 0 0 0 0 0.584314 0 0 0 0 0.784314 0 0 0 0.2 0"/><feBlend in2="BackgroundImageFix" result="effect1_dropShadow"/><feBlend in="SourceGraphic" in2="effect1_dropShadow" result="shape"/></filter></defs></svg>