<svg xmlns="http://www.w3.org/2000/svg" xmlns:xlink="http://www.w3.org/1999/xlink" width="326" height="142" viewBox="0 0 326 142"><defs><style>.a{fill:#3b5b7b;}.b,.f{fill:none;stroke:#21ace3;}.c{opacity:0.573;clip-path:url(#a);}.d{opacity:0.457;}.e{clip-path:url(#b);}.f{stroke-linecap:round;stroke-linejoin:round;}.g{clip-path:url(#c);}</style><clipPath id="a"><rect class="a" width="326" height="142" rx="8" transform="translate(25 88)"/></clipPath><clipPath id="b"><rect class="b" width="322.509" height="327.401"/></clipPath><clipPath id="c"><rect class="b" width="228.822" height="232.292"/></clipPath></defs><g transform="translate(-25 -88)"><rect class="a" width="326" height="142" rx="8" transform="translate(25 88)"/><g class="c"><g class="d" transform="translate(-55.857 11.965) rotate(30)"><g class="e" transform="translate(-35.79 -45.954)"><path class="f" d="M18.505,49.583c-5.87,8.183-9.428,17.255-8.361,27.395C12.457,96.9,32.025,111.666,33.8,131.589,36.294,159.873,2.5,180.152.539,208.436c-1.423,20.1,14.587,37.89,33.087,45.539s46.251,1.067,65.107,12.452c22.058,13.342,21.169,50.164,46.073,58.525,14.231,4.8,29.707-5.515,36.645-18.856s7.293-28.818,8.539-43.76c1.6-19.39,2.49-35.577,21.7-46.073,13.164-7.115,28.462-9.072,42.693-13.875a106.91,106.91,0,0,0,59.236-51.054c9.784-18.856,11.918-45.717-5.514-57.813-10.5-7.293-24.37-6.582-36.645-3.38-23.3,6.048-49.1,17.255-72.578,3.914-20.1-11.563-20.813-38.068-31.664-56.924S143.738,6.891,125.771,2.266c-25.616-6.582-51.765,6.582-74.535,20.1C39.318,29.482,26.688,38.732,18.505,49.583Z" transform="translate(0.351 0.403)"/><path class="f" d="M20.62,50.363c-5.514,7.649-8.894,16.366-8,25.972,1.245,13.519,10.673,24.548,16.721,36.645a43.76,43.76,0,0,1,4.8,15.3c2.49,26.683-28.64,45.895-28.64,72.4,0,10.14,4.091,18.856,9.784,27.395a53.9,53.9,0,0,0,21.88,19.745c18.322,8.894,41.448,3.558,59.592,11.563L99.78,260.8c21.524,11.918,22.236,44.472,46.251,52.477,13.7,4.625,28.462-4.269,35.222-15.832s8.183-25.438,9.962-39.135,3.2-30.952,16.01-41.448l4.447-3.024c11.741-7.293,25.26-9.784,38.068-14.942,22.592-9.428,43.049-27.928,55.5-50.52,5.159-9.25,9.072-20.1,9.25-30.774s-4.269-22.947-14.231-29-23.659-5.514-35.4-2.135c-19.212,5.514-39.847,14.765-59.948,9.25a44.648,44.648,0,0,1-9.784-4.091c-19.39-10.851-21.169-36.111-31.842-53.9S140.16,9.271,122.905,5C98.535-1.046,73.453,11.05,51.751,24.036,40.366,30.973,28.27,39.69,20.62,50.363Z" transform="translate(4.284 2.647)"/><path class="f" d="M22.816,50.987c-5.337,7.293-8.361,15.476-7.649,24.548,1.067,12.63,9.428,23.3,14.942,34.688a43.938,43.938,0,0,1,4.447,14.409c2.49,25.26-25.971,43.76-24.015,68.486.712,10.14,5.337,18.144,10.317,27.395S31.533,236.7,40.605,241.681c17.077,9.428,39.313,5.159,56.924,12.452l2.846,1.423c20.991,10.673,23.3,38.957,46.428,46.606,13.164,4.269,27.039-2.846,33.976-12.808s8.894-21.88,11.385-34.688,4.091-29.529,15.3-39.847l3.913-3.2c10.317-7.471,22.058-10.5,33.265-16.01,20.279-10.14,39.491-28.462,51.943-49.986,5.692-9.784,10.5-20.635,11.029-32.02s-4.8-24.193-15.3-30.063-22.77-4.625-33.976-1.067c-18.322,5.87-37.89,15.3-57.458,10.317a42.517,42.517,0,0,1-9.606-3.736c-18.678-10.14-21.346-33.976-32.2-50.876S136.664,11.851,120.3,7.76C96.817,2.068,72.981,13.452,52.346,25.9,41.495,32.308,30.11,40.847,22.816,50.987Z" transform="translate(8.136 4.87)"/><path class="f" d="M25.065,51.582A35.4,35.4,0,0,0,17.771,74.53c.712,11.918,8.183,22.058,13.164,32.909a44.65,44.65,0,0,1,4.091,13.7c2.49,23.659-22.77,41.626-19.39,64.217,1.6,10.5,6.582,17.433,11.029,27.572s8.539,16.9,17.433,22.592c15.654,9.962,37.356,6.76,54.433,13.342l2.846,1.245c20.635,9.428,24.193,33.265,46.784,40.736,12.63,4.091,25.794-1.6,32.731-9.784s9.784-18.322,12.808-30.063,4.981-27.928,14.587-38.246l3.38-3.2c8.894-7.471,18.678-11.029,28.64-17.077,17.789-10.851,35.755-29,48.207-49.453,6.048-10.14,11.918-21.169,12.63-33.087S295.808,84.313,284.6,78.977s-22.058-3.736-32.731,0c-17.611,6.048-36.111,15.832-54.789,11.385a40.2,40.2,0,0,1-9.25-3.38C169.509,77.02,165.951,54.428,155.1,38.6c-8.894-13.164-21.88-24.371-37.534-28.106C95.33,5.332,72.56,15.827,52.993,27.567,42.675,33.793,32,41.8,25.065,51.582Z" transform="translate(11.936 7.121)"/><path class="f" d="M27.364,52.058a34.51,34.51,0,0,0-6.938,21.524c.534,11.207,6.938,20.813,11.385,30.952a46.073,46.073,0,0,1,3.736,12.808c2.49,22.236-19.39,39.313-14.765,60.126,2.313,10.673,7.827,16.721,11.741,27.572s6.582,17.789,15.3,24.193c14.409,10.5,35.222,8.539,51.765,14.231l2.846,1.067c20.1,8,25.26,27.572,46.962,34.688a32.2,32.2,0,0,0,31.308-6.76c6.938-6.582,10.673-14.943,14.231-25.616s5.692-26.505,13.875-36.823l2.668-3.2c7.293-7.649,15.476-11.74,23.837-18.144a197.453,197.453,0,0,0,44.472-48.919c6.582-10.5,13.341-21.7,14.409-34.154s-5.692-26.861-17.611-32.02-21.169-2.846-31.308,1.067c-16.721,6.4-34.154,16.366-52.3,12.452a38.246,38.246,0,0,1-8.894-3.024c-17.433-8.539-21.88-29.885-32.731-44.827C142.457,27.154,130,16.836,115.24,13.634,93.894,8.476,72.191,17.9,53.691,29.111,43.907,35.159,33.946,42.808,27.364,52.058Z" transform="translate(15.685 9.491)"/><path class="f" d="M30.482,52.737a33.8,33.8,0,0,0-6.582,20.1c.178,10.317,5.692,19.39,9.606,29.173a48.563,48.563,0,0,1,3.38,11.918c2.49,20.635-15.832,37.178-10.14,55.856,3.2,10.851,9.072,15.832,12.452,27.572s4.625,18.5,13.164,25.616c12.986,10.673,33.087,10.14,49.275,14.942l2.668.889c19.568,6.76,26.149,21.88,47.14,28.818a34.866,34.866,0,0,0,30.063-3.736c6.938-4.8,11.563-11.385,15.654-20.991s6.582-24.9,13.164-35.222l2.135-3.2c5.87-7.827,12.1-12.452,19.212-19.39A308.644,308.644,0,0,0,272.408,136.7c7.116-10.851,14.765-22.236,16.188-35.222s-6.226-28.284-19.034-33.087c-9.784-3.558-20.279-1.957-30.063,2.135-15.832,6.76-32.2,16.9-49.808,13.519a36.288,36.288,0,0,1-8.716-2.846c-16.721-7.827-22.058-27.928-32.909-41.8-8.716-11.207-20.635-20.457-34.688-23.3C93.1,11.823,72.641,20.361,55.208,30.857,45.958,36.549,36.708,43.842,30.482,52.737Z" transform="translate(18.615 11.658)"/><path class="f" d="M33.806,53.289a33.443,33.443,0,0,0-6.4,18.678c-.178,9.606,4.447,18.144,7.649,27.395a53.187,53.187,0,0,1,3.024,11.207c2.49,19.034-11.918,35.044-5.692,51.765,4.269,11.207,10.317,15.12,12.986,27.572s2.49,19.212,11.029,27.039c11.741,11.029,30.952,11.741,46.784,15.832l2.668.712c19.034,5.514,27.217,16.366,47.318,22.769,11.029,3.558,21.7,2.49,28.818-.712s12.274-8,17.255-16.543,7.471-23.481,12.274-33.621l1.6-3.2c4.447-8,8.894-13.164,14.409-20.457,10.317-13.164,24.9-30.419,37-47.852,7.827-11.207,16.188-22.77,17.967-36.467s-6.4-29.707-20.1-33.976c-9.606-3.024-19.568-1.067-28.64,3.2-14.942,6.938-30.241,17.255-47.318,14.587a34.332,34.332,0,0,1-8.361-2.49c-16.01-7.115-22.236-25.794-33.265-38.779-8.716-10.14-20.1-18.322-33.265-20.991-18.856-3.913-38.246,3.736-54.611,13.7C48.215,37.991,39.676,44.928,33.806,53.289Z" transform="translate(21.339 13.952)"/><path class="f" d="M37.059,54.118a33.265,33.265,0,0,0-6.048,17.077c-.356,8.894,3.2,16.9,5.87,25.438a61.9,61.9,0,0,1,2.668,10.317c2.49,17.611-8,32.731-1.067,47.5,5.337,11.385,11.741,14.409,13.7,27.572s.534,19.923,8.894,28.64S89.891,224,105.19,227.38l2.49.534c18.678,4.269,28.284,10.673,47.5,16.9a55.146,55.146,0,0,0,27.395,2.313,29,29,0,0,0,18.678-11.918c6.4-8.716,8.183-22.058,11.563-32.2l1.067-3.38a140.346,140.346,0,0,1,9.784-21.524c7.649-13.875,21.524-30.952,33.265-47.318,8.361-11.563,17.611-23.3,19.568-37.534s-6.76-31.308-21.169-35.044c-9.428-2.49-18.678-.178-27.395,4.269-14.231,7.293-28.284,17.789-44.65,15.476a32.552,32.552,0,0,1-8-2.135c-15.476-6.4-22.414-23.837-33.621-35.755-8.539-9.25-19.39-16.366-32.02-18.678-17.967-3.38-36.289,3.38-51.587,12.808A69.376,69.376,0,0,0,37.059,54.118Z" transform="translate(24.134 15.97)"/><path class="f" d="M40.344,54.558a33.621,33.621,0,0,0-5.692,15.654c-.712,8,1.957,15.654,4.091,23.659a82.541,82.541,0,0,1,2.313,9.428c2.668,16.01-3.914,30.419,3.558,43.4s12.986,13.7,14.409,27.75c1.067,11.029-1.245,20.635,6.582,30.063s26.683,15.12,41.625,17.433l2.49.356a279.461,279.461,0,0,1,47.852,11.029,98.372,98.372,0,0,0,26.149,5.337c7.115.178,14.053-1.067,20.1-7.293s9.072-20.457,10.851-30.6l.534-3.38c1.423-8.183,2.313-14.765,5.159-22.592,5.159-14.765,17.967-31.308,29.529-46.784,8.894-11.918,19.034-23.837,21.346-38.6s-7.116-32.909-22.414-35.933c-9.072-1.957-17.967.712-25.971,5.337C209.514,66.3,196.528,77.15,180.7,75.371a30.952,30.952,0,0,1-7.827-1.957c-14.765-5.692-22.592-21.7-33.8-32.731a58.169,58.169,0,0,0-30.6-16.366C91.753,21.471,74.5,27.341,60.267,36.058a63.328,63.328,0,0,0-19.923,18.5Z" transform="translate(26.897 18.375)"/><path class="f" d="M43.748,55.316a34.51,34.51,0,0,0-5.337,14.231c-.889,7.293.712,14.409,2.313,21.7.712,2.846,1.423,5.692,1.957,8.716,2.668,14.587.356,27.928,8.183,39.135s14.409,12.808,15.12,27.75c.534,11.385-3.2,21.169,4.447,31.486s24.548,16.721,38.957,18.322h2.49c17.611,1.6,30.241-.534,48.03,4.981,9.428,3.024,17.789,6.582,24.9,8.361s14.943,2.49,21.524-2.846,9.784-19.034,10.139-29v-3.38c0-8.361-1.067-15.476.356-23.659,2.668-15.476,14.409-31.664,25.971-46.251S263.261,100.5,265.929,85.2s-7.471-34.51-23.481-37c-8.894-1.423-17.077,1.6-24.726,6.4-12.452,7.827-24.548,18.856-39.669,17.611a29.352,29.352,0,0,1-7.471-1.6c-14.053-4.981-22.77-19.745-34.154-29.707a57.636,57.636,0,0,0-29.173-14.053c-15.832-2.313-31.842,2.49-45.005,10.673a57.457,57.457,0,0,0-18.5,17.789Z" transform="translate(29.719 20.464)"/><path class="f" d="M47.165,55.69A37,37,0,0,0,42.184,68.5a55.856,55.856,0,0,0,.534,19.923c.534,2.668,1.067,5.159,1.6,7.827,2.668,12.986,4.447,25.26,12.808,35.044s15.832,12.1,15.654,27.75c0,11.74-4.8,21.7,2.313,33.087s22.414,18.322,36.467,19.212h2.313c17.077.356,31.308-6.226,48.207-.889,8.894,2.846,16.366,7.827,23.481,11.385s15.832,5.87,22.947,1.779S219,206,217.936,196.043c-.178-1.067-.356-2.313-.534-3.38-1.423-8.539-4.269-16.188-4.269-24.726,0-16.366,11.029-32.2,22.236-45.717s21.88-24.9,24.9-40.914-8-36.111-25.082-37.89c-8.716-.889-16.366,2.49-23.3,7.471C200.148,59.07,189.3,70.277,174.71,69.566a27.75,27.75,0,0,1-7.115-1.245c-13.519-4.269-22.947-17.789-34.332-26.683A57.457,57.457,0,0,0,105.512,29.9a64.217,64.217,0,0,0-41.8,9.428A51.232,51.232,0,0,0,47.165,55.69Z" transform="translate(32.35 22.936)"/><path class="f" d="M44.842,85.728a62.26,62.26,0,0,0,18.678,37.89C74.727,134.469,80.775,135,79.885,151.368c-.534,12.1-6.582,22.236.178,34.51a39.847,39.847,0,0,0,33.8,20.1c17.433,0,33.8-12.274,50.7-6.938,8.539,2.668,15.12,9.25,22.236,14.409s16.543,9.428,24.548,6.226,11.207-16.01,8.539-25.971-8.539-19.034-10.14-29.173c-2.668-17.077,7.471-32.553,18.5-45.183s23.481-25.438,26.683-41.981-8-38.068-25.971-38.957c-22.592-1.245-34.154,28.64-56.568,28.284-16.188-.178-27.928-15.476-41.626-24.726-25.971-17.611-65.107-10.5-79.871,14.409a47.674,47.674,0,0,0-6.048,29.351Z" transform="translate(34.674 25.096)"/></g></g><g class="d" transform="matrix(-0.719, 0.695, -0.695, -0.719, 340.582, 64.785)"><g class="g" transform="translate(-35.79 -45.954)"><path class="f" d="M13.26,35.33C9.1,41.136,6.571,47.572,7.328,54.766,8.969,68.9,22.852,79.378,24.115,93.513,25.882,113.581,1.9,127.969.513,148.037-.5,162.3,10.862,174.92,23.988,180.347s32.815.757,46.193,8.835c15.65,9.466,15.019,35.592,32.689,41.524,10.1,3.408,21.077-3.913,26-13.378s5.175-20.446,6.058-31.048c1.136-13.757,1.767-25.242,15.4-32.689,9.34-5.048,20.194-6.437,30.291-9.844a75.853,75.853,0,0,0,42.028-36.223c6.942-13.378,8.456-32.436-3.913-41.019-7.447-5.175-17.291-4.67-26-2.4C176.2,68.4,157.9,76.349,141.239,66.883c-14.262-8.2-14.767-27.009-22.466-40.388S102.113,5.039,89.366,1.758C71.191-2.912,52.638,6.427,36.483,16.02,28.027,21.068,19.066,27.631,13.26,35.33Z" transform="translate(0.118 0.136)"/><path class="f" d="M16.228,36.72c-3.913,5.427-6.311,11.611-5.68,18.427.883,9.592,7.573,17.417,11.864,26A31.048,31.048,0,0,1,25.82,92C27.587,110.933,5.5,124.563,5.5,143.369c0,7.194,2.9,13.378,6.942,19.437a38.242,38.242,0,0,0,15.524,14.009c13,6.311,29.407,2.524,42.281,8.2l2.146,1.01c15.272,8.456,15.776,31.553,32.815,37.232,9.718,3.281,20.194-3.029,24.99-11.233s5.806-18.048,7.068-27.767,2.272-21.961,11.359-29.407l3.155-2.146c8.33-5.175,17.922-6.942,27.009-10.6,16.029-6.689,30.543-19.815,39.378-35.844C221.827,99.7,224.6,92,224.73,84.428s-3.029-16.281-10.1-20.572-16.786-3.913-25.116-1.515c-13.631,3.913-28.271,10.476-42.533,6.563a31.679,31.679,0,0,1-6.942-2.9c-13.757-7.7-15.019-25.621-22.592-38.242S101.042,7.565,88.8,4.536C71.509.245,53.713,8.827,38.315,18.041,30.237,22.963,21.655,29.147,16.228,36.72Z" transform="translate(1.442 0.891)"/><path class="f" d="M19.223,37.992c-3.786,5.175-5.932,10.98-5.427,17.417.757,8.961,6.689,16.534,10.6,24.611a31.174,31.174,0,0,1,3.155,10.223c1.767,17.922-18.427,31.048-17.039,48.591.5,7.194,3.786,12.874,7.32,19.437s7.573,11.485,14.009,15.019c12.116,6.689,27.893,3.66,40.388,8.835l2.019,1.01c14.893,7.573,16.534,27.64,32.941,33.067,9.34,3.029,19.184-2.019,24.106-9.087s6.311-15.524,8.078-24.611,2.9-20.951,10.854-28.271l2.777-2.272c7.32-5.3,15.65-7.446,23.6-11.359,14.388-7.194,28.019-20.194,36.854-35.465,4.039-6.942,7.446-14.641,7.825-22.718s-3.408-17.165-10.854-21.33-16.155-3.281-24.106-.757c-13,4.165-26.883,10.854-40.766,7.32A30.166,30.166,0,0,1,138.745,65C125.493,57.807,123.6,40.894,115.9,28.9S100,10.225,88.387,7.322C71.727,3.283,54.814,11.361,40.174,20.2,32.475,24.739,24.4,30.8,19.223,37.992Z" transform="translate(2.738 1.639)"/><path class="f" d="M22.235,39.254A25.116,25.116,0,0,0,17.06,55.535c.5,8.456,5.806,15.65,9.34,23.349A31.679,31.679,0,0,1,29.3,88.6c1.767,16.786-16.155,29.534-13.757,45.562,1.136,7.447,4.67,12.369,7.825,19.563s6.058,11.99,12.369,16.029c11.107,7.068,26.5,4.8,38.621,9.466l2.019.883c14.641,6.689,17.165,23.6,33.194,28.9,8.961,2.9,18.3-1.136,23.223-6.942s6.942-13,9.087-21.33,3.534-19.815,10.349-27.135l2.4-2.272c6.311-5.3,13.252-7.825,20.32-12.116,12.621-7.7,25.369-20.572,34.2-35.087,4.291-7.194,8.456-15.019,8.961-23.475s-3.786-18.174-11.738-21.961-15.65-2.65-23.223,0c-12.495,4.291-25.621,11.233-38.873,8.078a28.523,28.523,0,0,1-6.563-2.4c-13-7.068-15.524-23.1-23.223-34.33C108.185,20.7,98.972,12.749,87.865,10.1,72.089,6.439,55.934,13.885,42.05,22.215,34.73,26.632,27.157,32.312,22.235,39.254Z" transform="translate(4.017 2.396)"/><path class="f" d="M25.265,40.475a24.485,24.485,0,0,0-4.922,15.272c.379,7.951,4.922,14.767,8.078,21.961a32.689,32.689,0,0,1,2.65,9.087c1.767,15.776-13.757,27.893-10.476,42.659,1.641,7.573,5.553,11.864,8.33,19.563s4.67,12.621,10.854,17.165c10.223,7.446,24.99,6.058,36.728,10.1l2.019.757c14.262,5.68,17.922,19.563,33.32,24.611a22.844,22.844,0,0,0,22.213-4.8c4.922-4.67,7.573-10.6,10.1-18.174s4.039-18.806,9.845-26.126l1.893-2.272c5.175-5.427,10.98-8.33,16.912-12.874A140.094,140.094,0,0,0,204.359,102.7c4.67-7.446,9.466-15.4,10.223-24.233s-4.039-19.058-12.495-22.718-15.019-2.019-22.213.757c-11.864,4.544-24.233,11.611-37.106,8.835a27.136,27.136,0,0,1-6.311-2.146c-12.369-6.058-15.524-21.2-23.223-31.805-6.311-8.582-15.145-15.9-25.621-18.174-15.145-3.66-30.543,3.029-43.669,10.98C37,28.485,29.935,33.912,25.265,40.475Z" transform="translate(5.278 3.194)"/><path class="f" d="M28.57,41.765A23.98,23.98,0,0,0,23.9,56.027c.126,7.32,4.039,13.757,6.815,20.7a34.456,34.456,0,0,1,2.4,8.456c1.767,14.641-11.233,26.378-7.194,39.63,2.272,7.7,6.437,11.233,8.835,19.563s3.281,13.126,9.34,18.174c9.213,7.573,23.475,7.194,34.961,10.6l1.893.631c13.883,4.8,18.553,15.524,33.446,20.446a24.738,24.738,0,0,0,21.33-2.65c4.922-3.408,8.2-8.078,11.107-14.893s4.67-17.67,9.34-24.99l1.515-2.272c4.165-5.553,8.582-8.835,13.631-13.757a218.985,218.985,0,0,0,28.9-34.33c5.048-7.7,10.476-15.776,11.485-24.99s-4.417-20.068-13.5-23.475c-6.942-2.524-14.388-1.388-21.33,1.515-11.233,4.8-22.844,11.99-35.339,9.592a25.747,25.747,0,0,1-6.184-2.019C123.481,56.406,119.695,42.144,112,32.3c-6.184-7.951-14.641-14.514-24.611-16.534C73,12.737,58.482,18.795,46.113,26.241,39.55,30.28,32.987,35.455,28.57,41.765Z" transform="translate(6.265 3.923)"/><path class="f" d="M31.944,43.013A23.728,23.728,0,0,0,27.4,56.265c-.126,6.815,3.155,12.874,5.427,19.437a37.736,37.736,0,0,1,2.146,7.951c1.767,13.5-8.456,24.864-4.039,36.728,3.029,7.951,7.32,10.728,9.213,19.563s1.767,13.631,7.825,19.184c8.33,7.825,21.961,8.33,33.194,11.233l1.893.5c13.5,3.913,19.31,11.611,33.572,16.155,7.825,2.524,15.4,1.767,20.446-.5s8.709-5.68,12.243-11.738,5.3-16.66,8.709-23.854l1.136-2.272c3.155-5.68,6.311-9.34,10.223-14.514,7.32-9.34,17.67-21.582,26.252-33.951,5.553-7.951,11.485-16.155,12.747-25.873s-4.544-21.077-14.262-24.106c-6.815-2.146-13.883-.757-20.32,2.272C163.2,57.4,152.35,64.721,140.234,62.828a24.359,24.359,0,0,1-5.932-1.767c-11.359-5.048-15.776-18.3-23.6-27.514-6.184-7.194-14.262-13-23.6-14.893C73.72,15.877,59.963,21.3,48.352,28.372,42.167,32.158,36.109,37.081,31.944,43.013Z" transform="translate(7.181 4.695)"/><path class="f" d="M35.295,44.353A23.6,23.6,0,0,0,31,56.469c-.252,6.311,2.272,11.99,4.165,18.048a43.921,43.921,0,0,1,1.893,7.32c1.767,12.495-5.68,23.223-.757,33.7,3.786,8.078,8.33,10.223,9.718,19.563s.379,14.136,6.311,20.32,20.446,9.466,31.3,11.864l1.767.379c13.252,3.029,20.068,7.573,33.7,11.99a39.126,39.126,0,0,0,19.437,1.641,20.572,20.572,0,0,0,13.252-8.456c4.544-6.184,5.806-15.65,8.2-22.844l.757-2.4a99.575,99.575,0,0,1,6.942-15.272c5.427-9.844,15.272-21.961,23.6-33.572,5.932-8.2,12.495-16.534,13.883-26.631s-4.8-22.213-15.019-24.864c-6.689-1.767-13.252-.126-19.437,3.029-10.1,5.175-20.068,12.621-31.679,10.98a23.1,23.1,0,0,1-5.68-1.515c-10.98-4.544-15.9-16.912-23.854-25.369C103.449,27.819,95.75,22.771,86.789,21.13c-12.747-2.4-25.747,2.4-36.6,9.087A49.222,49.222,0,0,0,35.295,44.353Z" transform="translate(8.122 5.374)"/><path class="f" d="M38.656,45.563a23.854,23.854,0,0,0-4.039,11.107c-.5,5.68,1.388,11.107,2.9,16.786a58.563,58.563,0,0,1,1.641,6.689c1.893,11.359-2.777,21.582,2.524,30.8s9.213,9.718,10.223,19.689c.757,7.825-.883,14.641,4.67,21.33s18.932,10.728,29.533,12.369l1.767.252a198.279,198.279,0,0,1,33.951,7.825,69.8,69.8,0,0,0,18.553,3.786c5.048.126,9.971-.757,14.262-5.175s6.437-14.514,7.7-21.708l.379-2.4c1.01-5.806,1.641-10.476,3.66-16.029,3.66-10.476,12.747-22.213,20.951-33.194,6.311-8.456,13.5-16.912,15.145-27.388s-5.048-23.349-15.9-25.495c-6.437-1.388-12.747.5-18.427,3.786-9.466,5.3-18.679,13-29.912,11.738a21.96,21.96,0,0,1-5.553-1.388c-10.476-4.039-16.029-15.4-23.98-23.223A41.271,41.271,0,0,0,87,24.107c-11.864-2.019-24.106,2.146-34.2,8.33A44.931,44.931,0,0,0,38.656,45.563Z" transform="translate(9.052 6.184)"/><path class="f" d="M42.124,46.879a24.485,24.485,0,0,0-3.786,10.1c-.631,5.175.5,10.223,1.641,15.4.5,2.019,1.01,4.039,1.388,6.184,1.893,10.349.252,19.815,5.806,27.767S57.4,115.412,57.9,126.014c.379,8.078-2.272,15.019,3.155,22.339s17.417,11.864,27.64,13h1.767c12.495,1.136,21.456-.379,34.077,3.534,6.689,2.146,12.621,4.67,17.67,5.932s10.6,1.767,15.272-2.019,6.942-13.5,7.194-20.572v-2.4c0-5.932-.757-10.98.252-16.786,1.893-10.98,10.223-22.466,18.427-32.815s14.514-17.291,16.408-28.145-5.3-24.485-16.66-26.252c-6.311-1.01-12.116,1.136-17.543,4.544-8.835,5.553-17.417,13.378-28.145,12.495a20.825,20.825,0,0,1-5.3-1.136c-9.971-3.534-16.155-14.009-24.233-21.077a40.893,40.893,0,0,0-20.7-9.971C75.949,25.045,64.59,28.453,55.25,34.258A40.766,40.766,0,0,0,42.124,46.879Z" transform="translate(10.001 6.887)"/><path class="f" d="M45.53,48.067A26.252,26.252,0,0,0,42,57.154a39.63,39.63,0,0,0,.379,14.136c.379,1.893.757,3.66,1.136,5.553,1.893,9.213,3.155,17.922,9.087,24.864S63.83,110.289,63.7,121.4c0,8.33-3.408,15.4,1.641,23.475s15.9,13,25.873,13.631h1.641c12.116.252,22.213-4.417,34.2-.631,6.311,2.019,11.611,5.553,16.66,8.078s11.233,4.165,16.281,1.262,7.446-12.495,6.689-19.563c-.126-.757-.252-1.641-.379-2.4-1.01-6.058-3.029-11.485-3.029-17.543,0-11.611,7.825-22.844,15.776-32.436s15.524-17.67,17.67-29.029-5.68-25.621-17.8-26.883c-6.184-.631-11.611,1.767-16.534,5.3-8.33,5.806-16.029,13.757-26.378,13.252a19.689,19.689,0,0,1-5.048-.883C121.383,54,114.693,44.407,106.616,38.1a40.766,40.766,0,0,0-19.689-8.33,45.562,45.562,0,0,0-29.66,6.689A36.349,36.349,0,0,0,45.53,48.067Z" transform="translate(10.887 7.719)"/><path class="f" d="M44.748,70.184A44.174,44.174,0,0,0,58,97.067c7.951,7.7,12.243,8.078,11.611,19.689-.379,8.582-4.67,15.776.126,24.485A28.272,28.272,0,0,0,93.718,155.5c12.369,0,23.98-8.709,35.97-4.922,6.058,1.893,10.728,6.563,15.776,10.223s11.738,6.689,17.417,4.417,7.951-11.359,6.058-18.427-6.058-13.5-7.194-20.7c-1.893-12.116,5.3-23.1,13.126-32.058S191.532,75.99,193.8,64.252s-5.68-27.009-18.427-27.64c-16.029-.883-24.233,20.32-40.135,20.068-11.485-.126-19.815-10.98-29.534-17.543C87.281,26.641,59.514,31.69,49.039,49.359a33.825,33.825,0,0,0-4.291,20.825Z" transform="translate(11.669 8.446)"/></g></g><g class="d" transform="matrix(-0.719, 0.695, -0.695, -0.719, 385.582, 279.785)"><g class="g" transform="translate(-35.79 -45.954)"><path class="f" d="M13.26,35.33C9.1,41.136,6.571,47.572,7.328,54.766,8.969,68.9,22.852,79.378,24.115,93.513,25.882,113.581,1.9,127.969.513,148.037-.5,162.3,10.862,174.92,23.988,180.347s32.815.757,46.193,8.835c15.65,9.466,15.019,35.592,32.689,41.524,10.1,3.408,21.077-3.913,26-13.378s5.175-20.446,6.058-31.048c1.136-13.757,1.767-25.242,15.4-32.689,9.34-5.048,20.194-6.437,30.291-9.844a75.853,75.853,0,0,0,42.028-36.223c6.942-13.378,8.456-32.436-3.913-41.019-7.447-5.175-17.291-4.67-26-2.4C176.2,68.4,157.9,76.349,141.239,66.883c-14.262-8.2-14.767-27.009-22.466-40.388S102.113,5.039,89.366,1.758C71.191-2.912,52.638,6.427,36.483,16.02,28.027,21.068,19.066,27.631,13.26,35.33Z" transform="translate(0.118 0.136)"/><path class="f" d="M16.228,36.72c-3.913,5.427-6.311,11.611-5.68,18.427.883,9.592,7.573,17.417,11.864,26A31.048,31.048,0,0,1,25.82,92C27.587,110.933,5.5,124.563,5.5,143.369c0,7.194,2.9,13.378,6.942,19.437a38.242,38.242,0,0,0,15.524,14.009c13,6.311,29.407,2.524,42.281,8.2l2.146,1.01c15.272,8.456,15.776,31.553,32.815,37.232,9.718,3.281,20.194-3.029,24.99-11.233s5.806-18.048,7.068-27.767,2.272-21.961,11.359-29.407l3.155-2.146c8.33-5.175,17.922-6.942,27.009-10.6,16.029-6.689,30.543-19.815,39.378-35.844C221.827,99.7,224.6,92,224.73,84.428s-3.029-16.281-10.1-20.572-16.786-3.913-25.116-1.515c-13.631,3.913-28.271,10.476-42.533,6.563a31.679,31.679,0,0,1-6.942-2.9c-13.757-7.7-15.019-25.621-22.592-38.242S101.042,7.565,88.8,4.536C71.509.245,53.713,8.827,38.315,18.041,30.237,22.963,21.655,29.147,16.228,36.72Z" transform="translate(1.442 0.891)"/><path class="f" d="M19.223,37.992c-3.786,5.175-5.932,10.98-5.427,17.417.757,8.961,6.689,16.534,10.6,24.611a31.174,31.174,0,0,1,3.155,10.223c1.767,17.922-18.427,31.048-17.039,48.591.5,7.194,3.786,12.874,7.32,19.437s7.573,11.485,14.009,15.019c12.116,6.689,27.893,3.66,40.388,8.835l2.019,1.01c14.893,7.573,16.534,27.64,32.941,33.067,9.34,3.029,19.184-2.019,24.106-9.087s6.311-15.524,8.078-24.611,2.9-20.951,10.854-28.271l2.777-2.272c7.32-5.3,15.65-7.446,23.6-11.359,14.388-7.194,28.019-20.194,36.854-35.465,4.039-6.942,7.446-14.641,7.825-22.718s-3.408-17.165-10.854-21.33-16.155-3.281-24.106-.757c-13,4.165-26.883,10.854-40.766,7.32A30.166,30.166,0,0,1,138.745,65C125.493,57.807,123.6,40.894,115.9,28.9S100,10.225,88.387,7.322C71.727,3.283,54.814,11.361,40.174,20.2,32.475,24.739,24.4,30.8,19.223,37.992Z" transform="translate(2.738 1.639)"/><path class="f" d="M22.235,39.254A25.116,25.116,0,0,0,17.06,55.535c.5,8.456,5.806,15.65,9.34,23.349A31.679,31.679,0,0,1,29.3,88.6c1.767,16.786-16.155,29.534-13.757,45.562,1.136,7.447,4.67,12.369,7.825,19.563s6.058,11.99,12.369,16.029c11.107,7.068,26.5,4.8,38.621,9.466l2.019.883c14.641,6.689,17.165,23.6,33.194,28.9,8.961,2.9,18.3-1.136,23.223-6.942s6.942-13,9.087-21.33,3.534-19.815,10.349-27.135l2.4-2.272c6.311-5.3,13.252-7.825,20.32-12.116,12.621-7.7,25.369-20.572,34.2-35.087,4.291-7.194,8.456-15.019,8.961-23.475s-3.786-18.174-11.738-21.961-15.65-2.65-23.223,0c-12.495,4.291-25.621,11.233-38.873,8.078a28.523,28.523,0,0,1-6.563-2.4c-13-7.068-15.524-23.1-23.223-34.33C108.185,20.7,98.972,12.749,87.865,10.1,72.089,6.439,55.934,13.885,42.05,22.215,34.73,26.632,27.157,32.312,22.235,39.254Z" transform="translate(4.017 2.396)"/><path class="f" d="M25.265,40.475a24.485,24.485,0,0,0-4.922,15.272c.379,7.951,4.922,14.767,8.078,21.961a32.689,32.689,0,0,1,2.65,9.087c1.767,15.776-13.757,27.893-10.476,42.659,1.641,7.573,5.553,11.864,8.33,19.563s4.67,12.621,10.854,17.165c10.223,7.446,24.99,6.058,36.728,10.1l2.019.757c14.262,5.68,17.922,19.563,33.32,24.611a22.844,22.844,0,0,0,22.213-4.8c4.922-4.67,7.573-10.6,10.1-18.174s4.039-18.806,9.845-26.126l1.893-2.272c5.175-5.427,10.98-8.33,16.912-12.874A140.094,140.094,0,0,0,204.359,102.7c4.67-7.446,9.466-15.4,10.223-24.233s-4.039-19.058-12.495-22.718-15.019-2.019-22.213.757c-11.864,4.544-24.233,11.611-37.106,8.835a27.136,27.136,0,0,1-6.311-2.146c-12.369-6.058-15.524-21.2-23.223-31.805-6.311-8.582-15.145-15.9-25.621-18.174-15.145-3.66-30.543,3.029-43.669,10.98C37,28.485,29.935,33.912,25.265,40.475Z" transform="translate(5.278 3.194)"/><path class="f" d="M28.57,41.765A23.98,23.98,0,0,0,23.9,56.027c.126,7.32,4.039,13.757,6.815,20.7a34.456,34.456,0,0,1,2.4,8.456c1.767,14.641-11.233,26.378-7.194,39.63,2.272,7.7,6.437,11.233,8.835,19.563s3.281,13.126,9.34,18.174c9.213,7.573,23.475,7.194,34.961,10.6l1.893.631c13.883,4.8,18.553,15.524,33.446,20.446a24.738,24.738,0,0,0,21.33-2.65c4.922-3.408,8.2-8.078,11.107-14.893s4.67-17.67,9.34-24.99l1.515-2.272c4.165-5.553,8.582-8.835,13.631-13.757a218.985,218.985,0,0,0,28.9-34.33c5.048-7.7,10.476-15.776,11.485-24.99s-4.417-20.068-13.5-23.475c-6.942-2.524-14.388-1.388-21.33,1.515-11.233,4.8-22.844,11.99-35.339,9.592a25.747,25.747,0,0,1-6.184-2.019C123.481,56.406,119.695,42.144,112,32.3c-6.184-7.951-14.641-14.514-24.611-16.534C73,12.737,58.482,18.795,46.113,26.241,39.55,30.28,32.987,35.455,28.57,41.765Z" transform="translate(6.265 3.923)"/><path class="f" d="M31.944,43.013A23.728,23.728,0,0,0,27.4,56.265c-.126,6.815,3.155,12.874,5.427,19.437a37.736,37.736,0,0,1,2.146,7.951c1.767,13.5-8.456,24.864-4.039,36.728,3.029,7.951,7.32,10.728,9.213,19.563s1.767,13.631,7.825,19.184c8.33,7.825,21.961,8.33,33.194,11.233l1.893.5c13.5,3.913,19.31,11.611,33.572,16.155,7.825,2.524,15.4,1.767,20.446-.5s8.709-5.68,12.243-11.738,5.3-16.66,8.709-23.854l1.136-2.272c3.155-5.68,6.311-9.34,10.223-14.514,7.32-9.34,17.67-21.582,26.252-33.951,5.553-7.951,11.485-16.155,12.747-25.873s-4.544-21.077-14.262-24.106c-6.815-2.146-13.883-.757-20.32,2.272C163.2,57.4,152.35,64.721,140.234,62.828a24.359,24.359,0,0,1-5.932-1.767c-11.359-5.048-15.776-18.3-23.6-27.514-6.184-7.194-14.262-13-23.6-14.893C73.72,15.877,59.963,21.3,48.352,28.372,42.167,32.158,36.109,37.081,31.944,43.013Z" transform="translate(7.181 4.695)"/><path class="f" d="M35.295,44.353A23.6,23.6,0,0,0,31,56.469c-.252,6.311,2.272,11.99,4.165,18.048a43.921,43.921,0,0,1,1.893,7.32c1.767,12.495-5.68,23.223-.757,33.7,3.786,8.078,8.33,10.223,9.718,19.563s.379,14.136,6.311,20.32,20.446,9.466,31.3,11.864l1.767.379c13.252,3.029,20.068,7.573,33.7,11.99a39.126,39.126,0,0,0,19.437,1.641,20.572,20.572,0,0,0,13.252-8.456c4.544-6.184,5.806-15.65,8.2-22.844l.757-2.4a99.575,99.575,0,0,1,6.942-15.272c5.427-9.844,15.272-21.961,23.6-33.572,5.932-8.2,12.495-16.534,13.883-26.631s-4.8-22.213-15.019-24.864c-6.689-1.767-13.252-.126-19.437,3.029-10.1,5.175-20.068,12.621-31.679,10.98a23.1,23.1,0,0,1-5.68-1.515c-10.98-4.544-15.9-16.912-23.854-25.369C103.449,27.819,95.75,22.771,86.789,21.13c-12.747-2.4-25.747,2.4-36.6,9.087A49.222,49.222,0,0,0,35.295,44.353Z" transform="translate(8.122 5.374)"/><path class="f" d="M38.656,45.563a23.854,23.854,0,0,0-4.039,11.107c-.5,5.68,1.388,11.107,2.9,16.786a58.563,58.563,0,0,1,1.641,6.689c1.893,11.359-2.777,21.582,2.524,30.8s9.213,9.718,10.223,19.689c.757,7.825-.883,14.641,4.67,21.33s18.932,10.728,29.533,12.369l1.767.252a198.279,198.279,0,0,1,33.951,7.825,69.8,69.8,0,0,0,18.553,3.786c5.048.126,9.971-.757,14.262-5.175s6.437-14.514,7.7-21.708l.379-2.4c1.01-5.806,1.641-10.476,3.66-16.029,3.66-10.476,12.747-22.213,20.951-33.194,6.311-8.456,13.5-16.912,15.145-27.388s-5.048-23.349-15.9-25.495c-6.437-1.388-12.747.5-18.427,3.786-9.466,5.3-18.679,13-29.912,11.738a21.96,21.96,0,0,1-5.553-1.388c-10.476-4.039-16.029-15.4-23.98-23.223A41.271,41.271,0,0,0,87,24.107c-11.864-2.019-24.106,2.146-34.2,8.33A44.931,44.931,0,0,0,38.656,45.563Z" transform="translate(9.052 6.184)"/><path class="f" d="M42.124,46.879a24.485,24.485,0,0,0-3.786,10.1c-.631,5.175.5,10.223,1.641,15.4.5,2.019,1.01,4.039,1.388,6.184,1.893,10.349.252,19.815,5.806,27.767S57.4,115.412,57.9,126.014c.379,8.078-2.272,15.019,3.155,22.339s17.417,11.864,27.64,13h1.767c12.495,1.136,21.456-.379,34.077,3.534,6.689,2.146,12.621,4.67,17.67,5.932s10.6,1.767,15.272-2.019,6.942-13.5,7.194-20.572v-2.4c0-5.932-.757-10.98.252-16.786,1.893-10.98,10.223-22.466,18.427-32.815s14.514-17.291,16.408-28.145-5.3-24.485-16.66-26.252c-6.311-1.01-12.116,1.136-17.543,4.544-8.835,5.553-17.417,13.378-28.145,12.495a20.825,20.825,0,0,1-5.3-1.136c-9.971-3.534-16.155-14.009-24.233-21.077a40.893,40.893,0,0,0-20.7-9.971C75.949,25.045,64.59,28.453,55.25,34.258A40.766,40.766,0,0,0,42.124,46.879Z" transform="translate(10.001 6.887)"/><path class="f" d="M45.53,48.067A26.252,26.252,0,0,0,42,57.154a39.63,39.63,0,0,0,.379,14.136c.379,1.893.757,3.66,1.136,5.553,1.893,9.213,3.155,17.922,9.087,24.864S63.83,110.289,63.7,121.4c0,8.33-3.408,15.4,1.641,23.475s15.9,13,25.873,13.631h1.641c12.116.252,22.213-4.417,34.2-.631,6.311,2.019,11.611,5.553,16.66,8.078s11.233,4.165,16.281,1.262,7.446-12.495,6.689-19.563c-.126-.757-.252-1.641-.379-2.4-1.01-6.058-3.029-11.485-3.029-17.543,0-11.611,7.825-22.844,15.776-32.436s15.524-17.67,17.67-29.029-5.68-25.621-17.8-26.883c-6.184-.631-11.611,1.767-16.534,5.3-8.33,5.806-16.029,13.757-26.378,13.252a19.689,19.689,0,0,1-5.048-.883C121.383,54,114.693,44.407,106.616,38.1a40.766,40.766,0,0,0-19.689-8.33,45.562,45.562,0,0,0-29.66,6.689A36.349,36.349,0,0,0,45.53,48.067Z" transform="translate(10.887 7.719)"/><path class="f" d="M44.748,70.184A44.174,44.174,0,0,0,58,97.067c7.951,7.7,12.243,8.078,11.611,19.689-.379,8.582-4.67,15.776.126,24.485A28.272,28.272,0,0,0,93.718,155.5c12.369,0,23.98-8.709,35.97-4.922,6.058,1.893,10.728,6.563,15.776,10.223s11.738,6.689,17.417,4.417,7.951-11.359,6.058-18.427-6.058-13.5-7.194-20.7c-1.893-12.116,5.3-23.1,13.126-32.058S191.532,75.99,193.8,64.252s-5.68-27.009-18.427-27.64c-16.029-.883-24.233,20.32-40.135,20.068-11.485-.126-19.815-10.98-29.534-17.543C87.281,26.641,59.514,31.69,49.039,49.359a33.825,33.825,0,0,0-4.291,20.825Z" transform="translate(11.669 8.446)"/></g></g></g></g></svg>