<svg xmlns="http://www.w3.org/2000/svg" xmlns:xlink="http://www.w3.org/1999/xlink" width="1531.37" height="1544.738" viewBox="0 0 1531.37 1544.738"><defs><style>.a,.d,.e,.f{fill:none;stroke:#fff;stroke-width:2px;}.b{opacity:0.097;}.c{clip-path:url(#a);}.d,.e,.f{stroke-linecap:round;stroke-linejoin:round;}.d{stroke-dasharray:0 2;}.e{stroke-dasharray:0 2.01;}.f{stroke-dasharray:0 2.02;}</style><clipPath id="a"><rect class="a" width="1246.363" height="1265.269"/></clipPath></defs><g class="b" transform="matrix(0.966, 0.259, -0.259, 0.966, 350.153, 53.651)"><g class="c" transform="translate(-35.79 -45.954)"><path class="d" d="M70.225,190.138c-22.686,31.623-36.435,66.684-32.311,105.869,8.937,77,84.557,134.055,91.432,211.05C138.97,616.363,8.353,694.733.791,804.039c-5.5,77.683,56.372,146.429,127.867,175.99s178.739,4.125,251.61,48.122c85.245,51.559,81.808,193.863,178.052,226.174,55,18.561,114.806-21.311,141.617-72.871s28.186-111.368,33-169.115c6.187-74.933,9.624-137.492,83.87-178.052,50.872-27.5,109.993-35.06,164.99-53.622a413.163,413.163,0,0,0,228.924-197.3c37.81-72.871,46.06-176.677-21.311-223.424-40.56-28.186-94.182-25.436-141.617-13.062C957.734,370.253,858.053,413.562,767.308,362c-77.683-44.685-80.433-147.116-122.368-219.987S554.2,25.148,484.762,7.274C385.768-18.162,284.712,32.71,196.717,84.957,150.657,112.455,101.848,148.2,70.225,190.138Z" transform="translate(2.646 3.038)"/><path class="d" d="M63.934,184.9C42.623,214.458,29.561,248.143,33,285.266c4.812,52.247,41.248,94.869,64.621,141.617A169.114,169.114,0,0,1,116.181,486C125.805,589.123,5.5,663.368,5.5,765.8c0,39.185,15.812,72.871,37.81,105.869a208.3,208.3,0,0,0,84.558,76.308c70.808,34.373,160.178,13.749,230.3,44.685l11.687,5.5c83.183,46.06,85.932,171.865,178.739,202.8,52.934,17.874,109.994-16.5,136.117-61.184s31.623-98.307,38.5-151.241,12.374-119.618,61.871-160.178l17.186-11.687c45.372-28.186,97.619-37.81,147.116-57.747,87.307-36.435,166.365-107.931,214.487-195.238,19.936-35.748,35.06-77.683,35.748-118.93s-16.5-88.682-55-112.056-91.432-21.311-136.8-8.25C933.57,345.762,853.825,381.51,776.142,360.2a172.551,172.551,0,0,1-37.81-15.812c-74.933-41.935-81.808-139.554-123.055-208.3S525.907,26.094,459.223,9.595C365.041-13.779,268.109,32.968,184.239,83.153,140.242,109.964,93.495,143.649,63.934,184.9Z" transform="translate(32.31 19.966)"/><path class="d" d="M58.254,179.131C37.63,207.317,25.943,238.94,28.693,274c4.125,48.81,36.435,90.057,57.747,134.054a169.8,169.8,0,0,1,17.186,55.684C113.25,561.359,3.257,632.854,10.819,728.411c2.75,39.185,20.624,70.121,39.873,105.869S91.939,896.839,127,916.088c66,36.435,151.928,19.936,219.987,48.122l11,5.5c81.12,41.248,90.057,150.553,179.427,180.114,50.872,16.5,104.494-11,131.3-49.5s34.373-84.557,44-134.055,15.812-114.118,59.121-153.991l15.124-12.374c39.873-28.873,85.245-40.56,128.555-61.871,78.37-39.185,152.616-109.994,200.738-193.176,22-37.81,40.56-79.745,42.623-123.743s-18.561-93.494-59.121-116.181-87.995-17.874-131.3-4.125C897.641,323.5,822.02,359.933,746.4,340.684a164.3,164.3,0,0,1-37.123-14.437c-72.183-39.185-82.5-131.3-124.43-196.613S498.227,27.89,434.981,12.079c-90.745-22-182.864,22-262.609,70.121C130.437,106.948,86.439,139.946,58.254,179.131Z" transform="translate(61.364 36.731)"/><path class="d" d="M52.965,173.155a136.8,136.8,0,0,0-28.186,88.682c2.75,46.06,31.623,85.245,50.872,127.18a172.552,172.552,0,0,1,15.812,52.934c9.624,91.432-87.995,160.865-74.933,248.173,6.187,40.56,25.436,67.371,42.622,106.556s33,65.309,67.371,87.307c60.5,38.5,144.366,26.123,210.363,51.559l11,4.812c79.745,36.435,93.494,128.555,180.8,157.428,48.81,15.812,99.682-6.187,126.492-37.81s37.81-70.808,49.5-116.18,19.249-107.931,56.372-147.8l13.062-12.374c34.373-28.873,72.183-42.622,110.681-66,68.746-41.935,138.179-112.056,186.3-191.114,23.374-39.185,46.06-81.808,48.81-127.867s-20.624-98.994-63.934-119.618-85.245-14.437-126.492,0c-68.058,23.374-139.554,61.184-211.737,44a155.362,155.362,0,0,1-35.748-13.062c-70.808-38.5-84.558-125.8-126.493-186.989C521.125,72.1,470.94,28.789,410.444,14.352c-85.932-19.936-173.927,20.624-249.548,66C121.024,104.409,79.776,135.345,52.965,173.155Z" transform="translate(90.026 53.706)"/><path class="e" d="M48.063,166.276a133.367,133.367,0,0,0-26.811,83.183c2.062,43.31,26.811,80.433,44,119.618a178.053,178.053,0,0,1,14.437,49.5C89.311,504.506,4.754,570.5,22.627,650.935,31.564,692.182,52.876,715.556,68,757.491s25.436,68.746,59.121,93.495c55.684,40.56,136.117,33,200.051,55l11,4.125c77.683,30.936,97.619,106.556,181.489,134.055a124.43,124.43,0,0,0,120.993-26.124c26.811-25.436,41.247-57.746,55-98.994s22-102.431,53.622-142.3l10.312-12.374c28.186-29.561,59.809-45.372,92.12-70.121a763.08,763.08,0,0,0,171.865-189.051c25.436-40.56,51.559-83.87,55.684-131.992s-22-103.806-68.058-123.743-81.808-11-120.993,4.125c-64.621,24.749-131.992,63.246-202.113,48.122a147.805,147.805,0,0,1-34.373-11.687c-67.371-33-84.557-115.493-126.492-173.24-34.373-46.747-82.5-86.62-139.554-98.994-82.5-19.936-166.365,16.5-237.861,59.809C112,100.968,73.5,130.528,48.063,166.276Z" transform="translate(118.302 71.585)"/><path class="e" d="M49.336,160.928A130.617,130.617,0,0,0,23.9,238.611c.687,39.873,22,74.933,37.123,112.743a187.676,187.676,0,0,1,13.062,46.06C83.709,477.159,12.9,541.093,34.9,613.276c12.374,41.935,35.06,61.184,48.122,106.556s17.874,71.5,50.872,98.994c50.185,41.247,127.867,39.185,190.426,57.746l10.312,3.437c75.62,26.123,101.056,84.557,182.177,111.368a134.742,134.742,0,0,0,116.181-14.437c26.811-18.562,44.685-44,60.5-81.12s25.436-96.244,50.872-136.117l8.249-12.374c22.686-30.248,46.747-48.122,74.246-74.933A1192.76,1192.76,0,0,0,984.281,485.408c27.5-41.935,57.059-85.932,62.559-136.117s-24.061-109.306-73.558-127.867c-37.81-13.749-78.37-7.562-116.181,8.25-61.184,26.123-124.43,65.309-192.489,52.247a140.24,140.24,0,0,1-33.685-11c-64.621-30.248-85.245-107.931-127.18-161.553C470.061,66.058,424,30.311,369.692,19.311c-78.37-16.5-157.428,16.5-224.8,57.059C109.145,98.369,73.4,126.555,49.336,160.928Z" transform="translate(140.403 87.932)"/><path class="e" d="M52.165,154.626a129.242,129.242,0,0,0-24.749,72.183C26.729,263.932,44.6,296.93,56.977,332.678a205.546,205.546,0,0,1,11.687,43.31c9.624,73.558-46.06,135.429-22,200.051,16.5,43.31,39.873,58.434,50.185,106.556s9.624,74.246,42.622,104.494c45.372,42.622,119.618,45.372,180.8,61.184l10.312,2.75c73.558,21.311,105.181,63.246,182.864,87.995,42.622,13.749,83.87,9.625,111.368-2.75s47.435-30.936,66.684-63.934,28.873-90.745,47.435-129.93l6.187-12.374c17.186-30.936,34.373-50.872,55.684-79.058C840.681,600.1,897.052,533.416,943.8,466.045c30.248-43.31,62.559-87.995,69.433-140.929s-24.749-114.806-77.683-131.3c-37.123-11.687-75.621-4.125-110.681,12.374C767.123,233,708,272.869,642,262.557a132.679,132.679,0,0,1-32.311-9.624c-61.871-27.5-85.932-99.682-128.555-149.866-33.686-39.185-77.683-70.808-128.555-81.12-72.871-15.124-147.8,14.437-211.05,52.934C107.849,95.5,74.851,122.315,52.165,154.626Z" transform="translate(160.947 105.234)"/><path class="e" d="M54.455,150.409a128.555,128.555,0,0,0-23.374,66c-1.375,34.373,12.374,65.309,22.686,98.307A239.237,239.237,0,0,1,64.08,354.584c9.624,68.058-30.936,126.493-4.125,183.552,20.624,44,45.372,55.684,52.934,106.556s2.062,77,34.373,110.681,111.368,51.559,170.49,64.621l9.624,2.062c72.183,16.5,109.306,41.248,183.552,65.309A213.114,213.114,0,0,0,616.8,896.3a112.055,112.055,0,0,0,72.183-46.06C713.729,816.557,720.6,765,733.665,725.812l4.125-13.062a542.381,542.381,0,0,1,37.81-83.183C805.161,575.946,858.783,509.95,904.155,446.7c32.311-44.685,68.059-90.057,75.621-145.054s-26.124-120.993-81.808-135.429c-36.435-9.624-72.183-.687-105.869,16.5-55,28.186-109.306,68.746-172.552,59.809a125.809,125.809,0,0,1-30.936-8.25C528.8,209.531,501.991,142.16,458.681,96.1c-33-35.748-74.933-63.246-123.743-72.183C265.505,10.855,194.7,36.978,135.576,73.414a268.11,268.11,0,0,0-81.12,77Z" transform="translate(182.031 120.45)"/><path class="e" d="M56.986,143.262a129.929,129.929,0,0,0-22,60.5c-2.75,30.936,7.562,60.5,15.812,91.432a318.987,318.987,0,0,1,8.937,36.435C70.048,393.5,44.612,449.181,73.485,499.366S123.67,552.3,129.17,606.61c4.125,42.622-4.812,79.745,25.436,116.181s103.119,58.434,160.865,67.371l9.624,1.375a1080,1080,0,0,1,184.927,42.623,380.164,380.164,0,0,0,101.056,20.624c27.5.687,54.309-4.125,77.683-28.186s35.06-79.058,41.935-118.243l2.062-13.062c5.5-31.623,8.937-57.059,19.936-87.307,19.936-57.059,69.433-120.993,114.118-180.8,34.373-46.06,73.558-92.12,82.5-149.179s-27.5-127.18-86.62-138.867c-35.06-7.562-69.433,2.75-100.369,20.624-51.559,28.873-101.744,70.808-162.928,63.934a119.618,119.618,0,0,1-30.248-7.562c-57.059-22-87.307-83.87-130.617-126.492A224.8,224.8,0,0,0,320.283,26.394c-64.621-11-131.3,11.687-186.3,45.372a244.735,244.735,0,0,0-77,71.5Z" transform="translate(202.873 138.596)"/><path class="e" d="M59.765,138.512a133.367,133.367,0,0,0-20.624,55c-3.437,28.186,2.75,55.684,8.937,83.87,2.75,11,5.5,22,7.562,33.686C65.952,367.436,57.015,418.995,87.263,462.3s55.684,49.5,58.434,107.244c2.062,44-12.374,81.808,17.187,121.68s94.869,64.621,150.553,70.808h9.625c68.058,6.187,116.868-2.062,185.614,19.249,36.435,11.687,68.746,25.436,96.244,32.311s57.747,9.624,83.183-11,37.81-73.558,39.185-112.056V677.48c0-32.311-4.125-59.809,1.375-91.432,10.312-59.809,55.684-122.368,100.369-178.739S908.09,313.126,918.4,254s-28.873-133.367-90.745-142.991c-34.373-5.5-66,6.187-95.557,24.749-48.122,30.248-94.869,72.871-153.3,68.058a113.428,113.428,0,0,1-28.873-6.187c-54.309-19.249-87.995-76.308-131.992-114.806A222.737,222.737,0,0,0,305.188,28.518C244,19.581,182.133,38.143,131.261,69.766a222.049,222.049,0,0,0-71.5,68.746Z" transform="translate(224.156 154.346)"/><path class="e" d="M63.292,130.866a142.992,142.992,0,0,0-19.249,49.5,215.861,215.861,0,0,0,2.062,77c2.062,10.312,4.125,19.936,6.187,30.248,10.312,50.185,17.186,97.619,49.5,135.429s61.184,46.747,60.5,107.244c0,45.372-18.561,83.87,8.937,127.867s86.62,70.808,140.929,74.246h8.937c66,1.375,120.993-24.061,186.3-3.437,34.373,11,63.246,30.248,90.745,44s61.184,22.686,88.682,6.875,40.56-68.058,36.435-106.556c-.688-4.125-1.375-8.937-2.062-13.062-5.5-33-16.5-62.559-16.5-95.557,0-63.246,42.622-124.43,85.932-176.677s84.558-96.244,96.244-158.116S855.933,90.306,789.936,83.431c-33.685-3.437-63.246,9.624-90.057,28.873-45.372,31.623-87.307,74.933-143.679,72.183a107.243,107.243,0,0,1-27.5-4.812c-52.247-16.5-88.682-68.746-132.68-103.119A222.049,222.049,0,0,0,288.779,31.184,248.173,248.173,0,0,0,127.226,67.619a197.988,197.988,0,0,0-63.934,63.246Z" transform="translate(244.002 172.991)"/><path class="f" d="M45.768,239a240.611,240.611,0,0,0,72.183,146.429c43.31,41.935,66.683,44,63.246,107.244-2.062,46.747-25.436,85.932.687,133.367A153.992,153.992,0,0,0,312.5,703.725c67.371,0,130.617-47.435,195.926-26.811,33,10.312,58.434,35.748,85.932,55.684s63.934,36.435,94.869,24.061,43.31-61.871,33-100.369-33-73.558-39.185-112.743c-10.312-66,28.873-125.805,71.5-174.615s90.744-98.307,103.119-162.24S826.721,59.576,757.288,56.139C669.98,51.326,625.3,166.819,538.676,165.445c-62.559-.687-107.931-59.809-160.865-95.557C277.441,1.829,126.2,29.328,69.141,125.572A184.239,184.239,0,0,0,45.768,239Z" transform="translate(261.527 189.284)"/></g></g></svg>