<svg xmlns="http://www.w3.org/2000/svg" xmlns:xlink="http://www.w3.org/1999/xlink" width="866.717" height="1546.312" viewBox="0 0 866.717 1546.312"><defs><style>.a,.d{fill:none;stroke:#fff;}.b{opacity:0.174;}.c{clip-path:url(#a);}.d{stroke-linecap:round;stroke-linejoin:round;}</style><clipPath id="a"><rect class="a" width="1471.038" height="479.832"/></clipPath></defs><g class="b" transform="translate(304.315 963.999) rotate(-74)"><g class="c" transform="translate(-516.5 -168.475)"><path class="d" d="M112.4,55.628c27.057,33.323,57.816,64.082,95.126,82.31C258.08,162.574,325.295,160.3,365.88,114.156,412.731,60.9,439.5,8.065,514.55,1.087c52.974-4.842,115.775,18.37,144.825,67.642C676.606,97.922,686.148,131.957,700.53,163c34.319,74.62,92.563,92.42,160.775,52.547,32.611-19.082,69.493-41.012,103.813-28.338,45,16.661,62.088,85.727,108.939,95.553,25.633,5.411,51.123-9.256,75.617-19.937,58.386-25.348,82.737,29.9,135.711,22.927,13.244-1.709,25.348-9.684,38.307-13.386s39.731,0,35.174,20.933" transform="translate(47.663 0.195)"/><path class="d" d="M114.1,69.879c26.914,33.18,58.386,62.231,95.838,78.465,26.914,11.677,58.1,15.949,87.294,10.538,25.775-4.842,50.269-17.089,69.351-38.164,35.031-38.876,59.525-77.753,100.4-98.4A141.266,141.266,0,0,1,513.972,8.36c52.4-6.551,114.208,13.528,144.968,60.379C677.31,96.793,687.99,130.258,702.8,161.3a184.278,184.278,0,0,0,25.633,40.728c33.75,39.588,78.465,44.43,133.006,19.652,17.231-7.832,35.459-18.655,53.686-26.63,23.639-10.4,48.7-14.24,72.2-5.7,42.579,15.807,59.668,79.462,103.955,89.288,24.209,5.411,48.275-7.547,71.487-16.946,54.968-22.357,78.607,28.2,128.591,21.218,12.532-1.709,23.924-9.256,36.171-12.959s37.025-.712,33.323,17.8" transform="translate(48.383 3.033)"/><path class="d" d="M115.8,84.084c26.63,33.038,58.813,60.237,96.408,74.762a153.369,153.369,0,0,0,86.44,7.263A129.3,129.3,0,0,0,367,127.659C401.748,90.065,426.954,51.9,467.254,30.682a146.819,146.819,0,0,1,46.281-15.095C565.371,7.47,626.32,24.274,658.5,68.7c19.509,26.914,31.329,59.81,46.709,90.854a207.339,207.339,0,0,0,25.49,40.728c33.18,40.016,76.186,46.709,130.727,27.342,20.649-7.405,42.009-20.221,63.37-29.9,27.484-12.389,57.247-16.377,84.731-6.266,40.016,14.668,57.247,73.2,98.971,83.022,22.785,5.269,45.427-5.7,67.215-13.813,51.408-19.225,74.62,26.487,121.329,19.509,11.82-1.709,22.5-8.687,34.035-12.389s34.462-1.424,31.471,14.668" transform="translate(49.104 5.774)"/><path class="d" d="M117.5,98.521c26.487,32.9,59.383,58.243,97.12,70.917a155.79,155.79,0,0,0,85.443,3.845,137.99,137.99,0,0,0,67.5-38.876C402.166,97.952,428.084,60.5,467.673,39A153.513,153.513,0,0,1,512.957,22.9c51.408-9.826,111.218,3.845,145.11,46,20.649,25.775,33.75,57.959,49.414,89a234.813,234.813,0,0,0,25.49,40.87c32.326,40.585,74.477,49.984,128.591,34.889,24.209-6.693,48.56-21.93,73.053-33.323,31.329-14.525,65.648-18.37,97.262-6.978,37.452,13.671,54.826,66.93,93.987,76.756,21.218,5.269,42.579-3.845,62.943-10.68,47.848-16.092,70.49,24.636,114.208,17.8,10.965-1.709,21.076-8.259,31.9-11.82s31.756-2.136,29.62,11.535" transform="translate(49.825 8.424)"/><path class="d" d="M119.2,113.023c26.345,32.611,59.81,56.392,97.689,67.215a158.211,158.211,0,0,0,84.588.57,148.528,148.528,0,0,0,66.645-39.446c34.462-35.316,60.949-71.914,99.968-93.987a161.487,161.487,0,0,1,44.43-16.946c50.838-11.677,109.794-1,145.11,38.734,21.788,24.494,36.028,56.25,52.262,87.294a276.411,276.411,0,0,0,25.49,41.013C767,238.624,808.438,251.44,861.7,240.048c27.911-5.981,55.253-23.5,82.737-36.6,35.031-16.519,74.193-20.364,109.794-7.547s52.4,60.664,89,70.49c19.794,5.269,39.731-1.994,58.813-7.69,44.288-12.959,66.5,22.927,106.946,16.092,10.253-1.709,19.794-7.832,29.763-11.392s29.051-2.848,27.911,8.4" transform="translate(50.546 11.011)"/><path class="d" d="M120.9,127.506c26.2,32.468,60.379,54.4,98.4,63.37a159.351,159.351,0,0,0,149.382-42.437c34.177-34.177,61.376-69.921,99.683-92.42a171.026,171.026,0,0,1,43.576-18.085C562.354,24.547,620.312,32.095,657.2,69.4c23.07,23.354,38.449,54.541,54.968,85.585a330.686,330.686,0,0,0,25.49,41.155c31.044,41.582,71.629,58.386,124.177,50.269,31.614-4.842,61.8-25.206,92.421-39.873,38.876-18.655,82.737-22.5,122.326-8.259,32.468,11.677,49.984,54.4,83.876,64.367,18.37,5.269,36.74-.285,54.541-4.557,40.728-9.826,62.373,21.218,99.825,14.383,9.541-1.709,18.37-7.263,27.626-10.823s26.345-3.56,26.06,5.269" transform="translate(51.267 13.475)"/><path class="d" d="M122.6,142.254a163.765,163.765,0,0,0,181.85,53.4,177.009,177.009,0,0,0,64.794-40.016c34.035-33.038,61.946-67.927,99.541-91a182.562,182.562,0,0,1,42.721-19.082c49.841-15.237,106.946-10.68,145.252,24.351,24.209,22.215,40.728,52.832,57.816,83.734a409.692,409.692,0,0,0,25.491,41.3c30.332,42.152,70.348,52.262,121.9,57.958,35.316,3.845,68.354-26.772,102.1-43.149,42.579-20.649,91.139-24.494,134.857-8.829,29.905,10.68,47.563,48.133,78.892,58.1,16.946,5.269,33.892,1.566,50.411-1.424,37.025-6.835,58.386,19.509,92.563,12.674,8.687-1.709,16.946-6.835,25.49-10.253s23.639-4.272,24.209,2.136" transform="translate(51.988 15.815)"/><path class="d" d="M124.4,157.087c25.918,32.183,61.376,50.7,99.683,55.823a168.749,168.749,0,0,0,81.74-9.541,196.946,196.946,0,0,0,63.94-40.443c33.892-31.9,62.373-65.933,99.4-89.43a196.66,196.66,0,0,1,41.724-20.079C560.158,36.328,616.407,37.752,656.281,70.5c25.49,20.933,43.006,51.123,60.522,82.025,8.259,14.668,16.661,28.623,25.49,41.44,29.62,42.579,69.351,58.955,119.762,65.648,38.876,5.127,74.9-28.481,111.788-46.566,46.424-22.785,99.683-26.487,147.246-9.4,27.342,9.826,45.142,41.867,73.908,51.835,15.522,5.269,31.044,3.418,46.139,1.566,33.465-3.845,54.256,17.8,85.443,10.965,7.975-1.851,15.522-6.266,23.354-9.684s20.933-5.127,22.358-1" transform="translate(52.751 18.071)"/><path class="d" d="M126.1,171.922c25.775,32.041,61.8,48.845,100.4,52.12a173.306,173.306,0,0,0,80.886-12.959,223,223,0,0,0,62.943-40.728c33.75-30.759,62.943-63.94,99.256-88.006a214.462,214.462,0,0,1,40.87-21.076c48.7-18.94,104.24-20.506,145.395,9.968,26.63,19.652,45.285,49.414,63.37,80.174,8.4,14.525,16.8,28.481,25.49,41.44,29.051,43.006,68.069,66.218,117.484,73.338,42.437,5.981,81.455-30.047,121.329-49.842,50.269-24.778,108.085-28.481,159.778-10.111,24.778,8.829,42.721,35.6,68.924,45.569,14.1,5.269,28.2,5.127,42.009,4.7,29.763-.854,50.269,15.949,78.18,9.256,7.263-1.851,14.1-5.839,21.218-9.256s18.228-5.839,20.649-4.13" transform="translate(53.472 20.181)"/><path class="d" d="M127.8,187.011c25.49,31.9,62.373,46.993,100.965,48.275A177.863,177.863,0,0,0,308.8,219.052,258.464,258.464,0,0,0,370.884,177.9c33.465-29.62,63.37-62.088,99.114-86.439a236.537,236.537,0,0,1,40.016-22.073c48.133-20.933,102.816-25.49,145.537,2.706,27.911,18.513,47.563,47.705,66.076,78.465,8.544,14.24,16.8,28.338,25.49,41.582,28.339,43.433,66.36,73.908,115.348,80.886,46.139,6.693,88.006-31.756,131.012-53.117a221.866,221.866,0,0,1,172.309-10.68c22.357,7.832,40.3,29.478,63.94,39.3,12.531,5.269,25.206,6.835,37.737,7.832,26.2,1.994,46.281,14.24,71.06,7.547,6.408-1.851,12.674-5.269,19.082-8.687a89.285,89.285,0,0,1,18.8-7.12" transform="translate(54.193 22.181)"/><path class="d" d="M129.5,202.248c25.348,31.756,62.8,45,101.677,44.573a183.844,183.844,0,0,0,79.035-19.652c21.93-10.965,42.152-25.348,61.234-41.582,33.323-28.481,63.8-60.095,98.971-85.015A265.161,265.161,0,0,1,509.578,77.5c47.563-22.785,101.534-30.475,145.537-4.557,29.051,17.231,49.842,46,68.924,76.756,8.687,13.956,16.946,28.2,25.49,41.724,27.627,44,64.224,84.3,113.212,88.576s94.557-33.323,140.7-56.535c57.816-28.908,125.031-32.326,184.841-11.392,19.794,6.978,37.737,23.212,58.956,33.038a153.087,153.087,0,0,0,33.607,10.823c22.5,4.7,42.152,12.532,63.8,5.839a80.036,80.036,0,0,0,16.946-8.117c5.839-3.56,12.817-7.263,16.946-10.253" transform="translate(54.914 24.033)"/><path class="d" d="M131.2,217.49c42.579,53.259,121.9,49.7,180.426,17.8s104.81-85.443,159.066-125.458,125.458-66.36,183.844-35.886c44,23.07,70.063,72.341,97.12,116.772s62.373,89.857,110.933,96.265c53.544,7.12,101.107-34.889,150.379-59.81,61.661-31.044,133.575-34.319,197.373-11.962,53.117,18.513,115.49,83.591,169.888,23.782" transform="translate(55.635 25.737)"/><path class="d" d="M132.4,222.59c47.705,56.107,133.291,52.12,196.091,15.949C384.456,206.213,429.456,154.663,482.43,116.5S607.461,55.692,664.423,87.875c43.291,24.778,70.205,72.769,99.541,111.645s63.655,76.614,110.791,79.462c51.693,3.133,98.259-38.164,147.1-61.519,60.095-28.766,129.3-29.9,190.964-7.69,51.693,18.655,119.05,85.87,169.888,22.927" transform="translate(56.143 30.748)"/><path class="d" d="M133.6,227.988c52.832,59.1,144.825,54.541,211.613,14.1,53.544-32.468,96.977-82.452,148.67-118.765,54.968-38.449,125.031-55.4,180.426-21.361,42.579,26.2,70.063,72.911,102.1,106.519s64.936,63.512,110.648,62.658c49.7-1,95.411-41.3,143.829-63.085,58.528-26.487,125.173-25.348,184.7-3.275,50.126,18.8,122.468,88.148,169.889,21.93" transform="translate(56.652 35.46)"/><path class="d" d="M134.7,233.4c57.959,61.946,156.36,57.247,227.277,12.1C413.1,213.04,455.11,164.48,505.521,130.161c55.253-37.737,124.889-49.842,178.718-14.1,41.867,27.911,69.778,73.053,104.525,101.392s66.218,50.411,110.506,45.854c47.706-4.842,92.563-44.43,140.553-64.794,57.1-24.209,121.044-20.933,178.433,1.139,48.7,18.8,125.885,90.569,169.888,21.076" transform="translate(57.119 40.155)"/><path class="d" d="M135.9,238.771c63.085,64.794,167.895,59.952,242.8,10.253,48.845-32.468,89.288-79.462,138.417-111.93,55.68-36.883,124.6-44.288,176.866-6.835,41.155,29.478,69.209,73.338,107.088,96.265,34.319,20.791,67.5,37.31,110.363,29.05,45.854-8.829,89.715-47.705,137.278-66.5,55.538-21.93,116.772-16.519,172.025,5.411,47.278,18.94,129.3,92.848,169.889,20.079" transform="translate(57.628 44.756)"/><path class="d" d="M137.1,244.371c68.212,67.642,179.572,62.943,258.464,8.4,46.566-32.183,85.443-77.9,133.148-108.655,55.965-36.028,124.461-38.592,175.157.427,40.443,31.187,68.5,73.623,109.509,91.139,35.6,15.095,68.781,24.209,110.221,12.1,43.86-12.674,86.867-50.838,134.145-68.069,53.971-19.652,112.642-11.962,165.759,9.826,45.854,19.082,132.721,95.126,169.888,19.225" transform="translate(58.137 49.267)"/><path class="d" d="M138.3,250.052c73.338,70.633,191.249,65.933,273.986,6.551,44.43-31.9,81.6-76.329,128.022-105.237,56.392-35.174,124.177-33.038,173.449,7.69,39.731,32.9,67.5,74.335,112.072,85.87,36.74,9.541,70.063,11.25,110.079-4.7s83.876-54.114,130.87-69.778c52.4-17.516,108.512-7.69,159.351,14.1,44.43,19.082,136.139,97.4,169.888,18.228" transform="translate(58.645 53.696)"/><path class="d" d="M139.5,255.706c78.465,73.481,203.211,69.209,289.508,4.7C471.3,228.933,506.9,185.643,551.9,158.586c56.819-34.177,123.892-27.342,171.74,14.952,39.019,34.6,66.645,75.332,114.493,80.743,37.88,4.415,71.345-1.709,109.936-21.5s81.028-57.389,127.594-71.487c50.838-15.38,104.382-3.133,153.085,18.513,43.006,19.225,139.7,99.826,169.889,17.373" transform="translate(59.154 58.012)"/><path class="d" d="M140.6,261.657c83.591,76.329,215.173,72.484,305.173,2.706,40.158-31.044,74.05-73.2,117.626-98.544,57.247-33.323,123.607-21.645,170.031,22.357,38.307,36.313,65.791,71.914,117.056,75.617,38.876,2.848,72.626-14.668,109.794-38.307s78.18-60.807,124.319-73.2c49.13-13.244,100.11,1.282,146.677,22.927,41.582,19.367,143.116,102.1,169.889,16.377" transform="translate(59.621 62.17)"/><path class="d" d="M141.8,272.429c88.718,79.177,227.278,76.044,320.695.854,38.164-30.617,70.348-71.487,112.5-95.126,57.816-32.326,123.322-15.949,168.322,29.62,37.452,38.022,65.079,78.038,119.62,70.49,40.443-5.554,73.908-27.626,109.509-55.111s75.19-64.082,121.044-74.762,95.981,5.839,140.411,27.2c40.158,19.509,146.534,104.382,169.888,15.522" transform="translate(60.13 61.51)"/><path class="d" d="M143,283.617c93.845,82.025,239.667,79.746,336.359-1,36.028-30.19,66.5-69.778,107.373-91.708,58.243-31.329,122.9-10.253,166.613,36.883,36.6,39.873,64.509,79.6,122.041,65.364,41.867-10.4,75.332-40.443,109.367-71.914s72.341-67.5,117.769-76.471,91.708,10.253,134.145,31.614c38.592,19.652,149.952,106.661,169.889,14.668" transform="translate(60.638 60.432)"/><path class="d" d="M144.2,294.819c98.971,85.015,252.2,83.734,351.881-2.848,34.177-29.62,62.8-68.212,102.1-88.433,58.671-30.19,122.753-4.7,164.9,44.145,35.886,41.44,64.224,81.171,124.6,60.237,43.576-15.237,76.756-53.4,109.224-88.718s69.351-70.917,114.493-78.18,87.579,14.668,127.737,36.028c37.168,19.652,153.37,109.082,169.889,13.671" transform="translate(61.147 59.198)"/><path class="d" d="M131.1,280.646c57.247,48.418,134.572,70.49,206.771,60.38A356.866,356.866,0,0,0,490.1,281.073c10.538-7.4,20.506-15.237,30.475-22.927,22.785-17.8,44.288-35.743,70.917-45.712a114.064,114.064,0,0,1,24.209-6.266c50.269-7.12,103.1,18.37,141.55,56.962,9.968,9.968,19.509,19.652,29.193,28.2,27.2,24.066,55.4,39.019,99.683,22.927,30.332-11.108,55.965-32.611,80.031-56.535,10.823-10.823,21.218-22.073,31.614-33.18,33.323-35.459,70.348-71.629,114.92-81.74a128.306,128.306,0,0,1,36.6-2.706c19.937,1.282,39.588,6.551,59.1,13.813a314.569,314.569,0,0,1,31.9,14.383c15.949,8.117,43.149,27.911,70.917,42.721,42.579,22.5,88.433,34.889,101.534-19.367" transform="translate(55.592 59.273)"/><path class="d" d="M118.1,266.81c57.674,48.275,137.99,71.914,210.331,59.383,56.107-9.683,110.506-31.756,155.506-55.823,10.68-5.7,20.933-11.677,30.9-17.373,22.927-12.959,43.718-25.775,69.636-31.614a116.913,116.913,0,0,1,23.5-2.991c49.272-1,102.389,25.206,143.116,60.38,10.538,9.114,20.791,17.8,31.044,25.348,28.766,21.076,58.243,33.323,101.819,16.519,30.617-11.677,56.962-33.323,81.6-57.389,11.107-10.823,21.788-22.215,32.468-33.323,34.035-35.744,71.2-72.341,115.205-85.443a141.549,141.549,0,0,1,36.028-5.554c19.794-.712,39.3,2.279,58.955,7.975a195.377,195.377,0,0,1,32.9,12.959c17.089,8.4,44,29.05,71.06,44.715,41.867,24.209,87.721,39.446,104.1-11.677" transform="translate(50.08 58.869)"/><path class="d" d="M105,253.35c58.243,48.133,141.408,73.2,214.034,58.528,57.247-11.677,112.5-34.035,158.781-51.55,10.823-4.13,21.361-8.117,31.471-11.677,22.927-8.117,43.148-15.807,68.212-17.516a131.434,131.434,0,0,1,22.642.427c48.275,5.127,101.819,31.9,144.683,63.8a388.833,388.833,0,0,0,33.038,22.5c30.19,18.085,60.949,27.484,104.1,10.253,30.9-12.389,57.816-34.035,83.022-58.1,11.392-10.823,22.5-22.215,33.465-33.465,34.747-35.886,72.057-72.911,115.632-89.145a162.483,162.483,0,0,1,35.459-8.544,180.141,180.141,0,0,1,58.956,1.994,141.551,141.551,0,0,1,33.75,11.535c18.228,8.687,45,30.332,71.2,46.709,41.155,25.775,86.867,44,106.519-3.987" transform="translate(44.525 58.23)"/><path class="d" d="M92,240.46c58.813,47.848,144.968,74.62,217.736,57.531,58.386-13.671,114.351-36.456,162.056-47.421,10.965-2.563,21.645-4.557,32.041-6.123,22.785-3.275,42.579-5.839,66.93-3.275a167.471,167.471,0,0,1,21.93,3.7c47.278,11.392,101.25,38.592,146.249,67.357a336.074,336.074,0,0,0,35.031,19.652c31.614,15.237,63.655,21.788,106.376,3.987,31.187-12.959,58.671-34.747,84.588-58.955,11.677-10.965,23.07-22.357,34.319-33.75,35.459-36.028,73.053-73.623,116.06-92.705a192.962,192.962,0,0,1,34.889-11.392,171.6,171.6,0,0,1,58.813-3.987,111.217,111.217,0,0,1,34.6,10.111c19.367,8.972,45.854,31.471,71.345,48.845,40.443,27.484,86.155,48.56,109.082,3.56" transform="translate(39.012 56.88)"/><path class="d" d="M78.9,228.218c59.24,47.706,148.385,75.9,221.3,56.535,59.525-15.664,116.06-38.876,165.474-43.149a222.43,222.43,0,0,1,32.611-.427A286.943,286.943,0,0,1,563.93,252c6.835,1.994,13.956,4.13,21.218,6.978,46.281,17.516,100.538,45.285,147.673,70.775a293.493,293.493,0,0,0,37.025,16.8c33.038,12.247,66.36,15.949,108.655-2.278,31.471-13.528,59.525-35.459,86.155-59.81,11.962-10.965,23.639-22.357,35.174-33.892,36.313-36.171,73.908-74.193,116.344-96.408a238.1,238.1,0,0,1,34.32-14.383c19.224-6.551,38.449-10.538,58.671-9.968a92.278,92.278,0,0,1,35.459,8.687c20.506,9.256,46.851,32.753,71.487,50.838,39.731,29.05,85.443,53.117,111.5,11.25" transform="translate(33.457 55.025)"/><path class="d" d="M65.8,216.141c59.81,47.563,151.8,77.183,225,55.68,60.664-17.8,117.911-41.582,168.749-39.019a162.483,162.483,0,0,1,33.038,5.127c22.357,5.839,41.44,13.956,64.224,24.921q10.039,4.7,20.506,10.253c45.569,23.924,100.253,51.978,149.525,74.193a265.3,265.3,0,0,0,39.019,13.956c34.462,9.4,69.066,10.111,110.791-8.687,31.614-14.24,60.38-36.171,87.579-60.522,12.247-10.965,24.209-22.5,36.028-34.035,37.025-36.313,74.9-74.9,116.772-100.11a306.734,306.734,0,0,1,33.75-17.231c18.94-8.544,38.164-14.952,58.528-15.949a79.461,79.461,0,0,1,36.313,7.263c21.788,9.541,47.706,34.035,71.629,52.832,39.019,30.759,84.588,57.674,114.066,18.8" transform="translate(27.902 52.861)"/><path class="d" d="M52.8,204.165c60.379,47.278,155.221,78.322,228.7,54.683,61.661-19.937,119.762-44.288,172.025-34.747a139.7,139.7,0,0,1,33.608,10.823c22.215,10.253,40.87,23.782,62.943,39.019l19.794,13.528a722.709,722.709,0,0,0,150.807,77.61,247.779,247.779,0,0,0,40.87,11.107c35.886,6.551,71.772,4.272,113.069-14.952,31.9-14.952,61.376-36.883,89.145-61.376,12.532-10.965,24.778-22.5,36.883-34.177,37.737-36.456,75.759-75.474,117.057-103.67,11.107-7.547,22.073-14.1,33.038-20.221,18.8-10.4,37.88-19.367,58.386-21.93,12.816-1.709,25.206.712,37.168,5.839,22.927,9.826,48.56,35.174,71.772,54.968,38.307,32.468,83.876,62.231,116.487,26.487" transform="translate(22.39 50.596)"/><path class="d" d="M39.7,192.42c60.949,47.136,158.781,79.6,232.262,53.686,62.8-22.073,121.613-47.136,175.442-30.617a134,134,0,0,1,34.177,16.377c22.215,14.525,40.3,33.607,61.661,53.259,6.123,5.554,12.532,11.108,19.082,16.8,43.148,36.6,98.829,65.364,152.373,81.028a237.4,237.4,0,0,0,42.864,8.259c37.31,3.7,74.477-1.566,115.348-21.218,32.183-15.522,62.231-37.595,90.712-62.088,12.816-11.108,25.348-22.642,37.88-34.462,38.449-36.6,76.756-76.044,117.484-107.373,10.823-8.4,21.788-15.949,32.468-23.212,18.655-12.389,37.452-23.782,58.243-27.911,13.1-2.706,25.775-.57,38.022,4.415,24.066,10.111,49.557,36.456,71.914,56.962,37.595,34.319,83.022,66.645,118.908,34.035" transform="translate(16.835 48.244)"/><path class="d" d="M26.7,180.584c61.376,46.993,162.2,80.743,235.964,52.832,63.94-24.209,123.607-49.984,178.718-26.345a137.7,137.7,0,0,1,34.6,21.93c22.358,18.94,39.731,43.576,60.237,67.357q8.829,10.253,18.37,20.079c42.009,42.864,98.259,72.057,153.939,84.446A232.55,232.55,0,0,0,753.39,406.3c38.734,1,77.183-7.405,117.626-27.626,32.468-16.234,63.085-38.307,92.136-62.943,13.1-11.108,26.06-22.642,38.734-34.6,39.161-36.74,77.753-76.614,117.768-111.075,10.68-9.114,21.361-17.658,31.9-26.06,18.37-14.383,37.168-28.2,58.1-33.892,13.528-3.7,26.345-1.994,38.876,2.99,25.206,10.253,50.411,37.737,72.057,58.955,36.74,36.028,82.31,71.2,121.471,41.724" transform="translate(11.322 45.839)"/><path class="d" d="M13.6,168.841c61.946,46.851,165.474,81.74,239.667,51.835C318.2,194.189,378.867,167.7,435.26,198.6a147.531,147.531,0,0,1,35.316,27.626c22.5,23.354,39.3,53.4,58.955,81.455,5.7,7.975,11.535,15.807,17.658,23.354,40.87,49.272,97.689,78.607,155.363,87.864a233.12,233.12,0,0,0,46.851,2.563c40.158-1.709,79.889-13.244,119.9-33.892,32.611-16.946,63.94-39.019,93.7-63.8,13.386-11.108,26.63-22.785,39.588-34.747,40.016-36.883,78.75-77.183,118.2-114.636q15.664-14.81,31.329-29.05c18.085-16.519,36.883-32.611,57.959-39.873,13.813-4.7,27.057-3.418,39.589,1.566,26.345,10.538,51.266,39.019,72.2,61.092,36.028,37.737,81.6,75.759,123.892,49.272" transform="translate(5.767 43.484)"/><path class="d" d="M.6,157.026c62.516,46.566,168.892,83.022,243.227,50.838,80.031-34.6,153.512-67.215,221.154,15.237,29.051,35.6,47.421,84.161,74.62,122.183,50.554,70.633,129.446,99.4,205.774,91.139S895.9,386.155,962.684,331.756,1090.421,210.57,1152.51,146.631c17.943-18.37,36.456-37.025,57.959-45.854,44.145-18.085,83.164,29.9,112.784,63.37,35.174,39.588,80.743,80.316,126.455,56.962" transform="translate(0.254 41.058)"/></g></g></svg>