<svg xmlns="http://www.w3.org/2000/svg" xmlns:xlink="http://www.w3.org/1999/xlink" width="100%" height="100%" viewBox="0 0 237 237"><defs><style>.a{fill:none;}.b{fill:#fff;}.c{filter:url(#a);}</style><filter id="a" x="0" y="0" width="237" height="237" filterUnits="userSpaceOnUse"><feOffset dy="5" input="SourceAlpha"/><feGaussianBlur stdDeviation="3" result="b"/><feFlood flood-opacity="0.22"/><feComposite operator="in" in2="b"/><feComposite in="SourceGraphic"/></filter></defs><g transform="translate(-70 -3376.422)"><g class="c" transform="matrix(1, 0, 0, 1, 70, 3376.42)"><circle class="a" cx="109.5" cy="109.5" r="109.5" transform="translate(9 4)"/></g><g transform="translate(142.955 3406.381)"><g transform="translate(0 47.104)"><g transform="translate(0 0)"><path class="b" d="M80.2,59.778H70.694l-5.248-7.921a10.906,10.906,0,0,0-9.01-4.753H34.654a10.906,10.906,0,0,0-9.01,4.753L20.4,59.778H10.891A10.86,10.86,0,0,0,0,70.669v38.417a10.86,10.86,0,0,0,10.891,10.891H80.2a10.86,10.86,0,0,0,10.891-10.891V70.669A10.86,10.86,0,0,0,80.2,59.778ZM45.545,111.066A24.505,24.505,0,1,1,70.1,86.61,24.551,24.551,0,0,1,45.545,111.066ZM78.813,75.124H74.457a3.221,3.221,0,0,1,0-6.436h3.96a3.214,3.214,0,0,1,3.366,3.069A3.135,3.135,0,0,1,78.813,75.124Z" transform="translate(0 -47.104)"/></g></g><g transform="translate(31.882 72.946)"><path class="b" d="M178.528,180.736A13.614,13.614,0,1,0,192.191,194.3,13.691,13.691,0,0,0,178.528,180.736Z" transform="translate(-164.864 -180.736)"/></g></g></g></svg>