<svg xmlns="http://www.w3.org/2000/svg" width="1em" height="1em" viewBox="0 0 30.143 24.114"><defs><style>.a{fill:#fff;}</style></defs><g transform="translate(-45 -111)"><g transform="translate(0 53)"><path class="a" d="M74.4,58.738A2.416,2.416,0,0,0,72.631,58H47.512A2.519,2.519,0,0,0,45,60.512V79.6a2.519,2.519,0,0,0,2.512,2.512H72.631A2.521,2.521,0,0,0,75.143,79.6V60.512a2.419,2.419,0,0,0-.739-1.774ZM73.133,79.6a.509.509,0,0,1-.5.5H47.512a.507.507,0,0,1-.5-.5V70.057H73.133Zm0-15.574H47.01V60.511a.508.508,0,0,1,.5-.5H72.631a.509.509,0,0,1,.5.5Zm0,0"/><rect class="a" width="4.019" height="2.01" transform="translate(49.02 76.086)"/><rect class="a" width="6.028" height="2.01" transform="translate(55.048 76.086)"/></g></g></svg>