<svg xmlns="http://www.w3.org/2000/svg" width="1em" height="1em" viewBox="0 0 30.21 28.912"><defs><style>.a{fill:#fff;}</style></defs><path class="a" d="M9.795,20.52h15.99a.912.912,0,0,0,.85-.744l3.54-14.364a1.158,1.158,0,0,0-.144-.9.852.852,0,0,0-.707-.408H7.751L7.119.8A.925.925,0,0,0,6.254,0H.885A.963.963,0,0,0,0,1.026.963.963,0,0,0,.885,2.052H5.544l3.2,16.672a3.126,3.126,0,0,0-1.6,2.822,2.893,2.893,0,0,0,2.655,3.078h15.99a1.037,1.037,0,0,0,0-2.052H9.795a1.037,1.037,0,0,1,0-2.052Zm0,0"/><path class="a" d="M151,362.148A2.144,2.144,0,1,0,153.144,360,2.146,2.146,0,0,0,151,362.148Zm0,0" transform="translate(-141.724 -335.38)"/><path class="a" d="M362,362.148A2.144,2.144,0,1,0,364.148,360,2.146,2.146,0,0,0,362,362.148Zm0,0" transform="translate(-338.94 -335.38)"/></svg>