<svg width="45" height="34" viewBox="0 0 45 34" fill="none" xmlns="http://www.w3.org/2000/svg">
<path d="M43.8848 11.9214C44.7107 13.9277 45.0855 16.0838 44.9837 18.2436C44.8818 20.4035 44.3058 22.5169 43.2946 24.4408C41.7225 27.461 39.0898 29.829 35.877 31.1126C33.3453 32.1742 30.5013 32.2873 27.8895 31.4303C24.6844 30.2488 22.5069 27.8561 18.8337 28.0348C15.6387 28.1937 13.3289 30.7154 10.2764 31.2913C2.77733 32.7011 -2.47303 22.9218 1.20019 17.0245C2.43137 15.0388 4.64955 13.222 7.09158 13.0532C8.87222 12.9539 10.5918 13.5794 12.3826 13.5099C13.6847 13.4929 14.9681 13.2052 16.1472 12.6659C17.3263 12.1266 18.374 11.3482 19.2203 10.3825C20.482 8.9429 20.7669 6.97712 22.1609 5.62689C24.9896 2.87678 29.2835 2.64843 33.0178 3.31362C35.1896 3.70524 37.2416 4.57378 39.0185 5.85351C40.7955 7.13324 42.2508 8.79061 43.2743 10.7002C43.488 11.0973 43.6711 11.5044 43.8848 11.9214Z" fill="#E4F8FF"/>
<path d="M6.44709 32.8841L16.2908 8.31405C16.3668 8.12435 16.5499 7.9985 16.754 8.00738C23.3279 8.29313 30.7375 16.8215 30.9932 23.0588C31.0014 23.2593 30.8801 23.4387 30.6954 23.5171L7.1066 33.5303C6.6972 33.704 6.28169 33.2969 6.44709 32.8841Z" fill="#4AC6F8"/>
<path d="M11.0627 6.25816C11.1022 6.33694 11.1629 6.40306 11.238 6.44905C11.313 6.49505 11.3993 6.5191 11.4872 6.51849L13.0157 6.51849L13.8932 7.79174C13.936 7.85531 13.9936 7.90749 14.061 7.94377C14.1284 7.98005 14.2035 7.99935 14.28 8L14.3461 8C14.4334 7.98755 14.5154 7.95079 14.583 7.8939C14.6505 7.83701 14.7008 7.76226 14.7282 7.67814L15.1999 6.21556L16.6671 5.7801C16.7505 5.75433 16.8252 5.70583 16.8828 5.64C16.9404 5.57418 16.9786 5.49361 16.9933 5.40726C17.008 5.32092 16.9985 5.23218 16.9659 5.15093C16.9332 5.06968 16.8788 4.9991 16.8086 4.94705L15.5585 4.03353L15.6009 2.49522C15.6051 2.40448 15.5832 2.31445 15.5378 2.23587C15.4923 2.1573 15.4253 2.09349 15.3448 2.05207C15.2642 2.01065 15.1735 1.99337 15.0834 2.00229C14.9933 2.0112 14.9076 2.04594 14.8367 2.10235L13.6007 3.00167L12.1571 2.48575C12.0743 2.45693 11.9852 2.45183 11.8997 2.471C11.8141 2.49017 11.7356 2.53287 11.6729 2.5943C11.6102 2.65573 11.5658 2.73347 11.5447 2.8188C11.5236 2.90413 11.5265 2.99368 11.5533 3.07741L12.025 4.53999L11.0815 5.75643C11.0318 5.82987 11.0037 5.91586 11.0003 6.00458C10.997 6.0933 11.0186 6.18117 11.0627 6.25816ZM13.0204 4.48792L12.7657 3.7022L13.5394 3.97673C13.6113 4.00247 13.6883 4.01032 13.7639 3.99961C13.8395 3.98889 13.9114 3.95992 13.9734 3.91519L14.6385 3.44187L14.6385 4.26546C14.6368 4.34173 14.6535 4.41729 14.6872 4.4857C14.7209 4.5541 14.7705 4.61332 14.832 4.65832L15.4971 5.13164L14.7093 5.36357C14.6356 5.38519 14.5684 5.42452 14.5133 5.47813C14.4582 5.53174 14.417 5.59803 14.3932 5.67123L14.1385 6.45222L13.6667 5.77537C13.6239 5.71179 13.5663 5.65962 13.4989 5.62334C13.4315 5.58706 13.3564 5.56776 13.2799 5.5671L12.4355 5.5671L12.9497 4.91865C12.9935 4.857 13.0219 4.78572 13.0326 4.71077C13.0433 4.63582 13.0359 4.5594 13.011 4.48792L13.0204 4.48792Z" fill="#368CFB"/>
<path d="M31.9147 24.7327C31.9102 24.8207 31.9303 24.9082 31.9728 24.9853C32.0152 25.0623 32.0784 25.1259 32.1551 25.1688L33.4839 25.9243L33.6174 27.4648C33.6232 27.5413 33.6474 27.6151 33.6881 27.6799C33.7288 27.7448 33.7846 27.7987 33.8507 27.8371L33.9081 27.8697C33.9902 27.902 34.0797 27.9107 34.1665 27.8946C34.2534 27.8785 34.334 27.8384 34.3994 27.7788L35.5324 26.7405L37.023 27.0871C37.1083 27.1059 37.1972 27.1006 37.2798 27.0719C37.3624 27.0431 37.4355 26.992 37.4909 26.9242C37.5463 26.8564 37.5819 26.7745 37.5937 26.6878C37.6055 26.601 37.5931 26.5128 37.5578 26.4328L36.9225 25.0208L37.7197 23.7045C37.7682 23.6277 37.7937 23.5386 37.793 23.4478C37.7924 23.3571 37.7657 23.2685 37.7161 23.1927C37.6665 23.1168 37.5962 23.057 37.5135 23.0202C37.4307 22.9834 37.3391 22.9713 37.2496 22.9853L35.7306 23.1562L34.7307 21.9942C34.6729 21.9282 34.598 21.8797 34.5141 21.8541C34.4303 21.8285 34.341 21.8268 34.2561 21.8492C34.1712 21.8716 34.0942 21.9173 34.0337 21.981C33.9731 22.0447 33.9315 22.1241 33.9133 22.2101L33.6005 23.7147L32.1791 24.3058C32.0996 24.3451 32.0326 24.4059 31.9859 24.4814C31.9391 24.5569 31.9145 24.644 31.9147 24.7327ZM34.4916 24.1614L34.6585 23.3524L35.1954 23.9735C35.2451 24.0314 35.3083 24.0763 35.3793 24.1044C35.4503 24.1324 35.5271 24.1428 35.6031 24.1345L36.4153 24.0518L36.0082 24.7678C35.969 24.8332 35.9462 24.9072 35.9417 24.9833C35.9371 25.0594 35.951 25.1354 35.9822 25.2049L36.3265 25.9451L35.527 25.7573C35.4523 25.7397 35.3743 25.7407 35.2999 25.76C35.2256 25.7794 35.157 25.8167 35.1001 25.8686L34.4927 26.4216L34.4171 25.6C34.4113 25.5236 34.387 25.4498 34.3464 25.3849C34.3057 25.3201 34.2499 25.2662 34.1838 25.2278L33.4497 24.8104L34.2172 24.5009C34.2857 24.4689 34.3457 24.421 34.392 24.3611C34.4383 24.3013 34.4697 24.2312 34.4834 24.1567L34.4916 24.1614Z" fill="#368CFB"/>
<path d="M24.4442 7.8644C24.1998 7.8644 24.0016 7.6709 24.0016 7.4322C24.0016 7.1935 24.1998 7 24.4442 7C24.6886 7 24.8867 7.1935 24.8867 7.4322C24.8867 7.6709 24.6886 7.8644 24.4442 7.8644Z" fill="#12769E"/>
<path d="M37.4442 16.8644C37.1998 16.8644 37.0016 16.6709 37.0016 16.4322C37.0016 16.1935 37.1998 16 37.4442 16C37.6886 16 37.8867 16.1935 37.8867 16.4322C37.8867 16.6709 37.6886 16.8644 37.4442 16.8644Z" fill="#12769E"/>
<path d="M35.5478 0.124064C35.4841 0.0668188 35.4057 0.0274291 35.3209 0.0100426C35.2362 -0.00734382 35.1482 -0.00208366 35.0663 0.0252696C34.9816 0.056832 34.9077 0.111103 34.8532 0.181843C34.7987 0.252582 34.7657 0.336918 34.7581 0.425152L34.6136 1.9447L33.2508 2.68802C33.1719 2.73011 33.1066 2.79297 33.0623 2.86947C33.0181 2.94596 32.9966 3.03304 33.0004 3.12083C33.0047 3.20861 33.034 3.29347 33.085 3.36581C33.1361 3.43815 33.2069 3.49507 33.2894 3.53012L34.734 4.137L35.0326 5.63774C35.0501 5.72367 35.0918 5.80311 35.1531 5.86712C35.2144 5.93112 35.2927 5.97714 35.3793 5.99998L35.5045 5.99998C35.5737 6.00057 35.6422 5.98659 35.7053 5.95899C35.7685 5.93138 35.8248 5.89081 35.8705 5.84003L36.901 4.69684L38.4468 4.88031C38.5394 4.89468 38.6343 4.88231 38.7199 4.8447C38.8054 4.80709 38.8779 4.74589 38.9283 4.66861C38.9752 4.59437 39 4.50885 39 4.42162C39 4.33439 38.9752 4.24888 38.9283 4.17464L38.1386 2.85738L38.7935 1.44603C38.8306 1.36631 38.8443 1.27805 38.8329 1.19116C38.8215 1.10428 38.7854 1.02224 38.7289 0.954271C38.6723 0.886304 38.5975 0.835112 38.5127 0.806461C38.428 0.77781 38.3368 0.772837 38.2493 0.792103L36.7276 1.12142L35.5478 0.124064ZM37.1369 3.13494L37.5655 3.84532L36.7324 3.74653C36.655 3.7373 36.5763 3.7466 36.5034 3.77365C36.4304 3.80069 36.3652 3.84467 36.3135 3.90178L35.7597 4.51807L35.6008 3.7136C35.5863 3.63849 35.5533 3.56797 35.5046 3.50814C35.456 3.4483 35.3931 3.40094 35.3215 3.37017L34.5558 3.04556L35.2878 2.64568C35.3534 2.60692 35.4087 2.5534 35.4489 2.48957C35.4891 2.42574 35.5131 2.35345 35.5189 2.27872L35.596 1.46014L36.2075 2.01998C36.265 2.07174 36.3345 2.10907 36.41 2.12874C36.4855 2.14841 36.5647 2.14983 36.6409 2.13288L37.4596 1.95411L37.108 2.70213C37.077 2.77124 37.0634 2.84665 37.0684 2.92198C37.0734 2.99731 37.0969 3.07036 37.1369 3.13494Z" fill="#368CFB"/>
<path d="M31.3728 8L31.6914 9.03745" stroke="#3B5B7B" stroke-width="0.5" stroke-miterlimit="10" stroke-linecap="round"/>
<path d="M31.0002 8.67443L32.0625 8.36328" stroke="#3B5B7B" stroke-width="0.5" stroke-miterlimit="10" stroke-linecap="round"/>
<path d="M41.0331 23.2836L40.4447 24.1956" stroke="#3B5B7B" stroke-width="0.5" stroke-miterlimit="10" stroke-linecap="round"/>
<path d="M40.277 23.4347L41.1992 24.0469" stroke="#3B5B7B" stroke-width="0.5" stroke-miterlimit="10" stroke-linecap="round"/>
<path d="M22 2.5039C22.0008 2.80057 22.0895 3.09035 22.255 3.3366C22.4204 3.58284 22.6552 3.77449 22.9296 3.88731C23.204 4.00012 23.5056 4.02905 23.7965 3.97041C24.0873 3.91178 24.3542 3.76822 24.5634 3.5579C24.7726 3.34758 24.9148 3.07993 24.9719 2.78881C25.0291 2.49769 24.9986 2.19617 24.8843 1.92238C24.7701 1.64859 24.5772 1.41482 24.3301 1.25064C24.083 1.08646 23.7928 0.999236 23.4961 1.00001C23.2991 1.00052 23.1042 1.03982 22.9224 1.11568C22.7406 1.19153 22.5755 1.30245 22.4366 1.4421C22.2977 1.58175 22.1876 1.74739 22.1127 1.92958C22.0378 2.11176 21.9995 2.30692 22 2.5039ZM24.2169 2.5039C24.2161 2.64629 24.1732 2.78526 24.0935 2.90328C24.0139 3.0213 23.901 3.11307 23.7693 3.16703C23.6375 3.22099 23.4927 3.23471 23.3531 3.20646C23.2136 3.17821 23.0855 3.10925 22.9851 3.0083C22.8847 2.90734 22.8164 2.77891 22.7889 2.6392C22.7614 2.49949 22.7759 2.35476 22.8306 2.22328C22.8852 2.0918 22.9776 1.97946 23.0961 1.90043C23.2145 1.8214 23.3537 1.77923 23.4961 1.77923C23.5911 1.77922 23.6851 1.798 23.7728 1.83446C23.8605 1.87093 23.9402 1.92437 24.0072 1.99171C24.0741 2.05906 24.1272 2.13897 24.1631 2.22687C24.1991 2.31477 24.2174 2.40892 24.2169 2.5039Z" fill="#5F62DE"/>
<path d="M35 15.4961C34.9992 15.1994 34.9105 14.9096 34.745 14.6634C34.5796 14.4172 34.3448 14.2255 34.0704 14.1127C33.796 13.9999 33.4944 13.971 33.2035 14.0296C32.9127 14.0882 32.6458 14.2318 32.4366 14.4421C32.2274 14.6524 32.0852 14.9201 32.0281 15.2112C31.9709 15.5023 32.0014 15.8038 32.1157 16.0776C32.2299 16.3514 32.4228 16.5852 32.6699 16.7494C32.917 16.9135 33.2072 17.0008 33.5039 17C33.7009 16.9995 33.8958 16.9602 34.0776 16.8843C34.2594 16.8085 34.4245 16.6976 34.5634 16.5579C34.7023 16.4183 34.8124 16.2526 34.8873 16.0704C34.9622 15.8882 35.0005 15.6931 35 15.4961ZM32.7831 15.4961C32.7839 15.3537 32.8268 15.2147 32.9065 15.0967C32.9861 14.9787 33.099 14.8869 33.2307 14.833C33.3625 14.779 33.5073 14.7653 33.6469 14.7935C33.7864 14.8218 33.9145 14.8907 34.0149 14.9917C34.1153 15.0927 34.1836 15.2211 34.2111 15.3608C34.2386 15.5005 34.2241 15.6452 34.1694 15.7767C34.1148 15.9082 34.0224 16.0205 33.9039 16.0996C33.7855 16.1786 33.6463 16.2208 33.5039 16.2208C33.4089 16.2208 33.3149 16.202 33.2272 16.1655C33.1395 16.1291 33.0598 16.0756 32.9928 16.0083C32.9259 15.9409 32.8728 15.861 32.8369 15.7731C32.8009 15.6852 32.7826 15.5911 32.7831 15.4961Z" fill="#5F62DE"/>
<path d="M26.1634 11.9187C26.229 11.9718 26.3079 12.0003 26.3889 12C26.4489 12.0006 26.5081 11.9855 26.5619 11.9558C26.6157 11.9261 26.6625 11.8826 26.6985 11.8289C26.8169 11.6193 29.6411 7.21424 28.8653 0.371363C28.852 0.259144 28.7995 0.157412 28.7192 0.0884671C28.639 0.019522 28.5376 -0.0110115 28.4373 0.00355891C28.3378 0.0184952 28.2475 0.0766713 28.186 0.165508C28.1245 0.254344 28.0967 0.366701 28.1086 0.478283C28.8462 6.97046 26.1061 11.2601 26.0793 11.3071C26.0478 11.353 26.0249 11.4055 26.012 11.4615C25.9992 11.5175 25.9966 11.5759 26.0044 11.6331C26.0123 11.6902 26.0304 11.745 26.0578 11.7941C26.0851 11.8432 26.121 11.8856 26.1634 11.9187Z" fill="#4AC6F8"/>
<path d="M28.1456 13.2773C28.0829 13.3298 28.0373 13.4012 28.0151 13.4819C27.9929 13.5625 27.9952 13.6483 28.0217 13.7275C28.0481 13.8068 28.0974 13.8755 28.1628 13.9243C28.2282 13.9731 28.3065 13.9995 28.3869 14C28.4747 13.9995 28.5597 13.968 28.6282 13.9107C28.671 13.8741 33.0375 10.3214 38.4664 12.583C38.5139 12.6028 38.5647 12.6126 38.6159 12.6118C38.667 12.6111 38.7175 12.5999 38.7645 12.5787C38.8115 12.5576 38.8541 12.527 38.8897 12.4888C38.9254 12.4505 38.9534 12.4052 38.9723 12.3556C38.9913 12.306 39.0007 12.253 39 12.1996C38.9993 12.1463 38.9885 12.0936 38.9682 12.0445C38.948 11.9955 38.9187 11.9511 38.882 11.9139C38.8453 11.8767 38.8019 11.8475 38.7544 11.8278C32.9091 9.3835 28.3363 13.1149 28.1456 13.2773Z" fill="#4AC6F8"/>
<path d="M20.2474 7.99744C20.281 8.00085 20.3151 8.00085 20.3487 7.99744C20.4552 7.99942 20.5594 7.97336 20.6434 7.92373C20.7274 7.87409 20.7861 7.80393 20.8095 7.72519C20.8556 7.58208 21.8554 4.15793 18.7683 2.08809C18.6766 2.02652 18.5564 1.99507 18.4342 2.00063C18.3119 2.00619 18.1975 2.04833 18.1163 2.11775C18.035 2.18718 17.9935 2.27823 18.0008 2.37085C18.0082 2.46347 18.0638 2.55009 18.1554 2.61166C20.8279 4.40226 19.9248 7.5367 19.9156 7.56812C19.8997 7.61281 19.8956 7.65947 19.9037 7.70535C19.9118 7.75124 19.9319 7.79545 19.9628 7.83541C19.9937 7.87536 20.0347 7.91026 20.0836 7.93808C20.1324 7.9659 20.1881 7.98608 20.2474 7.99744Z" fill="#4AC6F8"/>
<path d="M32.2022 18.4198C32.124 18.4688 32.0626 18.5496 32.0288 18.6482C31.9949 18.7468 31.9908 18.8567 32.0171 18.9586C32.0435 19.0604 32.0986 19.1478 32.1727 19.2052C32.2469 19.2626 32.3353 19.2863 32.4225 19.2723C32.4635 19.2723 36.5521 17.785 38.3182 20.8095C38.3529 20.8688 38.3988 20.917 38.4521 20.9501C38.5054 20.9833 38.5645 21.0004 38.6243 21C38.7017 21.0007 38.7774 20.9722 38.8409 20.9184C38.8813 20.884 38.9156 20.8403 38.942 20.7897C38.9684 20.7391 38.9863 20.6826 38.9946 20.6236C39.003 20.5646 39.0016 20.5042 38.9906 20.4458C38.9796 20.3874 38.9592 20.3323 38.9305 20.2835C36.847 16.7375 32.3926 18.3654 32.2022 18.4198Z" fill="#4AC6F8"/>
<path d="M16.5 29.5L24 26.5C23.8132 23.845 22.4951 21.0947 21 19C19.5049 16.9053 16.3008 14.8302 14 14L10.5 23C12.6172 24.3281 15.3049 27.1638 16.5 29.5Z" fill="#21ACE3"/>
</svg>
