<svg width="30" height="30" viewBox="0 0 30 30" fill="none" xmlns="http://www.w3.org/2000/svg">
<circle cx="15" cy="15" r="14.5" stroke="white"/>
<path d="M12.4248 20.9997L12.4186 20.9998C12.3978 20.9998 12.3787 20.9908 12.3653 20.9749L12.3608 20.9696L9.01661 17.39C9.00615 17.3786 8.99958 17.3598 9.00059 17.3406L9.0016 17.3208L9.00021 17.3012C8.99861 17.2783 9.0062 17.2558 9.02099 17.2395L10.1058 16.0762L10.1094 16.0719C10.1303 16.0477 10.1555 16.0441 10.1687 16.0441C10.1833 16.0441 10.2047 16.0482 10.224 16.0678L10.2353 16.0801L12.4328 18.4032L19.7709 10.0281C19.7923 10.0036 19.8174 10 19.8305 10C19.8451 10 19.8668 10.0042 19.8862 10.0241L19.8958 10.0347L20.9822 11.1999C20.9941 11.2131 21.0013 11.2345 20.9998 11.2562L20.9984 11.2761L20.9994 11.2958C21.0004 11.3149 20.9938 11.3335 20.9812 11.347L12.4942 20.9714C12.478 20.9899 12.4562 21 12.4337 21L12.4248 20.9997Z" fill="white"/>
</svg>
