<svg width="28" height="28" viewBox="0 0 28 28" fill="none" xmlns="http://www.w3.org/2000/svg">
<path fill-rule="evenodd" clip-rule="evenodd" d="M13.8306 27.6627C11.9625 27.6627 10.1512 27.2959 8.44652 26.5751C6.79731 25.8784 5.31871 24.8818 4.05052 23.6122C2.78091 22.344 1.78428 20.8654 1.08763 19.2162C0.36681 17.5115 0 15.7002 0 13.8321C0 11.9653 0.36681 10.154 1.08763 8.44938C1.78286 6.80301 2.77949 5.32298 4.05052 4.05195C5.32013 2.78092 6.79873 1.78428 8.44652 1.08763C10.1512 0.36681 11.9625 0 13.8306 0C15.6974 0 17.5087 0.36681 19.2133 1.08763C20.8583 1.78286 22.3369 2.78091 23.6079 4.05195C24.8789 5.32298 25.8756 6.80301 26.5708 8.44938C27.2916 10.154 27.6584 11.9653 27.6584 13.8321C27.6584 15.7002 27.2916 17.5115 26.5708 19.2162C25.8741 20.8654 24.8775 22.344 23.6079 23.6122C22.3397 24.8818 20.8611 25.8784 19.2133 26.5751C17.5087 27.2959 15.6974 27.6627 13.8306 27.6627ZM11.8139 6.14901L9.923 8.03707L15.4066 13.5221L9.923 19.0058L11.8139 20.8995L19.1927 13.5221L11.8139 6.14901Z" fill="#3B5B7B"/>
</svg>
