<svg width="15" height="15" viewBox="0 0 15 15" fill="none" xmlns="http://www.w3.org/2000/svg">
<path d="M7.5 0C6.01664 0 4.5666 0.439867 3.33323 1.26398C2.09986 2.08809 1.13856 3.25943 0.570907 4.62987C0.00324963 6.00032 -0.145275 7.50832 0.144114 8.96317C0.433503 10.418 1.14781 11.7544 2.1967 12.8033C3.2456 13.8522 4.58197 14.5665 6.03683 14.8559C7.49168 15.1453 8.99968 14.9968 10.3701 14.4291C11.7406 13.8614 12.9119 12.9001 13.736 11.6668C14.5601 10.4334 15 8.98336 15 7.5C15 5.51087 14.2098 3.60322 12.8033 2.1967C11.3968 0.790177 9.48913 0 7.5 0ZM7.5 13.75C6.26387 13.75 5.0555 13.3834 4.02769 12.6967C2.99988 12.0099 2.1988 11.0338 1.72576 9.89177C1.25271 8.74973 1.12894 7.49307 1.3701 6.28068C1.61125 5.0683 2.20651 3.95466 3.08059 3.08058C3.95466 2.2065 5.06831 1.61125 6.28069 1.37009C7.49307 1.12893 8.74973 1.2527 9.89177 1.72575C11.0338 2.1988 12.0099 2.99988 12.6967 4.02769C13.3834 5.05549 13.75 6.26386 13.75 7.5C13.75 9.1576 13.0915 10.7473 11.9194 11.9194C10.7473 13.0915 9.15761 13.75 7.5 13.75ZM11.2063 8.98125C11.1759 9.05763 11.1309 9.12728 11.0736 9.18622C11.0164 9.24516 10.948 9.29223 10.8726 9.32474C10.7971 9.35724 10.716 9.37455 10.6338 9.37567C10.5517 9.37679 10.4701 9.36169 10.3938 9.33125L7.26875 8.08125C7.15246 8.03493 7.05276 7.95477 6.98255 7.85113C6.91235 7.7475 6.87488 7.62517 6.875 7.5V3.125C6.875 2.95924 6.94085 2.80027 7.05806 2.68306C7.17527 2.56585 7.33424 2.5 7.5 2.5C7.66576 2.5 7.82473 2.56585 7.94194 2.68306C8.05915 2.80027 8.125 2.95924 8.125 3.125V7.075L10.8563 8.16875C10.9326 8.19905 11.0023 8.24413 11.0612 8.30138C11.1202 8.35864 11.1672 8.42695 11.1997 8.50242C11.2322 8.57788 11.2496 8.65902 11.2507 8.74118C11.2518 8.82335 11.2367 8.90493 11.2063 8.98125Z" fill="white" fill-opacity="0.75"/>
</svg>
