<svg width="15" height="15" viewBox="0 0 15 15" fill="none" xmlns="http://www.w3.org/2000/svg">
<path d="M9.15208 7.49944L14.7604 1.89095C14.9146 1.73656 14.9998 1.5306 15 1.31096C15 1.09121 14.9149 0.884992 14.7604 0.730847L14.2689 0.239513C14.1144 0.0847581 13.9084 0 13.6885 0C13.469 0 13.2631 0.0847581 13.1085 0.239513L7.50025 5.84764L1.89171 0.239513C1.73744 0.0847581 1.53135 0 1.31159 0C1.09208 0 0.885982 0.0847581 0.731711 0.239513L0.240002 0.730847C-0.0800008 1.05085 -0.0800008 1.57132 0.240002 1.89096L5.84841 7.49945L0.240002 13.1077C0.0856081 13.2623 0.000611029 13.4683 0.000611029 13.6879C0.000611029 13.9076 0.0856081 14.1135 0.240002 14.268L0.731588 14.7594C0.885858 14.914 1.09207 14.9989 1.31147 14.9989C1.53123 14.9989 1.73732 14.914 1.89159 14.7594L7.50013 9.15114L13.1084 14.7594C13.2629 14.914 13.4689 14.9989 13.6884 14.9989H13.6887C13.9083 14.9989 14.1143 14.914 14.2688 14.7594L14.7603 14.268C14.9145 14.1137 14.9996 13.9076 14.9996 13.6879C14.9996 13.4683 14.9145 13.2623 14.7603 13.1078L9.15208 7.49944Z" fill="#3B5B7B"/>
</svg>
