<svg width="14" height="14" viewBox="0 0 14 14" fill="none" xmlns="http://www.w3.org/2000/svg">
<path d="M8.54194 6.99944L13.7764 1.76488C13.9203 1.62078 13.9998 1.42855 14 1.22356C14 1.01845 13.9206 0.825988 13.7764 0.68212L13.3177 0.223544C13.1734 0.0791071 12.9812 0 12.776 0C12.5711 0 12.3789 0.0791071 12.2346 0.223544L7.00023 5.45777L1.7656 0.223544C1.62161 0.0791071 1.42926 0 1.22415 0C1.01928 0 0.826916 0.0791071 0.68293 0.223544L0.224002 0.68212C-0.0746674 0.980785 -0.0746674 1.46656 0.224002 1.76489L5.45852 6.99945L0.224002 12.2338C0.0799009 12.3781 0.000570294 12.5703 0.000570294 12.7753C0.000570294 12.9803 0.0799009 13.1726 0.224002 13.3168L0.682815 13.7753C0.826801 13.9197 1.01927 13.9989 1.22404 13.9989C1.42915 13.9989 1.6215 13.9197 1.76548 13.7753L7.00012 8.54102L12.2345 13.7753C12.3787 13.9197 12.571 13.9989 12.7759 13.9989H12.7761C12.9811 13.9989 13.1733 13.9197 13.3175 13.7753L13.7762 13.3168C13.9202 13.1727 13.9997 12.9803 13.9997 12.7753C13.9997 12.5703 13.9202 12.3781 13.7762 12.2339L8.54194 6.99944Z" fill="#3B5B7B"/>
</svg>
