<svg width="15" height="15" viewBox="0 0 15 15" fill="none" xmlns="http://www.w3.org/2000/svg">
<path d="M5.43273e-06 3.40909V13.5632C-0.000370455 13.6624 0.0187628 13.7608 0.0563023 13.8526C0.0938419 13.9443 0.149045 14.0277 0.21873 14.0979C0.288415 14.1681 0.371204 14.2237 0.462323 14.2615C0.553443 14.2993 0.651091 14.3186 0.74964 14.3182H10.9091V3.40909H5.43273e-06Z" fill="white"/>
<path d="M3.47397 1.17557e-05C3.27632 0.000393271 3.08685 0.0746327 2.94695 0.206518C2.80705 0.338402 2.72809 0.517217 2.72729 0.703912V2.10757H12.459V11.5909H14.2475C14.3464 11.5914 14.4443 11.5735 14.5358 11.538C14.6273 11.5026 14.7104 11.4504 14.7804 11.3844C14.8503 11.3184 14.9058 11.24 14.9435 11.1537C14.9812 11.0674 15.0004 10.9749 15 10.8815V0.703912C14.9996 0.610998 14.9798 0.519068 14.9418 0.433385C14.9037 0.347701 14.8482 0.269944 14.7783 0.204565C14.7084 0.139185 14.6255 0.087466 14.5345 0.0523664C14.4434 0.0172668 14.3459 -0.000524138 14.2475 1.17557e-05H3.47397Z" fill="white"/>
</svg>
