<svg width="45" height="30" viewBox="0 0 45 30" fill="none" xmlns="http://www.w3.org/2000/svg">
<g clip-path="url(#clip0_10408:103946)">
<path d="M43.1295 8.99999C43.9413 11.0209 44.3095 13.1925 44.2095 15.368C44.1094 17.5435 43.5433 19.6722 42.5495 21.61C41.0044 24.652 38.417 27.0371 35.2595 28.33C32.7715 29.3993 29.9764 29.5133 27.4095 28.65C24.2595 27.46 22.1195 25.05 18.5095 25.23C15.3695 25.39 13.0995 27.93 10.0995 28.51C2.72953 29.93 -2.43047 20.08 1.17953 14.14C2.38953 12.14 4.56953 10.31 6.96953 10.14C8.71953 10.04 10.4095 10.67 12.1695 10.6C13.4492 10.5829 14.7105 10.2931 15.8693 9.74992C17.0281 9.20673 18.0578 8.42265 18.8895 7.44999C20.1295 5.99999 20.4095 4.01999 21.7795 2.65999C24.5595 -0.110013 28.7795 -0.340014 32.4495 0.329986C34.5839 0.724439 36.6006 1.59927 38.347 2.88825C40.0934 4.17723 41.5236 5.8466 42.5295 7.76999C42.7395 8.16999 42.9195 8.57999 43.1295 8.99999Z" fill="#E4F8FF"/>
</g>
<rect x="12" y="3" width="27" height="17.493" rx="2" fill="#A1DFF6"/>
<rect x="12" y="7.1983" width="27" height="2.66197" fill="#E4F8FF"/>
<rect x="7" y="13" width="26" height="16.8451" rx="2" fill="#368CFB"/>
<rect x="9.19727" y="15.9297" width="5.49296" height="1.83099" fill="#4AC6F8"/>
<rect x="7" y="23" width="26" height="2.56338" fill="#A1DFF6"/>
<defs>
<clipPath id="clip0_10408:103946">
<rect width="44.2" height="29.24" fill="white"/>
</clipPath>
</defs>
</svg>
