<svg width="55" height="33" viewBox="0 0 55 33" fill="none"
     xmlns="http://www.w3.org/2000/svg">
    <rect x="0.5" y="0.5" width="53.5" height="31.1429" rx="2.5" fill="white"
          stroke="#8E949F"/>
    <path d="M26.8033 25.8929C32.2311 25.8929 36.6311 21.4957 36.6311 16.0714C36.6311 10.6472 32.2311 6.25 26.8033 6.25C21.3755 6.25 16.9754 10.6472 16.9754 16.0714C16.9754 21.4957 21.3755 25.8929 26.8033 25.8929Z"
          fill="#22ADE4"/>
    <path d="M25.0083 17.8571C25.021 18.1521 25.131 18.4346 25.321 18.6606C25.5674 18.9194 25.8931 19.0887 26.2466 19.1419V17.0794C25.9019 17.012 25.5615 16.9244 25.2272 16.8169C24.9006 16.7141 24.5923 16.5601 24.3141 16.3606C24.0396 16.1609 23.8132 15.9026 23.6512 15.6044C23.4686 15.2455 23.3804 14.846 23.3947 14.4437C23.3791 14.1161 23.4362 13.789 23.5621 13.4861C23.688 13.1832 23.8795 12.912 24.1229 12.6919C24.7306 12.2174 25.4756 11.9521 26.2466 11.9356V11.0356H27.3723V11.9231C27.8128 11.9508 28.2459 12.05 28.6544 12.2169C28.9809 12.3521 29.2766 12.5519 29.5238 12.8044C29.7489 13.0419 29.9196 13.3256 30.0241 13.6356C30.1346 13.9663 30.1934 14.3121 30.1983 14.6606H28.5106C28.4767 14.3843 28.3758 14.1204 28.2166 13.8919C28.009 13.6273 27.7059 13.4546 27.3723 13.4106V15.6731C27.7226 15.7481 28.0749 15.8336 28.4293 15.9294C28.767 16.0172 29.0896 16.1554 29.3862 16.3392C29.6691 16.5178 29.9068 16.7596 30.0804 17.0455C30.2722 17.3884 30.365 17.7779 30.3484 18.1705C30.3719 18.5043 30.3182 18.839 30.1913 19.1487C30.0644 19.4584 29.8677 19.7347 29.6167 19.9562C28.9586 20.414 28.1742 20.6558 27.3723 20.6481V21.9231H26.2466V20.6356C25.7775 20.6101 25.3153 20.5109 24.877 20.3419C24.5371 20.2083 24.2284 20.0062 23.9701 19.7481C23.7381 19.5088 23.5628 19.2205 23.4573 18.9044C23.3455 18.5659 23.2824 18.2133 23.2697 17.8571H25.0083ZM27.3723 19.1964C27.7059 19.1872 28.0296 19.0814 28.3042 18.8919C28.4041 18.8046 28.4825 18.6955 28.5335 18.573C28.5845 18.4505 28.6066 18.318 28.5981 18.1856C28.6041 18.065 28.5739 17.9453 28.5115 17.8418C28.4492 17.7382 28.3574 17.6556 28.2479 17.6044C27.9694 17.4676 27.6754 17.3647 27.3723 17.2981V19.1964ZM26.2466 13.3839C25.5128 13.4755 25.1459 13.8089 25.1459 14.3839C25.1378 14.5144 25.1622 14.6448 25.2167 14.7637C25.2713 14.8825 25.3543 14.9861 25.4586 15.0651C25.6973 15.2337 25.9642 15.3585 26.2466 15.4339V13.3839Z"
          fill="white"/>
</svg>
