<svg width="24" height="22" viewBox="0 0 24 22" fill="none" xmlns="http://www.w3.org/2000/svg">
<path fill-rule="evenodd" clip-rule="evenodd" d="M18.9227 6.45816H24C24 2.38151 21.5573 0 17.4187 0H6.58133C2.44267 0 0 2.38151 0 6.40616V15.1938C0 19.2185 2.44267 21.6 6.58133 21.6H17.4187C21.5573 21.6 24 19.2185 24 15.1938V14.8195H18.9227C16.5663 14.8195 14.656 12.957 14.656 10.6596C14.656 8.36219 16.5663 6.49976 18.9227 6.49976V6.45816ZM18.9229 8.24707H23.1043C23.5991 8.24707 24.0003 8.63818 24.0003 9.12064V12.1573C23.9945 12.6374 23.5967 13.0253 23.1043 13.0309H19.0189C17.826 13.0465 16.7829 12.2502 16.5123 11.1174C16.3768 10.4141 16.567 9.68845 17.032 9.13484C17.4969 8.58122 18.1891 8.25627 18.9229 8.24707ZM19.1046 11.4398H19.4993C20.0059 11.4398 20.4166 11.0394 20.4166 10.5454C20.4166 10.0515 20.0059 9.65104 19.4993 9.65104H19.1046C18.8623 9.64826 18.629 9.74016 18.4566 9.90624C18.2843 10.0723 18.1873 10.2987 18.1873 10.535C18.1873 11.0307 18.5963 11.4341 19.1046 11.4398ZM5.68569 6.45807H12.459C12.9657 6.45807 13.3764 6.05765 13.3764 5.5637C13.3764 5.06976 12.9657 4.66934 12.459 4.66934H5.68569C5.1832 4.6693 4.7742 5.06342 4.76836 5.5533C4.76833 6.04896 5.17734 6.45237 5.68569 6.45807Z" fill="white"/>
</svg>
