<svg xmlns="http://www.w3.org/2000/svg" width="33.828" height="50.742" viewBox="0 0 33.828 50.742">
  <defs>
    <style>
      .a {
        isolation: isolate;
      }

      .b {
        fill: #22ade4;
      }
    </style>
  </defs>
  <g class="a">
    <path class="b"
      d="M102.873,62.955A16.914,16.914,0,0,0,74,74.914a13.911,13.911,0,0,0,1.091,5.914L87.148,106.4a3.8,3.8,0,0,0,1.537,1.717,4.277,4.277,0,0,0,4.46,0,4.006,4.006,0,0,0,1.568-1.717l12.024-25.57a13.879,13.879,0,0,0,1.091-5.914,16.3,16.3,0,0,0-4.955-11.959ZM96.893,80.893a8.45,8.45,0,1,1,2.479-5.979,8.151,8.151,0,0,1-2.479,5.979Zm0,0"
      transform="translate(-74 -58)" />
  </g>
</svg>