<svg xmlns="http://www.w3.org/2000/svg" width="1em" height="1em" viewBox="0 0 22.513 29.555"><defs><style>.a{fill:#fff;}</style></defs><g transform="translate(0 0)"><path class="a" d="M63.6,29.555H80.915a2.6,2.6,0,0,0,2.6-2.6V8.659H77.452a2.6,2.6,0,0,1-2.6-2.6V0H63.6A2.6,2.6,0,0,0,61,2.6v24.36A2.6,2.6,0,0,0,63.6,29.555ZM67.061,12.18h10.39a.866.866,0,1,1,0,1.732H67.061a.866.866,0,1,1,0-1.732Zm0,3.463h10.39a.866.866,0,1,1,0,1.732H67.061a.866.866,0,1,1,0-1.732Zm0,3.463h10.39a.866.866,0,1,1,0,1.732H67.061a.866.866,0,1,1,0-1.732Zm0,3.463h6.927a.866.866,0,1,1,0,1.732H67.061a.866.866,0,1,1,0-1.732Z" transform="translate(-61 0)"/><path class="a" d="M331.866,15.209h5.554L331,8.789v5.554A.867.867,0,0,0,331.866,15.209Z" transform="translate(-315.414 -8.282)"/></g></svg>