<svg width="12" height="16" viewBox="0 0 12 16" fill="none" xmlns="http://www.w3.org/2000/svg">
<path d="M9.75595 6.9148C9.68429 6.91508 9.61345 6.92953 9.54774 6.95726C9.48203 6.98498 9.42285 7.02541 9.37379 7.07606L6.81191 9.68709L6.81191 0.639397C6.81191 0.502902 6.75599 0.371996 6.65645 0.275479C6.55691 0.178961 6.4219 0.124739 6.28113 0.124739C6.14036 0.124739 6.00535 0.178961 5.90581 0.275479C5.80627 0.371996 5.75035 0.502902 5.75035 0.639397L5.75035 9.72483L3.03631 7.06919C2.98796 7.01843 2.92956 6.97763 2.8646 6.94923C2.79963 6.92082 2.72943 6.90539 2.65819 6.90386C2.58694 6.90232 2.5161 6.91472 2.4499 6.9403C2.3837 6.96588 2.32349 7.00413 2.27286 7.05276C2.22223 7.10139 2.18222 7.15941 2.15522 7.22335C2.12821 7.2873 2.11476 7.35586 2.11567 7.42496C2.11658 7.49405 2.13183 7.56226 2.16051 7.62552C2.18919 7.68878 2.23072 7.74579 2.28261 7.79315L5.90605 11.3409L6.28821 11.7148L10.1416 7.78629C10.241 7.68979 10.2969 7.55898 10.2969 7.42259C10.2969 7.28621 10.241 7.1554 10.1416 7.0589C10.0908 7.01077 10.0304 6.97317 9.96408 6.94839C9.89777 6.92362 9.82696 6.91219 9.75595 6.9148Z" fill="white"/>
<path d="M1.24448 15.1233L11.1638 15.1233C11.295 15.1233 11.4208 15.0515 11.5135 14.9236C11.6062 14.7958 11.6583 14.6224 11.6583 14.4415C11.6583 14.2607 11.6062 14.0873 11.5135 13.9595C11.4208 13.8316 11.295 13.7598 11.1638 13.7598L1.24448 13.7598C1.11334 13.7598 0.987565 13.8316 0.894831 13.9595C0.802098 14.0873 0.75 14.2607 0.75 14.4415C0.75 14.6224 0.802098 14.7958 0.894831 14.9236C0.987565 15.0515 1.11334 15.1233 1.24448 15.1233Z" fill="white"/>
</svg>
