<svg xmlns="http://www.w3.org/2000/svg" width="1em" height="1em" viewBox="0 0 26 26"><defs><style>.a{fill:#fff;}</style></defs><path class="a" d="M25.037,10.575,22.1,9.853a9.7,9.7,0,0,0-.678-1.613L22.79,5.96a.75.75,0,0,0-.113-.916L20.556,2.922a.748.748,0,0,0-.916-.113L17.356,4.177a9.664,9.664,0,0,0-1.6-.672L15.031.569A.75.75,0,0,0,14.3,0h-3a.749.749,0,0,0-.727.568s-.5,2.05-.722,2.936a9.631,9.631,0,0,0-1.7.725L5.784,2.81a.752.752,0,0,0-.916.113L2.746,5.044a.75.75,0,0,0-.113.916L4.1,8.405A9.667,9.667,0,0,0,3.506,9.85l-2.937.725A.75.75,0,0,0,0,11.3v3a.749.749,0,0,0,.568.727l2.938.722a9.676,9.676,0,0,0,.69,1.64l-1.31,2.183A.75.75,0,0,0,3,20.493l2.122,2.122a.753.753,0,0,0,.916.113l2.188-1.311a9.665,9.665,0,0,0,1.628.685l.722,2.936a.749.749,0,0,0,.727.569h3a.75.75,0,0,0,.727-.568l.722-2.936a9.528,9.528,0,0,0,1.664-.707l2.223,1.333a.75.75,0,0,0,.916-.113l2.122-2.122a.75.75,0,0,0,.113-.916l-1.349-2.247a9.607,9.607,0,0,0,.659-1.576l2.937-.722a.75.75,0,0,0,.569-.727v-3A.75.75,0,0,0,25.037,10.575ZM12.8,18.054A5.251,5.251,0,1,1,18.054,12.8,5.257,5.257,0,0,1,12.8,18.054Z"/></svg>