<svg xmlns="http://www.w3.org/2000/svg" width="30.038" height="27.819" viewBox="0 0 30.038 27.819"><defs><style>.a{fill:#fff;}</style></defs><g transform="translate(0 -18.91)"><g transform="translate(6.549 31.089)"><path class="a" d="M134.622,227.814a2.933,2.933,0,0,0-4.1-.8l-4.306,2.945a2.877,2.877,0,0,1,.484.737,2.841,2.841,0,0,1,.243.9c.009.093.014.189.014.285a2.878,2.878,0,0,1-2.875,2.875h-6.342v-1.764H118.9l5.176,1.764-5.175-1.764h5.175a1.065,1.065,0,0,0,.169-.013h0a1.113,1.113,0,0,0,.941-1.046c0-.018,0-.035,0-.053a1.039,1.039,0,0,0-.011-.149,1.075,1.075,0,0,0-.089-.31,1.115,1.115,0,0,0-.368-.446,1.1,1.1,0,0,0-.644-.206h-4.751l-.229-.4c-.089-.119-.965-1.194-3.537-1.194-2.641,0-3.641,1.019-3.738,1.125l-.032.043-.021.016-.149.152h0l4.124,7.761h9.085l9.048-6.455A2.921,2.921,0,0,0,134.622,227.814Zm-9.551,3.944.022.033-.031.015C125.066,231.789,125.069,231.773,125.071,231.758Z" transform="translate(-111.623 -226.498)"/></g><g transform="translate(0 34.568)"><path class="a" d="M4.268,285.8,0,288.034l5.186,9.933,4.34-2.265Z" transform="translate(0 -285.805)"/></g><g transform="translate(7.372 18.91)"><path class="a" d="M140.443,18.91H127.8a2.141,2.141,0,0,0-2.139,2.139V22.6h16.919V21.049A2.141,2.141,0,0,0,140.443,18.91Z" transform="translate(-125.662 -18.91)"/></g><g transform="translate(7.372 24.363)"><path class="a" d="M125.662,111.865v4.187a2.141,2.141,0,0,0,2.139,2.139h12.642a2.141,2.141,0,0,0,2.139-2.139v-4.187Zm5.406,3.939H128.3V114.04h2.763Z" transform="translate(-125.662 -111.865)"/></g></g></svg>