<svg xmlns="http://www.w3.org/2000/svg" width="19.981" height="23.948" viewBox="0 0 19.981 23.948"><defs><style>.a{fill:#fff;}</style></defs><g transform="translate(-3.177)"><path class="a" d="M16.357,5.919h2.358l-.041-1.436H16.681L18.554.611,16.435.434,14.574,1.861,15.194.247,13.022,0,12.31,2.016,11.139.455,7.918.343l2.131,4.14L8.125,4.421v1.5H9.979c-3.954,2.314-6.8,8.363-6.8,11.63,0,4.1,4.473,6.4,9.99,6.4s9.99-2.3,9.99-6.4C23.159,14.281,20.311,8.233,16.357,5.919ZM14,19.513v1.418H12.64V19.611a5.6,5.6,0,0,1-2.364-.6l.417-1.626A4.9,4.9,0,0,0,13,18c.792,0,1.335-.306,1.335-.861,0-.53-.445-.864-1.474-1.211-1.489-.5-2.5-1.2-2.5-2.544a2.569,2.569,0,0,1,2.35-2.475V9.586h1.363V10.81a5.013,5.013,0,0,1,2.016.458l-.4,1.572a4.62,4.62,0,0,0-2-.473c-.9,0-1.2.389-1.2.778,0,.46.487.751,1.669,1.2,1.654.586,2.322,1.349,2.322,2.6A2.664,2.664,0,0,1,14,19.513Z"/></g></svg>