<svg xmlns="http://www.w3.org/2000/svg" width="18.703" height="24.554" viewBox="0 0 18.703 24.554"><defs><style>.a{fill:#fff;}</style></defs><g transform="translate(-61)"><path class="a" d="M63.158,24.554H77.545A2.16,2.16,0,0,0,79.7,22.4V7.194H74.668A2.16,2.16,0,0,1,72.51,5.036V0H63.158A2.16,2.16,0,0,0,61,2.158V22.4A2.16,2.16,0,0,0,63.158,24.554Zm2.877-14.435h8.632a.719.719,0,1,1,0,1.439H66.036a.719.719,0,1,1,0-1.439Zm0,2.877h8.632a.719.719,0,1,1,0,1.439H66.036a.719.719,0,1,1,0-1.439Zm0,2.877h8.632a.719.719,0,0,1,0,1.439H66.036a.719.719,0,0,1,0-1.439Zm0,2.877H71.79a.719.719,0,0,1,0,1.439H66.036a.719.719,0,0,1,0-1.439Z"/><path class="a" d="M331.719,14.122h4.614L331,8.789V13.4A.72.72,0,0,0,331.719,14.122Z" transform="translate(-257.052 -8.368)"/></g></svg>