<svg xmlns="http://www.w3.org/2000/svg" width="24.81" height="24.809" viewBox="0 0 24.81 24.809"><defs><style>.a{fill:#fff;}</style></defs><g transform="translate(0 -0.012)"><g transform="translate(0 21.914)"><path class="a" d="M23.357,451.988H1.454A1.454,1.454,0,0,0,0,453.442v.727a.727.727,0,0,0,.727.727H24.083a.727.727,0,0,0,.727-.727v-.727A1.454,1.454,0,0,0,23.357,451.988Z" transform="translate(0 -451.988)"/></g><g transform="translate(8.722 8.83)"><path class="a" d="M185.185,181.988h-4.458a.727.727,0,0,0-.727.727v10.9h5.912v-10.9A.727.727,0,0,0,185.185,181.988Z" transform="translate(-180 -181.988)"/></g><g transform="translate(1.454 11.738)"><path class="a" d="M35.088,241.988H30.727a.727.727,0,0,0-.727.727v8h5.815v-8A.727.727,0,0,0,35.088,241.988Z" transform="translate(-30 -241.988)"/></g><g transform="translate(13.981 0.012)"><path class="a" d="M298.547,6.22,294.18.3a.722.722,0,0,0-1.151,0L288.662,6.22a.722.722,0,0,0,.576,1.156h1.488V20.459h5.805V7.376h1.44A.722.722,0,0,0,298.547,6.22Z" transform="translate(-288.515 -0.012)"/></g></g></svg>