<svg width="24" height="24" viewBox="0 0 24 24" fill="none" xmlns="http://www.w3.org/2000/svg">
<path d="M12.1704 10.9098C12.016 10.8885 11.8591 10.8997 11.7088 10.9425C11.5585 10.9853 11.4179 11.059 11.2951 11.1592C11.1723 11.2594 11.0698 11.3842 10.9935 11.5263C10.9172 11.6683 10.8687 11.8249 10.8508 11.9867L10.8508 15.8666C10.8813 16.1647 11.0161 16.4405 11.2292 16.641C11.4424 16.8414 11.7189 16.9523 12.0055 16.9523C12.2921 16.9523 12.5685 16.8414 12.7817 16.641C12.9948 16.4405 13.1296 16.1647 13.1602 15.8666L13.1602 11.9867C13.138 11.7158 13.0276 11.461 12.8475 11.265C12.6673 11.0689 12.4283 10.9436 12.1704 10.9098Z" fill="#3B5B7B"/>
<path d="M12.0123 9.29021C12.2419 9.28755 12.4657 9.21685 12.6551 9.08706C12.8446 8.95726 12.9914 8.77419 13.0768 8.561C13.1623 8.34781 13.1826 8.11407 13.1352 7.88934C13.0878 7.66461 12.9748 7.45898 12.8105 7.29845C12.6463 7.13793 12.4381 7.02971 12.2123 6.98749C11.9866 6.94527 11.7534 6.97095 11.5422 7.06126C11.331 7.15158 11.1514 7.30249 11.026 7.49491C10.9006 7.68732 10.835 7.9126 10.8377 8.14226C10.8394 8.29477 10.8712 8.44544 10.9311 8.58567C10.9911 8.72589 11.0781 8.85293 11.1872 8.95953C11.2963 9.06613 11.4253 9.1502 11.5669 9.20694C11.7084 9.26367 11.8598 9.29197 12.0123 9.29021Z" fill="#3B5B7B"/>
<circle cx="12" cy="12" r="11" stroke="#3B5B7B" stroke-width="2"/>
</svg>
