<svg width="327" height="96" viewBox="0 0 327 96" fill="none" xmlns="http://www.w3.org/2000/svg">
<mask id="mask0" mask-type="alpha" maskUnits="userSpaceOnUse" x="0" y="0" width="327" height="96">
<path d="M0 8C0 3.58172 3.58172 0 8 0H319C323.418 0 327 3.58172 327 8V88C327 92.4183 323.418 96 319 96H8C3.58173 96 0 92.4183 0 88V8Z" fill="url(#paint0_radial)"/>
</mask>
<g mask="url(#mask0)">
<path opacity="0.45" d="M358.598 113.402C403.491 77.4866 403.491 19.257 358.598 -16.6579C313.704 -52.5728 240.917 -52.5728 196.023 -16.6579C151.13 19.257 151.13 77.4866 196.023 113.402C240.917 149.316 313.704 149.316 358.598 113.402Z" fill="url(#paint1_linear)"/>
<g opacity="0.55">
<path opacity="0.32" d="M-105.58 -255.2L184.15 116.824" stroke="white" stroke-miterlimit="10"/>
<path opacity="0.32" d="M-112.38 -249.52L177.35 122.504" stroke="white" stroke-miterlimit="10"/>
<path opacity="0.32" d="M-119.18 -243.84L170.55 128.184" stroke="white" stroke-miterlimit="10"/>
<path opacity="0.32" d="M-125.98 -238.168L163.75 133.864" stroke="white" stroke-miterlimit="10"/>
<path opacity="0.32" d="M-132.78 -232.488L156.95 139.544" stroke="white" stroke-miterlimit="10"/>
<path opacity="0.32" d="M-139.58 -226.808L150.15 145.224" stroke="white" stroke-miterlimit="10"/>
<path opacity="0.32" d="M-146.39 -221.128L143.34 150.904" stroke="white" stroke-miterlimit="10"/>
<path opacity="0.32" d="M-153.19 -215.448L136.54 156.584" stroke="white" stroke-miterlimit="10"/>
<path opacity="0.32" d="M-159.99 -209.768L129.74 162.256" stroke="white" stroke-miterlimit="10"/>
<path opacity="0.32" d="M-166.79 -204.088L122.94 167.936" stroke="white" stroke-miterlimit="10"/>
<path opacity="0.32" d="M-173.59 -198.408L116.14 173.616" stroke="white" stroke-miterlimit="10"/>
<path opacity="0.32" d="M-180.39 -192.728L109.34 179.296" stroke="white" stroke-miterlimit="10"/>
<path opacity="0.32" d="M-187.19 -187.056L102.54 184.976" stroke="white" stroke-miterlimit="10"/>
<path opacity="0.32" d="M-194 -181.376L95.73 190.656" stroke="white" stroke-miterlimit="10"/>
</g>
<path d="M366.835 104.653C406.691 72.7683 406.691 21.0739 366.835 -10.8102C326.98 -42.6944 262.362 -42.6944 222.507 -10.8102C182.652 21.0739 182.652 72.7684 222.507 104.653C262.362 136.537 326.98 136.537 366.835 104.653Z" fill="url(#paint2_linear)"/>
<path opacity="0.28" d="M1.76921 68.9624C-26.6979 76.4638 -42.1738 101.007 -32.797 123.78C-23.4203 146.554 7.2583 158.935 35.7254 151.433C64.1926 143.932 79.6684 119.389 70.2917 96.6154C60.9149 73.8416 30.2364 61.461 1.76921 68.9624Z" fill="url(#paint3_linear)"/>
</g>
<defs>
<radialGradient id="paint0_radial" cx="0" cy="0" r="1" gradientUnits="userSpaceOnUse" gradientTransform="translate(11.6786 12.8) rotate(14.7811) scale(326.113 297.64)">
<stop stop-color="white"/>
<stop offset="1" stop-color="white" stop-opacity="0.49"/>
</radialGradient>
<linearGradient id="paint1_linear" x1="61705.9" y1="72103.6" x2="154704" y2="72103.6" gradientUnits="userSpaceOnUse">
<stop stop-color="#B4E4FF"/>
<stop offset="1" stop-color="#66C9FF"/>
</linearGradient>
<linearGradient id="paint2_linear" x1="222.507" y1="-10.8102" x2="313.418" y2="117.112" gradientUnits="userSpaceOnUse">
<stop stop-color="#BAE9FF"/>
<stop offset="1" stop-color="#78D3FB"/>
</linearGradient>
<linearGradient id="paint3_linear" x1="34.3119" y1="104.604" x2="2.74864" y2="152.698" gradientUnits="userSpaceOnUse">
<stop stop-color="#B4EAFF"/>
<stop offset="1" stop-color="#00AEF3"/>
</linearGradient>
</defs>
</svg>
