<svg width="25" height="25" viewBox="0 0 25 25" fill="none" xmlns="http://www.w3.org/2000/svg">
<path d="M24.8662 23.1871L13.6128 0.680255C13.5079 0.475441 13.3485 0.303558 13.1521 0.183534C12.9558 0.0635092 12.7301 0 12.5 0C12.2699 0 12.0442 0.0635092 11.8479 0.183534C11.6515 0.303558 11.4921 0.475441 11.3872 0.680255L0.133758 23.1871C0.0378413 23.3774 -0.00782491 23.5891 0.00109575 23.8021C0.0100164 24.015 0.0732278 24.2222 0.184727 24.4038C0.296226 24.5855 0.452312 24.7356 0.63816 24.84C0.824008 24.9443 1.03345 24.9995 1.24659 25.0001H23.7534C23.9665 24.9995 24.176 24.9443 24.3618 24.84C24.5477 24.7356 24.7038 24.5855 24.8153 24.4038C24.9268 24.2222 24.99 24.015 24.9989 23.8021C25.0078 23.5891 24.9622 23.3774 24.8662 23.1871ZM11.2496 9.99557C11.2496 9.66395 11.3814 9.34591 11.6158 9.11142C11.8503 8.87693 12.1684 8.7452 12.5 8.7452C12.8316 8.7452 13.1497 8.87693 13.3842 9.11142C13.6186 9.34591 13.7504 9.66395 13.7504 9.99557V16.2475C13.7504 16.5791 13.6186 16.8971 13.3842 17.1316C13.1497 17.3661 12.8316 17.4978 12.5 17.4978C12.1684 17.4978 11.8503 17.3661 11.6158 17.1316C11.3814 16.8971 11.2496 16.5791 11.2496 16.2475V9.99557ZM12.5 21.249C12.1684 21.249 11.8503 21.1172 11.6158 20.8828C11.3814 20.6483 11.2496 20.3302 11.2496 19.9986C11.2496 19.667 11.3814 19.3489 11.6158 19.1144C11.8503 18.88 12.1684 18.7482 12.5 18.7482C12.8316 18.7482 13.1497 18.88 13.3842 19.1144C13.6186 19.3489 13.7504 19.667 13.7504 19.9986C13.7504 20.3302 13.6186 20.6483 13.3842 20.8828C13.1497 21.1172 12.8316 21.249 12.5 21.249Z" fill="#E53935"/>
</svg>
