<svg xmlns="http://www.w3.org/2000/svg" width="25.104" height="20.494" viewBox="0 0 25.104 20.494"><defs><style>.a{fill:#fff;}</style></defs><g transform="translate(-56 -67)"><path class="a" d="M66.247,85.957a.427.427,0,0,1-.033-.217c.012-.058-.026-.107-.111-.144s-.129-.067-.129-.088-.061-.038-.184-.048l-.184-.015h-5a2.57,2.57,0,0,1-2.561-2.562V71.611a2.57,2.57,0,0,1,2.561-2.562h5.124a.483.483,0,0,0,.328-.1.527.527,0,0,0,.159-.312,2.718,2.718,0,0,0,.049-.376,3.885,3.885,0,0,0-.009-.424c-.011-.171-.015-.278-.015-.321A.519.519,0,0,0,65.735,67H60.611A4.619,4.619,0,0,0,56,71.611V82.882a4.621,4.621,0,0,0,4.611,4.612h5.124a.487.487,0,0,0,.328-.1.533.533,0,0,0,.16-.312,2.7,2.7,0,0,0,.048-.376,3.885,3.885,0,0,0-.009-.424c-.011-.171-.015-.278-.015-.321Zm0,0"/><path class="a" d="M99.68,78.1l-8.71-8.71a1.025,1.025,0,0,0-1.746.721v4.61H82.052a1.039,1.039,0,0,0-1.025,1.025v6.149a1.041,1.041,0,0,0,1.025,1.025h7.173V87.53a1.019,1.019,0,0,0,1.746.72l8.71-8.71a1.006,1.006,0,0,0,0-1.441Zm0,0" transform="translate(-18.879 -1.574)"/></g></svg>