<svg width="138" height="104" viewBox="0 0 138 104" fill="none" xmlns="http://www.w3.org/2000/svg">
<g filter="url(#filter0_d)">
<path d="M119.376 35.296C121.352 40.1597 122.25 45.3939 122.009 50.6381C121.767 55.8822 120.391 61.0116 117.976 65.6728C114.206 72.9458 107.98 78.8766 100.327 81.8874C94.3023 84.2498 87.4669 84.9657 81.309 82.6524C73.6814 79.7852 68.4971 73.9659 59.7689 74.4117C52.1494 74.8011 46.6468 80.924 39.3974 82.3261C21.6186 85.7489 9.11625 61.9907 17.854 47.6814C20.7758 42.8892 26.058 38.4529 31.8731 38.1232C36.1087 37.8881 40.2163 39.4183 44.4695 39.2502C50.5276 39.0168 56.947 36.4746 60.7629 31.6487C63.6266 28.0508 64.4392 23.2909 67.7499 20.0025C74.4741 13.3191 84.7359 12.6886 93.5863 14.3823C104.037 16.3851 113.07 22.8311 118.001 32.3256C118.509 33.2952 118.961 34.2836 119.376 35.296Z" fill="#E4F8FF"/>
</g>
<g filter="url(#filter1_d)">
<path d="M82.9373 34.3283L108.782 52.5977C110.341 53.7117 109.951 55.494 107.946 56.608L56.4802 85.0703C54.0294 86.4628 50.7988 86.4628 49.295 85.0703L24.9544 62.5678C23.6733 61.3982 24.6202 59.5044 27.0153 58.3904L76.9775 34.3283C78.8713 33.3814 81.6005 33.3814 82.9373 34.3283Z" fill="#21ACE3"/>
</g>
<path opacity="0.2" d="M80.8761 44.9109C77.924 46.3591 73.9694 46.3591 72.0199 44.9109C70.0705 43.4628 70.9059 41.1234 73.858 39.6752C76.7544 38.2827 80.5976 38.2827 82.5471 39.6752C84.4966 41.1234 83.7725 43.4071 80.8761 44.9109Z" fill="white"/>
<path opacity="0.3" d="M80.0412 44.2982C77.8132 45.4122 74.7497 45.4122 73.2458 44.2982C71.742 43.1842 72.4104 41.4018 74.6383 40.2879C76.8663 39.2296 79.8184 39.2296 81.3222 40.2879C82.8261 41.3461 82.2691 43.1842 80.0412 44.2982Z" fill="white"/>
<path opacity="0.55" d="M78.5365 41.9039C78.7593 42.071 78.815 42.2381 78.6479 42.4609H79.6505C79.7619 42.2381 79.8176 41.9039 79.5391 41.6254L79.9847 41.4026L79.4277 41.0127L78.9264 41.2355C78.1466 40.9013 77.0884 40.957 76.1415 41.4583C75.1946 41.9039 74.8604 42.5723 75.2503 43.0736L74.8047 43.2964L75.3617 43.6863L75.7516 43.4635C76.1972 43.6863 76.6985 43.742 77.1441 43.6863L77.3112 43.0736C76.977 43.1293 76.6428 43.0736 76.42 42.9065C76.0301 42.628 76.1972 42.1824 76.8099 41.9039C77.4782 41.6254 78.1466 41.6254 78.5365 41.9039Z" fill="white"/>
<path opacity="0.3" d="M62.3844 75.8236L39.7705 56.3289L48.6824 51.9844L71.4634 70.9221L62.3844 75.8236Z" fill="#21ACE3"/>
<path opacity="0.3" d="M46.2873 70.5882L33.5879 59.337L36.9855 57.666L49.685 68.8059L46.2873 70.5882Z" fill="white"/>
<path opacity="0.3" d="M72.8004 51.2601L64.0557 44.4648L67.0634 42.9609L75.8639 49.7005L72.8004 51.2601Z" fill="white"/>
<g filter="url(#filter2_d)">
<path d="M83.5496 25.0266L109.394 43.2959C110.954 44.4099 110.564 46.1923 108.559 47.3063L57.0368 75.7686C54.586 77.1611 51.3555 77.1611 49.8516 75.7686L25.511 53.2661C24.2299 52.0964 25.1768 50.2026 27.5719 49.0886L77.5341 25.0266C79.4836 24.0797 82.1572 24.0797 83.5496 25.0266Z" fill="#368CFB"/>
</g>
<path opacity="0.2" d="M81.4884 35.6092C78.5363 37.0574 74.5817 37.0574 72.6322 35.6092C70.6828 34.161 71.5182 31.8216 74.4703 30.3735C77.3667 28.981 81.2099 28.981 83.1594 30.3735C85.1089 31.8216 84.3848 34.1053 81.4884 35.6092Z" fill="#E4F8FF"/>
<path opacity="0.3" d="M80.6535 34.9974C78.4255 36.1114 75.362 36.1114 73.8581 34.9974C72.3543 33.8834 73.0227 32.1011 75.2506 30.9871C77.4786 29.9288 80.4307 29.9288 81.9345 30.9871C83.4384 32.0454 82.8814 33.8834 80.6535 34.9974Z" fill="#E4F8FF"/>
<path opacity="0.55" d="M79.1488 32.6021C79.3716 32.7692 79.4273 32.9363 79.2602 33.1591H80.2628C80.3742 32.9363 80.4299 32.6021 80.1514 32.3236L80.597 32.1008L80.04 31.7109L79.5387 31.9337C78.7589 31.5995 77.7007 31.6552 76.7538 32.1565C75.8069 32.6021 75.4727 33.2705 75.8626 33.7718L75.417 33.9946L75.974 34.3845L76.3639 34.1617C76.8095 34.3845 77.3108 34.4402 77.7564 34.3845L77.9235 33.7718C77.5893 33.8275 77.2551 33.7718 77.0323 33.6047C76.6424 33.3262 76.8095 32.8806 77.4222 32.6021C78.0906 32.3236 78.7589 32.3236 79.1488 32.6021Z" fill="#E4F8FF"/>
<path opacity="0.3" d="M62.941 66.5229L40.3828 47.0281L49.239 42.6836L72.0757 61.6213L62.941 66.5229Z" fill="#21ACE3"/>
<path opacity="0.3" d="M46.8996 61.2875L34.2002 50.0362L37.5978 48.3652L50.2973 59.5051L46.8996 61.2875Z" fill="#21ACE3"/>
<path opacity="0.3" d="M73.4128 41.9584L64.6123 35.1631L67.6758 33.6592L76.4762 40.3988L73.4128 41.9584Z" fill="#E4F8FF"/>
<g filter="url(#filter3_d)">
<path d="M84.5555 13.7102L110.4 31.9795C111.959 33.0935 111.57 34.8759 109.564 35.9899L58.0983 64.4522C55.6476 65.8447 52.417 65.8447 50.9131 64.4522L26.5726 41.9497C25.2915 40.78 26.2384 38.8862 28.6334 37.7722L78.5956 13.7102C80.5451 12.7633 83.2187 12.7633 84.5555 13.7102Z" fill="#4AC6F8"/>
</g>
<path d="M82.5499 24.2371C79.5979 25.6853 75.6432 25.6853 73.6938 24.2371C71.7443 22.7889 72.5798 20.4496 75.5318 19.0014C78.4282 17.6089 82.2714 17.6089 84.2209 19.0014C86.1147 20.4496 85.4463 22.7889 82.5499 24.2371Z" fill="#E4F8FF"/>
<path d="M81.6583 23.6244C79.4304 24.7384 76.3669 24.7384 74.863 23.6244C73.3591 22.5104 74.0275 20.728 76.2555 19.614C78.4835 18.5557 81.4355 18.5557 82.9394 19.614C84.4433 20.728 83.8863 22.5104 81.6583 23.6244Z" fill="#4AC6F8"/>
<path d="M80.2104 21.2301C80.4332 21.3972 80.4889 21.5643 80.3218 21.787H81.3243C81.4357 21.5643 81.4914 21.2301 81.213 20.9516L81.6585 20.7288L81.1016 20.3389L80.6003 20.5617C79.8205 20.2275 78.7622 20.2832 77.8153 20.7845C76.8684 21.2301 76.5342 21.8984 76.9241 22.3997L76.4785 22.6225L77.0355 23.0124L77.4254 22.7896C77.871 23.0124 78.3723 23.0681 78.8179 23.0124L78.985 22.3997C78.6508 22.4554 78.3166 22.3997 78.0938 22.2326C77.7039 21.9541 77.871 21.5086 78.4837 21.2301C79.0964 20.9516 79.8205 20.9516 80.2104 21.2301Z" fill="#E4F8FF"/>
<path d="M64.0026 55.2065L41.3887 35.6561L50.3005 31.3115L73.1372 50.2493L64.0026 55.2065Z" fill="#E4F8FF"/>
<path d="M47.9054 49.9711L35.2617 38.6641L38.6037 37.0488L51.3588 48.1887L47.9054 49.9711Z" fill="#E4F8FF"/>
<path d="M74.4733 30.5863L65.6729 23.8467L68.6806 22.3428L77.4811 29.0267L74.4733 30.5863Z" fill="#E4F8FF"/>
<path d="M94.9844 82.5859V86.5517" stroke="#21ACE3" stroke-width="2" stroke-miterlimit="10" stroke-linecap="round"/>
<path d="M96.9691 84.5693H93" stroke="#21ACE3" stroke-width="2" stroke-miterlimit="10" stroke-linecap="round"/>
<path d="M112.984 19.5859V23.5517" stroke="#21ACE3" stroke-width="2" stroke-miterlimit="10" stroke-linecap="round"/>
<path d="M114.969 21.5693H111" stroke="#21ACE3" stroke-width="2" stroke-miterlimit="10" stroke-linecap="round"/>
<path d="M23.9844 16.5859V20.5517" stroke="#21ACE3" stroke-width="2" stroke-miterlimit="10" stroke-linecap="round"/>
<path d="M25.9691 18.5693H22" stroke="#21ACE3" stroke-width="2" stroke-miterlimit="10" stroke-linecap="round"/>
<defs>
<filter id="filter0_d" x="0" y="0.585938" width="137.048" height="100.481" filterUnits="userSpaceOnUse" color-interpolation-filters="sRGB">
<feFlood flood-opacity="0" result="BackgroundImageFix"/>
<feColorMatrix in="SourceAlpha" type="matrix" values="0 0 0 0 0 0 0 0 0 0 0 0 0 0 0 0 0 0 127 0" result="hardAlpha"/>
<feOffset dy="2"/>
<feGaussianBlur stdDeviation="7.5"/>
<feColorMatrix type="matrix" values="0 0 0 0 0.368627 0 0 0 0 0.584314 0 0 0 0 0.784314 0 0 0 0.2 0"/>
<feBlend mode="normal" in2="BackgroundImageFix" result="effect1_dropShadow"/>
<feBlend mode="normal" in="SourceGraphic" in2="effect1_dropShadow" result="shape"/>
</filter>
<filter id="filter1_d" x="9.38184" y="20.6182" width="115.358" height="82.4965" filterUnits="userSpaceOnUse" color-interpolation-filters="sRGB">
<feFlood flood-opacity="0" result="BackgroundImageFix"/>
<feColorMatrix in="SourceAlpha" type="matrix" values="0 0 0 0 0 0 0 0 0 0 0 0 0 0 0 0 0 0 127 0" result="hardAlpha"/>
<feOffset dy="2"/>
<feGaussianBlur stdDeviation="7.5"/>
<feColorMatrix type="matrix" values="0 0 0 0 0.368627 0 0 0 0 0.584314 0 0 0 0 0.784314 0 0 0 0.2 0"/>
<feBlend mode="normal" in2="BackgroundImageFix" result="effect1_dropShadow"/>
<feBlend mode="normal" in="SourceGraphic" in2="effect1_dropShadow" result="shape"/>
</filter>
<filter id="filter2_d" x="9.93848" y="11.3164" width="115.414" height="82.4965" filterUnits="userSpaceOnUse" color-interpolation-filters="sRGB">
<feFlood flood-opacity="0" result="BackgroundImageFix"/>
<feColorMatrix in="SourceAlpha" type="matrix" values="0 0 0 0 0 0 0 0 0 0 0 0 0 0 0 0 0 0 127 0" result="hardAlpha"/>
<feOffset dy="2"/>
<feGaussianBlur stdDeviation="7.5"/>
<feColorMatrix type="matrix" values="0 0 0 0 0.368627 0 0 0 0 0.584314 0 0 0 0 0.784314 0 0 0 0.2 0"/>
<feBlend mode="normal" in2="BackgroundImageFix" result="effect1_dropShadow"/>
<feBlend mode="normal" in="SourceGraphic" in2="effect1_dropShadow" result="shape"/>
</filter>
<filter id="filter3_d" x="11" y="0" width="115.358" height="82.4965" filterUnits="userSpaceOnUse" color-interpolation-filters="sRGB">
<feFlood flood-opacity="0" result="BackgroundImageFix"/>
<feColorMatrix in="SourceAlpha" type="matrix" values="0 0 0 0 0 0 0 0 0 0 0 0 0 0 0 0 0 0 127 0" result="hardAlpha"/>
<feOffset dy="2"/>
<feGaussianBlur stdDeviation="7.5"/>
<feColorMatrix type="matrix" values="0 0 0 0 0.368627 0 0 0 0 0.584314 0 0 0 0 0.784314 0 0 0 0.2 0"/>
<feBlend mode="normal" in2="BackgroundImageFix" result="effect1_dropShadow"/>
<feBlend mode="normal" in="SourceGraphic" in2="effect1_dropShadow" result="shape"/>
</filter>
</defs>
</svg>
