<svg xmlns="http://www.w3.org/2000/svg" xmlns:xlink="http://www.w3.org/1999/xlink" width="14.645" height="28.107" viewBox="0 0 14.645 28.107"><defs><style>.a{fill:#fff;}.b{clip-path:url(#a);}</style><clipPath id="a"><rect class="a" width="14.645" height="28.107"/></clipPath></defs><g transform="translate(-77 -50)"><g transform="translate(77 50)"><g class="b" transform="translate(0 0)"><path class="a" d="M91.4,67.082a5.7,5.7,0,0,0-.493-1.2,4.07,4.07,0,0,0-.83-.994,9.8,9.8,0,0,0-.97-.783,9.468,9.468,0,0,0-1.182-.666q-.752-.367-1.19-.548T85.471,62.4q-.736-.281-1.1-.431t-.947-.423a5.455,5.455,0,0,1-.877-.485,6.779,6.779,0,0,1-.618-.516,1.769,1.769,0,0,1-.463-.65,2.076,2.076,0,0,1-.133-.752,2.053,2.053,0,0,1,.94-1.738,4.069,4.069,0,0,1,2.427-.673,5.226,5.226,0,0,1,1.339.18,6.93,6.93,0,0,1,1.165.407,7.918,7.918,0,0,1,.917.5c.287.182.491.321.611.415s.2.157.227.188a.5.5,0,0,0,.422.11.427.427,0,0,0,.36-.251L91.014,56a.454.454,0,0,0-.079-.6c-.063-.063-.141-.136-.235-.22s-.3-.234-.611-.454a7.707,7.707,0,0,0-.994-.588,10.156,10.156,0,0,0-1.363-.523,8.68,8.68,0,0,0-1.73-.36V50.5a.482.482,0,0,0-.5-.5H83.388a.51.51,0,0,0-.5.5v2.818a7.169,7.169,0,0,0-3.993,2.1,5.359,5.359,0,0,0-1.534,3.789,5.464,5.464,0,0,0,.133,1.221,6.292,6.292,0,0,0,.329,1.042,3.83,3.83,0,0,0,.555.909,9.816,9.816,0,0,0,.681.767,5.492,5.492,0,0,0,.838.665q.516.345.884.556t.979.485q.611.273.963.415t.964.391q.845.329,1.253.509t1.033.5a4.307,4.307,0,0,1,.916.587,2.921,2.921,0,0,1,.525.658,1.585,1.585,0,0,1,.235.83,2.19,2.19,0,0,1-.964,1.91,3.789,3.789,0,0,1-2.231.674,5.4,5.4,0,0,1-1.159-.126,8.173,8.173,0,0,1-3.8-1.956l-.032-.032a.389.389,0,0,0-.375-.141.489.489,0,0,0-.36.189L77.11,71.372a.476.476,0,0,0,.032.642c.052.063.144.157.274.283a9.144,9.144,0,0,0,.728.587,9.569,9.569,0,0,0,2.748,1.448,9.843,9.843,0,0,0,2,.485v2.74a.506.506,0,0,0,.5.5H85.5a.482.482,0,0,0,.5-.5v-2.74a6.72,6.72,0,0,0,4.048-2.138,5.958,5.958,0,0,0,1.558-4.125,5.168,5.168,0,0,0-.205-1.472Zm0,0" transform="translate(-77 -50)"/></g></g></g></svg>