<svg width="119" height="106" viewBox="0 0 119 106" fill="none" xmlns="http://www.w3.org/2000/svg">
    <path d="M34.5289 30.2308C36.3184 30.6826 89.4683 30.9124 89.4683 30.9124L91.3967 34.9046L90.876 63.3992V69.2064L87.7405 70.7877L83.3476 71.7692L83.498 55.1071L83.5713 44.1782L66.7752 40.408L32.2148 32.1159L33.26 30.2308H34.5289Z" fill="#3B5B7B" />
    <g filter="url(#filter0_d)">
        <path d="M29.1405 30.8295C29.1676 29.7576 30.4597 29.2217 31.2837 28.8736C32.5471 28.3675 33.8813 28.0652 35.2374 27.9778C36.7849 27.8722 38.3323 27.9465 39.8566 27.9778L48.6306 28.1342L49.9846 28.1577L74.5968 28.5997L85.042 28.7836L89.2743 28.8618C89.7351 28.9116 90.1765 29.0759 90.5592 29.3401C90.9419 29.6042 91.2541 29.96 91.4678 30.3757C92.168 31.7879 92.0674 35.8248 92.0674 35.8248V55.9393C92.0674 58.8262 92.1564 61.7092 92.1061 64.5961C92.0791 66.1608 92.3808 67.8899 91.8353 69.3959C90.8682 72.0794 87.6417 72.9165 85.1271 73.3077C85.1271 72.6974 84.8563 71.4418 84.8525 70.8354C85.661 70.9645 86.9299 70.8354 87.5992 70.3621C88.1877 69.9777 88.6718 69.4506 89.0074 68.8287C89.2535 68.1864 89.3578 67.4975 89.313 66.8102C89.2511 62.6989 89.2472 58.5954 89.2395 54.4646L89.2317 41.8568V34.5457C89.2317 33.8572 89.2008 33.0905 88.7172 32.5898C88.2336 32.0891 87.5373 32.0813 86.8874 32.0617C69.2877 31.5923 51.6855 31.3198 34.0807 31.2441" fill="#21ACE3" />
    </g>
    <path d="M61.7781 39.8185C69.6158 40.0462 76.1539 33.8718 76.3814 26.0276C76.6089 18.1835 70.4396 11.6399 62.6019 11.4123C54.7642 11.1846 48.2261 17.359 47.9986 25.2031C47.7711 33.0473 53.9404 39.5908 61.7781 39.8185Z" fill="white" />
    <g filter="url(#filter1_d)">
        <path d="M62.2596 37.4799C68.7683 37.4799 74.0446 32.1992 74.0446 25.6851C74.0446 19.171 68.7683 13.8904 62.2596 13.8904C55.7509 13.8904 50.4746 19.171 50.4746 25.6851C50.4746 32.1992 55.7509 37.4799 62.2596 37.4799Z" fill="#368CFB" />
    </g>
    <g>
        <path fill-rule="evenodd" clip-rule="evenodd" d="M62.5412 19.5521L62.5414 19.5518V19.5524L66.1216 25.498L66.1199 25.499L66.1215 25.4998L62.5414 27.6178V27.618L62.5412 27.6179L62.541 27.618V27.6178L58.9607 25.4998L58.9624 25.499L58.9607 25.498L62.5407 19.5529L62.541 19.5518L62.5412 19.5521ZM62.5388 31.2217L58.9607 26.1754L62.5407 28.2922L66.1228 26.1754L62.5414 31.2235V31.2253L62.5407 31.2244L62.54 31.2253L62.5388 31.2217Z" fill="white" />
    </g>
    <path d="M90.9846 90.5877C98.8223 90.8154 105.36 84.641 105.588 76.7969C105.815 68.9527 99.6462 62.4092 91.8085 62.1815C83.9708 61.9538 77.4326 68.1282 77.2052 75.9724C76.9777 83.8165 83.147 90.3601 90.9846 90.5877Z" fill="white" />
    <g filter="url(#filter3_d)">
        <path d="M91.5389 88.167C98.0475 88.167 103.274 82.8863 103.212 76.3723C103.151 69.8582 97.8247 64.5775 91.316 64.5775C84.8073 64.5775 79.5809 69.8582 79.6424 76.3723C79.704 82.8863 85.0302 88.167 91.5389 88.167Z" fill="#368CFB" />
    </g>
    <g>
        <g>
            <path d="M93.3257 77.2854C93.3257 76.2396 92.7055 75.881 91.4651 75.7316C90.579 75.612 90.4018 75.373 90.4018 74.9546C90.4018 74.5362 90.6972 74.2674 91.2879 74.2674C91.8195 74.2674 92.1149 74.4467 92.2625 74.8949C92.2921 74.9845 92.3807 75.0443 92.4693 75.0443H92.9418C93.0599 75.0443 93.1485 74.9546 93.1485 74.8351V74.8052C93.0304 74.1478 92.4988 73.6398 91.8195 73.5801V72.8629C91.8195 72.7434 91.7309 72.6537 91.5832 72.6238H91.1402C91.0221 72.6238 90.9335 72.7135 90.9039 72.8629V73.5502C90.0179 73.6697 89.4568 74.2674 89.4568 75.0144C89.4568 76.0005 90.0474 76.3889 91.2879 76.5384C92.1149 76.6878 92.3807 76.8671 92.3807 77.3452C92.3807 77.8234 91.9671 78.152 91.406 78.152C90.6381 78.152 90.3723 77.8233 90.2837 77.3751C90.2542 77.2556 90.1656 77.1958 90.077 77.1958H89.5749C89.4568 77.1958 89.3682 77.2854 89.3682 77.405V77.4349C89.4863 78.1819 89.9588 78.7197 90.9335 78.8692V79.5864C90.9335 79.7058 91.0221 79.7955 91.1697 79.8254H91.6127C91.7309 79.8254 91.8195 79.7357 91.8491 79.5864V78.8692C92.7351 78.7197 93.3257 78.0922 93.3257 77.2854Z" fill="white" />
        </g>
        <g>
            <path d="M90.0019 80.6288C87.6697 79.7838 86.4736 77.1582 87.3408 74.8342C87.7893 73.5667 88.776 72.6009 90.0019 72.1482C90.1215 72.0879 90.1813 71.9974 90.1813 71.8464V71.4239C90.1813 71.3032 90.1215 71.2126 90.0019 71.1825C89.972 71.1825 89.9122 71.1825 89.8823 71.2126C87.0417 72.118 85.4869 75.1663 86.3839 78.0334C86.9221 79.7234 88.2079 81.0212 89.8823 81.5644C90.0019 81.6248 90.1215 81.5644 90.1514 81.4437C90.1813 81.4136 90.1813 81.3833 90.1813 81.323V80.9004C90.1813 80.8099 90.0916 80.6892 90.0019 80.6288ZM93.1714 71.2126C93.0518 71.1523 92.9321 71.2126 92.9023 71.3334C92.8724 71.3636 92.8724 71.3937 92.8724 71.4541V71.8766C92.8724 71.9974 92.9621 72.118 93.0518 72.1784C95.384 73.0234 96.58 75.6491 95.7129 77.973C95.2644 79.2406 94.2777 80.2063 93.0518 80.659C92.9321 80.7194 92.8724 80.8099 92.8724 80.9609V81.3833C92.8724 81.5041 92.9321 81.5946 93.0518 81.6248C93.0817 81.6248 93.1415 81.6248 93.1714 81.5946C96.0119 80.6892 97.5668 77.641 96.6698 74.7739C96.1315 73.0536 94.8159 71.7559 93.1714 71.2126Z" fill="white" />
        </g>
    </g>
    <g filter="url(#filter7_d)">
        <path d="M29.1405 30.2308C29.1405 31.0311 29.9172 31.7898 30.5793 32.1588C31.3021 32.5243 32.0749 32.7817 32.8729 32.9227C34.3899 33.2709 35.9173 33.5931 37.4394 33.9621L49.9504 36.7996L59.1772 38.8784L59.9592 39.055L80.2895 44.1116C80.2895 44.1116 82.8959 44.6988 82.849 46.2787C82.8021 47.8585 82.849 74.4873 82.849 74.4873C82.849 76.0463 82.9793 77.6834 82.8907 79.2632C82.7708 81.4771 80.7013 83.7117 78.2773 83.3739L70.9375 82.267C70.9375 82.267 76.7708 83.8572 79.3876 84.0495C80.5252 84.1602 81.6703 83.9343 82.6799 83.4001C83.6895 82.8659 84.5189 82.047 85.0645 81.0457C86.2322 78.7227 86.0132 76.4361 85.9767 73.9416C85.9507 72.5073 85.8933 71.0729 85.8829 69.6386V68.9059C85.7734 60.7364 85.5545 52.5565 85.5545 44.387C85.614 43.7499 85.493 43.1089 85.2052 42.5369C84.71 41.773 83.6935 41.4976 82.776 41.2949L34.2127 30.6569L29.1405 30.2308Z" fill="#21ACE3" />
    </g>
    <path d="M80.7652 43.9193L32.09 32.3095C30.8743 32.0213 29.8175 31.2765 29.1405 30.2308V72.2525L78.3481 83.9766C78.8982 84.1065 79.4707 84.1103 80.0224 83.9877C80.5742 83.8652 81.0908 83.6195 81.5332 83.2691C81.9756 82.9188 82.3323 82.473 82.5764 81.9654C82.8204 81.4578 82.9455 80.9016 82.9421 80.3388V46.6632C82.9419 46.0288 82.727 45.413 82.332 44.9152C81.937 44.4173 81.3851 44.0665 80.7652 43.9193Z" fill="#4AC6F8" />
    <path d="M29.4318 34.7755L79.766 46.6437V82.2484L29.4767 70.1119" stroke="#E4F8FF" stroke-width="0.485794" stroke-linecap="round" stroke-linejoin="round" stroke-dasharray="3.4 3.4" />
    <path d="M83.0058 59.5905L70.7418 56.675C69.8323 56.4571 68.8852 56.4483 67.9718 56.6493C67.0584 56.8503 66.2024 57.2558 65.4681 57.8355C64.7338 58.4151 64.1403 59.1538 63.7322 59.996C63.3241 60.8382 63.112 61.762 63.1118 62.698C63.1111 64.09 63.5793 65.4417 64.4409 66.5345C65.3024 67.6274 66.5069 68.3977 67.8598 68.7209L83.0058 72.3523V59.5905Z" fill="#368CFB" />
    <ellipse rx="1.86454" ry="1.86599" transform="matrix(0.984591 0.174875 -0.174595 0.98464 69.1073 63.0567)" fill="white" />
    <path d="M27.1913 86.7416C35.029 86.9693 41.5671 80.7949 41.7946 72.9507C42.0221 65.1065 35.8528 58.563 28.0151 58.3353C20.1774 58.1076 13.6393 64.282 13.4118 72.1262C13.1843 79.9704 19.3536 86.5139 27.1913 86.7416Z" fill="white" />
    <g filter="url(#filter8_d)">
        <path d="M27.6728 84.4537C34.1815 84.4537 39.4578 79.173 39.4578 72.6589C39.4578 66.1448 34.1815 60.8642 27.6728 60.8642C21.1641 60.8642 15.8878 66.1448 15.8878 72.6589C15.8878 79.173 21.1641 84.4537 27.6728 84.4537Z" fill="#368CFB" />
    </g>
    <g>
        <path d="M31.0451 70.8179C30.9192 69.6503 29.8711 69.2855 28.5508 69.2088L28.5377 67.5849L27.5155 67.6122L27.5284 69.1933C27.2596 69.2004 26.985 69.2129 26.7121 69.2254L26.6995 67.6338L25.6779 67.6609L25.6907 69.2843C25.4694 69.2946 25.2521 69.3044 25.0402 69.3101L25.04 69.305L23.6303 69.3419L23.639 70.3976C23.639 70.3976 24.3937 70.3637 24.3813 70.3774C24.7953 70.3665 24.932 70.5954 24.9729 70.7949L24.9878 72.6449C25.0164 72.6443 25.0536 72.6444 25.096 72.649C25.0619 72.6499 25.0255 72.6507 24.988 72.652L25.0086 75.2436C24.9915 75.3701 24.9165 75.5731 24.6272 75.5812C24.6405 75.5921 23.8842 75.6008 23.8842 75.6008L23.6906 76.7867L25.0209 76.7513C25.2684 76.7451 25.512 76.7427 25.7512 76.7377L25.7649 78.3801L26.7859 78.3531L26.7728 76.7281C27.0532 76.7262 27.3244 76.7212 27.5894 76.7139L27.602 78.3315L28.6242 78.3042L28.6112 76.6647C30.329 76.5237 31.5283 76.0732 31.665 74.5086C31.7754 73.2489 31.1597 72.7044 30.1824 72.5038C30.7728 72.1962 31.1388 71.6722 31.0451 70.8179ZM29.6434 74.3676C29.6538 75.595 27.4795 75.5131 26.7868 75.5321L26.7695 73.356C27.4624 73.3378 29.6331 73.0874 29.6434 74.3676ZM29.1432 71.3101C29.1519 72.4267 27.3384 72.3446 26.7614 72.3599L26.7456 70.3864C27.3226 70.371 29.1336 70.1455 29.1432 71.3101Z" fill="white" />
    </g>

    <g filter="url(#filter0_b)">
        <path d="M8.04513 3.81788C7.91925 2.65025 6.8711 2.28555 5.55081 2.20881L5.5377 0.584944L4.51553 0.612217L4.52837 2.19331C4.25963 2.20042 3.98503 2.21286 3.71214 2.22536L3.69947 0.633773L2.67789 0.660886L2.69065 2.28431C2.46944 2.29457 2.25209 2.30436 2.0402 2.31008L2.04004 2.30501L0.630259 2.34193L0.639047 3.39763C0.639047 3.39763 1.39375 3.36372 1.38132 3.37742C1.79529 3.36653 1.93196 3.59543 1.97285 3.79495L1.98784 5.6449C2.01637 5.64426 2.05365 5.64441 2.09595 5.64895C2.06186 5.64989 2.02552 5.65068 1.98795 5.65201L2.00859 8.24362C1.9915 8.37008 1.91653 8.57309 1.62724 8.58121C1.64046 8.59205 0.884248 8.60078 0.884248 8.60078L0.690628 9.78666L2.02085 9.75131C2.26841 9.74507 2.512 9.74267 2.75118 9.7377L2.76489 11.3801L3.78594 11.3531L3.77275 9.72806C4.05318 9.72624 4.32444 9.72118 4.58939 9.71394L4.60199 11.3315L5.6242 11.3042L5.61122 9.66469C7.32896 9.52374 8.52831 9.07322 8.66502 7.50864C8.77544 6.24887 8.1597 5.70444 7.18244 5.50381C7.77276 5.19622 8.13876 4.67221 8.04513 3.81788ZM6.64339 7.36762C6.65383 8.59497 4.47951 8.51308 3.78676 8.5321L3.76948 6.35601C4.4624 6.33782 6.63311 6.08744 6.64339 7.36762ZM6.14319 4.3101C6.15191 5.42671 4.33845 5.34455 3.76142 5.3599L3.74559 3.38636C4.32261 3.37101 6.13363 3.14552 6.14319 4.3101Z" fill="white" />
    </g>
    <defs>
        <filter id="filter0_b" x="-14.3698" y="-14.4151" width="38.0475" height="40.7951" filterUnits="userSpaceOnUse" color-interpolation-filters="sRGB">
            <feFlood flood-opacity="0" result="BackgroundImageFix" />
            <feGaussianBlur in="BackgroundImage" stdDeviation="7.5" />
            <feComposite in2="SourceAlpha" operator="in" result="effect1_backgroundBlur" />
            <feBlend mode="normal" in="SourceGraphic" in2="effect1_backgroundBlur" result="shape" />
        </filter>
    </defs>
    <defs>
        <filter id="filter0_d" x="14.1405" y="14.9231" width="93.0248" height="75.3846" filterUnits="userSpaceOnUse" color-interpolation-filters="sRGB">
            <feFlood flood-opacity="0" result="BackgroundImageFix" />
            <feColorMatrix in="SourceAlpha" type="matrix" values="0 0 0 0 0 0 0 0 0 0 0 0 0 0 0 0 0 0 127 0" result="hardAlpha" />
            <feOffset dy="2" />
            <feGaussianBlur stdDeviation="7.5" />
            <feColorMatrix type="matrix" values="0 0 0 0 0.368627 0 0 0 0 0.584314 0 0 0 0 0.784314 0 0 0 0.2 0" />
            <feBlend mode="normal" in2="BackgroundImageFix" result="effect1_dropShadow" />
            <feBlend mode="normal" in="SourceGraphic" in2="effect1_dropShadow" result="shape" />
        </filter>
        <filter id="filter1_d" x="35.4746" y="0.890358" width="53.5699" height="53.5895" filterUnits="userSpaceOnUse" color-interpolation-filters="sRGB">
            <feFlood flood-opacity="0" result="BackgroundImageFix" />
            <feColorMatrix in="SourceAlpha" type="matrix" values="0 0 0 0 0 0 0 0 0 0 0 0 0 0 0 0 0 0 127 0" result="hardAlpha" />
            <feOffset dy="2" />
            <feGaussianBlur stdDeviation="7.5" />
            <feColorMatrix type="matrix" values="0 0 0 0 0.368627 0 0 0 0 0.584314 0 0 0 0 0.784314 0 0 0 0.2 0" />
            <feBlend mode="normal" in2="BackgroundImageFix" result="effect1_dropShadow" />
            <feBlend mode="normal" in="SourceGraphic" in2="effect1_dropShadow" result="shape" />
        </filter>
        <filter id="filter2_b" x="43.9607" y="4.55185" width="37.1621" height="41.6735" filterUnits="userSpaceOnUse" color-interpolation-filters="sRGB">
            <feFlood flood-opacity="0" result="BackgroundImageFix" />
            <feGaussianBlur in="BackgroundImage" stdDeviation="7.5" />
            <feComposite in2="SourceAlpha" operator="in" result="effect1_backgroundBlur" />
            <feBlend mode="normal" in="SourceGraphic" in2="effect1_backgroundBlur" result="shape" />
        </filter>
        <filter id="filter3_d" x="64.6418" y="51.5775" width="53.5712" height="53.5895" filterUnits="userSpaceOnUse" color-interpolation-filters="sRGB">
            <feFlood flood-opacity="0" result="BackgroundImageFix" />
            <feColorMatrix in="SourceAlpha" type="matrix" values="0 0 0 0 0 0 0 0 0 0 0 0 0 0 0 0 0 0 127 0" result="hardAlpha" />
            <feOffset dy="2" />
            <feGaussianBlur stdDeviation="7.5" />
            <feColorMatrix type="matrix" values="0 0 0 0 0.368627 0 0 0 0 0.584314 0 0 0 0 0.784314 0 0 0 0.2 0" />
            <feBlend mode="normal" in2="BackgroundImageFix" result="effect1_dropShadow" />
            <feBlend mode="normal" in="SourceGraphic" in2="effect1_dropShadow" result="shape" />
        </filter>
        <filter id="filter4_b" x="71.1301" y="56.1825" width="40.7935" height="40.4423" filterUnits="userSpaceOnUse" color-interpolation-filters="sRGB">
            <feFlood flood-opacity="0" result="BackgroundImageFix" />
            <feGaussianBlur in="BackgroundImage" stdDeviation="7.5" />
            <feComposite in2="SourceAlpha" operator="in" result="effect1_backgroundBlur" />
            <feBlend mode="normal" in="SourceGraphic" in2="effect1_backgroundBlur" result="shape" />
        </filter>
        <filter id="filter5_b" x="74.3682" y="57.6238" width="33.9575" height="37.2015" filterUnits="userSpaceOnUse" color-interpolation-filters="sRGB">
            <feFlood flood-opacity="0" result="BackgroundImageFix" />
            <feGaussianBlur in="BackgroundImage" stdDeviation="7.5" />
            <feComposite in2="SourceAlpha" operator="in" result="effect1_backgroundBlur" />
            <feBlend mode="normal" in="SourceGraphic" in2="effect1_backgroundBlur" result="shape" />
        </filter>
        <filter id="filter6_b" x="71.1301" y="56.1825" width="40.7935" height="40.4423" filterUnits="userSpaceOnUse" color-interpolation-filters="sRGB">
            <feFlood flood-opacity="0" result="BackgroundImageFix" />
            <feGaussianBlur in="BackgroundImage" stdDeviation="7.5" />
            <feComposite in2="SourceAlpha" operator="in" result="effect1_backgroundBlur" />
            <feBlend mode="normal" in="SourceGraphic" in2="effect1_backgroundBlur" result="shape" />
        </filter>
        <filter id="filter7_d" x="14.1405" y="17.2308" width="86.876" height="83.8462" filterUnits="userSpaceOnUse" color-interpolation-filters="sRGB">
            <feFlood flood-opacity="0" result="BackgroundImageFix" />
            <feColorMatrix in="SourceAlpha" type="matrix" values="0 0 0 0 0 0 0 0 0 0 0 0 0 0 0 0 0 0 127 0" result="hardAlpha" />
            <feOffset dy="2" />
            <feGaussianBlur stdDeviation="7.5" />
            <feColorMatrix type="matrix" values="0 0 0 0 0.368627 0 0 0 0 0.584314 0 0 0 0 0.784314 0 0 0 0.2 0" />
            <feBlend mode="normal" in2="BackgroundImageFix" result="effect1_dropShadow" />
            <feBlend mode="normal" in="SourceGraphic" in2="effect1_dropShadow" result="shape" />
        </filter>
        <filter id="filter8_d" x="0.887817" y="47.8642" width="53.5701" height="53.5895" filterUnits="userSpaceOnUse" color-interpolation-filters="sRGB">
            <feFlood flood-opacity="0" result="BackgroundImageFix" />
            <feColorMatrix in="SourceAlpha" type="matrix" values="0 0 0 0 0 0 0 0 0 0 0 0 0 0 0 0 0 0 127 0" result="hardAlpha" />
            <feOffset dy="2" />
            <feGaussianBlur stdDeviation="7.5" />
            <feColorMatrix type="matrix" values="0 0 0 0 0.368627 0 0 0 0 0.584314 0 0 0 0 0.784314 0 0 0 0.2 0" />
            <feBlend mode="normal" in2="BackgroundImageFix" result="effect1_dropShadow" />
            <feBlend mode="normal" in="SourceGraphic" in2="effect1_dropShadow" result="shape" />
        </filter>
        <filter id="filter9_b" x="8.63025" y="52.5849" width="38.0475" height="40.7951" filterUnits="userSpaceOnUse" color-interpolation-filters="sRGB">
            <feFlood flood-opacity="0" result="BackgroundImageFix" />
            <feGaussianBlur in="BackgroundImage" stdDeviation="7.5" />
            <feComposite in2="SourceAlpha" operator="in" result="effect1_backgroundBlur" />
            <feBlend mode="normal" in="SourceGraphic" in2="effect1_backgroundBlur" result="shape" />
        </filter>
    </defs>
</svg>
    