<svg xmlns="http://www.w3.org/2000/svg" width="22.998" height="30.664" viewBox="0 0 22.998 30.664"><defs><style>.a{fill:#fff;}</style></defs><path class="a" d="M23.123,11.5h-.958V7.666a7.666,7.666,0,0,0-15.332,0V11.5H5.875A2.878,2.878,0,0,0,3,14.374V27.789a2.878,2.878,0,0,0,2.875,2.875H23.123A2.878,2.878,0,0,0,26,27.789V14.374A2.878,2.878,0,0,0,23.123,11.5ZM9.388,7.666a5.111,5.111,0,0,1,10.221,0V11.5H9.388Zm6.388,13.7v2.911a1.278,1.278,0,1,1-2.555,0V21.365a2.555,2.555,0,1,1,2.555,0Z" transform="translate(-3)"/></svg>