<svg width="29" height="30" viewBox="0 0 29 30" fill="none" xmlns="http://www.w3.org/2000/svg">
<path d="M14.5 29.6C11.6322 29.6 8.82875 28.732 6.44424 27.1058C4.05973 25.4795 2.20122 23.1681 1.10375 20.4637C0.00628258 17.7594 -0.280866 14.7836 0.27862 11.9127C0.838106 9.04175 2.2191 6.40464 4.24696 4.33483C6.27482 2.26501 8.85847 0.855446 11.6712 0.284384C14.4839 -0.286677 17.3994 0.00641256 20.0489 1.12659C22.6984 2.24677 24.963 4.14372 26.5563 6.57757C28.1496 9.01141 29 11.8728 29 14.8C28.994 15.8945 28.8786 16.9854 28.6556 18.056C28.6294 18.1775 28.5801 18.2925 28.5104 18.3945C28.4406 18.4965 28.3519 18.5835 28.2492 18.6505C28.1466 18.7175 28.032 18.7632 27.912 18.785C27.792 18.8068 27.669 18.8042 27.55 18.7775C27.431 18.7508 27.3183 18.7004 27.2184 18.6292C27.1184 18.558 27.0332 18.4675 26.9676 18.3627C26.9019 18.2579 26.8572 18.1409 26.8358 18.0185C26.8145 17.896 26.8169 17.7705 26.8431 17.649C27.0581 16.7148 27.1736 15.7596 27.1875 14.8C27.1855 11.9732 26.2774 9.22459 24.6017 6.97387C22.926 4.72315 20.5748 3.09391 17.9069 2.33482C15.2391 1.57574 12.4012 1.72851 9.82639 2.76982C7.25158 3.81114 5.08132 5.68379 3.64687 8.10194C2.21242 10.5201 1.59258 13.3509 1.88196 16.1623C2.17133 18.9737 3.35403 21.6112 5.24953 23.6723C7.14503 25.7333 9.64921 27.1047 12.3798 27.5771C15.1104 28.0495 17.9175 27.5969 20.3725 26.2885C20.4782 26.2147 20.598 26.1645 20.724 26.1414C20.8501 26.1183 20.9795 26.1227 21.1037 26.1543C21.228 26.1859 21.3443 26.2441 21.4449 26.3249C21.5455 26.4058 21.6282 26.5075 21.6876 26.6233C21.7469 26.7391 21.7815 26.8665 21.7891 26.997C21.7967 27.1275 21.7771 27.2581 21.7316 27.3803C21.6861 27.5025 21.6158 27.6134 21.5252 27.7059C21.4347 27.7983 21.326 27.8701 21.2063 27.9165C19.1386 29.027 16.8364 29.605 14.5 29.6Z" fill="white"/>
<path d="M24.4688 25.9C24.2284 25.9 23.9979 25.8026 23.8279 25.6291C23.658 25.4556 23.5625 25.2203 23.5625 24.975V17.575C23.5625 17.3297 23.658 17.0944 23.8279 16.9209C23.9979 16.7475 24.2284 16.65 24.4688 16.65C24.7091 16.65 24.9396 16.7475 25.1096 16.9209C25.2795 17.0944 25.375 17.3297 25.375 17.575V24.975C25.375 25.2203 25.2795 25.4556 25.1096 25.6291C24.9396 25.8026 24.7091 25.9 24.4688 25.9Z" fill="white"/>
<path d="M16.3127 16.0025C16.3196 15.9411 16.3196 15.879 16.3127 15.8175C16.3127 15.8175 16.3127 15.8175 16.3127 15.725V6.47505C16.3127 6.22972 16.2172 5.99445 16.0472 5.82098C15.8773 5.6475 15.6468 5.55005 15.4064 5.55005C15.1661 5.55005 14.9356 5.6475 14.7656 5.82098C14.5957 5.99445 14.5002 6.22972 14.5002 6.47505V15.2255L9.46143 18.648C9.26154 18.7871 9.12301 19.0006 9.07557 19.2427C9.02813 19.4848 9.07556 19.7362 9.20768 19.943C9.29388 20.0676 9.40786 20.1695 9.54022 20.2403C9.67258 20.311 9.81952 20.3487 9.96893 20.35C10.1478 20.3464 10.3227 20.2954 10.4764 20.202L15.9139 16.502L16.0408 16.3725L16.1496 16.2245L16.3127 16.0025Z" fill="white"/>
<path d="M24.469 29.6C24.2916 29.5975 24.1188 29.5419 23.9721 29.4401C23.8254 29.3382 23.7112 29.1947 23.6437 29.0273C23.5762 28.8599 23.5582 28.6759 23.5922 28.4982C23.6261 28.3205 23.7104 28.1568 23.8346 28.0275C23.9589 27.8973 24.1187 27.8083 24.2933 27.772C24.4678 27.7357 24.649 27.7539 24.8133 27.824C24.9264 27.8635 25.0268 27.9339 25.1033 28.0275C25.19 28.1106 25.2591 28.2109 25.3064 28.3222C25.3536 28.4336 25.378 28.5537 25.378 28.675C25.378 28.7964 25.3536 28.9164 25.3064 29.0278C25.2591 29.1392 25.19 29.2395 25.1033 29.3225C25.0268 29.4162 24.9264 29.4866 24.8133 29.526C24.706 29.5785 24.5879 29.6039 24.469 29.6Z" fill="white"/>
</svg>
