<svg xmlns="http://www.w3.org/2000/svg" width="23.437" height="25.567" viewBox="0 0 23.437 25.567"><defs><style>.a{fill:#fff;}</style></defs><g transform="translate(-48.932 -43.65)"><path class="a" d="M82.109,56.434a6.395,6.395,0,1,0-4.519-1.873,6.156,6.156,0,0,0,4.519,1.873Zm0,0" transform="translate(-21.458 0)"/><path class="a" d="M72.31,110.388a16.892,16.892,0,0,0-.233-1.815,13.931,13.931,0,0,0-.441-1.806,8.509,8.509,0,0,0-.716-1.622,5.845,5.845,0,0,0-1.031-1.349,4.35,4.35,0,0,0-1.424-.891,5.009,5.009,0,0,0-1.855-.332,2.035,2.035,0,0,0-.7.357q-.549.359-1.24.8a7.863,7.863,0,0,1-1.8.8,7.068,7.068,0,0,1-4.444,0,7.815,7.815,0,0,1-1.8-.8q-.692-.44-1.24-.8a2.034,2.034,0,0,0-.7-.357,5.008,5.008,0,0,0-1.856.332,4.338,4.338,0,0,0-1.423.891,5.846,5.846,0,0,0-1.032,1.349,8.511,8.511,0,0,0-.716,1.622,14.167,14.167,0,0,0-.441,1.806,16.9,16.9,0,0,0-.233,1.815q-.058.84-.058,1.723a4.15,4.15,0,0,0,1.215,3.154,4.493,4.493,0,0,0,3.229,1.156H67.925a4.494,4.494,0,0,0,3.229-1.156,4.15,4.15,0,0,0,1.215-3.154q0-.883-.059-1.723Zm0,0" transform="translate(0 -47.204)"/></g></svg>