<svg xmlns="http://www.w3.org/2000/svg" width="28.452" height="28.457" viewBox="0 0 28.452 28.457"><defs><style>.a{fill:#fff;}</style></defs><g transform="translate(-139.544 -139.518)"><path class="a" d="M139.544,272.984h12.934V260.05H139.544Zm2.587-10.347h7.759v7.74h-7.759Z" transform="translate(0 -105.009)"/><rect class="a" width="2.585" height="2.587" transform="translate(144.718 160.212)"/><rect class="a" width="2.585" height="2.587" transform="translate(144.718 144.692)"/><path class="a" d="M139.544,152.452h12.934V139.518H139.544Zm2.587-10.347h7.759v7.76h-7.759Z"/><rect class="a" width="2.587" height="2.587" transform="translate(160.238 144.692)"/><path class="a" d="M260.063,152.452h12.929V139.518H260.063ZM262.65,142.1h7.762v7.76H262.65Z" transform="translate(-104.998)"/><path class="a" d="M260.043,260.05v12.934h12.934V260.05Zm10.117,10.707H268.1v-3.54h-3.2v3.54h-2.032v-8.464H264.9v3.262h3.2v-3.262h2.062Z" transform="translate(-104.981 -105.009)"/></g></svg>