<svg xmlns="http://www.w3.org/2000/svg" width="28.112" height="28.112" viewBox="0 0 28.112 28.112"><defs><style>.a{fill:#fff;}</style></defs><g transform="translate(-57 -58)"><path class="a" d="M83.227,65a14,14,0,0,0-5.116-5.115,14.142,14.142,0,0,0-14.11,0A13.985,13.985,0,0,0,58.886,65a14.144,14.144,0,0,0,0,14.111A13.99,13.99,0,0,0,64,84.226a14.144,14.144,0,0,0,14.111,0,13.993,13.993,0,0,0,5.116-5.115,14.151,14.151,0,0,0,0-14.111ZM73.4,80.841a.565.565,0,0,1-.586.585H69.3a.563.563,0,0,1-.586-.585V77.327a.563.563,0,0,1,.586-.586h3.514a.565.565,0,0,1,.586.586Zm4.457-10.817a4.791,4.791,0,0,1-.513,1.108,4.267,4.267,0,0,1-.814.879,7.673,7.673,0,0,1-.842.641c-.207.128-.507.3-.9.521a3.1,3.1,0,0,0-1,.906,1.749,1.749,0,0,0-.394.906.563.563,0,0,1-.586.586H69.3a.563.563,0,0,1-.585-.586v-.659a3.386,3.386,0,0,1,.96-2.3,6.268,6.268,0,0,1,2.115-1.583,3.7,3.7,0,0,0,1.244-.824A1.638,1.638,0,0,0,73.4,68.5a1.336,1.336,0,0,0-.687-1.081,2.922,2.922,0,0,0-3.138-.036A9.1,9.1,0,0,0,68,69.072a.542.542,0,0,1-.459.22.522.522,0,0,1-.348-.11l-2.415-1.831a.524.524,0,0,1-.147-.769,7.476,7.476,0,0,1,6.791-3.9,7.135,7.135,0,0,1,5.647,2.874,4.914,4.914,0,0,1,1.016,2.983,4.666,4.666,0,0,1-.229,1.482Zm0,0" transform="translate(0 0)"/></g></svg>