<svg width="31" height="31" viewBox="0 0 31 31" fill="none" xmlns="http://www.w3.org/2000/svg">
<rect width="31" height="31" fill="#F2F2F2"/>
<g clip-path="url(#clip0)">
<rect width="375" height="812" transform="translate(-306 -322)" fill="#21ACE3"/>
<g opacity="0.17" clip-path="url(#clip1)">
<g clip-path="url(#clip2)">
<mask id="mask0" mask-type="alpha" maskUnits="userSpaceOnUse" x="-578" y="-555" width="868" height="1547">
<rect x="-577.078" y="859.463" width="1471.04" height="479.832" transform="rotate(-74 -577.078 859.463)" fill="black"/>
</mask>
<g mask="url(#mask0)">
<path d="M-479.3 720.987C-439.811 704.163 -401.764 683.074 -373.959 652.233C-336.343 610.429 -320.006 545.19 -353.171 493.459C-391.453 433.743 -434.859 393.445 -420.881 319.382C-410.933 267.125 -371.31 213.155 -315.94 198.812C-283.128 190.295 -247.782 190.504 -213.976 185.236C-132.787 172.814 -99.622 121.733 -119.149 45.1731C-128.503 8.56601 -139.418 -32.9327 -117.775 -62.4293C-89.3554 -101.093 -18.2545 -98.4828 4.10472 -140.811C16.3718 -163.959 9.29844 -192.505 5.78318 -218.993C-2.48955 -282.104 57.335 -290.282 65.2293 -343.128C67.2371 -356.33 62.9077 -370.163 62.9206 -383.641C62.9335 -397.118 73.8719 -421.832 92.7384 -411.682" stroke="white" stroke-linecap="round" stroke-linejoin="round"/>
<path d="M-462.207 723.371C-422.893 706.645 -386.293 684.4 -360.365 652.873C-341.722 630.22 -329.019 601.419 -326.174 571.866C-323.723 545.754 -328.744 518.834 -343.744 494.682C-371.459 450.291 -402.078 416.031 -410.661 371.053C-413.671 354.864 -413.827 338.275 -411.123 322.033C-402.975 269.852 -366.638 215.978 -313.124 199.324C-281.093 189.398 -245.981 188.355 -212.057 182.676C-196.132 180.244 -180.594 175.734 -165.842 169.262C-118.484 147.732 -101.505 106.084 -110.29 46.8257C-113.069 28.1034 -118.448 7.59851 -121.09 -12.1212C-124.567 -37.71 -121.355 -62.8621 -106.665 -83.0935C-79.7337 -119.666 -13.8346 -118.547 7.81801 -158.411C19.6926 -180.19 13.8694 -206.896 11.2329 -231.8C4.89277 -290.801 60.0038 -299.59 67.0737 -349.561C68.8852 -362.078 64.7703 -375.109 64.5869 -387.902C64.4035 -400.695 74.108 -423.689 90.8829 -415.028" stroke="white" stroke-linecap="round" stroke-linejoin="round"/>
<path d="M-445.25 725.715C-406.152 709.223 -371.136 685.783 -346.81 653.649C-328.952 630.147 -318.255 601.991 -316.003 572.56C-313.998 545.862 -320.329 519.201 -334.122 496.255C-360.683 452.492 -390.421 417.743 -399.709 373.156C-402.997 357.15 -403.589 340.707 -401.463 324.506C-394.977 272.442 -362.025 218.486 -310.445 199.795C-279.195 188.46 -244.316 186.166 -210.236 179.939C-194.381 177.318 -178.885 172.862 -164.06 166.662C-116.448 145.797 -98.1605 106.302 -101.744 48.5353C-103.17 26.6454 -109.602 2.57959 -113.023 -20.6227C-117.357 -50.457 -112.986 -80.1657 -95.6912 -103.798C-70.562 -138.221 -9.55152 -138.652 11.3946 -176.051C22.7398 -196.501 18.4404 -221.289 16.6434 -244.47C12.3335 -299.185 62.6726 -308.898 68.8397 -355.721C70.455 -367.554 66.6913 -379.744 66.3117 -391.852C65.9321 -403.961 74.4418 -425.371 89.0859 -418.061" stroke="white" stroke-linecap="round" stroke-linejoin="round"/>
<path d="M-428.154 728.098C-389.232 711.704 -355.799 687.07 -333.214 654.288C-316.746 630.335 -307.308 602.252 -305.967 573.215C-304.832 546.736 -311.347 520.489 -324.732 497.614C-350.237 454.302 -379.095 419.065 -388.853 375.083C-392.36 359.351 -393.368 343.164 -391.839 327.117C-387.114 274.992 -357.487 221.268 -307.626 200.307C-277.158 187.563 -242.61 183.84 -208.451 177.339C-192.6 174.526 -177.081 170.09 -162.138 164.102C-114.215 144.215 -93.5616 106.287 -93.156 50.1087C-92.9169 24.9929 -100.852 -2.61484 -105.051 -29.2997C-110.379 -63.4188 -104.615 -97.4685 -84.9499 -124.718C-61.4853 -156.951 -5.50048 -158.971 14.739 -193.907C25.6525 -212.851 22.7794 -235.896 21.8218 -257.355C19.5421 -307.785 64.9332 -318.324 70.4129 -362.233C71.7927 -373.244 68.2827 -384.769 67.8437 -396.154C67.4047 -407.539 74.5436 -427.268 87.096 -421.447" stroke="white" stroke-linecap="round" stroke-linejoin="round"/>
<path d="M-411.062 730.481C-372.453 714.146 -340.369 688.532 -319.524 655.103C-304.352 630.719 -296.102 602.665 -295.661 573.949C-295.436 547.681 -302.181 521.823 -315.209 499.012C-339.659 456.151 -367.538 420.602 -378 377.011C-381.679 361.503 -383.041 345.537 -382.043 329.63C-379.255 277.543 -352.738 223.815 -304.812 200.818C-275.262 186.626 -240.811 181.69 -206.494 174.642C-190.656 171.606 -175.113 167.19 -160.045 161.443C-111.77 142.398 -88.0277 106.096 -84.2985 51.7601C-82.3544 23.2816 -91.6553 -7.82889 -96.6733 -37.8595C-102.896 -76.0871 -95.798 -114.791 -73.6651 -145.48C-51.5322 -176.17 -0.906171 -179.134 18.6269 -211.606C29.1478 -229.181 27.6618 -250.347 27.446 -270.26C27.1965 -316.404 67.8157 -327.867 72.3926 -368.627C73.5761 -378.954 70.3198 -389.814 69.6452 -400.377C68.9707 -410.94 74.9149 -429.087 85.415 -424.891" stroke="white" stroke-linecap="round" stroke-linejoin="round"/>
<path d="M-394.104 732.825C-355.671 716.587 -325.17 689.779 -306.066 655.703C-279.017 607.507 -278.872 548.738 -305.683 500.41C-329.116 458.137 -355.977 422.139 -367.047 379.114C-370.995 363.813 -372.803 348.039 -372.421 332.241C-371.393 280.093 -348.162 226.46 -302.131 201.29C-273.323 185.552 -239.105 179.364 -204.71 172.042C-188.881 168.8 -173.31 164.401 -158.124 158.883C-109.595 140.503 -82.2558 106.122 -75.5744 53.3725C-71.5147 21.6488 -82.7682 -12.9845 -88.4285 -46.4583C-95.6451 -88.9708 -87.2514 -132.192 -62.6505 -166.322C-42.4763 -194.313 3.41807 -199.375 22.3422 -229.207C32.4706 -245.413 32.1955 -264.602 32.9953 -282.891C34.7761 -324.749 70.584 -336.999 74.3367 -374.885C75.3239 -384.527 72.4189 -394.545 71.5481 -404.424C70.6772 -414.303 75.3875 -430.73 83.796 -428.023" stroke="white" stroke-linecap="round" stroke-linejoin="round"/>
<path d="M-377.009 735.208C-312.609 708.825 -271.919 644.621 -275.551 575.122C-277.019 549.478 -284.05 524.461 -296.157 501.808C-318.534 459.985 -344.378 423.538 -356.191 381.041C-360.358 365.945 -362.565 350.375 -362.758 334.715C-363.667 282.604 -343.547 228.968 -299.314 201.801C-271.286 184.654 -237.302 177.214 -202.887 169.305C-187.067 165.859 -171.465 161.478 -156.163 156.185C-107.284 138.647 -86.5351 102.968 -66.8504 54.9848C-53.42 22.0964 -73.7444 -18.1008 -80.1838 -55.0573C-88.2962 -101.678 -78.6072 -149.417 -51.4992 -187.124C-32.9897 -212.926 7.8791 -219.577 26.0967 -246.945C35.8325 -261.782 36.9444 -279.092 38.623 -295.796C42.2579 -333.271 73.47 -346.542 76.3198 -381.279C77.0716 -390.101 74.4202 -399.453 73.49 -408.609C72.5599 -417.764 75.8992 -432.51 82.2162 -431.291" stroke="white" stroke-linecap="round" stroke-linejoin="round"/>
<path d="M-359.876 737.454C-321.796 721.411 -294.227 692.429 -278.74 657.019C-267.654 631.469 -263.064 603.571 -265.381 575.816C-267.706 550.466 -274.923 525.808 -286.633 503.206C-307.954 461.834 -332.82 425.075 -345.201 383.008C-349.589 368.154 -352.207 352.833 -353.001 337.365C-355.846 285.291 -338.973 231.613 -296.498 202.313C-269.35 183.58 -235.501 175.064 -200.969 166.744C-184.593 162.848 -168.862 158.618 -154.108 153.664C-105.014 136.927 -78.3208 103.249 -57.9919 56.636C-42.3481 20.6787 -64.7229 -23.2174 -71.9414 -63.6564C-81.0473 -114.562 -69.9262 -166.779 -40.3894 -207.789C-23.4078 -231.363 12.2985 -239.643 29.8096 -264.546C39.1529 -278.015 41.6518 -293.446 44.033 -308.466C49.5612 -341.695 76.099 -355.714 78.1245 -387.577C78.5431 -395.753 76.38 -404.225 75.2535 -412.695C74.127 -421.166 76.0956 -434.231 80.4579 -434.462" stroke="white" stroke-linecap="round" stroke-linejoin="round"/>
<path d="M-342.92 739.798C-305.016 723.853 -278.932 693.852 -265.147 657.658C-255.416 631.726 -252.042 603.839 -255.308 576.334C-258.475 551.365 -265.846 527.112 -277.109 504.604C-297.374 463.683 -321.222 426.475 -334.347 384.935C-338.953 370.269 -341.968 355.15 -343.341 339.839C-348.123 287.803 -334.321 233.985 -293.683 202.824C-267.452 182.643 -233.7 172.914 -199.148 164.008C-182.869 159.935 -167.138 155.705 -152.287 150.927C-102.94 134.856 -69.8719 103.747 -49.407 58.2092C-31.9606 19.0652 -55.8382 -28.3729 -63.8751 -72.1576C-73.8377 -127.309 -61.4604 -183.906 -29.5534 -228.533C-14.2365 -249.918 16.4442 -259.786 33.2487 -282.226C42.1995 -294.325 45.9486 -307.917 49.3453 -321.312C56.7277 -350.158 78.5327 -365.238 79.7924 -393.913C80.0147 -401.404 78.066 -409.074 76.7432 -416.86C75.4205 -424.647 76.1551 -435.991 78.4651 -437.847" stroke="white" stroke-linecap="round" stroke-linejoin="round"/>
<path d="M-325.827 742.181C-288.138 726.471 -263.462 695.177 -251.593 658.434C-243.157 632.166 -240.947 604.297 -245.138 577.028C-249.152 552.393 -256.712 528.469 -267.585 506.001C-286.834 465.668 -309.801 427.972 -323.357 386.901C-328.182 372.415 -331.594 357.495 -333.544 342.352C-340.4 290.313 -329.707 236.492 -290.828 203.198C-265.339 181.471 -231.86 170.627 -197.19 161.31C-181.146 157.022 -165.317 152.968 -150.192 148.268C-100.63 132.999 -60.8562 104.85 -40.646 59.6842C-21.4946 17.1773 -46.9143 -33.6657 -55.5934 -80.8937C-66.452 -139.808 -53.0247 -200.61 -18.365 -249.472C-4.67365 -268.805 21.079 -280.086 37.0402 -300.101C45.5592 -310.695 50.5584 -322.446 54.9708 -334.218C64.1096 -358.856 81.4165 -374.781 81.8126 -400.444C81.7994 -407.115 80.2412 -414.08 78.7222 -421.182C77.4156 -427.775 76.8577 -434.495 77.0591 -441.214" stroke="white" stroke-linecap="round" stroke-linejoin="round"/>
<path d="M-308.731 744.564C-271.218 728.951 -248.164 696.6 -237.859 659.112C-230.822 632.539 -229.833 604.727 -234.965 577.722C-239.46 553.619 -247.712 530.216 -258.058 507.399C-276.25 467.516 -298.239 429.508 -312.5 388.828C-317.546 374.513 -321.354 359.791 -323.881 344.825C-332.673 292.824 -325.189 238.824 -288.146 203.669C-263.575 180.494 -230.193 168.437 -195.365 158.573C-179.556 154.069 -163.591 150.055 -148.231 145.57C-98.3179 131.143 -49.4909 107.071 -31.8816 61.1592C-14.2723 15.2473 -37.85 -38.9194 -47.4451 -89.6691C-59.2971 -153.214 -44.0555 -218.767 -7.44713 -270.49C4.71643 -287.594 25.2674 -300.367 40.5612 -318.055C48.2258 -327.038 54.8253 -336.877 60.2281 -347.377C70.9473 -367.71 83.8929 -384.442 83.4255 -407.094C83.1126 -413.371 82.0615 -419.589 80.2938 -425.621C78.481 -432.214 76.8452 -439.943 75.1089 -444.737" stroke="white" stroke-linecap="round" stroke-linejoin="round"/>
<path d="M-291.774 746.908C-228.842 720.659 -210.401 643.431 -224.931 578.378C-239.461 513.324 -278.174 454.077 -301.685 390.893C-325.195 327.709 -330.894 252.003 -285.506 204.279C-251.202 168.34 -196.655 156.87 -146.488 143.108C-96.3215 129.346 -42.9197 107.919 -23.3748 63.0068C-1.77168 13.4996 -29.0434 -43.8004 -39.4177 -98.0327C-52.2631 -165.862 -35.5893 -235.893 3.48706 -291.057C35.9235 -337.013 115.674 -379.032 73.1749 -447.809" stroke="white" stroke-linecap="round" stroke-linejoin="round"/>
<path d="M-281.587 748.053C-214.504 717.661 -194.746 634.292 -212.205 563.954C-227.853 501.247 -265.003 443.781 -287.087 382.339C-309.171 320.898 -311.075 245.391 -264.437 199.507C-228.686 164.723 -175.137 152.079 -129.68 134.596C-84.2238 117.113 -38.4888 94.5246 -22.7586 49.9998C-5.49864 1.17298 -32.3607 -54.9725 -41.3469 -108.362C-52.4339 -174.058 -34.4526 -240.9 3.89807 -294.049C36.0789 -338.597 119.256 -384.818 72.7646 -451.036" stroke="white" stroke-linecap="round" stroke-linejoin="round"/>
<path d="M-271.396 749.197C-200.025 714.702 -179.049 625.016 -199.516 549.668C-215.968 489.248 -252.044 433.72 -272.702 374.021C-294.51 310.584 -291.488 238.564 -243.502 194.696C-206.579 160.989 -154.104 147.444 -112.967 125.908C-71.8294 104.371 -34.0157 80.9932 -22.2371 36.8167C-9.49639 -11.2321 -35.6358 -66.2813 -43.234 -118.829C-52.5626 -182.391 -33.0975 -246.14 4.52743 -297.275C36.4133 -340.279 123.018 -390.702 72.4358 -454.538" stroke="white" stroke-linecap="round" stroke-linejoin="round"/>
<path d="M-261.243 750.477C-185.721 711.839 -163.116 615.954 -186.961 535.341C-204.08 477.248 -239.18 423.482 -258.275 365.563C-279.32 302.049 -271.761 231.775 -222.565 189.883C-184.195 157.331 -133.108 142.944 -96.2902 117.355C-59.472 91.7652 -29.5797 67.5971 -21.7528 23.7689C-13.2575 -23.4231 -38.948 -77.4549 -45.2951 -129.199C-52.826 -190.764 -32.0534 -251.324 4.98278 -300.406C36.4762 -342.04 126.742 -396.45 72.0698 -457.904" stroke="white" stroke-linecap="round" stroke-linejoin="round"/>
<path d="M-251.191 751.583C-171.518 708.801 -147.283 606.717 -174.41 521.015C-192.157 465.113 -226.182 413.284 -243.851 357.108C-263.957 293.418 -252.078 225.124 -201.671 185.209C-161.991 153.774 -112.097 138.896 -79.6169 108.804C-50.1715 81.5445 -25.1468 54.2028 -21.2715 10.7229C-17.1194 -35.7886 -42.4002 -88.6659 -47.3592 -139.568C-53.1317 -198.999 -31.0516 -256.369 5.25892 -303.437C36.4967 -343.663 130.151 -402.139 71.3878 -461.21" stroke="white" stroke-linecap="round" stroke-linejoin="round"/>
<path d="M-241.001 752.727C-157.177 705.802 -131 597.46 -161.682 506.591C-179.783 452.958 -213.009 402.987 -229.427 348.652C-248.634 284.924 -232.217 218.374 -180.736 180.397C-139.61 150.117 -91.0852 134.847 -62.9434 100.252C-38.6203 70.1904 -20.7138 40.8077 -20.9269 -2.36328C-21.0203 -48.0181 -45.8522 -99.8779 -49.3839 -150.074C-53.398 -207.372 -29.8342 -261.65 5.75067 -306.703C36.7328 -345.522 133.775 -408.063 71.0581 -464.712" stroke="white" stroke-linecap="round" stroke-linejoin="round"/>
<path d="M-230.811 753.872C-142.699 702.843 -114.716 588.205 -148.993 492.305C-167.409 440.803 -199.873 392.829 -214.866 340.235C-233.133 276.333 -212.396 211.763 -159.665 175.625C-117.092 146.501 -69.6038 131.23 -46.23 91.5636C-26.9315 58.8764 -16.1039 27.3157 -20.4055 -15.546C-24.7071 -58.4077 -49.3035 -111.089 -51.408 -160.58C-53.8005 -215.782 -28.8899 -267.008 6.06686 -309.871C36.6564 -347.32 137.223 -413.888 70.4161 -468.154" stroke="white" stroke-linecap="round" stroke-linejoin="round"/>
<path d="M-220.756 754.976C-128.494 699.805 -98.2164 578.714 -136.44 477.979C-155.034 428.648 -186.835 382.494 -200.44 331.779C-217.632 267.74 -192.574 205.15 -138.729 170.814C-94.7104 142.845 -47.9456 127.515 -29.5551 83.0118C-14.8706 47.8165 -11.5326 13.9599 -19.9227 -28.5927C-28.3128 -71.1455 -52.7542 -122.301 -53.4706 -170.949C-54.2416 -224.057 -27.7105 -272.151 6.52064 -313.001C36.8546 -349.042 140.985 -419.772 70.0486 -471.519" stroke="white" stroke-linecap="round" stroke-linejoin="round"/>
<path d="M-210.607 756.257C-114.195 696.943 -81.6218 569.399 -123.89 463.652C-142.662 416.493 -173.839 372.295 -186.194 323.421C-202.446 259.207 -172.93 198.636 -117.836 166.139C-72.3704 139.325 -30.5728 122.719 -12.883 74.4598C0.570572 37.8744 -6.96392 0.604021 -19.4425 -41.6395C-31.9212 -83.8831 -56.3443 -133.552 -55.536 -181.318C-54.7246 -232.195 -26.7098 -277.197 6.93259 -315.993C37.0109 -350.626 144.529 -425.422 69.5023 -474.787" stroke="white" stroke-linecap="round" stroke-linejoin="round"/>
<path d="M-200.416 757.401C-99.8526 693.944 -64.672 559.888 -111.199 449.365C-130.111 404.24 -160.527 362.038 -171.632 315.003C-186.769 250.516 -152.971 192.062 -96.763 161.366C-49.8907 135.845 -3.81022 120.318 3.96824 65.8096C9.77718 25.4026 -2.21626 -12.8501 -18.8226 -54.6477C-35.429 -96.4453 -59.6972 -144.588 -57.3246 -191.61C-54.9521 -238.632 -25.2564 -282.263 7.52343 -319.084C37.3461 -352.309 148.253 -431.17 69.2718 -478.113" stroke="white" stroke-linecap="round" stroke-linejoin="round"/>
<path d="M-190.226 758.546C-85.511 690.946 -47.5072 550.145 -98.4706 434.942C-117.56 391.988 -147.215 351.782 -157.03 306.45C-171.092 241.827 -133.012 185.49 -75.6516 156.457C-27.2353 132.268 18.6498 116.389 20.8189 57.1611C22.3661 14.0506 2.707 -26.4002 -18.164 -67.7911C-39.035 -109.182 -63.1089 -155.936 -59.2114 -202.076C-55.314 -248.216 -24.0772 -287.406 8.15308 -322.31C37.6809 -353.99 152.014 -437.054 69.0802 -481.575" stroke="white" stroke-linecap="round" stroke-linejoin="round"/>
<path d="M-180.172 759.651C-71.1701 687.948 -30.1669 540.303 -85.9184 420.616C-104.971 379.599 -134.178 341.447 -142.782 298.092C-155.631 233.373 -113.464 178.799 -54.8931 151.744C-5.16718 128.671 40.8357 112.381 37.356 48.5706C34.7201 2.48297 7.17982 -39.9315 -17.8189 -80.8764C-42.8177 -121.821 -66.8734 -167.088 -61.4118 -212.484C-55.9502 -257.879 -23.1724 -292.627 8.42988 -325.341C37.5652 -355.653 155.56 -442.703 68.3988 -484.881" stroke="white" stroke-linecap="round" stroke-linejoin="round"/>
<path d="M-198.866 773.698C-136.544 732.014 -94.0128 663.768 -83.8311 591.579C-76.3718 536.812 -81.7359 481.061 -99.5006 428.721C-103.714 416.55 -108.495 404.809 -113.14 393.107C-123.97 366.299 -135.291 340.683 -137.533 312.337C-138.233 304.006 -138.016 295.623 -136.883 287.339C-129.872 237.055 -90.8064 193.296 -43.1117 166.973C-30.782 160.139 -18.8437 153.637 -7.96126 146.683C22.6699 127.171 44.8151 104.189 41.5541 57.1813C39.2375 24.9625 25.6328 -5.60437 9.26916 -35.3328C1.84883 -48.7193 -6.09992 -61.8132 -13.9118 -74.8676C-38.8119 -116.673 -63.376 -162.234 -60.8091 -207.867C-60.0478 -220.139 -57.5263 -232.238 -53.3222 -243.793C-46.595 -262.604 -36.1133 -280.042 -23.7545 -296.794C-16.7162 -306.106 -9.16516 -315.019 -1.13632 -323.492C11.0624 -336.586 37.587 -357.276 59.4775 -379.887C92.8421 -414.615 117.39 -455.277 68.8474 -482.826" stroke="white" stroke-linecap="round" stroke-linejoin="round"/>
<path d="M-217.659 787.567C-155.357 745.434 -110.495 674.745 -102.601 601.751C-96.4443 545.149 -102.668 486.773 -113.398 436.883C-115.93 425.046 -118.853 413.542 -121.581 402.39C-127.718 376.779 -134.307 353.26 -132.776 326.737C-132.371 318.832 -131.164 310.988 -129.174 303.327C-116.551 255.689 -76.7224 211.852 -31.685 182.397C-20.0195 174.78 -8.84318 167.318 1.238 159.543C29.4263 137.7 49.3239 112.74 45.1821 66.2209C42.3965 33.5713 28.8512 2.28074 12.5077 -28.0345C5.16585 -41.6948 -2.84127 -55.1017 -10.5746 -68.4299C-35.5523 -110.998 -60.4878 -156.814 -60.9525 -202.723C-60.987 -214.925 -59.4434 -227.081 -56.3604 -238.887C-51.5888 -258.111 -43.3366 -276.04 -32.4443 -293.36C-26.1321 -303.341 -18.9279 -312.73 -10.9203 -321.41C1.86629 -335.52 29.1337 -355.701 51.6492 -377.392C86.4603 -410.964 113.746 -450.842 69.1176 -480.675" stroke="white" stroke-linecap="round" stroke-linejoin="round"/>
<path d="M-236.353 801.614C-174.03 758.894 -127.015 685.86 -121.096 612.004C-116.541 553.756 -122.803 494.481 -126.883 445.164C-127.87 433.623 -128.798 422.394 -129.434 411.694C-130.917 387.417 -132.735 365.86 -127.469 341.296C-125.879 333.902 -123.653 326.66 -120.817 319.649C-102.583 274.657 -62.0893 230.566 -19.6115 198.156C-8.47349 189.794 1.84324 181.197 11.1232 172.599C36.8295 148.564 54.3424 121.587 49.6724 75.3604C46.2808 42.2408 32.8925 10.4027 16.706 -20.46C9.44268 -34.3942 1.55328 -48.2117 -6.23847 -61.8529C-31.1567 -105.145 -56.4636 -151.215 -60.0577 -197.578C-60.9068 -209.744 -60.3834 -221.968 -58.4972 -234.018C-55.5665 -253.597 -49.4287 -272.558 -40.3304 -290.14C-34.7946 -300.715 -27.9433 -310.547 -19.9398 -319.403C-6.56537 -334.53 21.621 -354.299 44.5855 -374.972C80.706 -407.428 110.828 -446.345 70.1131 -478.464" stroke="white" stroke-linecap="round" stroke-linejoin="round"/>
<path d="M-255.143 815.484C-192.938 772.138 -143.456 696.7 -139.824 622.04C-136.872 562.148 -143.348 502.071 -140.739 453.191C-140.181 441.944 -139.153 431.128 -137.794 420.703C-134.662 397.899 -131.67 378.165 -122.494 355.463C-119.741 348.571 -116.532 341.87 -112.89 335.403C-88.9072 293.096 -47.8851 248.713 -7.83014 213.385C2.24028 204.544 11.7728 195.108 20.7164 185.128C44.0773 158.939 59.2058 129.944 53.8705 83.9715C50.0098 50.4211 36.6416 17.9962 20.5145 -13.5902C13.1928 -27.8375 5.38197 -41.9286 -2.46819 -55.8829C-27.3271 -99.8988 -53.103 -146.4 -59.5918 -193C-61.2009 -205.155 -61.6477 -217.437 -60.9261 -229.677C-60.1554 -249.459 -55.9676 -268.958 -48.5479 -287.311C-43.829 -298.45 -37.3245 -308.744 -29.2907 -317.788C-15.3285 -333.932 13.6007 -353.191 37.3272 -372.905C74.8941 -404.206 107.753 -442.338 70.8163 -476.78" stroke="white" stroke-linecap="round" stroke-linejoin="round"/>
<path d="M-273.839 829.531C-211.653 785.735 -159.977 707.815 -158.497 632.39C-157.147 570.853 -163.877 510.11 -154.363 461.433C-152.278 450.748 -149.411 440.232 -145.785 429.968C-138.649 408.889 -129.085 388.713 -117.286 369.845C-113.486 363.824 -109.47 357.569 -104.73 351.372C-75.1363 311.712 -33.4881 267.212 4.00719 228.928C13.4984 219.23 22.3056 208.885 30.3655 197.969C51.2443 169.586 63.9883 138.575 58.1245 92.8951C53.7948 58.914 40.4467 25.9022 24.379 -6.4079C17.1358 -20.929 9.40346 -35.2938 1.4949 -49.5612C-23.2654 -94.4375 -49.4519 -141.056 -59.1094 -187.972C-61.5265 -200.158 -62.9863 -212.513 -63.4753 -224.927C-64.4732 -245.212 -63.007 -264.791 -56.8857 -284.072C-53.0151 -295.737 -46.8532 -306.512 -38.7617 -315.763C-24.2117 -332.923 5.63641 -351.771 29.8118 -370.468C68.6882 -400.652 104.422 -437.959 71.3602 -474.55" stroke="white" stroke-linecap="round" stroke-linejoin="round"/>
<path d="M-292.669 843.538C-230.462 799.155 -176.633 718.89 -177.128 642.602C-177.517 579.382 -184.598 517.797 -168.121 469.635C-164.499 459.064 -159.796 448.896 -154.087 439.29C-142.312 419.408 -129.249 403.302 -112.429 384.423C-107.572 378.853 -102.403 373.224 -96.9205 367.537C-61.3627 330.327 -19.3231 285.495 15.6127 244.255C24.5347 233.682 32.616 222.428 39.7827 210.594C58.3163 180.058 68.539 146.99 61.9706 101.701C56.9957 67.3868 43.8439 33.6906 27.9332 0.832892C20.7685 -13.9618 12.9777 -28.6399 5.14774 -43.181C-19.5532 -88.7811 -46.2088 -135.831 -58.8979 -183.023C-62.0823 -195.259 -64.5072 -207.68 -66.1586 -220.215C-69.1513 -240.776 -70.0123 -261.023 -65.3575 -280.872C-62.3645 -293.026 -56.5429 -304.3 -48.3669 -313.777C-33.1899 -332.091 -2.50128 -350.253 22.1622 -368.069C62.4851 -397.098 100.918 -433.484 71.6723 -472.535" stroke="white" stroke-linecap="round" stroke-linejoin="round"/>
<path d="M-311.459 857.408C-249.37 812.399 -193.386 729.788 -195.856 652.638C-198.024 587.871 -205.417 525.308 -181.84 477.7C-176.551 467.134 -169.942 457.281 -162.173 448.378C-146.194 429.849 -128.047 415.646 -107.316 398.628L-88.8558 383.33C-45.4159 346.841 -6.42352 305.365 27.3161 259.758C35.6507 248.331 42.9917 236.212 49.2585 223.533C65.4469 190.842 73.1482 155.719 66.0514 110.722C60.4706 75.9377 47.515 41.5571 31.6244 8.11261C24.5383 -6.95595 16.826 -21.9078 8.9376 -36.7619C-15.7039 -83.0857 -42.731 -130.39 -58.4517 -177.859C-62.6451 -190.617 -65.9196 -202.963 -68.7833 -215.191C-73.5949 -236.126 -76.959 -256.941 -73.7708 -277.36C-71.8807 -290.151 -66.1387 -301.393 -57.9136 -311.478C-42.1488 -330.809 -10.7174 -348.462 14.7082 -365.319C56.4774 -393.192 97.6476 -428.792 72.2774 -469.992" stroke="white" stroke-linecap="round" stroke-linejoin="round"/>
<path d="M-330.155 871.454C-268.045 825.859 -209.869 740.766 -214.528 662.988C-218.436 596.536 -226.317 533.093 -195.601 485.903C-188.598 475.312 -180.126 465.77 -170.438 457.564C-150.352 440.213 -127.024 428.088 -102.246 412.972C-95.2193 408.616 -88.1143 403.987 -80.8332 399.26C-33.7597 367.871 9.23926 322.277 39.0557 275.125C46.822 262.783 53.4348 249.753 58.81 236.198C72.6531 201.354 77.833 164.174 70.2078 119.47C64.158 84.2551 51.2225 49.2877 35.5282 15.1587C28.3836 -0.222838 20.7499 -15.4483 12.8423 -30.7524C-11.7398 -77.7999 -39.0991 -125.496 -57.9883 -173.281C-63.0816 -186 -67.3142 -198.621 -71.3516 -210.889C-78.1189 -232.237 -83.8886 -253.446 -82.1276 -274.57C-81.1173 -287.909 -75.5706 -299.504 -67.4038 -309.902C-51.0511 -330.249 -18.7008 -347.491 7.17367 -363.33C50.5262 -390.009 94.1211 -424.766 72.6653 -468.25" stroke="white" stroke-linecap="round" stroke-linejoin="round"/>
<path d="M-348.947 885.325C-286.857 839.279 -226.624 751.665 -233.121 673.064C-238.768 604.928 -247.098 540.467 -209.184 494.008C-200.392 483.459 -190.072 474.284 -178.565 466.789C-154.197 450.518 -125.726 440.608 -97.2137 427.451C-89.0207 423.677 -80.8991 419.636 -72.849 415.327C-20.0664 386.76 23.5001 340.736 50.7569 290.628C57.9497 277.355 63.8328 263.413 68.3231 249C79.9578 212.041 82.4794 172.765 74.1889 128.315C67.5332 92.6303 54.7547 57.1153 39.0805 22.3995C32.0144 6.7442 24.4984 -8.892 16.4933 -24.3722C-8.02954 -72.1434 -35.7209 -120.231 -57.8179 -168.195C-63.6348 -180.974 -68.9042 -193.596 -74.076 -206.041C-82.8381 -227.664 -90.935 -249.541 -90.6405 -271.233C-90.4706 -285.258 -85.2953 -297.107 -77.0501 -307.779C-60.2465 -329.183 -26.8795 -345.836 -0.516948 -360.794C44.2427 -386.181 90.6146 -420.29 73.0731 -466.059" stroke="white" stroke-linecap="round" stroke-linejoin="round"/>
<path d="M-367.64 899.371C-305.529 852.739 -243.455 762.838 -251.751 683.277C-259.314 613.555 -268.053 547.94 -222.805 502.25C-212.12 491.674 -199.882 482.794 -186.514 475.916C-157.863 460.725 -124.348 452.855 -91.964 441.697C-82.7282 438.42 -73.5901 434.966 -64.6472 431.16C-6.01861 405.455 37.8419 358.922 62.6366 306.034C69.2404 291.812 74.3924 276.96 78.0145 261.704C87.4409 222.631 87.3043 181.26 78.4854 137.103C71.1844 101.084 58.6022 64.8849 42.9874 29.4455C35.9998 13.5164 28.4255 -2.43282 20.4988 -18.1867C-3.92537 -66.8185 -31.9881 -115.16 -57.1168 -163.402C-63.7293 -176.162 -70.1591 -188.869 -76.4065 -201.524C-87.3005 -223.463 -97.5876 -245.967 -98.7596 -268.228C-99.4694 -282.802 -94.587 -295.179 -86.3418 -305.852C-68.9504 -328.271 -34.7037 -344.376 -7.71606 -358.415C38.49 -382.645 87.5997 -415.969 73.7964 -463.926" stroke="white" stroke-linecap="round" stroke-linejoin="round"/>
<path d="M-386.433 913.242C-324.439 865.983 -260.074 773.777 -270.521 693.45C-281.725 606.981 -292.819 527.358 -194.916 485.063C-152.687 466.951 -100.944 462.678 -56.898 447.012C24.9328 417.886 74.3298 349.979 87.4293 274.33C100.529 198.682 80.5973 115.784 46.7152 36.5892C12.8332 -42.6055 -34.5674 -119.603 -78.9162 -196.91C-91.629 -219.221 -104.459 -242.159 -107.019 -265.263C-112.235 -312.683 -55.3489 -336.962 -15.0158 -356.211C32.7343 -379.11 84.4449 -411.688 74.5951 -462.066" stroke="white" stroke-linecap="round" stroke-linejoin="round"/>
</g>
</g>
</g>
<rect x="-282" y="-8" width="327" height="47" rx="7" stroke="white" stroke-width="2"/>
<g clip-path="url(#clip3)">
<path d="M16.9885 11.3662V14.1547H14.1813V11.3662H12.3984V18.5995H14.1813V15.5754H16.9885V18.5995H18.7894V11.3662H16.9885Z" fill="white"/>
</g>
<rect x="0.5" y="0.5" width="30" height="30" stroke="white"/>
<rect x="2.77734" y="2.66992" width="6.71556" height="6.47444" stroke="white"/>
<rect x="4.48047" y="4.30566" width="3.30667" height="3.20333" fill="white"/>
<rect x="21.5156" y="2.66992" width="6.71556" height="6.47444" stroke="white"/>
<rect x="23.2188" y="4.30566" width="3.30667" height="3.20333" fill="white"/>
<rect x="2.77734" y="20.8223" width="6.71556" height="6.47444" stroke="white"/>
<rect x="4.48047" y="22.458" width="3.30667" height="3.20333" fill="white"/>
<rect x="21.5156" y="20.8223" width="6.71556" height="6.47444" stroke="white"/>
<rect x="23.2188" y="22.458" width="3.30667" height="3.20333" fill="white"/>
<path d="M12.1519 2.16992H11.0938V3.19499H12.1519V2.16992Z" fill="white"/>
<path d="M17.4409 2.16992H16.3828V3.19499H17.4409V2.16992Z" fill="white"/>
<path d="M18.4956 2.16992H17.4375V3.19499H18.4956V2.16992Z" fill="white"/>
<path d="M19.5581 2.16992H18.5V3.19499H19.5581V2.16992Z" fill="white"/>
<path d="M12.1519 3.19531H11.0938V4.22038H12.1519V3.19531Z" fill="white"/>
<path d="M15.3199 3.19531H14.2617V4.22038H15.3199V3.19531Z" fill="white"/>
<path d="M16.3863 3.19531H15.3281V4.22038H16.3863V3.19531Z" fill="white"/>
<path d="M17.4409 3.19531H16.3828V4.22038H17.4409V3.19531Z" fill="white"/>
<path d="M12.1519 4.21973H11.0938V5.24479H12.1519V4.21973Z" fill="white"/>
<path d="M13.2066 4.21973H12.1484V5.24479H13.2066V4.21973Z" fill="white"/>
<path d="M16.3863 4.21973H15.3281V5.24479H16.3863V4.21973Z" fill="white"/>
<path d="M18.4956 4.21973H17.4375V5.24479H18.4956V4.21973Z" fill="white"/>
<path d="M19.5581 4.21973H18.5V5.24479H19.5581V4.21973Z" fill="white"/>
<path d="M12.1519 5.24512H11.0938V6.27018H12.1519V5.24512Z" fill="white"/>
<path d="M13.2066 5.24512H12.1484V6.27018H13.2066V5.24512Z" fill="white"/>
<path d="M14.2613 5.24512H13.2031V6.27018H14.2613V5.24512Z" fill="white"/>
<path d="M16.3863 5.24512H15.3281V6.27018H16.3863V5.24512Z" fill="white"/>
<path d="M18.4956 5.24512H17.4375V6.27018H18.4956V5.24512Z" fill="white"/>
<path d="M19.5581 5.24512H18.5V6.27018H19.5581V5.24512Z" fill="white"/>
<path d="M13.2066 6.26953H12.1484V7.2946H13.2066V6.26953Z" fill="white"/>
<path d="M14.2613 6.26953H13.2031V7.2946H14.2613V6.26953Z" fill="white"/>
<path d="M16.3863 6.26953H15.3281V7.2946H16.3863V6.26953Z" fill="white"/>
<path d="M17.4409 6.26953H16.3828V7.2946H17.4409V6.26953Z" fill="white"/>
<path d="M19.5581 6.26953H18.5V7.2946H19.5581V6.26953Z" fill="white"/>
<path d="M12.1519 7.29492H11.0938V8.31999H12.1519V7.29492Z" fill="white"/>
<path d="M13.2066 7.29492H12.1484V8.31999H13.2066V7.29492Z" fill="white"/>
<path d="M14.2613 7.29492H13.2031V8.31999H14.2613V7.29492Z" fill="white"/>
<path d="M17.4409 7.29492H16.3828V8.31999H17.4409V7.29492Z" fill="white"/>
<path d="M19.5581 7.29492H18.5V8.31999H19.5581V7.29492Z" fill="white"/>
<path d="M12.1519 8.31836H11.0938V9.34343H12.1519V8.31836Z" fill="white"/>
<path d="M14.2613 8.31836H13.2031V9.34343H14.2613V8.31836Z" fill="white"/>
<path d="M16.3863 8.31836H15.3281V9.34343H16.3863V8.31836Z" fill="white"/>
<path d="M18.4956 8.31836H17.4375V9.34343H18.4956V8.31836Z" fill="white"/>
<path d="M2.27734 17.8909L2.27734 18.916L3.33548 18.916L3.33548 17.8909L2.27734 17.8909Z" fill="white"/>
<path d="M2.27734 12.764L2.27734 13.7891L3.33548 13.7891L3.33548 12.764L2.27734 12.764Z" fill="white"/>
<path d="M2.27734 11.7425L2.27734 12.7676L3.33548 12.7676L3.33548 11.7425L2.27734 11.7425Z" fill="white"/>
<path d="M2.27734 10.7122L2.27734 11.7373L3.33548 11.7373L3.33548 10.7122L2.27734 10.7122Z" fill="white"/>
<path d="M3.32812 17.8909L3.32812 18.916L4.38626 18.916L4.38626 17.8909L3.32812 17.8909Z" fill="white"/>
<path d="M3.32812 14.8158L3.32812 15.8408L4.38626 15.8408L4.38626 14.8158L3.32812 14.8158Z" fill="white"/>
<path d="M3.32812 13.7904L3.32812 14.8154L4.38626 14.8154L4.38626 13.7904L3.32812 13.7904Z" fill="white"/>
<path d="M3.32812 12.764L3.32812 13.7891L4.38626 13.7891L4.38626 12.764L3.32812 12.764Z" fill="white"/>
<path d="M4.38672 17.8909L4.38672 18.916L5.44485 18.916L5.44485 17.8909L4.38672 17.8909Z" fill="white"/>
<path d="M4.38672 16.8646L4.38672 17.8896L5.44485 17.8896L5.44485 16.8646L4.38672 16.8646Z" fill="white"/>
<path d="M4.38672 13.7904L4.38672 14.8154L5.44485 14.8154L5.44485 13.7904L4.38672 13.7904Z" fill="white"/>
<path d="M4.38672 11.7425L4.38672 12.7676L5.44485 12.7676L5.44485 11.7425L4.38672 11.7425Z" fill="white"/>
<path d="M4.38672 10.7122L4.38672 11.7373L5.44485 11.7373L5.44485 10.7122L4.38672 10.7122Z" fill="white"/>
<path d="M5.44531 17.8909L5.44531 18.916L6.50345 18.916L6.50345 17.8909L5.44531 17.8909Z" fill="white"/>
<path d="M5.44531 16.8646L5.44531 17.8896L6.50345 17.8896L6.50345 16.8646L5.44531 16.8646Z" fill="white"/>
<path d="M5.44531 15.8421L5.44531 16.8672L6.50345 16.8672L6.50345 15.8421L5.44531 15.8421Z" fill="white"/>
<path d="M5.44531 13.7904L5.44531 14.8154L6.50345 14.8154L6.50345 13.7904L5.44531 13.7904Z" fill="white"/>
<path d="M5.44531 11.7425L5.44531 12.7676L6.50345 12.7676L6.50345 11.7425L5.44531 11.7425Z" fill="white"/>
<path d="M5.44531 10.7122L5.44531 11.7373L6.50345 11.7373L6.50345 10.7122L5.44531 10.7122Z" fill="white"/>
<path d="M6.5 16.8646L6.5 17.8896L7.55813 17.8896L7.55813 16.8646L6.5 16.8646Z" fill="white"/>
<path d="M6.5 15.8421L6.5 16.8672L7.55813 16.8672L7.55813 15.8421L6.5 15.8421Z" fill="white"/>
<path d="M6.5 13.7904L6.5 14.8154L7.55813 14.8154L7.55813 13.7904L6.5 13.7904Z" fill="white"/>
<path d="M6.5 12.764L6.5 13.7891L7.55813 13.7891L7.55813 12.764L6.5 12.764Z" fill="white"/>
<path d="M6.5 10.7122L6.5 11.7373L7.55813 11.7373L7.55813 10.7122L6.5 10.7122Z" fill="white"/>
<path d="M7.5625 17.8909L7.5625 18.916L8.62063 18.916L8.62063 17.8909L7.5625 17.8909Z" fill="white"/>
<path d="M7.5625 16.8646L7.5625 17.8896L8.62063 17.8896L8.62063 16.8646L7.5625 16.8646Z" fill="white"/>
<path d="M7.5625 15.8421L7.5625 16.8672L8.62063 16.8672L8.62063 15.8421L7.5625 15.8421Z" fill="white"/>
<path d="M7.5625 12.764L7.5625 13.7891L8.62063 13.7891L8.62063 12.764L7.5625 12.764Z" fill="white"/>
<path d="M7.5625 10.7122L7.5625 11.7373L8.62063 11.7373L8.62063 10.7122L7.5625 10.7122Z" fill="white"/>
<path d="M8.62109 17.8909L8.62109 18.916L9.67923 18.916L9.67923 17.8909L8.62109 17.8909Z" fill="white"/>
<path d="M8.62109 15.8421L8.62109 16.8672L9.67923 16.8672L9.67923 15.8421L8.62109 15.8421Z" fill="white"/>
<path d="M8.62109 13.7904L8.62109 14.8154L9.67923 14.8154L9.67923 13.7904L8.62109 13.7904Z" fill="white"/>
<path d="M8.62109 11.7425L8.62109 12.7676L9.67923 12.7676L9.67923 11.7425L8.62109 11.7425Z" fill="white"/>
<path d="M22.9605 10.7119H21.9023V11.737H22.9605V10.7119Z" fill="white"/>
<path d="M25.0699 10.7119H24.0117V11.737H25.0699V10.7119Z" fill="white"/>
<path d="M26.1284 10.7119H25.0703V11.737H26.1284V10.7119Z" fill="white"/>
<path d="M27.1831 10.7119H26.125V11.737H27.1831V10.7119Z" fill="white"/>
<path d="M28.2378 10.7119H27.1797V11.737H28.2378V10.7119Z" fill="white"/>
<path d="M20.8355 11.7373H19.7773V12.7624H20.8355V11.7373Z" fill="white"/>
<path d="M22.9605 11.7373H21.9023V12.7624H22.9605V11.7373Z" fill="white"/>
<path d="M27.1831 11.7373H26.125V12.7624H27.1831V11.7373Z" fill="white"/>
<path d="M28.2378 11.7373H27.1797V12.7624H28.2378V11.7373Z" fill="white"/>
<path d="M24.0152 12.7627H22.957V13.7878H24.0152V12.7627Z" fill="white"/>
<path d="M28.2378 12.7627H27.1797V13.7878H28.2378V12.7627Z" fill="white"/>
<path d="M22.9605 13.7852H21.9023V14.8102H22.9605V13.7852Z" fill="white"/>
<path d="M25.0699 13.7852H24.0117V14.8102H25.0699V13.7852Z" fill="white"/>
<path d="M27.1831 13.7852H26.125V14.8102H27.1831V13.7852Z" fill="white"/>
<path d="M28.2378 13.7852H27.1797V14.8102H28.2378V13.7852Z" fill="white"/>
<path d="M21.8902 14.8125H20.832V15.8376H21.8902V14.8125Z" fill="white"/>
<path d="M24.0152 14.8125H22.957V15.8376H24.0152V14.8125Z" fill="white"/>
<path d="M26.1284 14.8125H25.0703V15.8376H26.1284V14.8125Z" fill="white"/>
<path d="M27.1831 14.8125H26.125V15.8376H27.1831V14.8125Z" fill="white"/>
<path d="M28.2378 14.8125H27.1797V15.8376H28.2378V14.8125Z" fill="white"/>
<path d="M22.9605 15.835H21.9023V16.86H22.9605V15.835Z" fill="white"/>
<path d="M25.0699 15.835H24.0117V16.86H25.0699V15.835Z" fill="white"/>
<path d="M24.0152 16.8604H22.957V17.8854H24.0152V16.8604Z" fill="white"/>
<path d="M25.0699 16.8604H24.0117V17.8854H25.0699V16.8604Z" fill="white"/>
<path d="M26.1284 16.8604H25.0703V17.8854H26.1284V16.8604Z" fill="white"/>
<path d="M21.8902 17.8857H20.832V18.9108H21.8902V17.8857Z" fill="white"/>
<path d="M22.9605 17.8857H21.9023V18.9108H22.9605V17.8857Z" fill="white"/>
<path d="M25.0699 17.8857H24.0117V18.9108H25.0699V17.8857Z" fill="white"/>
<path d="M28.6831 18.1865H27.625V19.2116H28.6831V18.1865Z" fill="white"/>
<path d="M12.1519 20.3223H11.0938V21.3473H12.1519V20.3223Z" fill="white"/>
<path d="M14.355 20.3223H13.2969V21.3473H14.355V20.3223Z" fill="white"/>
<path d="M15.4527 20.3223H14.3945V21.3473H15.4527V20.3223Z" fill="white"/>
<path d="M16.5581 20.3223H15.5V21.3473H16.5581V20.3223Z" fill="white"/>
<path d="M13.2027 21.3467H12.1445V22.3717H13.2027V21.3467Z" fill="white"/>
<path d="M17.437 21.3467H16.3789V22.3717H17.437V21.3467Z" fill="white"/>
<path d="M19.5542 21.3467H18.4961V22.3717H19.5542V21.3467Z" fill="white"/>
<path d="M12.1519 22.3721H11.0938V23.3971H12.1519V22.3721Z" fill="white"/>
<path d="M13.2027 22.3721H12.1445V23.3971H13.2027V22.3721Z" fill="white"/>
<path d="M15.3199 22.3721H14.2617V23.3971H15.3199V22.3721Z" fill="white"/>
<path d="M16.3863 22.3721H15.3281V23.3971H16.3863V22.3721Z" fill="white"/>
<path d="M18.4995 22.3721H17.4414V23.3971H18.4995V22.3721Z" fill="white"/>
<path d="M19.5542 22.3721H18.4961V23.3971H19.5542V22.3721Z" fill="white"/>
<path d="M27.5777 18.1865H26.5195V19.2116H27.5777V18.1865Z" fill="white"/>
<path d="M12.1519 23.3975H11.0938V24.4225H12.1519V23.3975Z" fill="white"/>
<path d="M14.2613 23.3975H13.2031V24.4225H14.2613V23.3975Z" fill="white"/>
<path d="M15.3199 23.3975H14.2617V24.4225H15.3199V23.3975Z" fill="white"/>
<path d="M17.437 23.3975H16.3789V24.4225H17.437V23.3975Z" fill="white"/>
<path d="M18.4995 23.3975H17.4414V24.4225H18.4995V23.3975Z" fill="white"/>
<path d="M19.5542 23.3975H18.4961V24.4225H19.5542V23.3975Z" fill="white"/>
<path d="M13.2027 24.4229H12.1445V25.4479H13.2027V24.4229Z" fill="white"/>
<path d="M15.3199 24.4229H14.2617V25.4479H15.3199V24.4229Z" fill="white"/>
<path d="M16.3863 24.4229H15.3281V25.4479H16.3863V24.4229Z" fill="white"/>
<path d="M17.437 24.4229H16.3789V25.4479H17.437V24.4229Z" fill="white"/>
<path d="M18.4995 24.4229H17.4414V25.4479H18.4995V24.4229Z" fill="white"/>
<path d="M13.2027 25.4482H12.1445V26.4733H13.2027V25.4482Z" fill="white"/>
<path d="M14.2613 25.4482H13.2031V26.4733H14.2613V25.4482Z" fill="white"/>
<path d="M17.437 25.4482H16.3789V26.4733H17.437V25.4482Z" fill="white"/>
<path d="M19.5542 25.4482H18.4961V26.4733H19.5542V25.4482Z" fill="white"/>
<path d="M13.2027 26.4717H12.1445V27.4967H13.2027V26.4717Z" fill="white"/>
<path d="M14.2613 26.4717H13.2031V27.4967H14.2613V26.4717Z" fill="white"/>
<path d="M17.437 26.4717H16.3789V27.4967H17.437V26.4717Z" fill="white"/>
<path d="M19.5542 26.4717H18.4961V27.4967H19.5542V26.4717Z" fill="white"/>
<path d="M15.3199 27.4971H14.2617V28.5221H15.3199V27.4971Z" fill="white"/>
<path d="M17.437 27.4971H16.3789V28.5221H17.437V27.4971Z" fill="white"/>
<path d="M18.4995 27.4971H17.4414V28.5221H18.4995V27.4971Z" fill="white"/>
</g>
<defs>
<clipPath id="clip0">
<rect width="375" height="812" fill="white" transform="translate(-306 -322)"/>
</clipPath>
<clipPath id="clip1">
<rect width="1471.04" height="479.832" fill="white" transform="translate(-577.078 859.463) rotate(-74)"/>
</clipPath>
<clipPath id="clip2">
<rect width="1471.04" height="479.832" fill="white" transform="translate(-577.078 859.463) rotate(-74)"/>
</clipPath>
<clipPath id="clip3">
<rect width="6.4" height="7.23333" fill="white" transform="translate(12.3984 11.3662)"/>
</clipPath>
</defs>
</svg>
