<svg width="123" height="108" viewBox="0 0 123 108" fill="none" xmlns="http://www.w3.org/2000/svg">
<g filter="url(#filter0_d)">
<path d="M105.873 38.7059C107.38 42.9499 107.949 47.4711 107.539 51.958C107.129 56.445 105.751 60.7909 103.5 64.6965C99.9863 70.7905 94.4176 75.6415 87.7381 77.9356C82.4794 79.7349 76.5895 80.0921 71.3975 77.8777C64.9664 75.1333 60.7446 69.9497 53.2417 70.0044C46.6919 70.0522 41.7364 75.0952 35.4649 76.0253C20.085 78.2925 10.2792 57.4545 18.3252 45.5145C21.016 41.5155 25.7174 37.9104 30.7174 37.846C34.3591 37.8033 37.8229 39.2694 41.4771 39.2849C46.6818 39.3121 52.2854 37.3735 55.7443 33.3793C58.3392 30.4021 59.2198 26.3517 62.186 23.6567C68.2109 18.1791 77.0362 18.0236 84.5613 19.8078C93.4467 21.9171 100.945 27.7825 104.808 36.1076C105.207 36.9579 105.556 37.8223 105.873 38.7059Z" fill="#E4F8FF"/>
</g>
<path d="M59.4045 53.2173C58.9053 55.292 56.7293 55.7121 55.7638 57.8853C55.0009 59.5761 55.8298 61.2411 53.8799 62.7659C51.9301 64.2908 48.2565 64.934 46.8482 66.853C45.0727 69.2804 46.1747 71.7804 43.867 72.6569C42.1291 73.3104 39.2985 75.3073 39.1572 77.6465C38.5449 87.1744 30.2557 88.4348 36.7034 88.4348C46.1936 88.4348 43.1558 78.523 48.1293 79.799C51.5298 80.6703 54.2049 79.5292 55.8298 76.355C57.9256 72.2524 60.0686 71.1683 63.1535 69.8094C67.2133 68.0304 65.904 62.9838 69.2197 62.0761C71.372 61.4485 59.4045 53.2173 59.4045 53.2173Z" fill="#21ACE3"/>
<path d="M63.5075 58.6956C61.1639 61.332 61.4732 65.698 59.1671 66.4467C56.3828 67.3484 52.8485 68.7035 52.1361 70.9076C50.9033 74.6619 45.6488 74.5196 46.0191 76.1805C46.3894 77.8415 53.472 75.2262 55.0656 72.0308C56.4718 69.2045 61.6045 71.0131 63.2263 67.3695C64.3226 65.0596 65.939 63.1141 67.9136 61.7275L63.5075 58.6956Z" fill="#4AC6F8"/>
<path d="M87.6858 46.1341L81.2028 53.3347C82.3778 53.634 83.1604 54.2305 81.4059 56.1465L72.8589 65.657C73.5419 65.8025 83.2056 59.5843 89.3622 54.5581C94.7901 50.1608 93.9059 47.4395 87.6858 46.1341Z" fill="#3B5B7B"/>
<path d="M72.4375 32.4477L65.9546 39.6483C65.5342 38.5182 64.8602 37.7999 63.1051 39.7496L54.5582 49.2601C54.3439 48.5939 59.4988 38.3224 63.8217 31.6721C67.6997 25.8125 70.4877 26.4067 72.4375 32.4477Z" fill="#3B5B7B"/>
<path d="M61.5369 51.1611C63.5005 51.688 65.312 52.6709 66.824 54.0299C68.3361 55.3889 69.506 57.0856 70.2387 58.982C70.8119 60.7548 70.5983 62.2006 69.7808 63.109C68.9632 64.0174 67.5475 64.3884 65.7223 64.0058C63.7598 63.4782 61.9495 62.4949 60.4384 61.136C58.9274 59.777 57.7583 58.0808 57.0261 56.185C56.4473 54.4122 56.6611 52.9607 57.4786 52.0523C58.2961 51.1439 59.7117 50.7785 61.5369 51.1611Z" fill="#368CFB"/>
<path d="M70.24 58.9826C69.5073 57.0862 68.3374 55.3896 66.8253 54.0306C65.3132 52.6716 63.5018 51.6887 61.5382 51.1617C60.8147 50.9937 60.0656 50.9667 59.3319 51.0822C59.3257 51.4792 59.4002 51.8733 59.5508 52.2406C59.7015 52.608 59.9252 52.9409 60.2083 53.2192C64.6231 58.2485 64.0588 61.6324 62.8318 62.8658C63.7325 63.39 64.7075 63.7747 65.7236 64.0065C67.5488 64.389 68.9645 64.0181 69.782 63.1097C70.5995 62.2013 70.8132 60.7554 70.24 58.9826Z" fill="#368CFB"/>
<path d="M89.0459 51.436C97.113 40.6484 98.641 25.6128 98.6839 18.5864C91.7006 19.3755 76.9122 22.4912 67.0225 31.6604C62.1659 36.1678 59.3432 41.7182 57.4269 46.4234C56.9011 47.7127 56.8973 49.3865 57.5241 51.3231C58.6158 54.1456 60.3581 56.6708 62.6092 58.6933C64.8604 60.7158 67.557 62.1787 70.48 62.963C72.4674 63.3874 74.133 63.2001 75.3567 62.5396C79.8656 60.1389 85.0755 56.7436 89.0459 51.436Z" fill="#21ACE3"/>
<path d="M98.6836 18.5865C94.9988 19.0235 91.3546 19.7533 87.7857 20.769C87.3509 20.9044 86.9595 21.1521 86.651 21.4871C85.9593 22.257 85.7714 23.4898 86.2646 24.9917C86.8851 26.6017 87.8774 28.0422 89.1606 29.1957C90.4437 30.3492 91.9814 31.183 93.6481 31.6292C95.1933 31.9568 96.3942 31.6723 97.0921 30.8687C97.3933 30.5157 97.594 30.0881 97.6733 29.6309C98.2999 25.9817 98.6377 22.2888 98.6836 18.5865Z" fill="#3B5B7B"/>
<path d="M97.0692 30.8798C97.3704 30.5268 97.5711 30.0992 97.6504 29.642C98.2795 25.9893 98.6192 22.2926 98.6665 18.5865C98.0368 21.1268 96.3042 25.9416 93.6364 31.6405C95.2435 31.9634 96.4003 31.622 97.0692 30.8798Z" fill="#3B5B7B"/>
<path d="M79.4853 54.0157C76.79 55.0294 74.4792 56.9535 72.5065 59.5233C72.8525 60.7421 72.9131 62.2484 71.1637 64.1982L62.5886 73.7083C62.8028 74.3745 70.1282 70.7597 75.3417 66.7747C79.9746 63.2805 81.1873 60.0977 79.4853 54.0157Z" fill="#3B5B7B"/>
<path d="M70.4363 65.709C73.5504 64.8591 75.0764 64.9729 79.1403 59.4364C79.502 58.9366 80.187 58.599 80.1938 59.2395C80.2499 57.4708 80.0099 55.7052 79.4838 54.0156C76.7885 55.0293 74.4777 56.9535 72.5051 59.5232C72.8511 60.742 72.9117 62.2483 71.1622 64.1981L70.2704 65.1896L70.4363 65.709Z" fill="#3B5B7B"/>
<path d="M65.4932 41.4382C64.7696 44.2354 63.1015 46.7313 60.7409 48.9636C59.4973 48.7475 57.9903 48.8474 56.2184 50.7969L47.6883 60.3076C46.9997 60.162 49.8222 52.4771 53.2236 46.9133C56.2339 41.9388 59.2634 40.3911 65.4932 41.4382Z" fill="#3B5B7B"/>
<path d="M62.4604 42.149C60.5154 42.2421 57.5653 42.3137 55.0304 45.633C52.2199 49.3299 48.4644 56.6969 47.5867 60.0028C47.61 58.5203 50.1913 51.8876 53.2245 46.8854C56.2576 41.8831 59.2638 40.3912 65.4933 41.4608C65.4578 41.5726 64.782 42.0394 62.4604 42.149Z" fill="#3B5B7B"/>
<path d="M82.8227 43.8958C83.8741 41.3284 86.6013 39.7141 88.9123 40.284C89.3694 40.3897 89.8002 40.5876 90.1782 40.8656C91.3239 41.9565 91.6709 43.8212 90.8999 45.7021C89.8542 48.2696 87.127 49.8838 84.8105 49.3082C84.3554 49.2017 83.9266 49.0038 83.5501 48.7267C82.4042 47.6583 82.0515 45.7935 82.8227 43.8958Z" fill="white"/>
<path d="M87.3947 41.7831C88.8558 43.171 89.296 45.5427 88.3204 47.9372C88.1682 48.3081 87.986 48.6659 87.7756 49.0071C86.8535 49.4511 85.8087 49.5713 84.81 49.3482C84.3548 49.2416 83.9261 49.0438 83.5496 48.7667C82.404 47.6758 82.0513 45.811 82.8223 43.9301C83.3321 42.6917 84.2268 41.6501 85.3742 40.9594C85.5146 40.9616 85.6543 41.0031 85.7886 41.0389C86.3685 41.1766 86.9147 41.4297 87.3947 41.7831Z" fill="white"/>
<defs>
<filter id="filter0_d" x="0.445557" y="5.79224" width="122.222" height="90.6216" filterUnits="userSpaceOnUse" color-interpolation-filters="sRGB">
<feFlood flood-opacity="0" result="BackgroundImageFix"/>
<feColorMatrix in="SourceAlpha" type="matrix" values="0 0 0 0 0 0 0 0 0 0 0 0 0 0 0 0 0 0 127 0"/>
<feOffset dy="2"/>
<feGaussianBlur stdDeviation="7.5"/>
<feColorMatrix type="matrix" values="0 0 0 0 0.368627 0 0 0 0 0.584314 0 0 0 0 0.784314 0 0 0 0.2 0"/>
<feBlend mode="normal" in2="BackgroundImageFix" result="effect1_dropShadow"/>
<feBlend mode="normal" in="SourceGraphic" in2="effect1_dropShadow" result="shape"/>
</filter>
</defs>
</svg>
