<svg width="107" height="95" viewBox="0 0 107 95" fill="none" xmlns="http://www.w3.org/2000/svg">
<rect width="107" height="95" fill="#F2F2F2"/>
<g clip-path="url(#clip0)">
<rect width="375" height="812" transform="translate(-135 -99)" fill="#21ACE3"/>
<g opacity="0.17" clip-path="url(#clip1)">
<g clip-path="url(#clip2)">
<mask id="mask0" mask-type="alpha" maskUnits="userSpaceOnUse" x="-407" y="-332" width="868" height="1547">
<rect x="-406.078" y="1082.46" width="1471.04" height="479.832" transform="rotate(-74 -406.078 1082.46)" fill="black"/>
</mask>
<g mask="url(#mask0)">
<path d="M-308.3 943.987C-268.811 927.163 -230.764 906.074 -202.959 875.233C-165.343 833.429 -149.006 768.19 -182.171 716.459C-220.453 656.743 -263.859 616.445 -249.881 542.382C-239.933 490.125 -200.31 436.155 -144.94 421.812C-112.128 413.295 -76.7821 413.504 -42.9761 408.236C38.2129 395.814 71.378 344.733 51.8511 268.173C42.4968 231.566 31.5823 190.067 53.2251 160.571C81.6446 121.907 152.746 124.517 175.105 82.1894C187.372 59.0412 180.298 30.4953 176.783 4.00673C168.51 -59.1042 228.335 -67.2822 236.229 -120.128C238.237 -133.33 233.908 -147.163 233.921 -160.641C233.933 -174.118 244.872 -198.832 263.738 -188.682" stroke="white" stroke-linecap="round" stroke-linejoin="round"/>
<path d="M-291.207 946.371C-251.893 929.645 -215.293 907.4 -189.365 875.873C-170.722 853.22 -158.019 824.419 -155.174 794.866C-152.723 768.754 -157.744 741.834 -172.744 717.682C-200.459 673.291 -231.078 639.031 -239.661 594.053C-242.671 577.864 -242.827 561.275 -240.123 545.033C-231.975 492.852 -195.638 438.978 -142.124 422.324C-110.093 412.398 -74.9808 411.355 -41.0571 405.676C-25.1318 403.244 -9.59425 398.734 5.15825 392.262C52.5158 370.732 69.4951 329.084 60.7101 269.826C57.9308 251.103 52.5516 230.599 49.9101 210.879C46.4331 185.29 49.6455 160.138 64.3353 139.906C91.2663 103.334 157.165 104.453 178.818 64.5893C190.693 42.8099 184.869 16.1038 182.233 -8.79954C175.893 -67.8009 231.004 -76.5898 238.074 -126.561C239.885 -139.078 235.77 -152.109 235.587 -164.902C235.404 -177.695 245.108 -200.689 261.883 -192.028" stroke="white" stroke-linecap="round" stroke-linejoin="round"/>
<path d="M-274.25 948.715C-235.152 932.223 -200.136 908.783 -175.81 876.649C-157.952 853.147 -147.255 824.991 -145.003 795.56C-142.998 768.862 -149.329 742.201 -163.122 719.255C-189.683 675.492 -219.421 640.743 -228.709 596.156C-231.997 580.15 -232.589 563.707 -230.463 547.506C-223.977 495.442 -191.025 441.486 -139.445 422.795C-108.195 411.46 -73.3164 409.166 -39.2356 402.939C-23.3811 400.318 -7.8851 395.862 6.94043 389.662C54.5517 368.797 72.8395 329.302 69.2562 271.535C67.8296 249.645 61.3975 225.58 57.9769 202.377C53.6433 172.543 58.0141 142.834 75.3088 119.202C100.438 84.7794 161.448 84.3484 182.395 46.9486C193.74 26.4989 189.44 1.71135 187.643 -21.4698C183.333 -76.1853 233.673 -85.8983 239.84 -132.721C241.455 -144.554 237.691 -156.744 237.312 -168.852C236.932 -180.961 245.442 -202.371 260.086 -195.061" stroke="white" stroke-linecap="round" stroke-linejoin="round"/>
<path d="M-257.154 951.098C-218.232 934.704 -184.799 910.07 -162.214 877.288C-145.746 853.335 -136.308 825.252 -134.967 796.215C-133.832 769.736 -140.347 743.489 -153.732 720.614C-179.237 677.302 -208.095 642.065 -217.853 598.083C-221.36 582.351 -222.368 566.164 -220.839 550.117C-216.114 497.992 -186.487 444.268 -136.626 423.307C-106.158 410.563 -71.6103 406.84 -37.451 400.339C-21.6004 397.526 -6.08109 393.09 8.86202 387.102C56.7852 367.215 77.4384 329.287 77.844 273.109C78.0831 247.993 70.1482 220.385 65.9485 193.7C60.6214 159.581 66.3851 125.531 86.0501 98.2825C109.515 66.0491 165.5 64.029 185.739 29.0933C196.652 10.1492 193.779 -12.8961 192.822 -34.3552C190.542 -84.7849 235.933 -95.3241 241.413 -139.233C242.793 -150.244 239.283 -161.769 238.844 -173.154C238.405 -184.539 245.544 -204.268 258.096 -198.447" stroke="white" stroke-linecap="round" stroke-linejoin="round"/>
<path d="M-240.062 953.481C-201.453 937.146 -169.369 911.532 -148.524 878.103C-133.352 853.719 -125.102 825.665 -124.661 796.949C-124.436 770.681 -131.181 744.823 -144.209 722.012C-168.659 679.151 -196.538 643.602 -207 600.011C-210.679 584.503 -212.041 568.537 -211.043 552.63C-208.255 500.543 -181.738 446.815 -133.812 423.818C-104.262 409.626 -69.8107 404.69 -35.4944 397.642C-19.6557 394.606 -4.1131 390.19 10.9555 384.443C59.23 365.398 82.9723 329.096 86.7015 274.76C88.6456 246.282 79.3447 215.171 74.3267 185.141C68.1036 146.913 75.202 108.209 97.3349 77.5197C119.468 46.8304 170.094 43.8663 189.627 11.3945C200.148 -6.18062 198.662 -27.3468 198.446 -47.2598C198.197 -93.4039 238.816 -104.867 243.393 -145.627C244.576 -155.954 241.32 -166.814 240.645 -177.377C239.971 -187.94 245.915 -206.087 256.415 -201.891" stroke="white" stroke-linecap="round" stroke-linejoin="round"/>
<path d="M-223.104 955.825C-184.671 939.587 -154.17 912.779 -135.066 878.703C-108.017 830.507 -107.872 771.738 -134.683 723.41C-158.116 681.137 -184.977 645.139 -196.047 602.114C-199.995 586.813 -201.803 571.039 -201.421 555.241C-200.393 503.093 -177.162 449.46 -131.131 424.29C-102.323 408.552 -68.1051 402.364 -33.7103 395.042C-17.8807 391.8 -2.31005 387.401 12.8765 381.883C61.4046 363.503 88.7442 329.122 95.4256 276.372C99.4853 244.649 88.2318 210.016 82.5715 176.542C75.3549 134.029 83.7486 90.808 108.349 56.6782C128.524 28.6865 174.418 23.6249 193.342 -6.20688C203.471 -22.4132 203.195 -41.6025 203.995 -59.891C205.776 -101.749 241.584 -113.999 245.337 -151.885C246.324 -161.527 243.419 -171.545 242.548 -181.424C241.677 -191.303 246.387 -207.73 254.796 -205.023" stroke="white" stroke-linecap="round" stroke-linejoin="round"/>
<path d="M-206.009 958.208C-141.609 931.825 -100.919 867.621 -104.551 798.122C-106.019 772.478 -113.05 747.461 -125.157 724.808C-147.534 682.985 -173.378 646.538 -185.191 604.041C-189.358 588.945 -191.565 573.375 -191.758 557.715C-192.667 505.604 -172.547 451.968 -128.314 424.801C-100.286 407.654 -66.302 400.214 -31.8871 392.305C-16.0669 388.859 -0.464973 384.478 14.8366 379.185C63.716 361.647 84.4649 325.968 104.15 277.985C117.58 245.096 97.2556 204.899 90.8162 167.943C82.7038 121.322 92.3928 73.583 119.501 35.8763C138.01 10.0736 178.879 3.42276 197.097 -23.9451C206.833 -38.7823 207.944 -56.0925 209.623 -72.7959C213.258 -110.271 244.47 -123.542 247.32 -158.279C248.072 -167.101 245.42 -176.453 244.49 -185.609C243.56 -194.764 246.899 -209.51 253.216 -208.291" stroke="white" stroke-linecap="round" stroke-linejoin="round"/>
<path d="M-188.876 960.454C-150.796 944.411 -123.227 915.429 -107.74 880.019C-96.6538 854.469 -92.0643 826.571 -94.3809 798.816C-96.7058 773.466 -103.923 748.808 -115.633 726.206C-136.954 684.834 -161.82 648.075 -174.201 606.008C-178.589 591.154 -181.207 575.833 -182.001 560.365C-184.846 508.291 -167.973 454.613 -125.498 425.313C-98.3495 406.58 -64.5013 398.064 -29.9686 389.744C-13.5926 385.848 2.13835 381.618 16.8919 376.664C65.9858 359.927 92.6792 326.249 113.008 279.636C128.652 243.679 106.277 199.783 99.0586 159.344C89.9527 108.438 101.074 56.2211 130.611 15.2107C147.592 -8.36338 183.298 -16.6427 200.81 -41.5464C210.153 -55.0149 212.652 -70.4459 215.033 -85.4663C220.561 -118.695 247.099 -132.714 249.125 -164.577C249.543 -172.753 247.38 -181.225 246.253 -189.695C245.127 -198.166 247.096 -211.231 251.458 -211.462" stroke="white" stroke-linecap="round" stroke-linejoin="round"/>
<path d="M-171.92 962.798C-134.016 946.853 -107.932 916.852 -94.1467 880.658C-84.4157 854.726 -81.042 826.839 -84.3084 799.334C-87.4753 774.365 -94.8463 750.112 -106.109 727.604C-126.374 686.683 -150.222 649.475 -163.347 607.935C-167.953 593.269 -170.968 578.15 -172.341 562.839C-177.123 510.803 -163.321 456.985 -122.683 425.824C-96.4521 405.643 -62.7005 395.914 -28.1477 387.008C-11.8693 382.935 3.86162 378.705 18.7128 373.927C68.0604 357.856 101.128 326.747 121.593 281.209C139.039 242.065 115.162 194.627 107.125 150.842C97.1623 95.6913 109.54 39.0941 141.447 -5.53261C156.763 -26.9176 187.444 -36.7861 204.249 -59.2258C213.199 -71.3255 216.949 -84.9165 220.345 -98.3124C227.728 -127.158 249.533 -142.238 250.792 -170.913C251.015 -178.404 249.066 -186.074 247.743 -193.86C246.421 -201.647 247.155 -212.991 249.465 -214.847" stroke="white" stroke-linecap="round" stroke-linejoin="round"/>
<path d="M-154.827 965.181C-117.138 949.471 -92.462 918.177 -80.5927 881.434C-72.1568 855.166 -69.9471 827.297 -74.1383 800.028C-78.1517 775.393 -85.7125 751.469 -96.585 729.001C-115.834 688.668 -138.801 650.972 -152.357 609.901C-157.182 595.415 -160.594 580.495 -162.544 565.352C-169.4 513.313 -158.707 459.492 -119.828 426.198C-94.3392 404.471 -60.8604 393.627 -26.1898 384.31C-10.1459 380.022 5.68258 375.968 20.8075 371.268C70.3695 355.999 110.144 327.85 130.354 282.684C149.505 240.177 124.086 189.334 115.407 142.106C104.548 83.1918 117.975 22.39 152.635 -26.4722C166.326 -45.8046 192.079 -57.0861 208.04 -77.1013C216.559 -87.695 221.558 -99.4463 225.971 -111.218C235.11 -135.856 252.417 -151.781 252.813 -177.444C252.799 -184.115 251.241 -191.08 249.722 -198.182C248.416 -204.775 247.858 -211.495 248.059 -218.214" stroke="white" stroke-linecap="round" stroke-linejoin="round"/>
<path d="M-137.731 967.564C-100.218 951.951 -77.1642 919.6 -66.859 882.112C-59.8217 855.539 -58.8327 827.727 -63.9648 800.722C-68.4603 776.619 -76.7122 753.216 -87.0577 730.399C-105.25 690.516 -127.239 652.508 -141.5 611.828C-146.546 597.513 -150.354 582.791 -152.881 567.825C-161.673 515.824 -154.189 461.824 -117.146 426.669C-92.5752 403.494 -59.193 391.437 -24.3655 381.573C-8.5561 377.069 7.40932 373.055 22.7688 368.57C72.6821 354.143 121.509 330.071 139.118 284.159C156.728 238.247 133.15 184.081 123.555 133.331C111.703 69.7864 126.945 4.23315 163.553 -47.4897C175.716 -64.5939 196.267 -77.3669 211.561 -95.055C219.226 -104.038 225.825 -113.877 231.228 -124.377C241.947 -144.71 254.893 -161.442 254.425 -184.094C254.113 -190.371 253.061 -196.589 251.294 -202.621C249.481 -209.214 247.845 -216.943 246.109 -221.737" stroke="white" stroke-linecap="round" stroke-linejoin="round"/>
<path d="M-120.774 969.908C-57.8419 943.659 -39.4007 866.431 -53.9311 801.378C-68.4614 736.324 -107.174 677.077 -130.685 613.893C-154.195 550.709 -159.894 475.003 -114.506 427.279C-80.2016 391.34 -25.6553 379.87 24.5116 366.108C74.6785 352.346 128.08 330.919 147.625 286.007C169.228 236.5 141.957 179.2 131.582 124.967C118.737 57.1379 135.411 -12.8934 174.487 -68.0567C206.923 -114.013 286.674 -156.032 244.175 -224.809" stroke="white" stroke-linecap="round" stroke-linejoin="round"/>
<path d="M-110.587 971.053C-43.5036 940.661 -23.746 857.292 -41.2055 786.954C-56.853 724.247 -94.0028 666.781 -116.087 605.339C-138.171 543.898 -140.075 468.391 -93.4375 422.507C-57.6864 387.723 -4.13651 375.079 41.3198 357.596C86.7762 340.113 132.511 317.525 148.241 273C165.501 224.173 138.639 168.028 129.653 114.638C118.566 48.942 136.547 -17.8996 174.898 -71.0488C207.079 -115.597 290.256 -161.818 243.765 -228.036" stroke="white" stroke-linecap="round" stroke-linejoin="round"/>
<path d="M-100.396 972.197C-29.0254 937.702 -8.04908 848.016 -28.5161 772.668C-44.9678 712.248 -81.0436 656.72 -101.702 597.021C-123.51 533.584 -120.488 461.564 -72.5025 417.696C-35.5787 383.989 16.8961 370.444 58.0334 348.908C99.1706 327.371 136.984 303.993 148.763 259.817C161.504 211.768 135.364 156.719 127.766 104.171C118.437 40.6094 137.902 -23.1402 175.527 -74.2753C207.413 -117.279 294.018 -167.702 243.436 -231.538" stroke="white" stroke-linecap="round" stroke-linejoin="round"/>
<path d="M-90.2431 973.477C-14.7213 934.839 7.88449 838.954 -15.9615 758.341C-33.0805 700.248 -68.1799 646.482 -87.2747 588.563C-108.32 525.049 -100.761 454.775 -51.5654 412.883C-13.1953 380.331 37.8916 365.944 74.7098 340.355C111.528 314.765 141.42 290.597 149.247 246.769C157.742 199.577 132.052 145.545 125.705 93.8009C118.174 32.2359 138.947 -28.324 175.983 -77.4058C207.476 -119.04 297.742 -173.45 243.07 -234.904" stroke="white" stroke-linecap="round" stroke-linejoin="round"/>
<path d="M-80.1905 974.583C-0.51789 931.801 23.7174 829.717 -3.40998 744.015C-21.157 688.113 -55.1825 636.284 -72.851 580.108C-92.9574 516.418 -81.0776 448.124 -30.6706 408.209C9.00901 376.774 58.9031 361.896 91.3831 331.804C120.828 304.545 145.853 277.203 149.729 233.723C153.881 187.211 128.6 134.334 123.641 83.4323C117.868 24.0012 139.948 -33.369 176.259 -80.4367C207.497 -120.663 301.151 -179.139 242.388 -238.21" stroke="white" stroke-linecap="round" stroke-linejoin="round"/>
<path d="M-70.0009 975.727C13.8226 928.802 40.0003 820.46 9.31783 729.591C-8.78345 675.958 -42.0087 625.987 -58.4271 571.652C-77.6337 507.924 -61.2175 441.374 -9.73649 403.397C31.3896 373.117 79.9148 357.847 108.057 323.252C132.38 293.19 150.286 263.808 150.073 220.637C149.98 174.982 125.148 123.122 121.616 72.9258C117.602 15.6285 141.166 -38.6497 176.751 -83.7034C207.733 -122.522 304.775 -185.063 242.058 -241.712" stroke="white" stroke-linecap="round" stroke-linejoin="round"/>
<path d="M-59.8106 976.872C28.3006 925.843 56.2839 811.205 22.0071 715.305C3.59082 663.803 -28.8735 615.829 -43.8656 563.235C-62.1331 499.333 -41.3959 434.763 11.3353 398.625C53.9077 369.501 101.396 354.23 124.77 314.564C144.069 281.876 154.896 250.316 150.594 207.454C146.293 164.592 121.696 111.911 119.592 62.4204C117.199 7.2177 142.11 -44.0078 177.067 -86.8712C207.656 -124.32 308.223 -190.888 241.416 -245.154" stroke="white" stroke-linecap="round" stroke-linejoin="round"/>
<path d="M-49.7565 977.976C42.5055 922.805 72.7836 801.714 34.5601 700.979C15.9657 651.648 -15.8352 605.494 -29.4403 554.779C-46.6319 490.74 -21.5736 428.15 32.2708 393.814C76.2896 365.845 123.054 350.515 141.445 306.012C156.129 270.816 159.467 236.96 151.077 194.407C142.687 151.854 118.246 100.699 117.529 52.0511C116.758 -1.05713 143.29 -49.1513 177.521 -90.0007C207.855 -126.042 311.985 -196.772 241.049 -248.519" stroke="white" stroke-linecap="round" stroke-linejoin="round"/>
<path d="M-39.6075 979.257C56.8054 919.943 89.3782 792.399 47.1104 686.652C28.3379 639.493 -2.83892 595.295 -15.1939 546.421C-31.4463 482.207 -1.93011 421.636 53.1644 389.139C98.6296 362.325 140.427 345.719 158.117 297.46C171.571 260.874 164.036 223.604 151.557 181.36C139.079 139.117 114.656 89.4482 115.464 41.6818C116.275 -9.195 144.29 -54.1973 177.933 -92.9934C208.011 -127.626 315.529 -202.422 240.502 -251.787" stroke="white" stroke-linecap="round" stroke-linejoin="round"/>
<path d="M-29.4163 980.401C71.1474 916.944 106.328 782.888 59.8005 672.365C40.8891 627.24 10.4733 585.038 -0.631557 538.003C-15.7688 473.516 18.0292 415.062 74.237 384.366C121.109 358.845 167.19 343.318 174.968 288.81C180.777 248.403 168.784 210.15 152.177 168.352C135.571 126.555 111.303 78.412 113.675 31.3902C116.048 -15.6316 145.744 -59.2629 178.523 -96.0841C208.346 -129.309 319.253 -208.17 240.272 -255.113" stroke="white" stroke-linecap="round" stroke-linejoin="round"/>
<path d="M-19.2255 981.546C85.489 913.946 123.493 773.145 72.5294 657.942C53.4399 614.988 23.785 574.782 13.9696 529.45C-0.0917007 464.827 37.9881 408.49 95.3484 379.457C143.765 355.268 189.65 339.389 191.819 280.161C193.366 237.051 173.707 196.6 152.836 155.209C131.965 113.818 107.891 67.0644 111.789 20.9241C115.686 -25.216 146.923 -64.4056 179.153 -99.3104C208.681 -130.99 323.014 -214.054 240.08 -258.575" stroke="white" stroke-linecap="round" stroke-linejoin="round"/>
<path d="M-9.1723 982.651C99.8299 910.948 140.833 763.303 85.0816 643.616C66.0294 602.599 36.8224 564.447 28.2178 521.092C15.3694 456.373 57.5358 401.799 116.107 374.744C165.833 351.671 211.836 335.381 208.356 271.571C205.72 225.483 178.18 183.069 153.181 142.124C128.182 101.179 104.127 55.9116 109.588 10.5163C115.05 -34.879 147.828 -69.6269 179.43 -102.341C208.565 -132.653 326.56 -219.703 239.399 -261.881" stroke="white" stroke-linecap="round" stroke-linejoin="round"/>
<path d="M-27.8655 996.698C34.4557 955.014 76.9872 886.768 87.1689 814.579C94.6282 759.812 89.2641 704.061 71.4994 651.721C67.2859 639.55 62.5047 627.809 57.8604 616.107C47.0297 589.299 35.7089 563.683 33.4668 535.337C32.7666 527.006 32.9845 518.623 34.1166 510.339C41.1281 460.055 80.1936 416.296 127.888 389.973C140.218 383.139 152.156 376.637 163.039 369.683C193.67 350.171 215.815 327.189 212.554 280.181C210.237 247.963 196.633 217.396 180.269 187.667C172.849 174.281 164.9 161.187 157.088 148.132C132.188 106.327 107.624 60.7661 110.191 15.1332C110.952 2.86093 113.474 -9.2382 117.678 -20.7929C124.405 -39.6038 134.887 -57.0421 147.245 -73.7938C154.284 -83.1062 161.835 -92.0194 169.864 -100.492C182.062 -113.586 208.587 -134.276 230.477 -156.887C263.842 -191.615 288.39 -232.277 239.847 -259.826" stroke="white" stroke-linecap="round" stroke-linejoin="round"/>
<path d="M-46.6586 1010.57C15.6435 968.434 60.505 897.745 68.3988 824.751C74.5557 768.149 68.3323 709.773 57.6019 659.883C55.0703 648.046 52.1472 636.542 49.4193 625.39C43.282 599.779 36.6929 576.26 38.2244 549.737C38.6294 541.832 39.8362 533.988 41.8263 526.327C54.4493 478.689 94.2776 434.852 139.315 405.397C150.98 397.78 162.157 390.318 172.238 382.543C200.426 360.7 220.324 335.74 216.182 289.221C213.397 256.571 199.851 225.281 183.508 194.966C176.166 181.305 168.159 167.898 160.425 154.57C135.448 112.002 110.512 66.1863 110.047 20.2766C110.013 8.07462 111.557 -4.08072 114.64 -15.8869C119.411 -35.1107 127.663 -53.0399 138.556 -70.3604C144.868 -80.3415 152.072 -89.7297 160.08 -98.4096C172.866 -112.52 200.134 -132.701 222.649 -154.392C257.46 -187.964 284.746 -227.842 240.118 -257.675" stroke="white" stroke-linecap="round" stroke-linejoin="round"/>
<path d="M-65.3526 1024.61C-3.03042 981.894 43.985 908.86 49.904 835.004C54.4585 776.756 48.1969 717.481 44.1166 668.164C43.13 656.623 42.2018 645.394 41.5665 634.694C40.0834 610.417 38.2652 588.86 43.5309 564.296C45.1212 556.902 47.3467 549.66 50.1826 542.649C68.417 497.657 108.911 453.566 151.388 421.156C162.527 412.794 172.843 404.197 182.123 395.599C207.829 371.564 225.342 344.587 220.672 298.36C217.281 265.241 203.892 233.403 187.706 202.54C180.443 188.606 172.553 174.788 164.762 161.147C139.843 117.855 114.536 71.7848 110.942 25.4223C110.093 13.2555 110.617 1.03176 112.503 -11.0179C115.434 -30.5966 121.571 -49.558 130.67 -67.1401C136.205 -77.715 143.057 -87.5474 151.06 -96.403C164.435 -111.53 192.621 -131.299 215.585 -151.972C251.706 -184.428 281.828 -223.345 241.113 -255.464" stroke="white" stroke-linecap="round" stroke-linejoin="round"/>
<path d="M-84.1435 1038.48C-21.938 995.138 27.5444 919.7 31.1756 845.04C34.1276 785.148 27.6516 725.071 30.2607 676.191C30.8191 664.944 31.8466 654.128 33.2062 643.703C36.3381 620.899 39.3301 601.165 48.5062 578.463C51.2595 571.571 54.4679 564.87 58.1101 558.403C82.0928 516.096 123.115 471.713 163.17 436.385C173.24 427.544 182.773 418.108 191.716 408.128C215.077 381.939 230.206 352.944 224.87 306.972C221.01 273.421 207.642 240.996 191.515 209.41C184.193 195.163 176.382 181.071 168.532 167.117C143.673 123.101 117.897 76.6003 111.408 30.0003C109.799 17.8446 109.352 5.56317 110.074 -6.67731C110.845 -26.4589 115.032 -45.9578 122.452 -64.3113C127.171 -75.4499 133.676 -85.744 141.709 -94.788C155.672 -110.932 184.601 -130.191 208.327 -149.905C245.894 -181.206 278.753 -219.338 241.816 -253.78" stroke="white" stroke-linecap="round" stroke-linejoin="round"/>
<path d="M-102.839 1052.53C-40.6527 1008.73 11.0228 930.815 12.5031 855.39C13.8527 793.853 7.123 733.11 16.6368 684.433C18.7224 673.748 21.5894 663.232 25.2148 652.968C32.351 631.889 41.9148 611.713 53.7136 592.845C57.514 586.824 61.53 580.569 66.2696 574.372C95.8637 534.712 137.512 490.212 175.007 451.928C184.498 442.23 193.306 431.885 201.365 420.969C222.244 392.586 234.988 361.575 229.125 315.895C224.795 281.914 211.447 248.902 195.379 216.592C188.136 202.071 180.403 187.706 172.495 173.439C147.735 128.562 121.548 81.9438 111.891 35.0278C109.473 22.8424 108.014 10.4866 107.525 -1.92672C106.527 -22.2121 107.993 -41.791 114.114 -61.0721C117.985 -72.7372 124.147 -83.5116 132.238 -92.7628C146.788 -109.923 176.636 -128.771 200.812 -147.468C239.688 -177.652 275.422 -214.959 242.36 -251.55" stroke="white" stroke-linecap="round" stroke-linejoin="round"/>
<path d="M-121.669 1066.54C-59.4625 1022.15 -5.63298 941.89 -6.12754 865.602C-6.51718 802.382 -13.5982 740.797 2.87878 692.635C6.50107 682.064 11.2041 671.896 16.9132 662.29C28.6882 642.408 41.7506 626.302 58.5713 607.423C63.4276 601.853 68.5971 596.224 74.0795 590.537C109.637 553.327 151.677 508.495 186.613 467.255C195.535 456.682 203.616 445.428 210.783 433.594C229.316 403.058 239.539 369.99 232.971 324.701C227.996 290.387 214.844 256.691 198.933 223.833C191.768 209.038 183.978 194.36 176.148 179.819C151.447 134.219 124.791 87.1694 112.102 39.9767C108.918 27.7408 106.493 15.3198 104.841 2.78466C101.849 -17.7765 100.988 -38.0227 105.643 -57.8723C108.636 -70.0256 114.457 -81.3 122.633 -90.7769C137.81 -109.091 168.499 -127.253 193.162 -145.069C233.485 -174.098 271.918 -210.484 242.672 -249.535" stroke="white" stroke-linecap="round" stroke-linejoin="round"/>
<path d="M-140.459 1080.41C-78.3696 1035.4 -22.3862 952.788 -24.8556 875.638C-27.0238 810.871 -34.4168 748.308 -10.8398 700.7C-5.55067 690.134 1.05779 680.281 8.82717 671.378C24.8064 652.849 42.9528 638.646 63.6838 621.628L82.1442 606.33C125.584 569.841 164.576 528.365 198.316 482.758C206.651 471.331 213.992 459.212 220.259 446.533C236.447 413.842 244.148 378.719 237.051 333.722C231.471 298.938 218.515 264.557 202.624 231.113C195.538 216.044 187.826 201.092 179.938 186.238C155.296 139.914 128.269 92.6102 112.548 45.1408C108.355 32.3833 105.08 20.0372 102.217 7.80898C97.4051 -13.1256 94.041 -33.9414 97.2292 -54.3598C99.1193 -67.1508 104.861 -78.3928 113.086 -88.4783C128.851 -107.809 160.283 -125.462 185.708 -142.319C227.477 -170.192 268.648 -205.792 243.277 -246.992" stroke="white" stroke-linecap="round" stroke-linejoin="round"/>
<path d="M-159.155 1094.45C-97.045 1048.86 -38.8685 963.766 -43.5281 885.988C-47.4356 819.536 -55.3168 756.093 -24.6005 708.903C-17.5979 698.312 -9.12565 688.77 0.562072 680.564C20.6479 663.213 43.9759 651.088 68.7543 635.972C75.7807 631.616 82.8857 626.987 90.1668 622.26C137.24 590.871 180.239 545.277 210.056 498.125C217.822 485.783 224.435 472.753 229.81 459.198C243.653 424.354 248.833 387.174 241.208 342.47C235.158 307.255 222.223 272.288 206.528 238.159C199.384 222.777 191.75 207.552 183.842 192.248C159.26 145.2 131.901 97.5045 113.012 49.7191C107.918 36.9997 103.686 24.3791 99.6484 12.1105C92.8811 -9.23663 87.1114 -30.446 88.8724 -51.57C89.8827 -64.9095 95.4294 -76.5037 103.596 -86.9023C119.949 -107.249 152.299 -124.491 178.174 -140.33C221.526 -167.009 265.121 -201.766 243.665 -245.25" stroke="white" stroke-linecap="round" stroke-linejoin="round"/>
<path d="M-177.947 1108.32C-115.857 1062.28 -55.6238 974.665 -62.1213 896.064C-67.7681 827.928 -76.0982 763.467 -38.1843 717.008C-29.3922 706.459 -19.0718 697.284 -7.56532 689.789C16.8034 673.518 45.2737 663.608 73.7863 650.451C81.9793 646.677 90.1009 642.636 98.151 638.327C150.934 609.76 194.5 563.736 221.757 513.628C228.95 500.355 234.833 486.413 239.323 472C250.958 435.041 253.479 395.765 245.189 351.315C238.533 315.63 225.755 280.115 210.08 245.4C203.014 229.744 195.498 214.108 187.493 198.628C162.97 150.857 135.279 102.769 113.182 54.8048C107.365 42.0261 102.096 29.4045 96.924 16.9589C88.1619 -4.6642 80.065 -26.5408 80.3595 -48.2334C80.5294 -62.2583 85.7047 -74.1072 93.9499 -84.7795C110.753 -106.183 144.12 -122.836 170.483 -137.794C215.243 -163.181 261.615 -197.29 244.073 -243.059" stroke="white" stroke-linecap="round" stroke-linejoin="round"/>
<path d="M-196.64 1122.37C-134.529 1075.74 -72.4552 985.838 -80.7514 906.277C-88.3137 836.555 -97.0534 770.94 -51.805 725.25C-41.1204 714.674 -28.8822 705.794 -15.5143 698.916C13.1372 683.725 46.6523 675.855 79.036 664.697C88.2718 661.42 97.4099 657.966 106.353 654.16C164.981 628.455 208.842 581.922 233.637 529.034C240.24 514.812 245.392 499.96 249.015 484.704C258.441 445.631 258.304 404.26 249.485 360.103C242.184 324.084 229.602 287.885 213.987 252.446C207 236.516 199.425 220.567 191.499 204.813C167.075 156.181 139.012 107.84 113.883 59.5983C107.271 46.8384 100.841 34.1307 94.5935 21.4756C83.6995 -0.462503 73.4124 -22.9672 72.2404 -45.2284C71.5306 -59.8019 76.413 -72.1792 84.6582 -82.8515C102.05 -105.271 136.296 -121.376 163.284 -135.415C209.49 -159.645 258.6 -192.969 244.796 -240.926" stroke="white" stroke-linecap="round" stroke-linejoin="round"/>
<path d="M-215.433 1136.24C-153.439 1088.98 -89.0741 996.777 -99.5213 916.45C-110.725 829.981 -121.819 750.358 -23.9159 708.063C18.3135 689.951 70.0558 685.678 114.102 670.012C195.933 640.886 245.33 572.979 258.429 497.33C271.529 421.682 251.597 338.784 217.715 259.589C183.833 180.395 136.433 103.397 92.0838 26.0899C79.371 3.77853 66.5415 -19.1589 63.9815 -42.2626C58.7648 -89.6829 115.651 -113.962 155.984 -133.211C203.734 -156.11 255.445 -188.688 245.595 -239.066" stroke="white" stroke-linecap="round" stroke-linejoin="round"/>
</g>
</g>
</g>
<g filter="url(#filter0_d)">
<path d="M50.8435 14.6564L26.753 21.0719C17.974 23.4098 14.3326 29.6774 16.6847 38.4017L23.1331 62.3195C25.4851 71.0438 31.7918 74.6622 40.5708 72.3243L64.6613 65.9088C73.4403 63.571 77.0587 57.3094 74.7066 48.5851L68.2583 24.6674C65.9062 15.9431 59.6225 12.3185 50.8435 14.6564Z" fill="#4AC6F8"/>
</g>
<g filter="url(#filter1_d)">
<path d="M76.9149 23.9592L51.9856 24.1773C42.901 24.2567 37.8144 29.4209 37.9213 38.4561L38.2141 63.2261C38.3209 72.2613 43.5286 77.3354 52.6132 77.256L77.5424 77.038C86.627 76.9585 91.6899 71.7945 91.5831 62.7594L91.2902 37.9893C91.1834 28.9541 85.9995 23.8798 76.9149 23.9592Z" fill="#368CFB"/>
</g>
<path d="M65.6263 43.0982L65.6262 43.0982L64.8495 42.3381L64.7425 42.2333L64.6375 42.3403L56.8073 50.3232C56.5775 50.5469 56.4477 50.8508 56.4477 51.1686C56.4477 51.4871 56.5781 51.7915 56.8086 52.0154L56.81 52.0167C56.9281 52.1285 57.0681 52.2156 57.2215 52.2729C57.3741 52.3299 57.5369 52.3563 57.7 52.3506C57.8646 52.3496 58.0273 52.3163 58.1785 52.2525C58.3302 52.1885 58.4672 52.0951 58.581 51.9777C58.5812 51.9775 58.5813 51.9774 58.5814 51.9773L63.5303 46.9335L63.5303 64.9544C63.5303 65.2731 63.6609 65.5778 63.8918 65.8017C64.1226 66.0254 64.4346 66.1503 64.759 66.1503C65.0834 66.1503 65.3954 66.0254 65.6262 65.8017C65.8571 65.5778 65.9877 65.2731 65.9877 64.9544L65.9877 46.8463L71.2468 51.9923C71.3587 52.1091 71.4932 52.2028 71.6425 52.2681C71.7926 52.3337 71.9546 52.3693 72.1188 52.3728C72.2831 52.3764 72.4466 52.3478 72.5994 52.2887C72.7523 52.2297 72.8917 52.1412 73.0091 52.0284C73.1265 51.9157 73.2196 51.7809 73.2825 51.6319C73.3454 51.483 73.3768 51.3231 73.3746 51.1618C73.3725 51.0006 73.3369 50.8416 73.2701 50.6943C73.2037 50.5478 73.1079 50.416 72.9885 50.3066L65.6263 43.0982Z" fill="white" stroke="white" stroke-width="0.3"/>
<path d="M74.995 35.5179L54.8355 35.5179C54.569 35.5179 54.3134 35.6639 54.1249 35.9237C53.9364 36.1836 53.8306 36.536 53.8306 36.9035C53.8306 37.271 53.9364 37.6234 54.1249 37.8832C54.3134 38.1431 54.569 38.2891 54.8355 38.2891L74.995 38.2891C75.2616 38.2891 75.5172 38.1431 75.7057 37.8832C75.8941 37.6234 76 37.271 76 36.9035C76 36.536 75.8941 36.1836 75.7057 35.9237C75.5172 35.6639 75.2616 35.5179 74.995 35.5179Z" fill="white"/>
</g>
<defs>
<filter id="filter0_d" x="0.984375" y="0.961914" width="89.4221" height="89.0568" filterUnits="userSpaceOnUse" color-interpolation-filters="sRGB">
<feFlood flood-opacity="0" result="BackgroundImageFix"/>
<feColorMatrix in="SourceAlpha" type="matrix" values="0 0 0 0 0 0 0 0 0 0 0 0 0 0 0 0 0 0 127 0"/>
<feOffset dy="2"/>
<feGaussianBlur stdDeviation="7.5"/>
<feColorMatrix type="matrix" values="0 0 0 0 0.368819 0 0 0 0 0.584367 0 0 0 0 0.783333 0 0 0 0.85 0"/>
<feBlend mode="normal" in2="BackgroundImageFix" result="effect1_dropShadow"/>
<feBlend mode="normal" in="SourceGraphic" in2="effect1_dropShadow" result="shape"/>
</filter>
<filter id="filter1_d" x="22.918" y="10.958" width="83.6651" height="83.2986" filterUnits="userSpaceOnUse" color-interpolation-filters="sRGB">
<feFlood flood-opacity="0" result="BackgroundImageFix"/>
<feColorMatrix in="SourceAlpha" type="matrix" values="0 0 0 0 0 0 0 0 0 0 0 0 0 0 0 0 0 0 127 0"/>
<feOffset dy="2"/>
<feGaussianBlur stdDeviation="7.5"/>
<feColorMatrix type="matrix" values="0 0 0 0 0.368819 0 0 0 0 0.584367 0 0 0 0 0.783333 0 0 0 0.85 0"/>
<feBlend mode="normal" in2="BackgroundImageFix" result="effect1_dropShadow"/>
<feBlend mode="normal" in="SourceGraphic" in2="effect1_dropShadow" result="shape"/>
</filter>
<clipPath id="clip0">
<rect width="375" height="812" fill="white" transform="translate(-135 -99)"/>
</clipPath>
<clipPath id="clip1">
<rect width="1471.04" height="479.832" fill="white" transform="translate(-406.078 1082.46) rotate(-74)"/>
</clipPath>
<clipPath id="clip2">
<rect width="1471.04" height="479.832" fill="white" transform="translate(-406.078 1082.46) rotate(-74)"/>
</clipPath>
</defs>
</svg>
