<svg xmlns="http://www.w3.org/2000/svg" width="23.83" height="28.265" viewBox="0 0 23.83 28.265"><defs><style>.a{fill:#fff;}</style></defs><g transform="translate(0 0)"><g transform="translate(0 0)"><path class="a" d="M63.408,3.361,52.321.035a.828.828,0,0,0-.476,0L40.758,3.361a.828.828,0,0,0-.59.793v12.2a7.878,7.878,0,0,0,1.909,4.826,19.731,19.731,0,0,0,3.977,3.684,35.681,35.681,0,0,0,5.691,3.332.828.828,0,0,0,.677,0,35.685,35.685,0,0,0,5.691-3.332,19.732,19.732,0,0,0,3.977-3.684A7.877,7.877,0,0,0,64,16.35V4.154A.828.828,0,0,0,63.408,3.361Z" transform="translate(-40.168 0)"/></g></g></svg>