<svg xmlns="http://www.w3.org/2000/svg" width="23.807" height="30" viewBox="0 0 23.807 30"><defs><style>.a{fill:#fff;}</style></defs><g transform="translate(-4.096 -1)"><path class="a" d="M24.9,31H7.1a3,3,0,0,1-3-3.15l.81-17.24a3,3,0,0,1,3-2.87H24.09a3,3,0,0,1,3,2.87l.81,17.24a3,3,0,0,1-3,3.15ZM7.91,9.75a1,1,0,0,0-1,1L6.1,27.95A1,1,0,0,0,7.1,29H24.9a1,1,0,0,0,1-1.05l-.81-17.24a1,1,0,0,0-1-1Z"/><path class="a" d="M22,8.75H20V7a4,4,0,1,0-8,0V8.75H10V7A6,6,0,1,1,22,7Z"/><path class="a" d="M24.9,30H7.1a2,2,0,0,1-2-2.1l.81-17.24a2,2,0,0,1,2-1.91H24.09a2,2,0,0,1,2,1.91L26.9,27.9a2,2,0,0,1-2,2.1Z"/></g></svg>