<svg width="20" height="22" viewBox="0 0 20 22" fill="none" xmlns="http://www.w3.org/2000/svg">
<path d="M10 2.44444C8.02219 2.44444 6.08879 3.0179 4.4443 4.0923C2.79981 5.16669 1.51809 6.69377 0.761209 8.48043C0.0043329 10.2671 -0.1937 12.2331 0.192152 14.1298C0.578004 16.0265 1.53041 17.7687 2.92894 19.1362C4.32746 20.5036 6.10929 21.4348 8.0491 21.8121C9.98891 22.1894 11.9996 21.9958 13.8268 21.2557C15.6541 20.5156 17.2159 19.2624 18.3147 17.6545C19.4135 16.0465 20 14.1561 20 12.2222C20 9.62899 18.9464 7.14198 17.0711 5.30829C15.1957 3.4746 12.6522 2.44444 10 2.44444ZM10 20.3704C8.35182 20.3704 6.74066 19.8925 5.37025 18.9972C3.99984 18.1018 2.93174 16.8293 2.30101 15.3404C1.67028 13.8515 1.50525 12.2132 1.82679 10.6326C2.14834 9.05201 2.94201 7.60015 4.10745 6.46061C5.27288 5.32107 6.75774 4.54504 8.37425 4.23064C9.99076 3.91624 11.6663 4.0776 13.189 4.69431C14.7117 5.31103 16.0132 6.3554 16.9289 7.69535C17.8446 9.03531 18.3333 10.6107 18.3333 12.2222C18.3333 14.3832 17.4554 16.4558 15.8926 17.9838C14.3298 19.5119 12.2101 20.3704 10 20.3704ZM6.66667 0.814815C6.66667 0.598712 6.75447 0.391461 6.91075 0.238654C7.06703 0.0858463 7.27899 0 7.5 0H12.5C12.721 0 12.933 0.0858463 13.0893 0.238654C13.2455 0.391461 13.3333 0.598712 13.3333 0.814815C13.3333 1.03092 13.2455 1.23817 13.0893 1.39098C12.933 1.54378 12.721 1.62963 12.5 1.62963H7.5C7.27899 1.62963 7.06703 1.54378 6.91075 1.39098C6.75447 1.23817 6.66667 1.03092 6.66667 0.814815ZM14.9417 14.1533C14.9013 14.2529 14.8412 14.3437 14.7648 14.4206C14.6885 14.4974 14.5974 14.5588 14.4968 14.6011C14.3962 14.6435 14.288 14.6661 14.1784 14.6675C14.0689 14.669 13.9601 14.6493 13.8583 14.6096L9.69167 12.98C9.53662 12.9196 9.40368 12.8151 9.31007 12.68C9.21646 12.5449 9.16651 12.3854 9.16667 12.2222V6.51852C9.16667 6.30242 9.25447 6.09516 9.41075 5.94236C9.56703 5.78955 9.77899 5.7037 10 5.7037C10.221 5.7037 10.433 5.78955 10.5893 5.94236C10.7455 6.09516 10.8333 6.30242 10.8333 6.51852V11.6681L14.475 13.0941C14.5768 13.1336 14.6697 13.1923 14.7483 13.267C14.8269 13.3416 14.8896 13.4307 14.933 13.5291C14.9763 13.6275 14.9994 13.7332 15.0009 13.8404C15.0024 13.9475 14.9823 14.0538 14.9417 14.1533Z" fill="white"/>
</svg>
