<svg width="205" height="205" viewBox="0 0 205 205" fill="none" xmlns="http://www.w3.org/2000/svg">
<circle cx="102.5" cy="102.5" r="102.5" fill="#85D0F4" fill-opacity="0.5"/>
<circle cx="103" cy="102" r="72" fill="#85D0F4" fill-opacity="0.75"/>
<g clip-path="url(#clip0)">
<path d="M155.994 93.7866C158.182 98.6756 163.836 100.914 168.621 98.7824L168.811 99.1859L176.491 116.385C177.91 119.557 176.542 123.251 173.434 124.636L120.348 148.266L120.372 148.254L67.2855 171.885C64.1773 173.269 60.51 171.818 59.0907 168.645L51.3914 151.454L51.217 151.043C56.0062 148.911 58.1154 143.219 55.9269 138.33L56.0578 138.623C53.8693 133.734 48.2158 131.495 43.4305 133.627L39.0813 123.987L35.5806 116.037L35.5607 116.025C34.1414 112.852 35.5092 109.158 38.6175 107.773L91.7035 84.1429L91.6797 84.1548L144.766 60.5244C147.874 59.1399 151.541 60.5916 152.961 63.764L160.66 80.9548L160.834 81.3661C156.045 83.4982 153.936 89.1902 156.124 94.0793" fill="white" fill-opacity="0.5"/>
<g opacity="0.5">
<path opacity="0.5" d="M90.6747 140.607C100.594 140.607 108.634 132.585 108.634 122.689C108.634 112.792 100.594 104.77 90.6747 104.77C80.7559 104.77 72.7151 112.792 72.7151 122.689C72.7151 132.585 80.7559 140.607 90.6747 140.607Z" fill="#EEF6FF"/>
</g>
<g opacity="0.5">
<path opacity="0.5" d="M90.6747 140.607C100.594 140.607 108.634 132.585 108.634 122.689C108.634 112.792 100.594 104.77 90.6747 104.77C80.7559 104.77 72.7151 112.792 72.7151 122.689C72.7151 132.585 80.7559 140.607 90.6747 140.607Z" fill="#EEF6FF"/>
</g>
<path d="M92.1653 56.3304C91.7213 56.3304 91.2693 56.1801 90.9006 55.8755L87.8479 53.3479C87.0074 52.6517 86.8884 51.4018 87.5902 50.5632C88.2879 49.7246 89.5408 49.606 90.3812 50.3061L93.434 52.8337C94.2745 53.5299 94.3934 54.7798 93.6917 55.6184C93.2992 56.0851 92.7362 56.3304 92.1653 56.3304Z" fill="#3B5B7B"/>
<path d="M105.118 67.0499C104.674 67.0499 104.222 66.8996 103.853 66.595L97.3789 61.2353C96.5384 60.5391 96.4194 59.2891 97.1212 58.4506C97.8189 57.612 99.0718 57.4933 99.9123 58.1934L106.386 63.5532C107.227 64.2494 107.346 65.4993 106.644 66.3379C106.252 66.8086 105.685 67.0499 105.118 67.0499Z" fill="#3B5B7B"/>
<path d="M114.641 74.9373C114.197 74.9373 113.745 74.787 113.376 74.4824L110.323 71.9548C109.483 71.2586 109.364 70.0087 110.066 69.1701C110.763 68.3315 112.016 68.2129 112.857 68.913L115.909 71.4406C116.75 72.1368 116.869 73.3867 116.167 74.2253C115.778 74.696 115.212 74.9373 114.641 74.9373Z" fill="#3B5B7B"/>
<path d="M51.3853 95.431C50.9254 95.431 50.4616 95.2728 50.0889 94.9484C49.2603 94.2324 49.1731 92.9825 49.8907 92.1597L104.091 29.7649C107.033 26.379 112.234 26.0546 115.687 29.0411L129.956 41.3666L131.764 42.9883L130.487 44.4558C129.179 45.9629 128.552 47.9011 128.719 49.9184C128.889 51.9516 129.845 53.8186 131.411 55.1754C132.24 55.8913 132.327 57.1413 131.609 57.964C130.892 58.7907 129.639 58.8778 128.814 58.1618C126.459 56.1247 125.02 53.3123 124.766 50.2428C124.564 47.8299 125.115 45.4803 126.324 43.463L113.086 32.0315C111.283 30.473 108.591 30.6193 107.08 32.3558L52.8839 94.7467C52.4915 95.1976 51.9404 95.431 51.3853 95.431Z" fill="#3B5B7B"/>
<path d="M34.5239 133.175C34.064 133.175 33.6041 133.017 33.2315 132.696L28.8942 128.958C25.4371 125.968 25.0208 120.786 27.9625 117.4C28.6801 116.573 29.9329 116.486 30.7576 117.202C31.5862 117.918 31.6734 119.168 30.9558 119.991C29.4453 121.727 29.6831 124.409 31.487 125.968L35.8243 129.698C36.6529 130.41 36.7441 131.66 36.0305 132.487C35.634 132.941 35.0829 133.175 34.5239 133.175Z" fill="#3B5B7B"/>
<path d="M64.9246 174C61.7767 174 58.7517 172.157 57.3681 169.063L49.6688 151.877L48.7173 149.646L50.4934 148.855C54.2281 147.193 55.8932 142.755 54.2677 138.902C53.4114 137.083 51.9286 135.679 50.0732 134.947C48.19 134.199 46.1443 134.239 44.3205 135.05L42.5166 135.853L37.3587 124.413L33.8342 116.443C31.9708 112.278 33.7945 107.404 37.8939 105.581L144.042 58.3279C146.036 57.4379 148.265 57.3984 150.31 58.2053C152.344 59.0083 153.958 60.5589 154.854 62.5683L162.553 79.7591L163.505 81.99L161.728 82.7811C157.994 84.4425 156.325 88.8806 157.958 92.7333C158.814 94.5528 160.297 95.9531 162.153 96.6888C164.036 97.4325 166.082 97.3969 167.905 96.586L169.681 95.7949L170.696 97.9586L178.392 115.193C179.292 117.202 179.367 119.433 178.61 121.478C177.845 123.539 176.326 125.165 174.332 126.051L68.1835 173.308C67.125 173.778 66.0188 174 64.9246 174ZM53.8435 151.505L60.9877 167.454C61.9591 169.629 64.4607 170.63 66.5659 169.696L172.714 122.443C173.725 121.992 174.498 121.166 174.887 120.11C175.283 119.038 175.24 117.867 174.768 116.807L167.644 100.85C165.356 101.424 162.946 101.265 160.69 100.371C157.986 99.3034 155.805 97.298 154.501 94.6952C154.465 94.6319 154.43 94.5686 154.402 94.5014C154.378 94.45 154.358 94.4025 154.334 94.3511C154.311 94.3036 154.291 94.2562 154.271 94.2087C154.239 94.1415 154.215 94.0742 154.192 94.003C152.166 88.8687 153.989 83.1015 158.382 80.1349L151.238 64.1821C150.762 63.1221 149.918 62.3033 148.851 61.884C147.805 61.4686 146.671 61.4884 145.66 61.9393L39.5075 109.192C37.4895 110.09 36.5578 112.46 37.3468 114.568L37.4816 114.853L40.9823 122.803L44.5822 130.786C46.8658 130.212 49.2763 130.37 51.5361 131.264C54.3074 132.36 56.5276 134.437 57.82 137.138H57.824C57.824 137.142 57.828 137.146 57.8319 137.154L57.9548 137.435H57.9509C60.1036 142.617 58.2918 148.499 53.8435 151.505Z" fill="#3B5B7B"/>
<path d="M90.7024 142.585C83.0666 142.585 75.7678 138.19 72.4613 130.798C67.9813 120.778 72.5049 108.991 82.5472 104.521C87.4118 102.353 92.8314 102.211 97.803 104.109C102.779 106.008 106.712 109.73 108.884 114.584C111.057 119.437 111.199 124.844 109.296 129.805C107.389 134.769 103.663 138.693 98.7981 140.86C96.1696 142.031 93.4142 142.585 90.7024 142.585ZM90.6667 106.74C88.4545 106.74 86.2462 107.207 84.1608 108.132C76.1166 111.712 72.489 121.158 76.081 129.184C79.6689 137.209 89.1364 140.825 97.1806 137.245C101.078 135.509 104.063 132.364 105.59 128.389C107.116 124.413 106.997 120.082 105.26 116.194C103.52 112.305 100.368 109.327 96.3837 107.804C94.5322 107.096 92.5975 106.74 90.6667 106.74Z" fill="#3B5B7B"/>
<path d="M126.887 74.9847C126.13 74.9847 125.405 74.5496 125.076 73.8139L123.462 70.2025C123.018 69.2057 123.466 68.0349 124.465 67.5918C125.464 67.1488 126.638 67.5958 127.082 68.5926L128.695 72.204C129.139 73.2008 128.691 74.3716 127.692 74.8147C127.431 74.9294 127.157 74.9847 126.887 74.9847Z" fill="#3B5B7B"/>
<path d="M148.094 122.408C147.337 122.408 146.611 121.973 146.282 121.237L142.746 113.334C142.302 112.337 142.75 111.166 143.749 110.723C144.748 110.276 145.921 110.727 146.365 111.724L149.902 119.627C150.346 120.624 149.898 121.795 148.899 122.238C148.637 122.352 148.364 122.408 148.094 122.408ZM141.025 106.601C140.268 106.601 139.542 106.166 139.213 105.431L135.677 97.5274C135.233 96.5306 135.681 95.3598 136.68 94.9167C137.679 94.4698 138.853 94.9207 139.297 95.9175L142.833 103.821C143.277 104.817 142.829 105.988 141.83 106.431C141.568 106.546 141.295 106.601 141.025 106.601ZM133.956 90.7951C133.199 90.7951 132.473 90.36 132.144 89.6242L128.608 81.721C128.164 80.7242 128.612 79.5534 129.611 79.1104C130.61 78.6674 131.784 79.1143 132.228 80.1111L135.764 88.0143C136.208 89.0111 135.76 90.182 134.761 90.625C134.499 90.7397 134.226 90.7951 133.956 90.7951Z" fill="#3B5B7B"/>
<path d="M153.244 133.926C152.487 133.926 151.761 133.491 151.432 132.756L149.815 129.144C149.371 128.147 149.819 126.976 150.818 126.533C151.817 126.09 152.99 126.537 153.434 127.534L155.052 131.146C155.496 132.142 155.048 133.313 154.049 133.756C153.787 133.871 153.514 133.926 153.244 133.926Z" fill="#3B5B7B"/>
</g>
<defs>
<clipPath id="clip0">
<rect width="153.125" height="147" fill="white" transform="translate(26 27)"/>
</clipPath>
</defs>
</svg>
