<svg xmlns="http://www.w3.org/2000/svg" fill="none" viewBox="0 0 157 146"><defs/><mask id="a" width="157" height="146" x="0" y="0" mask-type="alpha" maskUnits="userSpaceOnUse"><path fill="#C4C4C4" d="M0 0h157v146H0z"/></mask><g mask="url(#a)"><g filter="url(#filter0_d)"><path fill="#E4F8FF" d="M144.594 64.987a47.535 47.535 0 01-1.817 39.603c-4.891 9.482-12.97 17.214-22.899 21.14-7.818 3.08-16.687 4.013-24.677.997-9.897-3.738-16.624-11.325-27.949-10.744-9.886.508-17.026 8.491-26.432 10.319C17.75 130.764 1.53 99.79 12.867 81.135c3.791-6.248 10.645-12.032 18.19-12.462 5.496-.306 10.825 1.689 16.344 1.47 7.86-.305 16.19-3.619 21.14-9.91 3.717-4.691 4.77-10.897 9.067-15.184 8.724-8.713 22.04-9.535 33.523-7.327 13.559 2.61 25.28 11.015 31.679 23.393a45.801 45.801 0 011.784 3.872z"/></g><path fill="#368CFB" stroke="#368CFB" d="M45.102 73.5h8v37h-8z"/><path fill="#fff" d="M101.459 109.956h13.346v3.964h-13.346z"/><path fill="#368CFB" stroke="#368CFB" d="M65.102 73.5h8v37h-8zM86.102 73.5h8v37h-8zM105.102 73.5h8v37h-8z"/><path fill="#A1DFF6" d="M40.602 69.527h16v4h-16zM40.602 109.956h16v4h-16zM61.602 69.527h16v4h-16zM61.602 109.956h16v4h-16zM81.602 69.527h16v4h-16zM81.602 109.956h16v4h-16zM101.602 69.527h16v4h-16z"/><g filter="url(#filter1_d)"><rect width="11.891" height="92.638" x="124.226" y="113.919" fill="#368CFB" rx="3" transform="rotate(90 124.226 113.919)"/></g><g filter="url(#filter2_d)"><path fill="#368CFB" d="M125.179 63.978H31.222c-2.888 0-4.108-3.682-1.791-5.407l46.352-34.499a3 3 0 013.552-.022l47.605 34.499c2.354 1.706 1.147 5.429-1.761 5.429z"/></g><ellipse cx="77.615" cy="47" fill="#fff" rx="5.971" ry="6"/><ellipse cx="77.514" cy="46.934" fill="#fff" rx="5.888" ry="5.945"/><rect width="92.638" height="5.549" x="31.588" y="63.978" fill="#21ACE3" rx="2.775"/><g filter="url(#filter3_d)"><path fill="#4AC6F8" d="M118.473 129.552c-3.52 0-6.962-1.054-9.889-3.029a17.944 17.944 0 01-6.556-8.066 18.135 18.135 0 01-1.012-10.384 18.023 18.023 0 014.871-9.203 17.746 17.746 0 019.114-4.919 17.64 17.64 0 0110.284 1.023 17.84 17.84 0 017.988 6.62 18.094 18.094 0 01-2.219 22.688 17.731 17.731 0 01-12.581 5.27zm0-31.453c-2.64 0-5.221.79-7.416 2.272a13.447 13.447 0 00-4.917 6.05 13.597 13.597 0 00-.76 7.788 13.52 13.52 0 003.654 6.902 13.308 13.308 0 006.835 3.689c2.589.52 5.274.253 7.713-.767a13.378 13.378 0 005.991-4.965 13.564 13.564 0 00-1.664-17.016 13.3 13.3 0 00-9.436-3.953z"/><path fill="#fff" d="M118.473 125.7c7.724 0 13.985-6.323 13.985-14.122 0-7.799-6.261-14.122-13.985-14.122-7.724 0-13.986 6.323-13.986 14.122 0 7.799 6.262 14.122 13.986 14.122z"/></g><path stroke="#21ACE3" stroke-linecap="round" stroke-miterlimit="10" stroke-width="2" d="M21.866 97v3.966M23.841 98.983h-3.95M138.309 73v3.966M140.284 74.983h-3.95"/><path stroke="#4AC6F8" stroke-linecap="round" stroke-miterlimit="10" stroke-width="3" d="M112.448 113.345c.222.218 2.579 2.205 3.075 2.623a.135.135 0 00.089.032.136.136 0 00.09-.032l8.689-7.968"/><path stroke="#21ACE3" stroke-linecap="round" stroke-miterlimit="10" stroke-width="2" d="M95.514 11v3.966M97.49 12.983h-3.951"/></g><defs><filter id="filter0_d" width="168.896" height="121.887" x="-5.836" y="23.683" color-interpolation-filters="sRGB" filterUnits="userSpaceOnUse"><feFlood flood-opacity="0" result="BackgroundImageFix"/><feColorMatrix in="SourceAlpha" result="hardAlpha" type="matrix" values="0 0 0 0 0 0 0 0 0 0 0 0 0 0 0 0 0 0 127 0"/><feOffset dy="2"/><feGaussianBlur stdDeviation="7.5"/><feColorMatrix type="matrix" values="0 0 0 0 0.368627 0 0 0 0 0.584314 0 0 0 0 0.784314 0 0 0 0.2 0"/><feBlend in2="BackgroundImageFix" mode="normal" result="effect1_dropShadow"/><feBlend in="SourceGraphic" in2="effect1_dropShadow" mode="normal" result="shape"/></filter><filter id="filter1_d" width="122.638" height="41.891" x="16.588" y="100.919" color-interpolation-filters="sRGB" filterUnits="userSpaceOnUse"><feFlood flood-opacity="0" result="BackgroundImageFix"/><feColorMatrix in="SourceAlpha" result="hardAlpha" type="matrix" values="0 0 0 0 0 0 0 0 0 0 0 0 0 0 0 0 0 0 127 0"/><feOffset dy="2"/><feGaussianBlur stdDeviation="7.5"/><feColorMatrix type="matrix" values="0 0 0 0 0.368627 0 0 0 0 0.584314 0 0 0 0 0.784314 0 0 0 0.2 0"/><feBlend in2="BackgroundImageFix" mode="normal" result="effect1_dropShadow"/><feBlend in="SourceGraphic" in2="effect1_dropShadow" mode="normal" result="shape"/></filter><filter id="filter2_d" width="129.969" height="70.499" x="13.216" y="10.479" color-interpolation-filters="sRGB" filterUnits="userSpaceOnUse"><feFlood flood-opacity="0" result="BackgroundImageFix"/><feColorMatrix in="SourceAlpha" result="hardAlpha" type="matrix" values="0 0 0 0 0 0 0 0 0 0 0 0 0 0 0 0 0 0 127 0"/><feOffset dy="2"/><feGaussianBlur stdDeviation="7.5"/><feColorMatrix type="matrix" values="0 0 0 0 0.368627 0 0 0 0 0.584314 0 0 0 0 0.784314 0 0 0 0.2 0"/><feBlend in2="BackgroundImageFix" mode="normal" result="effect1_dropShadow"/><feBlend in="SourceGraphic" in2="effect1_dropShadow" mode="normal" result="shape"/></filter><filter id="filter3_d" width="65.599" height="65.946" x="85.674" y="80.606" color-interpolation-filters="sRGB" filterUnits="userSpaceOnUse"><feFlood flood-opacity="0" result="BackgroundImageFix"/><feColorMatrix in="SourceAlpha" result="hardAlpha" type="matrix" values="0 0 0 0 0 0 0 0 0 0 0 0 0 0 0 0 0 0 127 0"/><feOffset dy="2"/><feGaussianBlur stdDeviation="7.5"/><feColorMatrix type="matrix" values="0 0 0 0 0.368627 0 0 0 0 0.584314 0 0 0 0 0.784314 0 0 0 0.2 0"/><feBlend in2="BackgroundImageFix" mode="normal" result="effect1_dropShadow"/><feBlend in="SourceGraphic" in2="effect1_dropShadow" mode="normal" result="shape"/></filter></defs></svg>