<svg width="24" height="24" viewBox="0 0 24 24" fill="none" xmlns="http://www.w3.org/2000/svg">
<g clip-path="url(#clip0)">
<path d="M3.06487 11.2381C3.19533 11.2986 3.33674 11.3299 3.47977 11.3299C3.62281 11.3299 3.76422 11.2986 3.89467 11.2381L7.24426 9.63062C7.49579 9.50233 7.68857 9.27749 7.78127 9.0043C7.87396 8.73111 7.85919 8.43133 7.74012 8.16924C7.68677 8.03715 7.60765 7.91778 7.50769 7.81855C7.40773 7.71932 7.28905 7.64235 7.15903 7.59243C7.02902 7.5425 6.89044 7.52069 6.75191 7.52834C6.61337 7.53598 6.47784 7.57293 6.35374 7.63689L5.52393 8.02311C6.30224 6.67957 7.44708 5.60236 8.81542 4.92602C10.1838 4.24968 11.715 4.0042 13.2178 4.22025C14.7206 4.43629 16.1284 5.10427 17.2653 6.14076C18.4022 7.17725 19.2179 8.5363 19.6104 10.0482C19.6392 10.191 19.6967 10.3261 19.7793 10.4446C19.8618 10.5631 19.9675 10.6624 20.0896 10.7362C20.2116 10.81 20.3473 10.8565 20.4879 10.8729C20.6285 10.8892 20.7708 10.875 20.9057 10.831C21.1765 10.755 21.4077 10.5725 21.5496 10.3228C21.6915 10.073 21.7328 9.77578 21.6647 9.49492C21.1552 7.52222 20.0811 5.75368 18.5826 4.42C17.0842 3.08631 15.2309 2.24938 13.2644 2.01837C11.2979 1.78735 9.30964 2.17298 7.55882 3.12495C5.808 4.07692 4.37593 5.55104 3.44941 7.35505L3.03451 6.31121C2.99718 6.1709 2.93183 6.04018 2.84265 5.92746C2.75347 5.81473 2.64242 5.72248 2.51664 5.65663C2.39087 5.59077 2.25313 5.55277 2.11227 5.54506C1.97142 5.53734 1.83055 5.56009 1.69872 5.61183C1.5651 5.6535 1.44128 5.72323 1.33504 5.81664C1.22881 5.91006 1.14246 6.02513 1.08143 6.15463C1.01545 6.27772 0.974271 6.41329 0.960359 6.5532C0.946447 6.69312 0.960091 6.83449 1.00047 6.96883L2.42733 10.6536C2.48594 10.793 2.57336 10.9176 2.68347 11.0185C2.79359 11.1195 2.92375 11.1944 3.06487 11.2381Z" fill="white"/>
<path d="M22.9596 17.0627L21.5428 13.378C21.4922 13.237 21.4126 13.109 21.3095 13.0027C21.2065 12.8964 21.0824 12.8144 20.9458 12.7621C20.8139 12.7001 20.6707 12.668 20.5258 12.668C20.3809 12.668 20.2377 12.7001 20.1058 12.7621L16.7562 14.3592C16.5374 14.4157 16.3432 14.5461 16.2044 14.7296C16.0657 14.913 15.9903 15.139 15.9903 15.3717C15.9903 15.6044 16.0657 15.8304 16.2044 16.0139C16.3432 16.1973 16.5374 16.3277 16.7562 16.3842C16.8923 16.4437 17.0386 16.4743 17.1863 16.4743C17.3341 16.4743 17.4803 16.4437 17.6164 16.3842L18.426 15.998C17.6448 17.3292 16.5023 18.3947 15.1399 19.0628C13.7775 19.7309 12.2551 19.972 10.7611 19.7565C9.26713 19.541 7.86727 18.8781 6.73486 17.8501C5.60244 16.8221 4.7872 15.4741 4.3901 13.973C4.35418 13.8334 4.29189 13.7025 4.20679 13.5879C4.12169 13.4732 4.01548 13.3771 3.89424 13.3049C3.71296 13.1944 3.50394 13.1419 3.2937 13.1541C3.08346 13.1664 2.88148 13.2428 2.71341 13.3736C2.54535 13.5045 2.41876 13.6839 2.34973 13.8891C2.2807 14.0943 2.27234 14.3161 2.3257 14.5262C2.83523 16.4989 3.90928 18.2674 5.40774 19.6011C6.9062 20.9348 8.75952 21.7717 10.726 22.0028C12.6924 22.2338 14.6807 21.8481 16.4316 20.8962C18.1824 19.9442 19.6145 18.4701 20.541 16.6661L20.966 17.7099C21.0111 17.8458 21.0829 17.9707 21.1769 18.0767C21.271 18.1826 21.3852 18.2674 21.5125 18.3258C21.7753 18.4355 22.0693 18.4355 22.3321 18.3258C22.5637 18.2245 22.7533 18.0425 22.868 17.8117C22.9827 17.5808 23.0151 17.3157 22.9596 17.0627Z" fill="white"/>
<path d="M13.9828 12.9204C13.9471 12.8022 13.8972 12.6876 13.8339 12.5782C13.7728 12.4717 13.691 12.3748 13.592 12.2917C13.4989 12.2121 13.4059 12.1326 13.3035 12.0609C13.1945 11.99 13.0794 11.9261 12.9592 11.87L12.6056 11.7108L12.2334 11.5676L11.9077 11.4482L11.6378 11.3288L11.3772 11.2095C11.3137 11.1631 11.2546 11.1126 11.2004 11.0583C11.1352 11.0093 11.0869 10.946 11.0608 10.8753C11.0422 10.8018 11.0422 10.7259 11.0608 10.6524C11.0578 10.5557 11.0834 10.4599 11.1353 10.3739C11.1844 10.2881 11.2541 10.2122 11.34 10.1511C11.5473 10.0209 11.7995 9.95372 12.0565 9.96012C12.1892 9.96312 12.3207 9.98187 12.4474 10.0158C12.5628 10.0474 12.6749 10.0873 12.7824 10.1352C12.8817 10.1734 12.9754 10.2215 13.0616 10.2784L13.2384 10.3978L13.3035 10.4455C13.3136 10.4498 13.3248 10.452 13.3361 10.452C13.3474 10.452 13.3585 10.4498 13.3686 10.4455C13.3896 10.4522 13.4128 10.4522 13.4338 10.4455H13.4896L13.5361 10.3978L13.9084 9.7373C13.9213 9.70918 13.9213 9.67789 13.9084 9.64977C13.9198 9.62415 13.9198 9.59581 13.9084 9.57019L13.8432 9.49857L13.6664 9.37125C13.573 9.30825 13.4734 9.25234 13.3686 9.20414L12.9685 9.05294C12.8028 9.0026 12.6312 8.96791 12.4567 8.94949V8.15372C12.466 8.13325 12.466 8.11053 12.4567 8.09006C12.4567 8.09006 12.4567 8.09006 12.4567 8.04232C12.43 8.01812 12.3932 8.00384 12.3543 8.00253H11.7308H11.675C11.6598 7.99916 11.6437 7.99916 11.6285 8.00253C11.6258 8.01836 11.6258 8.03444 11.6285 8.05027C11.6233 8.06858 11.6233 8.08767 11.6285 8.10598V8.90175C11.1741 8.97617 10.7616 9.17774 10.456 9.4747C10.1605 9.78484 9.99937 10.1728 10 10.5729C10.0017 10.6906 10.0173 10.8079 10.0465 10.923C10.0688 11.0256 10.0999 11.1267 10.1396 11.2254C10.1867 11.3127 10.2395 11.3977 10.2978 11.48C10.3608 11.5577 10.4292 11.6321 10.5025 11.7029C10.5764 11.7725 10.6574 11.8364 10.7445 11.8938L11.005 12.053L11.3028 12.1962L11.582 12.3156L11.8611 12.427L12.2334 12.5782L12.559 12.7214C12.6563 12.768 12.7469 12.8241 12.8289 12.8885C12.888 12.9464 12.9381 13.0106 12.9778 13.0795C13.0292 13.1542 13.055 13.2396 13.0522 13.3262C13.0537 13.4297 13.0316 13.5324 12.9871 13.6286C12.9343 13.7236 12.8581 13.8077 12.7638 13.8753C12.5789 14.0014 12.3488 14.0689 12.1124 14.0663C11.9978 14.0741 11.8827 14.0741 11.7681 14.0663C11.3401 13.9693 10.9529 13.7706 10.6514 13.4933C10.6412 13.4891 10.6301 13.4869 10.6188 13.4869C10.6075 13.4869 10.5964 13.4891 10.5863 13.4933C10.5775 13.4898 10.568 13.488 10.5583 13.488C10.5487 13.488 10.5391 13.4898 10.5304 13.4933C10.5152 13.49 10.4992 13.49 10.4839 13.4933L10.0093 14.1061C10.0002 14.1347 10.0002 14.1649 10.0093 14.1936C9.99845 14.2248 9.99845 14.2579 10.0093 14.2891L10.0931 14.3687C10.1585 14.4296 10.2301 14.4856 10.3071 14.5358C10.414 14.6162 10.5292 14.6881 10.6514 14.7506C10.7953 14.8367 10.9517 14.9062 11.1167 14.9575C11.306 15.022 11.5024 15.07 11.7029 15.1008V15.8965C11.6978 15.9149 11.6978 15.9339 11.7029 15.9523C11.6965 15.9677 11.6965 15.9846 11.7029 16H11.7588H12.3729H12.4381C12.4445 15.9846 12.4445 15.9677 12.4381 15.9523C12.4432 15.9339 12.4432 15.9149 12.4381 15.8965V15.1008C12.9109 15.0262 13.335 14.8052 13.6292 14.4801C13.9732 14.005 14.0836 13.4329 13.9363 12.8885L13.9828 12.9204Z" fill="white"/>
</g>
<defs>
<clipPath id="clip0">
<rect width="22" height="20" fill="white" transform="translate(1 2)"/>
</clipPath>
</defs>
</svg>
