<svg width="12" height="16" viewBox="0 0 12 16" fill="none" xmlns="http://www.w3.org/2000/svg">
<path d="M2.65421 8.3352C2.72586 8.33492 2.79671 8.32047 2.86242 8.29274C2.92812 8.26502 2.98731 8.22459 3.03636 8.17394L5.59825 5.56291L5.59825 14.6106C5.59825 14.7471 5.65417 14.878 5.75371 14.9745C5.85325 15.071 5.98825 15.1253 6.12902 15.1253C6.2698 15.1253 6.4048 15.071 6.50434 14.9745C6.60388 14.878 6.6598 14.7471 6.6598 14.6106L6.6598 5.52517L9.37384 8.18081C9.42219 8.23157 9.4806 8.27237 9.54556 8.30077C9.61052 8.32918 9.68072 8.34461 9.75197 8.34614C9.82322 8.34768 9.89405 8.33529 9.96026 8.3097C10.0265 8.28412 10.0867 8.24587 10.1373 8.19724C10.1879 8.14861 10.2279 8.09059 10.2549 8.02665C10.2819 7.9627 10.2954 7.89414 10.2945 7.82504C10.2936 7.75595 10.2783 7.68774 10.2496 7.62448C10.221 7.56122 10.1794 7.50422 10.1275 7.45685L6.50411 3.90914L6.12195 3.53516L2.26851 7.46371C2.16911 7.56021 2.11328 7.69102 2.11328 7.82741C2.11328 7.96379 2.16911 8.0946 2.26851 8.1911C2.31935 8.23923 2.37977 8.27683 2.44607 8.30161C2.51238 8.32638 2.5832 8.33781 2.65421 8.3352Z" fill="white"/>
<path d="M11.1657 0.126693L1.24631 0.126692C1.11516 0.126692 0.989387 0.198521 0.896653 0.326377C0.803919 0.454234 0.751824 0.627646 0.751823 0.808463C0.751823 0.989279 0.803919 1.16269 0.896653 1.29055C0.989387 1.4184 1.11516 1.49023 1.24631 1.49023L11.1657 1.49023C11.2968 1.49023 11.4226 1.41841 11.5153 1.29055C11.6081 1.16269 11.6602 0.98928 11.6602 0.808464C11.6602 0.627647 11.6081 0.454235 11.5153 0.326378C11.4226 0.198521 11.2968 0.126693 11.1657 0.126693Z" fill="white"/>
</svg>
