<svg width="18" height="18" viewBox="0 0 18 18" fill="none" xmlns="http://www.w3.org/2000/svg">
<path d="M16.8908 7.88181H10.1272V1.10908C10.1274 0.821125 10.0155 0.544397 9.81531 0.337416C9.61512 0.130436 9.34227 0.00943104 9.05447 -1.01021e-05C8.90731 -0.00212745 8.76126 0.0258049 8.62527 0.0820779C8.48928 0.138351 8.3662 0.221781 8.26356 0.327262C8.05527 0.534265 7.93757 0.815425 7.93629 1.10908V7.88181H1.10901C0.831025 7.90695 0.57249 8.03515 0.384218 8.24122C0.195946 8.44729 0.0915527 8.71632 0.0915527 8.99545C0.0915527 9.27457 0.195946 9.5436 0.384218 9.74967C0.57249 9.95574 0.831025 10.0839 1.10901 10.1091H7.89992V16.8909C7.90106 17.0401 7.93203 17.1875 7.99103 17.3246C8.05002 17.4616 8.13584 17.5854 8.24343 17.6888C8.35102 17.7921 8.47821 17.8729 8.61749 17.9264C8.75678 17.9798 8.90536 18.0048 9.05447 18C9.35088 17.9991 9.63502 17.8816 9.84538 17.6727C9.94728 17.5698 10.0278 17.4477 10.0824 17.3135C10.137 17.1794 10.1646 17.0357 10.1636 16.8909V10.1091H16.9272C17.0725 10.1056 17.2156 10.0733 17.3483 10.0142C17.481 9.95501 17.6007 9.87016 17.7004 9.7645C17.8002 9.65885 17.878 9.53448 17.9294 9.39858C17.9808 9.26267 18.0048 9.11794 17.9999 8.97272C17.9929 8.68248 17.8732 8.40636 17.6662 8.20278C17.4592 7.99919 17.1812 7.88408 16.8908 7.88181Z" fill="#3B5B7B"/>
</svg>
