<svg xmlns="http://www.w3.org/2000/svg" fill="none" viewBox="0 0 237 167"><defs/><g filter="url(#filter0_d)"><path fill="#E4F8FF" d="M216.6 55.2a70.7 70.7 0 01-2.8 59 66.3 66.3 0 01-34 31.4 51.2 51.2 0 01-36.8 1.5c-14.7-5.6-24.7-16.9-41.5-16-14.8.7-25.4 12.6-39.4 15.3-34.3 6.7-58.5-39.4-41.6-67.2 5.7-9.3 15.9-17.9 27-18.5 8.3-.5 16.2 2.5 24.4 2.2A42.5 42.5 0 00103.4 48c5.5-7 7-16.2 13.5-22.6 13-13 32.8-14.2 49.9-10.9a66.9 66.9 0 0149.8 40.6z"/></g><path stroke="#368CFB" stroke-linecap="round" stroke-miterlimit="10" stroke-width="2" d="M195 10v5.9M197.9 13H192M201 128v5.9M203.9 131H198M25 96v5.9M27.9 99H22"/><path fill="#3B5B7B" d="M72.7 56.8c3.3.9 101.6 1.3 101.6 1.3l3.5 7.5-1 53.2v10.8l-5.8 3-8.1 1.8.4-31.1V82.9l-31-7-63.9-15.5 2-3.6h2.3z"/><path fill="#21ACE3" d="M62.8 58c0-2 2.4-3 4-3.7 2.3-.9 4.8-1.5 7.3-1.6 2.8-.2 5.7 0 8.5 0l16.2.3h2.5l45.5.8 19.3.3 7.9.2a5.2 5.2 0 014 2.8c1.3 2.6 1.1 10.1 1.1 10.1v37.6c0 5.4.2 10.8 0 16.2 0 2.9.6 6.1-.4 9-1.8 5-7.8 6.5-12.4 7.3 0-1.2-.5-3.5-.5-4.7a7 7 0 007.7-3.7c.4-1.2.6-2.5.5-3.8l-.1-23V65c0-1.3 0-2.7-1-3.7a4.5 4.5 0 00-3.4-1c-32.5-.8-65-1.3-97.6-1.5"/><path fill="#21ACE3" d="M62.8 56.8c0 1.5 1.4 3 2.6 3.6 1.3.7 2.8 1.2 4.3 1.5l8.4 1.9 23.2 5.3 17 3.9 1.4.3 37.6 9.5s4.8 1 4.7 4v52.6c0 3 .3 6 0 9-.1 4-4 8.2-8.4 7.6l-13.6-2s10.8 3 15.6 3.3a10.6 10.6 0 0010.5-5.6c2.2-4.3 1.8-8.6 1.7-13.3l-.2-8V129c-.2-15.3-.6-30.5-.6-45.8.1-1.2 0-2.4-.6-3.4-1-1.5-2.8-2-4.5-2.4L72 57.6l-9.3-.8z"/><path fill="#4AC6F8" d="M158.2 82.4l-90-21.7c-2.2-.5-4.2-2-5.4-3.9v78.5l91 21.9a6.9 6.9 0 008.5-6.8v-63a5.3 5.3 0 00-4-5h-.1z"/><path stroke="#E4F8FF" stroke-dasharray="3.4 3.4" stroke-linecap="round" stroke-linejoin="round" stroke-width=".5" d="M63.3 65.3l93 22.2V154l-93-22.7"/><path fill="#368CFB" d="M162.3 111.7l-22.6-5.5a11.4 11.4 0 00-14.1 12.5 11.6 11.6 0 008.7 10l28 6.8v-23.8z"/><path fill="#fff" d="M136.6 121.6c2 0 3.5-1.5 3.5-3.5 0-1.9-1.5-3.4-3.5-3.4-1.9 0-3.4 1.5-3.4 3.4 0 2 1.5 3.5 3.4 3.5z"/><path fill="#1076FA" d="M143.8 12.8a25 25 0 00-2.3-1.1l-3-1.4 1 .6c12 6.7 16 23.2 9 36.8-6.7 12.8-20.8 18.5-32.5 13.4l3.8 1.7.9.4c11.6 4.7 25.4-1 32-13.6 7-13.6 3.1-30-8.9-36.8z"/><path fill="#368CFB" d="M139.6 10.9c-12-6.8-27.4-1.2-34.5 12.3-7 13.6-3.1 30.1 8.9 36.9 12 6.7 27.4 1.2 34.5-12.4 7-13.5 3-30-9-36.8z"/><path fill="#fff" d="M139.6 10.9c-12-6.8-27.4-1.2-34.5 12.3-7 13.6-3.1 30.1 8.9 36.9 12 6.7 27.4 1.2 34.5-12.4 7-13.5 3-30-9-36.8zm6 35.2l-1.1 1.9-.3-.2-2 2.5.3.3a25 25 0 01-2.1 2.3l-.3-.3-2.3 2 .2.3-2.7 1.7-.1-.4c-.9.5-1.8 1-2.7 1.3l.1.4-2.8.8v-.4c-1 .3-2 .4-3 .5v.4H124v-.4c-1 0-2-.2-2.8-.4l-.1.4-2.8-.8.1-.4-2.4-1.2-.2.3c-.9-.4-1.7-1-2.5-1.6l.2-.3-2.1-2-.3.3c-.7-.7-1.3-1.4-1.9-2.3l.3-.2L108 48l-.3.2-1.2-2.8.4-.1-.9-3-.3.2c-.3-1-.4-2.1-.5-3.2h.4c-.1-1-.2-2.1-.1-3.1h-.4c0-1.1.1-2.2.3-3.2h.4c.1-1 .4-2.1.7-3.1l-.4-.1 1-3 .4.2a31.3 31.3 0 012.6-4.6l-.3-.2c.6-1 1.3-1.8 2-2.6l.3.3c.6-.8 1.4-1.5 2.2-2.2l-.3-.3 2.5-1.9.2.3 2.6-1.5-.2-.3 2.8-1.1.1.3 2.8-.7v-.4l3-.3v.4l2.8.1V12l3 .6-.2.4c1 .2 1.8.5 2.7.9l.1-.4a19.6 19.6 0 012.6 1.4l-.2.4c.8.5 1.6 1 2.3 1.7l.2-.4 2.1 2.1-.3.3a21 21 0 011.8 2.4l.3-.3 1.5 2.7-.4.2 1.1 2.8.4-.1.7 3h-.4l.4 3.1h.3v3.2h-.3l-.5 3.1h.4c-.2 1.1-.5 2.2-.9 3.2l-.3-.1-1.2 3 .3.2-.5.8z"/><path stroke="#fff" stroke-linecap="round" stroke-miterlimit="10" stroke-width="3" d="M118.4 36a253.9 253.9 0 003.9 4.6l13.2-10.5"/><defs><filter id="filter0_d" width="236.7" height="166.8" x="0" y=".1" color-interpolation-filters="sRGB" filterUnits="userSpaceOnUse"><feFlood flood-opacity="0" result="BackgroundImageFix"/><feColorMatrix in="SourceAlpha" result="hardAlpha" values="0 0 0 0 0 0 0 0 0 0 0 0 0 0 0 0 0 0 127 0"/><feOffset dy="2"/><feGaussianBlur stdDeviation="7.5"/><feColorMatrix values="0 0 0 0 0.368627 0 0 0 0 0.584314 0 0 0 0 0.784314 0 0 0 0.2 0"/><feBlend in2="BackgroundImageFix" result="effect1_dropShadow"/><feBlend in="SourceGraphic" in2="effect1_dropShadow" result="shape"/></filter></defs></svg>