<?xml version="1.0" encoding="utf-8"?>
<!-- Generator: Adobe Illustrator 25.2.3, SVG Export Plug-In . SVG Version: 6.00 Build 0)  -->
<svg version="1.1" id="Layer_1" xmlns="http://www.w3.org/2000/svg" xmlns:xlink="http://www.w3.org/1999/xlink" x="0px" y="0px"
	 viewBox="0 0 29 29" style="enable-background:new 0 0 29 29;" xml:space="preserve">
<style type="text/css">
	.st0{fill:#F8D2D2;}
	.st1{fill:#21ACE3;}
</style>
<path class="st0" d="M28.8,26.9L15.8,0.8c-0.1-0.2-0.3-0.4-0.5-0.6C15,0.1,14.8,0,14.5,0S14,0.1,13.7,0.2c-0.2,0.1-0.4,0.3-0.5,0.6
	L0.2,26.9C0,27.1,0,27.4,0,27.6c0,0.2,0.1,0.5,0.2,0.7c0.1,0.2,0.3,0.4,0.5,0.5C1,28.9,1.2,29,1.4,29h26.1c0.2,0,0.5-0.1,0.7-0.2
	c0.2-0.1,0.4-0.3,0.5-0.5c0.1-0.2,0.2-0.5,0.2-0.7C29,27.4,29,27.1,28.8,26.9z M13,11.6c0-0.4,0.2-0.8,0.4-1c0.3-0.3,0.6-0.4,1-0.4
	s0.8,0.2,1,0.4c0.3,0.3,0.4,0.6,0.4,1v7.3c0,0.4-0.2,0.8-0.4,1c-0.3,0.3-0.6,0.4-1,0.4s-0.8-0.2-1-0.4c-0.3-0.3-0.4-0.6-0.4-1V11.6z
	 M14.5,24.6c-0.4,0-0.8-0.2-1-0.4c-0.3-0.3-0.4-0.6-0.4-1c0-0.4,0.2-0.8,0.4-1c0.3-0.3,0.6-0.4,1-0.4s0.8,0.2,1,0.4
	c0.3,0.3,0.4,0.6,0.4,1c0,0.4-0.2,0.8-0.4,1C15.3,24.5,14.9,24.6,14.5,24.6z"/>
<path class="st1" d="M13,11.6c0-0.4,0.2-0.8,0.4-1c0.3-0.3,0.6-0.4,1-0.4s0.8,0.2,1,0.4c0.3,0.3,0.4,0.6,0.4,1v7.3
	c0,0.4-0.2,0.8-0.4,1c-0.3,0.3-0.6,0.4-1,0.4s-0.8-0.2-1-0.4c-0.3-0.3-0.4-0.6-0.4-1V11.6z"/>
<path class="st1" d="M14.5,24.6c-0.4,0-0.8-0.2-1-0.4c-0.3-0.3-0.4-0.6-0.4-1c0-0.4,0.2-0.8,0.4-1c0.3-0.3,0.6-0.4,1-0.4
	s0.8,0.2,1,0.4c0.3,0.3,0.4,0.6,0.4,1c0,0.4-0.2,0.8-0.4,1C15.3,24.5,14.9,24.6,14.5,24.6z"/>
</svg>
