<svg width="60" height="54" viewBox="0 0 60 54" fill="none" xmlns="http://www.w3.org/2000/svg">
  <path fill-rule="evenodd" clip-rule="evenodd"
    d="M37.4318 4.32627L59.2381 42.1716C59.718 43.3013 59.928 44.2198 59.988 45.1741C60.1079 47.4036 59.3281 49.5707 57.7983 51.2384C56.2686 52.9001 54.1989 53.8811 51.9493 54H8.03671C7.10687 53.9435 6.17702 53.7325 5.30717 53.4055C0.957905 51.6516 -1.14174 46.7169 0.62796 42.4392L22.5843 4.29952C23.3341 2.95883 24.4739 1.80246 25.8837 1.05928C29.963 -1.20294 35.1521 0.283408 37.4318 4.32627ZM32.6033 29.2671C32.6033 30.6939 31.4335 31.886 29.9937 31.886C28.5539 31.886 27.3541 30.6939 27.3541 29.2671V20.8573C27.3541 19.4274 28.5539 18.2711 29.9937 18.2711C31.4335 18.2711 32.6033 19.4274 32.6033 20.8573V29.2671ZM29.9937 42.0524C28.5539 42.0524 27.3541 40.8604 27.3541 39.4365C27.3541 38.0066 28.5539 36.8175 29.9937 36.8175C31.4335 36.8175 32.6033 37.9799 32.6033 39.4038C32.6033 40.8604 31.4335 42.0524 29.9937 42.0524Z"
    fill="white" />
</svg>