<svg width="144" height="108" viewBox="0 0 144 108" fill="none" xmlns="http://www.w3.org/2000/svg">
<path d="M139.561 39.1949C142.169 45.7607 143.352 52.8163 143.03 59.8844C142.709 66.9526 140.89 73.8685 137.698 80.1645C132.734 90.048 124.421 97.7971 114.277 101.998C106.284 105.472 97.3042 105.842 89.0578 103.037C78.9379 99.171 72.0627 91.341 60.465 91.9258C50.3772 92.4456 43.0845 100.698 33.4465 102.582C9.76908 107.196 -6.8083 75.1936 4.78944 55.8946C8.67677 49.3967 15.6804 43.4511 23.3908 42.8988C29.013 42.5739 34.4424 44.6207 40.0967 44.3933C44.2079 44.3378 48.2601 43.3962 51.983 41.6314C55.7058 39.8666 59.0137 37.3191 61.6858 34.159C65.6695 29.448 66.5691 23.015 70.9704 18.5964C79.9017 9.59676 93.4591 8.8495 105.25 11.0263C112.107 12.3079 118.586 15.1502 124.196 19.338C129.807 23.5259 134.402 28.9496 137.633 35.1987C138.308 36.4983 138.886 37.8303 139.561 39.1949Z" fill="#EEFBFF"/>
<path fill-rule="evenodd" clip-rule="evenodd" d="M16.8467 77.0015C17.399 77.0015 17.8467 77.4492 17.8467 78.0015V81.9673C17.8467 82.5195 17.399 82.9673 16.8467 82.9673C16.2944 82.9673 15.8467 82.5195 15.8467 81.9673V78.0015C15.8467 77.4492 16.2944 77.0015 16.8467 77.0015Z" fill="#21ACE3"/>
<path fill-rule="evenodd" clip-rule="evenodd" d="M13.8711 79.9844C13.8711 79.4321 14.3188 78.9844 14.8711 78.9844H18.8213C19.3736 78.9844 19.8213 79.4321 19.8213 79.9844C19.8213 80.5367 19.3736 80.9844 18.8213 80.9844H14.8711C14.3188 80.9844 13.8711 80.5367 13.8711 79.9844Z" fill="#21ACE3"/>
<path fill-rule="evenodd" clip-rule="evenodd" d="M132.976 53C133.528 53 133.976 53.4477 133.976 54V57.9658C133.976 58.5181 133.528 58.9658 132.976 58.9658C132.423 58.9658 131.976 58.5181 131.976 57.9658V54C131.976 53.4477 132.423 53 132.976 53Z" fill="#21ACE3"/>
<path fill-rule="evenodd" clip-rule="evenodd" d="M130 55.9829C130 55.4306 130.448 54.9829 131 54.9829H134.95C135.503 54.9829 135.95 55.4306 135.95 55.9829C135.95 56.5352 135.503 56.9829 134.95 56.9829H131C130.448 56.9829 130 56.5352 130 55.9829Z" fill="#21ACE3"/>
<path fill-rule="evenodd" clip-rule="evenodd" d="M107.976 2C108.528 2 108.976 2.44772 108.976 3V6.96579C108.976 7.51807 108.528 7.96579 107.976 7.96579C107.423 7.96579 106.976 7.51807 106.976 6.96579V3C106.976 2.44772 107.423 2 107.976 2Z" fill="#21ACE3"/>
<path fill-rule="evenodd" clip-rule="evenodd" d="M105 4.98291C105 4.43063 105.448 3.98291 106 3.98291H109.95C110.503 3.98291 110.95 4.43063 110.95 4.98291C110.95 5.53519 110.503 5.98291 109.95 5.98291H106C105.448 5.98291 105 5.53519 105 4.98291Z" fill="#21ACE3"/>
<path d="M92.6382 37.2721L122.05 58.0632C123.825 59.331 123.381 61.3594 121.099 62.6271L62.529 95.0183C59.74 96.603 56.0635 96.603 54.352 95.0183L26.6516 69.4096C25.1937 68.0785 26.2713 65.9233 28.9969 64.6556L85.8557 37.2721C88.0109 36.1945 91.1169 36.1945 92.6382 37.2721Z" fill="#4AC6F8"/>
<path opacity="0.2" d="M90.2929 49.3159C86.9334 50.964 82.4328 50.964 80.2143 49.3159C77.9957 47.6678 78.9465 45.0055 82.306 43.3575C85.6022 41.7728 89.976 41.7728 92.1945 43.3575C94.4131 45.0055 93.5891 47.6044 90.2929 49.3159Z" fill="white"/>
<path opacity="0.3" d="M89.3427 48.619C86.8072 49.8868 83.3208 49.8868 81.6094 48.619C79.8979 47.3513 80.6586 45.3229 83.1941 44.0551C85.7296 42.8508 89.0891 42.8508 90.8006 44.0551C92.5121 45.2595 91.8782 47.3513 89.3427 48.619Z" fill="white"/>
<path opacity="0.55" d="M87.6298 45.8931C87.8833 46.0833 87.9467 46.2734 87.7566 46.527H88.8975C89.0243 46.2734 89.0877 45.8931 88.7708 45.5762L89.2779 45.3226L88.644 44.8789L88.0735 45.1325C87.1861 44.7521 85.9817 44.8155 84.9041 45.386C83.8265 45.8931 83.4462 46.6538 83.8899 47.2243L83.3828 47.4778L84.0167 47.9215L84.4604 47.668C84.9675 47.9215 85.538 47.9849 86.0451 47.9215L86.2353 47.2243C85.8549 47.2876 85.4746 47.2243 85.2211 47.0341C84.7773 46.7172 84.9675 46.21 85.6648 45.8931C86.4254 45.5762 87.1861 45.5762 87.6298 45.8931Z" fill="white"/>
<path opacity="0.3" d="M69.2481 84.4957L43.5127 62.31L53.6547 57.3657L79.5803 78.9175L69.2481 84.4957Z" fill="#4AC6F8"/>
<path opacity="0.3" d="M50.929 78.5375L36.4766 65.7332L40.3432 63.8315L54.7956 76.5091L50.929 78.5375Z" fill="white"/>
<path opacity="0.3" d="M81.1023 56.5414L71.1504 48.8082L74.5733 47.0967L84.5886 54.7666L81.1023 56.5414Z" fill="white"/>
<path d="M93.3354 26.6866L122.747 47.4778C124.522 48.7455 124.078 50.7739 121.796 52.0417L63.1628 84.4328C60.3738 86.0175 56.6973 86.0175 54.9858 84.4328L27.2854 58.8242C25.8275 57.493 26.9051 55.3379 29.6307 54.0701L86.4895 26.6866C88.7081 25.609 91.7507 25.609 93.3354 26.6866Z" fill="#368CFB"/>
<path opacity="0.2" d="M90.9892 38.7305C87.6296 40.3785 83.1291 40.3785 80.9105 38.7305C78.692 37.0824 79.6428 34.4201 83.0023 32.772C86.2985 31.1873 90.6723 31.1873 92.8908 32.772C95.1094 34.4201 94.2854 37.019 90.9892 38.7305Z" fill="#E4F8FF"/>
<path opacity="0.3" d="M90.039 38.0336C87.5035 39.3014 84.0171 39.3014 82.3057 38.0336C80.5942 36.7658 81.3548 34.7374 83.8904 33.4697C86.4259 32.2653 89.7854 32.2653 91.4969 33.4697C93.2083 34.674 92.5745 36.7658 90.039 38.0336Z" fill="#E4F8FF"/>
<path opacity="0.55" d="M88.3271 35.3077C88.5806 35.4978 88.644 35.688 88.4538 35.9415H89.5948C89.7216 35.688 89.785 35.3077 89.468 34.9907L89.9751 34.7372L89.3413 34.2935L88.7708 34.547C87.8833 34.1667 86.679 34.2301 85.6014 34.8006C84.5238 35.3077 84.1435 36.0683 84.5872 36.6388L84.0801 36.8924L84.714 37.3361L85.1577 37.0825C85.6648 37.3361 86.2353 37.3995 86.7424 37.3361L86.9325 36.6388C86.5522 36.7022 86.1719 36.6388 85.9183 36.4486C85.4746 36.1317 85.6648 35.6246 86.362 35.3077C87.1227 34.9907 87.8833 34.9907 88.3271 35.3077Z" fill="#E4F8FF"/>
<path opacity="0.3" d="M69.882 73.9102L44.21 51.7245L54.2886 46.7803L80.2776 68.3321L69.882 73.9102Z" fill="#21ACE3"/>
<path opacity="0.3" d="M51.6262 67.952L37.1738 55.1477L41.0405 53.2461L55.4929 65.9236L51.6262 67.952Z" fill="#21ACE3"/>
<path opacity="0.3" d="M81.7994 45.956L71.7842 38.2227L75.2705 36.5112L85.2858 44.1811L81.7994 45.956Z" fill="#E4F8FF"/>
<path d="M94.48 13.8082L123.892 34.5994C125.667 35.8671 125.223 37.8955 122.941 39.1633L64.3708 71.5544C61.5818 73.1391 57.9053 73.1391 56.1938 71.5544L28.4934 45.9458C27.0355 44.6146 28.1131 42.4594 30.8387 41.1917L87.6975 13.8082C89.9161 12.7306 92.9587 12.7306 94.48 13.8082Z" fill="#4AC6F8"/>
<path d="M92.1972 25.7881C88.8377 27.4362 84.3371 27.4362 82.1186 25.7881C79.9 24.14 80.8508 21.4777 84.2103 19.8296C87.5065 18.2449 91.8803 18.2449 94.0988 19.8296C96.254 21.4777 95.4934 24.14 92.1972 25.7881Z" fill="#E4F8FF"/>
<path d="M91.1825 25.0907C88.647 26.3585 85.1607 26.3585 83.4492 25.0907C81.7377 23.823 82.4984 21.7946 85.0339 20.5268C87.5694 19.3224 90.929 19.3224 92.6404 20.5268C94.3519 21.7946 93.718 23.823 91.1825 25.0907Z" fill="#4AC6F8"/>
<path d="M89.5351 22.3653C89.7886 22.5554 89.852 22.7456 89.6618 22.9992H90.8028C90.9296 22.7456 90.993 22.3653 90.676 22.0483L91.1831 21.7948L90.5493 21.3511L89.9788 21.6046C89.0913 21.2243 87.887 21.2877 86.8094 21.8582C85.7318 22.3653 85.3515 23.1259 85.7952 23.6964L85.2881 23.95L85.922 24.3937L86.3657 24.1401C86.8728 24.3937 87.4433 24.4571 87.9504 24.3937L88.1405 23.6964C87.7602 23.7598 87.3799 23.6964 87.1263 23.5063C86.6826 23.1893 86.8728 22.6822 87.57 22.3653C88.2673 22.0483 89.0913 22.0483 89.5351 22.3653Z" fill="#E4F8FF"/>
<path d="M71.0899 61.0327L45.3545 38.7836L55.4965 33.8394L81.4855 55.3912L71.0899 61.0327Z" fill="#E4F8FF"/>
<path d="M52.7708 55.0736L38.3818 42.2059L42.1851 40.3677L56.7009 53.0452L52.7708 55.0736Z" fill="#E4F8FF"/>
<path d="M83.0065 33.0142L72.9912 25.3443L76.4141 23.6328L86.4294 31.2393L83.0065 33.0142Z" fill="#E4F8FF"/>
</svg>
