<svg width="144" height="108" viewBox="0 0 144 108" fill="none" xmlns="http://www.w3.org/2000/svg">
<path d="M139.561 35.7149C142.169 42.2807 143.352 49.3363 143.03 56.4044C142.709 63.4726 140.89 70.3885 137.698 76.6845C132.734 86.568 124.421 94.3171 114.277 98.5176C106.284 101.992 97.3042 102.362 89.0578 99.5573C78.9379 95.691 72.0627 87.861 60.465 88.4458C50.3772 88.9656 43.0845 97.218 33.4465 99.1024C9.76908 103.716 -6.8083 71.7136 4.78944 52.4147C8.67677 45.9167 15.6804 39.9711 23.3908 39.4188C29.013 39.0939 34.4424 41.1407 40.0967 40.9133C44.2079 40.8578 48.2601 39.9163 51.983 38.1514C55.7058 36.3866 59.0137 33.8392 61.6858 30.679C65.6695 25.968 66.5691 19.535 70.9704 15.1164C79.9017 6.11678 93.4591 5.36952 105.25 7.54633C112.107 8.8279 118.586 11.6702 124.196 15.8581C129.807 20.0459 134.402 25.4697 137.633 31.7187C138.308 33.0183 138.886 34.3504 139.561 35.7149Z" fill="#EEFBFF"/>
<path d="M38.457 52.5205H45.457V88.5205H38.457V52.5205Z" fill="#C99A00"/>
<path fill-rule="evenodd" clip-rule="evenodd" d="M37.457 51.5205H46.457V89.5205H37.457V51.5205ZM38.457 52.5205V88.5205H45.457V52.5205H38.457Z" fill="#C99A00"/>
<path d="M59.458 52.5205H66.458V88.5205H59.458V52.5205Z" fill="#C99A00"/>
<path fill-rule="evenodd" clip-rule="evenodd" d="M58.458 51.5205H67.458V89.5205H58.458V51.5205ZM59.458 52.5205V88.5205H66.458V52.5205H59.458Z" fill="#C99A00"/>
<path d="M79.458 52.5205H86.458V88.5205H79.458V52.5205Z" fill="#C99A00"/>
<path fill-rule="evenodd" clip-rule="evenodd" d="M78.458 51.5205H87.458V89.5205H78.458V51.5205ZM79.458 52.5205V88.5205H86.458V52.5205H79.458Z" fill="#C99A00"/>
<path d="M33.458 88.4766H49.458V92.4766H33.458V88.4766Z" fill="#EDD888"/>
<path d="M54.457 88.4766H70.457V92.4766H54.457V88.4766Z" fill="#EDD888"/>
<path d="M74.457 88.4766H90.457V92.4766H74.457V88.4766Z" fill="#EDD888"/>
<path d="M33.458 48.0488H49.458V52.0488H33.458V48.0488Z" fill="#EDD888"/>
<path d="M99.457 52.5205H106.457V88.5205H99.457V52.5205Z" fill="#C99A00"/>
<path fill-rule="evenodd" clip-rule="evenodd" d="M98.458 51.5205H107.458V89.5205H98.458V51.5205ZM99.458 52.5205V88.5205H106.458V52.5205H99.458Z" fill="#C99A00"/>
<path d="M54.457 48.0488H70.457V52.0488H54.457V48.0488Z" fill="#EDD888"/>
<path d="M115.06 92.4399C116.716 92.4399 118.06 93.7831 118.06 95.4399L118.06 101.331C118.06 102.988 116.716 104.331 115.06 104.331L28.4217 104.331C26.7648 104.331 25.4217 102.988 25.4217 101.331L25.4217 95.4399C25.4217 93.7831 26.7648 92.4399 28.4217 92.4399L115.06 92.4399Z" fill="#C99A00"/>
<path d="M74.457 48.0488H90.457V52.0488H74.457V48.0488Z" fill="#EDD888"/>
<path d="M119.013 42.4992H25.0556C22.167 42.4992 20.9472 38.8173 23.2644 37.0926L69.6166 2.59341C70.6684 1.81062 72.1066 1.80147 73.1682 2.57082L120.773 37.07C123.128 38.7765 121.921 42.4992 119.013 42.4992Z" fill="#C99A00"/>
<path d="M94.458 48.0488H110.458V52.0488H94.458V48.0488Z" fill="#EDD888"/>
<path d="M25.4248 45.273C25.4248 43.7407 26.667 42.4985 28.1993 42.4985H115.288C116.821 42.4985 118.063 43.7407 118.063 45.273C118.063 46.8054 116.821 48.0476 115.288 48.0476H28.1993C26.667 48.0476 25.4248 46.8054 25.4248 45.273Z" fill="#C99A00" fill-opacity="0.8"/>
<path d="M78.3844 23.4551C78.3844 26.7387 75.7482 29.4005 72.4964 29.4005C69.2445 29.4005 66.6084 26.7387 66.6084 23.4551C66.6084 20.1716 69.2445 17.5098 72.4964 17.5098C75.7482 17.5098 78.3844 20.1716 78.3844 23.4551Z" fill="white"/>
<path fill-rule="evenodd" clip-rule="evenodd" d="M16.8457 75.5215C17.398 75.5215 17.8457 75.9692 17.8457 76.5215V80.4873C17.8457 81.0395 17.398 81.4873 16.8457 81.4873C16.2934 81.4873 15.8457 81.0395 15.8457 80.4873V76.5215C15.8457 75.9692 16.2934 75.5215 16.8457 75.5215Z" fill="#EDD888"/>
<path fill-rule="evenodd" clip-rule="evenodd" d="M13.8711 78.5044C13.8711 77.9521 14.3188 77.5044 14.8711 77.5044H18.8213C19.3736 77.5044 19.8213 77.9521 19.8213 78.5044C19.8213 79.0567 19.3736 79.5044 18.8213 79.5044H14.8711C14.3188 79.5044 13.8711 79.0567 13.8711 78.5044Z" fill="#EDD888"/>
<path fill-rule="evenodd" clip-rule="evenodd" d="M127.975 51.52C128.527 51.52 128.975 51.9677 128.975 52.52V56.4858C128.975 57.0381 128.527 57.4858 127.975 57.4858C127.422 57.4858 126.975 57.0381 126.975 56.4858V52.52C126.975 51.9677 127.422 51.52 127.975 51.52Z" fill="#EDD888"/>
<path fill-rule="evenodd" clip-rule="evenodd" d="M125 54.5029C125 53.9506 125.448 53.5029 126 53.5029H129.95C130.503 53.5029 130.95 53.9506 130.95 54.5029C130.95 55.0552 130.503 55.5029 129.95 55.5029H126C125.448 55.5029 125 55.0552 125 54.5029Z" fill="#EDD888"/>
<path d="M111.452 106.073C107.932 106.073 104.49 105.019 101.563 103.044C98.6359 101.069 96.3545 98.2623 95.0073 94.9782C93.6601 91.694 93.3076 88.0802 93.9944 84.5937C94.6812 81.1073 96.3764 77.9048 98.8658 75.3912C101.355 72.8776 104.527 71.1658 107.98 70.4723C111.432 69.7788 115.011 70.1347 118.264 71.4951C121.516 72.8554 124.296 75.1591 126.252 78.1148C128.208 81.0704 129.252 84.5454 129.252 88.1001C129.246 92.8653 127.369 97.4337 124.032 100.803C120.696 104.173 116.171 106.068 111.452 106.073ZM111.452 74.6203C108.812 74.6203 106.231 75.4108 104.035 76.892C101.84 78.3732 100.129 80.4785 99.1185 82.9416C98.1081 85.4047 97.8437 88.1151 98.3588 90.7299C98.8739 93.3448 100.145 95.7466 102.012 97.6318C103.879 99.517 106.258 100.801 108.848 101.321C111.437 101.841 114.121 101.574 116.561 100.554C119 99.5336 121.085 97.8059 122.552 95.5891C124.019 93.3724 124.802 90.7662 124.802 88.1001C124.798 84.5263 123.39 81.0999 120.887 78.5728C118.385 76.0458 114.991 74.6243 111.452 74.6203Z" fill="#EDD888"/>
<path d="M111.451 102.221C119.175 102.221 125.437 95.8985 125.437 88.0993C125.437 80.3001 119.175 73.9775 111.451 73.9775C103.727 73.9775 97.4658 80.3001 97.4658 88.0993C97.4658 95.8985 103.727 102.221 111.451 102.221Z" fill="white"/>
<path d="M111.807 82.52V82.27H111.557H110H109.75V82.52V89.3767V89.4927L109.839 89.5676L114.738 93.7109L114.899 93.8474L115.061 93.7109L116.161 92.7799L116.387 92.589L116.161 92.3981L111.807 88.7155V82.52Z" fill="#C99A00" stroke="#C99A00" stroke-width="0.5"/>
</svg>
