<svg width="144" height="108" viewBox="0 0 144 108" fill="none" xmlns="http://www.w3.org/2000/svg">
<path d="M139.561 39.1949C142.169 45.7607 143.352 52.8163 143.03 59.8844C142.709 66.9526 140.89 73.8685 137.698 80.1645C132.734 90.048 124.421 97.7971 114.277 101.998C106.284 105.472 97.3042 105.842 89.0578 103.037C78.9379 99.171 72.0627 91.341 60.465 91.9258C50.3772 92.4456 43.0845 100.698 33.4465 102.582C9.76908 107.196 -6.8083 75.1936 4.78944 55.8946C8.67677 49.3967 15.6804 43.4511 23.3908 42.8988C29.013 42.5739 34.4424 44.6207 40.0967 44.3933C44.2079 44.3378 48.2601 43.3962 51.983 41.6314C55.7058 39.8666 59.0137 37.3192 61.6858 34.159C65.6695 29.448 66.5691 23.015 70.9704 18.5964C79.9017 9.59676 93.4591 8.8495 105.25 11.0263C112.107 12.3079 118.586 15.1502 124.196 19.338C129.807 23.5259 134.402 28.9496 137.633 35.1987C138.308 36.4983 138.886 37.8304 139.561 39.1949Z" fill="#EEFBFF"/>
<path d="M38.457 54.0005H45.457V90.0005H38.457V54.0005Z" fill="#24C08B"/>
<path fill-rule="evenodd" clip-rule="evenodd" d="M37.457 53.0005H46.457V91.0005H37.457V53.0005ZM38.457 54.0005V90.0005H45.457V54.0005H38.457Z" fill="#24C08B"/>
<path d="M59.458 54.0005H66.458V90.0005H59.458V54.0005Z" fill="#24C08B"/>
<path fill-rule="evenodd" clip-rule="evenodd" d="M58.458 53.0005H67.458V91.0005H58.458V53.0005ZM59.458 54.0005V90.0005H66.458V54.0005H59.458Z" fill="#24C08B"/>
<path d="M79.458 54.0005H86.458V90.0005H79.458V54.0005Z" fill="#24C08B"/>
<path fill-rule="evenodd" clip-rule="evenodd" d="M78.458 53.0005H87.458V91.0005H78.458V53.0005ZM79.458 54.0005V90.0005H86.458V54.0005H79.458Z" fill="#24C08B"/>
<path d="M33.458 89.9565H49.458V93.9565H33.458V89.9565Z" fill="#96DBB0"/>
<path d="M54.457 89.9565H70.457V93.9565H54.457V89.9565Z" fill="#96DBB0"/>
<path d="M74.457 89.9565H90.457V93.9565H74.457V89.9565Z" fill="#96DBB0"/>
<path d="M33.458 49.5288H49.458V53.5288H33.458V49.5288Z" fill="#96DBB0"/>
<path d="M99.457 54.0005H106.457V90.0005H99.457V54.0005Z" fill="#24C08B"/>
<path fill-rule="evenodd" clip-rule="evenodd" d="M98.458 53.0005H107.458V91.0005H98.458V53.0005ZM99.458 54.0005V90.0005H106.458V54.0005H99.458Z" fill="#24C08B"/>
<path d="M54.457 49.5288H70.457V53.5288H54.457V49.5288Z" fill="#96DBB0"/>
<path d="M115.06 93.9199C116.716 93.9199 118.06 95.2631 118.06 96.9199L118.06 102.811C118.06 104.468 116.716 105.811 115.06 105.811L28.4217 105.811C26.7648 105.811 25.4217 104.468 25.4217 102.811L25.4217 96.9199C25.4217 95.2631 26.7648 93.9199 28.4217 93.9199L115.06 93.9199Z" fill="#24C08B"/>
<path d="M74.457 49.5288H90.457V53.5288H74.457V49.5288Z" fill="#96DBB0"/>
<path d="M119.013 43.9792H25.0556C22.167 43.9792 20.9472 40.2973 23.2644 38.5726L69.6166 4.07339C70.6684 3.2906 72.1066 3.28145 73.1682 4.0508L120.773 38.55C123.128 40.2564 121.921 43.9792 119.013 43.9792Z" fill="#24C08B"/>
<path d="M94.458 49.5288H110.458V53.5288H94.458V49.5288Z" fill="#96DBB0"/>
<path opacity="0.8" d="M25.4248 46.753C25.4248 45.2207 26.667 43.9785 28.1993 43.9785H115.288C116.821 43.9785 118.063 45.2207 118.063 46.753C118.063 48.2854 116.821 49.5275 115.288 49.5275H28.1993C26.667 49.5275 25.4248 48.2854 25.4248 46.753Z" fill="#24C08B"/>
<path d="M78.3844 28.9351C78.3844 32.2187 75.7482 34.8805 72.4964 34.8805C69.2445 34.8805 66.6084 32.2187 66.6084 28.9351C66.6084 25.6516 69.2445 22.9897 72.4964 22.9897C75.7482 22.9897 78.3844 25.6516 78.3844 28.9351Z" fill="white"/>
<path fill-rule="evenodd" clip-rule="evenodd" d="M17.9746 77C18.5269 77 18.9746 77.4477 18.9746 78V81.9658C18.9746 82.5181 18.5269 82.9658 17.9746 82.9658C17.4223 82.9658 16.9746 82.5181 16.9746 81.9658V78C16.9746 77.4477 17.4223 77 17.9746 77Z" fill="#24C08B"/>
<path fill-rule="evenodd" clip-rule="evenodd" d="M15 79.9829C15 79.4306 15.4477 78.9829 16 78.9829H19.9502C20.5025 78.9829 20.9502 79.4306 20.9502 79.9829C20.9502 80.5352 20.5025 80.9829 19.9502 80.9829H16C15.4477 80.9829 15 80.5352 15 79.9829Z" fill="#24C08B"/>
<path fill-rule="evenodd" clip-rule="evenodd" d="M127.975 53C128.527 53 128.975 53.4477 128.975 54V57.9658C128.975 58.5181 128.527 58.9658 127.975 58.9658C127.422 58.9658 126.975 58.5181 126.975 57.9658V54C126.975 53.4477 127.422 53 127.975 53Z" fill="#24C08B"/>
<path fill-rule="evenodd" clip-rule="evenodd" d="M125 55.9829C125 55.4306 125.448 54.9829 126 54.9829H129.95C130.503 54.9829 130.95 55.4306 130.95 55.9829C130.95 56.5352 130.503 56.9829 129.95 56.9829H126C125.448 56.9829 125 56.5352 125 55.9829Z" fill="#24C08B"/>
<path d="M111.452 107.553C107.932 107.553 104.49 106.499 101.563 104.524C98.6359 102.549 96.3545 99.7423 95.0073 96.4581C93.6601 93.174 93.3076 89.5602 93.9944 86.0737C94.6812 82.5873 96.3764 79.3847 98.8658 76.8712C101.355 74.3576 104.527 72.6458 107.98 71.9523C111.432 71.2588 115.011 71.6147 118.264 72.9751C121.516 74.3354 124.296 76.6391 126.252 79.5947C128.208 82.5504 129.252 86.0253 129.252 89.5801C129.246 94.3452 127.369 98.9137 124.033 102.283C120.696 105.653 116.171 107.548 111.452 107.553ZM111.452 76.1002C108.812 76.1002 106.231 76.8908 104.035 78.372C101.84 79.8532 100.129 81.9585 99.1185 84.4216C98.1081 86.8847 97.8437 89.5951 98.3588 92.2099C98.8739 94.8247 100.145 97.2266 102.012 99.1118C103.879 100.997 106.258 102.281 108.848 102.801C111.437 103.321 114.121 103.054 116.561 102.034C119 101.014 121.085 99.2859 122.552 97.0691C124.019 94.8524 124.802 92.2462 124.802 89.5801C124.798 86.0062 123.39 82.5799 120.887 80.0528C118.385 77.5257 114.991 76.1042 111.452 76.1002Z" fill="#96DBB0"/>
<path d="M111.451 103.701C119.175 103.701 125.437 97.3785 125.437 89.5793C125.437 81.78 119.175 75.4575 111.451 75.4575C103.727 75.4575 97.4658 81.78 97.4658 89.5793C97.4658 97.3785 103.727 103.701 111.451 103.701Z" fill="white"/>
<path fill-rule="evenodd" clip-rule="evenodd" d="M118.498 84.9868C119.058 85.5974 119.016 86.5462 118.406 87.1061L109.704 95.085L109.691 95.0963C109.379 95.369 108.991 95.5005 108.613 95.5005C108.243 95.5005 107.861 95.3739 107.553 95.1111C107.3 94.898 106.589 94.2996 105.913 93.7253C105.272 93.1815 104.559 92.5734 104.395 92.4119C103.806 91.8297 103.8 90.88 104.382 90.2906C104.964 89.7013 105.914 89.6955 106.503 90.2777C106.5 90.2741 106.501 90.2754 106.509 90.2827C106.523 90.2949 106.555 90.324 106.614 90.3761C106.695 90.4472 106.803 90.5406 106.931 90.6509C107.187 90.8712 107.515 91.1506 107.854 91.438C108.098 91.645 108.346 91.8551 108.576 92.0491L116.378 84.8949C116.989 84.335 117.938 84.3762 118.498 84.9868Z" fill="#24C08B"/>
</svg>
