<svg width="144" height="108" viewBox="0 0 144 108" fill="none" xmlns="http://www.w3.org/2000/svg">
<path d="M139.561 37.1949C142.169 43.7607 143.352 50.8163 143.03 57.8844C142.709 64.9526 140.89 71.8685 137.698 78.1645C132.734 88.048 124.421 95.7971 114.277 99.9976C106.284 103.472 97.3042 103.842 89.0578 101.037C78.9379 97.171 72.0627 89.341 60.465 89.9258C50.3772 90.4456 43.0845 98.698 33.4465 100.582C9.76908 105.196 -6.8083 73.1936 4.78944 53.8946C8.67677 47.3967 15.6804 41.4511 23.3908 40.8988C29.013 40.5739 34.4424 42.6207 40.0967 42.3933C44.2079 42.3378 48.2601 41.3962 51.983 39.6314C55.7058 37.8666 59.0137 35.3191 61.6858 32.159C65.6695 27.448 66.5691 21.015 70.9704 16.5964C79.9017 7.59676 93.4591 6.8495 105.25 9.02631C112.107 10.3079 118.586 13.1502 124.196 17.338C129.807 21.5259 134.402 26.9496 137.633 33.1987C138.308 34.4983 138.886 35.8303 139.561 37.1949Z" fill="#EEFBFF"/>
<path d="M38.457 54.0005H45.457V90.0005H38.457V54.0005Z" fill="#368CFB"/>
<path fill-rule="evenodd" clip-rule="evenodd" d="M37.457 53.0005H46.457V91.0005H37.457V53.0005ZM38.457 54.0005V90.0005H45.457V54.0005H38.457Z" fill="#368CFB"/>
<path d="M59.457 54.0005H66.457V90.0005H59.457V54.0005Z" fill="#368CFB"/>
<path fill-rule="evenodd" clip-rule="evenodd" d="M58.457 53.0005H67.457V91.0005H58.457V53.0005ZM59.457 54.0005V90.0005H66.457V54.0005H59.457Z" fill="#368CFB"/>
<path d="M79.457 54.0005H86.457V90.0005H79.457V54.0005Z" fill="#368CFB"/>
<path fill-rule="evenodd" clip-rule="evenodd" d="M78.457 53.0005H87.457V91.0005H78.457V53.0005ZM79.457 54.0005V90.0005H86.457V54.0005H79.457Z" fill="#368CFB"/>
<path d="M33.457 89.9565H49.457V93.9565H33.457V89.9565Z" fill="#A1DFF6"/>
<path d="M54.457 89.9565H70.457V93.9565H54.457V89.9565Z" fill="#A1DFF6"/>
<path d="M74.457 89.9565H90.457V93.9565H74.457V89.9565Z" fill="#A1DFF6"/>
<path d="M33.457 49.5288H49.457V53.5288H33.457V49.5288Z" fill="#A1DFF6"/>
<path d="M99.457 54.0005H106.457V90.0005H99.457V54.0005Z" fill="#368CFB"/>
<path fill-rule="evenodd" clip-rule="evenodd" d="M98.457 53.0005H107.457V91.0005H98.457V53.0005ZM99.457 54.0005V90.0005H106.457V54.0005H99.457Z" fill="#368CFB"/>
<path d="M54.457 49.5288H70.457V53.5288H54.457V49.5288Z" fill="#A1DFF6"/>
<path d="M115.06 93.9199C116.716 93.9199 118.06 95.2631 118.06 96.9199L118.06 102.811C118.06 104.468 116.716 105.811 115.06 105.811L28.4217 105.811C26.7648 105.811 25.4217 104.468 25.4217 102.811L25.4217 96.9199C25.4217 95.2631 26.7648 93.9199 28.4217 93.9199L115.06 93.9199Z" fill="#368CFB"/>
<path d="M74.457 49.5288H90.457V53.5288H74.457V49.5288Z" fill="#A1DFF6"/>
<path d="M119.013 43.9792H25.0556C22.167 43.9792 20.9472 40.2973 23.2644 38.5726L69.6166 4.07339C70.6684 3.2906 72.1066 3.28145 73.1682 4.0508L120.773 38.55C123.128 40.2564 121.921 43.9792 119.013 43.9792Z" fill="#368CFB"/>
<path d="M94.457 49.5288H110.457V53.5288H94.457V49.5288Z" fill="#A1DFF6"/>
<path d="M25.4238 46.753C25.4238 45.2207 26.666 43.9785 28.1983 43.9785H115.287C116.82 43.9785 118.062 45.2207 118.062 46.753C118.062 48.2853 116.82 49.5275 115.287 49.5275H28.1983C26.666 49.5275 25.4238 48.2853 25.4238 46.753Z" fill="#21ACE3"/>
<path d="M78.3834 24.9351C78.3834 28.2187 75.7473 30.8805 72.4954 30.8805C69.2436 30.8805 66.6074 28.2187 66.6074 24.9351C66.6074 21.6516 69.2436 18.9897 72.4954 18.9897C75.7473 18.9897 78.3834 21.6516 78.3834 24.9351Z" fill="white"/>
<path fill-rule="evenodd" clip-rule="evenodd" d="M16.8467 77.0015C17.399 77.0015 17.8467 77.4492 17.8467 78.0015V81.9673C17.8467 82.5195 17.399 82.9673 16.8467 82.9673C16.2944 82.9673 15.8467 82.5195 15.8467 81.9673V78.0015C15.8467 77.4492 16.2944 77.0015 16.8467 77.0015Z" fill="#21ACE3"/>
<path fill-rule="evenodd" clip-rule="evenodd" d="M13.8711 79.9844C13.8711 79.4321 14.3188 78.9844 14.8711 78.9844H18.8213C19.3736 78.9844 19.8213 79.4321 19.8213 79.9844C19.8213 80.5367 19.3736 80.9844 18.8213 80.9844H14.8711C14.3188 80.9844 13.8711 80.5367 13.8711 79.9844Z" fill="#21ACE3"/>
<path fill-rule="evenodd" clip-rule="evenodd" d="M127.976 53C128.528 53 128.976 53.4477 128.976 54V57.9658C128.976 58.5181 128.528 58.9658 127.976 58.9658C127.423 58.9658 126.976 58.5181 126.976 57.9658V54C126.976 53.4477 127.423 53 127.976 53Z" fill="#21ACE3"/>
<path fill-rule="evenodd" clip-rule="evenodd" d="M125 55.9829C125 55.4306 125.448 54.9829 126 54.9829H129.95C130.503 54.9829 130.95 55.4306 130.95 55.9829C130.95 56.5352 130.503 56.9829 129.95 56.9829H126C125.448 56.9829 125 56.5352 125 55.9829Z" fill="#21ACE3"/>
<path d="M111.452 107.553C107.932 107.553 104.49 106.499 101.563 104.524C98.6359 102.549 96.3545 99.7423 95.0073 96.4581C93.6601 93.174 93.3076 89.5602 93.9944 86.0737C94.6812 82.5873 96.3764 79.3847 98.8658 76.8712C101.355 74.3576 104.527 72.6458 107.979 71.9523C111.432 71.2588 115.011 71.6147 118.264 72.9751C121.516 74.3354 124.296 76.6391 126.252 79.5947C128.208 82.5504 129.252 86.0253 129.252 89.5801C129.246 94.3452 127.369 98.9137 124.032 102.283C120.696 105.653 116.171 107.548 111.452 107.553ZM111.452 76.1002C108.812 76.1002 106.231 76.8908 104.035 78.372C101.84 79.8532 100.129 81.9585 99.1185 84.4216C98.1081 86.8847 97.8437 89.5951 98.3588 92.2099C98.8739 94.8247 100.145 97.2266 102.012 99.1118C103.879 100.997 106.258 102.281 108.848 102.801C111.437 103.321 114.121 103.054 116.561 102.034C119 101.014 121.085 99.2859 122.552 97.0691C124.019 94.8524 124.802 92.2462 124.802 89.5801C124.798 86.0063 123.39 82.5799 120.887 80.0528C118.385 77.5257 114.991 76.1042 111.452 76.1002Z" fill="#4AC6F8"/>
<path d="M111.451 103.701C119.175 103.701 125.437 97.3785 125.437 89.5793C125.437 81.78 119.175 75.4575 111.451 75.4575C103.727 75.4575 97.4658 81.78 97.4658 89.5793C97.4658 97.3785 103.727 103.701 111.451 103.701Z" fill="white"/>
<path fill-rule="evenodd" clip-rule="evenodd" d="M103.603 89.5792C103.603 88.7467 104.271 88.0719 105.095 88.0719L118.172 88.0719C118.996 88.0719 119.665 88.7467 119.665 89.5792C119.665 90.4116 118.996 91.0864 118.172 91.0864L105.095 91.0864C104.271 91.0864 103.603 90.4116 103.603 89.5792Z" fill="#4AC6F8"/>
<path fill-rule="evenodd" clip-rule="evenodd" d="M103.603 89.5792C103.603 88.7467 104.271 88.0719 105.095 88.0719L118.172 88.0719C118.996 88.0719 119.665 88.7467 119.665 89.5792C119.665 90.4116 118.996 91.0864 118.172 91.0864L105.095 91.0864C104.271 91.0864 103.603 90.4116 103.603 89.5792Z" fill="#4AC6F8"/>
<path fill-rule="evenodd" clip-rule="evenodd" d="M111.633 97.6885C110.809 97.6885 110.141 97.0137 110.141 96.1812L110.141 82.9772C110.141 82.1447 110.809 81.4699 111.633 81.4699C112.458 81.4699 113.126 82.1447 113.126 82.9772L113.126 96.1812C113.126 97.0137 112.458 97.6885 111.633 97.6885Z" fill="#4AC6F8"/>
<path fill-rule="evenodd" clip-rule="evenodd" d="M111.633 97.6885C110.809 97.6885 110.141 97.0137 110.141 96.1812L110.141 82.9772C110.141 82.1447 110.809 81.4699 111.633 81.4699C112.458 81.4699 113.126 82.1447 113.126 82.9772L113.126 96.1812C113.126 97.0137 112.458 97.6885 111.633 97.6885Z" fill="#4AC6F8"/>
</svg>
