<svg width="144" height="108" viewBox="0 0 144 108" fill="none" xmlns="http://www.w3.org/2000/svg">
<path d="M139.561 39.1949C142.169 45.7607 143.352 52.8163 143.03 59.8844C142.709 66.9526 140.89 73.8685 137.698 80.1645C132.734 90.048 124.421 97.7971 114.277 101.998C106.284 105.472 97.3042 105.842 89.0578 103.037C78.9379 99.171 72.0627 91.341 60.465 91.9258C50.3772 92.4456 43.0845 100.698 33.4465 102.582C9.76908 107.196 -6.80829 75.1936 4.78944 55.8946C8.67677 49.3967 15.6804 43.4511 23.3908 42.8988C29.013 42.5739 34.4424 44.6207 40.0967 44.3933C44.2079 44.3378 48.2601 43.3962 51.983 41.6314C55.7058 39.8666 59.0137 37.3192 61.6858 34.159C65.6695 29.448 66.5691 23.015 70.9704 18.5964C79.9017 9.59676 93.4591 8.8495 105.25 11.0263C112.107 12.3079 118.586 15.1502 124.196 19.338C129.807 23.5259 134.402 28.9496 137.633 35.1987C138.308 36.4983 138.886 37.8303 139.561 39.1949Z" fill="#EEFBFF"/>
<path d="M96.4385 87.9565H109.785V91.9201H96.4385V87.9565Z" fill="white"/>
<path d="M38.457 54.0005H45.457V90.0005H38.457V54.0005Z" fill="#368CFB"/>
<path fill-rule="evenodd" clip-rule="evenodd" d="M37.457 53.0005H46.457V91.0005H37.457V53.0005ZM38.457 54.0005V90.0005H45.457V54.0005H38.457Z" fill="#368CFB"/>
<path d="M59.457 54.0005H66.457V90.0005H59.457V54.0005Z" fill="#368CFB"/>
<path fill-rule="evenodd" clip-rule="evenodd" d="M58.457 53.0005H67.457V91.0005H58.457V53.0005ZM59.457 54.0005V90.0005H66.457V54.0005H59.457Z" fill="#368CFB"/>
<path d="M79.457 54.0005H86.457V90.0005H79.457V54.0005Z" fill="#368CFB"/>
<path fill-rule="evenodd" clip-rule="evenodd" d="M78.457 53.0005H87.457V91.0005H78.457V53.0005ZM79.457 54.0005V90.0005H86.457V54.0005H79.457Z" fill="#368CFB"/>
<path d="M33.457 89.9565H49.457V93.9565H33.457V89.9565Z" fill="#A1DFF6"/>
<path d="M54.457 89.9565H70.457V93.9565H54.457V89.9565Z" fill="#A1DFF6"/>
<path d="M74.457 89.9565H90.457V93.9565H74.457V89.9565Z" fill="#A1DFF6"/>
<path d="M33.457 49.5288H49.457V53.5288H33.457V49.5288Z" fill="#A1DFF6"/>
<path d="M99.457 54.0005H106.457V90.0005H99.457V54.0005Z" fill="#368CFB"/>
<path fill-rule="evenodd" clip-rule="evenodd" d="M98.457 53.0005H107.457V91.0005H98.457V53.0005ZM99.457 54.0005V90.0005H106.457V54.0005H99.457Z" fill="#368CFB"/>
<path d="M54.457 49.5288H70.457V53.5288H54.457V49.5288Z" fill="#A1DFF6"/>
<path d="M115.06 93.9199C116.716 93.9199 118.06 95.2631 118.06 96.9199L118.06 102.811C118.06 104.468 116.716 105.811 115.06 105.811L28.4217 105.811C26.7648 105.811 25.4217 104.468 25.4217 102.811L25.4217 96.9199C25.4217 95.2631 26.7648 93.9199 28.4217 93.9199L115.06 93.9199Z" fill="#368CFB"/>
<path d="M74.457 49.5288H90.457V53.5288H74.457V49.5288Z" fill="#A1DFF6"/>
<path d="M119.013 43.9792H25.0556C22.167 43.9792 20.9472 40.2973 23.2644 38.5726L69.6166 4.07339C70.6684 3.2906 72.1066 3.28145 73.1682 4.0508L120.773 38.55C123.128 40.2564 121.921 43.9792 119.013 43.9792Z" fill="#368CFB"/>
<path d="M94.457 49.5288H110.457V53.5288H94.457V49.5288Z" fill="#A1DFF6"/>
<path d="M25.4238 46.753C25.4238 45.2207 26.666 43.9785 28.1983 43.9785H115.287C116.82 43.9785 118.062 45.2207 118.062 46.753C118.062 48.2853 116.82 49.5275 115.287 49.5275H28.1983C26.666 49.5275 25.4238 48.2853 25.4238 46.753Z" fill="#21ACE3"/>
<path d="M78.3834 24.9351C78.3834 28.2187 75.7473 30.8805 72.4954 30.8805C69.2436 30.8805 66.6074 28.2187 66.6074 24.9351C66.6074 21.6516 69.2436 18.9897 72.4954 18.9897C75.7473 18.9897 78.3834 21.6516 78.3834 24.9351Z" fill="white"/>
<path d="M124.106 80.8896H96.5248C95.4367 80.8896 94.5547 81.7992 94.5547 82.9211V105.268C94.5547 106.39 95.4367 107.299 96.5248 107.299H124.106C125.194 107.299 126.076 106.39 126.076 105.268V82.9211C126.076 81.7992 125.194 80.8896 124.106 80.8896Z" fill="#3B5B7B"/>
<path d="M120.963 82.5941H116.846V74.7565C116.846 72.6778 115.978 70.6843 114.434 69.2144C112.889 67.7446 110.795 66.9188 108.611 66.9188C106.427 66.9188 104.332 67.7446 102.787 69.2144C101.243 70.6843 100.375 72.6778 100.375 74.7565V82.5941H96.2578V74.7565C96.2578 71.6385 97.5593 68.6482 99.8759 66.4434C102.192 64.2386 105.334 63 108.611 63C111.887 63 115.029 64.2386 117.345 66.4434C119.662 68.6482 120.963 71.6385 120.963 74.7565V82.5941Z" fill="#3B5B7B"/>
<path d="M122.35 80.8896H94.0233C92.9059 80.8896 92 81.7992 92 82.9211V105.268C92 106.39 92.9059 107.299 94.0233 107.299H122.35C123.467 107.299 124.373 106.39 124.373 105.268V82.9211C124.373 81.7992 123.467 80.8896 122.35 80.8896Z" fill="#A1DFF6"/>
<mask id="mask0_12611_135883" style="mask-type:alpha" maskUnits="userSpaceOnUse" x="103" y="87" width="9" height="15">
<path d="M111.983 91.739C111.984 91.0319 111.799 90.3371 111.445 89.7244C111.092 89.1118 110.584 88.6029 109.972 88.2489C109.36 87.895 108.665 87.7084 107.958 87.708C107.251 87.7076 106.556 87.8934 105.944 88.2467C105.331 88.5999 104.823 89.1083 104.469 89.7205C104.115 90.3328 103.929 91.0274 103.929 91.7345C103.929 92.4416 104.115 93.1363 104.468 93.7487C104.822 94.3611 105.33 94.8696 105.942 95.2232V101.807H109.97V95.2232C110.582 94.8704 111.09 94.3627 111.444 93.751C111.797 93.1394 111.983 92.4454 111.983 91.739Z" fill="#368CFB"/>
</mask>
<g mask="url(#mask0_12611_135883)">
<path d="M111.983 91.739C111.984 91.0319 111.799 90.3371 111.445 89.7244C111.092 89.1118 110.584 88.6029 109.972 88.2489C109.36 87.895 108.665 87.7084 107.958 87.708C107.251 87.7076 106.556 87.8934 105.944 88.2467C105.331 88.5999 104.823 89.1083 104.469 89.7205C104.115 90.3328 103.929 91.0274 103.929 91.7345C103.929 92.4416 104.115 93.1363 104.468 93.7487C104.822 94.3611 105.33 94.8696 105.942 95.2232V101.807H109.97V95.2232C110.582 94.8704 111.09 94.3627 111.444 93.751C111.797 93.1394 111.983 92.4454 111.983 91.739Z" fill="#368CFB"/>
</g>
<path fill-rule="evenodd" clip-rule="evenodd" d="M16.8467 77.0015C17.399 77.0015 17.8467 77.4492 17.8467 78.0015V81.9673C17.8467 82.5195 17.399 82.9673 16.8467 82.9673C16.2944 82.9673 15.8467 82.5195 15.8467 81.9673V78.0015C15.8467 77.4492 16.2944 77.0015 16.8467 77.0015Z" fill="#21ACE3"/>
<path fill-rule="evenodd" clip-rule="evenodd" d="M13.8711 79.9844C13.8711 79.4321 14.3188 78.9844 14.8711 78.9844H18.8213C19.3736 78.9844 19.8213 79.4321 19.8213 79.9844C19.8213 80.5367 19.3736 80.9844 18.8213 80.9844H14.8711C14.3188 80.9844 13.8711 80.5367 13.8711 79.9844Z" fill="#21ACE3"/>
<path fill-rule="evenodd" clip-rule="evenodd" d="M127.976 53C128.528 53 128.976 53.4477 128.976 54V57.9658C128.976 58.5181 128.528 58.9658 127.976 58.9658C127.423 58.9658 126.976 58.5181 126.976 57.9658V54C126.976 53.4477 127.423 53 127.976 53Z" fill="#21ACE3"/>
<path fill-rule="evenodd" clip-rule="evenodd" d="M125 55.9829C125 55.4306 125.448 54.9829 126 54.9829H129.95C130.503 54.9829 130.95 55.4306 130.95 55.9829C130.95 56.5352 130.503 56.9829 129.95 56.9829H126C125.448 56.9829 125 56.5352 125 55.9829Z" fill="#21ACE3"/>
</svg>
