<svg width="144" height="108" viewBox="0 0 144 108" fill="none" xmlns="http://www.w3.org/2000/svg">
<path d="M139.561 39.1949C142.169 45.7607 143.352 52.8163 143.03 59.8844C142.709 66.9526 140.89 73.8685 137.698 80.1645C132.734 90.048 124.421 97.7971 114.277 101.998C106.284 105.472 97.3042 105.842 89.0578 103.037C78.9379 99.171 72.0627 91.341 60.465 91.9258C50.3772 92.4456 43.0845 100.698 33.4465 102.582C9.76908 107.196 -6.80829 75.1936 4.78944 55.8946C8.67677 49.3967 15.6804 43.4511 23.3908 42.8988C29.013 42.5739 34.4424 44.6207 40.0967 44.3933C44.2079 44.3378 48.2601 43.3962 51.983 41.6314C55.7058 39.8666 59.0137 37.3192 61.6858 34.159C65.6695 29.448 66.5691 23.015 70.9704 18.5964C79.9017 9.59676 93.4591 8.8495 105.25 11.0263C112.107 12.3079 118.586 15.1502 124.196 19.338C129.807 23.5259 134.402 28.9496 137.633 35.1987C138.308 36.4983 138.886 37.8303 139.561 39.1949Z" fill="#EEFBFF"/>
<path fill-rule="evenodd" clip-rule="evenodd" d="M11.8467 77.0015C12.399 77.0015 12.8467 77.4492 12.8467 78.0015V81.9673C12.8467 82.5195 12.399 82.9673 11.8467 82.9673C11.2944 82.9673 10.8467 82.5195 10.8467 81.9673V78.0015C10.8467 77.4492 11.2944 77.0015 11.8467 77.0015Z" fill="#21ACE3"/>
<path fill-rule="evenodd" clip-rule="evenodd" d="M8.87109 79.9844C8.87109 79.4321 9.31881 78.9844 9.87109 78.9844H13.8213C14.3736 78.9844 14.8213 79.4321 14.8213 79.9844C14.8213 80.5367 14.3736 80.9844 13.8213 80.9844H9.87109C9.31881 80.9844 8.87109 80.5367 8.87109 79.9844Z" fill="#21ACE3"/>
<path fill-rule="evenodd" clip-rule="evenodd" d="M132.976 53C133.528 53 133.976 53.4477 133.976 54V57.9658C133.976 58.5181 133.528 58.9658 132.976 58.9658C132.423 58.9658 131.976 58.5181 131.976 57.9658V54C131.976 53.4477 132.423 53 132.976 53Z" fill="#21ACE3"/>
<path fill-rule="evenodd" clip-rule="evenodd" d="M130 55.9829C130 55.4306 130.448 54.9829 131 54.9829H134.95C135.503 54.9829 135.95 55.4306 135.95 55.9829C135.95 56.5352 135.503 56.9829 134.95 56.9829H131C130.448 56.9829 130 56.5352 130 55.9829Z" fill="#21ACE3"/>
<path fill-rule="evenodd" clip-rule="evenodd" d="M106.976 3C107.528 3 107.976 3.44772 107.976 4V7.96579C107.976 8.51807 107.528 8.96579 106.976 8.96579C106.423 8.96579 105.976 8.51807 105.976 7.96579V4C105.976 3.44772 106.423 3 106.976 3Z" fill="#21ACE3"/>
<path fill-rule="evenodd" clip-rule="evenodd" d="M104 5.98291C104 5.43063 104.448 4.98291 105 4.98291H108.95C109.503 4.98291 109.95 5.43063 109.95 5.98291C109.95 6.53519 109.503 6.98291 108.95 6.98291H105C104.448 6.98291 104 6.53519 104 5.98291Z" fill="#21ACE3"/>
<path d="M46.3379 24C46.3379 21.7909 48.1288 20 50.3379 20H120.644C122.853 20 124.644 21.7909 124.644 24V66.7337C124.644 68.9429 122.853 70.7337 120.644 70.7337H50.3379C48.1288 70.7337 46.3379 68.9429 46.3379 66.7337V24Z" fill="#A1DFF6"/>
<path d="M46.3379 32.1763H124.644V39.8966H46.3379V32.1763Z" fill="#E4F8FF"/>
<path d="M23 49.2661C23 47.057 24.7909 45.2661 27 45.2661H97.3064C99.5155 45.2661 101.306 47.057 101.306 49.2661V91.9998C101.306 94.209 99.5155 95.9998 97.3064 95.9998H27C24.7909 95.9998 23 94.209 23 91.9998V49.2661Z" fill="#368CFB"/>
<path d="M29.6162 54.0898H46.1598V59.6044H29.6162V54.0898Z" fill="#4AC6F8"/>
<path d="M23 75.0444H101.306V82.7648H23V75.0444Z" fill="white"/>
<path d="M111.452 107.553C107.932 107.553 104.49 106.499 101.563 104.524C98.6359 102.549 96.3545 99.7423 95.0073 96.4581C93.6601 93.174 93.3076 89.5602 93.9944 86.0737C94.6812 82.5873 96.3764 79.3847 98.8658 76.8712C101.355 74.3576 104.527 72.6458 107.979 71.9523C111.432 71.2588 115.011 71.6147 118.264 72.9751C121.516 74.3354 124.296 76.6391 126.252 79.5947C128.208 82.5504 129.252 86.0253 129.252 89.5801C129.246 94.3452 127.369 98.9137 124.032 102.283C120.696 105.653 116.171 107.548 111.452 107.553ZM111.452 76.1002C108.812 76.1002 106.231 76.8908 104.035 78.372C101.84 79.8532 100.129 81.9585 99.1185 84.4216C98.1081 86.8847 97.8437 89.5951 98.3588 92.2099C98.8739 94.8247 100.145 97.2266 102.012 99.1118C103.879 100.997 106.258 102.281 108.848 102.801C111.437 103.321 114.121 103.054 116.561 102.034C119 101.014 121.085 99.2859 122.552 97.0691C124.019 94.8524 124.802 92.2462 124.802 89.5801C124.798 86.0063 123.39 82.5799 120.887 80.0528C118.385 77.5257 114.991 76.1042 111.452 76.1002Z" fill="#4AC6F8"/>
<path d="M111.451 103.701C119.175 103.701 125.437 97.3785 125.437 89.5793C125.437 81.78 119.175 75.4575 111.451 75.4575C103.727 75.4575 97.4658 81.78 97.4658 89.5793C97.4658 97.3785 103.727 103.701 111.451 103.701Z" fill="white"/>
<path fill-rule="evenodd" clip-rule="evenodd" d="M103.603 89.5792C103.603 88.7467 104.271 88.0719 105.095 88.0719L118.172 88.0719C118.996 88.0719 119.665 88.7467 119.665 89.5792C119.665 90.4116 118.996 91.0864 118.172 91.0864L105.095 91.0864C104.271 91.0864 103.603 90.4116 103.603 89.5792Z" fill="#4AC6F8"/>
<path fill-rule="evenodd" clip-rule="evenodd" d="M111.633 97.6885C110.809 97.6885 110.141 97.0137 110.141 96.1812L110.141 82.9772C110.141 82.1447 110.809 81.4699 111.633 81.4699C112.458 81.4699 113.126 82.1447 113.126 82.9772L113.126 96.1812C113.126 97.0137 112.458 97.6885 111.633 97.6885Z" fill="#4AC6F8"/>
</svg>
