<svg width="144" height="108" viewBox="0 0 144 108" fill="none" xmlns="http://www.w3.org/2000/svg">
<path d="M139.561 35.5948C142.169 42.1606 143.352 49.2162 143.03 56.2843C142.709 63.3525 140.89 70.2684 137.698 76.5644C132.734 86.4479 124.421 94.197 114.277 98.3975C106.284 101.872 97.3042 102.242 89.0578 99.4372C78.9379 95.5709 72.0627 87.7409 60.465 88.3257C50.3772 88.8455 43.0845 97.0979 33.4465 98.9823C9.76908 103.596 -6.80829 71.5935 4.78944 52.2945C8.67677 45.7966 15.6804 39.851 23.3908 39.2987C29.013 38.9738 34.4424 41.0206 40.0967 40.7932C44.2079 40.7377 48.2601 39.7961 51.983 38.0313C55.7058 36.2665 59.0137 33.7191 61.6858 30.5589C65.6695 25.8479 66.5691 19.4149 70.9704 14.9963C79.9017 5.99666 93.4591 5.2494 105.25 7.42621C112.107 8.70778 118.586 11.5501 124.196 15.7379C129.807 19.9258 134.402 25.3495 137.633 31.5986C138.308 32.8982 138.886 34.2303 139.561 35.5948Z" fill="#EEFBFF"/>
<path d="M25.9561 98.3511L51.3748 34.3155C51.4504 34.1251 51.6327 33.9993 51.8376 34.0031C67.9117 34.2995 87.2341 55.6405 87.4973 71.1803C87.5006 71.3768 87.3849 71.552 87.2058 71.6329L26.6266 98.9912C26.2169 99.1762 25.7902 98.7688 25.9561 98.3511Z" fill="#4AC6F8"/>
<path d="M38.7112 23.9036C38.8168 24.1138 38.9789 24.2903 39.1791 24.4131C39.3793 24.5358 39.6098 24.6 39.8444 24.5984L43.9241 24.5984L46.2661 27.9968C46.3804 28.1665 46.5341 28.3058 46.714 28.4026C46.8939 28.4995 47.0945 28.551 47.2986 28.5527L47.4749 28.5527C47.7079 28.5195 47.927 28.4214 48.1073 28.2695C48.2876 28.1177 48.4218 27.9182 48.4948 27.6936L49.754 23.7898L53.6699 22.6276C53.8926 22.5588 54.0919 22.4293 54.2457 22.2536C54.3994 22.0779 54.5015 21.8629 54.5407 21.6324C54.5798 21.402 54.5545 21.1651 54.4674 20.9482C54.3804 20.7314 54.2351 20.543 54.0477 20.4041L50.7109 17.9658L50.8243 13.8599C50.8354 13.6177 50.7769 13.3774 50.6557 13.1677C50.5345 12.9579 50.3557 12.7876 50.1406 12.6771C49.9255 12.5665 49.6833 12.5204 49.4429 12.5442C49.2024 12.568 48.9738 12.6607 48.7844 12.8113L45.4854 15.2117L41.6324 13.8346C41.4115 13.7577 41.1735 13.7441 40.9452 13.7952C40.717 13.8464 40.5074 13.9604 40.3401 14.1243C40.1727 14.2883 40.0542 14.4958 39.9978 14.7235C39.9414 14.9513 39.9493 15.1903 40.0207 15.4138L41.2799 19.3176L38.7616 22.5644C38.6289 22.7604 38.5537 22.9899 38.5448 23.2267C38.5359 23.4635 38.5936 23.6981 38.7112 23.9036ZM43.9367 19.1786L43.2568 17.0814L45.3218 17.8142C45.5137 17.8829 45.7194 17.9038 45.9211 17.8752C46.1229 17.8466 46.3147 17.7693 46.4802 17.6499L48.2556 16.3866L48.2556 18.5848C48.251 18.7884 48.2956 18.9901 48.3855 19.1727C48.4754 19.3552 48.6079 19.5133 48.7718 19.6334L50.5472 20.8968L48.4445 21.5158C48.2479 21.5735 48.0683 21.6785 47.9213 21.8216C47.7743 21.9647 47.6643 22.1416 47.6008 22.337L46.9209 24.4215L45.6617 22.6149C45.5474 22.4452 45.3937 22.306 45.2139 22.2091C45.034 22.1123 44.8333 22.0608 44.6292 22.0591L42.3753 22.0591L43.7478 20.3283C43.8648 20.1637 43.9406 19.9735 43.9691 19.7734C43.9976 19.5734 43.9779 19.3694 43.9115 19.1786L43.9367 19.1786Z" fill="#368CFB"/>
<path d="M94.3688 73.2153C94.3567 73.4503 94.4104 73.6838 94.5238 73.8895C94.6371 74.0952 94.8058 74.2649 95.0106 74.3795L98.5571 76.3959L98.9134 80.5077C98.9289 80.7117 98.9937 80.9088 99.1022 81.0818C99.2107 81.2549 99.3596 81.3989 99.5362 81.5013L99.6894 81.5884C99.9085 81.6747 100.147 81.6977 100.379 81.6548C100.611 81.6119 100.826 81.5048 101.001 81.3457L104.025 78.5744L108.003 79.4994C108.231 79.5497 108.468 79.5357 108.689 79.4589C108.909 79.3822 109.104 79.2457 109.252 79.0647C109.4 78.8837 109.495 78.6653 109.527 78.4337C109.558 78.2022 109.525 77.9666 109.431 77.7532L107.735 73.9844L109.863 70.471C109.992 70.266 110.06 70.0282 110.059 69.786C110.057 69.5437 109.986 69.3073 109.853 69.1049C109.721 68.9025 109.533 68.7427 109.312 68.6445C109.092 68.5464 108.847 68.514 108.608 68.5513L104.554 69.0075L101.885 65.906C101.731 65.7299 101.531 65.6005 101.307 65.5321C101.083 65.4638 100.845 65.4593 100.618 65.5191C100.392 65.579 100.186 65.7008 100.025 65.8709C99.8629 66.041 99.7517 66.2527 99.7033 66.4823L98.8685 70.4982L95.0745 72.0761C94.8622 72.1809 94.6835 72.3433 94.5587 72.5447C94.434 72.7462 94.3682 72.9786 94.3688 73.2153ZM101.247 71.6905L101.692 69.5314L103.125 71.189C103.258 71.3436 103.427 71.4635 103.616 71.5383C103.806 71.6132 104.011 71.6408 104.213 71.6188L106.381 71.398L105.295 73.309C105.19 73.4837 105.129 73.6811 105.117 73.8842C105.105 74.0873 105.142 74.2903 105.225 74.4757L106.144 76.4514L104.01 75.9503C103.811 75.9033 103.603 75.9058 103.404 75.9575C103.206 76.0092 103.023 76.1087 102.871 76.2472L101.25 77.7233L101.048 75.5304C101.032 75.3264 100.968 75.1294 100.859 74.9563C100.751 74.7832 100.602 74.6393 100.425 74.5369L98.4658 73.4229L100.514 72.5966C100.697 72.5114 100.857 72.3835 100.981 72.2237C101.105 72.0638 101.188 71.8767 101.225 71.6781L101.247 71.6905Z" fill="#368CFB"/>
<path d="M74.4272 28.1919C73.7748 28.1919 73.246 27.6755 73.246 27.0384C73.246 26.4012 73.7748 25.8848 74.4272 25.8848C75.0796 25.8848 75.6084 26.4012 75.6084 27.0384C75.6084 27.6755 75.0796 28.1919 74.4272 28.1919Z" fill="#12769E"/>
<path d="M109.126 52.2134C108.474 52.2134 107.945 51.6969 107.945 51.0598C107.945 50.4227 108.474 49.9062 109.126 49.9062C109.779 49.9062 110.308 50.4227 110.308 51.0598C110.308 51.6969 109.779 52.2134 109.126 52.2134Z" fill="#12769E"/>
<path d="M104.065 7.53182C103.895 7.37903 103.686 7.27389 103.459 7.22749C103.233 7.18108 102.998 7.19512 102.78 7.26813C102.554 7.35237 102.357 7.49723 102.211 7.68604C102.066 7.87485 101.978 8.09995 101.957 8.33546L101.572 12.3913L97.9342 14.3753C97.7234 14.4876 97.5491 14.6554 97.431 14.8596C97.3129 15.0638 97.2557 15.2962 97.2658 15.5305C97.2771 15.7648 97.3553 15.9913 97.4916 16.1844C97.6279 16.3775 97.8168 16.5294 98.037 16.6229L101.893 18.2428L102.69 22.2484C102.737 22.4777 102.848 22.6898 103.011 22.8606C103.175 23.0315 103.384 23.1543 103.615 23.2153L103.949 23.2153C104.134 23.2168 104.317 23.1795 104.485 23.1058C104.654 23.0322 104.804 22.9239 104.926 22.7883L107.677 19.737L111.803 20.2267C112.05 20.2651 112.303 20.2321 112.532 20.1317C112.76 20.0313 112.953 19.8679 113.088 19.6617C113.213 19.4635 113.279 19.2353 113.279 19.0025C113.279 18.7696 113.213 18.5414 113.088 18.3432L110.98 14.8273L112.728 11.0603C112.827 10.8475 112.864 10.6119 112.833 10.38C112.803 10.1481 112.707 9.92914 112.556 9.74773C112.405 9.56632 112.205 9.42968 111.979 9.35321C111.753 9.27674 111.509 9.26347 111.276 9.31489L107.214 10.1939L104.065 7.53182ZM108.307 15.5682L109.45 17.4642L107.227 17.2006C107.02 17.1759 106.81 17.2008 106.615 17.2729C106.421 17.3451 106.247 17.4625 106.109 17.6149L104.631 19.2599L104.206 17.1127C104.168 16.9122 104.08 16.724 103.95 16.5643C103.82 16.4045 103.652 16.2781 103.461 16.196L101.417 15.3296L103.371 14.2623C103.546 14.1588 103.694 14.016 103.801 13.8456C103.908 13.6752 103.972 13.4823 103.988 13.2828L104.194 11.098L105.826 12.5922C105.979 12.7304 106.165 12.83 106.366 12.8825C106.568 12.935 106.779 12.9388 106.983 12.8936L109.168 12.4164L108.229 14.4129C108.146 14.5974 108.11 14.7987 108.124 14.9998C108.137 15.2008 108.2 15.3958 108.307 15.5682Z" fill="#368CFB"/>
<path d="M92.9201 28.5547L93.7705 31.3238" stroke="#3B5B7B" stroke-width="0.5" stroke-miterlimit="10" stroke-linecap="round"/>
<path d="M91.9264 30.3554L94.7617 29.5249" stroke="#3B5B7B" stroke-width="0.5" stroke-miterlimit="10" stroke-linecap="round"/>
<path d="M118.706 69.3476L117.136 71.7817" stroke="#3B5B7B" stroke-width="0.5" stroke-miterlimit="10" stroke-linecap="round"/>
<path d="M116.688 69.7509L119.149 71.3848" stroke="#3B5B7B" stroke-width="0.5" stroke-miterlimit="10" stroke-linecap="round"/>
<path d="M67.9053 13.8837C67.9073 14.6755 68.1442 15.449 68.5858 16.1062C69.0274 16.7635 69.6541 17.275 70.3864 17.5761C71.1188 17.8773 71.924 17.9545 72.7002 17.798C73.4764 17.6415 74.1888 17.2583 74.7473 16.6969C75.3057 16.1356 75.6852 15.4212 75.8377 14.6442C75.9901 13.8671 75.9088 13.0623 75.6038 12.3316C75.2989 11.6008 74.7841 10.9768 74.1246 10.5386C73.4651 10.1004 72.6904 9.86759 71.8985 9.86964C71.3728 9.87101 70.8524 9.97591 70.3672 10.1784C69.882 10.3808 69.4414 10.6769 69.0706 11.0496C68.6998 11.4224 68.406 11.8645 68.2061 12.3508C68.0061 12.837 67.9039 13.3579 67.9053 13.8837ZM73.8224 13.8837C73.8203 14.2637 73.7057 14.6347 73.4931 14.9497C73.2805 15.2647 72.9793 15.5096 72.6276 15.6537C72.2759 15.7977 71.8894 15.8343 71.5169 15.7589C71.1444 15.6835 70.8026 15.4994 70.5346 15.23C70.2665 14.9605 70.0843 14.6177 70.011 14.2448C69.9376 13.8719 69.9763 13.4856 70.1222 13.1347C70.2681 12.7838 70.5147 12.4839 70.8308 12.273C71.147 12.062 71.5185 11.9495 71.8985 11.9495C72.1521 11.9495 72.4031 11.9996 72.6372 12.0969C72.8713 12.1942 73.0838 12.3369 73.2626 12.5166C73.4414 12.6964 73.5829 12.9097 73.6789 13.1443C73.775 13.3789 73.8237 13.6302 73.8224 13.8837Z" fill="#5F62DE"/>
<path d="M102.603 48.5621C102.601 47.7702 102.364 46.9968 101.922 46.3395C101.481 45.6823 100.854 45.1708 100.122 44.8696C99.3895 44.5685 98.5843 44.4913 97.8081 44.6478C97.0319 44.8043 96.3195 45.1875 95.761 45.7489C95.2025 46.3102 94.8231 47.0246 94.6706 47.8016C94.5182 48.5787 94.5995 49.3835 94.9045 50.1142C95.2094 50.845 95.7242 51.469 96.3837 51.9072C97.0432 52.3454 97.8179 52.5782 98.6097 52.5761C99.1355 52.5748 99.6559 52.4699 100.141 52.2674C100.626 52.0649 101.067 51.7689 101.438 51.3962C101.809 51.0234 102.102 50.5813 102.302 50.095C102.502 49.6087 102.604 49.0879 102.603 48.5621ZM96.6859 48.5621C96.688 48.182 96.8025 47.8111 97.0152 47.4961C97.2278 47.1811 97.529 46.9362 97.8807 46.7921C98.2324 46.6481 98.6189 46.6115 98.9914 46.6869C99.3639 46.7623 99.7057 46.9463 99.9737 47.2158C100.242 47.4853 100.424 47.8281 100.497 48.201C100.571 48.5739 100.532 48.9602 100.386 49.3111C100.24 49.662 99.9936 49.9619 99.6775 50.1728C99.3613 50.3837 98.9898 50.4963 98.6097 50.4963C98.3562 50.4963 98.1052 50.4462 97.8711 50.3489C97.637 50.2516 97.4245 50.1089 97.2457 49.9292C97.0669 49.7494 96.9254 49.5361 96.8294 49.3015C96.7333 49.0669 96.6845 48.8156 96.6859 48.5621Z" fill="#5F62DE"/>
<path d="M79.0192 39.013C79.1942 39.1548 79.4049 39.2307 79.621 39.2299C79.7811 39.2317 79.9393 39.1913 80.0828 39.1119C80.2264 39.0326 80.3512 38.9166 80.4472 38.7733C80.7635 38.2139 88.3016 26.4562 86.2309 8.19189C86.1953 7.89237 86.0551 7.62083 85.841 7.43681C85.6268 7.25279 85.3562 7.17129 85.0884 7.21018C84.8228 7.25005 84.5818 7.40533 84.4177 7.64244C84.2535 7.87955 84.1793 8.17945 84.2112 8.47727C86.1799 25.8056 78.8662 37.255 78.7948 37.3806C78.7106 37.5029 78.6495 37.6431 78.6152 37.7926C78.5808 37.9422 78.5739 38.0979 78.5949 38.2505C78.6158 38.4031 78.6643 38.5494 78.7372 38.6804C78.8101 38.8115 78.9061 38.9246 79.0192 39.013Z" fill="#4AC6F8"/>
<path d="M84.3096 42.6393C84.1422 42.7794 84.0205 42.9702 83.9613 43.1854C83.902 43.4006 83.9081 43.6297 83.9787 43.8411C84.0493 44.0526 84.1809 44.236 84.3555 44.3662C84.5301 44.4965 84.739 44.5671 84.9536 44.5683C85.1879 44.5669 85.4149 44.4829 85.5977 44.3299C85.7119 44.2324 97.3665 34.7498 111.857 40.7862C111.984 40.8389 112.119 40.8651 112.256 40.8632C112.392 40.8612 112.527 40.8312 112.653 40.7749C112.778 40.7185 112.892 40.6369 112.987 40.5347C113.082 40.4325 113.157 40.3117 113.207 40.1793C113.258 40.0469 113.283 39.9055 113.281 39.763C113.279 39.6205 113.25 39.4799 113.196 39.349C113.142 39.2181 113.064 39.0997 112.966 39.0004C112.868 38.9011 112.752 38.823 112.625 38.7704C97.0237 32.2464 84.8186 42.2058 84.3096 42.6393Z" fill="#4AC6F8"/>
<path d="M63.2269 28.5459C63.3167 28.555 63.4077 28.555 63.4975 28.5459C63.7818 28.5511 64.0597 28.4816 64.2839 28.3491C64.5082 28.2166 64.6649 28.0294 64.7273 27.8192C64.8503 27.4372 67.5191 18.2978 59.2791 12.7732C59.0345 12.6089 58.7137 12.5249 58.3873 12.5398C58.061 12.5546 57.7558 12.6671 57.5389 12.8524C57.322 13.0377 57.2111 13.2807 57.2307 13.5279C57.2503 13.7751 57.3988 14.0063 57.6434 14.1707C64.7765 18.95 62.366 27.3161 62.3414 27.4C62.2989 27.5193 62.2882 27.6438 62.3098 27.7663C62.3314 27.8887 62.385 28.0067 62.4674 28.1134C62.5498 28.22 62.6594 28.3132 62.7898 28.3874C62.9202 28.4617 63.0688 28.5156 63.2269 28.5459Z" fill="#4AC6F8"/>
<path d="M95.1353 56.3641C94.9268 56.4948 94.7629 56.7107 94.6725 56.9738C94.5822 57.2368 94.5712 57.5302 94.6414 57.8021C94.7117 58.0741 94.8588 58.3072 95.0567 58.4604C95.2546 58.6136 95.4907 58.677 95.7233 58.6396C95.8329 58.6396 106.746 54.6697 111.46 62.7426C111.552 62.9007 111.675 63.0294 111.817 63.1179C111.959 63.2063 112.117 63.252 112.277 63.2509C112.483 63.2528 112.685 63.1767 112.855 63.0331C112.963 62.9413 113.054 62.8246 113.125 62.6896C113.195 62.5545 113.243 62.4039 113.265 62.2464C113.287 62.0888 113.284 61.9275 113.254 61.7717C113.225 61.6159 113.17 61.4687 113.094 61.3386C107.533 51.8738 95.6436 56.2189 95.1353 56.3641Z" fill="#4AC6F8"/>
<path d="M51 88L66.5 81C66.0924 74.8336 62.1712 68.8417 58.9091 63.9767C55.647 59.1116 49.0198 54.9281 44 53L36 73C40.6193 76.0846 48.3926 82.5741 51 88Z" fill="#21ACE3"/>
</svg>
