<svg width="144" height="108" viewBox="0 0 144 108" fill="none" xmlns="http://www.w3.org/2000/svg">
<path d="M140.727 8.81836H3.27273C1.46525 8.81836 0 10.2836 0 12.0911V95.7901C0 97.5976 1.46525 99.0628 3.27273 99.0628H140.727C142.535 99.0628 144 97.5976 144 95.7901V12.0911C144 10.2836 142.535 8.81836 140.727 8.81836Z" fill="white"/>
<path d="M144 25.1382H0V40.1789H144V25.1382Z" fill="#9DADBD"/>
<path d="M78.5789 53.2681H8.31898C7.41524 53.2681 6.68262 54.0007 6.68262 54.9044V71.686C6.68262 72.5898 7.41524 73.3224 8.31898 73.3224H78.5789C79.4826 73.3224 80.2152 72.5898 80.2152 71.686V54.9044C80.2152 54.0007 79.4826 53.2681 78.5789 53.2681Z" fill="#9DADBD" fill-opacity="0.4"/>
<path d="M132.056 50.814H98.5626C96.3032 50.814 94.4717 52.6455 94.4717 54.9049V71.6865C94.4717 73.9458 96.3032 75.7774 98.5626 75.7774H132.056C134.315 75.7774 136.147 73.9458 136.147 71.6865V54.9049C136.147 52.6455 134.315 50.814 132.056 50.814Z" fill="#9DADBD" fill-opacity="0.4" stroke="#FF6363" stroke-width="1.5"/>
</svg>
