<svg width="144" height="120" viewBox="0 0 144 120" fill="none" xmlns="http://www.w3.org/2000/svg">
<path d="M139.561 51.1949C142.169 57.7607 143.352 64.8163 143.03 71.8844C142.709 78.9526 140.89 85.8685 137.698 92.1645C132.734 102.048 124.421 109.797 114.277 113.998C106.284 117.472 97.3042 117.842 89.0578 115.037C78.9379 111.171 72.0627 103.341 60.465 103.926C50.3772 104.446 43.0845 112.698 33.4465 114.582C9.76908 119.196 -6.80829 87.1936 4.78944 67.8946C8.67677 61.3967 15.6804 55.4511 23.3908 54.8988C29.013 54.5739 34.4424 56.6207 40.0967 56.3933C44.2079 56.3378 48.2601 55.3962 51.983 53.6314C55.7058 51.8666 59.0137 49.3192 61.6858 46.159C65.6695 41.448 66.5691 35.015 70.9704 30.5964C79.9017 21.5968 93.4591 20.8495 105.25 23.0263C112.107 24.3079 118.586 27.1502 124.196 31.338C129.807 35.5259 134.402 40.9496 137.633 47.1987C138.308 48.4983 138.886 49.8303 139.561 51.1949Z" fill="#EEFBFF"/>
<path d="M60.3994 40.9263C60.3994 39.2234 59.3213 37.7072 57.7128 37.1481L36.7128 29.8481C34.1136 28.9445 31.3994 30.8745 31.3994 33.6263V105.67C31.3994 107.403 32.5151 108.939 34.1631 109.474L55.1631 116.299C57.7476 117.139 60.3994 115.213 60.3994 112.495V40.9263Z" fill="#A1DFF6"/>
<path d="M116.711 40.2002C116.711 38.4899 115.623 36.9688 114.005 36.4154L94.6937 29.8116C92.098 28.924 89.3994 30.8532 89.3994 33.5964V106.426C89.3994 108.12 90.4664 109.63 92.063 110.196L111.374 117.041C113.978 117.964 116.711 116.033 116.711 113.271V40.2002Z" fill="#4AC6F8"/>
<path d="M89.6614 33.5465C89.6614 30.8175 86.989 28.8898 84.3994 29.7508L63.1373 36.8205C61.5025 37.364 60.3994 38.8933 60.3994 40.6161V112.626C60.3994 115.307 62.9847 117.229 65.5517 116.456L86.8138 110.06C88.5042 109.551 89.6614 107.995 89.6614 106.23V33.5465Z" fill="#368CFB"/>
<g filter="url(#filter0_d_12611_136018)">
<path d="M31.5162 13C40.0859 13 47.0312 20.0437 47.0312 28.7286C47.0312 36.3151 44.2071 39.7486 32.0675 58.7694C31.7623 59.2469 31.269 59.2469 30.9617 58.7694C18.8221 39.7486 16 36.3162 16 28.7286C16.0011 20.0437 22.9464 13 31.5162 13ZM31.5162 35.647C35.2856 35.647 38.3422 32.5486 38.3422 28.7297C38.3422 24.9075 35.2856 21.8113 31.5162 21.8113C27.7467 21.8113 24.6912 24.9075 24.6912 28.7297C24.6912 32.5486 27.7467 35.647 31.5162 35.647Z" fill="#368CFB"/>
</g>
<circle cx="31.4075" cy="28.6239" r="8.18391" fill="white"/>
<path fill-rule="evenodd" clip-rule="evenodd" d="M111.384 63.001C111.936 63.001 112.384 63.4487 112.384 64.001V67.9668C112.384 68.5191 111.936 68.9668 111.384 68.9668C110.832 68.9668 110.384 68.5191 110.384 67.9668V64.001C110.384 63.4487 110.832 63.001 111.384 63.001Z" fill="white"/>
<path fill-rule="evenodd" clip-rule="evenodd" d="M108.399 65.9839C108.399 65.4316 108.847 64.9839 109.399 64.9839H113.369C113.921 64.9839 114.369 65.4316 114.369 65.9839C114.369 66.5362 113.921 66.9839 113.369 66.9839H109.399C108.847 66.9839 108.399 66.5362 108.399 65.9839Z" fill="white"/>
<path fill-rule="evenodd" clip-rule="evenodd" d="M89.3838 37.001C89.9361 37.001 90.3838 37.4487 90.3838 38.001V41.9668C90.3838 42.5191 89.9361 42.9668 89.3838 42.9668C88.8315 42.9668 88.3838 42.5191 88.3838 41.9668V38.001C88.3838 37.4487 88.8315 37.001 89.3838 37.001Z" fill="white"/>
<path fill-rule="evenodd" clip-rule="evenodd" d="M86.3994 39.9839C86.3994 39.4316 86.8471 38.9839 87.3994 38.9839H91.3685C91.9208 38.9839 92.3685 39.4316 92.3685 39.9839C92.3685 40.5362 91.9208 40.9839 91.3685 40.9839H87.3994C86.8471 40.9839 86.3994 40.5362 86.3994 39.9839Z" fill="white"/>
<path fill-rule="evenodd" clip-rule="evenodd" d="M37.3838 88.001C37.9361 88.001 38.3838 88.4487 38.3838 89.001V92.9668C38.3838 93.5191 37.9361 93.9668 37.3838 93.9668C36.8315 93.9668 36.3838 93.5191 36.3838 92.9668V89.001C36.3838 88.4487 36.8315 88.001 37.3838 88.001Z" fill="white"/>
<path fill-rule="evenodd" clip-rule="evenodd" d="M34.3994 90.9839C34.3994 90.4316 34.8471 89.9839 35.3994 89.9839H39.3685C39.9208 89.9839 40.3685 90.4316 40.3685 90.9839C40.3685 91.5362 39.9208 91.9839 39.3685 91.9839H35.3994C34.8471 91.9839 34.3994 91.5362 34.3994 90.9839Z" fill="white"/>
<circle cx="112" cy="94" r="13" fill="white"/>
<path d="M135.626 116.166L125.392 105.522C128.023 102.394 129.465 98.4585 129.465 94.3612C129.465 84.7884 121.676 77 112.103 77C102.531 77 94.7422 84.7884 94.7422 94.3612C94.7422 103.934 102.531 111.722 112.103 111.722C115.697 111.722 119.122 110.639 122.05 108.581L132.362 119.306C132.793 119.753 133.372 120 133.994 120C134.582 120 135.14 119.776 135.563 119.368C136.463 118.502 136.491 117.067 135.626 116.166ZM112.103 81.529C119.179 81.529 124.936 87.2854 124.936 94.3612C124.936 101.437 119.179 107.193 112.103 107.193C105.028 107.193 99.2712 101.437 99.2712 94.3612C99.2712 87.2854 105.028 81.529 112.103 81.529Z" fill="#368CFB"/>
<defs>
<filter id="filter0_d_12611_136018" x="1" y="0" width="61.0312" height="76.1274" filterUnits="userSpaceOnUse" color-interpolation-filters="sRGB">
<feFlood flood-opacity="0" result="BackgroundImageFix"/>
<feColorMatrix in="SourceAlpha" type="matrix" values="0 0 0 0 0 0 0 0 0 0 0 0 0 0 0 0 0 0 127 0" result="hardAlpha"/>
<feOffset dy="2"/>
<feGaussianBlur stdDeviation="7.5"/>
<feColorMatrix type="matrix" values="0 0 0 0 0.368627 0 0 0 0 0.584314 0 0 0 0 0.784314 0 0 0 0.2 0"/>
<feBlend mode="normal" in2="BackgroundImageFix" result="effect1_dropShadow_12611_136018"/>
<feBlend mode="normal" in="SourceGraphic" in2="effect1_dropShadow_12611_136018" result="shape"/>
</filter>
</defs>
</svg>
