<svg width="144" height="108" viewBox="0 0 144 108" fill="none" xmlns="http://www.w3.org/2000/svg">
<path d="M139.561 39.1949C142.169 45.7607 143.352 52.8163 143.03 59.8844C142.709 66.9526 140.89 73.8685 137.698 80.1645C132.734 90.048 124.421 97.7971 114.277 101.998C106.284 105.472 97.3042 105.842 89.0578 103.037C78.9379 99.171 72.0627 91.341 60.465 91.9258C50.3772 92.4456 43.0845 100.698 33.4465 102.582C9.76908 107.196 -6.80829 75.1936 4.78944 55.8946C8.67677 49.3967 15.6804 43.4511 23.3908 42.8987C29.013 42.5739 34.4424 44.6207 40.0967 44.3933C44.2079 44.3378 48.2601 43.3962 51.983 41.6314C55.7058 39.8666 59.0137 37.3192 61.6858 34.159C65.6695 29.448 66.5691 23.015 70.9704 18.5964C79.9017 9.59676 93.4591 8.8495 105.25 11.0263C112.107 12.3079 118.586 15.1502 124.196 19.338C129.807 23.5259 134.402 28.9496 137.633 35.1987C138.308 36.4983 138.886 37.8303 139.561 39.1949Z" fill="#EEFBFF"/>
<path d="M116.155 10C118.364 10 120.155 11.7909 120.155 14V88.0446C120.155 90.2538 118.364 92.0446 116.155 92.0446H62C59.7909 92.0446 58 90.2538 58 88.0446V14C58 11.7909 59.7909 10 62 10H116.155Z" fill="#A1DFF6"/>
<path d="M62.9727 22.4312H82.8623V28.6467H62.9727V22.4312Z" fill="#E4F8FF"/>
<path d="M115.183 41.0774H62.9727V36.105H115.183V41.0774Z" fill="#E4F8FF"/>
<path d="M115.183 53.509H62.9727V48.5366H115.183V53.509Z" fill="#E4F8FF"/>
<path d="M115.183 65.9397H62.9727V60.9673H115.183V65.9397Z" fill="#E4F8FF"/>
<path d="M106.481 78.3708H62.9727V73.3984H106.481V78.3708Z" fill="#E4F8FF"/>
<path d="M91.01 20C93.2136 20 95 21.7899 95 23.9978V98.0022C95 100.21 93.2136 102 91.01 102H36.99C34.7864 102 33 100.21 33 98.0022V23.9978C33 21.7899 34.7864 20 36.99 20H91.01Z" fill="#368CFB"/>
<path d="M63.4888 61.9945C63.6566 62.0094 63.8254 62.0094 64.0006 62.0094C64.1759 62.0094 64.3447 62.0094 64.5134 61.9945C68.4454 61.86 72.1671 60.1863 74.8768 57.3339C77.5866 54.4815 79.0673 50.6789 79.0001 46.7452C78.9328 42.8115 77.3229 39.0617 74.5173 36.3036C71.7117 33.5455 67.9349 32 64.0006 32C60.0664 32 56.2896 33.5455 53.4839 36.3036C50.6783 39.0617 49.0685 42.8115 49.0012 46.7452C48.934 50.6789 50.4147 54.4815 53.1244 57.3339C55.8341 60.1863 59.5559 61.86 63.4879 61.9945H63.4888Z" fill="#EEFBFF"/>
<path d="M72.956 59.0464V57.7216C72.9554 56.762 72.7657 55.8119 72.3979 54.9256C72.0301 54.0393 71.4914 53.234 70.8124 52.5559C70.1334 51.8778 69.3275 51.3401 68.4407 50.9734C67.5539 50.6067 66.6036 50.4183 65.644 50.4189H62.3651C60.4278 50.4192 58.5699 51.1888 57.1999 52.5586C55.8299 53.9284 55.0601 55.7862 55.0596 57.7235V59.0483C57.501 60.8739 60.4452 61.9038 63.4922 61.9981H64.5177C67.5669 61.9044 70.5132 60.8738 72.956 59.0464Z" fill="#4AC6F8"/>
<path d="M69.8846 44.5649C69.8887 43.4024 69.5477 42.2648 68.9047 41.2962C68.2618 40.3276 67.3459 39.5716 66.2731 39.1239C65.2002 38.6762 64.0186 38.557 62.8779 38.7813C61.7372 39.0056 60.6887 39.5633 59.8653 40.3839C59.0418 41.2045 58.4804 42.2511 58.2521 43.391C58.0238 44.5309 58.1389 45.7129 58.5828 46.7873C59.0268 47.8617 59.7796 48.7803 60.7459 49.4266C61.7122 50.0729 62.8486 50.4179 64.0111 50.4179C65.5661 50.4203 67.0584 49.8051 68.1598 48.7075C69.2612 47.61 69.8817 46.1198 69.8846 44.5649Z" fill="#4AC6F8"/>
<path d="M80 73H48V70H80V73Z" fill="#E4F8FF"/>
<path d="M80 80H48V77H80V80Z" fill="#E4F8FF"/>
<path d="M80 87H48V84H80V87Z" fill="#E4F8FF"/>
<path fill-rule="evenodd" clip-rule="evenodd" d="M16.8467 77.0015C17.399 77.0015 17.8467 77.4492 17.8467 78.0015V81.9673C17.8467 82.5195 17.399 82.9673 16.8467 82.9673C16.2944 82.9673 15.8467 82.5195 15.8467 81.9673V78.0015C15.8467 77.4492 16.2944 77.0015 16.8467 77.0015Z" fill="#21ACE3"/>
<path fill-rule="evenodd" clip-rule="evenodd" d="M13.8711 79.9844C13.8711 79.4321 14.3188 78.9844 14.8711 78.9844H18.8213C19.3736 78.9844 19.8213 79.4321 19.8213 79.9844C19.8213 80.5367 19.3736 80.9844 18.8213 80.9844H14.8711C14.3188 80.9844 13.8711 80.5367 13.8711 79.9844Z" fill="#21ACE3"/>
<path fill-rule="evenodd" clip-rule="evenodd" d="M127.976 53C128.528 53 128.976 53.4477 128.976 54V57.9658C128.976 58.5181 128.528 58.9658 127.976 58.9658C127.423 58.9658 126.976 58.5181 126.976 57.9658V54C126.976 53.4477 127.423 53 127.976 53Z" fill="#21ACE3"/>
<path fill-rule="evenodd" clip-rule="evenodd" d="M125 55.9829C125 55.4306 125.448 54.9829 126 54.9829H129.95C130.503 54.9829 130.95 55.4306 130.95 55.9829C130.95 56.5352 130.503 56.9829 129.95 56.9829H126C125.448 56.9829 125 56.5352 125 55.9829Z" fill="#21ACE3"/>
<path d="M121.771 75.6045H88.4622C87.1482 75.6045 86.083 76.7029 86.083 78.0579V105.045C86.083 106.4 87.1482 107.498 88.4622 107.498H121.771C123.085 107.498 124.15 106.4 124.15 105.045V78.0579C124.15 76.7029 123.085 75.6045 121.771 75.6045Z" fill="#3B5B7B"/>
<path d="M117.981 77.6631H113.008V68.1979C113.008 65.6875 111.96 63.28 110.095 61.5049C108.23 59.7298 105.7 58.7326 103.063 58.7326C100.425 58.7326 97.8953 59.7298 96.0301 61.5049C94.165 63.28 93.1172 65.6875 93.1172 68.1979V77.6631H88.1445V68.1979C88.1445 64.4323 89.7162 60.8211 92.5139 58.1585C95.3116 55.4958 99.1061 54 103.063 54C107.019 54 110.814 55.4958 113.611 58.1585C116.409 60.8211 117.981 64.4323 117.981 68.1979V77.6631Z" fill="#3B5B7B"/>
<path d="M119.652 75.6045H85.4435C84.094 75.6045 83 76.7029 83 78.0579V105.045C83 106.4 84.094 107.498 85.4435 107.498H119.652C121.002 107.498 122.096 106.4 122.096 105.045V78.0579C122.096 76.7029 121.002 75.6045 119.652 75.6045Z" fill="#A1DFF6"/>
<mask id="mask0_15274_181859" style="mask-type:alpha" maskUnits="userSpaceOnUse" x="97" y="83" width="11" height="18">
<path d="M107.131 88.7099C107.131 87.8559 106.907 87.0168 106.481 86.277C106.055 85.5371 105.441 84.9225 104.702 84.4951C103.962 84.0676 103.124 83.8423 102.27 83.8418C101.416 83.8413 100.577 84.0657 99.8371 84.4923C99.0973 84.919 98.483 85.5328 98.0558 86.2722C97.6285 87.0116 97.4035 87.8505 97.4033 88.7044C97.4031 89.5583 97.6278 90.3973 98.0547 91.1369C98.4815 91.8765 99.0956 92.4906 99.8352 92.9176V100.869H104.699V92.9176C105.438 92.4916 106.052 91.8784 106.479 91.1397C106.906 90.4011 107.131 89.563 107.131 88.7099Z" fill="#368CFB"/>
</mask>
<g mask="url(#mask0_15274_181859)">
<path d="M107.131 88.7099C107.131 87.8559 106.907 87.0168 106.481 86.277C106.055 85.5371 105.441 84.9225 104.702 84.4951C103.962 84.0676 103.124 83.8423 102.27 83.8418C101.416 83.8413 100.577 84.0657 99.8371 84.4923C99.0973 84.919 98.483 85.5328 98.0558 86.2722C97.6285 87.0116 97.4035 87.8505 97.4033 88.7044C97.4031 89.5583 97.6278 90.3973 98.0547 91.1369C98.4815 91.8765 99.0956 92.4906 99.8352 92.9176V100.869H104.699V92.9176C105.438 92.4916 106.052 91.8784 106.479 91.1397C106.906 90.4011 107.131 89.563 107.131 88.7099Z" fill="#368CFB"/>
</g>
</svg>
