<svg width="144" height="108" viewBox="0 0 144 108" fill="none" xmlns="http://www.w3.org/2000/svg">
<path d="M139.561 39.1949C142.169 45.7607 143.352 52.8163 143.03 59.8844C142.709 66.9526 140.89 73.8685 137.698 80.1645C132.734 90.048 124.421 97.7971 114.277 101.998C106.284 105.472 97.3042 105.842 89.0578 103.037C78.9379 99.171 72.0627 91.341 60.465 91.9258C50.3772 92.4456 43.0845 100.698 33.4465 102.582C9.76908 107.196 -6.80829 75.1936 4.78944 55.8946C8.67677 49.3967 15.6804 43.4511 23.3908 42.8988C29.013 42.5739 34.4424 44.6207 40.0967 44.3933C44.2079 44.3378 48.2601 43.3962 51.983 41.6314C55.7058 39.8666 59.0137 37.3192 61.6858 34.159C65.6695 29.448 66.5691 23.015 70.9704 18.5964C79.9017 9.59676 93.4591 8.8495 105.25 11.0263C112.107 12.3079 118.586 15.1502 124.196 19.338C129.807 23.5259 134.402 28.9496 137.633 35.1987C138.308 36.4983 138.886 37.8303 139.561 39.1949Z" fill="#EEFBFF"/>
<path d="M116.155 -1.74846e-07C118.364 -7.8281e-08 120.155 1.79086 120.155 4L120.155 78.0446C120.155 80.2538 118.364 82.0446 116.155 82.0446L62.0002 82.0446C59.7911 82.0446 58.0002 80.2538 58.0002 78.0446L58.0002 4C58.0002 1.79086 59.7911 -2.6386e-06 62.0002 -2.54204e-06L116.155 -1.74846e-07Z" fill="#A1DFF6"/>
<path d="M62.9727 12.4312H82.8623V18.6467H62.9727V12.4312Z" fill="#E4F8FF"/>
<path d="M115.183 31.0776L62.9724 31.0776L62.9724 26.1052L115.183 26.1052L115.183 31.0776Z" fill="#E4F8FF"/>
<path d="M115.183 43.5088L62.9724 43.5088L62.9724 38.5364L115.183 38.5364L115.183 43.5088Z" fill="#E4F8FF"/>
<path d="M115.183 55.9399L62.9724 55.9399L62.9724 50.9675L115.183 50.9675L115.183 55.9399Z" fill="#E4F8FF"/>
<path d="M106.481 68.3706L62.9729 68.3706L62.9729 63.3982L106.481 63.3982L106.481 68.3706Z" fill="#E4F8FF"/>
<path d="M85.1543 25.8623C87.3634 25.8623 89.1543 27.6532 89.1543 29.8623L89.1543 103.907C89.1543 106.116 87.3634 107.907 85.1543 107.907L30.9993 107.907C28.7901 107.907 26.9993 106.116 26.9993 103.907L26.9993 29.8623C26.9993 27.6532 28.7901 25.8623 30.9993 25.8623L85.1543 25.8623Z" fill="#368CFB"/>
<path d="M31.9717 38.2935H51.8613V44.509H31.9717V38.2935Z" fill="#4AC6F8"/>
<path d="M84.1816 56.9395L31.9714 56.9394L31.9714 51.9671L84.1816 51.9671L84.1816 56.9395Z" fill="white"/>
<path d="M84.1816 69.3706L31.9714 69.3706L31.9714 64.3982L84.1816 64.3982L84.1816 69.3706Z" fill="white"/>
<path d="M84.1816 81.8022L31.9714 81.8022L31.9714 76.8298L84.1816 76.8298L84.1816 81.8022Z" fill="white"/>
<path d="M75.4805 94.2334L31.9719 94.2334L31.9719 89.261L75.4805 89.261L75.4805 94.2334Z" fill="white"/>
<path fill-rule="evenodd" clip-rule="evenodd" d="M16.8467 77.0015C17.399 77.0015 17.8467 77.4492 17.8467 78.0015V81.9673C17.8467 82.5195 17.399 82.9673 16.8467 82.9673C16.2944 82.9673 15.8467 82.5195 15.8467 81.9673V78.0015C15.8467 77.4492 16.2944 77.0015 16.8467 77.0015Z" fill="#21ACE3"/>
<path fill-rule="evenodd" clip-rule="evenodd" d="M13.8711 79.9844C13.8711 79.4321 14.3188 78.9844 14.8711 78.9844H18.8213C19.3736 78.9844 19.8213 79.4321 19.8213 79.9844C19.8213 80.5367 19.3736 80.9844 18.8213 80.9844H14.8711C14.3188 80.9844 13.8711 80.5367 13.8711 79.9844Z" fill="#21ACE3"/>
<path fill-rule="evenodd" clip-rule="evenodd" d="M127.976 53C128.528 53 128.976 53.4477 128.976 54V57.9658C128.976 58.5181 128.528 58.9658 127.976 58.9658C127.423 58.9658 126.976 58.5181 126.976 57.9658V54C126.976 53.4477 127.423 53 127.976 53Z" fill="#21ACE3"/>
<path fill-rule="evenodd" clip-rule="evenodd" d="M125 55.9829C125 55.4306 125.448 54.9829 126 54.9829H129.95C130.503 54.9829 130.95 55.4306 130.95 55.9829C130.95 56.5352 130.503 56.9829 129.95 56.9829H126C125.448 56.9829 125 56.5352 125 55.9829Z" fill="#21ACE3"/>
</svg>
