<svg width="144" height="108" viewBox="0 0 144 108" fill="none" xmlns="http://www.w3.org/2000/svg">
<path d="M139.561 39.1949C142.169 45.7607 143.352 52.8163 143.03 59.8844C142.709 66.9526 140.89 73.8685 137.698 80.1645C132.734 90.048 124.421 97.7971 114.277 101.998C106.284 105.472 97.3042 105.842 89.0578 103.037C78.9379 99.171 72.0627 91.341 60.465 91.9258C50.3772 92.4456 43.0845 100.698 33.4465 102.582C9.76908 107.196 -6.80829 75.1936 4.78944 55.8946C8.67677 49.3967 15.6804 43.4511 23.3908 42.8988C29.013 42.5739 34.4424 44.6207 40.0967 44.3933C44.2079 44.3378 48.2601 43.3962 51.983 41.6314C55.7058 39.8666 59.0137 37.3192 61.6858 34.159C65.6695 29.448 66.5691 23.015 70.9704 18.5964C79.9017 9.59676 93.4591 8.8495 105.25 11.0263C112.107 12.3079 118.586 15.1502 124.196 19.338C129.807 23.5259 134.402 28.9496 137.633 35.1987C138.308 36.4983 138.886 37.8303 139.561 39.1949Z" fill="#EEFBFF"/>
<path fill-rule="evenodd" clip-rule="evenodd" d="M13.8467 74.0015C14.399 74.0015 14.8467 74.4492 14.8467 75.0015V78.9673C14.8467 79.5195 14.399 79.9673 13.8467 79.9673C13.2944 79.9673 12.8467 79.5195 12.8467 78.9673V75.0015C12.8467 74.4492 13.2944 74.0015 13.8467 74.0015Z" fill="#21ACE3"/>
<path fill-rule="evenodd" clip-rule="evenodd" d="M10.8711 76.9844C10.8711 76.4321 11.3188 75.9844 11.8711 75.9844H15.8213C16.3736 75.9844 16.8213 76.4321 16.8213 76.9844C16.8213 77.5367 16.3736 77.9844 15.8213 77.9844H11.8711C11.3188 77.9844 10.8711 77.5367 10.8711 76.9844Z" fill="#21ACE3"/>
<path fill-rule="evenodd" clip-rule="evenodd" d="M130.289 50.0015C130.841 50.0015 131.289 50.4492 131.289 51.0015V54.9673C131.289 55.5195 130.841 55.9673 130.289 55.9673C129.737 55.9673 129.289 55.5195 129.289 54.9673V51.0015C129.289 50.4492 129.737 50.0015 130.289 50.0015Z" fill="#21ACE3"/>
<path fill-rule="evenodd" clip-rule="evenodd" d="M127.313 52.9844C127.313 52.4321 127.761 51.9844 128.313 51.9844H132.264C132.816 51.9844 133.264 52.4321 133.264 52.9844C133.264 53.5367 132.816 53.9844 132.264 53.9844H128.313C127.761 53.9844 127.313 53.5367 127.313 52.9844Z" fill="#21ACE3"/>
<path d="M73.7726 42.8384C72.9521 42.8416 72.1649 42.5085 71.5943 41.9168L65.9995 36.1147C65.4292 35.5233 64.6425 35.1903 63.8224 35.1931L43 35.265C41.3431 35.2708 40.0094 36.6185 40.021 38.2753L40.4651 101.806C40.4767 103.463 41.8292 104.801 43.4861 104.795L117.246 104.54C118.903 104.535 120.237 103.187 120.225 101.53L119.834 45.6621C119.823 44.0049 118.47 42.6662 116.812 42.6726L73.7726 42.8384Z" fill="#4AC6F8"/>
<path fill-rule="evenodd" clip-rule="evenodd" d="M54.5403 23.7645L54.5406 23.7641C54.5405 23.7642 54.5404 23.7642 54.5403 23.7642C54.5403 23.7643 54.5402 23.7643 54.5401 23.7643C54.5401 23.7644 54.5401 23.7645 54.5401 23.7645C54.54 23.7646 54.54 23.7647 54.5399 23.7648L54.5403 23.7645L54.5572 26.1829C54.5611 26.7352 54.1165 27.1844 53.5642 27.1863C53.012 27.1882 52.5611 26.7421 52.5573 26.1898L52.5403 23.7714C52.5385 23.5021 52.5904 23.2426 52.6871 23.0051C52.7911 22.7498 52.9888 22.5611 53.2245 22.4624C53.3207 22.2257 53.5073 22.026 53.7616 21.9194C53.9981 21.8202 54.257 21.7655 54.5264 21.7646L57.0729 21.7558C57.6252 21.7539 58.076 22.2 58.0799 22.7523C58.0837 23.3046 57.6391 23.7538 57.0869 23.7557L54.5403 23.7645ZM61.1729 22.7416C61.169 22.1893 61.6136 21.7401 62.1659 21.7382L67.259 21.7206C67.8112 21.7187 68.2621 22.1648 68.2659 22.7171C68.2698 23.2694 67.8252 23.7186 67.2729 23.7205L62.1799 23.7381C61.6276 23.74 61.1768 23.2939 61.1729 22.7416ZM71.359 22.7064C71.3551 22.1541 71.7997 21.7049 72.352 21.703L77.445 21.6854C77.9973 21.6835 78.4482 22.1296 78.452 22.6819C78.4559 23.2342 78.0113 23.6834 77.459 23.6853L72.366 23.7029C71.8137 23.7048 71.3628 23.2587 71.359 22.7064ZM81.5451 22.6712C81.5412 22.1189 81.9858 21.6697 82.5381 21.6678L87.6311 21.6502C88.1834 21.6483 88.6342 22.0944 88.6381 22.6467C88.642 23.199 88.1974 23.6482 87.6451 23.6501L82.552 23.6677C81.9998 23.6696 81.5489 23.2235 81.5451 22.6712ZM91.7311 22.636C91.7273 22.0838 92.1719 21.6345 92.7241 21.6326L97.8172 21.615C98.3695 21.6131 98.8203 22.0592 98.8242 22.6115C98.828 23.1638 98.3834 23.613 97.8312 23.6149L92.7381 23.6325C92.1858 23.6345 91.735 23.1883 91.7311 22.636ZM101.917 22.6008C101.913 22.0486 102.358 21.5993 102.91 21.5974L105.457 21.5886C105.726 21.5877 105.986 21.6406 106.224 21.7381C106.479 21.843 106.669 22.0413 106.768 22.2774C107.005 22.3744 107.206 22.5617 107.313 22.8163C107.413 23.0532 107.469 23.3123 107.471 23.5816L107.488 26C107.491 26.5523 107.047 27.0015 106.495 27.0034C105.942 27.0053 105.491 26.5592 105.488 26.0069L105.471 23.5886L105.471 23.5888C105.471 23.5887 105.471 23.5886 105.471 23.5886C105.471 23.5885 105.471 23.5884 105.471 23.5884C105.471 23.5883 105.471 23.5883 105.471 23.5883C105.471 23.5882 105.471 23.5882 105.47 23.5882L105.471 23.5886L102.924 23.5974C102.372 23.5993 101.921 23.1531 101.917 22.6008ZM106.514 29.8402C107.067 29.8383 107.518 30.2845 107.521 30.8367L107.555 35.6735C107.559 36.2257 107.115 36.675 106.562 36.6769C106.01 36.6788 105.559 36.2327 105.555 35.6804L105.521 30.8437C105.518 30.2914 105.962 29.8421 106.514 29.8402ZM53.5841 30.0231C54.1364 30.0212 54.5872 30.4674 54.5911 31.0196L54.6249 35.8564C54.6287 36.4086 54.1841 36.8579 53.6319 36.8598C53.0796 36.8617 52.6287 36.4155 52.6249 35.8633L52.5911 31.0265C52.5872 30.4743 53.0318 30.025 53.5841 30.0231ZM106.582 39.5137C107.134 39.5118 107.585 39.9579 107.589 40.5102L107.623 45.3469C107.627 45.8992 107.182 46.3485 106.63 46.3504C106.078 46.3523 105.627 45.9061 105.623 45.3538L105.589 40.5171C105.585 39.9648 106.03 39.5156 106.582 39.5137ZM53.6517 39.6966C54.204 39.6947 54.6548 40.1408 54.6587 40.6931L54.6925 45.5298C54.6964 46.0821 54.2518 46.5314 53.6995 46.5333C53.1472 46.5352 52.6964 46.089 52.6925 45.5367L52.6587 40.7C52.6548 40.1477 53.0994 39.6985 53.6517 39.6966ZM106.65 49.1871C107.202 49.1852 107.653 49.6314 107.657 50.1837L107.69 55.0204C107.694 55.5727 107.25 56.0219 106.697 56.0238C106.145 56.0257 105.694 55.5796 105.69 55.0273L105.657 50.1906C105.653 49.6383 106.097 49.189 106.65 49.1871ZM53.7193 49.37C54.2716 49.3681 54.7224 49.8143 54.7263 50.3666L54.7601 55.2033C54.764 55.7556 54.3194 56.2048 53.7671 56.2067C53.2148 56.2086 52.764 55.7625 52.7601 55.2102L52.7263 50.3735C52.7225 49.8212 53.167 49.3719 53.7193 49.37ZM106.717 58.8606C107.27 58.8587 107.72 59.3049 107.724 59.8571L107.758 64.6939C107.762 65.2461 107.317 65.6954 106.765 65.6973C106.213 65.6992 105.762 65.253 105.758 64.7008L105.724 59.864C105.72 59.3118 106.165 58.8625 106.717 58.8606ZM53.7869 59.0435C54.3392 59.0416 54.7901 59.4877 54.7939 60.04L54.8277 64.8767C54.8316 65.429 54.387 65.8783 53.8347 65.8802C53.2825 65.8821 52.8316 65.4359 52.8278 64.8837L52.7939 60.0469C52.7901 59.4947 53.2347 59.0454 53.7869 59.0435ZM106.785 68.5341C107.337 68.5321 107.788 68.9783 107.792 69.5306L107.826 74.3673C107.83 74.9196 107.385 75.3688 106.833 75.3707C106.28 75.3727 105.83 74.9265 105.826 74.3742L105.792 69.5375C105.788 68.9852 106.233 68.536 106.785 68.5341ZM53.8546 68.717C54.4069 68.715 54.8577 69.1612 54.8616 69.7135L54.8954 74.5502C54.8992 75.1025 54.4546 75.5517 53.9024 75.5536C53.3501 75.5555 52.8992 75.1094 52.8954 74.5571L52.8616 69.7204C52.8577 69.1681 53.3023 68.7189 53.8546 68.717ZM106.853 78.2075C107.405 78.2056 107.856 78.6518 107.86 79.204L107.893 84.0408C107.897 84.593 107.453 85.0423 106.9 85.0442C106.348 85.0461 105.897 84.6 105.893 84.0477L105.86 79.211C105.856 78.6587 106.3 78.2094 106.853 78.2075ZM53.9222 78.3904C54.4745 78.3885 54.9253 78.8347 54.9292 79.3869L54.963 84.2237C54.9669 84.7759 54.5223 85.2252 53.97 85.2271C53.4177 85.229 52.9669 84.7828 52.963 84.2306L52.9292 79.3938C52.9253 78.8416 53.3699 78.3923 53.9222 78.3904ZM106.92 87.881C107.472 87.8791 107.923 88.3252 107.927 88.8775L107.944 91.2959C107.946 91.5652 107.894 91.8247 107.797 92.0622C107.693 92.3176 107.496 92.5063 107.26 92.6049C107.164 92.8416 106.977 93.0413 106.723 93.1479C106.486 93.2471 106.227 93.3018 105.958 93.3027L103.412 93.3115C102.859 93.3134 102.408 92.8673 102.405 92.315C102.401 91.7627 102.845 91.3135 103.398 91.3116L105.944 91.3028L105.944 91.3032C105.944 91.3032 105.944 91.3031 105.944 91.3031C105.944 91.303 105.944 91.303 105.944 91.303C105.944 91.3029 105.944 91.3029 105.944 91.3028C105.944 91.3027 105.944 91.3026 105.944 91.3025L105.944 91.3028L105.927 88.8844C105.923 88.3321 106.368 87.8829 106.92 87.881ZM53.9898 88.0639C54.5421 88.062 54.9929 88.5081 54.9968 89.0604L55.0137 91.4788L55.0133 91.4785C55.0134 91.4786 55.0134 91.4787 55.0134 91.4788C55.0135 91.4788 55.0135 91.4789 55.0135 91.479C55.0136 91.479 55.0136 91.479 55.0137 91.4791C55.0138 91.4791 55.0139 91.4791 55.014 91.4792L55.0137 91.4788L57.5602 91.47C58.1125 91.4681 58.5633 91.9142 58.5672 92.4665C58.5711 93.0188 58.1265 93.468 57.5742 93.4699L55.0277 93.4787C54.7584 93.4796 54.4987 93.4268 54.2608 93.3292C54.0051 93.2244 53.8157 93.026 53.7161 92.79C53.4791 92.6929 53.2787 92.5056 53.1712 92.251C53.0712 92.0141 53.0156 91.755 53.0137 91.4857L52.9968 89.0673C52.993 88.515 53.4375 88.0658 53.9898 88.0639ZM61.6603 92.4558C61.6564 91.9035 62.101 91.4543 62.6533 91.4524L67.7463 91.4348C68.2986 91.4329 68.7494 91.879 68.7533 92.4313C68.7571 92.9836 68.3126 93.4328 67.7603 93.4347L62.6672 93.4523C62.115 93.4542 61.6641 93.0081 61.6603 92.4558ZM71.8463 92.4206C71.8425 91.8683 72.2871 91.4191 72.8393 91.4172L77.9324 91.3996C78.4847 91.3977 78.9355 91.8438 78.9394 92.3961C78.9432 92.9484 78.4986 93.3976 77.9464 93.3995L72.8533 93.4171C72.301 93.419 71.8502 92.9729 71.8463 92.4206ZM82.0324 92.3854C82.0286 91.8331 82.4731 91.3839 83.0254 91.382L88.1185 91.3644C88.6707 91.3625 89.1216 91.8086 89.1254 92.3609C89.1293 92.9132 88.6847 93.3624 88.1324 93.3643L83.0394 93.3819C82.4871 93.3838 82.0363 92.9377 82.0324 92.3854ZM92.2185 92.3502C92.2146 91.7979 92.6592 91.3487 93.2115 91.3468L98.3045 91.3292C98.8568 91.3273 99.3077 91.7734 99.3115 92.3257C99.3154 92.878 98.8708 93.3272 98.3185 93.3291L93.2255 93.3467C92.6732 93.3486 92.2224 92.9025 92.2185 92.3502Z" fill="#368CFB"/>
<path d="M22.7175 80.7914C21.2686 78.8075 22.6776 76.0254 25.1303 76.0275L100.315 76.0915C101.274 76.0924 102.177 76.5517 102.743 77.3276L119.471 100.231C120.92 102.215 119.511 104.997 117.058 104.995L41.8736 104.931C40.9144 104.93 40.0119 104.471 39.4453 103.695L22.7175 80.7914Z" fill="#A1DFF6"/>
</svg>
