<svg width="144" height="108" viewBox="0 0 144 108" fill="none" xmlns="http://www.w3.org/2000/svg">
<path fill-rule="evenodd" clip-rule="evenodd" d="M99.5039 1.89278C99.5632 1.06647 100.281 0.444653 101.107 0.503906L111.107 1.22099C111.931 1.28009 112.553 1.99452 112.497 2.81886L111.73 14.1018C111.674 14.9283 110.958 15.5528 110.132 15.4966C109.305 15.4404 108.681 14.7249 108.737 13.8984L109.402 4.10642L100.893 3.49622C100.066 3.43697 99.4447 2.71908 99.5039 1.89278Z" fill="#368CFB"/>
<path fill-rule="evenodd" clip-rule="evenodd" d="M112.141 2.02573C112.679 2.65561 112.604 3.60244 111.974 4.14053L82.8897 28.9867C82.8889 28.9874 82.8881 28.9881 82.8872 28.9888C81.1293 30.5008 78.8528 31.2611 76.5435 31.1033C74.2332 30.9454 72.0791 29.8816 70.54 28.1441L70.5384 28.1423C69.5925 27.0709 68.2951 26.3867 66.89 26.2135C65.4851 26.0403 64.0645 26.3893 62.8934 27.1979L62.8897 27.2005L27.8486 51.237C27.1655 51.7056 26.2318 51.5317 25.7632 50.8485C25.2946 50.1654 25.4685 49.2317 26.1516 48.7631L61.1889 24.7291C61.1896 24.7287 61.1902 24.7282 61.1909 24.7278C62.9645 23.5039 65.1211 22.9727 67.2571 23.236C69.3933 23.4993 71.3584 24.5387 72.7865 26.1558C72.7868 26.1561 72.7871 26.1564 72.7874 26.1567L71.6629 27.1495L72.7858 26.1549C72.786 26.1552 72.7863 26.1555 72.7865 26.1558C73.8064 27.3067 75.2286 28.0065 76.748 28.1103C78.2677 28.2141 79.7696 27.714 80.9326 26.713L80.9369 26.7093L110.026 1.85953C110.656 1.32144 111.603 1.39585 112.141 2.02573Z" fill="#368CFB"/>
<path d="M48.8516 73.833H35.1882C33.9803 73.833 32.8219 74.313 31.9678 75.1673C31.1136 76.0217 30.6338 77.1804 30.6338 78.3886V104.583H53.4061V78.3886C53.4061 77.1804 52.9262 76.0217 52.0721 75.1673C51.218 74.313 50.0595 73.833 48.8516 73.833Z" fill="#A1DFF6"/>
<path d="M80.7325 55.6104H67.0691C65.8612 55.6104 64.7027 56.0903 63.8486 56.9447C62.9945 57.799 62.5146 58.9577 62.5146 60.166V104.583H85.2869V60.166C85.2869 58.9577 84.8071 57.799 83.953 56.9447C83.0988 56.0903 81.9404 55.6104 80.7325 55.6104Z" fill="#368CFB"/>
<path d="M112.614 38.5269H98.9509C97.743 38.5269 96.5846 39.0068 95.7305 39.8612C94.8763 40.7155 94.3965 41.8742 94.3965 43.0825V104.583H117.169V43.0825C117.169 41.8742 116.689 40.7155 115.835 39.8612C114.981 39.0068 113.822 38.5269 112.614 38.5269Z" fill="#4AC6F8"/>
<path d="M26.079 103.444H121.723C122.327 103.444 122.906 103.684 123.333 104.111C123.76 104.539 124 105.118 124 105.722C124 106.326 123.76 106.906 123.333 107.333C122.906 107.76 122.327 108 121.723 108H26.079C25.475 108 24.8958 107.76 24.4687 107.333C24.0417 106.906 23.8018 106.326 23.8018 105.722C23.8018 105.118 24.0417 104.539 24.4687 104.111C24.8958 103.684 25.475 103.444 26.079 103.444Z" fill="#368CFB"/>
<path fill-rule="evenodd" clip-rule="evenodd" d="M53.4746 8.54199C54.0269 8.54199 54.4746 8.98971 54.4746 9.54199V14.3026C54.4746 14.8549 54.0269 15.3026 53.4746 15.3026C52.9223 15.3026 52.4746 14.8549 52.4746 14.3026V9.54199C52.4746 8.98971 52.9223 8.54199 53.4746 8.54199Z" fill="#21ACE3"/>
<path fill-rule="evenodd" clip-rule="evenodd" d="M50.1289 11.9219C50.1289 11.3696 50.5766 10.9219 51.1289 10.9219H55.8542C56.4064 10.9219 56.8542 11.3696 56.8542 11.9219C56.8542 12.4742 56.4064 12.9219 55.8542 12.9219H51.1289C50.5766 12.9219 50.1289 12.4742 50.1289 11.9219Z" fill="#21ACE3"/>
<path fill-rule="evenodd" clip-rule="evenodd" d="M12.5068 72.1836C13.0591 72.1836 13.5068 72.6313 13.5068 73.1836V77.9442C13.5068 78.4965 13.0591 78.9442 12.5068 78.9442C11.9546 78.9442 11.5068 78.4965 11.5068 77.9442V73.1836C11.5068 72.6313 11.9546 72.1836 12.5068 72.1836Z" fill="#21ACE3"/>
<path fill-rule="evenodd" clip-rule="evenodd" d="M9.13867 75.564C9.13867 75.0117 9.58639 74.564 10.1387 74.564H14.8753C15.4276 74.564 15.8753 75.0117 15.8753 75.564C15.8753 76.1162 15.4276 76.564 14.8753 76.564H10.1387C9.58639 76.564 9.13867 76.1162 9.13867 75.564Z" fill="#21ACE3"/>
</svg>
