<svg width="144" height="108" viewBox="0 0 144 108" fill="none" xmlns="http://www.w3.org/2000/svg">
<path d="M140.431 36.2252C143.074 42.7977 144.273 49.8606 143.948 56.9361C143.622 64.0116 141.779 70.9347 138.543 77.2371C133.512 87.1309 125.087 94.888 114.806 99.0928C106.705 102.571 97.6042 102.941 89.2464 100.134C78.9899 96.2633 72.022 88.4252 60.2677 89.0106C50.0438 89.531 42.6526 97.7919 32.8844 99.6783C8.88745 104.297 -7.9137 72.2611 3.8406 52.9422C7.7804 46.4375 14.8786 40.4857 22.693 39.9328C28.3911 39.6076 33.8938 41.6566 39.6244 41.4289C43.7911 41.3734 47.8981 40.4308 51.6712 38.6642C55.4443 36.8975 58.7968 34.3474 61.505 31.184C65.5425 26.4681 66.4542 20.0285 70.915 15.6053C79.9667 6.59634 93.7072 5.84831 105.657 8.02737C112.607 9.31027 119.173 12.1555 124.859 16.3477C130.545 20.5399 135.202 25.9693 138.478 32.2248C139.161 33.5257 139.748 34.8592 140.431 36.2252Z" fill="#EEFBFF"/>
<path fill-rule="evenodd" clip-rule="evenodd" d="M16.8467 74.0015C17.399 74.0015 17.8467 74.4492 17.8467 75.0015V78.9673C17.8467 79.5195 17.399 79.9673 16.8467 79.9673C16.2944 79.9673 15.8467 79.5195 15.8467 78.9673V75.0015C15.8467 74.4492 16.2944 74.0015 16.8467 74.0015Z" fill="#21ACE3"/>
<path fill-rule="evenodd" clip-rule="evenodd" d="M13.8711 76.9844C13.8711 76.4321 14.3188 75.9844 14.8711 75.9844H18.8213C19.3736 75.9844 19.8213 76.4321 19.8213 76.9844C19.8213 77.5367 19.3736 77.9844 18.8213 77.9844H14.8711C14.3188 77.9844 13.8711 77.5367 13.8711 76.9844Z" fill="#21ACE3"/>
<path fill-rule="evenodd" clip-rule="evenodd" d="M127.976 50C128.528 50 128.976 50.4477 128.976 51V54.9658C128.976 55.5181 128.528 55.9658 127.976 55.9658C127.423 55.9658 126.976 55.5181 126.976 54.9658V51C126.976 50.4477 127.423 50 127.976 50Z" fill="#21ACE3"/>
<path fill-rule="evenodd" clip-rule="evenodd" d="M125 52.9829C125 52.4306 125.448 51.9829 126 51.9829H129.95C130.503 51.9829 130.95 52.4306 130.95 52.9829C130.95 53.5352 130.503 53.9829 129.95 53.9829H126C125.448 53.9829 125 53.5352 125 52.9829Z" fill="#21ACE3"/>
<path fill-rule="evenodd" clip-rule="evenodd" d="M94.8023 8.23083C94.8546 7.5006 95.4891 6.95109 96.2193 7.00345L105.056 7.63716C105.785 7.68938 106.334 8.32074 106.284 9.04923L105.607 19.0202C105.557 19.7506 104.925 20.3025 104.194 20.2528C103.464 20.2032 102.912 19.5708 102.962 18.8404L103.55 10.1871L96.0297 9.64783C95.2994 9.59546 94.7499 8.96105 94.8023 8.23083Z" fill="#368CFB"/>
<path fill-rule="evenodd" clip-rule="evenodd" d="M105.969 8.34839C106.445 8.90503 106.379 9.74176 105.823 10.2173L80.1199 32.1743C80.1191 32.175 80.1184 32.1756 80.1176 32.1763C78.5642 33.5124 76.5523 34.1843 74.5115 34.0449C72.4699 33.9053 70.5662 32.9652 69.2062 31.4297L69.2047 31.4281C68.3688 30.4813 67.2222 29.8767 65.9806 29.7236C64.739 29.5706 63.4836 29.879 62.4487 30.5936L62.4454 30.5958L31.4789 51.8374C30.8751 52.2515 30.05 52.0978 29.6359 51.4941C29.2218 50.8904 29.3755 50.0653 29.9792 49.6512L60.9424 28.4118C60.943 28.4115 60.9435 28.4111 60.9441 28.4107C62.5115 27.3291 64.4173 26.8597 66.3049 27.0924C68.1927 27.3251 69.9294 28.2436 71.1914 29.6727C71.1917 29.6729 71.1919 29.6732 71.1922 29.6735L70.1985 30.5508L71.1907 29.6719C71.191 29.6721 71.1912 29.6724 71.1914 29.6727C72.0927 30.6898 73.3496 31.3081 74.6923 31.3999C76.0353 31.4916 77.3625 31.0497 78.3903 30.165L78.3941 30.1618L104.101 8.20151C104.657 7.72599 105.494 7.79175 105.969 8.34839Z" fill="#368CFB"/>
<path d="M50.0399 71.8062H37.9653C36.8978 71.8062 35.8741 72.2303 35.1193 72.9853C34.3645 73.7403 33.9404 74.7643 33.9404 75.832V98.9809H54.0648V75.832C54.0648 74.7643 53.6407 73.7403 52.8859 72.9853C52.1311 72.2303 51.1074 71.8062 50.0399 71.8062Z" fill="#A1DFF6"/>
<path d="M78.2128 55.7021H66.1381C65.0707 55.7021 64.0469 56.1263 63.2921 56.8813C62.5373 57.6363 62.1133 58.6603 62.1133 59.728V98.9805H82.2376V59.728C82.2376 58.6603 81.8136 57.6363 81.0588 56.8813C80.304 56.1263 79.2802 55.7021 78.2128 55.7021Z" fill="#368CFB"/>
<path d="M106.388 40.605H94.313C93.2455 40.605 92.2217 41.0291 91.4669 41.7841C90.7121 42.5391 90.2881 43.5631 90.2881 44.6309V98.9804H110.412V44.6309C110.412 43.5631 109.988 42.5391 109.234 41.7841C108.479 41.0291 107.455 40.605 106.388 40.605Z" fill="#4AC6F8"/>
<path d="M29.9148 97.9741H114.437C114.971 97.9741 115.483 98.1862 115.86 98.5637C116.237 98.9412 116.449 99.4532 116.449 99.9871C116.449 100.521 116.237 101.033 115.86 101.41C115.483 101.788 114.971 102 114.437 102H29.9148C29.381 102 28.8692 101.788 28.4918 101.41C28.1144 101.033 27.9023 100.521 27.9023 99.9871C27.9023 99.4532 28.1144 98.9412 28.4918 98.5637C28.8692 98.1862 29.381 97.9741 29.9148 97.9741Z" fill="#368CFB"/>
</svg>
