<svg width="144" height="108" viewBox="0 0 144 108" fill="none" xmlns="http://www.w3.org/2000/svg">
<path d="M18.5319 9H112.802C115.314 8.99987 117.724 10.0144 119.509 11.8232C121.293 13.6319 122.309 16.0887 122.334 18.6594V86.2267C122.334 88.8145 121.33 91.2962 119.542 93.126C117.754 94.9558 115.33 95.9837 112.802 95.9837H18.5319C16.0039 95.9837 13.5794 94.9558 11.7918 93.126C10.0042 91.2962 9 88.8145 9 86.2267V18.757C9 16.1693 10.0042 13.6876 11.7918 11.8578C13.5794 10.028 16.0039 9 18.5319 9Z" fill="#3B5B7B"/>
<path d="M76 52.1768H23V55.1768H76V52.1768Z" fill="white"/>
<path d="M25.3446 64.8291H22.627V82.7736H25.3446V64.8291Z" fill="white"/>
<path d="M29.4213 64.8281H28.0625V82.7726H29.4213V64.8281Z" fill="white"/>
<path d="M34.8582 64.8281H32.1406V82.7726H34.8582V64.8281Z" fill="white"/>
<path d="M40.2928 64.8281H37.5752V82.7726H40.2928V64.8281Z" fill="white"/>
<path d="M44.3676 64.8281H43.0088V82.7726H44.3676V64.8281Z" fill="white"/>
<path d="M49.8026 64.8281H47.085V82.7726H49.8026V64.8281Z" fill="white"/>
<path d="M55.2381 64.8281H52.5205V82.7726H55.2381V64.8281Z" fill="white"/>
<path d="M59.3149 64.8281H57.9561V82.7726H59.3149V64.8281Z" fill="white"/>
<path d="M64.7498 64.8281H62.0322V82.7726H64.7498V64.8281Z" fill="white"/>
<path d="M69.7498 64.8281H67.0322V82.7726H69.7498V64.8281Z" fill="white"/>
<path d="M75.1844 64.8281H72.4668V82.7726H75.1844V64.8281Z" fill="white"/>
<path d="M126 27.1763H9V35.1763H126V27.1763Z" fill="white"/>
<path d="M115.06 98.1661C124.474 98.1661 132.106 90.3492 132.106 80.7066C132.106 71.064 124.474 63.2471 115.06 63.2471C105.646 63.2471 98.0146 71.064 98.0146 80.7066C98.0146 90.3492 105.646 98.1661 115.06 98.1661Z" fill="white"/>
<path fill-rule="evenodd" clip-rule="evenodd" d="M115.061 61.3071C104.618 61.3071 96.1211 70.0093 96.1211 80.7066C96.1211 91.404 104.618 100.106 115.061 100.106C125.504 100.106 134 91.404 134 80.7066C134 70.0093 125.504 61.3071 115.061 61.3071ZM124.169 82.1987H116.521V90.4062C116.521 91.2299 115.868 91.8984 115.064 91.8984C114.259 91.8984 113.607 91.2299 113.607 90.4062V82.1987H105.958C105.154 82.1987 104.501 81.5301 104.501 80.7064C104.501 79.8827 105.154 79.2141 105.958 79.2141H113.607V71.7528C113.607 70.9291 114.259 70.2605 115.064 70.2605C115.868 70.2605 116.521 70.9291 116.521 71.7528V79.2141H124.169C124.973 79.2141 125.626 79.8827 125.626 80.7064C125.626 81.5301 124.973 82.1987 124.169 82.1987Z" fill="#21ACE3"/>
</svg>
