<svg width="144" height="108" viewBox="0 0 144 108" fill="none" xmlns="http://www.w3.org/2000/svg">
<path d="M140.432 34.1892C143.075 40.8436 144.274 47.9945 143.948 55.158C143.622 62.3216 141.779 69.3309 138.544 75.7119C133.513 85.7288 125.087 93.5825 114.806 97.8401C106.705 101.361 97.6044 101.736 89.2467 98.8932C78.9901 94.975 72.0221 87.0393 60.2678 87.632C50.0438 88.1588 42.6527 96.5226 32.8846 98.432C8.88747 103.108 -7.91371 70.6739 3.8406 51.1143C7.78041 44.5287 14.8786 38.5028 22.6931 37.943C28.3912 37.6138 33.8939 39.6882 39.6245 39.4577C43.7912 39.4015 47.8982 38.4472 51.6713 36.6586C55.4444 34.8699 58.7969 32.2881 61.5051 29.0853C65.5426 24.3107 66.4543 17.7908 70.9151 13.3126C79.9669 4.19142 93.7074 3.43407 105.657 5.64026C112.607 6.93916 119.174 9.81983 124.859 14.0642C130.546 18.3086 135.203 23.8055 138.478 30.139C139.162 31.4561 139.748 32.8061 140.432 34.1892Z" fill="#EEFBFF"/>
<path fill-rule="evenodd" clip-rule="evenodd" d="M6.66487 65.6128C7.22463 65.6128 7.67837 66.0665 7.67837 66.6263V70.6456C7.67837 71.2053 7.22463 71.6591 6.66487 71.6591C6.10511 71.6591 5.65137 71.2053 5.65137 70.6456V66.6263C5.65137 66.0665 6.10511 65.6128 6.66487 65.6128Z" fill="#21ACE3"/>
<path fill-rule="evenodd" clip-rule="evenodd" d="M3.64941 68.6356C3.64941 68.0758 4.10316 67.6221 4.66292 67.6221H8.66645C9.2262 67.6221 9.67995 68.0758 9.67995 68.6356C9.67995 69.1953 9.2262 69.6491 8.66645 69.6491H4.66292C4.10316 69.6491 3.64941 69.1953 3.64941 68.6356Z" fill="#21ACE3"/>
<path fill-rule="evenodd" clip-rule="evenodd" d="M129.703 53.6528C130.262 53.6528 130.716 54.1066 130.716 54.6663V58.6857C130.716 59.2454 130.262 59.6992 129.703 59.6992C129.142 59.6992 128.689 59.2454 128.689 58.6857V54.6663C128.689 54.1066 129.142 53.6528 129.703 53.6528Z" fill="#21ACE3"/>
<path fill-rule="evenodd" clip-rule="evenodd" d="M126.688 56.6756C126.688 56.1159 127.142 55.6621 127.701 55.6621H131.704C132.265 55.6621 132.718 56.1159 132.718 56.6756C132.718 57.2354 132.265 57.6891 131.704 57.6891H127.701C127.142 57.6891 126.688 57.2354 126.688 56.6756Z" fill="#21ACE3"/>
<path fill-rule="evenodd" clip-rule="evenodd" d="M98.6893 11.6948C99.2487 11.6948 99.7028 12.1486 99.7028 12.7083V16.7277C99.7028 17.2874 99.2487 17.7412 98.6893 17.7412C98.1288 17.7412 97.6758 17.2874 97.6758 16.7277V12.7083C97.6758 12.1486 98.1288 11.6948 98.6893 11.6948Z" fill="#21ACE3"/>
<path fill-rule="evenodd" clip-rule="evenodd" d="M95.6738 14.7176C95.6738 14.1578 96.1279 13.7041 96.6873 13.7041H100.691C101.251 13.7041 101.704 14.1578 101.704 14.7176C101.704 15.2774 101.251 15.7311 100.691 15.7311H96.6873C96.1279 15.7311 95.6738 15.2774 95.6738 14.7176Z" fill="#21ACE3"/>
<path d="M102.858 25.4775H28.1586C22.6819 25.4775 18.2422 29.9142 18.2422 35.3871V76.0573C18.2422 81.5302 22.6819 85.9668 28.1586 85.9668H102.858C108.334 85.9668 112.774 81.5302 112.774 76.0573V35.3871C112.774 29.9142 108.334 25.4775 102.858 25.4775Z" fill="#368CFB"/>
<path d="M45.4426 72.6919C45.6328 72.7088 45.824 72.7088 46.0226 72.7088C46.2212 72.7088 46.4124 72.7088 46.6037 72.6919C51.0592 72.5397 55.2765 70.6448 58.3471 67.4157C61.4176 64.1866 63.0955 59.8816 63.0193 55.4283C62.9431 50.975 61.1189 46.7298 57.9397 43.6074C54.7605 40.485 50.4807 38.7354 46.0226 38.7354C41.5645 38.7354 37.2848 40.485 34.1056 43.6074C30.9263 46.7298 29.1021 50.975 29.0259 55.4283C28.9497 59.8816 30.6276 64.1866 33.6982 67.4157C36.7687 70.6448 40.986 72.5397 45.4416 72.6919H45.4426Z" fill="#EEFBFF"/>
<path d="M56.2155 69.9546V68.4512C56.2148 67.3621 55.9995 66.2839 55.5818 65.278C55.1641 64.2721 54.5522 63.3583 53.7811 62.5888C53.01 61.8192 52.0947 61.2089 51.0876 60.7928C50.0804 60.3767 49.0011 60.1629 47.9113 60.1636H44.1875C41.9873 60.1639 39.8773 61.0373 38.3214 62.5918C36.7655 64.1463 35.8912 66.2547 35.8906 68.4533V69.9567C38.6633 72.0286 42.007 73.1974 45.4676 73.3044H46.6323C50.0952 73.198 53.4413 72.0284 56.2155 69.9546Z" fill="#4AC6F8"/>
<path d="M52.6662 52.2348C52.6708 50.9155 52.2835 49.6245 51.5533 48.5253C50.8232 47.426 49.783 46.5681 48.5645 46.06C47.3461 45.5519 46.0041 45.4166 44.7086 45.6712C43.4132 45.9257 42.2224 46.5587 41.2872 47.49C40.352 48.4212 39.7144 49.6089 39.4551 50.9025C39.1958 52.1962 39.3265 53.5376 39.8307 54.7569C40.3349 55.9763 41.1899 57.0187 42.2873 57.7521C43.3848 58.4856 44.6754 58.8771 45.9957 58.8771C47.7616 58.8799 49.4564 58.1818 50.7073 56.9362C51.9582 55.6905 52.6628 53.9995 52.6662 52.2348Z" fill="#4AC6F8"/>
<path d="M99.7841 45.938C100.35 45.938 100.892 45.7429 101.292 45.3957C101.692 45.0484 101.917 44.5775 101.917 44.0864C101.917 43.5954 101.692 43.1244 101.292 42.7772C100.892 42.4299 100.35 42.2349 99.7841 42.2349H72.3623C71.7966 42.2349 71.2542 42.4299 70.8542 42.7772C70.4542 43.1244 70.2295 43.5954 70.2295 44.0864C70.2295 44.5775 70.4542 45.0484 70.8542 45.3957C71.2542 45.7429 71.7966 45.938 72.3623 45.938H99.7841Z" fill="white"/>
<path d="M99.7841 57.2251C100.35 57.2251 100.892 57.03 101.292 56.6828C101.692 56.3355 101.917 55.8646 101.917 55.3735C101.917 54.8825 101.692 54.4115 101.292 54.0643C100.892 53.717 100.35 53.522 99.7841 53.522H72.3623C71.7966 53.522 71.2542 53.717 70.8542 54.0643C70.4542 54.4115 70.2295 54.8825 70.2295 55.3735C70.2295 55.8646 70.4542 56.3355 70.8542 56.6828C71.2542 57.03 71.7966 57.2251 72.3623 57.2251H99.7841Z" fill="white"/>
<path d="M99.7841 68.5083C100.35 68.5083 100.892 68.3132 101.292 67.966C101.692 67.6188 101.917 67.1478 101.917 66.6567C101.917 66.1657 101.692 65.6947 101.292 65.3475C100.892 65.0002 100.35 64.8052 99.7841 64.8052H72.3623C71.7966 64.8052 71.2542 65.0002 70.8542 65.3475C70.4542 65.6947 70.2295 66.1657 70.2295 66.6567C70.2295 67.1478 70.4542 67.6188 70.8542 67.966C71.2542 68.3132 71.7966 68.5083 72.3623 68.5083H99.7841Z" fill="white"/>
<path d="M101.297 103.657C96.3838 103.657 91.5799 102.187 87.4948 99.4323C83.4095 96.6779 80.2254 92.7635 78.3451 88.1833C76.4649 83.603 75.9729 78.563 76.9314 73.7005C77.89 68.8382 80.2559 64.3718 83.7303 60.8662C87.2045 57.3606 91.6315 54.9733 96.4508 54.0061C101.269 53.0389 106.264 53.5352 110.804 55.4325C115.343 57.3297 119.223 60.5425 121.953 64.6647C124.683 68.7867 126.14 73.6332 126.14 78.5907C126.131 85.2365 123.512 91.6079 118.854 96.3069C114.198 101.007 107.883 103.65 101.297 103.657ZM101.297 59.7911C97.612 59.7911 94.0098 60.8936 90.9449 62.9593C87.8814 65.0251 85.4934 67.9612 84.083 71.3964C82.6728 74.8316 82.3038 78.6117 83.0227 82.2584C83.7416 85.9053 85.5157 89.255 88.1214 91.8842C90.7271 94.5134 94.0474 96.3041 97.6622 97.0293C101.276 97.7545 105.022 97.3822 108.427 95.9596C111.831 94.5365 114.741 92.127 116.789 89.0353C118.836 85.9438 119.929 82.309 119.929 78.5907C119.923 73.6065 117.958 68.8279 114.465 65.3035C110.973 61.7792 106.236 59.7967 101.297 59.7911Z" fill="#96DBB0"/>
<path d="M101.295 98.2844C112.075 98.2844 120.815 89.4667 120.815 78.5895C120.815 67.7124 112.075 58.8945 101.295 58.8945C90.515 58.8945 81.7764 67.7124 81.7764 78.5895C81.7764 89.4667 90.515 98.2844 101.295 98.2844Z" fill="white"/>
<path fill-rule="evenodd" clip-rule="evenodd" d="M110.646 71.6367C111.427 72.4883 111.37 73.8116 110.518 74.5924L98.3723 85.7202L98.3542 85.736C97.9196 86.1163 97.3776 86.2997 96.8502 86.2997C96.3329 86.2997 95.8009 86.1232 95.3701 85.7566C95.0168 85.4594 94.0258 84.6249 93.0814 83.824C92.1871 83.0655 91.1912 82.2174 90.963 81.9922C90.1405 81.1802 90.1324 79.8557 90.945 79.0337C91.7576 78.2118 93.0831 78.2037 93.9056 79.0157C93.9006 79.0107 93.9025 79.0124 93.9138 79.0226C93.9326 79.0396 93.9777 79.0803 94.0604 79.1529C94.1735 79.2521 94.3238 79.3823 94.5029 79.5362C94.8603 79.8435 95.318 80.2331 95.7907 80.634C96.131 80.9226 96.4776 81.2157 96.7979 81.4862L107.688 71.5086C108.54 70.7277 109.864 70.7851 110.646 71.6367Z" fill="#24C08B"/>
</svg>
