<svg width="144" height="108" viewBox="0 0 144 108" fill="none" xmlns="http://www.w3.org/2000/svg">
<path d="M139.561 39.1949C142.169 45.7607 143.352 52.8163 143.03 59.8844C142.709 66.9526 140.89 73.8685 137.698 80.1645C132.734 90.048 124.421 97.7971 114.277 101.998C106.284 105.472 97.3042 105.842 89.0578 103.037C78.9379 99.171 72.0627 91.341 60.465 91.9258C50.3772 92.4456 43.0845 100.698 33.4465 102.582C9.76908 107.196 -6.8083 75.1936 4.78944 55.8946C8.67677 49.3967 15.6804 43.4511 23.3908 42.8988C29.013 42.5739 34.4424 44.6207 40.0967 44.3933C44.2079 44.3378 48.2601 43.3962 51.983 41.6314C55.7058 39.8666 59.0137 37.3191 61.6858 34.159C65.6695 29.448 66.5691 23.015 70.9704 18.5964C79.9017 9.59676 93.4591 8.8495 105.25 11.0263C112.107 12.3079 118.586 15.1502 124.196 19.338C129.807 23.5259 134.402 28.9496 137.633 35.1987C138.308 36.4983 138.886 37.8303 139.561 39.1949Z" fill="#EEFBFF"/>
<path d="M109.825 44.2051H44.974C42.4157 44.2051 40.3418 46.3046 40.3418 48.8945V100.478C40.3418 103.068 42.4157 105.167 44.974 105.167H109.825C112.383 105.167 114.457 103.068 114.457 100.478V48.8945C114.457 46.3046 112.383 44.2051 109.825 44.2051Z" fill="#3B5B7B"/>
<path d="M100.657 48.8939H91.3923V30.1363C91.3923 25.1615 89.4402 20.3904 85.9653 16.8727C82.4905 13.355 77.7776 11.3788 72.8635 11.3788C67.9494 11.3788 63.2365 13.355 59.7617 16.8727C56.2868 20.3904 54.3347 25.1615 54.3347 30.1363V48.8939H45.0703V30.1363C45.0703 22.6741 47.9985 15.5175 53.2108 10.2409C58.423 4.96435 65.4923 2 72.8635 2C80.2347 2 87.304 4.96435 92.5163 10.2409C97.7285 15.5175 100.657 22.6741 100.657 30.1363V48.8939Z" fill="#3B5B7B"/>
<path d="M105.29 44.2051H40.4388C37.8805 44.2051 35.8066 46.3046 35.8066 48.8945V100.478C35.8066 103.068 37.8805 105.167 40.4388 105.167H105.29C107.848 105.167 109.922 103.068 109.922 100.478V48.8945C109.922 46.3046 107.848 44.2051 105.29 44.2051Z" fill="#A1DFF6"/>
<mask id="mask0_12611_136170" style="mask-type:alpha" maskUnits="userSpaceOnUse" x="63" y="58" width="20" height="34">
<path d="M82.1294 67.6509C82.1308 66.0042 81.704 64.3862 80.8918 62.9595C80.0796 61.5327 78.9107 60.3477 77.5026 59.5234C76.0945 58.6991 74.4968 58.2646 72.8702 58.2637C71.2436 58.2627 69.6454 58.6954 68.2364 59.5181C66.8274 60.3408 65.6571 61.5245 64.8433 62.9503C64.0296 64.3761 63.601 65.9937 63.6006 67.6403C63.6002 69.287 64.0281 70.9048 64.8413 72.3309C65.6544 73.7571 66.8241 74.9414 68.2328 75.7647V91.0978H77.4972V75.7647C78.9051 74.9432 80.0745 73.7607 80.8876 72.3364C81.7008 70.912 82.1291 69.296 82.1294 67.6509Z" fill="#368CFB"/>
</mask>
<g mask="url(#mask0_12611_136170)">
<path d="M82.1294 67.6509C82.1308 66.0042 81.704 64.3862 80.8918 62.9595C80.0796 61.5327 78.9107 60.3477 77.5026 59.5234C76.0945 58.6991 74.4968 58.2646 72.8702 58.2637C71.2436 58.2627 69.6454 58.6954 68.2364 59.5181C66.8274 60.3408 65.6571 61.5245 64.8433 62.9503C64.0296 64.3761 63.601 65.9937 63.6006 67.6403C63.6002 69.287 64.0281 70.9048 64.8413 72.3309C65.6544 73.7571 66.8241 74.9414 68.2328 75.7647V91.0978H77.4972V75.7647C78.9051 74.9432 80.0745 73.7607 80.8876 72.3364C81.7008 70.912 82.1291 69.296 82.1294 67.6509Z" fill="#368CFB"/>
</g>
<path fill-rule="evenodd" clip-rule="evenodd" d="M19.8467 77.0015C20.399 77.0015 20.8467 77.4492 20.8467 78.0015V81.9673C20.8467 82.5195 20.399 82.9673 19.8467 82.9673C19.2944 82.9673 18.8467 82.5195 18.8467 81.9673V78.0015C18.8467 77.4492 19.2944 77.0015 19.8467 77.0015Z" fill="#21ACE3"/>
<path fill-rule="evenodd" clip-rule="evenodd" d="M16.8711 79.9844C16.8711 79.4321 17.3188 78.9844 17.8711 78.9844H21.8213C22.3736 78.9844 22.8213 79.4321 22.8213 79.9844C22.8213 80.5367 22.3736 80.9844 21.8213 80.9844H17.8711C17.3188 80.9844 16.8711 80.5367 16.8711 79.9844Z" fill="#21ACE3"/>
<path fill-rule="evenodd" clip-rule="evenodd" d="M130.976 53C131.528 53 131.976 53.4477 131.976 54V57.9658C131.976 58.5181 131.528 58.9658 130.976 58.9658C130.423 58.9658 129.976 58.5181 129.976 57.9658V54C129.976 53.4477 130.423 53 130.976 53Z" fill="#21ACE3"/>
<path fill-rule="evenodd" clip-rule="evenodd" d="M128 55.9829C128 55.4306 128.448 54.9829 129 54.9829H132.95C133.503 54.9829 133.95 55.4306 133.95 55.9829C133.95 56.5352 133.503 56.9829 132.95 56.9829H129C128.448 56.9829 128 56.5352 128 55.9829Z" fill="#21ACE3"/>
<path d="M111.452 107.553C107.932 107.553 104.49 106.499 101.563 104.524C98.6359 102.549 96.3545 99.7423 95.0073 96.4581C93.6601 93.174 93.3076 89.5602 93.9944 86.0737C94.6812 82.5873 96.3764 79.3847 98.8658 76.8712C101.355 74.3576 104.527 72.6458 107.979 71.9523C111.432 71.2588 115.011 71.6147 118.264 72.9751C121.516 74.3354 124.296 76.6391 126.252 79.5947C128.208 82.5504 129.252 86.0253 129.252 89.5801C129.246 94.3452 127.369 98.9137 124.032 102.283C120.696 105.653 116.171 107.548 111.452 107.553ZM111.452 76.1002C108.812 76.1002 106.231 76.8908 104.035 78.372C101.84 79.8532 100.129 81.9585 99.1185 84.4216C98.1081 86.8847 97.8437 89.5951 98.3588 92.2099C98.8739 94.8247 100.145 97.2266 102.012 99.1118C103.879 100.997 106.258 102.281 108.848 102.801C111.437 103.321 114.121 103.054 116.561 102.034C119 101.014 121.085 99.2859 122.552 97.0691C124.019 94.8524 124.802 92.2462 124.802 89.5801C124.798 86.0063 123.39 82.5799 120.887 80.0528C118.385 77.5257 114.991 76.1042 111.452 76.1002Z" fill="#4AC6F8"/>
<path d="M111.451 103.701C119.175 103.701 125.437 97.3785 125.437 89.5793C125.437 81.78 119.175 75.4575 111.451 75.4575C103.727 75.4575 97.4658 81.78 97.4658 89.5793C97.4658 97.3785 103.727 103.701 111.451 103.701Z" fill="white"/>
<path fill-rule="evenodd" clip-rule="evenodd" d="M118.498 84.9868C119.058 85.5974 119.016 86.5462 118.406 87.1061L109.704 95.085L109.691 95.0963C109.379 95.369 108.991 95.5005 108.613 95.5005C108.243 95.5005 107.861 95.3739 107.553 95.1111C107.3 94.898 106.59 94.2996 105.913 93.7253C105.272 93.1815 104.559 92.5734 104.395 92.4119C103.806 91.8297 103.8 90.88 104.382 90.2906C104.964 89.7013 105.914 89.6955 106.503 90.2777C106.5 90.2741 106.501 90.2754 106.509 90.2827C106.523 90.2949 106.555 90.324 106.614 90.3761C106.695 90.4472 106.803 90.5405 106.931 90.6509C107.187 90.8712 107.515 91.1506 107.854 91.438C108.098 91.645 108.346 91.8551 108.576 92.0491L116.378 84.8949C116.989 84.335 117.938 84.3762 118.498 84.9868Z" fill="#4AC6F8"/>
</svg>
