<svg width="144" height="108" viewBox="0 0 144 108" fill="none" xmlns="http://www.w3.org/2000/svg">
<path d="M139.561 38.1949C142.169 44.7607 143.352 51.8163 143.03 58.8844C142.709 65.9526 140.89 72.8685 137.698 79.1645C132.734 89.048 124.421 96.7971 114.277 100.998C106.284 104.472 97.3042 104.842 89.0578 102.037C78.9379 98.171 72.0627 90.341 60.465 90.9258C50.3772 91.4456 43.0845 99.698 33.4465 101.582C9.76908 106.196 -6.80829 74.1936 4.78944 54.8946C8.67677 48.3967 15.6804 42.4511 23.3908 41.8988C29.013 41.5739 34.4424 43.6207 40.0967 43.3933C44.2079 43.3378 48.2601 42.3962 51.983 40.6314C55.7058 38.8666 59.0137 36.3192 61.6858 33.159C65.6695 28.448 66.5691 22.015 70.9704 17.5964C79.9017 8.59676 93.4591 7.8495 105.25 10.0263C112.107 11.3079 118.586 14.1502 124.196 18.338C129.807 22.5259 134.402 27.9496 137.633 34.1987C138.308 35.4983 138.886 36.8303 139.561 38.1949Z" fill="#EEFBFF"/>
<path d="M102.533 47.2496H92.4078V28.3498C92.4078 23.3372 90.2743 18.53 86.4767 14.9856C82.6792 11.4411 77.5285 9.44992 72.1579 9.44992C66.7874 9.44992 61.6367 11.4411 57.8392 14.9856C54.0416 18.53 51.9081 23.3372 51.9081 28.3498V47.2496H41.7832V28.3498C41.7832 20.8309 44.9834 13.6201 50.6798 8.30345C56.3761 2.98684 64.1021 0 72.1579 0C80.2138 0 87.9398 2.98684 93.6361 8.30345C99.3325 13.6201 102.533 20.8309 102.533 28.3498V47.2496Z" fill="#3B5B7B"/>
<path d="M104.64 40.5005H39.6718C37.1089 40.5005 35.0312 42.8251 35.0312 45.6928V102.808C35.0312 105.675 37.1089 108 39.6718 108H104.64C107.203 108 109.281 105.675 109.281 102.808V45.6928C109.281 42.8251 107.203 40.5005 104.64 40.5005Z" fill="#368CFB"/>
<mask id="mask0_12611_135800" style="mask-type:alpha" maskUnits="userSpaceOnUse" x="62" y="60" width="21" height="35">
<path d="M82.2811 70.3985C82.2827 68.7059 81.8162 67.0427 80.9286 65.5762C80.041 64.1097 78.7635 62.8916 77.2245 62.0443C75.6856 61.197 73.9395 60.7505 72.1619 60.7495C70.3842 60.7486 68.6376 61.1933 67.0977 62.0389C65.5577 62.8845 64.2788 64.1013 63.3894 65.5668C62.5001 67.0324 62.0317 68.695 62.0313 70.3876C62.0308 72.0802 62.4985 73.7431 63.3872 75.209C64.2758 76.6749 65.5542 77.8922 67.0937 78.7385V94.4992H77.2186V78.7385C78.7573 77.8941 80.0353 76.6787 80.924 75.2146C81.8127 73.7506 82.2808 72.0895 82.2811 70.3985Z" fill="#E4F8FF"/>
</mask>
<g mask="url(#mask0_12611_135800)">
<path d="M82.2811 70.3985C82.2827 68.7059 81.8162 67.0427 80.9286 65.5762C80.041 64.1097 78.7635 62.8916 77.2245 62.0443C75.6856 61.197 73.9395 60.7505 72.1619 60.7495C70.3842 60.7486 68.6376 61.1933 67.0977 62.0389C65.5577 62.8845 64.2788 64.1013 63.3894 65.5668C62.5001 67.0324 62.0317 68.695 62.0313 70.3876C62.0308 72.0802 62.4985 73.7431 63.3872 75.209C64.2758 76.6749 65.5542 77.8922 67.0937 78.7385V94.4992H77.2186V78.7385C78.7573 77.8941 80.0353 76.6787 80.924 75.2146C81.8127 73.7506 82.2808 72.0895 82.2811 70.3985Z" fill="#E4F8FF"/>
</g>
</svg>
