<svg width="144" height="108" viewBox="0 0 144 108" fill="none" xmlns="http://www.w3.org/2000/svg">
<path d="M139.561 37.1949C142.169 43.7607 143.352 50.8163 143.03 57.8844C142.709 64.9526 140.89 71.8685 137.698 78.1645C132.734 88.048 124.421 95.7971 114.277 99.9976C106.284 103.472 97.3042 103.842 89.0578 101.037C78.9379 97.171 72.0627 89.341 60.465 89.9258C50.3772 90.4456 43.0845 98.698 33.4465 100.582C9.76908 105.196 -6.8083 73.1936 4.78944 53.8946C8.67677 47.3967 15.6804 41.4511 23.3908 40.8988C29.013 40.5739 34.4424 42.6207 40.0967 42.3933C44.2079 42.3378 48.2601 41.3962 51.983 39.6314C55.7058 37.8666 59.0137 35.3191 61.6858 32.159C65.6695 27.448 66.5691 21.015 70.9704 16.5964C79.9017 7.59676 93.4591 6.8495 105.25 9.02631C112.107 10.3079 118.586 13.1502 124.196 17.338C129.807 21.5259 134.402 26.9496 137.633 33.1987C138.308 34.4983 138.886 35.8303 139.561 37.1949Z" fill="#EEFBFF"/>
<path d="M39.3623 46.061H44.636V73.1828H39.3623V46.061Z" fill="#368CFB"/>
<path fill-rule="evenodd" clip-rule="evenodd" d="M38.6084 45.3086H45.3888V73.9371H38.6084V45.3086ZM39.3618 46.062V73.1837H44.6355V46.062H39.3618Z" fill="#368CFB"/>
<path d="M55.1816 46.061H60.4553V73.1828H55.1816V46.061Z" fill="#368CFB"/>
<path fill-rule="evenodd" clip-rule="evenodd" d="M54.4277 45.3086H61.2082V73.9371H54.4277V45.3086ZM55.1811 46.062V73.1837H60.4548V46.062H55.1811Z" fill="#368CFB"/>
<path d="M70.249 46.061H75.5227V73.1828H70.249V46.061Z" fill="#368CFB"/>
<path fill-rule="evenodd" clip-rule="evenodd" d="M69.4971 45.3086H76.2775V73.9371H69.4971V45.3086ZM70.2505 46.062V73.1837H75.5241V46.062H70.2505Z" fill="#368CFB"/>
<path d="M35.5938 73.1494H47.6479V76.1629H35.5938V73.1494Z" fill="#A1DFF6"/>
<path d="M51.416 73.1494H63.4701V76.1629H51.416V73.1494Z" fill="#A1DFF6"/>
<path d="M66.4834 73.1494H78.5375V76.1629H66.4834V73.1494Z" fill="#A1DFF6"/>
<path d="M35.5938 42.6929H47.6479V45.7064H35.5938V42.6929Z" fill="#A1DFF6"/>
<path d="M85.3174 46.061H90.5911V73.1828H85.3174V46.061Z" fill="#368CFB"/>
<path fill-rule="evenodd" clip-rule="evenodd" d="M84.5645 45.3086H91.3449V73.9371H84.5645V45.3086ZM85.3178 46.062V73.1837H90.5915V46.062H85.3178Z" fill="#368CFB"/>
<path d="M51.416 42.6929H63.4701V45.7064H51.416V42.6929Z" fill="#A1DFF6"/>
<path d="M97.0719 76.1362C98.3201 76.1362 99.332 77.1481 99.332 78.3964L99.332 82.8344C99.332 84.0826 98.3201 85.0945 97.0719 85.0945L31.8004 85.0945C30.5522 85.0945 29.5403 84.0826 29.5403 82.8344L29.5403 78.3964C29.5403 77.1481 30.5522 76.1362 31.8004 76.1362L97.0719 76.1362Z" fill="#368CFB"/>
<path d="M66.4834 42.6929H78.5375V45.7064H66.4834V42.6929Z" fill="#A1DFF6"/>
<path d="M100.05 38.5114H29.2645C27.0883 38.5114 26.1693 35.7375 27.9151 34.4381L62.836 8.44707C63.6284 7.85732 64.7119 7.85043 65.5117 8.43004L101.376 34.4211C103.15 35.7067 102.241 38.5114 100.05 38.5114Z" fill="#368CFB"/>
<path d="M81.5508 42.6929H93.6049V45.7064H81.5508V42.6929Z" fill="#A1DFF6"/>
<path d="M29.543 40.601C29.543 39.4466 30.4788 38.5107 31.6332 38.5107H97.2445C98.3989 38.5107 99.3347 39.4466 99.3347 40.601C99.3347 41.7554 98.3989 42.6913 97.2445 42.6913H31.6332C30.4788 42.6913 29.543 41.7554 29.543 40.601Z" fill="#21ACE3"/>
<path d="M69.4412 24.1632C69.4412 26.637 67.4551 28.6424 65.0052 28.6424C62.5554 28.6424 60.5693 26.637 60.5693 24.1632C60.5693 21.6895 62.5554 19.6841 65.0052 19.6841C67.4551 19.6841 69.4412 21.6895 69.4412 24.1632Z" fill="white"/>
<path d="M70.4441 57C68.542 57 67 58.542 67 60.4441V86.5559C67 88.458 68.542 90 70.4441 90H113.404C115.306 90 116.848 88.458 116.848 86.5559V60.4441C116.848 58.542 115.306 57 113.404 57H70.4441Z" fill="#368CFB" stroke="#EEFBFF" stroke-width="2"/>
<path d="M72.043 63.3921H82.1517V66.7617H72.043V63.3921Z" fill="#4AC6F8"/>
<path d="M68 76.1948H115.848V80.9122H68V76.1948Z" fill="white"/>
<path fill-rule="evenodd" clip-rule="evenodd" d="M13.9756 71C14.5279 71 14.9756 71.4477 14.9756 72V75.9658C14.9756 76.5181 14.5279 76.9658 13.9756 76.9658C13.4233 76.9658 12.9756 76.5181 12.9756 75.9658V72C12.9756 71.4477 13.4233 71 13.9756 71Z" fill="#21ACE3"/>
<path fill-rule="evenodd" clip-rule="evenodd" d="M11 73.9829C11 73.4306 11.4477 72.9829 12 72.9829H15.9502C16.5025 72.9829 16.9502 73.4306 16.9502 73.9829C16.9502 74.5352 16.5025 74.9829 15.9502 74.9829H12C11.4477 74.9829 11 74.5352 11 73.9829Z" fill="#21ACE3"/>
<path fill-rule="evenodd" clip-rule="evenodd" d="M111.976 16C112.528 16 112.976 16.4477 112.976 17V20.9658C112.976 21.5181 112.528 21.9658 111.976 21.9658C111.423 21.9658 110.976 21.5181 110.976 20.9658V17C110.976 16.4477 111.423 16 111.976 16Z" fill="#21ACE3"/>
<path fill-rule="evenodd" clip-rule="evenodd" d="M109 18.9829C109 18.4306 109.448 17.9829 110 17.9829H113.95C114.503 17.9829 114.95 18.4306 114.95 18.9829C114.95 19.5352 114.503 19.9829 113.95 19.9829H110C109.448 19.9829 109 19.5352 109 18.9829Z" fill="#21ACE3"/>
<path fill-rule="evenodd" clip-rule="evenodd" d="M131.976 54C132.528 54 132.976 54.4477 132.976 55V58.9658C132.976 59.5181 132.528 59.9658 131.976 59.9658C131.423 59.9658 130.976 59.5181 130.976 58.9658V55C130.976 54.4477 131.423 54 131.976 54Z" fill="#21ACE3"/>
<path fill-rule="evenodd" clip-rule="evenodd" d="M129 56.9829C129 56.4306 129.448 55.9829 130 55.9829H133.95C134.503 55.9829 134.95 56.4306 134.95 56.9829C134.95 57.5352 134.503 57.9829 133.95 57.9829H130C129.448 57.9829 129 57.5352 129 56.9829Z" fill="#21ACE3"/>
<path d="M111.452 107.553C107.932 107.553 104.49 106.499 101.563 104.524C98.6359 102.549 96.3545 99.7423 95.0073 96.4581C93.6601 93.174 93.3076 89.5602 93.9944 86.0737C94.6812 82.5873 96.3764 79.3847 98.8658 76.8712C101.355 74.3576 104.527 72.6458 107.979 71.9523C111.432 71.2588 115.011 71.6147 118.264 72.9751C121.516 74.3354 124.296 76.6391 126.252 79.5947C128.208 82.5504 129.252 86.0253 129.252 89.5801C129.246 94.3452 127.369 98.9137 124.032 102.283C120.696 105.653 116.171 107.548 111.452 107.553ZM111.452 76.1002C108.812 76.1002 106.231 76.8908 104.035 78.372C101.84 79.8532 100.129 81.9585 99.1185 84.4216C98.1081 86.8847 97.8437 89.5951 98.3588 92.2099C98.8739 94.8247 100.145 97.2266 102.012 99.1118C103.879 100.997 106.258 102.281 108.848 102.801C111.437 103.321 114.121 103.054 116.561 102.034C119 101.014 121.085 99.2859 122.552 97.0691C124.019 94.8524 124.802 92.2462 124.802 89.5801C124.798 86.0063 123.39 82.5799 120.887 80.0528C118.385 77.5257 114.991 76.1042 111.452 76.1002Z" fill="#4AC6F8"/>
<path d="M111.451 103.701C119.175 103.701 125.437 97.3785 125.437 89.5793C125.437 81.78 119.175 75.4575 111.451 75.4575C103.727 75.4575 97.4658 81.78 97.4658 89.5793C97.4658 97.3785 103.727 103.701 111.451 103.701Z" fill="white"/>
<path fill-rule="evenodd" clip-rule="evenodd" d="M103.603 89.5792C103.603 88.7467 104.271 88.0719 105.095 88.0719L118.172 88.0719C118.996 88.0719 119.665 88.7467 119.665 89.5792C119.665 90.4116 118.996 91.0864 118.172 91.0864L105.095 91.0864C104.271 91.0864 103.603 90.4116 103.603 89.5792Z" fill="#4AC6F8"/>
<path fill-rule="evenodd" clip-rule="evenodd" d="M103.603 89.5792C103.603 88.7467 104.271 88.0719 105.095 88.0719L118.172 88.0719C118.996 88.0719 119.665 88.7467 119.665 89.5792C119.665 90.4116 118.996 91.0864 118.172 91.0864L105.095 91.0864C104.271 91.0864 103.603 90.4116 103.603 89.5792Z" fill="#4AC6F8"/>
<path fill-rule="evenodd" clip-rule="evenodd" d="M111.633 97.6885C110.809 97.6885 110.141 97.0137 110.141 96.1812L110.141 82.9772C110.141 82.1447 110.809 81.4699 111.633 81.4699C112.458 81.4699 113.126 82.1447 113.126 82.9772L113.126 96.1812C113.126 97.0137 112.458 97.6885 111.633 97.6885Z" fill="#4AC6F8"/>
<path fill-rule="evenodd" clip-rule="evenodd" d="M111.633 97.6885C110.809 97.6885 110.141 97.0137 110.141 96.1812L110.141 82.9772C110.141 82.1447 110.809 81.4699 111.633 81.4699C112.458 81.4699 113.126 82.1447 113.126 82.9772L113.126 96.1812C113.126 97.0137 112.458 97.6885 111.633 97.6885Z" fill="#4AC6F8"/>
</svg>
