<svg width="144" height="108" viewBox="0 0 144 108" fill="none" xmlns="http://www.w3.org/2000/svg">
<path d="M139.561 39.1949C142.169 45.7607 143.352 52.8163 143.03 59.8844C142.709 66.9526 140.89 73.8685 137.698 80.1645C132.734 90.048 124.421 97.7971 114.277 101.998C106.284 105.472 97.3042 105.842 89.0578 103.037C78.9379 99.171 72.0627 91.341 60.465 91.9258C50.3772 92.4456 43.0845 100.698 33.4465 102.582C9.76908 107.196 -6.8083 75.1936 4.78944 55.8946C8.67677 49.3967 15.6804 43.4511 23.3908 42.8988C29.013 42.5739 34.4424 44.6207 40.0967 44.3933C44.2079 44.3378 48.2601 43.3962 51.983 41.6314C55.7058 39.8666 59.0137 37.3191 61.6858 34.159C65.6695 29.448 66.5691 23.015 70.9704 18.5964C79.9017 9.59676 93.4591 8.8495 105.25 11.0263C112.107 12.3079 118.586 15.1502 124.196 19.338C129.807 23.5259 134.402 28.9496 137.633 35.1987C138.308 36.4983 138.886 37.8303 139.561 39.1949Z" fill="#EEFBFF"/>
<path fill-rule="evenodd" clip-rule="evenodd" d="M21.8467 74.0015C22.399 74.0015 22.8467 74.4492 22.8467 75.0015V78.9673C22.8467 79.5195 22.399 79.9673 21.8467 79.9673C21.2944 79.9673 20.8467 79.5195 20.8467 78.9673V75.0015C20.8467 74.4492 21.2944 74.0015 21.8467 74.0015Z" fill="#21ACE3"/>
<path fill-rule="evenodd" clip-rule="evenodd" d="M18.8711 76.9844C18.8711 76.4321 19.3188 75.9844 19.8711 75.9844H23.8213C24.3736 75.9844 24.8213 76.4321 24.8213 76.9844C24.8213 77.5367 24.3736 77.9844 23.8213 77.9844H19.8711C19.3188 77.9844 18.8711 77.5367 18.8711 76.9844Z" fill="#21ACE3"/>
<path fill-rule="evenodd" clip-rule="evenodd" d="M127.976 45C128.528 45 128.976 45.4477 128.976 46V49.9658C128.976 50.5181 128.528 50.9658 127.976 50.9658C127.423 50.9658 126.976 50.5181 126.976 49.9658V46C126.976 45.4477 127.423 45 127.976 45Z" fill="#21ACE3"/>
<path fill-rule="evenodd" clip-rule="evenodd" d="M125 47.9829C125 47.4306 125.448 46.9829 126 46.9829H129.95C130.503 46.9829 130.95 47.4306 130.95 47.9829C130.95 48.5352 130.503 48.9829 129.95 48.9829H126C125.448 48.9829 125 48.5352 125 47.9829Z" fill="#21ACE3"/>
<path d="M91.6874 0H47.4813C43.9018 0 41 2.91199 41 6.50411V101.496C41 105.088 43.9018 108 47.4813 108H91.6874C95.2669 108 98.1687 105.088 98.1687 101.496V6.50411C98.1687 2.91199 95.2669 0 91.6874 0Z" fill="#3B5B7B"/>
<path d="M95.5316 8.62227V99.3538C95.5336 100.832 94.9523 102.252 93.9148 103.301C92.8772 104.351 91.4678 104.946 89.9945 104.956H49.5654C48.0921 104.946 46.6827 104.351 45.6451 103.301C44.6076 102.252 44.0263 100.832 44.0283 99.3538V8.62227C44.0283 7.14508 44.6105 5.72782 45.6478 4.67975C46.6851 3.63167 48.0934 3.03784 49.5654 3.02783H89.9945C91.4665 3.03784 92.8748 3.63167 93.9121 4.67975C94.9494 5.72782 95.5316 7.14508 95.5316 8.62227Z" fill="white"/>
<path d="M90 3L50.0401 105H49.5412C48.0668 104.99 46.6563 104.395 45.618 103.344C44.5797 102.294 43.998 100.874 44 99.394V8.59839C44 7.12016 44.5826 5.7019 45.6207 4.65308C46.6588 3.60426 48.0681 3.01002 49.5412 3H90Z" fill="#E4F8FF"/>
<path d="M80.2098 0.189453H63.6968C62.2074 0.189453 61 1.40108 61 2.89571V2.90329C61 4.39791 62.2074 5.60954 63.6968 5.60954H80.2098C81.6992 5.60954 82.9066 4.39791 82.9066 2.90329V2.89571C82.9066 1.40108 81.6992 0.189453 80.2098 0.189453Z" fill="#3B5B7B"/>
<path d="M121.04 58.6631H71.5718C70.3299 58.6631 69.3232 59.6711 69.3232 60.9145V94.685C69.3232 95.9284 70.3299 96.9364 71.5718 96.9364H121.04C122.281 96.9364 123.288 95.9284 123.288 94.685V60.9145C123.288 59.6711 122.281 58.6631 121.04 58.6631Z" fill="#368CFB"/>
<path d="M123.178 60.227C123.031 59.7724 122.745 59.3763 122.361 59.0954C121.977 58.8145 121.514 58.6631 121.04 58.6631H71.5704C71.0957 58.6634 70.6334 58.8149 70.2495 59.096C69.8656 59.377 69.5799 59.7732 69.4332 60.2277C69.2866 60.6823 69.2866 61.1718 69.4332 61.6264C69.5798 62.0809 69.8655 62.4771 70.2493 62.7582L94.9839 80.8707C95.3682 81.152 95.8312 81.3036 96.3064 81.3036C96.7815 81.3036 97.2445 81.152 97.6288 80.8707L122.363 62.7582C122.747 62.4768 123.033 62.0804 123.179 61.6257C123.325 61.1711 123.325 60.6814 123.178 60.227Z" fill="#4AC6F8"/>
<path d="M96.2394 89.9021C94.3305 89.9021 92.4645 89.3339 90.8773 88.2693C89.2901 87.2047 88.0531 85.6916 87.3226 83.9212C86.5921 82.1508 86.4009 80.2028 86.7733 78.3234C87.1458 76.444 88.065 74.7176 89.4148 73.3626C90.7646 72.0077 92.4843 71.0849 94.3565 70.7111C96.2287 70.3372 98.1693 70.5291 99.9329 71.2624C101.697 71.9957 103.204 73.2375 104.264 74.8308C105.325 76.4241 105.891 78.2973 105.891 80.2135C105.888 82.7822 104.87 85.2449 103.061 87.0612C101.252 88.8776 98.7983 89.8993 96.2394 89.9021ZM96.2394 72.9471C94.8078 72.9471 93.4082 73.3732 92.2179 74.1717C91.0275 74.9701 90.0997 76.105 89.5518 77.4328C89.0039 78.7605 88.8606 80.2216 89.1399 81.6311C89.4192 83.0407 90.1086 84.3355 91.1209 85.3517C92.1333 86.3679 93.4231 87.06 94.8272 87.3404C96.2314 87.6207 97.6869 87.4768 99.0096 86.9269C100.332 86.3769 101.463 85.4455 102.258 84.2506C103.054 83.0556 103.478 81.6507 103.478 80.2135C103.476 78.287 102.713 76.44 101.356 75.0777C99.9985 73.7155 98.1586 72.9492 96.2394 72.9471Z" fill="#4AC6F8"/>
<path d="M96.2406 87.827C100.429 87.827 103.824 84.4188 103.824 80.2145C103.824 76.0103 100.429 72.6021 96.2406 72.6021C92.0524 72.6021 88.6572 76.0103 88.6572 80.2145C88.6572 84.4188 92.0524 87.827 96.2406 87.827Z" fill="white"/>
<path d="M96.7151 78.8017C97.2518 78.8017 97.6846 79.0277 97.9789 79.4449L99.0003 78.4888C98.6714 78.0368 98.0828 77.5848 97.1826 77.4458V76.6982H95.8322V77.4979C94.43 77.8282 93.4951 78.993 93.4951 80.5401C93.4951 82.0873 94.43 83.2695 95.8322 83.5824V84.3125H97.1826V83.6345C98.0828 83.5128 98.6714 83.0608 99.0003 82.5915L97.9616 81.618C97.6846 82.0178 97.2518 82.2612 96.6978 82.2612C95.7457 82.2612 95.0878 81.5484 95.0878 80.5228C95.1051 79.4797 95.763 78.8017 96.7151 78.8017Z" fill="#4AC6F8"/>
<path d="M51.0498 46.7828H63.1064V34.7393H51.0498V46.7828ZM53.4609 37.1482H60.695V44.3556H53.4609V37.1482Z" fill="#368CFB"/>
<path d="M58.2824 39.5542H55.8711V41.9632H58.2824V39.5542Z" fill="#368CFB"/>
<path d="M72.7546 44.375H70.3428V46.7837H72.7546V44.375Z" fill="#368CFB"/>
<path d="M77.5739 44.375H75.1621V46.7837H77.5739V44.375Z" fill="#368CFB"/>
<path d="M75.162 37.1482H72.7509V34.7393H65.5166V46.7828H67.9281V39.5567H70.3391V41.9656H77.5734V34.7393H75.162V37.1482Z" fill="#368CFB"/>
<path d="M51.0498 32.3328H63.1064V20.2891H51.0498V32.3328ZM53.4609 22.6976H60.695V29.9238H53.4609V22.6976Z" fill="#368CFB"/>
<path d="M58.2824 25.1084H55.8711V27.5172H58.2824V25.1084Z" fill="#368CFB"/>
<path d="M65.5166 20.2891V32.3328H77.5736V20.2891H65.5166ZM75.162 29.9238H67.9281V22.6976H75.162V29.9238Z" fill="#368CFB"/>
<path d="M72.7546 25.1084H70.3428V27.5172H72.7546V25.1084Z" fill="#368CFB"/>
</svg>
