<svg width="144" height="108" viewBox="0 0 144 108" fill="none" xmlns="http://www.w3.org/2000/svg">
<path d="M139.561 39.1949C142.169 45.7607 143.352 52.8163 143.03 59.8844C142.709 66.9526 140.89 73.8685 137.698 80.1645C132.734 90.048 124.421 97.7971 114.277 101.998C106.284 105.472 97.3042 105.842 89.0578 103.037C78.9379 99.171 72.0627 91.341 60.465 91.9258C50.3772 92.4456 43.0845 100.698 33.4465 102.582C9.76908 107.196 -6.80829 75.1936 4.78944 55.8946C8.67677 49.3967 15.6804 43.4511 23.3908 42.8988C29.013 42.5739 34.4424 44.6207 40.0967 44.3933C44.2079 44.3378 48.2601 43.3962 51.983 41.6314C55.7058 39.8666 59.0137 37.3192 61.6858 34.159C65.6695 29.448 66.5691 23.015 70.9704 18.5964C79.9017 9.59676 93.4591 8.8495 105.25 11.0263C112.107 12.3079 118.586 15.1502 124.196 19.338C129.807 23.5259 134.402 28.9496 137.633 35.1987C138.308 36.4983 138.886 37.8303 139.561 39.1949Z" fill="#EEFBFF"/>
<path d="M88.6568 4.32666H46.2217C42.7855 4.32666 40 7.12199 40 10.5702V101.756C40 105.205 42.7855 108 46.2217 108H88.6568C92.0929 108 94.8785 105.205 94.8785 101.756V10.5702C94.8785 7.12199 92.0929 4.32666 88.6568 4.32666Z" fill="#3B5B7B"/>
<path d="M92.1597 12.2668V99.3635C92.1616 100.783 91.6036 102.145 90.6076 103.153C89.6117 104.16 88.2587 104.731 86.8444 104.741H48.035C46.6207 104.731 45.2677 104.16 44.2718 103.153C43.2758 102.145 42.7178 100.783 42.7197 99.3635V12.2668C42.7197 10.8488 43.2785 9.48831 44.2743 8.48222C45.2701 7.47613 46.622 6.90609 48.035 6.89648H86.8444C88.2574 6.90609 89.6093 7.47613 90.6051 8.48222C91.6009 9.48831 92.1597 10.8488 92.1597 12.2668Z" fill="white"/>
<path d="M86.8444 6.89648L48.5136 104.741H48.035C46.6207 104.731 45.2677 104.16 44.2718 103.153C43.2758 102.145 42.7178 100.783 42.7197 99.3635V12.2668C42.7197 10.8488 43.2785 9.48831 44.2743 8.48222C45.2701 7.47613 46.622 6.90609 48.035 6.89648H86.8444Z" fill="#E4F8FF"/>
<path d="M74.9881 4.5083H59.1366C57.7069 4.5083 56.5479 5.67139 56.5479 7.10614V7.11342C56.5479 8.54816 57.7069 9.71125 59.1366 9.71125H74.9881C76.4178 9.71125 77.5769 8.54816 77.5769 7.11342V7.10614C77.5769 5.67139 76.4178 4.5083 74.9881 4.5083Z" fill="#3B5B7B"/>
<path d="M94.5875 1H77.3207C76.2315 1.00159 75.1873 1.4336 74.4171 2.20133C73.6469 2.96907 73.2135 4.00988 73.2119 5.09562V19.8507C73.2135 20.937 73.6467 21.9784 74.4168 22.7471C75.1868 23.5158 76.2309 23.9491 77.3207 23.9523H78.9655V31.3268C78.9626 31.48 79.0031 31.6309 79.0822 31.7623C79.1613 31.8937 79.2759 32.0002 79.4129 32.0697C79.5499 32.1393 79.7038 32.169 79.8569 32.1555C80.01 32.142 80.1562 32.0858 80.2789 31.9934L91.5811 23.9523H108.571C109.661 23.9491 110.705 23.5158 111.475 22.7471C112.245 21.9784 112.678 20.937 112.68 19.8507V5.09562C112.678 4.00988 112.245 2.96907 111.474 2.20133C110.704 1.4336 109.66 1.00159 108.571 1H96.2322" fill="#4AC6F8"/>
<path d="M81.8834 14.817C83.3695 14.817 84.5743 13.6122 84.5743 12.126C84.5743 10.6398 83.3695 9.43506 81.8834 9.43506C80.3972 9.43506 79.1924 10.6398 79.1924 12.126C79.1924 13.6122 80.3972 14.817 81.8834 14.817Z" fill="white"/>
<path d="M92.648 14.8165C94.1342 14.8165 95.339 13.6117 95.339 12.1255C95.339 10.6394 94.1342 9.43457 92.648 9.43457C91.1618 9.43457 89.957 10.6394 89.957 12.1255C89.957 13.6117 91.1618 14.8165 92.648 14.8165Z" fill="white"/>
<path d="M103.411 14.8165C104.897 14.8165 106.102 13.6117 106.102 12.1255C106.102 10.6394 104.897 9.43457 103.411 9.43457C101.925 9.43457 100.72 10.6394 100.72 12.1255C100.72 13.6117 101.925 14.8165 103.411 14.8165Z" fill="white"/>
<path d="M113.736 69.0884H80.428C79.114 69.0884 78.0488 70.1868 78.0488 71.5417V98.5287C78.0488 99.8837 79.114 100.982 80.428 100.982H113.736C115.05 100.982 116.116 99.8837 116.116 98.5287V71.5417C116.116 70.1868 115.05 69.0884 113.736 69.0884Z" fill="#3B5B7B"/>
<path d="M109.946 71.147H104.974V61.6817C104.974 59.1714 103.926 56.7639 102.061 54.9888C100.196 53.2137 97.6661 52.2165 95.0284 52.2165C92.3907 52.2165 89.8611 53.2137 87.996 54.9888C86.1308 56.7639 85.083 59.1714 85.083 61.6817V71.147H80.1104V61.6817C80.1104 57.9162 81.6821 54.305 84.4797 51.6423C87.2774 48.9797 91.0719 47.4839 95.0284 47.4839C98.9849 47.4839 102.779 48.9797 105.577 51.6423C108.375 54.305 109.946 57.9162 109.946 61.6817V71.147Z" fill="#3B5B7B"/>
<path d="M111.618 69.0884H77.4093C76.0598 69.0884 74.9658 70.1868 74.9658 71.5417V98.5287C74.9658 99.8837 76.0598 100.982 77.4093 100.982H111.618C112.967 100.982 114.061 99.8837 114.061 98.5287V71.5417C114.061 70.1868 112.967 69.0884 111.618 69.0884Z" fill="#A1DFF6"/>
<mask id="mask0_12611_135919" style="mask-type:alpha" maskUnits="userSpaceOnUse" x="89" y="77" width="11" height="18">
<path d="M99.0965 82.1938C99.0973 81.3398 98.8732 80.5007 98.4468 79.7609C98.0205 79.021 97.4068 78.4064 96.6675 77.9789C95.9283 77.5515 95.0895 77.3262 94.2356 77.3257C93.3816 77.3252 92.5426 77.5496 91.8029 77.9762C91.0632 78.4028 90.4488 79.0167 90.0216 79.7561C89.5944 80.4955 89.3693 81.3343 89.3691 82.1883C89.3689 83.0422 89.5936 83.8812 90.0205 84.6208C90.4474 85.3603 91.0615 85.9745 91.801 86.4015V94.353H96.6647V86.4015C97.4038 85.9754 98.0177 85.3623 98.4446 84.6236C98.8716 83.885 99.0964 83.0469 99.0965 82.1938Z" fill="#368CFB"/>
</mask>
<g mask="url(#mask0_12611_135919)">
<path d="M99.0965 82.1938C99.0973 81.3398 98.8732 80.5007 98.4468 79.7609C98.0205 79.021 97.4068 78.4064 96.6675 77.9789C95.9283 77.5515 95.0895 77.3262 94.2356 77.3257C93.3816 77.3252 92.5426 77.5496 91.8029 77.9762C91.0632 78.4028 90.4488 79.0167 90.0216 79.7561C89.5944 80.4955 89.3693 81.3343 89.3691 82.1883C89.3689 83.0422 89.5936 83.8812 90.0205 84.6208C90.4474 85.3603 91.0615 85.9745 91.801 86.4015V94.353H96.6647V86.4015C97.4038 85.9754 98.0177 85.3623 98.4446 84.6236C98.8716 83.885 99.0964 83.0469 99.0965 82.1938Z" fill="#368CFB"/>
</g>
<path fill-rule="evenodd" clip-rule="evenodd" d="M16.8467 77.0015C17.399 77.0015 17.8467 77.4492 17.8467 78.0015V81.9673C17.8467 82.5195 17.399 82.9673 16.8467 82.9673C16.2944 82.9673 15.8467 82.5195 15.8467 81.9673V78.0015C15.8467 77.4492 16.2944 77.0015 16.8467 77.0015Z" fill="#21ACE3"/>
<path fill-rule="evenodd" clip-rule="evenodd" d="M13.8711 79.9844C13.8711 79.4321 14.3188 78.9844 14.8711 78.9844H18.8213C19.3736 78.9844 19.8213 79.4321 19.8213 79.9844C19.8213 80.5367 19.3736 80.9844 18.8213 80.9844H14.8711C14.3188 80.9844 13.8711 80.5367 13.8711 79.9844Z" fill="#21ACE3"/>
<path fill-rule="evenodd" clip-rule="evenodd" d="M127.976 53C128.528 53 128.976 53.4477 128.976 54V57.9658C128.976 58.5181 128.528 58.9658 127.976 58.9658C127.423 58.9658 126.976 58.5181 126.976 57.9658V54C126.976 53.4477 127.423 53 127.976 53Z" fill="#21ACE3"/>
<path fill-rule="evenodd" clip-rule="evenodd" d="M125 55.9829C125 55.4306 125.448 54.9829 126 54.9829H129.95C130.503 54.9829 130.95 55.4306 130.95 55.9829C130.95 56.5352 130.503 56.9829 129.95 56.9829H126C125.448 56.9829 125 56.5352 125 55.9829Z" fill="#21ACE3"/>
</svg>
