<svg width="144" height="108" viewBox="0 0 144 108" fill="none" xmlns="http://www.w3.org/2000/svg">
<path fill-rule="evenodd" clip-rule="evenodd" d="M68.2164 0C86.2813 0 100.926 14.6445 100.926 32.7093C100.926 50.7742 86.2813 65.4187 68.2165 65.4187H38.5405C35.5112 70.3045 26.9017 75.2762 16.304 75.2762C18.5685 72.0542 22.1865 65.7711 21.2137 62.947C9.34824 58.0382 1.00006 46.3487 1.00006 32.7093C1.00006 14.6445 15.6445 0 33.7094 0H68.2164Z" fill="#4AC6F8"/>
<path fill-rule="evenodd" clip-rule="evenodd" d="M66.5857 22.4229C46.0488 22.4229 29.4004 39.0713 29.4004 59.6082C29.4004 80.1451 46.0488 96.7936 66.5857 96.7936H100.323C103.767 102.348 113.554 108 125.602 108C123.028 104.337 118.915 97.1946 120.02 93.9838C133.51 88.4033 143 75.1141 143 59.6082C143 39.0713 126.352 22.4229 105.815 22.4229H66.5857Z" fill="#368CFB"/>
<path d="M56.7619 58.4179C56.6846 58.1709 56.4736 57.9959 56.225 57.9726L52.8344 57.6528L51.4944 54.394C51.3954 54.1545 51.1703 54 50.9198 54C50.6692 54 50.444 54.1545 50.3457 54.394L49.0057 57.6528L45.6145 57.9726C45.3659 57.9964 45.1554 58.1713 45.0776 58.4179C45.0003 58.665 45.0717 58.936 45.2597 59.1072L47.8228 61.4418L47.0671 64.8993C47.0118 65.1536 47.1068 65.4165 47.3098 65.5689C47.419 65.6513 47.5472 65.6925 47.6759 65.6925C47.7865 65.6925 47.8972 65.6619 47.996 65.6005L50.9198 63.7845L53.843 65.6005C54.0574 65.7336 54.3271 65.7214 54.5297 65.5689C54.7328 65.4165 54.8278 65.1536 54.7725 64.8993L54.0167 61.4418L56.5798 59.1072C56.7677 58.936 56.8392 58.6655 56.7619 58.4179Z" fill="white"/>
<path d="M74.381 58.4179C74.3037 58.1709 74.0928 57.9959 73.8442 57.9726L70.4535 57.6528L69.1135 54.394C69.0146 54.1545 68.7895 54 68.5389 54C68.2883 54 68.0631 54.1545 67.9648 54.394L66.6248 57.6528L63.2336 57.9726C62.985 57.9964 62.7745 58.1713 62.6968 58.4179C62.6194 58.665 62.6908 58.936 62.8789 59.1072L65.4419 61.4418L64.6862 64.8993C64.6309 65.1536 64.7259 65.4165 64.929 65.5689C65.0381 65.6513 65.1664 65.6925 65.295 65.6925C65.4056 65.6925 65.5163 65.6619 65.6151 65.6005L68.5389 63.7845L71.4621 65.6005C71.6766 65.7336 71.9462 65.7214 72.1488 65.5689C72.3519 65.4165 72.4469 65.1536 72.3916 64.8993L71.6359 61.4418L74.1989 59.1072C74.3869 58.936 74.4584 58.6655 74.381 58.4179Z" fill="white"/>
<path d="M91.9992 58.4179C91.9219 58.1709 91.7109 57.9959 91.4623 57.9726L88.0717 57.6528L86.7317 54.394C86.6327 54.1545 86.4076 54 86.1571 54C85.9065 54 85.6813 54.1545 85.583 54.394L84.243 57.6528L80.8518 57.9726C80.6032 57.9964 80.3927 58.1713 80.3149 58.4179C80.2376 58.665 80.309 58.936 80.497 59.1072L83.0601 61.4418L82.3044 64.8993C82.2491 65.1536 82.3441 65.4165 82.5471 65.5689C82.6563 65.6513 82.7845 65.6925 82.9132 65.6925C83.0238 65.6925 83.1345 65.6619 83.2333 65.6005L86.1571 63.7845L89.0803 65.6005C89.2947 65.7336 89.5644 65.7214 89.767 65.5689C89.9701 65.4165 90.0651 65.1536 90.0098 64.8993L89.254 61.4418L91.8171 59.1072C92.005 58.936 92.0765 58.6655 91.9992 58.4179Z" fill="white"/>
<path d="M109.617 58.4179C109.54 58.1709 109.329 57.9959 109.08 57.9726L105.69 57.6528L104.35 54.394C104.251 54.1545 104.026 54 103.775 54C103.525 54 103.299 54.1545 103.201 54.394L101.861 57.6528L98.47 57.9726C98.2214 57.9964 98.0109 58.1713 97.9331 58.4179C97.8558 58.665 97.9272 58.936 98.1152 59.1072L100.678 61.4418L99.9225 64.8993C99.8672 65.1536 99.9622 65.4165 100.165 65.5689C100.274 65.6513 100.403 65.6925 100.531 65.6925C100.642 65.6925 100.753 65.6619 100.851 65.6005L103.775 63.7845L106.698 65.6005C106.913 65.7336 107.183 65.7214 107.385 65.5689C107.588 65.4165 107.683 65.1536 107.628 64.8993L106.872 61.4418L109.435 59.1072C109.623 58.936 109.695 58.6655 109.617 58.4179Z" fill="white"/>
<path d="M127.237 58.4179C127.159 58.1709 126.948 57.9959 126.7 57.9726L123.309 57.6528L121.969 54.394C121.87 54.1545 121.645 54 121.394 54C121.144 54 120.919 54.1545 120.82 54.394L119.48 57.6528L116.089 57.9726C115.841 57.9964 115.63 58.1713 115.552 58.4179C115.475 58.665 115.546 58.936 115.734 59.1072L118.297 61.4418L117.542 64.8993C117.486 65.1536 117.581 65.4165 117.784 65.5689C117.894 65.6513 118.022 65.6925 118.151 65.6925C118.261 65.6925 118.372 65.6619 118.471 65.6005L121.394 63.7845L124.318 65.6005C124.532 65.7336 124.802 65.7214 125.004 65.5689C125.207 65.4165 125.302 65.1536 125.247 64.8993L124.491 61.4418L127.054 59.1072C127.242 58.936 127.314 58.6655 127.237 58.4179Z" fill="white"/>
</svg>
