<svg width="144" height="108" viewBox="0 0 144 108" fill="none" xmlns="http://www.w3.org/2000/svg">
<path d="M139.561 39.1949C142.169 45.7607 143.352 52.8163 143.03 59.8844C142.709 66.9526 140.89 73.8685 137.698 80.1645C132.734 90.048 124.421 97.7971 114.277 101.998C106.284 105.472 97.3042 105.842 89.0578 103.037C78.9379 99.171 72.0627 91.341 60.465 91.9258C50.3772 92.4456 43.0845 100.698 33.4465 102.582C9.76908 107.196 -6.80829 75.1936 4.78944 55.8946C8.67677 49.3967 15.6804 43.4511 23.3908 42.8988C29.013 42.5739 34.4424 44.6207 40.0967 44.3933C44.2079 44.3378 48.2601 43.3962 51.983 41.6314C55.7058 39.8666 59.0137 37.3192 61.6858 34.159C65.6695 29.448 66.5691 23.015 70.9704 18.5964C79.9017 9.59676 93.4591 8.8495 105.25 11.0263C112.107 12.3079 118.586 15.1502 124.196 19.338C129.807 23.5259 134.402 28.9496 137.633 35.1987C138.308 36.4983 138.886 37.8303 139.561 39.1949Z" fill="#EEFBFF"/>
<path d="M60.6487 54.853C59.9012 57.9596 56.643 58.5886 55.1973 61.8427C54.0549 64.3746 55.2961 66.8676 52.3764 69.1509C49.4568 71.4342 43.956 72.3972 41.8474 75.2708C39.1887 78.9054 40.8389 82.6488 37.3833 83.9613C34.781 84.9399 30.5426 87.9299 30.331 91.4325C29.4143 105.699 17.0023 107.587 26.6568 107.587C40.8671 107.587 36.3184 92.745 43.7656 94.6556C48.8573 95.9603 52.863 94.2517 55.2961 89.4987C58.4343 83.3555 61.6431 81.7324 66.2623 79.6976C72.3414 77.0337 70.3808 69.4771 75.3456 68.118C78.5685 67.1782 60.6487 54.853 60.6487 54.853Z" fill="#4AC6F8"/>
<path d="M67.3617 63.3589C63.814 67.2208 64.2823 73.6162 60.7913 74.713C56.5766 76.0337 51.2266 78.0188 50.1481 81.2473C48.282 86.7467 40.328 86.5382 40.8886 88.9712C41.4491 91.4042 52.1703 87.5732 54.5828 82.8925C56.7114 78.7525 64.481 81.4018 66.936 76.0646C68.5956 72.6811 71.0424 69.8312 74.0314 67.8001L67.3617 63.3589Z" fill="#21ACE3"/>
<path d="M104.403 43.9174L94.5852 54.8217C96.3645 55.2749 97.5497 56.1782 94.8927 59.0797L81.9494 73.4821C82.9837 73.7025 97.6181 64.2859 106.942 56.6744C115.161 50.0153 113.822 45.8941 104.403 43.9174Z" fill="#3B5B7B"/>
<path d="M81.3126 23.1898L71.4951 34.094C70.8585 32.3828 69.8378 31.2949 67.1799 34.2475L54.2367 48.6499C53.9123 47.641 61.7187 32.0862 68.2652 22.0152C74.1378 13.1416 78.3599 14.0415 81.3126 23.1898Z" fill="#3B5B7B"/>
<path d="M64.8059 51.5303C67.7795 52.3283 70.5227 53.8168 72.8125 55.8748C75.1023 57.9328 76.8741 60.5022 77.9836 63.374C78.8517 66.0587 78.5281 68.2483 77.2901 69.6239C76.0521 70.9995 73.9081 71.5613 71.1441 70.982C68.1721 70.1829 65.4306 68.6939 63.1424 66.636C60.8541 64.5781 59.0837 62.0093 57.9749 59.1384C57.0983 56.4537 57.4221 54.2556 58.6601 52.8799C59.8981 51.5043 62.0419 50.951 64.8059 51.5303Z" fill="#368CFB"/>
<path d="M77.9826 63.3738C76.8731 60.502 75.1013 57.9326 72.8115 55.8746C70.5217 53.8166 67.7785 52.3281 64.8049 51.5301C63.7093 51.2756 62.5749 51.2347 61.4638 51.4096C61.4544 52.0108 61.5671 52.6077 61.7953 53.164C62.0234 53.7203 62.3622 54.2245 62.791 54.6459C69.4766 62.2621 68.6221 67.3866 66.7639 69.2543C68.1279 70.0483 69.6044 70.6307 71.1431 70.9818C73.9071 71.5611 76.0511 70.9993 77.2891 69.6237C78.5271 68.2481 78.8507 66.0585 77.9826 63.3738Z" fill="#368CFB"/>
<path d="M106.463 51.9456C118.68 35.6093 120.994 12.8398 121.059 2.19927C110.484 3.39429 88.0886 8.11256 73.1119 21.9982C65.7572 28.824 61.4826 37.2293 58.5807 44.3547C57.7844 46.3072 57.7787 48.842 58.7279 51.7746C60.3811 56.049 63.0195 59.873 66.4286 62.9358C69.8377 65.9987 73.9214 68.214 78.3477 69.4018C81.3574 70.0445 83.8798 69.7608 85.7329 68.7606C92.5611 65.125 100.451 59.9833 106.463 51.9456Z" fill="#4AC6F8"/>
<path d="M121.058 2.19889C115.478 2.86058 109.959 3.96579 104.555 5.50402C103.896 5.70905 103.303 6.08412 102.836 6.59139C101.789 7.75734 101.504 9.62429 102.251 11.8987C103.191 14.3368 104.693 16.5182 106.637 18.265C108.58 20.0119 110.908 21.2746 113.432 21.9503C115.772 22.4463 117.591 22.0155 118.648 20.7987C119.104 20.264 119.408 19.6165 119.528 18.9241C120.477 13.3979 120.988 7.80551 121.058 2.19889Z" fill="#3B5B7B"/>
<path d="M118.614 20.8158C119.07 20.2811 119.374 19.6337 119.494 18.9412C120.447 13.4097 120.961 7.81164 121.033 2.19916C120.079 6.04612 117.455 13.3375 113.415 21.9677C115.849 22.4567 117.601 21.9398 118.614 20.8158Z" fill="#3B5B7B"/>
<path d="M91.9854 55.8523C87.9038 57.3874 84.4044 60.3012 81.4171 64.1928C81.941 66.0384 82.0328 68.3196 79.3835 71.2723L66.3977 85.674C66.7221 86.6828 77.8154 81.2087 85.7106 75.174C92.7264 69.8825 94.5629 65.0627 91.9854 55.8523Z" fill="#3B5B7B"/>
<path d="M78.2812 73.5595C82.9969 72.2725 85.308 72.4449 91.4622 64.0606C92.01 63.3036 93.0473 62.7925 93.0576 63.7624C93.1425 61.084 92.7791 58.4101 91.9823 55.8515C87.9007 57.3867 84.4013 60.3005 81.414 64.1921C81.9379 66.0377 82.0297 68.3189 79.3804 71.2715L78.0298 72.773L78.2812 73.5595Z" fill="#3B5B7B"/>
<path d="M70.7953 36.8053C69.6995 41.0413 67.1733 44.821 63.5986 48.2015C61.7153 47.8742 59.4332 48.0255 56.7498 50.9777L43.8321 65.3805C42.7893 65.16 47.0636 53.5222 52.2147 45.0966C56.7733 37.5634 61.361 35.2196 70.7953 36.8053Z" fill="#3B5B7B"/>
<path d="M66.2031 37.8825C63.2577 38.0234 58.7901 38.1319 54.9513 43.1585C50.6953 48.757 45.0079 59.9132 43.6789 64.9197C43.7141 62.6745 47.6232 52.6302 52.2165 45.055C56.8098 37.4798 61.3622 35.2205 70.7959 36.8402C70.7422 37.0095 69.7189 37.7165 66.2031 37.8825Z" fill="#3B5B7B"/>
<path d="M97.0391 40.5266C98.6313 36.6386 102.761 34.194 106.261 35.0571C106.953 35.2172 107.606 35.5169 108.178 35.9378C109.913 37.5898 110.439 40.4137 109.271 43.2621C107.687 47.1502 103.557 49.5947 100.049 48.723C99.3601 48.5617 98.7108 48.2621 98.1407 47.8424C96.4052 46.2245 95.8711 43.4005 97.0391 40.5266Z" fill="white"/>
<path d="M103.963 37.3273C106.175 39.4291 106.842 43.0207 105.365 46.6468C105.134 47.2084 104.858 47.7503 104.54 48.2671C103.143 48.9395 101.561 49.1214 100.049 48.7835C99.3593 48.6222 98.71 48.3226 98.14 47.9029C96.405 46.251 95.8709 43.427 97.0385 40.5786C97.8105 38.7032 99.1654 37.1258 100.903 36.0798C101.116 36.0832 101.327 36.146 101.531 36.2003C102.409 36.4088 103.236 36.7921 103.963 37.3273Z" fill="white"/>
</svg>
