<svg width="154" height="131" viewBox="0 0 154 131" fill="none" xmlns="http://www.w3.org/2000/svg">
<path d="M144.805 48.4767C147.427 55.0774 148.616 62.1704 148.293 69.2762C147.97 76.3819 146.142 83.3346 142.932 89.6641C137.942 99.6001 129.585 107.39 119.387 111.613C111.351 115.106 102.324 115.478 94.0336 112.658C83.8599 108.772 76.9482 100.9 65.2888 101.488C55.1474 102.01 47.8159 110.307 38.1266 112.201C14.3233 116.839 -2.34217 84.6667 9.31723 65.2652C13.2252 58.7327 20.2661 52.7555 28.0175 52.2002C33.6696 51.8736 39.1278 53.9313 44.8122 53.7027C48.9452 53.6469 53.019 52.7003 56.7617 50.9261C60.5043 49.152 63.8297 46.5909 66.5161 43.414C70.521 38.6779 71.4253 32.2108 75.8501 27.7687C84.8288 18.7212 98.4583 17.9699 110.312 20.1583C117.205 21.4467 123.719 24.3041 129.359 28.5142C134.999 32.7244 139.619 38.1769 142.867 44.4592C143.546 45.7657 144.127 47.1049 144.805 48.4767Z" fill="#EEFBFF"/>
<path fill-rule="evenodd" clip-rule="evenodd" d="M21.4376 63.4533C21.9928 63.4533 22.4429 63.9034 22.4429 64.4586V68.4455C22.4429 69.0007 21.9928 69.4508 21.4376 69.4508C20.8824 69.4508 20.4323 69.0007 20.4323 68.4455V64.4586C20.4323 63.9034 20.8824 63.4533 21.4376 63.4533Z" fill="#21ACE3"/>
<path fill-rule="evenodd" clip-rule="evenodd" d="M18.4472 66.452C18.4472 65.8968 18.8973 65.4467 19.4525 65.4467H23.4237C23.979 65.4467 24.429 65.8968 24.429 66.452C24.429 67.0072 23.979 67.4573 23.4237 67.4573H19.4525C18.8973 67.4573 18.4472 67.0072 18.4472 66.452Z" fill="#21ACE3"/>
<path fill-rule="evenodd" clip-rule="evenodd" d="M134.896 59.0648C135.451 59.0648 135.901 59.5149 135.901 60.0701V64.057C135.901 64.6122 135.451 65.0623 134.896 65.0623C134.341 65.0623 133.891 64.6122 133.891 64.057V60.0701C133.891 59.5149 134.341 59.0648 134.896 59.0648Z" fill="#21ACE3"/>
<path fill-rule="evenodd" clip-rule="evenodd" d="M131.906 62.0636C131.906 61.5084 132.356 61.0583 132.911 61.0583H136.882C137.437 61.0583 137.887 61.5084 137.887 62.0636C137.887 62.6188 137.437 63.0689 136.882 63.0689H132.911C132.356 63.0689 131.906 62.6188 131.906 62.0636Z" fill="#21ACE3"/>
<path fill-rule="evenodd" clip-rule="evenodd" d="M113.051 11.0845C113.606 11.0845 114.056 11.5346 114.056 12.0898V16.0767C114.056 16.6319 113.606 17.082 113.051 17.082C112.496 17.082 112.046 16.6319 112.046 16.0767V12.0898C112.046 11.5346 112.496 11.0845 113.051 11.0845Z" fill="#21ACE3"/>
<path fill-rule="evenodd" clip-rule="evenodd" d="M110.06 14.0833C110.06 13.528 110.51 13.078 111.065 13.078H115.036C115.591 13.078 116.041 13.528 116.041 14.0833C116.041 14.6385 115.591 15.0886 115.036 15.0886H111.065C110.51 15.0886 110.06 14.6385 110.06 14.0833Z" fill="#21ACE3"/>
<path d="M41.5785 34.2677C44.0468 34.8925 117.358 35.2103 117.358 35.2103L120.018 40.7312L119.3 80.137V88.168L114.975 90.3548L108.916 91.7121L109.123 68.6697L109.224 53.5559L86.0569 48.3419L38.3866 36.8746L39.8283 34.2677H41.5785Z" fill="#3B5B7B"/>
<path d="M34.3545 35.3108C34.3918 33.8113 36.1687 33.0616 37.3018 32.5745C39.0393 31.8666 40.874 31.4437 42.7389 31.3214C44.867 31.1736 46.995 31.2776 49.0911 31.3214L61.157 31.5402L63.019 31.5731L96.8652 32.1915L111.229 32.4487L117.049 32.5581C117.683 32.6278 118.29 32.8576 118.816 33.2271C119.343 33.5967 119.772 34.0944 120.066 34.676C121.029 36.6515 120.891 42.2991 120.891 42.2991V70.4384C120.891 74.4771 121.013 78.5103 120.944 82.5489C120.907 84.7379 121.321 87.1567 120.571 89.2636C119.241 93.0177 114.804 94.1888 111.346 94.7361C111.346 93.8824 110.974 92.1257 110.969 91.2775C112.081 91.4581 113.826 91.2775 114.746 90.6153C115.555 90.0775 116.221 89.3401 116.682 88.4701C117.021 87.5716 117.164 86.6079 117.103 85.6464C117.018 79.8948 117.012 74.1542 117.002 68.3753L116.991 50.7376V40.5096C116.991 39.5464 116.948 38.4738 116.283 37.7734C115.618 37.0729 114.661 37.062 113.767 37.0346C89.5643 36.3779 65.3581 35.9966 41.1483 35.8908" fill="#A1DFF6"/>
<path d="M78.5738 48.9224C89.4185 49.2372 98.4651 40.6995 98.7799 29.8529C99.0946 19.0064 90.5584 9.95824 79.7137 9.64342C68.8689 9.32859 59.8223 17.8663 59.5075 28.7129C59.1928 39.5594 67.729 48.6075 78.5738 48.9224Z" fill="white"/>
<g filter="url(#filter0_d_12611_137247)">
<path d="M79.2409 45.6877C88.2468 45.6877 95.5475 38.3857 95.5475 29.3784C95.5475 20.371 88.2468 13.0691 79.2409 13.0691C70.2351 13.0691 62.9344 20.371 62.9344 29.3784C62.9344 38.3857 70.2351 45.6877 79.2409 45.6877Z" fill="#368CFB"/>
</g>
<path fill-rule="evenodd" clip-rule="evenodd" d="M79.6321 20.9012L79.6331 20.8976L84.5874 29.1196L84.5848 29.1212L84.5853 29.1214L79.6316 32.05V32.0504L79.6313 32.0502L79.6309 32.0504V32.05L74.6772 29.1214L74.679 29.1205L74.6776 29.1197L79.6321 20.8977V20.9012ZM79.631 37.0381L74.6772 30.0562L79.6315 32.9836L84.5887 30.0562L79.6316 37.0385V37.039L79.6315 37.0387L79.6313 37.039L79.631 37.0381Z" fill="white"/>
<g filter="url(#filter1_b_12611_137247)">
<path d="M121.998 117.077C132.842 117.392 141.889 108.854 142.204 98.0078C142.519 87.1612 133.982 78.1131 123.138 77.7983C112.293 77.4835 103.246 86.0212 102.932 96.8677C102.617 107.714 111.153 116.762 121.998 117.077Z" fill="white"/>
<g filter="url(#filter2_d_12611_137247)">
<path d="M122.767 113.731C131.773 113.731 139.004 106.429 138.919 97.4219C138.834 88.4145 131.465 81.1126 122.459 81.1126C113.453 81.1126 106.221 88.4145 106.306 97.4219C106.391 106.429 113.761 113.731 122.767 113.731Z" fill="#368CFB"/>
</g>
<g filter="url(#filter3_b_12611_137247)">
<path d="M125.239 98.6836C125.239 97.2375 124.381 96.7417 122.665 96.5351C121.439 96.3698 121.194 96.0393 121.194 95.4607C121.194 94.8822 121.602 94.5104 122.42 94.5104C123.155 94.5104 123.564 94.7583 123.768 95.3781C123.809 95.5021 123.932 95.5847 124.054 95.5847H124.708C124.871 95.5847 124.994 95.4607 124.994 95.2955V95.2542C124.831 94.3451 124.095 93.6427 123.155 93.5601V92.5684C123.155 92.4031 123.032 92.2792 122.828 92.2378H122.215C122.052 92.2378 121.929 92.3618 121.888 92.5684V93.5187C120.662 93.6841 119.886 94.5104 119.886 95.5434C119.886 96.907 120.703 97.4441 122.42 97.6507C123.564 97.8573 123.932 98.1052 123.932 98.7663C123.932 99.4275 123.359 99.882 122.583 99.882C121.52 99.882 121.153 99.4274 121.03 98.8076C120.989 98.6424 120.867 98.5597 120.744 98.5597H120.049C119.886 98.5597 119.763 98.6836 119.763 98.8489V98.8903C119.927 99.9232 120.581 100.667 121.929 100.874V101.865C121.929 102.031 122.052 102.154 122.256 102.196H122.869C123.032 102.196 123.155 102.072 123.196 101.865V100.874C124.422 100.667 125.239 99.7993 125.239 98.6836Z" fill="white"/>
</g>
<g filter="url(#filter4_b_12611_137247)">
<path d="M120.641 103.308C117.414 102.139 115.759 98.5087 116.959 95.2953C117.579 93.5426 118.945 92.2072 120.641 91.5812C120.806 91.4978 120.889 91.3726 120.889 91.1639V90.5797C120.889 90.4127 120.806 90.2875 120.641 90.2458C120.599 90.2458 120.517 90.2458 120.475 90.2875C116.545 91.5395 114.393 95.7544 115.635 99.7189C116.379 102.056 118.158 103.85 120.475 104.602C120.641 104.685 120.806 104.602 120.848 104.435C120.889 104.393 120.889 104.351 120.889 104.268V103.683C120.889 103.558 120.765 103.391 120.641 103.308ZM125.026 90.2875C124.861 90.2041 124.695 90.2875 124.654 90.4545C124.613 90.4962 124.613 90.5379 124.613 90.6214V91.2056C124.613 91.3726 124.737 91.5395 124.861 91.623C128.088 92.7914 129.743 96.4221 128.543 99.6355C127.922 101.388 126.557 102.724 124.861 103.35C124.695 103.433 124.613 103.558 124.613 103.767V104.351C124.613 104.518 124.695 104.643 124.861 104.685C124.902 104.685 124.985 104.685 125.026 104.643C128.957 103.391 131.108 99.1764 129.867 95.2119C129.122 92.8332 127.302 91.0387 125.026 90.2875Z" fill="white"/>
</g>
</g>
<path d="M103.977 53.2263L38.3296 37.1467C36.69 36.7475 35.2647 35.7159 34.3516 34.2677V92.4678L100.717 108.706C101.459 108.886 102.231 108.891 102.975 108.721C103.719 108.551 104.416 108.211 105.013 107.726C105.609 107.241 106.091 106.623 106.42 105.92C106.749 105.217 106.918 104.447 106.913 103.667V57.0266C106.913 56.148 106.623 55.2951 106.09 54.6056C105.557 53.9161 104.813 53.4301 103.977 53.2263Z" fill="#4AC6F8"/>
<path fill-rule="evenodd" clip-rule="evenodd" d="M34.1138 40.7628C34.145 40.6312 34.277 40.5499 34.4085 40.5811L36.1371 40.9914C36.2686 41.0226 36.3499 41.1546 36.3187 41.2861C36.2875 41.4176 36.1556 41.499 36.024 41.4677L34.2955 41.0575C34.1639 41.0262 34.0826 40.8943 34.1138 40.7628ZM39.2995 41.9936C39.3307 41.862 39.4627 41.7807 39.5942 41.8119L43.0514 42.6325C43.1829 42.6637 43.2642 42.7956 43.233 42.9272C43.2018 43.0587 43.0698 43.14 42.9383 43.1088L39.4812 42.2883C39.3496 42.2571 39.2683 42.1251 39.2995 41.9936ZM46.2138 43.6347C46.245 43.5031 46.377 43.4218 46.5085 43.453L49.9656 44.2736C50.0972 44.3048 50.1785 44.4367 50.1473 44.5683C50.1161 44.6998 49.9841 44.7811 49.8526 44.7499L46.3954 43.9294C46.2639 43.8981 46.1826 43.7662 46.2138 43.6347ZM53.1281 45.2757C53.1593 45.1442 53.2912 45.0629 53.4228 45.0941L56.8799 45.9146C57.0114 45.9459 57.0928 46.0778 57.0615 46.2093C57.0303 46.3409 56.8984 46.4222 56.7668 46.391L53.3097 45.5704C53.1782 45.5392 53.0968 45.4073 53.1281 45.2757ZM60.0423 46.9168C60.0736 46.7853 60.2055 46.704 60.337 46.7352L63.7942 47.5557C63.9257 47.5869 64.007 47.7189 63.9758 47.8504C63.9446 47.982 63.8127 48.0633 63.6811 48.0321L60.224 47.2115C60.0924 47.1803 60.0111 47.0484 60.0423 46.9168ZM66.9566 48.5579C66.9878 48.4264 67.1198 48.345 67.2513 48.3763L70.7084 49.1968C70.84 49.228 70.9213 49.36 70.8901 49.4915C70.8589 49.6231 70.7269 49.7044 70.5954 49.6732L67.1383 48.8526C67.0067 48.8214 66.9254 48.6895 66.9566 48.5579ZM73.8709 50.199C73.9021 50.0675 74.034 49.9861 74.1656 50.0174L77.6227 50.8379C77.7543 50.8691 77.8356 51.0011 77.8044 51.1326C77.7731 51.2641 77.6412 51.3455 77.5097 51.3142L74.0525 50.4937C73.921 50.4625 73.8397 50.3305 73.8709 50.199ZM80.7852 51.8401C80.8164 51.7085 80.9483 51.6272 81.0799 51.6584L84.537 52.479C84.6685 52.5102 84.7499 52.6421 84.7186 52.7737C84.6874 52.9052 84.5555 52.9865 84.4239 52.9553L80.9668 52.1348C80.8353 52.1036 80.7539 51.9716 80.7852 51.8401ZM87.6994 53.4812C87.7307 53.3496 87.8626 53.2683 87.9941 53.2995L91.4513 54.1201C91.5828 54.1513 91.6641 54.2832 91.6329 54.4148C91.6017 54.5463 91.4698 54.6276 91.3382 54.5964L87.8811 53.7759C87.7495 53.7446 87.6682 53.6127 87.6994 53.4812ZM94.6137 55.1222C94.6449 54.9907 94.7769 54.9094 94.9084 54.9406L98.3656 55.7611C98.4971 55.7924 98.5784 55.9243 98.5472 56.0559C98.516 56.1874 98.384 56.2687 98.2525 56.2375L94.7954 55.417C94.6638 55.3857 94.5825 55.2538 94.6137 55.1222ZM101.528 56.7633C101.559 56.6318 101.691 56.5505 101.823 56.5817L103.551 56.992C103.662 57.0181 103.74 57.1167 103.74 57.2301V58.9884C103.74 59.1236 103.63 59.2332 103.495 59.2332C103.36 59.2332 103.25 59.1236 103.25 58.9884V57.4236L101.71 57.058C101.578 57.0268 101.497 56.8949 101.528 56.7633ZM103.495 62.2603C103.63 62.2603 103.74 62.3698 103.74 62.505V66.0216C103.74 66.1568 103.63 66.2664 103.495 66.2664C103.36 66.2664 103.25 66.1568 103.25 66.0216V62.505C103.25 62.3698 103.36 62.2603 103.495 62.2603ZM103.495 69.2935C103.63 69.2935 103.74 69.4031 103.74 69.5383V73.0549C103.74 73.1901 103.63 73.2997 103.495 73.2997C103.36 73.2997 103.25 73.1901 103.25 73.0549V69.5383C103.25 69.4031 103.36 69.2935 103.495 69.2935ZM103.495 76.3267C103.63 76.3267 103.74 76.4363 103.74 76.5715V80.0881C103.74 80.2233 103.63 80.3329 103.495 80.3329C103.36 80.3329 103.25 80.2233 103.25 80.0881V76.5715C103.25 76.4363 103.36 76.3267 103.495 76.3267ZM103.495 83.3599C103.63 83.3599 103.74 83.4695 103.74 83.6047V87.1213C103.74 87.2565 103.63 87.3661 103.495 87.3661C103.36 87.3661 103.25 87.2565 103.25 87.1213V83.6047C103.25 83.4695 103.36 83.3599 103.495 83.3599ZM34.1758 89.6231C34.2077 89.4918 34.3401 89.4111 34.4715 89.4431L36.1985 89.8626C36.3299 89.8945 36.4105 90.0269 36.3786 90.1583C36.3467 90.2896 36.2143 90.3703 36.0829 90.3383L34.3559 89.9188C34.2245 89.8869 34.1439 89.7545 34.1758 89.6231ZM103.495 90.3931C103.63 90.3931 103.74 90.5027 103.74 90.6379V94.1545C103.74 94.2897 103.63 94.3993 103.495 94.3993C103.36 94.3993 103.25 94.2897 103.25 94.1545V90.6379C103.25 90.5027 103.36 90.3931 103.495 90.3931ZM39.3569 90.8818C39.3888 90.7504 39.5212 90.6698 39.6525 90.7017L43.1066 91.5408C43.238 91.5727 43.3186 91.7051 43.2867 91.8364C43.2548 91.9678 43.1224 92.0484 42.991 92.0165L39.537 91.1774C39.4056 91.1455 39.325 91.0131 39.3569 90.8818ZM46.265 92.5599C46.2969 92.4286 46.4293 92.3479 46.5606 92.3799L50.0147 93.2189C50.1461 93.2509 50.2267 93.3832 50.1948 93.5146C50.1629 93.646 50.0305 93.7266 49.8991 93.6947L46.4451 92.8556C46.3137 92.8237 46.2331 92.6913 46.265 92.5599ZM53.1731 94.2381C53.205 94.1067 53.3374 94.0261 53.4687 94.058L56.9228 94.8971C57.0542 94.929 57.1348 95.0614 57.1029 95.1928C57.071 95.3241 56.9386 95.4048 56.8072 95.3729L53.3532 94.5338C53.2218 94.5019 53.1412 94.3695 53.1731 94.2381ZM60.0812 95.9163C60.1131 95.7849 60.2455 95.7043 60.3768 95.7362L63.8309 96.5753C63.9623 96.6072 64.0429 96.7396 64.011 96.8709C63.9791 97.0023 63.8467 97.0829 63.7153 97.051L60.2613 96.2119C60.1299 96.18 60.0493 96.0477 60.0812 95.9163ZM66.9893 97.5945C67.0212 97.4631 67.1536 97.3825 67.285 97.4144L70.739 98.2535C70.8704 98.2854 70.951 98.4177 70.9191 98.5491C70.8872 98.6805 70.7548 98.7611 70.6234 98.7292L67.1694 97.8901C67.038 97.8582 66.9574 97.7258 66.9893 97.5945ZM103.495 97.4263C103.63 97.4263 103.74 97.5359 103.74 97.6711V101.188C103.74 101.323 103.63 101.433 103.495 101.433C103.36 101.433 103.25 101.323 103.25 101.188V97.6711C103.25 97.5359 103.36 97.4263 103.495 97.4263ZM73.8974 99.2726C73.9293 99.1412 74.0617 99.0606 74.1931 99.0925L77.6471 99.9316C77.7785 99.9635 77.8591 100.096 77.8272 100.227C77.7953 100.359 77.6629 100.439 77.5315 100.407L74.0775 99.5683C73.9461 99.5364 73.8655 99.404 73.8974 99.2726ZM80.8055 100.951C80.8374 100.819 80.9698 100.739 81.1012 100.771L84.5552 101.61C84.6866 101.642 84.7672 101.774 84.7353 101.905C84.7034 102.037 84.571 102.117 84.4396 102.086L80.9856 101.246C80.8542 101.215 80.7736 101.082 80.8055 100.951ZM87.7136 102.629C87.7455 102.498 87.8779 102.417 88.0093 102.449L91.4633 103.288C91.5947 103.32 91.6753 103.452 91.6434 103.584C91.6115 103.715 91.4791 103.796 91.3477 103.764L87.8937 102.925C87.7623 102.893 87.6817 102.76 87.7136 102.629ZM94.6217 104.307C94.6536 104.176 94.786 104.095 94.9174 104.127L98.3714 104.966C98.5028 104.998 98.5834 105.13 98.5515 105.262C98.5196 105.393 98.3872 105.474 98.2559 105.442L94.8018 104.603C94.6704 104.571 94.5898 104.439 94.6217 104.307ZM103.495 104.46C103.63 104.46 103.74 104.569 103.74 104.704V106.463C103.74 106.538 103.705 106.609 103.646 106.655C103.587 106.701 103.51 106.718 103.437 106.701L101.71 106.281C101.579 106.249 101.498 106.117 101.53 105.985C101.562 105.854 101.694 105.773 101.825 105.805L103.25 106.151V104.704C103.25 104.569 103.36 104.46 103.495 104.46Z" fill="#E4F8FF"/>
<path d="M107.947 75.1323L91.0999 71.1009C89.8505 70.7996 88.5495 70.7874 87.2948 71.0653C86.0401 71.3432 84.8642 71.904 83.8555 72.7055C82.8468 73.507 82.0315 74.5284 81.4709 75.693C80.9103 76.8575 80.6189 78.1349 80.6187 79.4291C80.6178 81.354 81.261 83.223 82.4444 84.7342C83.6279 86.2453 85.2825 87.3104 87.141 87.7574L107.947 92.7787V75.1323Z" fill="#368CFB"/>
<path d="M34.3516 34.2677C34.3516 35.3761 35.3976 36.427 36.2891 36.938C37.2625 37.4442 38.3032 37.8007 39.3779 37.996C41.4207 38.4783 43.4776 38.9245 45.5274 39.4356L62.3754 43.3655L74.8008 46.2446L75.8538 46.4893L103.232 53.4926C103.232 53.4926 106.742 54.306 106.679 56.4941C106.615 58.6821 106.679 95.563 106.679 95.563C106.679 97.7223 106.854 99.9896 106.735 102.178C106.573 105.244 103.786 108.339 100.522 107.871L90.6379 106.338C90.6379 106.338 98.4933 108.54 102.017 108.807C103.549 108.96 105.091 108.647 106.451 107.907C107.81 107.167 108.927 106.033 109.662 104.646C111.235 101.429 110.94 98.2621 110.891 94.8072C110.856 92.8207 110.778 90.8341 110.764 88.8476V87.8327C110.617 76.518 110.322 65.1888 110.322 53.8741C110.402 52.9917 110.239 52.1039 109.852 51.3117C109.185 50.2537 107.816 49.8722 106.58 49.5915L41.182 34.8579L34.3516 34.2677Z" fill="#A1DFF6"/>
<ellipse rx="2.56621" ry="2.56661" transform="matrix(0.989845 0.175692 -0.175635 0.989856 88.7164 79.9252)" fill="white"/>
<path d="M30.7191 112.676C41.5639 112.991 50.6104 104.453 50.9252 93.6066C51.24 82.76 42.7038 73.7119 31.859 73.3971C21.0143 73.0823 11.9677 81.6199 11.6529 92.4665C11.3381 103.313 19.8744 112.361 30.7191 112.676Z" fill="white"/>
<g filter="url(#filter5_d_12611_137247)">
<path d="M31.3863 109.512C40.3921 109.512 47.6928 102.21 47.6928 93.2027C47.6928 84.1954 40.3921 76.8935 31.3863 76.8935C22.3804 76.8935 15.0798 84.1954 15.0798 93.2027C15.0798 102.21 22.3804 109.512 31.3863 109.512Z" fill="#368CFB"/>
</g>
<g filter="url(#filter6_b_12611_137247)">
<path d="M36.0524 90.6583C35.8783 89.0438 34.428 88.5395 32.6011 88.4334L32.583 86.188L31.1686 86.2257L31.1864 88.4119C30.8146 88.4218 30.4346 88.439 30.057 88.4563L30.0395 86.2555L28.626 86.293L28.6436 88.5378C28.3375 88.552 28.0368 88.5655 27.7436 88.5734L27.7434 88.5664L25.7927 88.6174L25.8049 90.0772C25.8049 90.0772 26.8491 90.0303 26.8319 90.0493C27.4047 90.0342 27.5938 90.3507 27.6504 90.6266L27.6712 93.1847C27.7106 93.1838 27.7622 93.184 27.8208 93.1903C27.7736 93.1916 27.7233 93.1926 27.6713 93.1945L27.6999 96.7781C27.6762 96.9529 27.5725 97.2336 27.1722 97.2449C27.1905 97.2599 26.1442 97.2719 26.1442 97.2719L25.8763 98.9117L27.7168 98.8628C28.0594 98.8542 28.3964 98.8509 28.7274 98.844L28.7463 101.115L30.1591 101.078L30.1409 98.8307C30.5289 98.8282 30.9042 98.8212 31.2708 98.8112L31.2883 101.048L32.7027 101.01L32.6847 98.7431C35.0615 98.5482 36.721 97.9252 36.9102 95.7618C37.0629 94.0198 36.211 93.267 34.8588 92.9896C35.6756 92.5642 36.182 91.8397 36.0524 90.6583ZM34.1129 95.5668C34.1273 97.2639 31.1188 97.1507 30.1603 97.177L30.1364 94.168C31.0951 94.1428 34.0987 93.7966 34.1129 95.5668ZM33.4208 91.339C33.4329 92.883 30.9236 92.7694 30.1252 92.7906L30.1033 90.0616C30.9017 90.0404 33.4076 89.7286 33.4208 91.339Z" fill="white"/>
</g>
<defs>
<filter id="filter0_d_12611_137247" x="47.8546" y="0" width="62.7724" height="62.7778" filterUnits="userSpaceOnUse" color-interpolation-filters="sRGB">
<feFlood flood-opacity="0" result="BackgroundImageFix"/>
<feColorMatrix in="SourceAlpha" type="matrix" values="0 0 0 0 0 0 0 0 0 0 0 0 0 0 0 0 0 0 127 0" result="hardAlpha"/>
<feOffset dy="2"/>
<feGaussianBlur stdDeviation="7.5"/>
<feColorMatrix type="matrix" values="0 0 0 0 0.368627 0 0 0 0 0.584314 0 0 0 0 0.784314 0 0 0 0.2 0"/>
<feBlend mode="normal" in2="BackgroundImageFix" result="effect1_dropShadow_12611_137247"/>
<feBlend mode="normal" in="SourceGraphic" in2="effect1_dropShadow_12611_137247" result="shape"/>
</filter>
<filter id="filter1_b_12611_137247" x="87.8435" y="62.7101" width="69.4483" height="69.4552" filterUnits="userSpaceOnUse" color-interpolation-filters="sRGB">
<feFlood flood-opacity="0" result="BackgroundImageFix"/>
<feGaussianBlur in="BackgroundImage" stdDeviation="7.5"/>
<feComposite in2="SourceAlpha" operator="in" result="effect1_backgroundBlur_12611_137247"/>
<feBlend mode="normal" in="SourceGraphic" in2="effect1_backgroundBlur_12611_137247" result="shape"/>
</filter>
<filter id="filter2_d_12611_137247" x="91.2256" y="68.0435" width="62.7744" height="62.7783" filterUnits="userSpaceOnUse" color-interpolation-filters="sRGB">
<feFlood flood-opacity="0" result="BackgroundImageFix"/>
<feColorMatrix in="SourceAlpha" type="matrix" values="0 0 0 0 0 0 0 0 0 0 0 0 0 0 0 0 0 0 127 0" result="hardAlpha"/>
<feOffset dy="2"/>
<feGaussianBlur stdDeviation="7.5"/>
<feColorMatrix type="matrix" values="0 0 0 0 0.368627 0 0 0 0 0.584314 0 0 0 0 0.784314 0 0 0 0.2 0"/>
<feBlend mode="normal" in2="BackgroundImageFix" result="effect1_dropShadow_12611_137247"/>
<feBlend mode="normal" in="SourceGraphic" in2="effect1_dropShadow_12611_137247" result="shape"/>
</filter>
<filter id="filter3_b_12611_137247" x="104.684" y="77.1581" width="35.6357" height="40.1174" filterUnits="userSpaceOnUse" color-interpolation-filters="sRGB">
<feFlood flood-opacity="0" result="BackgroundImageFix"/>
<feGaussianBlur in="BackgroundImage" stdDeviation="7.5"/>
<feComposite in2="SourceAlpha" operator="in" result="effect1_backgroundBlur_12611_137247"/>
<feBlend mode="normal" in="SourceGraphic" in2="effect1_backgroundBlur_12611_137247" result="shape"/>
</filter>
<filter id="filter4_b_12611_137247" x="100.204" y="75.1661" width="45.094" height="44.5987" filterUnits="userSpaceOnUse" color-interpolation-filters="sRGB">
<feFlood flood-opacity="0" result="BackgroundImageFix"/>
<feGaussianBlur in="BackgroundImage" stdDeviation="7.5"/>
<feComposite in2="SourceAlpha" operator="in" result="effect1_backgroundBlur_12611_137247"/>
<feBlend mode="normal" in="SourceGraphic" in2="effect1_backgroundBlur_12611_137247" result="shape"/>
</filter>
<filter id="filter5_d_12611_137247" x="0" y="63.8244" width="62.7724" height="62.7778" filterUnits="userSpaceOnUse" color-interpolation-filters="sRGB">
<feFlood flood-opacity="0" result="BackgroundImageFix"/>
<feColorMatrix in="SourceAlpha" type="matrix" values="0 0 0 0 0 0 0 0 0 0 0 0 0 0 0 0 0 0 127 0" result="hardAlpha"/>
<feOffset dy="2"/>
<feGaussianBlur stdDeviation="7.5"/>
<feColorMatrix type="matrix" values="0 0 0 0 0.368627 0 0 0 0 0.584314 0 0 0 0 0.784314 0 0 0 0.2 0"/>
<feBlend mode="normal" in2="BackgroundImageFix" result="effect1_dropShadow_12611_137247"/>
<feBlend mode="normal" in="SourceGraphic" in2="effect1_dropShadow_12611_137247" result="shape"/>
</filter>
<filter id="filter6_b_12611_137247" x="10.7129" y="71.108" width="41.2946" height="45.0866" filterUnits="userSpaceOnUse" color-interpolation-filters="sRGB">
<feFlood flood-opacity="0" result="BackgroundImageFix"/>
<feGaussianBlur in="BackgroundImage" stdDeviation="7.5"/>
<feComposite in2="SourceAlpha" operator="in" result="effect1_backgroundBlur_12611_137247"/>
<feBlend mode="normal" in="SourceGraphic" in2="effect1_backgroundBlur_12611_137247" result="shape"/>
</filter>
</defs>
</svg>
