<svg width="144" height="121" viewBox="0 0 144 121" fill="none" xmlns="http://www.w3.org/2000/svg">
<path d="M140.431 50.9175C143.074 57.4209 144.273 64.4094 143.948 71.4104C143.622 78.4114 141.779 85.2617 138.543 91.4978C133.512 101.287 125.087 108.963 114.806 113.123C106.705 116.565 97.6042 116.931 89.2464 114.153C78.9899 110.324 72.022 102.568 60.2677 103.147C50.0438 103.662 42.6526 111.836 32.8844 113.703C8.88745 118.272 -7.9137 86.5741 3.8406 67.4586C7.7804 61.0224 14.8786 55.1332 22.693 54.5862C28.3911 54.2643 33.8938 56.2917 39.6244 56.0665C43.7911 56.0115 47.8981 55.0789 51.6712 53.3309C55.4443 51.5828 58.7968 49.0596 61.505 45.9295C65.5425 41.2632 66.4542 34.8914 70.915 30.5147C79.9667 21.6006 93.7072 20.8604 105.657 23.0166C112.607 24.2859 119.173 27.1012 124.859 31.2493C130.545 35.3974 135.202 40.7696 138.478 46.9592C139.161 48.2465 139.748 49.5659 140.431 50.9175Z" fill="#EEFBFF"/>
<path fill-rule="evenodd" clip-rule="evenodd" d="M16.0604 88.5327C16.6201 88.5327 17.0739 88.9804 17.0739 89.5327V93.4985C17.0739 94.0508 16.6201 94.4985 16.0604 94.4985C15.5006 94.4985 15.0469 94.0508 15.0469 93.4985V89.5327C15.0469 88.9804 15.5006 88.5327 16.0604 88.5327Z" fill="#21ACE3"/>
<path fill-rule="evenodd" clip-rule="evenodd" d="M13.0449 91.5156C13.0449 90.9633 13.4987 90.5156 14.0584 90.5156H18.062C18.6217 90.5156 19.0755 90.9633 19.0755 91.5156C19.0755 92.0679 18.6217 92.5156 18.062 92.5156H14.0584C13.4987 92.5156 13.0449 92.0679 13.0449 91.5156Z" fill="#21ACE3"/>
<path fill-rule="evenodd" clip-rule="evenodd" d="M128.69 64.5312C129.25 64.5312 129.704 64.979 129.704 65.5312V69.497C129.704 70.0493 129.25 70.497 128.69 70.497C128.131 70.497 127.677 70.0493 127.677 69.497V65.5312C127.677 64.979 128.131 64.5312 128.69 64.5312Z" fill="#21ACE3"/>
<path fill-rule="evenodd" clip-rule="evenodd" d="M125.674 67.5142C125.674 66.9619 126.128 66.5142 126.687 66.5142H130.691C131.251 66.5142 131.704 66.9619 131.704 67.5142C131.704 68.0664 131.251 68.5142 130.691 68.5142H126.687C126.128 68.5142 125.674 68.0664 125.674 67.5142Z" fill="#21ACE3"/>
<path d="M37.55 47.5312C39.9404 48.1403 110.936 48.4501 110.936 48.4501L113.512 53.8322L112.816 92.2472V100.076L108.628 102.208L102.76 103.531L102.961 81.0682L103.059 66.3344L80.6234 61.2516L34.459 50.0726L35.8551 47.5312H37.55Z" fill="#3B5B7B"/>
<path d="M30.4053 48.4376C30.4414 46.997 32.166 46.2767 33.2659 45.8088C34.9522 45.1286 36.7329 44.7223 38.543 44.6048C40.6084 44.4628 42.6738 44.5627 44.7082 44.6048L56.4191 44.8151L58.2263 44.8466L91.0766 45.4407L105.018 45.6879L110.667 45.793C111.282 45.8599 111.871 46.0807 112.382 46.4358C112.893 46.7908 113.309 47.269 113.595 47.8277C114.529 49.7258 114.395 55.1518 114.395 55.1518V82.187C114.395 86.0672 114.514 89.9421 114.447 93.8223C114.411 95.9254 114.813 98.2493 114.085 100.274C112.794 103.88 108.488 105.005 105.132 105.531C105.132 104.711 104.77 103.023 104.765 102.208C105.844 102.382 107.538 102.208 108.431 101.572C109.217 101.055 109.863 100.347 110.311 99.5112C110.639 98.6479 110.778 97.722 110.719 96.7982C110.636 91.2723 110.631 85.757 110.621 80.2048L110.61 63.2592V53.4325C110.61 52.5071 110.569 51.4766 109.923 50.8036C109.278 50.1306 108.349 50.1201 107.481 50.0938C83.9905 49.4629 60.4965 49.0966 36.9991 48.995" fill="#A1DFF6"/>
<path d="M99.452 65.8347L34.3502 50.3108C32.7242 49.9254 31.3108 48.9295 30.4053 47.5312V103.72L96.2193 119.397C96.955 119.571 97.7207 119.576 98.4586 119.412C99.1966 119.248 99.8875 118.92 100.479 118.451C101.071 117.983 101.548 117.387 101.874 116.708C102.201 116.029 102.368 115.285 102.364 114.533V69.5038C102.363 68.6555 102.076 67.8321 101.548 67.1664C101.019 66.5007 100.281 66.0316 99.452 65.8347Z" fill="#4AC6F8"/>
<path fill-rule="evenodd" clip-rule="evenodd" d="M30.3847 53.5343C30.4162 53.4038 30.549 53.3232 30.6812 53.3543L32.3691 53.7512C32.5013 53.7823 32.583 53.9133 32.5515 54.0438C32.52 54.1742 32.3872 54.2548 32.2549 54.2237L30.5671 53.8269C30.4348 53.7958 30.3532 53.6648 30.3847 53.5343ZM35.4482 54.7248C35.4797 54.5943 35.6125 54.5138 35.7447 54.5449L39.1204 55.3385C39.2527 55.3696 39.3343 55.5006 39.3028 55.6311C39.2713 55.7616 39.1385 55.8422 39.0063 55.8111L35.6306 55.0174C35.4983 54.9863 35.4167 54.8553 35.4482 54.7248ZM42.1995 56.3122C42.2311 56.1817 42.3638 56.1011 42.4961 56.1322L45.8717 56.9259C46.004 56.957 46.0857 57.088 46.0542 57.2185C46.0226 57.349 45.8899 57.4296 45.7576 57.3985L42.3819 56.6048C42.2497 56.5737 42.168 56.4427 42.1995 56.3122ZM48.9509 57.8996C48.9824 57.7691 49.1152 57.6885 49.2474 57.7196L52.6231 58.5133C52.7553 58.5444 52.837 58.6754 52.8055 58.8059C52.774 58.9364 52.6412 59.0169 52.509 58.9858L49.1333 58.1922C49.001 58.1611 48.9194 58.0301 48.9509 57.8996ZM55.7022 59.4869C55.7337 59.3565 55.8665 59.2759 55.9988 59.307L59.3744 60.1007C59.5067 60.1318 59.5884 60.2628 59.5568 60.3932C59.5253 60.5237 59.3926 60.6043 59.2603 60.5732L55.8846 59.7795C55.7524 59.7484 55.6707 59.6174 55.7022 59.4869ZM62.4536 61.0743C62.4851 60.9438 62.6179 60.8632 62.7501 60.8943L66.1258 61.688C66.258 61.7191 66.3397 61.8501 66.3082 61.9806C66.2767 62.1111 66.1439 62.1917 66.0117 62.1606L62.636 61.3669C62.5037 61.3358 62.4221 61.2048 62.4536 61.0743ZM69.2049 62.6617C69.2364 62.5312 69.3692 62.4506 69.5014 62.4817L72.8771 63.2754C73.0094 63.3065 73.091 63.4375 73.0595 63.568C73.028 63.6985 72.8952 63.7791 72.763 63.748L69.3873 62.9543C69.2551 62.9232 69.1734 62.7922 69.2049 62.6617ZM75.9562 64.2491C75.9878 64.1186 76.1205 64.038 76.2528 64.0691L79.6285 64.8628C79.7607 64.8939 79.8424 65.0249 79.8109 65.1554C79.7794 65.2859 79.6466 65.3664 79.5143 65.3353L76.1387 64.5417C76.0064 64.5106 75.9247 64.3796 75.9562 64.2491ZM82.7076 65.8364C82.7391 65.7059 82.8719 65.6254 83.0041 65.6565L86.3798 66.4501C86.5121 66.4812 86.5937 66.6122 86.5622 66.7427C86.5307 66.8732 86.3979 66.9538 86.2657 66.9227L82.89 66.129C82.7577 66.0979 82.6761 65.9669 82.7076 65.8364ZM89.4589 67.4238C89.4904 67.2933 89.6232 67.2127 89.7555 67.2438L93.1311 68.0375C93.2634 68.0686 93.3451 68.1996 93.3135 68.3301C93.282 68.4606 93.1493 68.5412 93.017 68.5101L89.6413 67.7164C89.5091 67.6853 89.4274 67.5543 89.4589 67.4238ZM96.2103 69.0112C96.2418 68.8807 96.3745 68.8001 96.5068 68.8312L98.1947 69.228C98.3055 69.2541 98.3838 69.3519 98.3838 69.4643V71.1651C98.3838 71.2992 98.2736 71.408 98.1376 71.408C98.0016 71.408 97.8914 71.2992 97.8914 71.1651V69.6561L96.3927 69.3038C96.2604 69.2727 96.1788 69.1417 96.2103 69.0112ZM98.1376 74.3237C98.2736 74.3237 98.3838 74.4324 98.3838 74.5666V77.9681C98.3838 78.1023 98.2736 78.211 98.1376 78.211C98.0016 78.211 97.8914 78.1023 97.8914 77.9681V74.5666C97.8914 74.4324 98.0016 74.3237 98.1376 74.3237ZM98.1376 81.1267C98.2736 81.1267 98.3838 81.2355 98.3838 81.3696V84.7711C98.3838 84.9053 98.2736 85.014 98.1376 85.014C98.0016 85.014 97.8914 84.9053 97.8914 84.7711V81.3696C97.8914 81.2355 98.0016 81.1267 98.1376 81.1267ZM98.1376 87.9297C98.2736 87.9297 98.3838 88.0385 98.3838 88.1726V91.5742C98.3838 91.7083 98.2736 91.8171 98.1376 91.8171C98.0016 91.8171 97.8914 91.7083 97.8914 91.5742V88.1726C97.8914 88.0385 98.0016 87.9297 98.1376 87.9297ZM98.1376 94.7328C98.2736 94.7328 98.3838 94.8415 98.3838 94.9757V98.3772C98.3838 98.5113 98.2736 98.6201 98.1376 98.6201C98.0016 98.6201 97.8914 98.5113 97.8914 98.3772V94.9757C97.8914 94.8415 98.0016 94.7328 98.1376 94.7328ZM30.4452 100.795C30.4774 100.665 30.6106 100.585 30.7427 100.617L32.4291 101.023C32.5611 101.055 32.6421 101.186 32.6099 101.316C32.5777 101.447 32.4445 101.527 32.3124 101.495L30.6261 101.089C30.494 101.057 30.413 100.926 30.4452 100.795ZM98.1376 101.536C98.2736 101.536 98.3838 101.645 98.3838 101.779V105.18C98.3838 105.314 98.2736 105.423 98.1376 105.423C98.0016 105.423 97.8914 105.314 97.8914 105.18V101.779C97.8914 101.645 98.0016 101.536 98.1376 101.536ZM35.5042 102.013C35.5364 101.883 35.6696 101.803 35.8017 101.834L39.1744 102.646C39.3065 102.678 39.3874 102.809 39.3552 102.94C39.323 103.07 39.1898 103.15 39.0577 103.118L35.6851 102.306C35.553 102.275 35.472 102.143 35.5042 102.013ZM42.2495 103.636C42.2818 103.506 42.4149 103.426 42.547 103.458L45.9197 104.269C46.0518 104.301 46.1327 104.433 46.1005 104.563C46.0683 104.693 45.9351 104.773 45.803 104.741L42.4304 103.93C42.2983 103.898 42.2173 103.766 42.2495 103.636ZM48.9949 105.259C49.0271 105.129 49.1603 105.049 49.2924 105.081L52.665 105.893C52.7971 105.924 52.8781 106.056 52.8458 106.186C52.8136 106.316 52.6804 106.396 52.5484 106.365L49.1757 105.553C49.0436 105.521 48.9626 105.39 48.9949 105.259ZM55.7402 106.883C55.7724 106.752 55.9056 106.672 56.0377 106.704L59.4103 107.516C59.5424 107.548 59.6234 107.679 59.5912 107.809C59.559 107.94 59.4258 108.02 59.2937 107.988L55.921 107.176C55.7889 107.144 55.708 107.013 55.7402 106.883ZM62.4855 108.506C62.5177 108.376 62.6509 108.296 62.783 108.327L66.1557 109.139C66.2877 109.171 66.3687 109.302 66.3365 109.433C66.3043 109.563 66.1711 109.643 66.039 109.611L62.6663 108.799C62.5342 108.768 62.4533 108.636 62.4855 108.506ZM98.1376 108.339C98.2736 108.339 98.3838 108.448 98.3838 108.582V111.983C98.3838 112.117 98.2736 112.226 98.1376 112.226C98.0016 112.226 97.8914 112.117 97.8914 111.983V108.582C97.8914 108.448 98.0016 108.339 98.1376 108.339ZM69.2308 110.129C69.263 109.999 69.3962 109.919 69.5283 109.951L72.901 110.762C73.0331 110.794 73.114 110.926 73.0818 111.056C73.0496 111.186 72.9164 111.266 72.7843 111.234L69.4116 110.423C69.2796 110.391 69.1986 110.259 69.2308 110.129ZM75.9761 111.752C76.0084 111.622 76.1415 111.542 76.2736 111.574L79.6463 112.386C79.7784 112.417 79.8593 112.549 79.8271 112.679C79.7949 112.809 79.6617 112.889 79.5296 112.858L76.157 112.046C76.0249 112.014 75.9439 111.883 75.9761 111.752ZM82.7215 113.376C82.7537 113.245 82.8869 113.165 83.019 113.197L86.3916 114.009C86.5237 114.041 86.6047 114.172 86.5724 114.302C86.5402 114.433 86.407 114.513 86.2749 114.481L82.9023 113.669C82.7702 113.637 82.6892 113.506 82.7215 113.376ZM89.4668 114.999C89.499 114.869 89.6322 114.789 89.7643 114.82L93.1369 115.632C93.269 115.664 93.35 115.795 93.3178 115.926C93.2855 116.056 93.1524 116.136 93.0203 116.104L89.6476 115.292C89.5155 115.261 89.4346 115.129 89.4668 114.999ZM98.1376 115.142C98.2736 115.142 98.3838 115.251 98.3838 115.385V117.085C98.3838 117.16 98.3491 117.23 98.2896 117.277C98.2302 117.323 98.1527 117.339 98.0793 117.321L96.3929 116.916C96.2608 116.884 96.1799 116.752 96.2121 116.622C96.2443 116.492 96.3775 116.412 96.5096 116.444L97.8914 116.776V115.385C97.8914 115.251 98.0016 115.142 98.1376 115.142Z" fill="#E4F8FF"/>
<path d="M102.485 86.781L86.0349 82.8815C84.815 82.59 83.5447 82.5782 82.3195 82.8471C81.0944 83.1159 79.9462 83.6583 78.9613 84.4336C77.9763 85.2089 77.1802 86.1968 76.6329 87.3233C76.0855 88.4497 75.801 89.6853 75.8008 90.9372C75.7998 92.799 76.4279 94.6069 77.5835 96.0686C78.739 97.5303 80.3547 98.5605 82.1693 98.9928L102.485 103.85V86.781Z" fill="#368CFB"/>
<ellipse rx="2.5007" ry="2.49598" transform="matrix(0.984675 0.174399 -0.175071 0.984556 83.8418 91.417)" fill="white"/>
<path d="M30.4053 47.5312C30.4053 48.6014 31.4433 49.6159 32.3281 50.1093C33.2941 50.598 34.327 50.9422 35.3935 51.1308C37.4209 51.5964 39.4621 52.0272 41.4964 52.5206L58.2168 56.3147L70.5481 59.0943L71.5931 59.3306L98.7637 66.0919C98.7637 66.0919 102.247 66.8771 102.184 68.9896C102.122 71.1021 102.184 106.709 102.184 106.709C102.184 108.793 102.359 110.982 102.24 113.095C102.08 116.055 99.3141 119.043 96.0745 118.591L86.2652 117.111C86.2652 117.111 94.0611 119.237 97.5584 119.495C99.0788 119.643 100.609 119.34 101.958 118.626C103.308 117.912 104.416 116.817 105.145 115.478C106.706 112.372 106.413 109.314 106.365 105.979C106.33 104.061 106.253 102.143 106.239 100.225V99.2454C106.093 88.3216 105.8 77.3839 105.8 66.4602C105.88 65.6083 105.718 64.7512 105.333 63.9864C104.672 62.9649 103.313 62.5966 102.087 62.3256L37.184 48.1011L30.4053 47.5312Z" fill="#A1DFF6"/>
<path d="M44.621 38.926L41.0913 24.8449L46.4494 28.2207L47.6083 26.4299C51.2018 20.8771 58.4918 19.1334 63.891 22.5351L66.7305 24.3241L65.3682 24.5855C60.7369 25.4747 56.619 28.2669 54.0227 32.2786L53.6947 32.7855L59.0528 36.1613L44.621 38.926Z" fill="#3B5B7B"/>
<g filter="url(#filter0_d_12611_136807)">
<path d="M100.428 16.3858C99.8864 16.0861 99.3276 15.8174 98.7546 15.5811L96.5569 14.6177C96.8273 14.7479 97.0961 14.8865 97.3632 15.0334C105.985 19.7886 108.859 31.3827 103.767 40.9364C98.9608 49.9526 88.777 53.9263 80.3936 50.3349L83.1289 51.5337C83.33 51.6256 83.5312 51.7157 83.7358 51.7992L83.7983 51.8259C92.1175 55.1752 102.098 51.1914 106.84 42.2905C111.921 32.7284 109.053 21.141 100.428 16.3858Z" fill="#283F56"/>
<path d="M97.3534 15.0306C88.7316 10.2737 77.6095 14.159 72.5193 23.7128C67.429 33.2665 70.2962 44.8673 78.923 49.6225C87.5499 54.3776 98.6686 50.484 103.757 40.9403C108.846 31.3965 105.979 19.7874 97.3534 15.0306Z" fill="#368CFB"/>
<path d="M97.3534 15.0306C88.7316 10.2737 77.6095 14.159 72.5193 23.7128C67.429 33.2665 70.2962 44.8673 78.923 49.6225C87.5499 54.3776 98.6686 50.484 103.757 40.9403C108.846 31.3965 105.979 19.7874 97.3534 15.0306ZM101.651 39.7748C101.406 40.2357 101.145 40.6809 100.868 41.1106L100.652 40.9636C100.247 41.5888 99.8059 42.1899 99.3296 42.7635L99.5223 42.9422C99.0396 43.5212 98.5201 44.0694 97.967 44.5835L97.798 44.3747C97.2618 44.8751 96.6925 45.3397 96.0939 45.7656L96.2325 45.9976C95.6321 46.4278 95.0035 46.8182 94.351 47.1664L94.2461 46.916C93.6142 47.253 92.9602 47.548 92.2885 47.7992L92.3595 48.0647C91.6888 48.3159 91.0014 48.5212 90.3021 48.6791L90.2649 48.4019C89.5831 48.5552 88.891 48.6601 88.194 48.7158V48.9997C87.4938 49.0567 86.7903 49.0629 86.0893 49.0181L86.1248 48.7342C85.4423 48.6919 84.7641 48.5981 84.0961 48.4537L84.0251 48.7309C83.3463 48.5854 82.6795 48.3901 82.0303 48.1465L82.1334 47.8793C81.5091 47.6448 80.9028 47.3657 80.3194 47.0445L80.2873 47.0278L80.1521 47.2816C79.544 46.9445 78.9619 46.5633 78.4108 46.1412L78.5799 45.9075C78.0344 45.4894 77.5203 45.033 77.0415 44.5417L76.8268 44.7504C76.3373 44.2444 75.8853 43.7043 75.4743 43.1342L75.689 42.9505C75.2773 42.3815 74.9067 41.7845 74.58 41.164L74.3484 41.3143C74.011 40.6762 73.7179 40.0163 73.471 39.3391L73.7179 39.2205C73.4725 38.5444 73.2714 37.8534 73.116 37.1518L72.8574 37.2336C72.6981 36.5123 72.5852 35.7818 72.5193 35.0464L72.7847 35.0013C72.7185 34.2691 72.7004 33.5335 72.7306 32.799L72.4652 32.8074C72.4924 32.0538 72.5675 31.3027 72.69 30.5584L72.9503 30.5884C73.0734 29.8524 73.2428 29.1247 73.4575 28.4095L73.2039 28.3427C73.4213 27.6128 73.6827 26.8963 73.9866 26.1972L74.2267 26.3024C74.4177 25.865 74.6307 25.4258 74.8573 25.0001C75.2082 24.3405 75.5995 23.7027 76.0288 23.09L75.8192 22.9314C76.2526 22.3115 76.7252 21.7193 77.2342 21.1582L77.4185 21.3469C77.9148 20.7996 78.4449 20.2833 79.0059 19.8008L78.8487 19.5871C79.4131 19.1039 80.0088 18.6577 80.6322 18.2513L80.7607 18.4901C81.3645 18.0929 81.9948 17.7365 82.6473 17.4232L82.5526 17.1677C83.2096 16.8535 83.8874 16.5835 84.5813 16.3596L84.6422 16.6284C85.3121 16.4106 85.9968 16.2399 86.6911 16.1175L86.6657 15.8387C87.3627 15.715 88.0678 15.6408 88.7755 15.6166L88.7654 15.8955C89.454 15.8733 90.1433 15.9006 90.8279 15.9773L90.8735 15.6968C91.5664 15.7736 92.2525 15.9019 92.9258 16.0808L92.8379 16.3529C93.4965 16.5289 94.1412 16.7521 94.7668 17.0208L94.8818 16.7603C95.2977 16.9407 95.7102 17.1427 96.1159 17.3664C96.3221 17.48 96.525 17.5968 96.7228 17.7204L96.5774 17.9658C97.1602 18.3254 97.7157 18.7267 98.2392 19.1663L98.4083 18.9409C98.9443 19.3927 99.4465 19.882 99.9112 20.4052L99.7134 20.6055C100.174 21.1269 100.596 21.6798 100.978 22.2602L101.198 22.0932C101.591 22.692 101.943 23.3168 102.249 23.9632L102.009 24.1051C102.314 24.749 102.576 25.4122 102.792 26.0904L103.042 25.9835C103.263 26.6828 103.438 27.3956 103.566 28.1173L103.306 28.1874C103.434 28.905 103.515 29.6301 103.548 30.358L103.813 30.3246C103.848 31.0737 103.836 31.8243 103.777 32.572H103.512C103.452 33.3117 103.346 34.0472 103.196 34.7742L103.456 34.816C103.301 35.5598 103.1 36.2936 102.854 37.0132L102.606 36.9348C102.364 37.643 102.079 38.3361 101.752 39.0101L101.987 39.1254C101.877 39.3391 101.766 39.5578 101.651 39.7748Z" fill="#E4F8FF"/>
<path d="M91.3137 30.6554C92.2884 31.2803 92.8141 32.1796 92.868 33.2521L95.8244 32.7691C95.7477 31.5955 95.1994 30.1195 93.7246 28.828L94.5857 27.5205L92.1333 25.9481L91.2121 27.3468C88.2848 26.2916 85.2453 27.2402 83.463 29.9464C81.6807 32.6526 82.0168 35.8088 84.2031 37.989L83.362 39.2661L85.8145 40.8385L86.5955 39.6527C88.3706 40.4881 89.9603 40.383 91.0984 39.945L90.3333 37.0327C89.3697 37.4095 88.3033 37.3312 87.2971 36.6861C85.5679 35.5774 85.1941 33.5646 86.3757 31.7706C87.6086 29.9664 89.5844 29.5466 91.3137 30.6554Z" fill="#4AC6F8"/>
<path d="M90.5422 29.2526C91.5169 29.8775 92.0426 30.7768 92.0965 31.8492L95.0529 31.3663C94.9762 30.1927 94.4279 28.7167 92.9531 27.4251L93.8142 26.1177L91.3618 24.5452L90.4406 25.9439C87.5134 24.8888 84.4738 25.8374 82.6915 28.5436C80.9092 31.2497 81.2453 34.406 83.4316 36.5862L82.5906 37.8633L85.043 39.4357L85.824 38.2499C87.5991 39.0853 89.1888 38.9801 90.3269 38.5422L89.5618 35.6299C88.5982 36.0067 87.5318 35.9284 86.5257 35.2833C84.7964 34.1745 84.4227 32.1618 85.6042 30.3678C86.8371 28.5636 88.8129 28.1438 90.5422 29.2526Z" fill="#EEFBFF"/>
</g>
<defs>
<filter id="filter0_d_12611_136807" x="55" y="0" width="69.3525" height="70.0039" filterUnits="userSpaceOnUse" color-interpolation-filters="sRGB">
<feFlood flood-opacity="0" result="BackgroundImageFix"/>
<feColorMatrix in="SourceAlpha" type="matrix" values="0 0 0 0 0 0 0 0 0 0 0 0 0 0 0 0 0 0 127 0" result="hardAlpha"/>
<feOffset dy="2"/>
<feGaussianBlur stdDeviation="7.5"/>
<feColorMatrix type="matrix" values="0 0 0 0 0.368627 0 0 0 0 0.584314 0 0 0 0 0.784314 0 0 0 0.2 0"/>
<feBlend mode="normal" in2="BackgroundImageFix" result="effect1_dropShadow_12611_136807"/>
<feBlend mode="normal" in="SourceGraphic" in2="effect1_dropShadow_12611_136807" result="shape"/>
</filter>
</defs>
</svg>
