<svg width="150" height="130" viewBox="0 0 150 130" fill="none" xmlns="http://www.w3.org/2000/svg">
<path d="M41.3304 34.0654C43.7819 34.6859 116.592 35.0015 116.592 35.0015L119.233 40.4847L118.52 79.6209V87.5969L114.225 89.7687L108.207 91.1168L108.413 68.232L108.514 53.2216L85.5045 48.0434L38.1604 36.6545L39.5922 34.0654H41.3304Z" fill="#3B5B7B"/>
<path d="M34.1568 35.1008C34.1938 33.6116 35.9585 32.867 37.0839 32.3833C38.8094 31.6802 40.6316 31.2602 42.4838 31.1387C44.5973 30.9919 46.7107 31.0952 48.7925 31.1387L60.7758 31.3561L62.6251 31.3887L96.2397 32.0028L110.506 32.2583L116.286 32.367C116.915 32.4362 117.518 32.6644 118.041 33.0314C118.564 33.3984 118.99 33.8927 119.282 34.4703C120.238 36.4324 120.101 42.0413 120.101 42.0413V69.9881C120.101 73.9991 120.222 78.0047 120.154 82.0158C120.117 84.1898 120.529 86.592 119.784 88.6845C118.463 92.4129 114.056 93.576 110.622 94.1195C110.622 93.2716 110.252 91.527 110.247 90.6846C111.351 90.8639 113.084 90.6846 113.998 90.027C114.802 89.4928 115.463 88.7605 115.921 87.8964C116.258 87.0041 116.4 86.0469 116.339 85.092C116.254 79.3798 116.249 73.6785 116.238 67.9391L116.228 50.4221V40.264C116.228 39.3075 116.186 38.2422 115.525 37.5465C114.865 36.8509 113.914 36.84 113.026 36.8128C88.9888 36.1606 64.9482 35.782 40.904 35.6769" fill="#A1DFF6"/>
<path d="M78.0739 48.6192C88.8445 48.9318 97.8292 40.4526 98.1418 29.6802C98.4544 18.9078 89.9766 9.92163 79.206 9.60896C68.4355 9.29629 59.4508 17.7756 59.1382 28.5479C58.8255 39.3203 67.3034 48.3065 78.0739 48.6192Z" fill="white"/>
<g filter="url(#filter0_d_12611_135821)">
<path d="M78.7367 45.4071C87.6809 45.4071 94.9316 38.1551 94.9316 29.2094C94.9316 20.2637 87.6809 13.0117 78.7367 13.0117C69.7925 13.0117 62.5417 20.2637 62.5417 29.2094C62.5417 38.1551 69.7925 45.4071 78.7367 45.4071Z" fill="#368CFB"/>
</g>
<path fill-rule="evenodd" clip-rule="evenodd" d="M79.1222 20.7894L79.1231 20.7863L84.0435 28.9521L84.0409 28.9536L84.0416 28.9539L79.1222 31.8623V31.8629L79.1217 31.8626L79.1211 31.8629V31.8623L74.2017 28.9539L74.2029 28.9533L74.2017 28.9526L79.1222 20.7868V20.7894ZM79.1202 36.8145L74.2017 29.8824L79.1217 32.7896L84.0446 29.8824L79.1222 36.8159V36.8174L79.1217 36.8167L79.1211 36.8174L79.1202 36.8145Z" fill="white"/>
<path d="M117.935 116.308C128.706 116.621 137.69 108.142 138.003 97.3692C138.316 86.5968 129.838 77.6106 119.067 77.2979C108.297 76.9852 99.3119 85.4645 98.9993 96.2369C98.6867 107.009 107.165 115.995 117.935 116.308Z" fill="white"/>
<g filter="url(#filter1_d_12611_135821)">
<path d="M118.699 112.985C127.643 112.985 134.825 105.733 134.74 96.7869C134.656 87.8412 127.337 80.5892 118.393 80.5892C109.448 80.5892 102.266 87.8412 102.351 96.7869C102.435 105.733 109.754 112.985 118.699 112.985Z" fill="#368CFB"/>
</g>
<path d="M121.156 98.041C121.156 96.6047 120.304 96.1123 118.599 95.9071C117.382 95.7429 117.138 95.4147 117.138 94.8401C117.138 94.2655 117.544 93.8963 118.356 93.8963C119.086 93.8963 119.492 94.1425 119.695 94.7581C119.736 94.8812 119.857 94.9632 119.979 94.9632H120.628C120.791 94.9632 120.913 94.8401 120.913 94.676V94.635C120.75 93.7321 120.02 93.0345 119.086 92.9525V91.9676C119.086 91.8034 118.964 91.6803 118.762 91.6392H118.153C117.99 91.6392 117.869 91.7624 117.828 91.9676V92.9114C116.61 93.0756 115.839 93.8963 115.839 94.9222C115.839 96.2765 116.651 96.8099 118.356 97.0151C119.492 97.2203 119.857 97.4665 119.857 98.1231C119.857 98.7797 119.289 99.2311 118.518 99.2311C117.463 99.2311 117.097 98.7796 116.976 98.1641C116.935 98 116.813 97.9179 116.692 97.9179H116.002C115.839 97.9179 115.718 98.041 115.718 98.2051V98.2462C115.88 99.2721 116.529 100.011 117.869 100.216V101.201C117.869 101.365 117.99 101.488 118.193 101.529H118.802C118.964 101.529 119.086 101.406 119.127 101.201V100.216C120.344 100.011 121.156 99.1489 121.156 98.041Z" fill="white"/>
<path d="M116.587 102.633C113.382 101.472 111.738 97.8663 112.93 94.6748C113.546 92.9341 114.902 91.6079 116.587 90.9862C116.751 90.9033 116.833 90.779 116.833 90.5717V89.9915C116.833 89.8256 116.751 89.7013 116.587 89.6599C116.546 89.6599 116.464 89.6599 116.423 89.7013C112.519 90.9447 110.382 95.1308 111.615 99.0682C112.355 101.389 114.122 103.171 116.423 103.917C116.587 104 116.751 103.917 116.792 103.752C116.833 103.71 116.833 103.669 116.833 103.586V103.006C116.833 102.881 116.71 102.715 116.587 102.633ZM120.942 89.7013C120.778 89.6184 120.614 89.7013 120.573 89.8671C120.531 89.9086 120.531 89.95 120.531 90.0329V90.6132C120.531 90.779 120.655 90.9447 120.778 91.0276C123.983 92.1881 125.627 95.7939 124.435 98.9853C123.819 100.726 122.463 102.052 120.778 102.674C120.614 102.757 120.531 102.881 120.531 103.088V103.669C120.531 103.835 120.614 103.959 120.778 104C120.819 104 120.901 104 120.942 103.959C124.846 102.715 126.983 98.5293 125.75 94.592C125.01 92.2296 123.202 90.4473 120.942 89.7013Z" fill="white"/>
<path d="M103.306 52.8943L38.1075 36.9247C36.4792 36.5282 35.0636 35.5038 34.1568 34.0654V91.8674L100.068 107.994C100.805 108.173 101.572 108.178 102.311 108.009C103.05 107.841 103.742 107.503 104.334 107.021C104.927 106.539 105.405 105.926 105.732 105.228C106.059 104.529 106.226 103.764 106.222 102.99V56.6686C106.221 55.796 105.933 54.9489 105.404 54.2641C104.875 53.5793 104.136 53.0968 103.306 52.8943Z" fill="#4AC6F8"/>
<path fill-rule="evenodd" clip-rule="evenodd" d="M33.92 40.5159C33.951 40.3852 34.0821 40.3045 34.2127 40.3355L35.9294 40.7429C36.0601 40.7739 36.1408 40.905 36.1098 41.0356C36.0788 41.1663 35.9478 41.247 35.8172 41.216L34.1004 40.8086C33.9698 40.7775 33.889 40.6465 33.92 40.5159ZM39.0702 41.7383C39.1012 41.6076 39.2323 41.5268 39.3629 41.5579L42.7964 42.3728C42.927 42.4038 43.0078 42.5348 42.9768 42.6655C42.9458 42.7961 42.8148 42.8769 42.6841 42.8459L39.2506 42.0309C39.12 41.9999 39.0392 41.8689 39.0702 41.7383ZM45.9372 43.3681C45.9682 43.2375 46.0992 43.1567 46.2299 43.1877L49.6634 44.0026C49.794 44.0336 49.8748 44.1647 49.8438 44.2953C49.8128 44.426 49.6817 44.5067 49.5511 44.4757L46.1176 43.6608C45.987 43.6298 45.9062 43.4987 45.9372 43.3681ZM52.8042 44.998C52.8352 44.8673 52.9662 44.7866 53.0969 44.8176L56.5303 45.6325C56.661 45.6635 56.7417 45.7945 56.7107 45.9252C56.6797 46.0558 56.5487 46.1366 56.4181 46.1056L52.9846 45.2907C52.8539 45.2596 52.7732 45.1286 52.8042 44.998ZM59.6711 46.6278C59.7021 46.4972 59.8332 46.4164 59.9638 46.4474L63.3973 47.2623C63.5279 47.2934 63.6087 47.4244 63.5777 47.555C63.5467 47.6857 63.4157 47.7664 63.285 47.7354L59.8515 46.9205C59.7209 46.8895 59.6401 46.7585 59.6711 46.6278ZM66.5381 48.2577C66.5691 48.127 66.7001 48.0463 66.8308 48.0773L70.2643 48.8922C70.3949 48.9232 70.4757 49.0542 70.4447 49.1849C70.4137 49.3155 70.2826 49.3963 70.152 49.3653L66.7185 48.5504C66.5879 48.5194 66.5071 48.3883 66.5381 48.2577ZM73.4051 49.8875C73.4361 49.7569 73.5671 49.6761 73.6978 49.7071L77.1312 50.5221C77.2619 50.5531 77.3426 50.6841 77.3116 50.8147C77.2806 50.9454 77.1496 51.0262 77.019 50.9951L73.5855 50.1802C73.4548 50.1492 73.3741 50.0182 73.4051 49.8875ZM80.272 51.5174C80.303 51.3867 80.4341 51.306 80.5647 51.337L83.9982 52.1519C84.1288 52.1829 84.2096 52.314 84.1786 52.4446C84.1476 52.5752 84.0166 52.656 83.8859 52.625L80.4524 51.8101C80.3218 51.7791 80.241 51.648 80.272 51.5174ZM87.139 53.1472C87.17 53.0166 87.301 52.9358 87.4317 52.9668L90.8652 53.7818C90.9958 53.8128 91.0766 53.9438 91.0456 54.0745C91.0146 54.2051 90.8835 54.2859 90.7529 54.2549L87.3194 53.4399C87.1888 53.4089 87.108 53.2779 87.139 53.1472ZM94.006 54.7771C94.037 54.6465 94.168 54.5657 94.2987 54.5967L97.7321 55.4116C97.8628 55.4426 97.9435 55.5737 97.9125 55.7043C97.8815 55.835 97.7505 55.9157 97.6199 55.8847L94.1864 55.0698C94.0557 55.0388 93.975 54.9077 94.006 54.7771ZM100.873 56.407C100.904 56.2763 101.035 56.1955 101.166 56.2266L102.882 56.634C102.992 56.66 103.069 56.7579 103.069 56.8706V58.6168C103.069 58.7511 102.96 58.8599 102.826 58.8599C102.692 58.8599 102.583 58.7511 102.583 58.6168V57.0627L101.053 56.6996C100.923 56.6686 100.842 56.5376 100.873 56.407ZM102.826 61.8663C102.96 61.8663 103.069 61.9751 103.069 62.1094V65.6019C103.069 65.7362 102.96 65.845 102.826 65.845C102.692 65.845 102.583 65.7362 102.583 65.6019V62.1094C102.583 61.9751 102.692 61.8663 102.826 61.8663ZM102.826 68.8514C102.96 68.8514 103.069 68.9602 103.069 69.0945V72.587C103.069 72.7213 102.96 72.8301 102.826 72.8301C102.692 72.8301 102.583 72.7213 102.583 72.587V69.0945C102.583 68.9602 102.692 68.8514 102.826 68.8514ZM102.826 75.8365C102.96 75.8365 103.069 75.9453 103.069 76.0796V79.5721C103.069 79.7064 102.96 79.8152 102.826 79.8152C102.692 79.8152 102.583 79.7064 102.583 79.5721V76.0796C102.583 75.9453 102.692 75.8365 102.826 75.8365ZM102.826 82.8215C102.96 82.8215 103.069 82.9304 103.069 83.0647V86.5572C103.069 86.6915 102.96 86.8003 102.826 86.8003C102.692 86.8003 102.583 86.6915 102.583 86.5572V83.0647C102.583 82.9304 102.692 82.8215 102.826 82.8215ZM33.9816 89.0419C34.0133 88.9115 34.1447 88.8314 34.2752 88.8631L35.9904 89.2798C36.1209 89.3114 36.201 89.4429 36.1693 89.5734C36.1376 89.7039 36.0061 89.7839 35.8756 89.7522L34.1604 89.3356C34.03 89.3039 33.9499 89.1724 33.9816 89.0419ZM102.826 89.8066C102.96 89.8066 103.069 89.9155 103.069 90.0498V93.5423C103.069 93.6766 102.96 93.7854 102.826 93.7854C102.692 93.7854 102.583 93.6766 102.583 93.5423V90.0498C102.583 89.9155 102.692 89.8066 102.826 89.8066ZM39.1272 90.292C39.1589 90.1615 39.2904 90.0814 39.4208 90.1131L42.8513 90.9464C42.9817 90.9781 43.0618 91.1096 43.0301 91.2401C42.9984 91.3706 42.867 91.4506 42.7365 91.4189L39.3061 90.5856C39.1756 90.5539 39.0955 90.4224 39.1272 90.292ZM45.988 91.9586C46.0197 91.8282 46.1512 91.7481 46.2817 91.7798L49.7121 92.6131C49.8426 92.6448 49.9226 92.7763 49.891 92.9068C49.8593 93.0372 49.7278 93.1173 49.5973 93.0856L46.1669 92.2523C46.0364 92.2206 45.9563 92.0891 45.988 91.9586ZM52.8489 93.6253C52.8806 93.4949 53.012 93.4148 53.1425 93.4465L56.5729 94.2798C56.7034 94.3115 56.7835 94.443 56.7518 94.5735C56.7201 94.7039 56.5886 94.784 56.4582 94.7523L53.0277 93.919C52.8973 93.8873 52.8172 93.7558 52.8489 93.6253ZM59.7097 95.292C59.7414 95.1615 59.8729 95.0815 60.0034 95.1132L63.4338 95.9465C63.5643 95.9782 63.6443 96.1097 63.6126 96.2401C63.5809 96.3706 63.4495 96.4507 63.319 96.419L59.8886 95.5857C59.7581 95.554 59.678 95.4225 59.7097 95.292ZM66.5706 96.9587C66.6023 96.8282 66.7337 96.7482 66.8642 96.7799L70.2946 97.6132C70.4251 97.6449 70.5052 97.7764 70.4735 97.9068C70.4418 98.0373 70.3103 98.1174 70.1798 98.0857L66.7494 97.2523C66.6189 97.2206 66.5389 97.0892 66.5706 96.9587ZM102.826 96.7917C102.96 96.7917 103.069 96.9006 103.069 97.0348V100.527C103.069 100.662 102.96 100.771 102.826 100.771C102.692 100.771 102.583 100.662 102.583 100.527V97.0348C102.583 96.9006 102.692 96.7917 102.826 96.7917ZM73.4314 98.6254C73.4631 98.4949 73.5946 98.4148 73.725 98.4465L77.1555 99.2799C77.2859 99.3116 77.366 99.443 77.3343 99.5735C77.3026 99.704 77.1712 99.7841 77.0407 99.7524L73.6103 98.919C73.4798 98.8873 73.3997 98.7559 73.4314 98.6254ZM80.2922 100.292C80.3239 100.162 80.4554 100.082 80.5859 100.113L84.0163 100.947C84.1468 100.978 84.2268 101.11 84.1952 101.24C84.1635 101.371 84.032 101.451 83.9015 101.419L80.4711 100.586C80.3406 100.554 80.2605 100.423 80.2922 100.292ZM87.1531 101.959C87.1848 101.828 87.3162 101.748 87.4467 101.78L90.8771 102.613C91.0076 102.645 91.0877 102.776 91.056 102.907C91.0243 103.037 90.8928 103.117 90.7624 103.086L87.3319 102.252C87.2015 102.221 87.1214 102.089 87.1531 101.959ZM94.0139 103.625C94.0456 103.495 94.1771 103.415 94.3076 103.447L97.738 104.28C97.8685 104.312 97.9485 104.443 97.9168 104.574C97.8851 104.704 97.7537 104.784 97.6232 104.752L94.1928 103.919C94.0623 103.887 93.9822 103.756 94.0139 103.625ZM102.826 103.777C102.96 103.777 103.069 103.886 103.069 104.02V105.766C103.069 105.841 103.035 105.911 102.976 105.957C102.918 106.003 102.841 106.02 102.769 106.002L101.054 105.586C100.923 105.554 100.843 105.423 100.875 105.292C100.906 105.162 101.038 105.082 101.168 105.113L102.583 105.457V104.02C102.583 103.886 102.692 103.777 102.826 103.777Z" fill="#E4F8FF"/>
<path d="M107.247 74.6507L90.5158 70.6469C89.2749 70.3476 87.9829 70.3355 86.7368 70.6115C85.4906 70.8875 84.3228 71.4445 83.321 72.2405C82.3192 73.0365 81.5095 74.0509 80.9527 75.2075C80.3959 76.3641 80.1066 77.6327 80.1064 78.9181C80.1054 80.8298 80.7442 82.686 81.9196 84.1869C83.095 85.6877 84.7383 86.7455 86.584 87.1894L107.247 92.1763V74.6507Z" fill="#368CFB"/>
<path d="M34.1568 34.0654C34.1568 35.1662 35.1956 36.2099 36.081 36.7174C37.0477 37.2202 38.0814 37.5742 39.1487 37.7683C41.1775 38.2472 43.2203 38.6904 45.2561 39.1979L61.9889 43.101L74.3292 45.9604L75.375 46.2034L102.566 53.1588C102.566 53.1588 106.052 53.9666 105.989 56.1397C105.926 58.3128 105.989 94.9413 105.989 94.9413C105.989 97.0859 106.163 99.3376 106.045 101.511C105.884 104.556 103.116 107.63 99.8745 107.165L90.058 105.643C90.058 105.643 97.8596 107.83 101.36 108.094C102.881 108.247 104.412 107.936 105.763 107.201C107.113 106.466 108.222 105.34 108.952 103.963C110.514 100.767 110.221 97.622 110.172 94.1908C110.137 92.2178 110.061 90.2448 110.047 88.2719V87.2639C109.9 76.0266 109.607 64.775 109.607 53.5377C109.687 52.6613 109.525 51.7796 109.14 50.9928C108.478 49.942 107.118 49.5632 105.891 49.2844L40.9405 34.6515L34.1568 34.0654Z" fill="#A1DFF6"/>
<ellipse rx="2.55989" ry="2.56029" transform="matrix(0.985499 0.174921 -0.174864 0.985509 88.1468 79.4105)" fill="white"/>
<path d="M30.5457 111.937C41.3163 112.25 50.301 103.771 50.6136 92.9985C50.9262 82.2261 42.4484 73.2399 31.6778 72.9273C20.9073 72.6146 11.9226 81.0939 11.61 91.8662C11.2973 102.639 19.7752 111.625 30.5457 111.937Z" fill="white"/>
<g filter="url(#filter2_d_12611_135821)">
<path d="M31.2085 108.796C40.1527 108.796 47.4034 101.544 47.4034 92.5981C47.4034 83.6524 40.1527 76.4004 31.2085 76.4004C22.2643 76.4004 15.0135 83.6524 15.0135 92.5981C15.0135 101.544 22.2643 108.796 31.2085 108.796Z" fill="#368CFB"/>
</g>
<path d="M35.8433 90.07C35.6703 88.4665 34.23 87.9657 32.4156 87.8603L32.3976 85.6302L30.993 85.6677L31.0106 87.839C30.6413 87.8488 30.2639 87.8658 29.8889 87.883L29.8715 85.6973L28.4677 85.7345L28.4852 87.964C28.1812 87.9781 27.8825 87.9915 27.5914 87.9994L27.5911 87.9924L25.6538 88.0431L25.6659 89.4929C25.6659 89.4929 26.703 89.4463 26.6859 89.4651C27.2548 89.4502 27.4426 89.7645 27.4988 90.0385L27.5194 92.5791C27.5586 92.5782 27.6098 92.5784 27.668 92.5846C27.6211 92.5859 27.5712 92.587 27.5196 92.5888L27.5479 96.1479C27.5244 96.3215 27.4214 96.6003 27.0239 96.6115C27.042 96.6264 26.0029 96.6384 26.0029 96.6384L25.7368 98.2669L27.5648 98.2184C27.905 98.2098 28.2397 98.2065 28.5684 98.1997L28.5872 100.455L29.9904 100.418L29.9722 98.1864C30.3576 98.1839 30.7304 98.177 31.0945 98.1671L31.1118 100.388L32.5165 100.351L32.4987 98.0994C34.8592 97.9059 36.5073 97.2871 36.6952 95.1385C36.8469 93.4085 36.0008 92.6608 34.6578 92.3853C35.469 91.9629 35.972 91.2433 35.8433 90.07ZM33.9171 94.9449C33.9314 96.6304 30.9435 96.5179 29.9915 96.544L29.9677 93.5556C30.92 93.5306 33.9029 93.1868 33.9171 94.9449ZM33.2297 90.746C33.2417 92.2794 30.7496 92.1666 29.9567 92.1877L29.9349 89.4774C30.7279 89.4563 33.2166 89.1467 33.2297 90.746Z" fill="white"/>
<defs>
<filter id="filter0_d_12611_135821" x="47.5282" y="0" width="62.4166" height="62.4225" filterUnits="userSpaceOnUse" color-interpolation-filters="sRGB">
<feFlood flood-opacity="0" result="BackgroundImageFix"/>
<feColorMatrix in="SourceAlpha" type="matrix" values="0 0 0 0 0 0 0 0 0 0 0 0 0 0 0 0 0 0 127 0" result="hardAlpha"/>
<feOffset dy="2"/>
<feGaussianBlur stdDeviation="7.5"/>
<feColorMatrix type="matrix" values="0 0 0 0 0.368627 0 0 0 0 0.584314 0 0 0 0 0.784314 0 0 0 0.2 0"/>
<feBlend mode="normal" in2="BackgroundImageFix" result="effect1_dropShadow_12611_135821"/>
<feBlend mode="normal" in="SourceGraphic" in2="effect1_dropShadow_12611_135821" result="shape"/>
</filter>
<filter id="filter1_d_12611_135821" x="87.3365" y="67.5775" width="62.4186" height="62.4225" filterUnits="userSpaceOnUse" color-interpolation-filters="sRGB">
<feFlood flood-opacity="0" result="BackgroundImageFix"/>
<feColorMatrix in="SourceAlpha" type="matrix" values="0 0 0 0 0 0 0 0 0 0 0 0 0 0 0 0 0 0 127 0" result="hardAlpha"/>
<feOffset dy="2"/>
<feGaussianBlur stdDeviation="7.5"/>
<feColorMatrix type="matrix" values="0 0 0 0 0.368627 0 0 0 0 0.584314 0 0 0 0 0.784314 0 0 0 0.2 0"/>
<feBlend mode="normal" in2="BackgroundImageFix" result="effect1_dropShadow_12611_135821"/>
<feBlend mode="normal" in="SourceGraphic" in2="effect1_dropShadow_12611_135821" result="shape"/>
</filter>
<filter id="filter2_d_12611_135821" x="0" y="63.3887" width="62.4166" height="62.4225" filterUnits="userSpaceOnUse" color-interpolation-filters="sRGB">
<feFlood flood-opacity="0" result="BackgroundImageFix"/>
<feColorMatrix in="SourceAlpha" type="matrix" values="0 0 0 0 0 0 0 0 0 0 0 0 0 0 0 0 0 0 127 0" result="hardAlpha"/>
<feOffset dy="2"/>
<feGaussianBlur stdDeviation="7.5"/>
<feColorMatrix type="matrix" values="0 0 0 0 0.368627 0 0 0 0 0.584314 0 0 0 0 0.784314 0 0 0 0.2 0"/>
<feBlend mode="normal" in2="BackgroundImageFix" result="effect1_dropShadow_12611_135821"/>
<feBlend mode="normal" in="SourceGraphic" in2="effect1_dropShadow_12611_135821" result="shape"/>
</filter>
</defs>
</svg>
