<svg width="144" height="121" viewBox="0 0 144 121" fill="none" xmlns="http://www.w3.org/2000/svg">
<path d="M139.561 52.1949C142.169 58.7607 143.352 65.8163 143.03 72.8844C142.709 79.9526 140.89 86.8685 137.698 93.1645C132.734 103.048 124.421 110.797 114.277 114.998C106.284 118.472 97.3042 118.842 89.0578 116.037C78.9379 112.171 72.0627 104.341 60.465 104.926C50.3772 105.446 43.0845 113.698 33.4465 115.582C9.76908 120.196 -6.8083 88.1936 4.78944 68.8946C8.67677 62.3967 15.6804 56.4511 23.3908 55.8988C29.013 55.5739 34.4424 57.6207 40.0967 57.3933C44.2079 57.3378 48.2601 56.3962 51.983 54.6314C55.7058 52.8666 59.0137 50.3191 61.6858 47.159C65.6695 42.448 66.5691 36.015 70.9704 31.5964C79.9017 22.5968 93.4591 21.8495 105.25 24.0263C112.107 25.3079 118.586 28.1502 124.196 32.338C129.807 36.5259 134.402 41.9496 137.633 48.1987C138.308 49.4983 138.886 50.8303 139.561 52.1949Z" fill="#EEFBFF"/>
<path fill-rule="evenodd" clip-rule="evenodd" d="M16.8467 90.0015C17.399 90.0015 17.8467 90.4492 17.8467 91.0015V94.9673C17.8467 95.5195 17.399 95.9673 16.8467 95.9673C16.2944 95.9673 15.8467 95.5195 15.8467 94.9673V91.0015C15.8467 90.4492 16.2944 90.0015 16.8467 90.0015Z" fill="#21ACE3"/>
<path fill-rule="evenodd" clip-rule="evenodd" d="M13.8711 92.9844C13.8711 92.4321 14.3188 91.9844 14.8711 91.9844H18.8213C19.3736 91.9844 19.8213 92.4321 19.8213 92.9844C19.8213 93.5367 19.3736 93.9844 18.8213 93.9844H14.8711C14.3188 93.9844 13.8711 93.5367 13.8711 92.9844Z" fill="#21ACE3"/>
<path fill-rule="evenodd" clip-rule="evenodd" d="M127.976 66C128.528 66 128.976 66.4477 128.976 67V70.9658C128.976 71.5181 128.528 71.9658 127.976 71.9658C127.423 71.9658 126.976 71.5181 126.976 70.9658V67C126.976 66.4477 127.423 66 127.976 66Z" fill="#21ACE3"/>
<path fill-rule="evenodd" clip-rule="evenodd" d="M125 68.9829C125 68.4306 125.448 67.9829 126 67.9829H129.95C130.503 67.9829 130.95 68.4306 130.95 68.9829C130.95 69.5352 130.503 69.9829 129.95 69.9829H126C125.448 69.9829 125 69.5352 125 68.9829Z" fill="#21ACE3"/>
<path d="M38.0499 49C40.4084 49.6091 110.458 49.9189 110.458 49.9189L113 55.301L112.314 93.716V101.545L108.181 103.677L102.392 105L102.59 82.537L102.686 67.8032L80.5496 62.7204L35 51.5414L36.3775 49H38.0499Z" fill="#3B5B7B"/>
<path d="M31 49.9064C31.0357 48.4658 32.7373 47.7455 33.8225 47.2775C35.4863 46.5974 37.2433 46.1911 39.0293 46.0735C41.0672 45.9316 43.1051 46.0315 45.1124 46.0735L56.6673 46.2838L58.4505 46.3154L90.8633 46.9095L104.619 47.1566L110.193 47.2618C110.8 47.3287 111.381 47.5495 111.885 47.9045C112.389 48.2595 112.8 48.7377 113.081 49.2965C114.004 51.1945 113.871 56.6205 113.871 56.6205V83.6557C113.871 87.5359 113.988 91.4109 113.922 95.2911C113.886 97.3941 114.284 99.7181 113.565 101.742C112.292 105.349 108.043 106.474 104.731 107C104.731 106.18 104.375 104.492 104.369 103.677C105.434 103.851 107.105 103.677 107.987 103.041C108.762 102.524 109.399 101.816 109.841 100.98C110.165 100.117 110.303 99.1907 110.244 98.2669C110.162 92.7411 110.157 87.2257 110.147 81.6736L110.137 64.7279V54.9012C110.137 53.9759 110.096 52.9454 109.459 52.2724C108.822 51.5994 107.905 51.5889 107.049 51.5626C83.8716 50.9317 60.6905 50.5654 37.506 50.4637" fill="#A1DFF6"/>
<path d="M99.1271 67.3035L34.8924 51.7796C33.2881 51.3941 31.8935 50.3982 31 49V105.189L95.9374 120.866C96.6633 121.04 97.4188 121.045 98.147 120.881C98.8751 120.717 99.5568 120.388 100.141 119.92C100.724 119.451 101.195 118.855 101.517 118.177C101.839 117.498 102.004 116.754 102 116.002V70.9725C102 70.1243 101.716 69.3008 101.195 68.6351C100.674 67.9694 99.9451 67.5003 99.1271 67.3035Z" fill="#4AC6F8"/>
<path fill-rule="evenodd" clip-rule="evenodd" d="M30.9803 55.0031C31.0114 54.8726 31.1424 54.792 31.2729 54.8231L32.9382 55.2199C33.0687 55.251 33.1493 55.382 33.1182 55.5125C33.0871 55.643 32.9561 55.7236 32.8256 55.6925L31.1603 55.2956C31.0298 55.2645 30.9492 55.1335 30.9803 55.0031ZM35.9764 56.1936C36.0075 56.0631 36.1385 55.9825 36.269 56.0136L39.5997 56.8073C39.7302 56.8384 39.8107 56.9694 39.7796 57.0999C39.7485 57.2304 39.6176 57.311 39.4871 57.2799L36.1563 56.4862C36.0259 56.4551 35.9453 56.3241 35.9764 56.1936ZM42.6378 57.781C42.6689 57.6505 42.7999 57.5699 42.9304 57.601L46.2611 58.3947C46.3916 58.4258 46.4722 58.5568 46.4411 58.6872C46.41 58.8177 46.279 58.8983 46.1485 58.8672L42.8178 58.0735C42.6873 58.0424 42.6067 57.9114 42.6378 57.781ZM49.2992 59.3683C49.3303 59.2378 49.4613 59.1573 49.5918 59.1884L52.9225 59.982C53.053 60.0131 53.1336 60.1441 53.1025 60.2746C53.0714 60.4051 52.9404 60.4857 52.8099 60.4546L49.4792 59.6609C49.3487 59.6298 49.2681 59.4988 49.2992 59.3683ZM55.9606 60.9557C55.9917 60.8252 56.1227 60.7446 56.2532 60.7757L59.5839 61.5694C59.7144 61.6005 59.795 61.7315 59.7639 61.862C59.7328 61.9925 59.6018 62.0731 59.4713 62.042L56.1406 61.2483C56.0101 61.2172 55.9295 61.0862 55.9606 60.9557ZM62.6221 62.5431C62.6532 62.4126 62.7842 62.332 62.9146 62.3631L66.2454 63.1568C66.3759 63.1879 66.4564 63.3189 66.4253 63.4494C66.3942 63.5799 66.2632 63.6604 66.1327 63.6293L62.802 62.8357C62.6715 62.8046 62.591 62.6736 62.6221 62.5431ZM69.2835 64.1304C69.3146 64 69.4456 63.9194 69.5761 63.9505L72.9068 64.7442C73.0373 64.7752 73.1178 64.9062 73.0868 65.0367C73.0557 65.1672 72.9247 65.2478 72.7942 65.2167L69.4635 64.423C69.333 64.3919 69.2524 64.2609 69.2835 64.1304ZM75.9449 65.7178C75.976 65.5873 76.107 65.5067 76.2375 65.5378L79.5682 66.3315C79.6987 66.3626 79.7793 66.4936 79.7482 66.6241C79.7171 66.7546 79.5861 66.8352 79.4556 66.8041L76.1249 66.0104C75.9944 65.9793 75.9138 65.8483 75.9449 65.7178ZM82.6063 67.3052C82.6374 67.1747 82.7684 67.0941 82.8989 67.1252L86.2296 67.9189C86.3601 67.95 86.4407 68.081 86.4096 68.2115C86.3785 68.342 86.2475 68.4226 86.117 68.3915L82.7863 67.5978C82.6558 67.5667 82.5752 67.4357 82.6063 67.3052ZM89.2677 68.8926C89.2988 68.7621 89.4298 68.6815 89.5603 68.7126L92.891 69.5063C93.0215 69.5374 93.1021 69.6684 93.071 69.7989C93.0399 69.9293 92.9089 70.0099 92.7784 69.9788L89.4477 69.1851C89.3172 69.154 89.2366 69.0231 89.2677 68.8926ZM95.9292 70.4799C95.9603 70.3494 96.0912 70.2689 96.2217 70.3L97.8871 70.6968C97.9965 70.7229 98.0737 70.8206 98.0737 70.9331V72.6338C98.0737 72.768 97.965 72.8767 97.8308 72.8767C97.6967 72.8767 97.5879 72.768 97.5879 72.6338V71.1249L96.1091 70.7725C95.9786 70.7414 95.8981 70.6104 95.9292 70.4799ZM97.8308 75.7925C97.965 75.7925 98.0737 75.9012 98.0737 76.0353V79.4369C98.0737 79.571 97.965 79.6798 97.8308 79.6798C97.6967 79.6798 97.5879 79.571 97.5879 79.4369V76.0353C97.5879 75.9012 97.6967 75.7925 97.8308 75.7925ZM97.8308 82.5955C97.965 82.5955 98.0737 82.7042 98.0737 82.8384V86.2399C98.0737 86.374 97.965 86.4828 97.8308 86.4828C97.6967 86.4828 97.5879 86.374 97.5879 86.2399V82.8384C97.5879 82.7042 97.6967 82.5955 97.8308 82.5955ZM97.8308 89.3985C97.965 89.3985 98.0737 89.5072 98.0737 89.6414V93.0429C98.0737 93.1771 97.965 93.2858 97.8308 93.2858C97.6967 93.2858 97.5879 93.1771 97.5879 93.0429V89.6414C97.5879 89.5072 97.6967 89.3985 97.8308 89.3985ZM97.8308 96.2015C97.965 96.2015 98.0737 96.3103 98.0737 96.4444V99.8459C98.0737 99.9801 97.965 100.089 97.8308 100.089C97.6967 100.089 97.5879 99.9801 97.5879 99.8459V96.4444C97.5879 96.3103 97.6967 96.2015 97.8308 96.2015ZM31.04 102.264C31.0718 102.134 31.2032 102.054 31.3336 102.086L32.9974 102.492C33.1278 102.523 33.2077 102.655 33.1759 102.785C33.1441 102.915 33.0127 102.995 32.8823 102.964L31.2185 102.558C31.0881 102.526 31.0082 102.395 31.04 102.264ZM97.8308 103.005C97.965 103.005 98.0737 103.113 98.0737 103.247V106.649C98.0737 106.783 97.965 106.892 97.8308 106.892C97.6967 106.892 97.5879 106.783 97.5879 106.649V103.247C97.5879 103.113 97.6967 103.005 97.8308 103.005ZM36.0316 103.482C36.0634 103.351 36.1949 103.271 36.3252 103.303L39.6529 104.115C39.7832 104.147 39.8631 104.278 39.8313 104.408C39.7996 104.539 39.6681 104.619 39.5378 104.587L36.2101 103.775C36.0797 103.743 35.9999 103.612 36.0316 103.482ZM42.6871 105.105C42.7189 104.975 42.8503 104.895 42.9807 104.926L46.3084 105.738C46.4387 105.77 46.5186 105.901 46.4868 106.032C46.455 106.162 46.3236 106.242 46.1933 106.21L42.8655 105.398C42.7352 105.367 42.6553 105.235 42.6871 105.105ZM49.3426 106.728C49.3744 106.598 49.5058 106.518 49.6361 106.55L52.9639 107.361C53.0942 107.393 53.1741 107.525 53.1423 107.655C53.1105 107.785 52.9791 107.865 52.8488 107.833L49.521 107.022C49.3907 106.99 49.3108 106.858 49.3426 106.728ZM55.9981 108.351C56.0299 108.221 56.1613 108.141 56.2916 108.173L59.6194 108.985C59.7497 109.016 59.8296 109.148 59.7978 109.278C59.766 109.408 59.6346 109.488 59.5042 109.457L56.1765 108.645C56.0462 108.613 55.9663 108.482 55.9981 108.351ZM62.6536 109.975C62.6853 109.844 62.8168 109.764 62.9471 109.796L66.2748 110.608C66.4052 110.64 66.485 110.771 66.4533 110.901C66.4215 111.032 66.2901 111.112 66.1597 111.08L62.832 110.268C62.7017 110.236 62.6218 110.105 62.6536 109.975ZM97.8308 109.808C97.965 109.808 98.0737 109.916 98.0737 110.05V113.452C98.0737 113.586 97.965 113.695 97.8308 113.695C97.6967 113.695 97.5879 113.586 97.5879 113.452V110.05C97.5879 109.916 97.6967 109.808 97.8308 109.808ZM69.309 111.598C69.3408 111.468 69.4722 111.388 69.6026 111.419L72.9303 112.231C73.0606 112.263 73.1405 112.394 73.1087 112.525C73.077 112.655 72.9455 112.735 72.8152 112.703L69.4875 111.891C69.3571 111.86 69.2773 111.728 69.309 111.598ZM75.9645 113.221C75.9963 113.091 76.1277 113.011 76.258 113.043L79.5858 113.854C79.7161 113.886 79.796 114.018 79.7642 114.148C79.7324 114.278 79.601 114.358 79.4707 114.326L76.1429 113.515C76.0126 113.483 75.9327 113.351 75.9645 113.221ZM82.62 114.844C82.6518 114.714 82.7832 114.634 82.9135 114.666L86.2413 115.478C86.3716 115.509 86.4515 115.641 86.4197 115.771C86.3879 115.901 86.2565 115.981 86.1262 115.95L82.7984 115.138C82.6681 115.106 82.5882 114.975 82.62 114.844ZM89.2755 116.468C89.3073 116.337 89.4387 116.257 89.569 116.289L92.8967 117.101C93.0271 117.133 93.107 117.264 93.0752 117.394C93.0434 117.525 92.912 117.605 92.7816 117.573L89.4539 116.761C89.3236 116.729 89.2437 116.598 89.2755 116.468ZM97.8308 116.611C97.965 116.611 98.0737 116.719 98.0737 116.853V118.554C98.0737 118.629 98.0395 118.699 97.9808 118.745C97.9222 118.791 97.8457 118.808 97.7732 118.79L96.1094 118.384C95.979 118.353 95.8992 118.221 95.931 118.091C95.9627 117.961 96.0942 117.881 96.2245 117.912L97.5879 118.245V116.853C97.5879 116.719 97.6967 116.611 97.8308 116.611Z" fill="#E4F8FF"/>
<path d="M102.119 88.2497L85.8888 84.3502C84.6851 84.0588 83.4318 84.047 82.2229 84.3158C81.0141 84.5846 79.8812 85.1271 78.9094 85.9023C77.9376 86.6776 77.1521 87.6656 76.612 88.792C76.0719 89.9184 75.7912 91.154 75.791 92.4059C75.7901 94.2678 76.4098 96.0756 77.55 97.5373C78.6901 98.999 80.2842 100.029 82.0747 100.462L102.119 105.319V88.2497Z" fill="#368CFB"/>
<ellipse rx="2.46841" ry="2.49497" transform="matrix(0.984268 0.176681 -0.172809 0.984955 83.725 92.8857)" fill="white"/>
<path d="M31 49C31 50.0701 32.0242 51.0847 32.8972 51.5781C33.8504 52.0668 34.8695 52.411 35.9218 52.5996C37.9221 53.0651 39.9362 53.496 41.9434 53.9893L58.4411 57.7835L70.6081 60.5631L71.6393 60.7993L98.448 67.5607C98.448 67.5607 101.885 68.3459 101.823 70.4584C101.761 72.5708 101.823 108.177 101.823 108.177C101.823 110.262 101.995 112.451 101.878 114.563C101.72 117.524 98.991 120.512 95.7946 120.06L86.116 118.58C86.116 118.58 93.808 120.706 97.2588 120.963C98.7588 121.111 100.269 120.809 101.6 120.095C102.931 119.381 104.025 118.286 104.745 116.947C106.284 113.841 105.996 110.783 105.948 107.448C105.913 105.53 105.838 103.612 105.824 101.694V100.714C105.679 89.7904 105.391 78.8527 105.391 67.9289C105.469 67.077 105.31 66.2199 104.93 65.4551C104.277 64.4336 102.937 64.0653 101.727 63.7943L37.6884 49.5698L31 49Z" fill="#A1DFF6"/>
<path d="M88.8727 16.4496C88.3345 16.1443 87.7794 15.8707 87.2101 15.63L85.0268 14.6489C85.2955 14.7816 85.5626 14.9227 85.8279 15.0723C94.393 19.9149 97.2481 31.722 92.1896 41.4513C87.415 50.6332 77.298 54.68 68.9697 51.0226L71.6871 52.2434C71.8869 52.3369 72.0868 52.4287 72.29 52.5137L72.3521 52.541C80.6166 55.9518 90.532 51.8948 95.2428 42.8303C100.29 33.0925 97.4412 21.2921 88.8727 16.4496Z" fill="#1076FA"/>
<path d="M85.8113 15.0679C77.2462 10.2236 66.1972 14.1803 61.1404 23.9096C56.0836 33.639 58.9319 45.4529 67.5021 50.2955C76.0723 55.1381 87.1179 51.1729 92.173 41.4537C97.2281 31.7346 94.3798 19.9122 85.8113 15.0679Z" fill="#368CFB"/>
<g filter="url(#filter0_d_12611_135850)">
<path d="M85.8113 15.0679C77.2462 10.2236 66.1972 14.1803 61.1404 23.9096C56.0836 33.639 58.9319 45.4529 67.5021 50.2955C76.0723 55.1381 87.1179 51.1729 92.173 41.4537C97.2281 31.7346 94.3798 19.9122 85.8113 15.0679ZM90.0804 40.2669C89.8375 40.7362 89.5783 41.1896 89.3029 41.6272L89.0879 41.4775C88.6862 42.1142 88.2477 42.7263 87.7746 43.3105L87.966 43.4924C87.4864 44.0821 86.9704 44.6404 86.4209 45.1639L86.253 44.9513C85.7203 45.4609 85.1548 45.934 84.5601 46.3677L84.6978 46.6041C84.1014 47.0421 83.4769 47.4397 82.8286 47.7943L82.7245 47.5392C82.0967 47.8824 81.447 48.1829 80.7797 48.4387L80.8503 48.7091C80.184 48.965 79.5011 49.174 78.8064 49.3348L78.7694 49.0525C78.0921 49.2086 77.4045 49.3154 76.7121 49.3722V49.6613C76.0166 49.7194 75.3177 49.7256 74.6212 49.68L74.6565 49.3909C73.9785 49.3478 73.3048 49.2523 72.6412 49.1053L72.5706 49.3875C71.8963 49.2394 71.2339 49.0405 70.5889 48.7924L70.6913 48.5203C70.0712 48.2814 69.4689 47.9973 68.8893 47.6702L68.8574 47.6532L68.723 47.9116C68.1189 47.5683 67.5407 47.1801 66.9932 46.7503L67.1612 46.5122C66.6193 46.0865 66.1086 45.6217 65.6329 45.1214L65.4196 45.3339C64.9333 44.8186 64.4843 44.2685 64.076 43.688L64.2893 43.5009C63.8803 42.9215 63.5121 42.3135 63.1876 41.6816L62.9575 41.8346C62.6224 41.1849 62.3312 40.5128 62.0859 39.8231L62.3311 39.7024C62.0873 39.0139 61.8876 38.3102 61.7332 37.5957L61.4763 37.679C61.3181 36.9444 61.2059 36.2004 61.1404 35.4515L61.4041 35.4056C61.3383 34.66 61.3204 33.9109 61.3503 33.1629L61.0867 33.1714C61.1138 32.404 61.1884 31.639 61.31 30.881L61.5686 30.9116C61.6909 30.1621 61.8591 29.421 62.0725 28.6927L61.8206 28.6247C62.0365 27.8813 62.2962 27.1517 62.5981 26.4397L62.8366 26.5469C63.0264 26.1014 63.238 25.6542 63.4631 25.2206C63.8117 24.5489 64.2004 23.8993 64.6269 23.2754L64.4187 23.1139C64.8492 22.4826 65.3187 21.8795 65.8243 21.3081L66.0074 21.5003C66.5004 20.943 67.0271 20.4171 67.5844 19.9258L67.4282 19.7081C67.9889 19.2161 68.5808 18.7617 69.2 18.3478L69.3276 18.591C69.9275 18.1865 70.5537 17.8235 71.2019 17.5045L71.1078 17.2443C71.7605 16.9243 72.4338 16.6494 73.1232 16.4214L73.1836 16.6951C73.8492 16.4733 74.5293 16.2995 75.2191 16.1748L75.1939 15.8909C75.8863 15.7649 76.5868 15.6893 77.2898 15.6647L77.2798 15.9487C77.9638 15.9261 78.6486 15.9539 79.3287 16.032L79.374 15.7463C80.0624 15.8245 80.7439 15.9553 81.4129 16.1374L81.3255 16.4146C81.9798 16.5938 82.6202 16.8211 83.2418 17.0947L83.356 16.8294C83.7691 17.0131 84.1789 17.2188 84.582 17.4467C84.7868 17.5623 84.9884 17.6813 85.1849 17.8071L85.0404 18.0571C85.6194 18.4233 86.1712 18.8319 86.6913 19.2796L86.8593 19.0501C87.3917 19.5101 87.8907 20.0085 88.3523 20.5413L88.1558 20.7453C88.6133 21.2763 89.0331 21.8394 89.412 22.4304L89.6303 22.2603C90.0213 22.8701 90.3703 23.5064 90.675 24.1647L90.4365 24.3092C90.7398 24.9649 90.9996 25.6403 91.214 26.3309L91.4626 26.2221C91.6824 26.9343 91.8563 27.6601 91.9832 28.3951L91.7246 28.4666C91.8518 29.1973 91.932 29.9357 91.9648 30.677L92.2284 30.643C92.2636 31.4059 92.2518 32.1702 92.1932 32.9316H91.9295C91.8698 33.685 91.7649 34.4339 91.6154 35.1744L91.8741 35.2169C91.72 35.9744 91.5204 36.7217 91.2762 37.4545L91.0293 37.3746C90.7892 38.0959 90.506 38.8017 90.1812 39.4881L90.4146 39.6055C90.3055 39.8231 90.1946 40.0459 90.0804 40.2669Z" fill="white"/>
</g>
<path fill-rule="evenodd" clip-rule="evenodd" d="M83.8262 28.4318C84.3405 29.0829 84.2312 30.0263 83.5822 30.5391L74.3243 37.8533L74.3105 37.8637C73.9735 38.1175 73.5459 38.2323 73.1182 38.1734C72.6986 38.1156 72.323 37.8966 72.0656 37.5707C71.8598 37.3131 71.2821 36.5891 70.7322 35.8948C70.2117 35.2377 69.6319 34.5027 69.5024 34.3112C69.0378 33.6238 69.2168 32.6912 69.9023 32.2283C70.5878 31.7653 71.5201 31.9472 71.9847 32.6346C71.982 32.6305 71.983 32.632 71.9894 32.6405C72.0002 32.6551 72.0262 32.69 72.0743 32.7529C72.1397 32.8384 72.2269 32.9509 72.3309 33.0841C72.5385 33.3498 72.8048 33.6872 73.0799 34.0346C73.239 34.2353 73.4004 34.4387 73.5544 34.6324L81.7198 28.1813C82.3689 27.6686 83.3119 27.7807 83.8262 28.4318Z" fill="white"/>
<defs>
<filter id="filter0_d_12611_135850" x="43.6377" y="0" width="66.0371" height="69.3608" filterUnits="userSpaceOnUse" color-interpolation-filters="sRGB">
<feFlood flood-opacity="0" result="BackgroundImageFix"/>
<feColorMatrix in="SourceAlpha" type="matrix" values="0 0 0 0 0 0 0 0 0 0 0 0 0 0 0 0 0 0 127 0" result="hardAlpha"/>
<feOffset dy="2"/>
<feGaussianBlur stdDeviation="7.5"/>
<feColorMatrix type="matrix" values="0 0 0 0 0.368627 0 0 0 0 0.584314 0 0 0 0 0.784314 0 0 0 0.2 0"/>
<feBlend mode="normal" in2="BackgroundImageFix" result="effect1_dropShadow_12611_135850"/>
<feBlend mode="normal" in="SourceGraphic" in2="effect1_dropShadow_12611_135850" result="shape"/>
</filter>
</defs>
</svg>
