<svg width="60" height="60" viewBox="0 0 60 60" fill="none" xmlns="http://www.w3.org/2000/svg">
<path d="M30.0322 1.73324e-05C24.0961 -0.00636223 18.2914 1.7485 13.353 5.04249C8.4146 8.33647 4.56442 13.0215 2.2898 18.5046C0.0151733 23.9877 -0.581644 30.0224 0.574884 35.8448C1.73141 41.6672 4.58929 47.0157 8.7868 51.2132C12.9843 55.4107 18.3328 58.2686 24.1552 59.4251C29.9776 60.5816 36.0123 59.9848 41.4954 57.7102C46.9785 55.4356 51.6635 51.5854 54.9575 46.647C58.2515 41.7086 60.0064 35.9039 60 29.9678C60 26.0323 59.2248 22.1355 57.7188 18.4996C56.2128 14.8637 54.0054 11.5601 51.2226 8.77737C48.4399 5.99461 45.1363 3.78719 41.5004 2.28118C37.8645 0.775155 33.9677 1.73324e-05 30.0322 1.73324e-05ZM30.0322 43.3226C29.3942 43.3226 28.7706 43.1334 28.2401 42.7789C27.7096 42.4245 27.2961 41.9207 27.052 41.3312C26.8078 40.7418 26.744 40.0932 26.8684 39.4675C26.9929 38.8417 27.3001 38.2669 27.7513 37.8158C28.2024 37.3647 28.7772 37.0574 29.4029 36.933C30.0287 36.8085 30.6773 36.8724 31.2667 37.1165C31.8561 37.3607 32.36 37.7741 32.7144 38.3046C33.0689 38.8351 33.258 39.4588 33.258 40.0968C33.258 40.9523 32.9182 41.7728 32.3132 42.3778C31.7083 42.9827 30.8878 43.3226 30.0322 43.3226ZM36.1935 25.9355C35.8287 26.6809 35.3375 27.3576 34.7419 27.9355L33.0322 29.5807C32.7597 29.79 32.5663 30.0857 32.4839 30.4194C32.3681 30.763 32.3029 31.1215 32.2903 31.4839C32.2879 31.9312 32.1546 32.368 31.9068 32.7404C31.659 33.1128 31.3075 33.4045 30.8959 33.5795C30.4842 33.7545 30.0303 33.805 29.5902 33.725C29.1501 33.6449 28.743 33.4378 28.4193 33.129C28.2024 32.9139 28.0307 32.6575 27.9144 32.3749C27.798 32.0924 27.7394 31.7894 27.7419 31.4839C27.7596 30.6037 27.9572 29.7364 28.3226 28.9355C28.6819 28.0691 29.2206 27.2885 29.9032 26.6452L31.258 25.3549C31.5639 25.0414 31.8344 24.6952 32.0645 24.3226C32.2339 23.9144 32.311 23.4738 32.2903 23.0323C32.2998 22.6813 32.2104 22.3348 32.0322 22.0323C31.8536 21.7527 31.6101 21.5204 31.3226 21.3549C30.9288 21.1705 30.4993 21.075 30.0645 21.075C29.6297 21.075 29.2002 21.1705 28.8064 21.3549C28.4814 21.5359 28.2133 21.804 28.0322 22.129C27.8278 22.5276 27.7279 22.9716 27.7419 23.4194C27.7455 23.7126 27.6902 24.0035 27.5794 24.275C27.4686 24.5465 27.3045 24.793 27.0968 25C26.6565 25.4035 26.081 25.6273 25.4839 25.6273C24.8867 25.6273 24.3112 25.4035 23.871 25C23.6519 24.7932 23.4784 24.5429 23.3618 24.2652C23.2451 23.9874 23.1878 23.6883 23.1935 23.3871C23.2146 22.2219 23.525 21.0801 24.0968 20.0645C24.6796 19.0508 25.527 18.2146 26.5484 17.6452C27.6227 17.0801 28.8184 16.7848 30.0322 16.7848C31.2461 16.7848 32.4418 17.0801 33.5161 17.6452C34.5092 18.1836 35.3434 18.9734 35.9355 19.9355C36.504 20.9156 36.8044 22.0282 36.8064 23.1613C36.831 24.1221 36.6206 25.0745 36.1935 25.9355Z" fill="white"/>
</svg>
