<svg width="60" height="60" viewBox="0 0 60 60" fill="none" xmlns="http://www.w3.org/2000/svg">
<path fill-rule="evenodd" clip-rule="evenodd" d="M36.3606 27.6987H44.6641C45.9231 27.6987 46.9123 26.6578 46.9123 25.4026C46.9123 24.1167 45.9231 23.1064 44.6641 23.1064H36.3606C35.1015 23.1064 34.1123 24.1167 34.1123 25.4026C34.1123 26.6578 35.1015 27.6987 36.3606 27.6987ZM54.5297 11.7825C56.3583 11.7825 57.5574 12.4254 58.7564 13.8337C59.9555 15.242 60.1653 17.2626 59.8955 19.0965L57.0478 39.1801C56.5082 43.0407 53.2707 45.8848 49.4637 45.8848H16.7592C12.7723 45.8848 9.47484 42.7651 9.1451 38.7239L6.38725 5.35021L1.86078 4.55421C0.661711 4.33991 -0.177635 3.14591 0.0322013 1.9213C0.242038 0.669135 1.41113 -0.160538 2.64017 0.0262149L9.7896 1.1253C10.8088 1.31206 11.5582 2.16622 11.6481 3.20714L12.2177 10.065C12.3076 11.0477 13.087 11.7825 14.0463 11.7825H54.5297ZM16.2801 50.7227C13.762 50.7227 11.7236 52.8045 11.7236 55.3762C11.7236 57.9172 13.762 59.9991 16.2801 59.9991C18.7681 59.9991 20.8066 57.9172 20.8066 55.3762C20.8066 52.8045 18.7681 50.7227 16.2801 50.7227ZM50.0008 50.7227C47.4827 50.7227 45.4443 52.8045 45.4443 55.3762C45.4443 57.9172 47.4827 59.9991 50.0008 59.9991C52.4888 59.9991 54.5272 57.9172 54.5272 55.3762C54.5272 52.8045 52.4888 50.7227 50.0008 50.7227Z" fill="white"/>
</svg>
