<svg width="60" height="60" viewBox="0 0 60 60" fill="none" xmlns="http://www.w3.org/2000/svg">
<path fill-rule="evenodd" clip-rule="evenodd" d="M5 24.9533C5 11.1537 16.3055 0 29.9807 0C43.6945 0 55 11.1537 55 24.9533C55 31.9071 52.5206 38.3629 48.4397 43.8347C43.9377 49.8705 38.3887 55.1294 32.1428 59.2573C30.7133 60.2113 29.4232 60.2832 27.8543 59.2573C21.5728 55.1294 16.0238 49.8705 11.5603 43.8347C7.47642 38.3629 5 31.9071 5 24.9533ZM21.7441 25.6499C21.7441 30.2288 25.4425 33.8301 29.9771 33.8301C34.5148 33.8301 38.2487 30.2288 38.2487 25.6499C38.2487 21.1067 34.5148 17.3301 29.9771 17.3301C25.4425 17.3301 21.7441 21.1067 21.7441 25.6499Z" fill="white"/>
</svg>
