<svg width="60" height="60" viewBox="0 0 60 60" fill="none" xmlns="http://www.w3.org/2000/svg">
<path fill-rule="evenodd" clip-rule="evenodd" d="M12.0564 6.32118e-09H47.0719C48.4042 -6.65277e-05 49.6827 0.525101 50.6295 1.46136C51.5764 2.39762 52.115 3.6693 52.1283 5.00001V54.9496C52.1283 56.2891 51.5956 57.5737 50.6473 58.5208C49.699 59.468 48.4129 60.0001 47.0719 60.0001H12.0564C10.7154 60.0001 9.42924 59.468 8.48098 58.5208C7.53272 57.5737 7 56.2891 7 54.9496V5.05051C7 3.71103 7.53272 2.42642 8.48098 1.47926C9.42924 0.532106 10.7154 6.32118e-09 12.0564 6.32118e-09ZM34.2511 8.9326C32.7628 8.30851 31.1656 7.9847 29.5515 7.97981C26.3167 7.99961 23.2196 9.2902 20.9298 11.5726C18.64 13.855 17.3415 16.9458 17.315 20.1768C17.3083 23.4297 18.5921 26.5528 20.8854 28.8624C23.1788 31.172 26.2948 32.48 29.5515 32.5C32.782 32.4803 35.8753 31.1932 38.1644 28.9163C40.4534 26.6393 41.7549 23.5549 41.788 20.3283C41.8053 18.7121 41.4989 17.1087 40.8867 15.6126C40.2745 14.1164 39.3689 12.7576 38.2232 11.6162C37.0893 10.4687 35.7394 9.5567 34.2511 8.9326ZM18.5449 49.807C18.7819 50.0438 19.1035 50.1768 19.4387 50.1768H39.6643C39.9995 50.1768 40.3211 50.0438 40.5581 49.807C40.7952 49.5702 40.9284 49.2491 40.9284 48.9142C40.9284 48.5793 40.7952 48.2582 40.5581 48.0214C40.3211 47.7846 39.9995 47.6516 39.6643 47.6516H19.4387C19.1035 47.6516 18.7819 47.7846 18.5449 48.0214C18.3078 48.2582 18.1746 48.5793 18.1746 48.9142C18.1746 49.2491 18.3078 49.5702 18.5449 49.807ZM16.3543 41.9193H42.7992L42.7487 41.9698C42.918 41.9665 43.085 41.9299 43.2402 41.8621C43.3954 41.7944 43.5357 41.6967 43.6531 41.5748C43.7705 41.4528 43.8626 41.309 43.9244 41.1514C43.9861 40.9939 44.0161 40.8258 44.0128 40.6566C44.0128 40.3218 43.8796 40.0006 43.6425 39.7638C43.4055 39.527 43.0839 39.394 42.7487 39.394H16.3543C16.0191 39.394 15.6975 39.527 15.4605 39.7638C15.2234 40.0006 15.0902 40.3218 15.0902 40.6566C15.0967 40.9895 15.232 41.3069 15.4676 41.5423C15.7033 41.7777 16.0211 41.9128 16.3543 41.9193ZM30.941 10.2021C30.4948 10.1761 30.0474 10.1761 29.6011 10.2021C29.138 10.1762 28.6737 10.1762 28.2106 10.2021C27.3208 13.1274 26.8359 16.1606 26.7695 19.2173H32.4327C32.3499 16.1583 31.848 13.1251 30.941 10.2021ZM39.6635 21.3145H34.6071C34.535 24.1554 34.1277 26.9779 33.3936 29.7236C35.109 29.0293 36.6008 27.878 37.7064 26.3952C38.812 24.9124 39.4889 23.155 39.6635 21.3145ZM21.4337 14.1356C22.553 12.6568 24.0581 11.5143 25.7842 10.833C25.0262 13.5673 24.5934 16.3814 24.4949 19.2169H19.4385C19.6241 17.3723 20.3144 15.6144 21.4337 14.1356ZM28.2102 30.3549H29.4995C29.9458 30.3807 30.3932 30.3807 30.8395 30.3549C31.7484 27.4238 32.2503 24.3819 32.3311 21.3145H26.668C26.7651 24.3842 27.2841 27.4262 28.2102 30.3549ZM36.78 13.1057C38.4144 14.752 39.4321 16.9098 39.6622 19.2169H34.6058C34.5199 16.3802 34.0869 13.5647 33.3164 10.833C34.6156 11.3436 35.7949 12.1175 36.78 13.1057ZM25.8095 29.7236C25.0287 26.9848 24.5872 24.1606 24.4949 21.3145H19.4385C19.6219 23.1663 20.3139 24.9315 21.4381 26.4154C22.5624 27.8992 24.0751 29.0441 25.8095 29.7236Z" fill="white"/>
</svg>
