<svg width="60" height="60" viewBox="0 0 60 60" fill="none" xmlns="http://www.w3.org/2000/svg">
<path fill-rule="evenodd" clip-rule="evenodd" d="M15.99 0H44.007C54.21 0 59.97 5.787 60 15.99V44.01C60 54.21 54.21 60 44.007 60H15.99C5.787 60 0 54.21 0 44.01V15.99C0 5.787 5.787 0 15.99 0ZM30.1462 47.5793C31.4392 47.5793 32.5162 46.6193 32.6362 45.3293V14.7593C32.7562 13.8293 32.3092 12.8963 31.4992 12.3893C30.6562 11.8793 29.6362 11.8793 28.8292 12.3893C28.0162 12.8963 27.5692 13.8293 27.6562 14.7593V45.3293C27.8092 46.6193 28.8862 47.5793 30.1462 47.5793ZM43.9536 47.5808C45.2136 47.5808 46.2906 46.6208 46.4436 45.3308V35.4908C46.5306 34.5278 46.0836 33.6308 45.2706 33.1208C44.4636 32.6108 43.4436 32.6108 42.6036 33.1208C41.7906 33.6308 41.3436 34.5278 41.4636 35.4908V45.3308C41.5836 46.6208 42.6606 47.5808 43.9536 47.5808ZM18.6593 45.3302C18.5393 46.6202 17.4623 47.5802 16.1693 47.5802C14.8793 47.5802 13.7993 46.6202 13.6823 45.3302V24.6002C13.5923 23.6672 14.0393 22.7402 14.8523 22.2302C15.6593 21.7202 16.6823 21.7202 17.4923 22.2302C18.2993 22.7402 18.7523 23.6672 18.6593 24.6002V45.3302Z" fill="white"/>
</svg>
