<svg width="61" height="60" viewBox="0 0 61 60" fill="none" xmlns="http://www.w3.org/2000/svg">
<path fill-rule="evenodd" clip-rule="evenodd" d="M41.3442 19.044C41.3442 25.4521 36.2356 30.5904 29.8645 30.5904C23.4934 30.5904 18.3848 25.4521 18.3848 19.044C18.3848 12.6334 23.4934 7.5 29.8645 7.5C36.2356 7.5 41.3442 12.6334 41.3442 19.044ZM29.8624 51.1358C20.5048 51.1358 12.5146 49.6523 12.5146 43.7182C12.5146 37.7817 20.4535 36.2441 29.8624 36.2441C39.22 36.2441 47.2101 37.7277 47.2101 43.6642C47.2101 49.5983 39.2713 51.1358 29.8624 51.1358ZM46.2515 19.2519C46.2515 22.5186 45.2772 25.5618 43.5678 28.0916C43.392 28.352 43.5482 28.7032 43.8584 28.7572C44.2857 28.8309 44.7277 28.8727 45.177 28.885C49.6581 29.0029 53.68 26.1021 54.7911 21.7351C56.437 15.2484 51.6043 9.4248 45.4505 9.4248C44.7814 9.4248 44.1416 9.49603 43.5189 9.62375C43.4335 9.6434 43.3431 9.6827 43.2943 9.75884C43.2357 9.85218 43.2796 9.97744 43.3382 10.0585C45.1868 12.6645 46.2515 15.8428 46.2515 19.2519ZM53.6698 33.4419C56.6807 34.0338 58.6612 35.2422 59.4817 36.9984C60.1752 38.4402 60.1752 40.1128 59.4817 41.5521C58.2265 44.276 54.1801 45.1504 52.6075 45.3764C52.2827 45.4255 52.0214 45.143 52.0556 44.8164C52.859 37.2686 46.4684 33.6899 44.8152 32.8671C44.7444 32.8303 44.7297 32.7738 44.737 32.7394C44.7419 32.7148 44.7712 32.6756 44.825 32.6682C48.4024 32.6019 52.2485 33.0931 53.6698 33.4419ZM14.8267 28.884C15.276 28.8717 15.7156 28.8324 16.1453 28.7563C16.4555 28.7022 16.6118 28.351 16.4359 28.0907C14.7266 25.5608 13.7522 22.5176 13.7522 19.2509C13.7522 15.8418 14.8169 12.6635 16.6655 10.0575C16.7241 9.97646 16.7656 9.8512 16.7094 9.75787C16.6606 9.68418 16.5678 9.64243 16.4848 9.62278C15.8596 9.49506 15.2198 9.42383 14.5507 9.42383C8.39697 9.42383 3.56432 15.2474 5.21265 21.7341C6.32374 26.1012 10.3457 29.0019 14.8267 28.884ZM15.2641 32.7389C15.2715 32.7757 15.2568 32.8298 15.1884 32.8691C13.5328 33.6919 7.14215 37.2705 7.94555 44.8159C7.97974 45.145 7.72089 45.425 7.39611 45.3783C5.82348 45.1524 1.77714 44.278 0.521971 41.5541C-0.17399 40.1123 -0.17399 38.4421 0.521971 37.0003C1.34247 35.2442 3.32047 34.0358 6.33141 33.4414C7.75508 33.0951 11.5987 32.6038 15.1787 32.6701C15.2324 32.6775 15.2592 32.7168 15.2641 32.7389Z" fill="white"/>
</svg>
