<svg width="60" height="60" viewBox="0 0 60 60" fill="none" xmlns="http://www.w3.org/2000/svg">
<path d="M24.8564 50.7204C24.8307 50.863 24.8587 51.041 24.9359 51.2496C24.9358 51.3526 24.9472 51.6145 24.9729 52.0317C25.001 52.4482 25.0058 52.7922 24.9938 53.066C24.9801 53.3375 24.943 53.6444 24.8773 53.9836C24.8121 54.321 24.6812 54.5763 24.4875 54.7447C24.2915 54.9131 24.0273 55 23.6889 55H11.2201C8.13082 55 5.48748 53.8997 3.2925 51.6966C1.0975 49.496 0 46.8482 0 43.7487V16.2489C0 13.1518 1.09748 10.5016 3.2925 8.30097C5.48748 6.10032 8.1308 5 11.2201 5H23.6889C24.0249 5 24.3172 5.12404 24.5647 5.36977C24.8121 5.61789 24.9359 5.91095 24.9359 6.25015C24.9359 6.35323 24.9472 6.61513 24.9729 7.03225C25.001 7.44874 25.0058 7.79277 24.9939 8.06663C24.9801 8.33812 24.9407 8.64495 24.8749 8.98417C24.8121 9.32156 24.6812 9.5769 24.4875 9.74529C24.2915 9.9161 24.0249 9.9982 23.6889 9.9982H11.2201C9.50571 9.9982 8.03937 10.6113 6.81813 11.8357C5.59689 13.06 4.98776 14.5301 4.98776 16.2489V43.7487C4.98776 45.4669 5.59689 46.9375 6.81813 48.1619C8.03935 49.3857 9.50569 49.9994 11.2201 49.9994H23.3757C23.3757 49.9994 23.5251 50.0108 23.824 50.0365C24.1229 50.0623 24.2723 50.1025 24.2723 50.154C24.2723 50.2056 24.3752 50.2781 24.5856 50.3692C24.7936 50.4603 24.8844 50.5778 24.8564 50.7204Z" fill="white"/>
<path d="M37.4139 8.20288L59.238 28.3342C59.7477 28.802 60 29.359 60 30C60 30.641 59.7477 31.1974 59.238 31.6652L37.4139 51.7965C36.9068 52.2649 36.3054 52.5 35.608 52.5C34.9131 52.5 34.3124 52.2649 33.8028 51.7965C33.2949 51.3287 33.0402 50.7723 33.0402 50.1313V39.4743H15.0679C14.373 39.4743 13.7723 39.2393 13.2626 38.7692C12.7548 38.3013 12.5 37.7466 12.5 37.1056V22.8938C12.5 22.2529 12.7548 21.6987 13.2626 21.2286C13.7723 20.7602 14.373 20.5251 15.0679 20.5251H33.0402V9.86874C33.0402 9.22768 33.2949 8.67074 33.8028 8.20288C34.3124 7.73506 34.9131 7.5 35.608 7.5C36.3054 7.5 36.9068 7.73506 37.4139 8.20288Z" fill="white"/>
</svg>
