<svg width="60" height="60" viewBox="0 0 60 60" fill="none" xmlns="http://www.w3.org/2000/svg">
<path fill-rule="evenodd" clip-rule="evenodd" d="M54.9537 8H5.04626C3.70791 8 2.42437 8.53104 1.47801 9.4763C0.531658 10.4216 0 11.7036 0 13.0404V47.8947C0 49.2315 0.531658 50.5135 1.47801 51.4588C2.42437 52.4041 3.70791 52.9351 5.04626 52.9351H54.9537C56.2921 52.9351 57.5756 52.4041 58.522 51.4588C59.4683 50.5135 60 49.2315 60 47.8947V12.99C59.9867 11.6619 59.4492 10.3928 58.5043 9.45843C57.5593 8.52405 56.2834 7.99993 54.9537 8ZM53.4146 39.4268H33.2296C32.895 39.4268 32.5741 39.2941 32.3375 39.0578C32.101 38.8215 31.968 38.5009 31.968 38.1667C31.968 37.8326 32.101 37.512 32.3375 37.2757C32.5741 37.0394 32.895 36.9067 33.2296 36.9067H53.4146C53.7492 36.9067 54.0701 37.0394 54.3067 37.2757C54.5433 37.512 54.6762 37.8326 54.6762 38.1667C54.6697 38.4989 54.5347 38.8157 54.2995 39.0506C54.0643 39.2856 53.7472 39.4204 53.4146 39.4268ZM53.4146 31.8663H33.2296C32.895 31.8663 32.5741 31.7335 32.3375 31.4972C32.101 31.2609 31.968 30.9404 31.968 30.6062C31.968 30.272 32.101 29.9515 32.3375 29.7151C32.5741 29.4788 32.895 29.3461 33.2296 29.3461H53.4146C53.7492 29.3461 54.0701 29.4788 54.3067 29.7151C54.5433 29.9515 54.6762 30.272 54.6762 30.6062C54.6697 30.9383 54.5347 31.2551 54.2995 31.49C54.0643 31.725 53.7472 31.8598 53.4146 31.8663ZM53.4146 24.3057H33.2296C32.895 24.3057 32.5741 24.1729 32.3375 23.9366C32.101 23.7003 31.968 23.3798 31.968 23.0456C31.968 22.7114 32.101 22.3909 32.3375 22.1545C32.5741 21.9182 32.895 21.7855 33.2296 21.7855H53.4146C53.7492 21.7855 54.0701 21.9182 54.3067 22.1545C54.5433 22.3909 54.6762 22.7114 54.6762 23.0456C54.6697 23.3778 54.5347 23.6945 54.2995 23.9295C54.0643 24.1644 53.7472 24.2992 53.4146 24.3057ZM29 30.5C29 37.4036 23.4036 43 16.5 43C9.59644 43 4 37.4036 4 30.5C4 23.5964 9.59644 18 16.5 18C23.4036 18 29 23.5964 29 30.5ZM19.6134 29.353C19.9965 28.7841 20.1994 28.116 20.1965 27.4334C20.1925 26.5215 19.8218 25.6482 19.1653 25.0047C18.5088 24.3613 17.6202 24 16.6938 24C16.0004 24 15.3226 24.2026 14.7462 24.5821C14.1699 24.9617 13.721 25.5011 13.4563 26.132C13.1916 26.7629 13.1231 27.4569 13.2595 28.1262C13.3959 28.7954 13.7309 29.4098 14.2223 29.8914C14.7136 30.3731 15.3392 30.7003 16.0196 30.8317C16.7 30.9631 17.4048 30.8927 18.0446 30.6295C18.6843 30.3662 19.2303 29.922 19.6134 29.353ZM11 34.8138C11 36.5451 13.519 37 16.5 37C19.4661 37 22 36.5451 22 34.8284C22 33.1117 19.3916 32.6569 16.5 32.6569C13.6084 32.6569 11 33.0824 11 34.8138Z" fill="white"/>
</svg>
