<svg width="60" height="60" viewBox="0 0 60 60" fill="none" xmlns="http://www.w3.org/2000/svg">
<path fill-rule="evenodd" clip-rule="evenodd" d="M37.4318 6.90639L59.2381 45.4526C59.718 46.6031 59.928 47.5387 59.988 48.5106C60.1079 50.7814 59.3281 52.9887 57.7983 54.6872C56.2686 56.3797 54.1989 57.3789 51.9493 57.5H8.03671C7.10687 57.4425 6.17702 57.2275 5.30717 56.8945C0.957905 55.1081 -1.14174 50.082 0.62796 45.7251L22.5843 6.87914C23.3341 5.51363 24.4739 4.33583 25.8837 3.5789C29.963 1.27478 35.1521 2.78866 37.4318 6.90639ZM32.5 32.1146C32.5 33.6867 31.3857 35 30.0143 35C28.6429 35 27.5 33.6867 27.5 32.1146V22.8493C27.5 21.274 28.6429 20 30.0143 20C31.3857 20 32.5 21.274 32.5 22.8493V32.1146ZM30.0143 45C28.6429 45 27.5 43.8614 27.5 42.5014C27.5 41.1357 28.6429 40 30.0143 40C31.3857 40 32.5 41.1102 32.5 42.4702C32.5 43.8614 31.3857 45 30.0143 45Z" fill="white"/>
</svg>
