<svg width="60" height="60" viewBox="0 0 60 60" fill="none" xmlns="http://www.w3.org/2000/svg">
<path fill-rule="evenodd" clip-rule="evenodd" d="M57.7882 11.514L31.3115 0.263826L31.3109 0.263617C30.4721 -0.0851819 29.5395 -0.0922728 28.6767 0.268751L2.21176 11.514C0.867882 12.0759 0 13.4107 0 14.9166V19.6656C0 21.688 1.58329 23.3333 3.52941 23.3333H7.06055V45.6667C7.06055 46.219 7.50826 46.6667 8.06055 46.6667H16.6488C17.2011 46.6667 17.6488 46.219 17.6488 45.6667V23.3333H24.7021V45.6667C24.7021 46.219 25.1499 46.6667 25.7021 46.6667H34.2904C34.8427 46.6667 35.2904 46.219 35.2904 45.6667V23.3333H42.3535V45.6667C42.3535 46.219 42.8012 46.6667 43.3535 46.6667H51.9418C52.494 46.6667 52.9418 46.219 52.9418 45.6667V23.3333H56.4706C58.4167 23.3333 60 21.688 60 19.6656V14.9166C60 13.4107 59.1321 12.0759 57.7882 11.514ZM31.7647 13.6749C31.7647 14.6877 30.9746 15.5088 30 15.5088C29.0254 15.5088 28.2353 14.6877 28.2353 13.6749V9.76272C28.2353 8.74994 29.0254 7.92887 30 7.92887C30.9746 7.92887 31.7647 8.74994 31.7647 9.76272V13.6749ZM6.64446 50H53.3573C55.0744 50 56.4715 51.4166 56.4715 53.1579V56.8421C56.4715 58.5834 55.0744 60 53.3573 60H6.64446C4.9273 60 3.53027 58.5834 3.53027 56.8421V53.1579C3.53027 51.4166 4.9273 50 6.64446 50Z" fill="white"/>
</svg>
