<svg width="60" height="60" viewBox="0 0 60 60" fill="none" xmlns="http://www.w3.org/2000/svg">
<path fill-rule="evenodd" clip-rule="evenodd" d="M37.975 14.825H43.875V11.225H38.875L43.475 1.525L38.175 1.075L33.525 4.65L35 0.625L29.625 0L27.85 5L25 1.15L16.875 0.85L22.2 11.225L17.5 11.075V14.825H22.025C12.125 20.625 5 35.775 5 43.975C5 54.225 16.2 60 30 60C43.8 60 55 54.225 55 43.975C55 35.775 47.875 20.625 37.975 14.825ZM35.475 46.875C34.5475 48.0522 33.2236 48.8519 31.75 49.125V52C31.7607 52.0662 31.7607 52.1338 31.75 52.2C31.7263 52.2693 31.6829 52.3301 31.625 52.375C31.584 52.3856 31.541 52.3856 31.5 52.375C31.4436 52.3961 31.3814 52.3961 31.325 52.375H29.4C29.3353 52.3979 29.2647 52.3979 29.2 52.375L29.075 52.2C29.0643 52.1338 29.0643 52.0662 29.075 52V49.125C28.4433 49.0201 27.8235 48.8526 27.225 48.625C26.7252 48.4252 26.2477 48.1738 25.8 47.875C25.4218 47.6454 25.0624 47.3862 24.725 47.1C24.4 46.825 24.175 46.6 24.05 46.475L23.8 46.175C23.7344 46.0793 23.6993 45.966 23.6993 45.85C23.6993 45.734 23.7344 45.6207 23.8 45.525L25.275 43.3C25.3185 43.2439 25.3689 43.1935 25.425 43.15H25.6H25.8C25.8 43.15 25.925 43.15 25.95 43.275C26.8993 44.2629 28.1012 44.9719 29.425 45.325C29.7781 45.4036 30.1383 45.4455 30.5 45.45C31.2282 45.4588 31.9362 45.211 32.5 44.75C32.7883 44.4971 33.0258 44.1917 33.2 43.85C33.3406 43.492 33.4086 43.1096 33.4 42.725C33.3995 42.4191 33.3222 42.1182 33.175 41.85C33.0548 41.5929 32.8945 41.3567 32.7 41.15C32.4474 40.9137 32.1709 40.7042 31.875 40.525L30.75 40L29.6 39.475L28.725 39.05L27.825 38.6L26.925 38.1L26.125 37.5C25.8442 37.3022 25.5845 37.076 25.35 36.825L24.725 36.025C24.5247 35.7272 24.3571 35.4087 24.225 35.075C24.0987 34.716 23.9985 34.3484 23.925 33.975C23.8463 33.5544 23.8045 33.1278 23.8 32.7C23.778 31.2429 24.2742 29.8254 25.2 28.7C26.1462 27.6145 27.4333 26.8828 28.85 26.625V23.625C28.8358 23.5591 28.8358 23.4909 28.85 23.425C28.8371 23.3674 28.8371 23.3076 28.85 23.25L29 23.125H29.175H31.1C31.1621 23.123 31.2238 23.1356 31.2802 23.1616C31.3366 23.1877 31.3862 23.2265 31.425 23.275V23.45C31.4371 23.5245 31.4371 23.6005 31.425 23.675V26.675C31.9645 26.7286 32.4943 26.8547 33 27.05C33.4271 27.1991 33.8445 27.3745 34.25 27.575C34.5636 27.763 34.8643 27.9718 35.15 28.2L35.725 28.675L35.95 28.925C35.9982 29.0177 36.0234 29.1206 36.0234 29.225C36.0234 29.3294 35.9982 29.4323 35.95 29.525L34.75 32.025C34.75 32.025 34.75 32.15 34.75 32.175C34.6932 32.1941 34.6318 32.1941 34.575 32.175C34.51 32.196 34.44 32.196 34.375 32.175C34.3107 32.2001 34.2393 32.2001 34.175 32.175L33.975 32L33.425 31.575C33.1486 31.3684 32.856 31.1844 32.55 31.025C32.2093 30.8422 31.8486 30.6996 31.475 30.6C31.087 30.4774 30.6818 30.4183 30.275 30.425C29.4771 30.3815 28.6893 30.6205 28.05 31.1C27.7732 31.3218 27.5509 31.604 27.4 31.925C27.2491 32.2366 27.1721 32.5788 27.175 32.925C27.125 33.1893 27.125 33.4607 27.175 33.725C27.2554 33.9832 27.4019 34.2159 27.6 34.4L28.175 34.975L28.975 35.475L29.825 35.9L30.85 36.35L32 36.875L33.1 37.45C33.4785 37.6508 33.8383 37.885 34.175 38.15L35.075 38.975C35.3744 39.2869 35.627 39.6406 35.825 40.025C36.0228 40.4229 36.1738 40.8423 36.275 41.275C36.403 41.7734 36.4701 42.2855 36.475 42.8C36.5894 44.224 36.2574 45.6484 35.525 46.875H35.475Z" fill="white"/>
</svg>
