<svg width="60" height="60" viewBox="0 0 60 60" fill="none" xmlns="http://www.w3.org/2000/svg">
<path fill-rule="evenodd" clip-rule="evenodd" d="M60 14.6589V18.1105C60 18.4635 59.7376 18.7497 59.4141 18.7497H0.585938C0.262383 18.7497 0 18.4635 0 18.1105V14.6589C0 10.7051 2.93813 7.5 6.5625 7.5H53.4375C57.0619 7.5 60 10.7051 60 14.6589ZM0 23.481V45.3412C0 49.2949 2.93813 52.5001 6.5625 52.5001H53.4375C57.0619 52.5001 60 49.2949 60 45.3412V23.481C60 23.128 59.7376 22.8418 59.4141 22.8418H0.585938C0.262383 22.8418 0 23.128 0 23.481ZM5.00488 42.9536C5.00488 41.824 5.92064 40.9082 7.05028 40.9082H22.9595C24.0891 40.9082 25.0049 41.824 25.0049 42.9536C25.0049 44.0832 24.0891 44.999 22.9595 44.999H7.05028C5.92064 44.999 5.00488 44.0832 5.00488 42.9536Z" fill="white"/>
</svg>
