<svg width="60" height="60" viewBox="0 0 60 60" fill="none" xmlns="http://www.w3.org/2000/svg">
<path d="M54.4463 12.7347L32.5715 0.667961C31.7827 0.229673 30.8986 0 30 0C29.1015 0 28.2173 0.229673 27.4285 0.667961L5.55474 12.7347C4.58248 13.2795 3.78088 14.0925 3.24203 15.0803C2.70317 16.0681 2.44893 17.1906 2.50851 18.3189C2.82191 26.4928 5.17638 34.4504 9.34957 41.4402C13.5228 48.43 19.3769 54.2214 26.3592 58.2674L29.0648 59.7596C29.3522 59.9174 29.6735 60 30 60C30.3265 60 30.6478 59.9174 30.9352 59.7596L33.6418 58.2674C40.9629 54.1657 47.0164 48.0675 51.1229 40.6574C54.9224 33.8172 57.103 26.169 57.4915 18.3205C57.551 17.1921 57.2969 16.0695 56.7582 15.0815C56.2196 14.0935 55.4183 13.2801 54.4463 12.7347ZM39.366 23.2819L29.5445 35.2823C29.3679 35.4928 29.1507 35.6642 28.9063 35.7858C28.662 35.9073 28.3957 35.9765 28.124 35.9889C27.8523 36.0014 27.5811 35.9569 27.327 35.8582C27.0729 35.7594 26.8414 35.6086 26.647 35.4151L20.7541 29.4149C20.3963 29.0377 20.1983 28.5324 20.2027 28.008C20.2072 27.4836 20.4138 26.982 20.778 26.6111C21.1422 26.2403 21.6349 26.03 22.1499 26.0254C22.6649 26.0209 23.1611 26.2225 23.5316 26.5868L27.9033 31.0381L36.3484 20.7194C36.5137 20.5177 36.7163 20.351 36.9448 20.229C37.1733 20.107 37.4231 20.032 37.6801 20.0084C37.937 19.9847 38.1961 20.0128 38.4423 20.091C38.6886 20.1693 38.9174 20.2961 39.1155 20.4644C39.3137 20.6326 39.4773 20.839 39.5971 21.0716C39.7169 21.3043 39.7906 21.5587 39.8138 21.8203C39.8371 22.0819 39.8095 22.3457 39.7327 22.5964C39.6558 22.8472 39.5312 23.0801 39.366 23.2819Z" fill="white"/>
</svg>
