<svg width="60" height="60" viewBox="0 0 60 60" fill="none" xmlns="http://www.w3.org/2000/svg">
<path fill-rule="evenodd" clip-rule="evenodd" d="M29.933 18.9303C23.3606 18.9303 18.217 23.7881 18.217 29.789C18.217 30.261 18.3036 30.7329 18.3815 31.1572C18.445 31.5036 18.5028 31.8182 18.5028 32.0751L7.92975 42.6481C5.07218 39.5048 2.21462 35.5042 0.214318 30.9321C-0.0714392 30.3605 -0.0714392 29.789 0.214318 29.2175C6.50097 15.5012 17.6455 7.5 29.933 7.5C33.9336 7.5 37.9342 8.35727 41.3633 9.78605L31.6476 19.216C31.0761 18.9303 30.5045 18.9303 29.933 18.9303ZM49.3624 14.9302C53.6488 18.3593 57.0778 23.2172 59.9354 29.218C59.9354 29.5038 59.9354 30.3611 59.6497 30.6468C53.363 44.3632 42.2185 52.3644 29.9309 52.3644C24.7873 52.3644 19.9294 50.9356 15.3573 48.3638L11.9283 52.0786C11.6425 52.3643 11.071 52.6501 10.4995 52.6501C9.92796 52.6501 9.35644 52.3643 9.07069 52.0786C8.21342 51.2213 8.21342 50.0783 9.07069 49.221L49.6482 8.3578C50.5054 7.50053 51.6485 7.50053 52.5057 8.3578C53.363 9.21507 53.363 10.3581 52.5057 11.2154L49.3624 14.9302ZM24.5016 39.5053C25.9303 40.3626 27.9306 40.9341 29.9309 40.9341C36.5033 40.9341 41.647 35.7905 41.9327 30.3611C41.9327 28.075 41.0755 26.0747 39.9324 24.3602L36.7891 27.5035C37.0749 28.075 37.3606 29.218 37.3606 30.0753C37.3606 33.7902 34.2173 36.9335 30.2167 36.9335C29.2698 36.9335 28.7151 36.7374 28.0652 36.5076C27.9306 36.46 27.792 36.411 27.6449 36.362L24.5016 39.5053Z" fill="white"/>
</svg>
