<svg width="60" height="60" viewBox="0 0 60 60" fill="none" xmlns="http://www.w3.org/2000/svg">
<path fill-rule="evenodd" clip-rule="evenodd" d="M46.375 22.5H44.5V15C44.5 6.7275 37.7725 0 29.5 0C21.2275 0 14.5 6.7275 14.5 15V22.5H12.625C9.52501 22.5 7 25.0225 7 28.125V54.375C7 57.4775 9.52501 60 12.625 60H46.375C49.475 60 52 57.4775 52 54.375V28.125C52 25.0225 49.475 22.5 46.375 22.5ZM19.5 15C19.5 9.485 23.985 5 29.5 5C35.015 5 39.5 9.485 39.5 15V22.5H19.5L19.5 15ZM32 41.805V47.5C32 48.88 30.8825 50 29.5 50C28.1175 50 27 48.88 27 47.5V41.805C25.5125 40.9375 24.5 39.3425 24.5 37.5C24.5 34.7425 26.7425 32.5 29.5 32.5C32.2575 32.5 34.5 34.7425 34.5 37.5C34.5 39.3425 33.4875 40.9375 32 41.805Z" fill="white"/>
</svg>
