<svg width="60" height="60" viewBox="0 0 60 60" fill="none" xmlns="http://www.w3.org/2000/svg">
<path fill-rule="evenodd" clip-rule="evenodd" d="M47.3067 18.9444H60C60 8.56403 53.8933 2.5 43.5467 2.5H16.4533C6.10667 2.5 0 8.56403 0 18.812V41.188C0 51.436 6.10667 57.5 16.4533 57.5H43.5467C53.8933 57.5 60 51.436 60 41.188V40.2347H47.3067C41.4156 40.2347 36.64 35.4924 36.64 29.6425C36.64 23.7926 41.4156 19.0503 47.3067 19.0503V18.9444ZM47.3054 23.499H57.7587C58.9959 23.499 59.9987 24.4949 59.9987 25.7234V33.4557C59.9843 34.6782 58.9898 35.6658 57.7587 35.6801H47.5454C44.5631 35.7199 41.9552 33.6922 41.2787 30.8076C40.94 29.017 41.4155 27.1692 42.578 25.7595C43.7404 24.3499 45.4708 23.5224 47.3054 23.499ZM47.7621 31.6281H48.7487C50.0153 31.6281 51.0421 30.6085 51.0421 29.3507C51.0421 28.093 50.0153 27.0734 48.7487 27.0734H47.7621C47.1563 27.0663 46.5729 27.3003 46.142 27.7232C45.7112 28.1461 45.4687 28.7227 45.4688 29.3242C45.4687 30.5863 46.4912 31.6135 47.7621 31.6281ZM14.2123 18.9443H31.1456C32.4122 18.9443 33.4389 17.9247 33.4389 16.667C33.4389 15.4093 32.4122 14.3897 31.1456 14.3897H14.2123C12.956 14.3896 11.9336 15.3932 11.9189 16.6405C11.9189 17.9026 12.9414 18.9298 14.2123 18.9443Z" fill="white"/>
</svg>
