<svg width="60" height="60" viewBox="0 0 60 60" fill="none" xmlns="http://www.w3.org/2000/svg">
<path fill-rule="evenodd" clip-rule="evenodd" d="M18.291 29.9989C18.291 35.9989 23.53 40.8808 29.9983 40.8808C36.4374 40.8808 41.6764 35.9989 41.6764 29.9989C41.6764 23.9717 36.4374 19.0898 29.9983 19.0898C23.53 19.0898 18.291 23.9717 18.291 29.9989ZM47.2098 13.2545C52.3317 16.9636 56.6927 22.3909 59.8244 29.1818C60.0585 29.7 60.0585 30.3 59.8244 30.7909C53.561 44.3727 42.4098 52.5 30 52.5H29.9707C17.5902 52.5 6.43902 44.3727 0.17561 30.7909C-0.0585366 30.3 -0.0585366 29.7 0.17561 29.1818C6.43902 15.6 17.5902 7.5 29.9707 7.5H30C36.2049 7.5 42.0878 9.51818 47.2098 13.2545ZM30.0026 36.7849C34.0124 36.7849 37.2904 33.7303 37.2904 29.994C37.2904 26.2303 34.0124 23.1758 30.0026 23.1758C29.6514 23.1758 29.3002 23.2031 28.9782 23.2576C28.8612 26.2576 26.227 28.6576 22.9782 28.6576H22.8319C22.7441 29.094 22.6855 29.5303 22.6855 29.994C22.6855 33.7303 25.9636 36.7849 30.0026 36.7849Z" fill="white"/>
</svg>
