<svg width="60" height="60" viewBox="0 0 60 60" fill="none" xmlns="http://www.w3.org/2000/svg">
<path fill-rule="evenodd" clip-rule="evenodd" d="M19.9316 47.5H37.5684C38.8977 47.5 40 46.3591 40 44.9832C40 43.6074 38.8977 42.5 37.5684 42.5H19.9316C18.6023 42.5 17.5 43.6074 17.5 44.9832C17.5 46.3591 18.6023 47.5 19.9316 47.5ZM30.1947 22.5H19.8053C18.5451 22.5 17.5 23.6409 17.5 25.0168C17.5 26.3926 18.5451 27.5 19.8053 27.5H30.1947C31.4549 27.5 32.5 26.3926 32.5 25.0168C32.5 23.6409 31.4549 22.5 30.1947 22.5ZM30.1947 32.5H19.8053C18.5451 32.5 17.5 33.6409 17.5 35.0168C17.5 36.3926 18.5451 37.5 19.8053 37.5H30.1947C31.4549 37.5 32.5 36.3926 32.5 35.0168C32.5 33.6409 31.4549 32.5 30.1947 32.5ZM51.5826 21.0768C52.267 21.0688 53.0124 21.06 53.6896 21.06C54.4176 21.06 55 21.66 55 22.41V46.53C55 53.97 49.1468 60 41.9249 60H18.7449C11.1736 60 5 53.67 5 45.87V13.53C5 6.09 10.8824 0 18.1334 0H33.6837C34.4409 0 35.0233 0.63 35.0233 1.38V11.04C35.0233 16.53 39.4205 21.03 44.7496 21.06C45.9943 21.06 47.0917 21.0695 48.052 21.0778C48.7992 21.0843 49.4634 21.09 50.0495 21.09C50.464 21.09 51.0014 21.0837 51.5826 21.0768ZM51.82 17.1607C49.4263 17.1697 46.6045 17.1607 44.5748 17.1397C41.3541 17.1397 38.7012 14.4067 38.7012 11.0887V3.18067C38.7012 1.88767 40.2242 1.24567 41.0949 2.17867C42.6689 3.86468 44.8311 6.18145 46.9842 8.48847C49.1373 10.7955 51.2813 13.0927 52.8188 14.7397C53.6691 15.6487 53.046 17.1577 51.82 17.1607Z" fill="white"/>
</svg>
