<svg width="60" height="60" viewBox="0 0 60 60" fill="none" xmlns="http://www.w3.org/2000/svg">
<path fill-rule="evenodd" clip-rule="evenodd" d="M59.0215 28.6806C58.149 27.3742 56.814 26.4898 55.2605 26.1887C53.7082 25.8877 52.1348 26.2085 50.829 27.093L42.2279 32.9159C42.6213 33.347 42.9488 33.8387 43.1943 34.3733C43.4491 34.9265 43.617 35.5274 43.6792 36.1573C43.698 36.3421 43.7073 36.5305 43.7073 36.7199C43.7073 39.8544 41.1311 42.4043 37.9643 42.4043H25.2956V38.9176H27.6265H37.9643C38.0793 38.9176 38.1909 38.9095 38.3013 38.8921C39.3323 38.7363 40.1319 37.8763 40.1824 36.8245C40.1836 36.7896 40.1848 36.7548 40.1848 36.7199C40.1848 36.6199 40.1777 36.5212 40.1635 36.4246C40.1354 36.2085 40.0742 36.0028 39.9862 35.8122C39.823 35.4578 39.5682 35.1533 39.2511 34.9301C38.8883 34.6732 38.4444 34.5222 37.9642 34.5222H28.4742L28.0162 33.7295C27.8389 33.4936 26.0893 31.369 20.9509 31.369C15.6752 31.369 13.6791 33.3832 13.4852 33.5936L13.4206 33.6795L13.3783 33.7109L13.0813 34.012L21.3185 49.3568H39.4648L57.5373 36.5954C60.117 34.7742 60.7688 31.2967 59.0215 28.6806ZM39.9439 36.4782L39.9885 36.5432L39.9275 36.5724C39.9334 36.5409 39.9392 36.5096 39.9439 36.4782Z" fill="white"/>
<path d="M8.52601 32.9568L0 37.3627L10.3577 57L19.0271 52.5218L8.52601 32.9568Z" fill="white"/>
<path d="M44.2485 2H18.997C16.6415 2 14.7252 3.89679 14.7252 6.2282V9.29533H48.5203V6.2282C48.5203 3.89679 46.604 2 44.2485 2Z" fill="white"/>
<path fill-rule="evenodd" clip-rule="evenodd" d="M14.7252 12.7809V21.0583C14.7252 23.3909 16.6415 25.2877 18.997 25.2877H44.2485C46.604 25.2877 48.5203 23.3909 48.5203 21.0583V12.7809H14.7252ZM25.5232 20.5679H20.0044V17.0812H25.5232V20.5679Z" fill="white"/>
</svg>
