<svg width="60" height="60" viewBox="0 0 60 60" fill="none" xmlns="http://www.w3.org/2000/svg">
<path d="M21.7059 56.32V47.1469C21.7059 44.8052 23.551 42.9069 25.827 42.9069H34.147C35.24 42.9069 36.2882 43.3536 37.0611 44.1488C37.834 44.9439 38.2681 46.0224 38.2681 47.1469V56.32C38.2612 57.2935 38.6323 58.2296 39.299 58.9205C39.9656 59.6114 40.8728 60 41.819 60H47.4953C50.1463 60.007 52.6911 58.9285 54.5681 57.0024C56.4451 55.0763 57.5 52.4609 57.5 49.7335V23.6006C57.4999 21.3974 56.5507 19.3075 54.9081 17.894L35.5985 2.02761C32.2395 -0.754315 27.4269 -0.664494 24.1682 2.24094L5.29925 17.894C3.57899 19.2659 2.55081 21.3619 2.5 23.6006V49.7068C2.5 55.3916 6.97926 60 12.5047 60H18.0514C20.0167 60 21.6139 58.3686 21.6282 56.3467L21.7059 56.32Z" fill="white"/>
</svg>
