<svg width="60" height="60" viewBox="0 0 60 60" fill="none" xmlns="http://www.w3.org/2000/svg">
<path fill-rule="evenodd" clip-rule="evenodd" d="M30 0C13.4585 0 0 13.4573 0 30C0 46.5427 13.4585 60 30 60C46.5415 60 60 46.5427 60 30C60 13.4573 46.5415 0 30 0ZM44.4263 32.3072H32.3109V44.9995C32.3109 46.2734 31.2771 47.3072 30.0032 47.3072C28.7294 47.3072 27.6955 46.2734 27.6955 44.9995V32.3072H15.5801C14.3063 32.3072 13.2725 31.2734 13.2725 29.9995C13.2725 28.7257 14.3063 27.6919 15.5801 27.6919H27.6955V16.1534C27.6955 14.8796 28.7294 13.8457 30.0032 13.8457C31.2771 13.8457 32.3109 14.8796 32.3109 16.1534V27.6919H44.4263C45.7002 27.6919 46.734 28.7257 46.734 29.9995C46.734 31.2734 45.7002 32.3072 44.4263 32.3072Z" fill="white"/>
</svg>
