<svg width="60" height="60" viewBox="0 0 60 60" fill="none" xmlns="http://www.w3.org/2000/svg">
<path fill-rule="evenodd" clip-rule="evenodd" d="M54.3226 34.74C55.358 35.31 56.1567 36.21 56.7188 37.11C57.8134 38.97 57.7246 41.25 56.6596 43.26L54.5888 46.86C53.4943 48.78 51.453 49.98 49.3526 49.98C48.3172 49.98 47.1635 49.68 46.2168 49.08C45.4477 48.57 44.5602 48.39 43.6135 48.39C40.6848 48.39 38.2294 50.88 38.1407 53.85C38.1407 57.3 35.4191 60 32.017 60H27.9937C24.5621 60 21.8405 57.3 21.8405 53.85C21.7813 50.88 19.3259 48.39 16.3972 48.39C15.421 48.39 14.5335 48.57 13.7939 49.08C12.8472 49.68 11.6639 49.98 10.6581 49.98C8.52813 49.98 6.48691 48.78 5.39234 46.86L3.35111 43.26C2.25654 41.31 2.19737 38.97 3.29194 37.11C3.76527 36.21 4.65276 35.31 5.65858 34.74C6.48691 34.32 7.0194 33.63 7.52231 32.82C9.00146 30.24 8.11397 26.85 5.59942 25.32C2.6707 23.61 1.72405 19.8 3.41028 16.83L5.39234 13.29C7.10815 10.32 10.7764 9.27 13.7347 11.01C16.3085 12.45 19.6513 11.49 21.1601 8.94C21.6334 8.1 21.8996 7.2 21.8405 6.3C21.7813 5.13 22.1067 4.02 22.6688 3.12C23.7634 1.26 25.7454 0.06 27.905 0H32.0762C34.2653 0 36.2474 1.26 37.3419 3.12C37.8744 4.02 38.2294 5.13 38.1407 6.3C38.0815 7.2 38.3478 8.1 38.8211 8.94C40.3298 11.49 43.6727 12.45 46.276 11.01C49.2047 9.27 52.9026 10.32 54.5888 13.29L56.5709 16.83C58.2867 19.8 57.34 23.61 54.3817 25.32C51.8672 26.85 50.9797 30.24 52.4884 32.82C52.9618 33.63 53.4943 34.32 54.3226 34.74ZM21.6357 30.032C21.6357 34.742 25.3928 38.492 30.0373 38.492C34.6818 38.492 38.3501 34.742 38.3501 30.032C38.3501 25.322 34.6818 21.542 30.0373 21.542C25.3928 21.542 21.6357 25.322 21.6357 30.032Z" fill="white"/>
</svg>
