<svg width="60" height="60" viewBox="0 0 60 60" fill="none" xmlns="http://www.w3.org/2000/svg">
<g clip-path="url(#clip0_12611_136621)">
<path d="M30 0C24.0666 0 18.2664 1.75947 13.3329 5.05591C8.39943 8.35236 4.55426 13.0377 2.28363 18.5195C0.0129985 24.0013 -0.581102 30.0333 0.576455 35.8527C1.73401 41.6721 4.59124 47.0176 8.78681 51.2132C12.9824 55.4088 18.3279 58.266 24.1473 59.4236C29.9667 60.5811 35.9987 59.987 41.4805 57.7164C46.9623 55.4458 51.6477 51.6006 54.9441 46.6671C58.2405 41.7336 60 35.9334 60 30C60 26.0603 59.224 22.1593 57.7164 18.5195C56.2088 14.8797 53.999 11.5726 51.2132 8.7868C48.4275 6.00104 45.1203 3.79126 41.4805 2.28361C37.8408 0.775973 33.9397 0 30 0ZM36 40.17C34.9665 41.4934 33.4822 42.3903 31.83 42.69V45.9C31.8409 45.9769 31.8329 46.0553 31.8068 46.1285C31.7806 46.2016 31.7371 46.2674 31.68 46.32C31.6399 46.3777 31.5859 46.4245 31.523 46.4559C31.4601 46.4874 31.3903 46.5025 31.32 46.5H29.16C29.0897 46.5025 29.02 46.4874 28.9571 46.4559C28.8942 46.4245 28.8402 46.3777 28.8 46.32C28.7448 46.2659 28.7027 46.2 28.6767 46.1273C28.6507 46.0545 28.6416 45.9768 28.65 45.9V42.69C27.9409 42.578 27.2465 42.3868 26.58 42.12C26.01 41.9021 25.4665 41.6204 24.96 41.28C24.538 41.0217 24.1368 40.7308 23.76 40.41C23.4 40.11 23.16 39.87 23.01 39.72L22.74 39.39C22.6548 39.2836 22.6084 39.1513 22.6084 39.015C22.6084 38.8787 22.6548 38.7464 22.74 38.64L24.39 36.15C24.4266 36.0867 24.479 36.034 24.5421 35.9972C24.6053 35.9604 24.6769 35.9407 24.75 35.94C24.8225 35.9213 24.8991 35.9257 24.969 35.9526C25.0389 35.9795 25.0987 36.0275 25.14 36.09C26.1968 37.2116 27.5486 38.0122 29.04 38.4C29.4336 38.4924 29.8358 38.5427 30.24 38.55C31.0667 38.5572 31.871 38.282 32.52 37.77C32.8477 37.497 33.1076 37.1517 33.2793 36.7613C33.4511 36.3709 33.5301 35.946 33.51 35.52C33.5237 35.1741 33.4406 34.8312 33.27 34.53C33.1325 34.243 32.9502 33.9797 32.73 33.75C32.4502 33.4819 32.1377 33.2501 31.8 33.06L30.66 32.46L29.37 31.86L28.38 31.38L27.39 30.9L26.37 30.33L25.47 29.67C25.1539 29.4407 24.8624 29.1793 24.6 28.89C24.3506 28.6054 24.1201 28.3047 23.91 27.99C23.6856 27.6598 23.4946 27.3081 23.34 26.94C23.2083 26.5361 23.0982 26.1256 23.01 25.71C22.9126 25.2361 22.8623 24.7538 22.86 24.27C22.8397 22.638 23.4037 21.0526 24.45 19.8C25.5052 18.5797 26.9439 17.7546 28.53 17.46V14.1C28.5275 14.0211 28.5423 13.9426 28.5734 13.87C28.6045 13.7975 28.6511 13.7326 28.71 13.68C28.7502 13.6223 28.8042 13.5755 28.8671 13.5441C28.93 13.5126 28.9997 13.4975 29.07 13.5H31.23C31.3652 13.5003 31.4946 13.5543 31.59 13.65C31.6443 13.7109 31.6856 13.7822 31.7114 13.8596C31.7372 13.9369 31.7469 14.0187 31.74 14.1V17.46C32.3453 17.5249 32.9401 17.666 33.51 17.88C33.9905 18.0545 34.4612 18.2548 34.92 18.48C35.2716 18.6924 35.612 18.9227 35.94 19.17L36.57 19.71L36.81 19.98C36.881 20.081 36.9191 20.2015 36.9191 20.325C36.9191 20.4485 36.881 20.569 36.81 20.67L35.49 23.37C35.4618 23.4445 35.413 23.5095 35.3492 23.5573C35.2855 23.6051 35.2095 23.6338 35.13 23.64C35.0616 23.6795 34.984 23.7003 34.905 23.7003C34.826 23.7003 34.7484 23.6795 34.68 23.64L34.47 23.43L33.84 22.95C33.5383 22.7221 33.2171 22.5213 32.88 22.35C32.4966 22.1513 32.0947 21.9905 31.68 21.87C31.2444 21.7273 30.7884 21.6564 30.33 21.66C29.4347 21.6239 28.5547 21.8996 27.84 22.44C27.5288 22.6806 27.2775 22.99 27.1058 23.3439C26.934 23.6978 26.8465 24.0866 26.85 24.48C26.8018 24.7781 26.8018 25.0819 26.85 25.38C26.948 25.6647 27.1126 25.9218 27.33 26.13C27.5247 26.3547 27.7353 26.5653 27.96 26.76L28.86 27.33L29.82 27.81L30.96 28.32L32.25 28.89L33.48 29.55C33.908 29.7642 34.3105 30.0259 34.68 30.33C35.0368 30.621 35.3773 30.9315 35.7 31.26C36.0418 31.6017 36.3256 31.9969 36.54 32.43C36.7603 32.8803 36.9313 33.353 37.05 33.84C37.1973 34.3978 37.2679 34.9731 37.26 35.55C37.3431 37.1849 36.9017 38.8036 36 40.17Z" fill="white"/>
</g>
<defs>
<clipPath id="clip0_12611_136621">
<rect width="60" height="60" fill="white"/>
</clipPath>
</defs>
</svg>
