<svg width="60" height="60" viewBox="0 0 60 60" fill="none" xmlns="http://www.w3.org/2000/svg">
<path d="M9.99998 12.5C9.99998 11.1193 11.1193 9.99998 12.5 9.99998H15C16.3807 9.99998 17.5 11.1193 17.5 12.5V15C17.5 16.3807 16.3807 17.5 15 17.5H12.5C11.1193 17.5 9.99998 16.3807 9.99998 15V12.5Z" fill="white"/>
<path fill-rule="evenodd" clip-rule="evenodd" d="M0 24.8463C0 26.227 1.11929 27.3463 2.49999 27.3463H24.8477C26.2285 27.3463 27.3477 26.227 27.3477 24.8463V2.49999C27.3477 1.11928 26.2285 0 24.8477 0H2.49999C1.11929 0 0 1.11929 0 2.49999V24.8463ZM5.46872 7.96949C5.46872 6.58878 6.58801 5.46949 7.96872 5.46949H19.3738C20.7545 5.46949 21.8737 6.58878 21.8737 7.96949V19.3772C21.8737 20.7579 20.7545 21.8772 19.3738 21.8772H7.96872C6.58801 21.8772 5.46872 20.7579 5.46872 19.3772V7.96949Z" fill="white"/>
<path d="M9.99998 45.0002C9.99998 43.6195 11.1193 42.5002 12.5 42.5002H15C16.3807 42.5002 17.5 43.6195 17.5 45.0002V47.5002C17.5 48.8809 16.3807 50.0002 15 50.0002H12.5C11.1193 50.0002 9.99998 48.8809 9.99998 47.5002V45.0002Z" fill="white"/>
<path fill-rule="evenodd" clip-rule="evenodd" d="M0 57.5001C0 58.8808 1.11929 60.0001 2.49999 60.0001H24.8477C26.2285 60.0001 27.3477 58.8808 27.3477 57.5001V35.1537C27.3477 33.773 26.2285 32.6537 24.8477 32.6537H2.49999C1.11929 32.6537 0 33.773 0 35.1537V57.5001ZM5.46872 40.6229C5.46872 39.2422 6.58801 38.1229 7.96872 38.1229H19.3738C20.7545 38.1229 21.8737 39.2422 21.8737 40.6229V51.9882C21.8737 53.3689 20.7545 54.4882 19.3738 54.4882H7.96872C6.58801 54.4882 5.46872 53.3689 5.46872 51.9882V40.6229Z" fill="white"/>
<path d="M44.9999 9.99998C43.6192 9.99998 42.4999 11.1193 42.4999 12.5V15C42.4999 16.3807 43.6192 17.5 44.9999 17.5H47.4999C48.8806 17.5 49.9999 16.3807 49.9999 15V12.5C49.9999 11.1193 48.8806 9.99998 47.4999 9.99998H44.9999Z" fill="white"/>
<path fill-rule="evenodd" clip-rule="evenodd" d="M35.1513 27.3463C33.7706 27.3463 32.6513 26.227 32.6513 24.8463V2.49999C32.6513 1.11929 33.7706 0 35.1513 0H57.499C58.8797 0 59.999 1.11928 59.999 2.49999V24.8463C59.999 26.227 58.8797 27.3463 57.499 27.3463H35.1513ZM40.621 5.46946C39.2403 5.46946 38.121 6.58875 38.121 7.96945V19.3772C38.121 20.7579 39.2403 21.8772 40.621 21.8772H52.0396C53.4203 21.8772 54.5396 20.7579 54.5396 19.3772V7.96946C54.5396 6.58875 53.4203 5.46946 52.0396 5.46946H40.621Z" fill="white"/>
<path fill-rule="evenodd" clip-rule="evenodd" d="M32.6464 35.1537C32.6464 33.773 33.7657 32.6537 35.1464 32.6537H57.4941C58.8749 32.6537 59.9941 33.773 59.9941 35.1537V57.5001C59.9941 58.8808 58.8749 60.0001 57.4941 60.0001H35.1464C33.7657 60.0001 32.6464 58.8808 32.6464 57.5001V35.1537ZM49.679 55.2907H54.0383L54.0385 37.3944H49.679V44.292H42.9118V37.3944H38.6162V55.2907H42.9118V47.8064H49.679V55.2907Z" fill="white"/>
</svg>
