<svg width="60" height="60" viewBox="0 0 60 60" fill="none" xmlns="http://www.w3.org/2000/svg">
<rect width="60" height="60" rx="30" fill="#3B5B7B"/>
<path d="M29.7368 43.309C30.1163 43.3109 30.4921 43.2352 30.8412 43.0865C31.1904 42.9377 31.5054 42.7193 31.7669 42.4443C32.0429 42.1757 32.2618 41.8541 32.4104 41.4988C32.559 41.1434 32.6342 40.7618 32.6316 40.3766C32.6327 40.0015 32.5559 39.6303 32.406 39.2864C32.0986 38.5792 31.5343 38.0149 30.827 37.7075C30.4759 37.5874 30.1079 37.5239 29.7368 37.5195C29.3517 37.5168 28.97 37.592 28.6147 37.7406C28.2593 37.8892 27.9377 38.1081 27.6691 38.3842C27.138 38.9263 26.841 39.6553 26.8421 40.4142C26.8505 41.1824 27.1454 41.9198 27.6691 42.4819C28.2271 43.012 28.9671 43.308 29.7368 43.309Z" fill="white"/>
<path d="M29.6613 31.7679C30.3956 31.7722 31.1054 31.5043 31.6538 31.016C32.1804 30.5365 32.5145 29.8817 32.5936 29.1739L32.5936 19.813C32.5234 19.0918 32.1886 18.4222 31.6538 17.9333C31.1101 17.4497 30.4078 17.1826 29.6801 17.1826C28.9525 17.1826 28.2501 17.4497 27.7064 17.9333C27.1717 18.4222 26.8369 19.0918 26.7666 19.813L26.7666 29.1739C26.8458 29.8817 27.1798 30.5365 27.7064 31.016C28.2451 31.4957 28.94 31.763 29.6613 31.7679Z" fill="white"/>
</svg>
