<svg width="60" height="60" viewBox="0 0 60 60" fill="none" xmlns="http://www.w3.org/2000/svg">
<rect width="60" height="60" rx="30" fill="#3B5B7B"/>
<path d="M30.0445 32.3741C29.7754 32.6454 29.6237 33.0115 29.6221 33.3936C29.6002 33.7705 29.7255 34.1413 29.9716 34.4276L37.05 41.4477C37.3996 41.7973 37.8737 41.9936 38.3681 41.9936C38.8624 41.9936 39.3366 41.7973 39.6862 41.4477L46.7208 34.3694C46.9932 34.0952 47.1454 33.7239 47.144 33.3374C47.1427 32.9509 46.9878 32.5808 46.7136 32.3085C46.4393 32.0362 46.0681 31.884 45.6816 31.8853C45.2951 31.8867 44.925 32.0416 44.6527 32.3158L39.8157 37.1864V18.6117C39.8157 18.2254 39.6623 17.855 39.3891 17.5818C39.116 17.3087 38.7455 17.1553 38.3593 17.1553C37.973 17.1553 37.6025 17.3087 37.3294 17.5818C37.0563 17.855 36.9028 18.2254 36.9028 18.6117L36.9028 37.19L32.0981 32.3741C31.8252 32.1028 31.456 31.9505 31.0713 31.9505C30.6865 31.9505 30.3174 32.1028 30.0445 32.3741Z" fill="white"/>
<path d="M12.8574 25.8053C12.859 25.4232 13.0107 25.0571 13.2798 24.7858L20.3145 17.7075C20.6641 17.3579 21.1382 17.1616 21.6325 17.1616C22.1269 17.1616 22.601 17.3579 22.9506 17.7075L30.029 24.7276C30.1648 24.8624 30.2727 25.0226 30.3466 25.1992C30.4204 25.3757 30.4588 25.5651 30.4594 25.7565C30.4601 25.9478 30.4231 26.1375 30.3505 26.3146C30.2779 26.4916 30.1711 26.6526 30.0363 26.7884C29.9014 26.9242 29.7412 27.0321 29.5646 27.106C29.3881 27.1798 29.1987 27.2182 29.0073 27.2189C28.816 27.2196 28.6263 27.1825 28.4493 27.1099C28.2722 27.0373 28.1112 26.9305 27.9754 26.7957L23.1101 21.964L23.1101 40.5473C23.1101 40.9336 22.9567 41.304 22.6835 41.5772C22.4104 41.8503 22.04 42.0037 21.6537 42.0037C21.2674 42.0037 20.8969 41.8503 20.6238 41.5772C20.3507 41.304 20.1972 40.9336 20.1972 40.5473L20.1972 21.9564L15.348 26.8394C15.0751 27.1107 14.7059 27.2629 14.3212 27.2629C13.9364 27.2629 13.5672 27.1107 13.2944 26.8394C13.1567 26.7045 13.0473 26.5437 12.9723 26.3662C12.8973 26.1887 12.8582 25.998 12.8574 25.8053Z" fill="white"/>
</svg>
