<svg width="60" height="60" viewBox="0 0 60 60" fill="none" xmlns="http://www.w3.org/2000/svg">
<rect width="60" height="60" rx="30" fill="#3B5B7B"/>
<path d="M30.263 16.6914C29.8835 16.6895 29.5077 16.7652 29.1586 16.9139C28.8094 17.0626 28.4944 17.2811 28.2329 17.5561C27.9569 17.8247 27.738 18.1463 27.5894 18.5016C27.4408 18.8569 27.3656 19.2386 27.3682 19.6238C27.3671 19.9989 27.4439 20.3701 27.5938 20.714C27.9012 21.4212 28.4655 21.9855 29.1728 22.2929C29.5239 22.413 29.8919 22.4765 30.263 22.4809C30.6481 22.4836 31.0298 22.4084 31.3851 22.2598C31.7405 22.1112 32.0621 21.8923 32.3307 21.6162C32.8618 21.0741 33.1588 20.3451 33.1577 19.5862C33.1493 18.818 32.8544 18.0806 32.3307 17.5185C31.7727 16.9884 31.0327 16.6924 30.263 16.6914Z" fill="white"/>
<path d="M30.3386 28.2325C29.6043 28.2282 28.8945 28.4961 28.3461 28.9844C27.8195 29.4639 27.4853 30.1187 27.4062 30.8265V40.1874C27.4765 40.9086 27.8113 41.5782 28.3461 42.0671C28.8898 42.5507 29.592 42.8178 30.3197 42.8178C31.0473 42.8178 31.7497 42.5507 32.2934 42.0671C32.8281 41.5782 33.1629 40.9086 33.2332 40.1874V30.8265C33.154 30.1187 32.82 29.4639 32.2934 28.9844C31.7547 28.5047 31.0599 28.2374 30.3386 28.2325Z" fill="white"/>
</svg>
