<svg width="60" height="60" viewBox="0 0 60 60" fill="none" xmlns="http://www.w3.org/2000/svg">
<rect width="60" height="60" rx="30" fill="#3B5B7B"/>
<path d="M37.0374 34.1802L36.6953 38.0215C36.6638 38.3751 36.9249 38.6873 37.2785 38.7188C37.6321 38.7503 37.9443 38.4892 37.9758 38.1356L38.5663 31.507L31.349 32.0931C30.9951 32.1219 30.7316 32.432 30.7603 32.7859C30.789 33.1397 31.0992 33.4033 31.453 33.3745L35.3872 33.055C29.7594 40.1057 18.3858 36.8091 17.0918 27.9127C16.4377 23.7154 18.5636 19.3001 22.1067 16.9016C25.977 14.3397 30.9374 14.5032 34.9167 16.6291C36.0069 17.2287 36.77 15.3754 35.6798 14.7757C30.9374 12.2683 25.0503 12.3228 20.635 15.5389C16.5467 18.4824 14.2573 23.8244 15.293 28.7849C17.4005 38.9981 30.5434 42.3543 37.0374 34.1802Z" fill="white"/>
<path d="M28.794 27.5211L24.4987 27.0182C30.6004 20.945 41.3834 24.2245 42.6572 32.9821C43.9654 41.9218 34.2626 47.8089 26.5767 43.5571C25.4865 42.9575 24.7233 44.7563 25.8135 45.4104C35.1348 50.5344 46.5274 42.5214 44.5105 32.0554C42.5474 21.9214 30.0489 18.7593 23.0002 25.736L24.1493 21.0691C24.2342 20.7244 24.0235 20.3762 23.6788 20.2913C23.3341 20.2064 22.9858 20.417 22.901 20.7618L21.1386 27.9193L28.6445 28.798C28.9971 28.8393 29.3164 28.5869 29.3577 28.2343C29.3989 27.8817 29.1466 27.5624 28.794 27.5211Z" fill="white"/>
</svg>
