<svg width="60" height="60" viewBox="0 0 60 60" fill="none" xmlns="http://www.w3.org/2000/svg">
<rect x="60" y="60" width="60" height="60" rx="30" transform="rotate(-180 60 60)" fill="#3B5B7B"/>
<path d="M18.5528 47.0577L41.4 47.0577C41.7864 47.0577 42.157 46.9042 42.4303 46.6309C42.7035 46.3576 42.857 45.987 42.857 45.6006C42.857 45.2141 42.7035 44.8435 42.4303 44.5703C42.157 44.297 41.7864 44.1435 41.4 44.1435L18.5528 44.1435C18.1663 44.1435 17.7957 44.297 17.5225 44.5703C17.2492 44.8435 17.0957 45.2141 17.0957 45.6006C17.0957 45.987 17.2492 46.3576 17.5225 46.6309C17.7957 46.9042 18.1663 47.0577 18.5528 47.0577Z" fill="white"/>
<path d="M31.3455 13.5378C31.1557 13.3459 30.9283 13.1951 30.6776 13.0948C30.427 12.9945 30.1583 12.9469 29.8884 12.955C29.6191 12.9511 29.3517 13.0006 29.1016 13.1007C28.8515 13.2007 28.6237 13.3493 28.4314 13.5378L19.31 22.7175C19.1734 22.8529 19.065 23.0141 18.991 23.1916C18.9171 23.3692 18.879 23.5596 18.879 23.752C18.879 23.9444 18.9171 24.1348 18.991 24.3124C19.065 24.4899 19.1734 24.6511 19.31 24.7865C19.583 25.0579 19.9523 25.2102 20.3372 25.2102C20.7222 25.2102 21.0915 25.0579 21.3645 24.7865L28.5188 17.6905L28.5188 40.8291C28.5188 41.2155 28.6723 41.5862 28.9456 41.8594C29.2188 42.1327 29.5894 42.2862 29.9759 42.2862C30.3623 42.2862 30.7329 42.1327 31.0062 41.8594C31.2795 41.5862 31.433 41.2155 31.433 40.8291L31.433 17.7342L38.4707 24.7283C38.6062 24.8648 38.7673 24.9732 38.9449 25.0472C39.1224 25.1212 39.3129 25.1593 39.5052 25.1593C39.6976 25.1593 39.888 25.1212 40.0656 25.0472C40.2432 24.9732 40.4043 24.8648 40.5398 24.7283C40.8112 24.4552 40.9635 24.086 40.9635 23.701C40.9635 23.3161 40.8112 22.9468 40.5398 22.6738L31.3455 13.5378Z" fill="white"/>
</svg>
