<svg width="60" height="60" viewBox="0 0 60 60" fill="none" xmlns="http://www.w3.org/2000/svg">
<rect width="60" height="60" rx="30" fill="#3B5B7B"/>
<path d="M45.6891 28.5463H31.4543V14.3114C31.4543 13.9258 31.3011 13.556 31.0284 13.2833C30.7557 13.0106 30.3859 12.8574 30.0003 12.8574C29.6146 12.8574 29.2448 13.0106 28.9722 13.2833C28.6995 13.556 28.5463 13.9258 28.5463 14.3114V28.5463H14.3114C13.9258 28.5463 13.556 28.6995 13.2833 28.9721C13.0106 29.2448 12.8574 29.6146 12.8574 30.0003C12.8574 30.3859 13.0106 30.7557 13.2833 31.0284C13.556 31.3011 13.9258 31.4543 14.3114 31.4543H28.5463V45.6891C28.5463 46.0747 28.6995 46.4446 28.9722 46.7173C29.2448 46.9899 29.6146 47.1431 30.0003 47.1431C30.3859 47.1431 30.7557 46.9899 31.0284 46.7173C31.3011 46.4446 31.4543 46.0747 31.4543 45.6891V31.4543H45.6891C46.0747 31.4543 46.4446 31.3011 46.7172 31.0284C46.9899 30.7557 47.1431 30.3859 47.1431 30.0003C47.1431 29.6146 46.9899 29.2448 46.7172 28.9721C46.4446 28.6995 46.0747 28.5463 45.6891 28.5463Z" fill="white"/>
</svg>
