<svg width="60" height="60" viewBox="0 0 60 60" fill="none" xmlns="http://www.w3.org/2000/svg">
<rect width="60" height="60" rx="30" fill="#3B5B7B"/>
<path d="M29.3232 42.0488C29.0726 41.9485 28.8452 41.7977 28.6553 41.6058L19.4611 32.4698C19.1897 32.1968 19.0374 31.8275 19.0374 31.4426C19.0374 31.0577 19.1897 30.6884 19.4611 30.4154C19.5966 30.2788 19.7577 30.1704 19.9353 30.0964C20.1128 30.0224 20.3033 29.9843 20.4956 29.9843C20.688 29.9843 20.8784 30.0224 21.056 30.0964C21.2336 30.1704 21.3947 30.2788 21.5302 30.4154L28.5679 37.4094V14.3145C28.5679 13.9281 28.7214 13.5574 28.9947 13.2842C29.2679 13.0109 29.6386 12.8574 30.025 12.8574C30.4114 12.8574 30.7821 13.0109 31.0553 13.2842C31.3286 13.5574 31.4821 13.9281 31.4821 14.3145V37.4531L38.6364 30.3571C38.9094 30.0857 39.2787 29.9334 39.6637 29.9334C40.0486 29.9334 40.4179 30.0857 40.6909 30.3571C40.8275 30.4925 40.9359 30.6537 41.0098 30.8312C41.0838 31.0088 41.1219 31.1992 41.1219 31.3916C41.1219 31.584 41.0838 31.7744 41.0098 31.952C40.9359 32.1295 40.8275 32.2907 40.6909 32.4261L31.5695 41.6058C31.3772 41.7943 31.1494 41.9429 30.8993 42.0429C30.6492 42.143 30.3818 42.1925 30.1124 42.1886C29.8426 42.1967 29.5739 42.1491 29.3232 42.0488Z" fill="white"/>
<path d="M18.6006 44.2302H41.4478C41.8343 44.2302 42.2049 44.3837 42.4781 44.657C42.7514 44.9302 42.9049 45.3008 42.9049 45.6873C42.9049 46.0737 42.7514 46.4443 42.4781 46.7176C42.2049 46.9908 41.8343 47.1444 41.4478 47.1444H18.6006C18.2142 47.1444 17.8436 46.9908 17.5703 46.7176C17.2971 46.4443 17.1436 46.0737 17.1436 45.6873C17.1436 45.3008 17.2971 44.9302 17.5703 44.657C17.8436 44.3837 18.2142 44.2302 18.6006 44.2302Z" fill="white"/>
</svg>
