<svg width="60" height="60" viewBox="0 0 60 60" fill="none" xmlns="http://www.w3.org/2000/svg">
<path d="M30 60C46.5685 60 60 46.5685 60 30C60 13.4315 46.5685 0 30 0C13.4315 0 0 13.4315 0 30C0 46.5685 13.4315 60 30 60Z" fill="#3B5B7B"/>
<path d="M21.9252 30.457C21.1122 29.7092 19.847 29.7621 19.0993 30.5751C18.3515 31.388 18.4044 32.6533 19.2174 33.401L21.9252 30.457ZM26.8617 37.7147L25.5078 39.1867C26.319 39.9328 27.5808 39.8821 28.3295 39.0733L26.8617 37.7147ZM42.6105 23.6447C43.3608 22.8341 43.3119 21.5687 42.5013 20.8184C41.6907 20.0681 40.4253 20.1169 39.675 20.9276L42.6105 23.6447ZM19.2174 33.401L25.5078 39.1867L28.2157 36.2427L21.9252 30.457L19.2174 33.401ZM28.3295 39.0733L42.6105 23.6447L39.675 20.9276L25.394 36.3561L28.3295 39.0733Z" fill="white"/>
</svg>
