<svg width="60" height="60" viewBox="0 0 60 60" fill="none" xmlns="http://www.w3.org/2000/svg">
<rect width="60" height="60" rx="30" fill="#3B5B7B"/>
<path d="M29.999 47.1432H29.9254C27.6742 47.1383 25.446 46.6901 23.368 45.8242C21.2899 44.9582 19.4028 43.6914 17.8144 42.0961C14.6064 38.8743 12.8096 34.5101 12.8194 29.9635C12.8291 25.417 14.6446 21.0605 17.8664 17.8525C21.0882 14.6445 25.4525 12.8477 29.999 12.8575C34.5456 12.8575 38.9059 14.6636 42.1209 17.8785C45.3358 21.0934 47.1419 25.4537 47.1419 30.0003C47.1419 34.5469 45.3358 38.9072 42.1209 42.1221C38.9059 45.3371 34.5456 47.1432 29.999 47.1432ZM29.999 15.8004C26.233 15.8004 22.6212 17.2965 19.9582 19.9595C17.2952 22.6225 15.7991 26.2343 15.7991 30.0003C15.7991 33.7664 17.2952 37.3782 19.9582 40.0411C22.6212 42.7041 26.233 44.2002 29.999 44.2002C33.7651 44.2002 37.3769 42.7041 40.0398 40.0411C42.7028 37.3782 44.1989 33.7664 44.1989 30.0003C44.1989 26.2343 42.7028 22.6225 40.0398 19.9595C37.3769 17.2965 33.7651 15.8004 29.999 15.8004Z" fill="white"/>
<path d="M22.6124 38.8291C22.4188 38.8302 22.2268 38.7931 22.0475 38.7199C21.8682 38.6467 21.7052 38.5388 21.5677 38.4024C21.4297 38.2656 21.3203 38.1028 21.2456 37.9235C21.1709 37.7442 21.1324 37.5519 21.1324 37.3576C21.1324 37.1634 21.1709 36.971 21.2456 36.7917C21.3203 36.6124 21.4297 36.4497 21.5677 36.3129L36.2826 21.598C36.5641 21.3569 36.9262 21.2309 37.2965 21.2452C37.6668 21.2595 38.0181 21.4131 38.2802 21.6751C38.5423 21.9372 38.6958 22.2885 38.7101 22.6588C38.7244 23.0292 38.5984 23.3913 38.3574 23.6728L23.6425 38.3877C23.3708 38.6649 23.0005 38.8236 22.6124 38.8291Z" fill="white"/>
<path d="M25.0425 27.7977C26.6205 27.7977 27.8997 26.5185 27.8997 24.9406C27.8997 23.3626 26.6205 22.0834 25.0425 22.0834C23.4646 22.0834 22.1854 23.3626 22.1854 24.9406C22.1854 26.5185 23.4646 27.7977 25.0425 27.7977Z" fill="white"/>
<path d="M34.5705 38.5717C36.1484 38.5717 37.4276 37.2925 37.4276 35.7146C37.4276 34.1366 36.1484 32.8574 34.5705 32.8574C32.9925 32.8574 31.7133 34.1366 31.7133 35.7146C31.7133 37.2925 32.9925 38.5717 34.5705 38.5717Z" fill="white"/>
</svg>
