<svg width="60" height="60" viewBox="0 0 60 60" fill="none" xmlns="http://www.w3.org/2000/svg">
<mask id="path-1-inside-1_18739_178636" fill="white">
<path d="M30 6.31805e-06C33.9396 6.14585e-06 37.8407 0.77598 41.4805 2.28362C45.1203 3.79126 48.4274 6.00104 51.2132 8.7868C53.999 11.5726 56.2087 14.8797 57.7164 18.5195C59.224 22.1593 60 26.0603 60 30C60 33.9397 59.224 37.8407 57.7164 41.4805C56.2087 45.1203 53.999 48.4274 51.2132 51.2132C48.4274 53.999 45.1203 56.2087 41.4805 57.7164C37.8407 59.224 33.9396 60 30 60L30 51C32.7578 51 35.4885 50.4568 38.0363 49.4015C40.5842 48.3461 42.8992 46.7993 44.8492 44.8492C46.7993 42.8992 48.3461 40.5842 49.4015 38.0364C50.4568 35.4885 51 32.7578 51 30C51 27.2422 50.4568 24.5115 49.4015 21.9637C48.3461 19.4158 46.7993 17.1008 44.8492 15.1508C42.8992 13.2007 40.5842 11.6539 38.0363 10.5985C35.4885 9.54319 32.7578 9.00001 30 9.00001L30 6.31805e-06Z"/>
</mask>
<path d="M30 6.31805e-06C33.9396 6.14585e-06 37.8407 0.77598 41.4805 2.28362C45.1203 3.79126 48.4274 6.00104 51.2132 8.7868C53.999 11.5726 56.2087 14.8797 57.7164 18.5195C59.224 22.1593 60 26.0603 60 30C60 33.9397 59.224 37.8407 57.7164 41.4805C56.2087 45.1203 53.999 48.4274 51.2132 51.2132C48.4274 53.999 45.1203 56.2087 41.4805 57.7164C37.8407 59.224 33.9396 60 30 60L30 51C32.7578 51 35.4885 50.4568 38.0363 49.4015C40.5842 48.3461 42.8992 46.7993 44.8492 44.8492C46.7993 42.8992 48.3461 40.5842 49.4015 38.0364C50.4568 35.4885 51 32.7578 51 30C51 27.2422 50.4568 24.5115 49.4015 21.9637C48.3461 19.4158 46.7993 17.1008 44.8492 15.1508C42.8992 13.2007 40.5842 11.6539 38.0363 10.5985C35.4885 9.54319 32.7578 9.00001 30 9.00001L30 6.31805e-06Z" fill="#8E949F" stroke="white" mask="url(#path-1-inside-1_18739_178636)"/>
<mask id="path-2-inside-2_18739_178636" fill="white">
<path d="M30 60C26.0603 60 22.1593 59.224 18.5195 57.7164C14.8797 56.2087 11.5726 53.999 8.7868 51.2132C6.00104 48.4274 3.79126 45.1203 2.28362 41.4805C0.77598 37.8407 6.14585e-06 33.9396 6.31805e-06 30L9.00001 30C9.00001 32.7578 9.54319 35.4885 10.5985 38.0363C11.6539 40.5842 13.2007 42.8992 15.1508 44.8492C17.1008 46.7993 19.4158 48.3461 21.9637 49.4015C24.5115 50.4568 27.2422 51 30 51L30 60Z"/>
</mask>
<path d="M30 60C26.0603 60 22.1593 59.224 18.5195 57.7164C14.8797 56.2087 11.5726 53.999 8.7868 51.2132C6.00104 48.4274 3.79126 45.1203 2.28362 41.4805C0.77598 37.8407 6.14585e-06 33.9396 6.31805e-06 30L9.00001 30C9.00001 32.7578 9.54319 35.4885 10.5985 38.0363C11.6539 40.5842 13.2007 42.8992 15.1508 44.8492C17.1008 46.7993 19.4158 48.3461 21.9637 49.4015C24.5115 50.4568 27.2422 51 30 51L30 60Z" fill="#3A5B7A" stroke="white" mask="url(#path-2-inside-2_18739_178636)"/>
<mask id="path-3-inside-3_18739_178636" fill="white">
<path d="M1.02521e-05 30C1.05965e-05 26.0603 0.775985 22.1593 2.28363 18.5195C3.79127 14.8797 6.00105 11.5726 8.78681 8.7868C11.5726 6.00104 14.8797 3.79126 18.5195 2.28362C22.1593 0.775979 26.0604 4.6623e-06 30 5.00671e-06L30 9.00001C27.2422 9 24.5115 9.54319 21.9637 10.5985C19.4158 11.6539 17.1008 13.2007 15.1508 15.1508C13.2007 17.1008 11.6539 19.4158 10.5985 21.9636C9.54319 24.5115 9.00001 27.2422 9.00001 30L1.02521e-05 30Z"/>
</mask>
<path d="M1.02521e-05 30C1.05965e-05 26.0603 0.775985 22.1593 2.28363 18.5195C3.79127 14.8797 6.00105 11.5726 8.78681 8.7868C11.5726 6.00104 14.8797 3.79126 18.5195 2.28362C22.1593 0.775979 26.0604 4.6623e-06 30 5.00671e-06L30 9.00001C27.2422 9 24.5115 9.54319 21.9637 10.5985C19.4158 11.6539 17.1008 13.2007 15.1508 15.1508C13.2007 17.1008 11.6539 19.4158 10.5985 21.9636C9.54319 24.5115 9.00001 27.2422 9.00001 30L1.02521e-05 30Z" fill="#7ED0EE" stroke="white" mask="url(#path-3-inside-3_18739_178636)"/>
</svg>
