<svg width="60" height="60" viewBox="0 0 60 60" fill="none" xmlns="http://www.w3.org/2000/svg">
<g clip-path="url(#clip0_19912_187864)">
<path d="M50.7078 56.1797H9.9608C9.45423 56.1797 8.96841 56.3809 8.61021 56.7391C8.25201 57.0973 8.05078 57.5831 8.05078 58.0897C8.05078 58.5963 8.25201 59.0821 8.61021 59.4403C8.96841 59.7985 9.45423 59.9997 9.9608 59.9997H50.7078C51.2144 59.9997 51.7002 59.7985 52.0584 59.4403C52.4166 59.0821 52.6178 58.5963 52.6178 58.0897C52.6178 57.5831 52.4166 57.0973 52.0584 56.7391C51.7002 56.3809 51.2144 56.1797 50.7078 56.1797Z" fill="white"/>
<path d="M9.91002 32.7504H50.6571C51.1636 32.7504 51.6494 32.5492 52.0076 32.191C52.3658 31.8328 52.5671 31.347 52.5671 30.8404C52.5671 30.3338 52.3658 29.848 52.0076 29.4898C51.6494 29.1316 51.1636 28.9304 50.6571 28.9304H48.798C48.4274 24.6286 46.565 20.5917 43.533 17.5177C40.5009 14.4438 36.4898 12.5263 32.1936 12.0968V9.39729H42.9406L40.0628 5.04245L42.6095 1.52801H32.1426C32.0649 1.09862 31.8386 0.710253 31.5034 0.430897C31.1682 0.151542 30.7454 -0.000992363 30.309 4.85881e-06C29.8045 0.00660069 29.3225 0.209952 28.9657 0.56673C28.6089 0.923508 28.4056 1.4055 28.399 1.91002V12.0968C24.1015 12.528 20.0906 14.4502 17.0622 17.5297C14.0339 20.6092 12.1792 24.6518 11.82 28.9559H9.91002C9.40345 28.9559 8.91763 29.1571 8.55943 29.5153C8.20123 29.8735 8 30.3593 8 30.8659C8 31.3725 8.20123 31.8583 8.55943 32.2165C8.91763 32.5747 9.40345 32.7759 9.91002 32.7759V32.7504Z" fill="white"/>
<path d="M11.9727 36.7743V52.0544C11.9727 52.561 12.1739 53.0468 12.5321 53.405C12.8903 53.7632 13.3761 53.9644 13.8827 53.9644C14.3892 53.9644 14.8751 53.7632 15.2333 53.405C15.5915 53.0468 15.7927 52.561 15.7927 52.0544V36.7743C15.7927 36.2677 15.5915 35.7819 15.2333 35.4237C14.8751 35.0655 14.3892 34.8643 13.8827 34.8643C13.3761 34.8643 12.8903 35.0655 12.5321 35.4237C12.1739 35.7819 11.9727 36.2677 11.9727 36.7743Z" fill="white"/>
<path d="M20.1982 36.7743V52.0544C20.1982 52.561 20.3995 53.0468 20.7577 53.405C21.1159 53.7632 21.6017 53.9644 22.1083 53.9644C22.6148 53.9644 23.1006 53.7632 23.4588 53.405C23.817 53.0468 24.0183 52.561 24.0183 52.0544V36.7743C24.0183 36.2677 23.817 35.7819 23.4588 35.4237C23.1006 35.0655 22.6148 34.8643 22.1083 34.8643C21.6017 34.8643 21.1159 35.0655 20.7577 35.4237C20.3995 35.7819 20.1982 36.2677 20.1982 36.7743Z" fill="white"/>
<path d="M28.4248 36.7743V52.0544C28.4248 52.3052 28.4742 52.5536 28.5702 52.7853C28.6662 53.0171 28.8069 53.2276 28.9842 53.405C29.1616 53.5824 29.3722 53.7231 29.6039 53.819C29.8356 53.915 30.084 53.9644 30.3348 53.9644C30.5856 53.9644 30.834 53.915 31.0658 53.819C31.2975 53.7231 31.508 53.5824 31.6854 53.405C31.8628 53.2276 32.0035 53.0171 32.0994 52.7853C32.1954 52.5536 32.2448 52.3052 32.2448 52.0544V36.7743C32.2448 36.2677 32.0436 35.7819 31.6854 35.4237C31.3272 35.0655 30.8414 34.8643 30.3348 34.8643C29.8283 34.8643 29.3424 35.0655 28.9842 35.4237C28.626 35.7819 28.4248 36.2677 28.4248 36.7743Z" fill="white"/>
<path d="M36.625 36.7743V52.0544C36.625 52.561 36.8262 53.0468 37.1844 53.405C37.5426 53.7632 38.0284 53.9644 38.535 53.9644C39.0416 53.9644 39.5274 53.7632 39.8856 53.405C40.2438 53.0468 40.445 52.561 40.445 52.0544V36.7743C40.445 36.2677 40.2438 35.7819 39.8856 35.4237C39.5274 35.0655 39.0416 34.8643 38.535 34.8643C38.0284 34.8643 37.5426 35.0655 37.1844 35.4237C36.8262 35.7819 36.625 36.2677 36.625 36.7743Z" fill="white"/>
<path d="M44.8252 36.7743V52.0544C44.8252 52.561 45.0264 53.0468 45.3846 53.405C45.7428 53.7632 46.2286 53.9644 46.7352 53.9644C47.2418 53.9644 47.7276 53.7632 48.0858 53.405C48.444 53.0468 48.6452 52.561 48.6452 52.0544V36.7743C48.6452 36.2677 48.444 35.7819 48.0858 35.4237C47.7276 35.0655 47.2418 34.8643 46.7352 34.8643C46.2286 34.8643 45.7428 35.0655 45.3846 35.4237C45.0264 35.7819 44.8252 36.2677 44.8252 36.7743Z" fill="white"/>
</g>
<defs>
<clipPath id="clip0_19912_187864">
<rect width="60" height="60" fill="white"/>
</clipPath>
</defs>
</svg>
