<svg width="61" height="60" viewBox="0 0 61 60" fill="none" xmlns="http://www.w3.org/2000/svg">
<path fill-rule="evenodd" clip-rule="evenodd" d="M4.43321 23.4654C5.06126 23.7981 5.76079 23.973 6.47148 23.975C6.87556 23.9759 7.27804 23.9245 7.66894 23.8222L16.0258 21.2743C16.6745 21.0851 17.2215 20.646 17.5464 20.0535C17.8713 19.461 17.9475 18.7637 17.7583 18.115C17.5636 17.4768 17.1262 16.9404 16.5402 16.6212C15.9542 16.302 15.2664 16.2255 14.6245 16.408L10.497 17.6055C12.2596 13.8432 15.0579 10.6611 18.564 8.43194C22.0702 6.20283 26.1389 5.01902 30.2936 5.01921C35.1984 5.01918 39.9596 6.67438 43.8067 9.71687C47.6537 12.7594 50.3614 17.0111 51.4915 21.7839C51.626 22.3539 51.9528 22.8602 52.4169 23.2175C52.8809 23.5748 53.4539 23.7614 54.0394 23.7457C54.2424 23.7703 54.4477 23.7703 54.6508 23.7457C55.3052 23.5884 55.8707 23.1786 56.224 22.6058C56.5772 22.033 56.6894 21.3436 56.5362 20.6883C55.1345 14.8057 51.7937 9.56606 47.0518 5.81319C42.3099 2.06032 36.4428 0.0126698 30.3955 0C25.3289 0.0160802 20.3692 1.45843 16.0841 4.16196C11.799 6.86548 8.36174 10.7209 6.16574 15.2869L4.99374 11.2614C4.80454 10.6127 4.36538 10.0657 3.77289 9.7408C3.18041 9.41589 2.48314 9.33966 1.83444 9.52887C1.18575 9.71807 0.638768 10.1572 0.313857 10.7497C-0.0110532 11.3422 -0.0872819 12.0395 0.101921 12.6882L2.64975 21.045C2.93616 22.0389 3.56879 22.8975 4.43321 23.4654ZM59.9254 46.9346L57.3776 38.6032C57.2274 38.0629 56.9694 37.5586 56.6191 37.1207C56.2688 36.6828 55.8335 36.3204 55.3393 36.0554C54.8529 35.7782 54.3148 35.6036 53.7583 35.5423C53.2019 35.4809 52.6387 35.5341 52.1036 35.6986L43.7722 38.2465C43.1235 38.4357 42.5765 38.8748 42.2516 39.4673C41.9267 40.0598 41.8505 40.7571 42.0397 41.4058C42.2289 42.0545 42.668 42.6014 43.2605 42.9263C43.853 43.2513 44.5503 43.3275 45.199 43.1383L49.3265 41.9408C47.5741 45.728 44.779 48.9376 41.2684 51.1937C37.7579 53.4498 33.6773 54.6591 29.5044 54.6799C24.6009 54.6606 19.8459 52.995 16.002 49.9504C12.1582 46.9058 9.44812 42.6586 8.30647 37.8898C8.14917 37.2354 7.73938 36.6699 7.16655 36.3166C6.59372 35.9634 5.9044 35.8512 5.24909 36.0044C4.92237 36.0821 4.61424 36.2237 4.34243 36.4209C4.07062 36.6182 3.84049 36.8672 3.66527 37.1537C3.49005 37.4402 3.3732 37.7586 3.32145 38.0904C3.26969 38.4222 3.28406 38.761 3.36371 39.0873C4.82973 44.9059 8.19878 50.0675 12.9353 53.7515C17.6718 57.4354 23.5039 59.4303 29.5044 59.4189C34.574 59.4016 39.5367 57.9591 43.8256 55.2559C48.1146 52.5528 51.5569 48.6981 53.7597 44.132L54.9317 48.1575C55.0905 48.7039 55.4277 49.1813 55.8894 49.5138C56.3512 49.8463 56.9109 50.0146 57.4795 49.9919C57.7161 50.0254 57.9563 50.0254 58.1929 49.9919C58.819 49.8022 59.3481 49.3789 59.6706 48.8097C59.9931 48.2406 60.0844 47.5691 59.9254 46.9346ZM36.8772 32.1682C37.1144 32.5784 37.3015 33.0084 37.4355 33.4514L37.2611 33.332C37.8134 35.3735 37.3995 37.5188 36.1095 39.3003C35.0061 40.5196 33.4158 41.3483 31.6428 41.6279V44.6121C31.662 44.6807 31.662 44.7523 31.6428 44.8209C31.6667 44.8789 31.6667 44.9421 31.6428 45H31.3985H29.0954H28.886C28.862 44.9421 28.862 44.8789 28.886 44.8209C28.8667 44.7523 28.8667 44.6807 28.886 44.6121V41.6279C28.1339 41.5125 27.3974 41.3325 26.6875 41.0908C26.0688 40.8984 25.4822 40.6376 24.9427 40.3149C24.4845 40.0806 24.0523 39.8109 23.6516 39.5092C23.363 39.3209 23.0944 39.1112 22.849 38.8825L22.5349 38.5841C22.4942 38.4673 22.4942 38.3428 22.5349 38.226C22.5008 38.1185 22.5008 38.0052 22.5349 37.8978L24.3146 35.6C24.3718 35.5874 24.4319 35.5874 24.4891 35.6C24.5218 35.5867 24.5576 35.5798 24.5938 35.5798C24.63 35.5798 24.6657 35.5867 24.6985 35.6C24.7365 35.5842 24.7783 35.5759 24.8206 35.5759C24.8629 35.5759 24.9047 35.5842 24.9427 35.6C26.0734 36.6399 27.5252 37.3848 29.1303 37.7486C29.56 37.7778 29.9917 37.7778 30.4214 37.7486C31.3079 37.7582 32.1711 37.5052 32.8641 37.0324C33.2178 36.779 33.5034 36.4635 33.7016 36.1073C33.8685 35.7465 33.9515 35.3613 33.9459 34.9733C33.9562 34.6487 33.8595 34.3281 33.6668 34.0482C33.5179 33.7898 33.3302 33.549 33.1084 33.332C32.8007 33.0902 32.4611 32.8799 32.0964 32.7054L30.8751 32.1682L29.4792 31.6012L28.4323 31.1835L27.3855 30.7358L26.2688 30.1987L25.2917 29.6019C24.9651 29.3865 24.6615 29.1469 24.3844 28.8857C24.1094 28.6204 23.853 28.3414 23.6167 28.0501C23.3983 27.7415 23.2002 27.4227 23.0234 27.0952C22.8746 26.7251 22.758 26.3461 22.6745 25.9612C22.5648 25.5297 22.5064 25.0898 22.5 24.6482C22.4976 23.148 23.1017 21.6931 24.2099 20.5301C25.3561 19.4165 26.903 18.6607 28.6068 18.3815V15.3974C28.5876 15.3288 28.5876 15.2572 28.6068 15.1885C28.5968 15.1292 28.5968 15.0689 28.6068 15.0095C28.664 14.9968 28.7241 14.9968 28.7813 15.0095H28.9907H31.3287C31.4746 15.0144 31.6123 15.068 31.7126 15.1587V15.3377C31.7476 15.4145 31.7476 15.4997 31.7126 15.5765V18.5606C32.367 18.6297 33.0106 18.7597 33.6319 18.9485L35.1324 19.5155C35.5252 19.6963 35.8988 19.906 36.2491 20.1422L36.9121 20.6196L37.1564 20.8882C37.1993 20.9843 37.1993 21.0906 37.1564 21.1866C37.205 21.2921 37.205 21.4094 37.1564 21.5149L35.7605 23.9917L35.586 24.1708H35.3767C35.2979 24.1959 35.2112 24.1959 35.1324 24.1708C35.0943 24.1866 35.0526 24.1948 35.0103 24.1948C34.9679 24.1948 34.9262 24.1866 34.8881 24.1708L34.6438 23.9917L33.9808 23.5441C33.6577 23.3305 33.3064 23.1502 32.9339 23.0069C32.5309 22.8273 32.1106 22.6776 31.6777 22.5593C31.2028 22.432 30.7095 22.3617 30.212 22.3504C29.2481 22.3265 28.3024 22.5785 27.525 23.0666C27.203 23.2957 26.9414 23.5804 26.7573 23.9022C26.5626 24.2246 26.4666 24.5839 26.4782 24.9466C26.4083 25.2219 26.4083 25.5069 26.4782 25.7822C26.576 26.0476 26.757 26.285 27.0016 26.4685C27.2048 26.6722 27.4265 26.8618 27.6646 27.0355L28.6417 27.4831L29.6537 27.9308L30.8751 28.3784L32.2709 28.9155L33.597 29.5124C34.0478 29.7229 34.4795 29.9623 34.8881 30.2285C35.2719 30.4971 35.6208 30.7955 35.9698 31.0938L35.9699 31.0939C36.3411 31.4057 36.6479 31.7689 36.8772 32.1682Z" fill="white"/>
</svg>
