<svg width="60" height="60" viewBox="0 0 60 60" fill="none" xmlns="http://www.w3.org/2000/svg">
<path d="M30.0001 0C22.1991 0.228626 14.7943 3.48822 9.35723 9.08695C3.92018 14.6857 0.878906 22.1828 0.878906 29.9871C0.878906 37.7914 3.92018 45.2886 9.35723 50.8873C14.7943 56.486 22.1991 59.7456 30.0001 59.9743C37.801 59.7456 45.2058 56.486 50.6429 50.8873C56.0799 45.2886 59.1212 37.7914 59.1212 29.9871C59.1212 22.1828 56.0799 14.6857 50.6429 9.08695C45.2058 3.48822 37.801 0.228626 30.0001 0ZM30.0001 54.824C23.5513 54.6164 17.4362 51.9086 12.9479 47.2735C8.45962 42.6383 5.95012 36.4392 5.95012 29.9871C5.95012 23.535 8.45962 17.3359 12.9479 12.7008C17.4362 8.06562 23.5513 5.35789 30.0001 5.15022C36.4488 5.35789 42.5639 8.06562 47.0522 12.7008C51.5405 17.3359 54.05 23.535 54.05 29.9871C54.05 36.4392 51.5405 42.6383 47.0522 47.2735C42.5639 51.9086 36.4488 54.6164 30.0001 54.824Z" fill="white"/>
<path d="M40.5838 20.1632C40.1013 19.6836 39.4486 19.4144 38.7683 19.4144C38.088 19.4144 37.4354 19.6836 36.9529 20.1632L30.1288 26.4722L23.8198 19.5452C23.3581 19.0445 22.7168 18.7471 22.0363 18.7182C21.3558 18.6892 20.6915 18.931 20.1889 19.3907C19.9372 19.6197 19.7333 19.8964 19.5892 20.2046C19.445 20.5129 19.3634 20.8467 19.349 21.1868C19.3346 21.5268 19.3878 21.8663 19.5055 22.1857C19.6231 22.505 19.8029 22.7979 20.0344 23.0473L26.3692 29.8456L19.5452 36.1546C19.2952 36.3854 19.0934 36.6634 18.9515 36.9726C18.8096 37.2818 18.7304 37.6161 18.7184 37.9561C18.7064 38.2961 18.7619 38.6351 18.8817 38.9535C19.0016 39.272 19.1833 39.5635 19.4164 39.8113C19.8989 40.2909 20.5515 40.5601 21.2318 40.5601C21.9122 40.5601 22.5648 40.2909 23.0473 39.8113L30.0001 33.631L36.1803 40.4808C36.6421 40.9815 37.2834 41.2789 37.9639 41.3078C38.6444 41.3368 39.3086 41.095 39.8112 40.6353C40.063 40.4063 40.2668 40.1296 40.411 39.8213C40.5552 39.5131 40.6368 39.1792 40.6512 38.8392C40.6655 38.4992 40.6124 38.1597 40.4947 37.8403C40.3771 37.521 40.1973 37.2281 39.9657 36.9787L33.631 30.1804L40.455 23.8456C40.7089 23.6145 40.9139 23.3349 41.0582 23.0234C41.2024 22.7119 41.2829 22.3746 41.2949 22.0315C41.3069 21.6884 41.2501 21.3464 41.128 21.0255C41.0059 20.7047 40.8209 20.4115 40.5838 20.1632Z" fill="white"/>
</svg>
