<svg width="60" height="60" viewBox="0 0 60 60" fill="none" xmlns="http://www.w3.org/2000/svg">
<path d="M59.144 55.5706L46.6844 43.2753C49.8941 39.4023 51.9271 34.7117 52.5483 29.7461C53.1695 24.7805 52.3535 19.7429 50.1946 15.2158C48.0358 10.6888 44.6223 6.85732 40.3491 4.16464C36.0758 1.47195 31.1173 0.0280692 26.0472 0C19.0658 0.213501 12.4427 3.10035 7.58081 8.0491C2.71889 12.9979 0 19.6198 0 26.5125C0 33.4052 2.71889 40.0271 7.58081 44.9759C12.4427 49.9247 19.0658 52.8115 26.0472 53.025C32.2834 53.0436 38.3279 50.8992 43.1245 46.9664L55.5842 59.2617C55.8252 59.4977 56.1111 59.6843 56.4254 59.811C56.7397 59.9377 57.0762 60.0019 57.4157 60C57.7552 60.0019 58.0917 59.9377 58.406 59.811C58.7203 59.6843 59.0062 59.4977 59.2472 59.2617C59.4944 59.0171 59.6885 58.7254 59.8178 58.4043C59.947 58.0833 60.0087 57.7396 59.999 57.3943C59.9894 57.049 59.9086 56.7092 59.7616 56.3957C59.6146 56.0822 59.4045 55.8014 59.144 55.5706ZM25.9441 47.9338C20.3163 47.7423 14.9839 45.4016 11.0714 41.4052C7.1588 37.4089 4.97192 32.0693 4.97192 26.5125C4.97192 20.9557 7.1588 15.6161 11.0714 11.6198C14.9839 7.62342 20.3163 5.28268 25.9441 5.09121C31.5718 5.28268 36.9042 7.62342 40.8168 11.6198C44.7293 15.6161 46.9162 20.9557 46.9162 26.5125C46.9162 32.0693 44.7293 37.4089 40.8168 41.4052C36.9042 45.4016 31.5718 47.7423 25.9441 47.9338Z" fill="white"/>
</svg>
