<svg width="60" height="61" viewBox="0 0 60 61" fill="none" xmlns="http://www.w3.org/2000/svg">
<path fill-rule="evenodd" clip-rule="evenodd" d="M28.8118 51.0849C28.3731 50.9095 27.9752 50.6456 27.6429 50.3097L11.553 34.3217C11.0781 33.844 10.8115 33.1977 10.8115 32.5241C10.8115 31.8504 11.0781 31.2041 11.553 30.7264C11.7901 30.4874 12.0721 30.2977 12.3828 30.1682C12.6936 30.0388 13.0268 29.9721 13.3635 29.9721C13.7001 29.9721 14.0334 30.0388 14.3441 30.1682C14.6548 30.2977 14.9368 30.4874 15.1739 30.7264L27.4899 42.9659V2.54991C27.4899 1.87363 27.7586 1.22505 28.2368 0.746848C28.715 0.268648 29.3636 0 30.0398 0C30.7161 0 31.3647 0.268648 31.8429 0.746848C32.3211 1.22505 32.5898 1.87363 32.5898 2.54991V43.0424L45.1098 30.6244C45.5875 30.1495 46.2338 29.8829 46.9075 29.8829C47.5811 29.8829 48.2274 30.1495 48.7052 30.6244C48.9442 30.8614 49.1339 31.1435 49.2633 31.4542C49.3928 31.7649 49.4594 32.0982 49.4594 32.4348C49.4594 32.7714 49.3928 33.1047 49.2633 33.4154C49.1339 33.7262 48.9442 34.0082 48.7052 34.2452L32.7427 50.3097C32.4061 50.6396 32.0075 50.8996 31.5698 51.0747C31.1322 51.2497 30.6642 51.3364 30.1928 51.3296C29.7206 51.3437 29.2505 51.2604 28.8118 51.0849ZM10.0499 54.9023H50.0324C50.7087 54.9023 51.3573 55.171 51.8355 55.6492C52.3137 56.1274 52.5823 56.776 52.5823 57.4522C52.5823 58.1285 52.3137 58.7771 51.8355 59.2553C51.3573 59.7335 50.7087 60.0022 50.0324 60.0022H10.0499C9.37363 60.0022 8.72505 59.7335 8.24685 59.2553C7.76865 58.7771 7.5 58.1285 7.5 57.4522C7.5 56.776 7.76865 56.1274 8.24685 55.6492C8.72505 55.171 9.37363 54.9023 10.0499 54.9023Z" fill="white"/>
</svg>
