<svg width="60" height="60" viewBox="0 0 60 60" fill="none" xmlns="http://www.w3.org/2000/svg">
<path fill-rule="evenodd" clip-rule="evenodd" d="M43.1356 4.45152C46.4819 5.84177 49.519 7.8822 52.071 10.4546C55.8767 14.3089 58.459 19.2016 59.4937 24.5184C60.5285 29.8352 59.9695 35.3392 57.8869 40.3394C55.8044 45.3396 52.2912 49.6132 47.7883 52.6237C43.2854 55.6342 37.9935 57.2474 32.5769 57.2608C28.9931 57.271 25.4425 56.5744 22.1282 55.211C18.8139 53.8475 15.8009 51.844 13.2617 49.315C13.0223 49.0774 12.8322 48.7949 12.7025 48.4835C12.5728 48.1722 12.506 47.8382 12.506 47.501C12.506 47.1637 12.5728 46.8297 12.7025 46.5184C12.8322 46.2071 13.0223 45.9245 13.2617 45.687C13.7404 45.2111 14.388 44.944 15.063 44.944C15.738 44.944 16.3854 45.2111 16.8641 45.687C18.9205 47.7639 21.3676 49.4134 24.0643 50.5404C26.7611 51.6673 29.6542 52.2494 32.5769 52.2531C38.3718 52.0571 43.8639 49.6173 47.894 45.4486C51.9241 41.28 54.1768 35.7085 54.1768 29.9103C54.1768 24.1121 51.9241 18.5407 47.894 14.372C43.8639 10.2034 38.3718 7.76354 32.5769 7.56756C27.5639 7.56537 22.6959 9.25008 18.7566 12.3505C14.8173 15.451 12.0359 19.7868 10.8601 24.66L15.4589 22.9737C16.048 22.8627 16.6575 22.9624 17.1805 23.2553C17.7035 23.5482 18.1068 24.0157 18.32 24.576C18.5331 25.1363 18.5426 25.7537 18.3465 26.3202C18.1504 26.8867 17.7613 27.3662 17.2474 27.6748L7.53873 31.2261C7.21182 31.3475 6.86541 31.4081 6.5167 31.405C5.90599 31.4072 5.30927 31.2222 4.80682 30.8751C4.30437 30.5279 3.92036 30.0352 3.70635 29.4632L0.154973 19.7801C-0.0764229 19.1464 -0.0477429 18.4469 0.234658 17.8342C0.51706 17.2215 1.03033 16.7454 1.66245 16.5098C1.97774 16.3913 2.31323 16.3363 2.64986 16.348C2.98648 16.3597 3.31755 16.4378 3.62386 16.5779C3.93017 16.718 4.20574 16.9173 4.43475 17.1643C4.66375 17.4113 4.84167 17.7012 4.95824 18.0172L6.33784 21.7729C8.05944 16.1555 11.5371 11.2382 16.2598 7.74328C20.9826 4.24834 26.7016 2.35996 32.5769 2.35552C36.2005 2.34885 39.7894 3.06127 43.1356 4.45152ZM27.5706 17.3616C28.0498 16.8825 28.6996 16.6133 29.3772 16.6133C30.0504 16.62 30.6936 16.8922 31.1672 17.3706C31.6409 17.849 31.9066 18.495 31.9065 19.1682V30.0266H40.2356C40.9132 30.0266 41.563 30.2958 42.0422 30.7749C42.5213 31.2541 42.7905 31.9039 42.7905 32.5815C42.7905 33.2591 42.5213 33.909 42.0422 34.3881C41.563 34.8673 40.9132 35.1365 40.2356 35.1365H26.8223V19.1682C26.8223 18.4906 27.0915 17.8407 27.5706 17.3616Z" fill="white"/>
</svg>
