<svg width="60" height="60" viewBox="0 0 60 60" fill="none" xmlns="http://www.w3.org/2000/svg">
<path d="M57.0293 2.67582C55.2257 2.47039 47.9051 1.31484 43.5287 0.59584C39.1522 -0.123164 39.2583 -0.0717972 38.5156 0.133632L21.1424 6.32219H20.8241C20.6299 6.30769 20.4348 6.30769 20.2405 6.32219L3.87527 2.49607C3.4176 2.39317 2.94189 2.3905 2.48302 2.48823C2.02414 2.58597 1.59367 2.78165 1.22287 3.061C0.824262 3.36514 0.505876 3.75646 0.293781 4.20285C0.081686 4.64923 -0.0181297 5.13795 0.00270343 5.62888V53.3913C0.00991626 54.1167 0.27914 54.8168 0.763585 55.3702C1.24803 55.9236 1.91716 56.2955 2.6551 56.4214L20.3467 59.9907H20.9036C20.9036 59.9907 21.1689 59.9907 21.3016 59.9907C21.4693 60.0031 21.6378 60.0031 21.8055 59.9907L40.107 54.5725L53.82 56.8066L56.2071 57.2174C56.6726 57.3044 57.1524 57.2896 57.6113 57.1741C58.0702 57.0586 58.4966 56.8453 58.8595 56.5498C59.2171 56.2556 59.5044 55.8896 59.7013 55.4773C59.8982 55.0649 60.0001 54.616 60 54.1617V5.75726C60.0018 4.97439 59.6958 4.22021 59.1441 3.64788C58.5923 3.07556 57.8362 2.72801 57.0293 2.67582ZM23.4765 10.9701L36.9506 6.16813V50.0274L23.4765 54.0076V10.9701ZM5.22802 8.11971L18.1717 11.1755V54.3414L5.22802 51.7735V8.11971ZM54.5626 51.7735L42.2554 49.7449V5.60319H42.6533C46.3667 6.21948 51.5654 7.04121 54.5626 7.47775V51.7735Z" fill="white"/>
</svg>
