<svg width="60" height="60" viewBox="0 0 60 60" fill="none" xmlns="http://www.w3.org/2000/svg">
<path fill-rule="evenodd" clip-rule="evenodd" d="M8.5286 50.7433C12.2128 54.5039 16.8003 57.2276 21.8149 58.704L21.8184 58.7141L21.8323 58.7091C24.2613 59.4228 26.7904 59.8438 29.3655 59.9484V59.9999C37.4902 59.9999 45.2822 56.8392 51.0273 51.2131C56.7724 45.587 60 37.9564 60 29.9999C60 22.0435 56.7724 14.4129 51.0273 8.78678C45.2822 3.16071 37.4902 0 29.3655 0C21.4672 0.320681 14.0013 3.61887 8.5286 9.20504C3.05588 14.7912 0 22.2329 0 29.9742C0 37.7155 3.05588 45.1572 8.5286 50.7433ZM11.4223 47.5714C13.915 50.0124 16.873 51.8932 20.0921 53.1309C19.4614 50.8252 18.9257 48.5008 18.4851 46.1634C16.0434 46.4546 13.6151 46.8533 11.2075 47.3584C11.2787 47.4298 11.3503 47.5008 11.4223 47.5714ZM29.3655 54.8497C28.2172 54.8497 27.0769 54.7735 25.9516 54.6239C25.0194 51.6929 24.2591 48.7159 23.6733 45.7076C25.5672 45.6003 27.4659 45.5573 29.3661 45.5789H29.5238C31.3706 45.5647 33.2156 45.6122 35.0558 45.7208C34.4667 48.7251 33.7044 51.6979 32.7714 54.6249C31.6487 54.7738 30.5111 54.8497 29.3655 54.8497ZM38.6771 53.1161C41.8814 51.8783 44.8258 50.0028 47.3086 47.5714C47.3656 47.5156 47.4222 47.4596 47.4785 47.4034C45.1045 46.8966 42.7095 46.4945 40.3008 46.198C39.8567 48.5234 39.3151 50.8314 38.6771 53.1161ZM41.114 41.1031C44.4541 41.5185 47.7694 42.1241 51.0428 42.918C52.9997 39.7685 54.2248 36.2184 54.6098 32.5233H41.7766C41.7011 35.3954 41.4797 38.2588 41.114 41.1031ZM36.5182 32.5233H22.2337C22.3017 35.2278 22.5078 37.9244 22.8505 40.6029C25.0176 40.4668 27.1909 40.4085 29.3661 40.4287H29.5238C31.6484 40.4129 33.7708 40.4735 35.8869 40.61C36.2341 37.9292 36.445 35.2303 36.5182 32.5233ZM36.5219 27.373H22.2365C22.303 24.6646 22.5052 21.9637 22.8415 19.2799C24.9587 19.4183 27.0823 19.4809 29.208 19.4674H29.3658C31.5521 19.4851 33.7362 19.4214 35.9132 19.2767C36.2517 21.9614 36.4552 24.6634 36.5219 27.373ZM41.7829 27.373H54.5988C54.1964 23.6653 52.948 20.1063 50.9632 16.9547C47.7288 17.7459 44.4527 18.352 41.1515 18.7708C41.5058 21.6235 41.7168 24.4943 41.7829 27.373ZM40.3635 13.6802C42.7177 13.3866 45.0586 12.9922 47.3794 12.4981L47.3086 12.4285C44.8655 10.036 41.9754 8.18166 38.8305 6.94357C39.4321 9.16994 39.9434 11.4173 40.3635 13.6802ZM32.9023 5.39266C31.7372 5.23208 30.5557 5.1502 29.3655 5.1502C28.1772 5.1502 26.9975 5.23183 25.8342 5.3919C24.942 8.27935 24.2127 11.209 23.6485 14.1676C25.4978 14.2793 27.3521 14.3293 29.208 14.3172H29.3658C31.2808 14.3332 33.1939 14.2832 35.1017 14.1675C34.534 11.2088 33.8001 8.27936 32.9023 5.39266ZM4.12117 32.5233H16.9959C17.0849 35.3813 17.3125 38.236 17.6786 41.0774C14.3083 41.4844 10.9618 42.0812 7.65583 42.8657C5.71773 39.7293 4.50407 36.198 4.12117 32.5233ZM4.13219 27.373H16.9857C17.0635 24.5049 17.281 21.6392 17.6382 18.7858C14.3127 18.3711 11.0118 17.7683 7.75208 16.9796C5.77634 20.125 4.5335 23.6751 4.13219 27.373ZM11.4223 12.4285C13.8796 10.0222 16.7889 8.16033 19.9548 6.92225C19.3564 9.16204 18.8475 11.4186 18.4281 13.6869C16.0538 13.3925 13.6928 12.9958 11.3521 12.4976L11.4223 12.4285Z" fill="white"/>
</svg>
