<svg width="60" height="61" viewBox="0 0 60 61" fill="none" xmlns="http://www.w3.org/2000/svg">
<path d="M55.3497 14.8031L55.1706 14.6496L31.7079 0.423612C31.2438 0.146387 30.7133 0 30.1727 0C29.6321 0 29.1016 0.146387 28.6375 0.423612L4.79105 14.9567L4.53517 15.1358C4.07749 15.3355 3.68829 15.6648 3.4155 16.0831C3.14271 16.5014 2.99828 16.9903 3.00002 17.4897V42.5132C3.00222 43.0688 3.14686 43.6145 3.4201 44.0983C3.69335 44.5821 4.08609 44.9878 4.56078 45.2765L28.049 59.5281C28.5523 59.8275 29.1266 59.9866 29.7121 59.9886C30.3064 59.9912 30.8902 59.832 31.4008 59.5281L55.3241 44.995C55.8036 44.7094 56.2014 44.3052 56.4792 43.8212C56.7571 43.3372 56.9056 42.7898 56.9104 42.2317V17.1571C56.91 16.6548 56.7618 16.1638 56.4843 15.7453C56.2068 15.3267 55.8121 14.999 55.3497 14.8031ZM27.2047 53.0292L8.11729 41.4641V22.0441L27.2047 33.6091V53.0292ZM29.7633 29.1059L10.5224 17.4641L30.1727 5.48971L49.4392 17.1571L29.7633 29.1059ZM51.8187 41.1571L32.3475 52.978V33.5323L51.8187 21.7114V41.1571Z" fill="white"/>
</svg>
