<svg width="61" height="60" viewBox="0 0 61 60" fill="none" xmlns="http://www.w3.org/2000/svg">
<path fill-rule="evenodd" clip-rule="evenodd" d="M8.84538 8.7868C14.4715 3.16071 22.1021 0 30.0586 0C38.0151 0 45.6457 3.16071 51.2718 8.7868C56.8979 14.4129 60.0586 22.0435 60.0586 30C60.0586 37.9565 56.8979 45.5871 51.2718 51.2132C45.6457 56.8393 38.0151 60 30.0586 60C22.1021 60 14.4715 56.8393 8.84538 51.2132C3.21929 45.5871 0.0585938 37.9565 0.0585938 30C0.0585938 22.0435 3.21929 14.4129 8.84538 8.7868ZM12.4871 47.5714C17.1474 52.2317 23.468 54.8498 30.0586 54.8498C36.6491 54.8498 42.9698 52.2317 47.63 47.5714C52.2903 42.9112 54.9083 36.5906 54.9083 30C54.9083 23.4094 52.2903 17.0888 47.63 12.4286C42.9698 7.76832 36.6491 5.15021 30.0586 5.15021C23.468 5.15021 17.1474 7.76832 12.4871 12.4286C7.82689 17.0888 5.20881 23.4094 5.20881 30C5.20881 36.5906 7.82689 42.9112 12.4871 47.5714ZM25.7308 33.733L39.6364 20.8575L39.5333 20.9347C39.7746 20.677 40.0662 20.4716 40.3902 20.3312C40.7141 20.1909 41.0635 20.1187 41.4166 20.1191C41.7696 20.1195 42.1188 20.1925 42.4424 20.3336C42.7661 20.4746 43.0572 20.6807 43.2978 20.9391C43.5385 21.1974 43.7234 21.5024 43.8412 21.8352C43.9589 22.1681 44.0071 22.5215 43.9825 22.8737C43.9579 23.2259 43.8611 23.5693 43.6982 23.8825C43.5353 24.1957 43.3097 24.4721 43.0355 24.6944L25.5763 40.9433L18.778 34.4283C18.5047 34.2029 18.2809 33.9234 18.1206 33.6075C17.9603 33.2916 17.8669 32.946 17.8462 32.5924C17.8255 32.2387 17.8781 31.8846 18.0005 31.5522C18.123 31.2197 18.3126 30.9161 18.5577 30.6604C18.8028 30.4046 19.0981 30.2022 19.4251 30.0657C19.752 29.9292 20.1035 29.8617 20.4578 29.8673C20.812 29.8729 21.1612 29.9516 21.4836 30.0983C21.8061 30.2451 22.0947 30.4568 22.3316 30.7202L25.7308 33.733Z" fill="white"/>
</svg>
