<svg width="60" height="60" viewBox="0 0 60 60" fill="none" xmlns="http://www.w3.org/2000/svg">
<path fill-rule="evenodd" clip-rule="evenodd" d="M20.9268 14.5001C20.4611 14.962 19.8326 15.2224 19.1768 15.2251C18.8424 15.2173 18.5131 15.1424 18.2082 15.005C17.9033 14.8676 17.6291 14.6704 17.4018 14.4251C16.9361 13.9567 16.6748 13.3231 16.6748 12.6626C16.6748 12.0021 16.9361 11.3685 17.4018 10.9001L27.4018 0.900103C27.6904 0.611609 28.0336 0.383454 28.4113 0.228936C28.789 0.0744184 29.1937 -0.00336321 29.6018 0.000111484C30.4093 0.00364883 31.1825 0.327301 31.7518 0.900103L41.7518 10.9001C42.1614 11.3784 42.3754 11.9936 42.3511 12.6227C42.3268 13.2519 42.0659 13.8488 41.6207 14.294C41.1755 14.7393 40.5786 15.0001 39.9494 15.0244C39.3202 15.0487 38.705 14.8347 38.2268 14.4251L32.0768 8.32511V35.8251C32.0768 36.4881 31.8134 37.124 31.3445 37.5929C30.8757 38.0617 30.2398 38.3251 29.5768 38.3251C28.9137 38.3251 28.2779 38.0617 27.809 37.5929C27.3402 37.124 27.0768 36.4881 27.0768 35.8251V8.32511L20.9268 14.5001ZM41.3486 20H49.6438C55.4453 20 60 25.9146 60 33.0019V46.9981C60 54.1619 55.3435 60 49.6438 60H10.3562C4.65649 60 0 54.1619 0 46.9981V33.0019C0 25.8381 4.65649 20 10.3562 20H18.7023C19.3771 20 20.0243 20.2686 20.5015 20.7467C20.9787 21.2248 21.2468 21.8733 21.2468 22.5494C21.2468 23.2255 20.9787 23.874 20.5015 24.3521C20.0243 24.8302 19.3771 25.0988 18.7023 25.0988H10.3562C7.63359 25.0988 5.08906 28.7189 5.08906 33.0019V46.9981C5.08906 51.2811 7.50636 54.9012 10.3562 54.9012H49.6438C52.3664 54.9012 54.9109 51.2811 54.9109 46.9981V33.0019C54.9109 28.7189 52.4936 25.0988 49.6438 25.0988H41.3486C40.6737 25.0988 40.0265 24.8302 39.5493 24.3521C39.0721 23.874 38.8041 23.2255 38.8041 22.5494C38.8041 21.8733 39.0721 21.2248 39.5493 20.7467C40.0265 20.2686 40.6737 20 41.3486 20Z" fill="white"/>
</svg>
