<svg width="60" height="60" viewBox="0 0 60 60" fill="none" xmlns="http://www.w3.org/2000/svg">
<g clip-path="url(#clip0_17619_203190)">
<path d="M8.81625 18.0727C10.7241 18.0878 12.5853 17.4664 14.1203 16.3019C15.6554 15.1375 16.7816 13.4927 17.3298 11.6145H57.4649C58.1369 11.6145 58.7814 11.3401 59.2566 10.8517C59.7317 10.3634 59.9987 9.70098 59.9987 9.01032C59.9987 8.31966 59.7317 7.65728 59.2566 7.16891C58.7814 6.68054 58.1369 6.40618 57.4649 6.40618H17.3298C16.8558 4.80495 15.9584 3.37047 14.7377 2.26267C13.517 1.15487 12.0209 0.417278 10.4162 0.132121C8.81152 -0.153036 7.16131 0.0254491 5.64955 0.647675C4.13779 1.2699 2.82387 2.31141 1.85427 3.65611C0.88467 5.00082 0.297496 6.59587 0.158203 8.26344C0.0189098 9.93101 0.332972 11.6056 1.06538 13.1004C1.79778 14.5953 2.91975 15.8518 4.30621 16.7297C5.69266 17.6076 7.28912 18.0726 8.9176 18.0727H8.81625ZM8.81625 5.05204C9.55793 5.05204 10.283 5.27807 10.8996 5.70156C11.5163 6.12506 11.997 6.727 12.2808 7.43125C12.5646 8.1355 12.6389 8.91043 12.4942 9.65805C12.3495 10.4057 11.9923 11.0924 11.4679 11.6314C10.9435 12.1704 10.2753 12.5375 9.54784 12.6862C8.82041 12.8349 8.06641 12.7586 7.38119 12.4669C6.69596 12.1752 6.11029 11.6812 5.69824 11.0474C5.28618 10.4136 5.06625 9.66842 5.06625 8.90615C5.09896 7.90429 5.50766 6.95431 6.20671 6.25526C6.90577 5.55622 7.84092 5.0582 8.81625 5.05204Z" fill="white"/>
<path d="M51.1824 41.8499C49.2746 41.8348 47.4134 42.4561 45.8783 43.6206C44.3433 44.7851 43.2171 46.4299 42.6689 48.3081H2.53378C1.86178 48.3081 1.2173 48.5825 0.742128 49.0709C0.266952 49.5592 0 50.2216 0 50.9123C0 51.6029 0.266952 52.2653 0.742128 52.7537C1.2173 53.242 1.86178 53.5164 2.53378 53.5164H42.6689C43.1429 55.1176 44.0403 56.5521 45.261 57.6599C46.4817 58.7677 47.9778 59.5053 49.5825 59.7905C51.1872 60.0756 52.8374 59.8971 54.3491 59.2749C55.8609 58.6527 57.1748 57.6112 58.1444 56.2665C59.114 54.9218 59.7012 53.3267 59.8405 51.6592C59.9798 49.9916 59.6657 48.317 58.9333 46.8222C58.2009 45.3273 57.0789 44.0708 55.6925 43.1929C54.306 42.3149 52.7096 41.85 51.0811 41.8499H51.1824ZM51.1824 54.8706C50.4347 54.8757 49.7023 54.6525 49.0781 54.2293C48.4539 53.8061 47.9661 53.2019 47.6765 52.4934C47.3868 51.7849 47.3084 51.0039 47.4512 50.2495C47.594 49.4951 47.9516 48.8013 48.4786 48.2561C49.0055 47.7108 49.6782 47.3386 50.4112 47.1868C51.1442 47.035 51.9046 47.1103 52.5959 47.4032C53.2873 47.6961 53.8784 48.1934 54.2944 48.832C54.7103 49.4706 54.9324 50.2219 54.9324 50.9904C54.9126 52.0014 54.5096 52.9645 53.8092 53.6746C53.1088 54.3848 52.1663 54.864 51.1824 54.8706Z" fill="white"/>
<path d="M57.4662 27.3999H37.9307C37.3973 25.5317 36.2894 23.8913 34.7729 22.7244C33.2565 21.5574 31.413 20.9268 29.5186 20.9268C27.6242 20.9268 25.7807 21.5574 24.2642 22.7244C22.7477 23.8913 21.6399 25.5317 21.1064 27.3999H2.53378C1.86178 27.3999 1.2173 27.6743 0.742128 28.1627C0.266951 28.651 0 29.3134 0 30.0041C0 30.6947 0.266951 31.3571 0.742128 31.8455C1.2173 32.3338 1.86178 32.6082 2.53378 32.6082H21.1064C21.6399 34.4764 22.7477 36.1168 24.2642 37.2838C25.7807 38.4507 27.6242 39.0814 29.5186 39.0814C31.413 39.0814 33.2565 38.4507 34.7729 37.2838C36.2894 36.1168 37.3973 34.4764 37.9307 32.6082H57.4662C58.1382 32.6082 58.7827 32.3338 59.2579 31.8455C59.733 31.3571 60 30.6947 60 30.0041C60 29.3134 59.733 28.651 59.2579 28.1627C58.7827 27.6743 58.1382 27.3999 57.4662 27.3999ZM29.5946 33.8582C28.8458 33.8633 28.1124 33.6395 27.4876 33.2151C26.8629 32.7908 26.3751 32.185 26.0862 31.475C25.7974 30.7649 25.7205 29.9826 25.8653 29.2275C26.0102 28.4724 26.3703 27.7786 26.8998 27.2344C27.4293 26.6902 28.1043 26.3201 28.839 26.1712C29.5737 26.0224 30.3349 26.1014 31.0258 26.3983C31.7166 26.6952 32.306 27.1966 32.7189 27.8386C33.1318 28.4807 33.3496 29.2344 33.3446 30.0041C33.3447 30.5168 33.2452 31.0245 33.052 31.4972C32.8589 31.97 32.5758 32.3984 32.2195 32.7573C31.8632 33.1163 31.4408 33.3985 30.977 33.5875C30.5132 33.7766 30.0174 33.8686 29.5186 33.8582H29.5946Z" fill="white"/>
</g>
<defs>
<clipPath id="clip0_17619_203190">
<rect width="60" height="60" fill="white"/>
</clipPath>
</defs>
</svg>
