<svg width="60" height="60" viewBox="0 0 60 60" fill="none" xmlns="http://www.w3.org/2000/svg">
<path d="M60 15.5517C59.9867 14.742 59.6558 13.9697 59.0782 13.3995C58.5005 12.8294 57.7218 12.5065 56.9083 12.5H44.133C43.4554 12.5 42.8055 12.7679 42.3264 13.2448C41.8472 13.7217 41.578 14.3686 41.578 15.043C41.578 15.7175 41.8472 16.3643 42.3264 16.8412C42.8055 17.3181 43.4554 17.5861 44.133 17.5861H51.2617L37.6943 31.1405L30.0292 21.7821C29.4004 20.9895 28.4816 20.4774 27.4741 20.358C26.4473 20.2612 25.4225 20.5617 24.6124 21.1972L0.927012 40.4988C0.40822 40.9257 0.0796663 41.5391 0.0126874 42.2057C-0.0542914 42.8724 0.145757 43.5384 0.569345 44.0591C0.809823 44.3541 1.11368 44.5918 1.45856 44.7546C1.80344 44.9174 2.18057 45.0013 2.56229 45C3.1505 44.9953 3.71907 44.7887 4.17199 44.4151L26.8609 25.9272L34.5261 35.5145C34.8599 35.9395 35.281 36.2886 35.7613 36.5386C36.2416 36.7886 36.7699 36.9336 37.3111 36.964C37.8515 36.9857 38.3907 36.8976 38.8958 36.7053C39.401 36.5129 39.8615 36.2202 40.2494 35.8451L54.8643 21.2989V28.3685C54.8643 29.043 55.1335 29.6898 55.6126 30.1667C56.0918 30.6436 56.7417 30.9116 57.4194 30.9116C58.097 30.9116 58.7469 30.6436 59.226 30.1667C59.7052 29.6898 59.9744 29.043 59.9744 28.3685L60 15.5517Z" fill="white"/>
</svg>
