<svg width="60" height="60" viewBox="0 0 60 60" fill="none" xmlns="http://www.w3.org/2000/svg">
<path fill-rule="evenodd" clip-rule="evenodd" d="M42.4187 37.3768L41.8149 44.1556C41.7593 44.7796 42.2201 45.3305 42.8442 45.3861C43.4682 45.4417 44.0191 44.9809 44.0747 44.3569L45.1167 32.6593L32.3802 33.6938C31.7558 33.7445 31.2907 34.2918 31.3414 34.9162C31.3921 35.5407 31.9394 36.0058 32.5639 35.9551L39.5066 35.3912C29.5751 47.8336 9.5041 42.016 7.22054 26.3166C6.06621 18.9096 9.81779 11.1178 16.0704 6.88526C22.9003 2.36412 31.654 2.6527 38.6762 6.40429C40.6 7.46243 41.9468 4.19181 40.0229 3.13367C31.654 -1.29128 21.2649 -1.19508 13.4732 4.4804C6.2586 9.6749 2.21843 19.102 4.04612 27.8557C7.76522 45.879 30.9587 51.8018 42.4187 37.3768ZM27.8714 25.6255L20.2916 24.7381C31.0593 14.0206 50.088 19.808 52.3359 35.2625C54.6446 51.0384 37.522 61.4274 23.9586 53.9243C22.0347 52.8661 20.6879 56.0405 22.6118 57.1949C39.0611 66.2372 59.1657 52.0966 55.6065 33.6272C52.1422 15.7436 30.0861 10.1635 17.6472 22.4752L19.675 14.2396C19.8247 13.6313 19.453 13.0167 18.8447 12.867C18.2363 12.7172 17.6218 13.0889 17.472 13.6972L14.362 26.3281L27.6076 27.8788C28.2298 27.9517 28.7933 27.5063 28.8662 26.884C28.939 26.2618 28.4937 25.6983 27.8714 25.6255Z" fill="white"/>
</svg>
