<svg width="60" height="61" viewBox="0 0 60 61" fill="none" xmlns="http://www.w3.org/2000/svg">
<path fill-rule="evenodd" clip-rule="evenodd" d="M17.5729 0H40.729C45.8246 0.00678671 50.7106 2.04826 54.321 5.67894C57.9313 9.30962 59.9728 14.2348 60 19.3796V39.9022C60 40.5912 59.7289 41.2519 59.2464 41.7391C58.7639 42.2263 58.1095 42.5 57.4271 42.5C56.7447 42.5 56.0903 42.2263 55.6078 41.7391C55.1253 41.2519 54.8542 40.5912 54.8542 39.9022V19.4575C54.8542 15.675 53.366 12.0475 50.717 9.37282C48.068 6.6982 44.4752 5.1956 40.729 5.1956H17.5729C16.8905 5.1956 16.2361 4.9219 15.7536 4.43472C15.2711 3.94754 15 3.28678 15 2.5978C15 1.90882 15.2711 1.24806 15.7536 0.760876C16.2361 0.273694 16.8905 0 17.5729 0ZM10.5072 11.4844H38.2361C39.6147 11.4844 40.9798 11.7563 42.2531 12.2847C43.5265 12.813 44.6831 13.5874 45.6568 14.5634C46.6304 15.5394 47.4019 16.698 47.9272 17.9726C48.4524 19.2472 48.7211 20.613 48.7177 21.9916V49.6948C48.7177 52.4771 47.6142 55.1457 45.6493 57.1155C43.6843 59.0853 41.0183 60.1953 38.2361 60.202H10.5072C7.72262 60.1953 5.054 59.0861 3.08497 57.1171C1.11595 55.1481 0.00676701 52.4794 0 49.6948V21.9916C0 19.2049 1.10701 16.5324 3.0775 14.5619C5.04799 12.5914 7.72054 11.4844 10.5072 11.4844ZM42.025 53.4913C43.0287 52.4827 43.5922 51.1177 43.5922 49.6948V21.9916C43.5922 20.5687 43.0287 19.2037 42.025 18.1952C41.0213 17.1866 39.659 16.6166 38.2361 16.6099H10.5072C9.0799 16.6099 7.71103 17.1769 6.70176 18.1861C5.69248 19.1954 5.12548 20.5643 5.12548 21.9916V49.6948C5.12548 51.1221 5.69248 52.491 6.70176 53.5003C7.71103 54.5096 9.0799 55.0766 10.5072 55.0766H38.2361C39.659 55.0698 41.0213 54.4998 42.025 53.4913Z" fill="white"/>
</svg>
