<svg width="60" height="60" viewBox="0 0 60 60" fill="none" xmlns="http://www.w3.org/2000/svg">
<path fill-rule="evenodd" clip-rule="evenodd" d="M29.9338 0C21.9152 0.228724 14.3037 3.48973 8.71494 9.09086C3.12615 14.692 0 22.1923 0 30C0 37.8077 3.12615 45.308 8.71494 50.9092C14.3037 56.5103 21.9152 59.7713 29.9338 60H30.0662C38.0848 59.7713 45.6963 56.5103 51.2851 50.9092C56.8738 45.308 60 37.8077 60 30C60 22.1923 56.8738 14.692 51.2851 9.09086C45.6963 3.48973 38.0848 0.228724 30.0662 0H29.9338ZM29.9338 54.8476C23.3051 54.6398 17.0194 51.9309 12.4059 47.2938C7.79236 42.6566 5.21268 36.4549 5.21268 30C5.21268 23.5452 7.79236 17.3434 12.4059 12.7062C17.0194 8.06909 23.3051 5.36019 29.9338 5.15243C36.5625 5.36019 42.8484 8.06909 47.4619 12.7062C52.0755 17.3434 54.655 23.5452 54.655 30C54.655 36.4549 52.0755 42.6566 47.4619 47.2938C42.8484 51.9309 36.5625 54.6398 29.9338 54.8476ZM30 27.5C29.337 27.5 28.7011 27.7758 28.2323 28.2667C27.7634 28.7577 27.5 29.4235 27.5 30.1178V39.8822C27.5 40.5765 27.7634 41.2423 28.2323 41.7333C28.7011 42.2242 29.337 42.5 30 42.5C30.663 42.5 31.2989 42.2242 31.7677 41.7333C32.2366 41.2423 32.5 40.5765 32.5 39.8822V30.1178C32.5 29.4235 32.2366 28.7577 31.7677 28.2667C31.2989 27.7758 30.663 27.5 30 27.5ZM28.624 17.9128C29.0382 17.6397 29.5244 17.496 30.0206 17.5001C30.3462 17.5001 30.6686 17.5642 30.9694 17.6888C31.2702 17.8134 31.5436 17.996 31.7738 18.2263C32.004 18.4565 32.1865 18.7298 32.3111 19.0306C32.4357 19.3314 32.4999 19.6538 32.4999 19.9794C32.504 20.4756 32.3603 20.9618 32.0872 21.3761C31.8141 21.7903 31.4239 22.114 30.9662 22.3057C30.5086 22.4975 30.0042 22.5488 29.5173 22.453C29.0304 22.3572 28.5831 22.1186 28.2323 21.7678C27.8814 21.4169 27.6428 20.9695 27.547 20.4827C27.4512 19.9958 27.5025 19.4914 27.6943 19.0338C27.8861 18.5761 28.2097 18.1859 28.624 17.9128Z" fill="white"/>
</svg>
