<svg width="60" height="60" viewBox="0 0 60 60" fill="none" xmlns="http://www.w3.org/2000/svg">
<g clip-path="url(#clip0_18727_179146)">
<path d="M51.0342 7.4204H55.973C56.4768 7.4204 56.9599 7.22026 57.3162 6.86403C57.6724 6.5078 57.8725 6.02465 57.8725 5.52086C57.8725 5.01707 57.6724 4.53392 57.3162 4.17769C56.9599 3.82145 56.4768 3.62133 55.973 3.62133H35.0781C34.6932 2.55998 33.9908 1.64291 33.0664 0.994809C32.1419 0.346711 31.0403 -0.000976562 29.9114 -0.000976562C28.7824 -0.000976562 27.6808 0.346711 26.7564 0.994809C25.8319 1.64291 25.1295 2.55998 24.7446 3.62133H4.05234C3.54855 3.62133 3.0654 3.82145 2.70917 4.17769C2.35294 4.53392 2.15281 5.01707 2.15281 5.52086C2.15281 6.02465 2.35294 6.5078 2.70917 6.86403C3.0654 7.22026 3.54855 7.4204 4.05234 7.4204H9.11777L0 28.138V28.5179C4.42414e-08 31.4869 1.17943 34.3343 3.27882 36.4337C5.37822 38.5331 8.2256 39.7125 11.1946 39.7125C14.1636 39.7125 17.011 38.5331 19.1104 36.4337C21.2098 34.3343 22.3892 31.4869 22.3892 28.5179V28.138L13.3981 7.4204H24.9472C25.222 8.16951 25.6566 8.84981 26.2208 9.41402C26.785 9.97823 27.4653 10.4128 28.2144 10.6876V43.8155C24.9089 44.2577 21.8766 45.886 19.6821 48.3973C17.4876 50.9086 16.2805 54.1318 16.2854 57.4668V59.3664H43.74V57.4668C43.7451 54.1585 42.5486 50.9609 40.373 48.4686C38.1975 45.9762 35.1909 44.3587 31.9122 43.9168V10.6876C32.6426 10.4006 33.303 9.96051 33.8491 9.39696C34.3952 8.8334 34.8142 8.15944 35.0781 7.4204H46.526L37.6108 28.138V28.5179C37.6108 31.4869 38.7902 34.3343 40.8896 36.4337C42.989 38.5331 45.8364 39.7125 48.8054 39.7125C51.7744 39.7125 54.6218 38.5331 56.7212 36.4337C58.8206 34.3343 60 31.4869 60 28.5179V28.138L51.0342 7.4204ZM11.1946 11.878L17.6024 26.6437H4.93879L11.1946 11.878ZM11.1946 35.8881C9.57806 35.8874 8.00692 35.3533 6.72477 34.3688C5.44261 33.3843 4.52107 32.0043 4.103 30.4428H18.3115C17.8912 32.0127 16.9621 33.3989 15.6697 34.3843C14.3772 35.3697 12.7945 35.8986 11.1693 35.8881H11.1946ZM39.7636 55.4913H20.287C20.6345 53.7276 21.4555 52.0918 22.6619 50.7592C23.8683 49.4267 25.4147 48.4476 27.1352 47.927C28.8558 47.4064 30.6856 47.364 32.4284 47.8042C34.1712 48.2444 35.7613 49.1507 37.0283 50.4259C38.4223 51.802 39.3671 53.5679 39.7383 55.4913H39.7636ZM55.3398 26.6437H42.423L48.8307 11.878L55.3398 26.6437ZM48.932 35.8881C47.3155 35.8874 45.7444 35.3533 44.4622 34.3688C43.1801 33.3843 42.2585 32.0043 41.8404 30.4428H56.0743C55.6488 32.034 54.7007 33.4361 53.3824 34.4236C52.0641 35.4112 50.4521 35.927 48.8054 35.8881H48.932Z" fill="white"/>
</g>
<defs>
<clipPath id="clip0_18727_179146">
<rect width="60" height="60" fill="white"/>
</clipPath>
</defs>
</svg>
