<svg width="60" height="60" viewBox="0 0 60 60" fill="none" xmlns="http://www.w3.org/2000/svg">
<path fill-rule="evenodd" clip-rule="evenodd" d="M34.1511 29.9242C34.6259 30.3951 35.2666 30.6606 35.9352 30.6634C36.5949 30.7018 37.2438 30.4825 37.7449 30.0517L50.03 17.6645C50.6417 17.0527 50.9854 16.223 50.9854 15.3579C50.9854 14.4928 50.6417 13.663 50.03 13.0512L37.643 0.740577C37.163 0.264011 36.5134 -0.00237405 35.837 1.59443e-05C35.1606 0.00240593 34.513 0.273377 34.0364 0.753324C33.5598 1.23327 33.2934 1.88288 33.2958 2.55924C33.2982 3.2356 33.5692 3.8833 34.0492 4.35986L42.5723 12.8242H10.0683C9.39234 12.8242 8.744 13.0927 8.26601 13.5707C7.78802 14.0487 7.51953 14.697 7.51953 15.373C7.51953 16.049 7.78802 16.6973 8.26601 17.1753C8.744 17.6533 9.39234 17.9218 10.0683 17.9218H42.5793L34.1511 26.3304C33.6764 26.808 33.4099 27.454 33.4099 28.1273C33.4099 28.8007 33.6764 29.4467 34.1511 29.9242ZM22.6559 59.9998C21.9872 59.997 21.3464 59.7316 20.8717 59.2607L8.48463 46.95C7.87295 46.3382 7.5293 45.5085 7.5293 44.6434C7.5293 43.7782 7.87295 42.9485 8.48463 42.3367L20.7698 29.9496C21.0058 29.712 21.2862 29.5231 21.5952 29.3939C21.9041 29.2646 22.2355 29.1975 22.5704 29.1963C22.9053 29.1951 23.2372 29.2599 23.5471 29.387C23.8569 29.514 24.1386 29.7009 24.3763 29.9369C24.6139 30.1728 24.8028 30.4533 24.9321 30.7622C25.0613 31.0712 25.1284 31.4026 25.1296 31.7375C25.1308 32.0724 25.066 32.4042 24.939 32.7141C24.8119 33.024 24.625 33.3058 24.3891 33.5434L15.9335 42.0576H48.4543C49.1303 42.0576 49.7787 42.3261 50.2567 42.8041C50.7346 43.2821 51.0031 43.9304 51.0031 44.6064C51.0031 45.2824 50.7346 45.9307 50.2567 46.4087C49.7787 46.8867 49.1303 47.1552 48.4543 47.1552H15.9203L24.4655 55.6414C24.9402 56.119 25.2067 56.7649 25.2067 57.4383C25.2067 58.1117 24.9402 58.7577 24.4655 59.2352C24.2295 59.476 23.948 59.6676 23.6374 59.7989C23.3267 59.9301 22.9931 59.9984 22.6559 59.9998Z" fill="white"/>
</svg>
