<svg width="60" height="60" viewBox="0 0 60 60" fill="none" xmlns="http://www.w3.org/2000/svg">
<path fill-rule="evenodd" clip-rule="evenodd" d="M57.4511 12.5H2.54886C1.87286 12.5 1.2245 12.2366 0.746502 11.7678C0.268499 11.2989 0 10.663 0 10C0 9.33696 0.268499 8.70107 0.746502 8.23223C1.2245 7.76339 1.87286 7.5 2.54886 7.5H57.4511C58.1271 7.5 58.7755 7.76339 59.2535 8.23223C59.7315 8.70107 60 9.33696 60 10C60 10.663 59.7315 11.2989 59.2535 11.7678C58.7755 12.2366 58.1271 12.5 57.4511 12.5ZM57.4511 27.5H2.54886C1.87286 27.5 1.2245 27.7634 0.746502 28.2322C0.268499 28.7011 0 29.337 0 30C0 30.663 0.268499 31.2989 0.746502 31.7678C1.2245 32.2366 1.87286 32.5 2.54886 32.5H57.4511C58.1271 32.5 58.7755 32.2366 59.2535 31.7678C59.7315 31.2989 60 30.663 60 30C60 29.337 59.7315 28.7011 59.2535 28.2322C58.7755 27.7634 58.1271 27.5 57.4511 27.5ZM57.4511 47.5H2.54886C1.87286 47.5 1.2245 47.7634 0.746502 48.2322C0.268499 48.7011 0 49.337 0 50C0 50.663 0.268499 51.2989 0.746502 51.7678C1.2245 52.2366 1.87286 52.5 2.54886 52.5H57.4511C58.1271 52.5 58.7755 52.2366 59.2535 51.7678C59.7315 51.2989 60 50.663 60 50C60 49.337 59.7315 48.7011 59.2535 48.2322C58.7755 47.7634 58.1271 47.5 57.4511 47.5Z" fill="white"/>
</svg>
