<svg width="60" height="60" viewBox="0 0 60 60" fill="none" xmlns="http://www.w3.org/2000/svg">
<path d="M57.4555 27.4555H32.5445V2.54453C32.5445 1.86968 32.2764 1.22247 31.7992 0.745273C31.322 0.268082 30.6749 0 30 0C29.3251 0 28.678 0.268082 28.2008 0.745273C27.7236 1.22247 27.4555 1.86968 27.4555 2.54453V27.4555H2.54453C1.86968 27.4555 1.2225 27.7236 0.745312 28.2007C0.26812 28.6779 0 29.3251 0 30C0 30.6749 0.26812 31.3221 0.745312 31.7993C1.2225 32.2765 1.86968 32.5445 2.54453 32.5445H27.4555V57.4555C27.4555 58.1303 27.7236 58.7775 28.2008 59.2547C28.678 59.7319 29.3251 60 30 60C30.6749 60 31.322 59.7319 31.7992 59.2547C32.2764 58.7775 32.5445 58.1303 32.5445 57.4555V32.5445H57.4555C58.1303 32.5445 58.7775 32.2765 59.2547 31.7993C59.7319 31.3221 60 30.6749 60 30C60 29.3251 59.7319 28.6779 59.2547 28.2007C58.7775 27.7236 58.1303 27.4555 57.4555 27.4555Z" fill="white"/>
</svg>
