<svg width="60" height="60" viewBox="0 0 60 60" fill="none" xmlns="http://www.w3.org/2000/svg">
<path d="M17.5647 59.9957C17.251 59.9976 16.9399 59.9333 16.6495 59.8064C16.359 59.6795 16.0948 59.4926 15.8721 59.2563C15.428 58.7786 15.1788 58.1323 15.1788 57.4588C15.1788 56.7852 15.428 56.139 15.8721 55.6612L39.8312 29.8586L15.7052 4.36196C15.4818 4.12494 15.3044 3.84294 15.1833 3.53224C15.0623 3.22154 15 2.88828 15 2.55169C15 2.2151 15.0623 1.88185 15.1833 1.57115C15.3044 1.26045 15.4818 0.978453 15.7052 0.741429C16.1519 0.266551 16.7561 0 17.3859 0C18.0157 0 18.6199 0.266551 19.0666 0.741429L43.884 27.0795C44.5988 27.8486 45 28.8889 45 29.9734C45 31.0578 44.5988 32.0981 43.884 32.8672L19.2573 59.3838C18.7886 59.8147 18.1818 60.0341 17.5647 59.9957Z" fill="white"/>
</svg>
