<svg width="60" height="60" viewBox="0 0 60 60" fill="none" xmlns="http://www.w3.org/2000/svg">
<path d="M58.8783 27.2801L36.8917 5.74504C36.654 5.50896 36.3712 5.32157 36.0597 5.1937C35.7481 5.06583 35.414 5 35.0765 5C34.739 5 34.4048 5.06583 34.0932 5.1937C33.7817 5.32157 33.499 5.50896 33.2613 5.74504C32.7851 6.21695 32.5178 6.85533 32.5178 7.52074C32.5178 8.18615 32.7851 8.82451 33.2613 9.29642L51.8222 27.4816H2.55659C1.87854 27.4816 1.2283 27.7469 0.748846 28.2193C0.269392 28.6916 0 29.3323 0 30.0003C0 30.6683 0.269392 31.3089 0.748846 31.7813C1.2283 32.2536 1.87854 32.519 2.55659 32.519H51.771L33.4147 50.7042C33.178 50.939 32.9905 51.2175 32.8631 51.5237C32.7356 51.8299 32.6707 52.1578 32.6718 52.4888C32.673 52.8197 32.7404 53.1472 32.87 53.4525C32.9997 53.7578 33.1891 54.035 33.4275 54.2682C33.6659 54.5013 33.9485 54.686 34.2593 54.8115C34.5701 54.9371 34.903 55.0012 35.2389 55C35.5748 54.9988 35.9072 54.9325 36.2171 54.8047C36.527 54.677 36.8084 54.4904 37.0451 54.2555L58.9039 32.5946C59.6109 31.8839 60.0047 30.9272 60 29.9321C59.9952 28.9371 59.5921 27.9841 58.8783 27.2801Z" fill="white"/>
</svg>
