<svg width="60" height="60" viewBox="0 0 60 60" fill="none" xmlns="http://www.w3.org/2000/svg">
<path d="M57.4641 27.4641H51.9865C51.4375 22.5271 49.2291 17.9226 45.7227 14.4041C42.1921 10.8218 37.5353 8.5651 32.5359 8.01353V2.53593C32.5359 1.86336 32.2687 1.21834 31.7932 0.742763C31.3176 0.267185 30.6726 0 30 0C29.3274 0 28.6824 0.267185 28.2068 0.742763C27.7312 1.21834 27.4641 1.86336 27.4641 2.53593V8.01353C22.5271 8.56248 17.9226 10.7708 14.4041 14.2773C10.8253 17.8104 8.56913 22.4659 8.01353 27.4641H2.53593C1.86336 27.4641 1.21833 27.7312 0.742753 28.2068C0.267175 28.6824 0 29.3274 0 30C0 30.6726 0.267175 31.3176 0.742753 31.7932C1.21833 32.2687 1.86336 32.5359 2.53593 32.5359H8.01353C8.5912 37.4948 10.8262 42.1135 14.3563 45.6437C17.8865 49.1738 22.5052 51.4088 27.4641 51.9865V57.4641C27.4641 58.1366 27.7312 58.7817 28.2068 59.2572C28.6824 59.7328 29.3274 60 30 60C30.6726 60 31.3176 59.7328 31.7932 59.2572C32.2687 58.7817 32.5359 58.1366 32.5359 57.4641V51.9611C37.491 51.3846 42.1067 49.1533 45.6364 45.6282C49.1662 42.1031 51.4035 37.4903 51.9865 32.5359H57.4641C58.1366 32.5359 58.7817 32.2687 59.2572 31.7932C59.7328 31.3176 60 30.6726 60 30C60 29.3274 59.7328 28.6824 59.2572 28.2068C58.7817 27.7312 58.1366 27.4641 57.4641 27.4641ZM32.5359 46.8385V43.8461C32.5359 43.1736 32.2687 42.5286 31.7932 42.053C31.3176 41.5774 30.6726 41.3102 30 41.3102C29.3274 41.3102 28.6824 41.5774 28.2068 42.053C27.7312 42.5286 27.4641 43.1736 27.4641 43.8461V46.8639C23.8325 46.3178 20.4722 44.6199 17.8783 42.0203C15.3292 39.4436 13.668 36.1212 13.1361 32.5359H16.1285C16.8011 32.5359 17.4461 32.2687 17.9217 31.7932C18.3972 31.3176 18.6644 30.6726 18.6644 30C18.6644 29.3274 18.3972 28.6824 17.9217 28.2068C17.4461 27.7312 16.8011 27.4641 16.1285 27.4641H13.1361C13.6804 23.854 15.3798 20.5174 17.9797 17.9544C20.5418 15.3715 23.8673 13.6821 27.4641 13.1361V16.1285C27.4641 16.8011 27.7312 17.4461 28.2068 17.9217C28.6824 18.3972 29.3274 18.6644 30 18.6644C30.6726 18.6644 31.3176 18.3972 31.7932 17.9217C32.2687 17.4461 32.5359 16.8011 32.5359 16.1285V13.1361C36.1716 13.6523 39.5384 15.3445 42.1217 17.9544C44.6811 20.5237 46.3441 23.8496 46.8639 27.4387H43.8715C43.1989 27.4387 42.5539 27.7059 42.0783 28.1815C41.6028 28.657 41.3356 29.3021 41.3356 29.9746C41.3356 30.6472 41.6028 31.2922 42.0783 31.7678C42.5539 32.2434 43.1989 32.5106 43.8715 32.5106H46.8639C46.3196 36.1161 44.6348 39.4526 42.0564 42.031C39.4779 44.6094 36.1415 46.2942 32.5359 46.8385Z" fill="white"/>
</svg>
