<svg width="60" height="60" viewBox="0 0 60 60" fill="none" xmlns="http://www.w3.org/2000/svg">
<path fill-rule="evenodd" clip-rule="evenodd" d="M18.6884 15.7912C18.4782 15.8159 18.2657 15.8159 18.0556 15.7912L10.5139 13.9212C9.96905 13.8024 9.45467 13.5777 9.00151 13.2608C8.54835 12.9438 8.16577 12.541 7.877 12.0767C7.32379 11.147 7.16315 10.0451 7.42877 9.00267L9.35365 1.70184C9.57407 1.10093 10.0174 0.601527 10.5968 0.301346C11.1762 0.00116509 11.8501 -0.0782028 12.4866 0.0787764C13.123 0.235755 13.6762 0.617779 14.0381 1.15011C14.3999 1.68245 14.5444 2.3268 14.443 2.95708L13.8498 5.23426C18.6434 2.24571 24.2378 0.643627 29.9736 0.649419C35.1904 0.672852 40.3118 2.0102 44.8377 4.53088C49.3635 7.05157 53.1392 10.6694 55.7959 15.0311C58.4525 19.3929 59.8994 24.3493 59.9952 29.4166C60.091 34.4838 58.8325 39.4886 56.3426 43.9422C56.125 44.3196 55.8126 44.6373 55.4345 44.8658C55.0565 45.0942 54.625 45.2259 54.1803 45.2486C53.7242 45.2454 53.2767 45.1273 52.8817 44.9059C52.4866 44.6844 52.1574 44.3672 51.9263 43.9852C51.6951 43.6032 51.5699 43.1694 51.5629 42.7264C51.5559 42.2833 51.6673 41.8461 51.8862 41.4573C53.8394 37.9375 54.8718 34.0052 54.8923 30.0065C54.9027 26.8265 54.2675 23.6758 53.0228 20.7346C51.7782 17.7934 49.9486 15.1197 47.6389 12.8663C45.3292 10.6129 42.5846 8.82426 39.5624 7.60267C36.5402 6.38108 33.2997 5.75055 30.0264 5.7472C24.9882 5.73977 20.0815 7.23325 15.9602 10.0082L19.2684 10.8215C19.9678 10.9064 20.6038 11.2578 21.0365 11.7982C21.4692 12.3387 21.6631 13.024 21.5757 13.7034C21.4883 14.3828 21.1266 15.0007 20.5703 15.421C20.014 15.8414 19.3085 16.0298 18.6092 15.9449L18.6884 15.7912ZM15.5419 55.5C19.9754 57.8902 24.957 59.1572 30.0273 59.1841C36.008 59.1957 41.8205 57.4734 46.7428 54.2865L46.1338 56.933C46.0602 57.2627 46.0545 57.6033 46.1169 57.9352C46.1792 58.2671 46.3084 58.5837 46.497 58.867C46.6857 59.1502 46.9302 59.3945 47.2163 59.5858C47.5024 59.777 47.8245 59.9114 48.1642 59.9814C48.3479 60.0063 48.5343 60.0063 48.718 59.9814C49.3296 59.9803 49.9217 59.7728 50.3931 59.3942C50.8646 59.0157 51.1859 58.4898 51.3021 57.9064L52.9634 50.5287C53.1991 49.4826 52.9983 48.3884 52.4053 47.4857C51.8122 46.5831 50.875 45.9455 49.7991 45.7127L42.2048 44.0988C41.5055 43.9528 40.775 44.0826 40.1742 44.4597C39.5733 44.8368 39.1514 45.4304 39.0011 46.1098C38.8507 46.7892 38.9842 47.4988 39.3724 48.0825C39.7606 48.6662 40.3716 49.0762 41.071 49.2223L44.0405 49.8646C39.9328 52.5886 35.0526 54.0654 30.0273 54.0607C23.437 54.0336 17.1274 51.466 12.4846 46.922C7.84188 42.378 5.24577 36.2294 5.26679 29.827C5.26513 26.2826 6.07588 22.7823 7.64007 19.5802C7.93895 18.9685 7.97628 18.2667 7.74404 17.6282C7.5118 16.9898 7.0288 16.4666 6.40064 16.1732C6.08752 16.0254 5.74743 15.9393 5.3999 15.9199C5.05236 15.9005 4.7043 15.9481 4.37581 16.0601C4.04732 16.172 3.74487 16.346 3.48595 16.5721C3.22704 16.7981 3.0168 17.0717 2.86729 17.3772C0.710636 21.8352 -0.25559 26.749 0.0576948 31.6654C0.37098 36.5818 1.95371 41.3423 4.65988 45.5079C7.36604 49.6734 11.1085 53.1098 15.5419 55.5Z" fill="white"/>
</svg>
