<svg width="60" height="60" viewBox="0 0 60 60" fill="none" xmlns="http://www.w3.org/2000/svg">
<path d="M33.5815 29.9946L59.2614 4.33388C59.7345 3.85786 60 3.21391 60 2.54271C60 1.8715 59.7345 1.22755 59.2614 0.751528C59.0253 0.513395 58.7443 0.324385 58.4348 0.195398C58.1253 0.0664117 57.7933 0 57.4579 0C57.1226 0 56.7906 0.0664117 56.4811 0.195398C56.1716 0.324385 55.8907 0.513395 55.6545 0.751528L30 26.4123L4.34548 0.751528C4.10935 0.513395 3.82841 0.324385 3.51889 0.195398C3.20936 0.0664117 2.87738 0 2.54207 0C2.20675 0 1.87474 0.0664117 1.56521 0.195398C1.25568 0.324385 0.974744 0.513395 0.738613 0.751528C0.265526 1.22755 0 1.8715 0 2.54271C0 3.21391 0.265526 3.85786 0.738613 4.33388L26.4185 29.9946L0.738613 55.6808C0.389085 56.0375 0.152424 56.4893 0.0581759 56.9798C-0.0360719 57.4702 0.0162815 57.9776 0.208712 58.4385C0.401143 58.8993 0.725106 59.2932 1.14011 59.571C1.55511 59.8487 2.04275 59.9979 2.54207 60C2.87635 60.0019 3.20775 59.9378 3.51722 59.8114C3.82669 59.6849 4.10814 59.4986 4.34548 59.2632L30 33.6024L55.6545 59.2632C55.8919 59.4986 56.1733 59.6849 56.4828 59.8114C56.7923 59.9378 57.1236 60.0019 57.4579 60C57.9572 59.9979 58.4449 59.8487 58.8599 59.571C59.2749 59.2932 59.5989 58.8993 59.7913 58.4385C59.9837 57.9776 60.0361 57.4702 59.9418 56.9798C59.8476 56.4893 59.6109 56.0375 59.2614 55.6808L33.5815 29.9946Z" fill="white"/>
</svg>
