<svg width="61" height="60" viewBox="0 0 61 60" fill="none" xmlns="http://www.w3.org/2000/svg">
<path d="M30.0644 60.0001H29.9357C25.996 59.9916 22.0966 59.2073 18.4601 57.6918C14.8236 56.1764 11.5211 53.9595 8.74134 51.1678C3.12733 45.5296 -0.0170048 37.8922 6.91733e-05 29.9357C0.0171432 21.9792 3.19422 14.3554 8.83239 8.74134C14.4706 3.12733 22.108 -0.0170048 30.0644 6.91733e-05C38.0209 6.91733e-05 45.6516 3.16077 51.2777 8.78687C56.9037 14.413 60.0644 22.0436 60.0644 30.0001C60.0644 37.9566 56.9037 45.5872 51.2777 51.2133C45.6516 56.8394 38.0209 60.0001 30.0644 60.0001ZM30.0644 5.15028C23.4739 5.15028 17.1532 7.76838 12.493 12.4286C7.83276 17.0889 5.21466 23.4095 5.21466 30.0001C5.21466 36.5906 7.83276 42.9113 12.493 47.5715C17.1532 52.2318 23.4739 54.8499 30.0644 54.8499C36.655 54.8499 42.9757 52.2318 47.6359 47.5715C52.2961 42.9113 54.9142 36.5906 54.9142 30.0001C54.9142 23.4095 52.2961 17.0889 47.6359 12.4286C42.9757 7.76838 36.655 5.15028 30.0644 5.15028Z" fill="white"/>
<path d="M17.1379 45.4505C16.799 45.4524 16.463 45.3875 16.1493 45.2593C15.8355 45.1312 15.5502 44.9424 15.3096 44.7037C15.0682 44.4643 14.8766 44.1795 14.7459 43.8657C14.6152 43.5519 14.5479 43.2153 14.5479 42.8754C14.5479 42.5354 14.6152 42.1988 14.7459 41.885C14.8766 41.5712 15.0682 41.2864 15.3096 41.047L41.0606 15.296C41.5533 14.8741 42.1869 14.6536 42.835 14.6787C43.4831 14.7037 44.0979 14.9724 44.5565 15.431C45.0151 15.8896 45.2838 16.5044 45.3088 17.1525C45.3339 17.8006 45.1134 18.4342 44.6915 18.9269L18.9405 44.6779C18.465 45.1631 17.8171 45.4408 17.1379 45.4505Z" fill="white"/>
<path d="M21.3906 26.1455C24.1521 26.1455 26.3906 23.9069 26.3906 21.1455C26.3906 18.3841 24.1521 16.1455 21.3906 16.1455C18.6292 16.1455 16.3906 18.3841 16.3906 21.1455C16.3906 23.9069 18.6292 26.1455 21.3906 26.1455Z" fill="white"/>
<path d="M38.0645 45C40.8259 45 43.0645 42.7614 43.0645 40C43.0645 37.2386 40.8259 35 38.0645 35C35.303 35 33.0645 37.2386 33.0645 40C33.0645 42.7614 35.303 45 38.0645 45Z" fill="white"/>
</svg>
