<svg width="61" height="60" viewBox="0 0 61 60" fill="none" xmlns="http://www.w3.org/2000/svg">
<path fill-rule="evenodd" clip-rule="evenodd" d="M2.36657 3.81247C3.24226 3.22735 4.27191 2.91504 5.3251 2.91504C6.73737 2.91504 8.09172 3.47607 9.09035 4.4747C10.089 5.47333 10.6501 6.82775 10.6501 8.24003C10.6501 9.29322 10.3377 10.3228 9.75259 11.1984C9.16747 12.0741 8.33592 12.7567 7.36291 13.1597C6.38989 13.5627 5.31907 13.6682 4.28612 13.4627C3.25318 13.2572 2.3044 12.7501 1.55968 12.0054C0.814969 11.2607 0.307783 10.3118 0.102317 9.27889C-0.10315 8.24594 0.00231941 7.17526 0.405356 6.20224C0.808393 5.22922 1.49088 4.39758 2.36657 3.81247ZM20.8984 10.7402H56.4235C57.0865 10.7402 57.7224 10.4768 58.1912 10.008C58.6601 9.53916 58.9235 8.90328 58.9235 8.24023C58.9235 7.57719 58.6601 6.94131 58.1912 6.47247C57.7224 6.00362 57.0865 5.74023 56.4235 5.74023H20.8984C20.2354 5.74023 19.5995 6.00362 19.1307 6.47247C18.6619 6.94131 18.3984 7.57719 18.3984 8.24023C18.3984 8.90328 18.6619 9.53916 19.1307 10.008C19.5995 10.4768 20.2354 10.7402 20.8984 10.7402ZM20.8984 26.9902H56.4235C57.0865 26.9902 57.7224 27.2536 58.1912 27.7225C58.6601 28.1913 58.9235 28.8272 58.9235 29.4902C58.9235 30.1533 58.6601 30.7892 58.1912 31.258C57.7224 31.7268 57.0865 31.9902 56.4235 31.9902H20.8984C20.2354 31.9902 19.5995 31.7268 19.1307 31.258C18.6619 30.7892 18.3984 30.1533 18.3984 29.4902C18.3984 28.8272 18.6619 28.1913 19.1307 27.7225C19.5995 27.2536 20.2354 26.9902 20.8984 26.9902ZM20.8984 48.291H56.4235C57.0865 48.291 57.7224 48.5544 58.1912 49.0232C58.6601 49.4921 58.9235 50.128 58.9235 50.791C58.9235 51.4541 58.6601 52.0899 58.1912 52.5588C57.7224 53.0276 57.0865 53.291 56.4235 53.291H20.8984C20.2354 53.291 19.5995 53.0276 19.1307 52.5588C18.6619 52.0899 18.3984 51.4541 18.3984 50.791C18.3984 50.128 18.6619 49.4921 19.1307 49.0232C19.5995 48.5544 20.2354 48.291 20.8984 48.291ZM5.32501 34.8395C8.26593 34.8395 10.65 32.4554 10.65 29.5145C10.65 26.5735 8.26593 24.1895 5.32501 24.1895C2.3841 24.1895 1.94144e-09 26.5735 1.94144e-09 29.5145C1.94144e-09 32.4554 2.3841 34.8395 5.32501 34.8395ZM10.65 50.7889C10.65 53.7298 8.26593 56.1139 5.32501 56.1139C2.3841 56.1139 1.94144e-09 53.7298 1.94144e-09 50.7889C1.94144e-09 47.8479 2.3841 45.4639 5.32501 45.4639C8.26593 45.4639 10.65 47.8479 10.65 50.7889Z" fill="white"/>
</svg>
