<svg width="60" height="60" viewBox="0 0 60 60" fill="none" xmlns="http://www.w3.org/2000/svg">
<path fill-rule="evenodd" clip-rule="evenodd" d="M22.2413 2.5H50.9043C52.1481 2.55142 53.3701 2.85895 54.5003 3.40499C55.6305 3.95103 56.6466 4.72486 57.4907 5.68222C58.3348 6.63958 58.9901 7.76167 59.4193 8.98431C59.8485 10.2069 60.0431 11.5061 59.9919 12.8075V47.1925C60.0955 49.812 59.2025 52.3676 57.5087 54.2996C55.8149 56.2316 53.4583 57.3824 50.9552 57.5H22.2413C20.9244 57.4902 19.6267 57.1689 18.4453 56.5601C17.2638 55.9512 16.2294 55.0707 15.4193 53.9843L2.23328 36.7785C0.786211 34.8434 0 32.4571 0 30C0 27.543 0.786211 25.1566 2.23328 23.2215L15.4193 6.01574C16.2294 4.92934 17.2638 4.04876 18.4453 3.43992C19.6267 2.83108 20.9244 2.50976 22.2413 2.5ZM53.8529 50.5291C54.5912 49.5971 54.9493 48.3985 54.8499 47.1925L54.9008 12.8075C55.0003 11.6015 54.6421 10.4029 53.9038 9.4709C53.1655 8.5389 52.1063 7.94835 50.9552 7.82688H22.2413C21.6837 7.83789 21.1356 7.98009 20.6377 8.2429C20.1398 8.5057 19.7047 8.88238 19.3649 9.34504L6.17889 26.5508C5.45433 27.5409 5.06169 28.7531 5.06169 30C5.06169 31.247 5.45433 32.4591 6.17889 33.4492L19.3903 50.655C19.7275 51.1142 20.1585 51.4888 20.6517 51.7514C21.145 52.0141 21.6881 52.1582 22.2413 52.1731H50.9043C52.0554 52.0517 53.1146 51.4611 53.8529 50.5291ZM42.2689 20.0132C42.9648 20.0132 43.6324 20.2884 44.126 20.7788C44.3919 21.0176 44.6065 21.308 44.7566 21.6323C44.9067 21.9566 44.9891 22.308 44.999 22.6652C45.0089 23.0224 44.9459 23.3778 44.8139 23.7099C44.6819 24.0419 44.4837 24.3437 44.2313 24.5967L38.7787 30.0471L44.2313 35.5238C44.722 36.0171 44.9973 36.6845 44.9973 37.3801C44.9973 38.0757 44.722 38.7431 44.2313 39.2364C43.7407 39.7228 43.0785 39.9971 42.3874 40C42.0408 40.002 41.6971 39.9356 41.3762 39.8045C41.0552 39.6735 40.7633 39.4804 40.5172 39.2364L35.0645 33.786L29.6118 39.2364C29.3657 39.4804 29.0738 39.6735 28.7529 39.8045C28.4319 39.9356 28.0883 40.002 27.7416 40C27.3949 40.002 27.0513 39.9356 26.7303 39.8045C26.4094 39.6735 26.1175 39.4804 25.8714 39.2364C25.3807 38.7431 25.1054 38.0757 25.1054 37.3801C25.1054 36.6845 25.3807 36.0171 25.8714 35.5238L31.1396 29.9418L25.766 24.4914C25.2754 23.9981 25 23.3307 25 22.6351C25 21.9395 25.2754 21.2722 25.766 20.7788C26.0109 20.5321 26.3022 20.3362 26.6232 20.2025C26.9442 20.0688 27.2885 20 27.6362 20C27.984 20 28.3283 20.0688 28.6493 20.2025C28.9703 20.3362 29.2616 20.5321 29.5065 20.7788L34.9592 26.2292L40.4118 20.7788C40.9054 20.2884 41.573 20.0132 42.2689 20.0132Z" fill="white"/>
</svg>
